<svg xmlns="http://www.w3.org/2000/svg" viewBox="0 0 759.89 428.97"><g id="レイヤー_2" data-name="レイヤー 2"><g id="レイヤー_1-2" data-name="レイヤー 1"><g id="レイヤー_2-2" data-name="レイヤー 2"><g id="_4" data-name=" 4"><path d="M637.16,426.26c-5.6-2.7-9.6-7.9-14.2-12-5-4.5-11-7.6-15.5-12.8-9-10.3-15.5-25.4-12.8-39.2,2.5-12.6,9.9-24.5,21-31.3a118.46,118.46,0,0,1,21.5-9.8c8.2-2.9,15.9-7,23.9-10.3,7.3-2.9,14.5-5.9,21.9-8.7,8.3-3.1,15.3-7.9,22.7-12.6a104.23,104.23,0,0,0,19.9-15.6c7.4-7.6,15.1-15,19.3-24.9,7.3-17.1,12.6-36.3,11.6-55.1a180.54,180.54,0,0,0-2.7-22c-1.7-9.7-5.2-18.4-7.9-27.8-2.1-7.5-3.6-14-7.5-20.9-4.5-8-9.9-15.1-15.6-22.3-5.1-6.4-9.9-12.7-16.4-17.8-7.1-5.6-13.5-12.4-20.9-17.6-13.1-9.2-29.2-15.9-43.7-22.6-7-3.2-13.9-7.3-21.5-9.4-8.3-2.2-16.8-4.1-25.1-6.2-7.6-1.9-14.7-5.7-22.4-7.2a245.37,245.37,0,0,0-25.6-3.4c-8-.8-15.2-3.3-23.1-4.6-8.4-1.4-17.2-1.7-25.7-2.1-16.4-.9-32.8-1.2-49.3-1.7s-32.7.4-49.1.6c-8.9.1-17.5.3-26.4,1.2-7.4.7-14.8-.3-22.2,0-8.2.3-16.1,1.6-24.3,1.6s-16.3-.1-24.3.1c-33.1.8-66.3,5.4-98.9,10.9-32,5.4-63.1,15.2-93.9,25.3a132.08,132.08,0,0,0-22.3,9.7c-6.9,3.7-12.4,9.2-19.1,13a99.53,99.53,0,0,0-20.3,14.5c-6.7,6.3-12.1,13.5-18.1,20.4-12.4,14.2-17.9,32.5-21.4,50.7-1.5,7.5-2.2,15.2-3.6,22.7-1,5.4-2,10.1-1.4,15.5.5,4.4,1.5,8.8,1.8,13.2.7,8.5,1.4,16.4,3.7,24.7,2.5,8.8,7.1,16,11.1,24,3.3,6.6,6.5,12.7,11.3,18.5,6.2,7.5,13.3,13.4,20.3,20,5.5,5.2,10.2,9.9,16.8,13.6,7.8,4.3,15.4,8.8,23.4,12.8a235,235,0,0,0,45,17.5c7,1.9,13.7,4.9,20.8,6.4,8.7,1.8,17.4,3.3,26.1,5.2,16.6,3.6,33.5,6.1,50.4,6.1,7.9,0,15.2,2.7,23,3.1,9.2.5,18.4.5,27.7,1.2,7.8.6,15.3-1.4,23-1.2,8.5.1,17,.9,25.5.9,8.2,0,15.7-2,23.8-2.7,8.7-.7,17.5-.7,26.2-1.2,17.2-.8,34.4,0,51.7-.2,15.3-.2,31.2.6,46,5,14.5,4.3,25.7,13.9,37.1,23.3,12.2,10,28.8,17.7,43.9,22.3a303.09,303.09,0,0,0,49.6,10.6c11.9,1.5,23.9,1.7,35.8,3.4-1.1,2.6-2.1,5.3-3.2,7.9-1.1-1.3-5.8-2.1-7.4-2.7s1.6-8.5,3.2-7.9c1.8.7,6.3,1.3,7.6,2.7s-1.3,8.2-3.2,7.9c-12.7-1.9-25.5-2.1-38.2-3.7-17.3-2.2-35.7-5.8-52.1-12-14.9-5.6-30.3-12.7-42.2-23.4-11.4-10.3-24.8-18.9-40-22.1-16.4-3.5-32.4-3-49-3.4-17.7-.4-35.3,0-53,.8-17.4.8-34.3,3.9-51.7,3.4-4-.1-8.1-.8-12.1-.9-4.8-.1-9.4.7-14.2,1.2-7.4.7-14.7-.6-22.2-1-9.1-.4-17.6-.1-26.5-1.9s-17.9-.8-27-1.8c-17.6-2-34.6-6.4-52-9.3a129.5,129.5,0,0,1-22.3-5.5c-8-2.8-16.5-4-24.4-7-15.8-6.2-30.8-14.2-45.5-22.3C44.06,304.46,22,278.66,9,249c-6.5-14.8-7.2-32.1-8.8-48-.8-7.8,1.3-14.9,2.4-22.6,1.1-8,2.4-15.8,3.9-23.7,5.9-30.9,22.4-57.3,45.5-78.4a92.72,92.72,0,0,1,18.3-12.9c6.5-3.6,11.7-8.8,18.1-12.5,14.8-8.5,31.4-13.2,47.6-18.4,63.1-20,129.7-28.9,195.8-28.7,8.2,0,16.2-1.5,24.3-1.6,9.3-.2,18.3.2,27.6-.8,7.4-.7,14.8-.2,22.3-.4,9-.2,17.9-1.2,26.9-1,16.8.3,33.7,1.8,50.5,1.6,7.8-.1,15.6.4,23.4.9,9,.7,18.2.9,26.9,3.2,16.6,4.4,34.8,2.9,50.9,9.2,7.8,3,15.5,4.9,23.6,7.1,7.9,2.2,16.2,3.3,23.7,6.8,15.7,7.1,31.2,14.8,46.4,22.9a91.18,91.18,0,0,1,19.9,14.2c6.7,6.1,14.4,10.9,20.4,17.8,10.1,11.6,20.7,24.5,27,38.7,3.3,7.5,4.6,15.9,7.3,23.6a120,120,0,0,1,5.6,24.4c4.1,30.1-.6,62.5-16,89.2-3.6,6.2-8.6,11.1-13.5,16.3a124.59,124.59,0,0,1-18.6,16.8,217.19,217.19,0,0,1-20.8,13.4c-7.6,4.1-16.1,6.6-24.1,9.9-7.3,3-14.4,6-21.6,9.3-8.3,3.8-17.1,6.3-25.2,10.6-11.2,5.8-21.4,14.8-20.8,28.6.4,9,5.2,18.5,10.3,25.8,4.9,6.9,11.8,10.6,18,16.1,4.6,4.1,8.5,9.3,14.2,12C642,419,638.56,427,637.16,426.26Z"/></g></g><path d="M206.31,54.3V51.57H212c-.14-.51-.4-1.28-.76-2.3-.22-.65-.4-1.16-.55-1.53l3.06-.44c.15.44.4,1.14.77,2.08s.51,1.68.66,2.19h4V54.3h-1.64a40.09,40.09,0,0,1-2.51,9.85c.65,1,1.64,2.44,2.95,4.26a18.44,18.44,0,0,1,1.2,1.64l-2.4,1.64c-.37-.51-.92-1.27-1.64-2.29s-1.28-1.82-1.65-2.41A29.06,29.06,0,0,1,208,73.34L205.87,71a23.88,23.88,0,0,0,5.9-6.67l-3-4.27c-.95-1.31-1.6-2.26-2-2.84L209,55.73l4.05,5.68a32.47,32.47,0,0,0,1.75-7.11Zm16.4,10.83c-1.24-2.62-2.33-4.74-3.28-6.34l2.41-1q1.53,2.52,3.39,6.24Zm-2.84-9.73V52.66h7.22V47.41H230v5.25h2.63V55.4H230V69.51c.15,2.4-1.13,3.61-3.83,3.61h-1.86c-.95.07-1.68.11-2.18.11a5.83,5.83,0,0,1-.22-1,18.87,18.87,0,0,1-.44-1.86h3.61c1.38.07,2-.47,2-1.64V55.4Z"/><path d="M236,55.84,234.09,54a27.58,27.58,0,0,0,8.31-6.68l3.28.33a8.86,8.86,0,0,1-1.53,1.75h10.72v2l-2.3,2.08h6.35v6.23h-1.86l1.53,2-4.16,2a10.82,10.82,0,0,0,6.34,6.67,11.1,11.1,0,0,0-1.42,1.53,2.13,2.13,0,0,0-.43.55,13,13,0,0,1-6.68-7.66c-.51.22-1.05.44-1.64.66a13.19,13.19,0,0,1,.44,3.39q0,4.49-4.27,4.49c-1.24.07-2.51.11-3.82.11a10.48,10.48,0,0,1-.22-1.21q-.22-.76-.33-1.2a28.74,28.74,0,0,0,3.28.11c1.9.07,2.81-.73,2.74-2.41a3.31,3.31,0,0,0-.11-.76v-.66q-4.17,3.39-12.91,6c-.37-.73-.77-1.5-1.2-2.3A32.19,32.19,0,0,0,247.65,65c-.07-.14-.26-.43-.55-.87a.33.33,0,0,1-.11-.22,34.37,34.37,0,0,1-11.26,5,7.83,7.83,0,0,0-1.1-1.64,1.28,1.28,0,0,0-.21-.44A34.6,34.6,0,0,0,245.9,62.4a2.21,2.21,0,0,0-.44-.55,1.22,1.22,0,0,0-.44-.44q-3.06,1.86-9.84,3.39a10.27,10.27,0,0,0-1.09-2.18q7.22-1.09,9.73-3h-7.44v-4Zm3.28-.44v2.29h6.45a14.24,14.24,0,0,0,.77-2.29Zm12-3.94h-9.08c-.73.66-1.53,1.31-2.41,2h9.3ZM247.1,60a29.32,29.32,0,0,1,2.63,3.17,70.56,70.56,0,0,0,7.11-3.5h-9.41Zm9.08-4.59H249.4c-.22.87-.44,1.64-.66,2.29h7.44Z"/><path d="M269.42,67.43A30.38,30.38,0,0,0,267.34,65q7-3.49,6.67-10.17h-6.89V73.23h-2.95V52H274V47.52h3.17c0,1.68,0,3.17-.11,4.49h9.63V68.85c.07,2.7-1.24,4.08-3.94,4.16h-4.7a10.53,10.53,0,0,0-.66-2.85c1.38.08,2.73.11,4.05.11,1.53.08,2.26-.65,2.18-2.18V54.85H277a13.79,13.79,0,0,1-.54,4c.29.22.69.54,1.2,1q4,3.18,5.8,4.81l-2.3,2.3q-2.08-2.07-5.8-5.36Q274,64.26,269.42,67.43Z"/><path d="M302.77,55.62h1.65a2.38,2.38,0,0,1,2.18.87,3.38,3.38,0,0,1,.66,2.08V59a23.79,23.79,0,0,1-1,6.45q-.87,3.83-3.06,4.92a7.42,7.42,0,0,1-3.72.77H299c-.22,0-.33,0-.33-.11-.15-.29-.33-.69-.55-1.2a17.09,17.09,0,0,0-.76-1.54v-.11a9.57,9.57,0,0,1,1.2.11,7.61,7.61,0,0,0,1.09.11H300a2.31,2.31,0,0,0,2.08-1,7.22,7.22,0,0,0,1.09-2,.33.33,0,0,0,.11-.22,14.23,14.23,0,0,0,1-5.25v-.65c-.08-.81-.44-1.24-1.1-1.32a21.65,21.65,0,0,0-2.4.22,9.7,9.7,0,0,1-1.21.11,41.44,41.44,0,0,1-4.15,9,19,19,0,0,1-2.3,3.06,2.92,2.92,0,0,1-1.31-.54,4.16,4.16,0,0,0-.55-.33.33.33,0,0,1-.22-.11c-.44-.07-.69-.22-.76-.44a18.1,18.1,0,0,0,4.26-5.91c.73-1.45,1.42-2.88,2.08-4.26a8.22,8.22,0,0,0-3.17.87l-.11.11a1.34,1.34,0,0,1-.77.22l-1.53-3.17.11-.22a10.14,10.14,0,0,0,3.06,0,9.59,9.59,0,0,1,1.1-.11,7.19,7.19,0,0,1,2.08-.33c.14-.43.25-.8.32-1.09a13.7,13.7,0,0,0,.66-4.38v-.76a1,1,0,0,1-.11-.44c.29.07.69.15,1.2.22,1,.15,1.83.29,2.41.44a1.65,1.65,0,0,1-.44,1,.35.35,0,0,0-.11.22,5.21,5.21,0,0,0-.33,1.53,1.84,1.84,0,0,0-.1.55,6.46,6.46,0,0,1-.22,1.2c-.08.51-.15.91-.22,1.21A12.47,12.47,0,0,1,302.77,55.62Zm5.36-1.43v-.32a6.47,6.47,0,0,1,1-.77c.44-.36.76-.62,1-.76s.55.07,1,.65a16.09,16.09,0,0,1,2.08,2.3,52.19,52.19,0,0,1,3.39,4.48v.33l-2.63,1.64A44.53,44.53,0,0,0,308.13,54.19Z"/><path d="M320.49,73.66c-.73-1-1.35-1.86-1.86-2.51,4.45-1.61,6.89-4.19,7.33-7.77a9.78,9.78,0,0,0,.22-2.19H322v-2.4c-.72.65-1.53,1.31-2.4,2a4.3,4.3,0,0,0-.44-.66,23.43,23.43,0,0,0-1.2-2.19,26.26,26.26,0,0,0,9.08-10.28l2.73,1.21a31.09,31.09,0,0,1-7.33,9.62h17.61c-.07,1-.15,2.73-.22,5.14-.14,2.12-.22,3.61-.22,4.49q-.11,4.92-5.25,4.81h-4.26a18.27,18.27,0,0,0-.55-2.74h2c1.09.08,1.9.11,2.41.11q2.63.12,2.73-2.73.22-3.5.22-6.35h-7.66a8,8,0,0,1-.11,1.21,12.46,12.46,0,0,1-.21,1.31Q328.47,70.28,320.49,73.66Zm22.53-13a24.44,24.44,0,0,1-9.95-12.25l2.63-1.1a19.42,19.42,0,0,0,9.07,10.39C344.48,58.28,343.9,59.26,343,60.65Z"/><path d="M358.77,55.62h1.65a2.38,2.38,0,0,1,2.18.87,3.38,3.38,0,0,1,.66,2.08V59a23.79,23.79,0,0,1-1,6.45q-.87,3.83-3.06,4.92a7.42,7.42,0,0,1-3.72.77H355c-.22,0-.33,0-.33-.11-.15-.29-.33-.69-.55-1.2a17.09,17.09,0,0,0-.76-1.54v-.11a9.57,9.57,0,0,1,1.2.11,7.61,7.61,0,0,0,1.09.11H356a2.31,2.31,0,0,0,2.08-1,7.22,7.22,0,0,0,1.09-2,.33.33,0,0,0,.11-.22,14.23,14.23,0,0,0,1-5.25v-.65c-.08-.81-.44-1.24-1.1-1.32a21.65,21.65,0,0,0-2.4.22,9.7,9.7,0,0,1-1.21.11,41.44,41.44,0,0,1-4.15,9,19,19,0,0,1-2.3,3.06,2.92,2.92,0,0,1-1.31-.54,4.16,4.16,0,0,0-.55-.33.33.33,0,0,1-.22-.11c-.44-.07-.69-.22-.76-.44a18.1,18.1,0,0,0,4.26-5.91c.73-1.45,1.42-2.88,2.08-4.26a8.22,8.22,0,0,0-3.17.87l-.11.11a1.34,1.34,0,0,1-.77.22l-1.53-3.17.11-.22a10.14,10.14,0,0,0,3.06,0,9.59,9.59,0,0,1,1.1-.11,7.19,7.19,0,0,1,2.08-.33c.14-.43.25-.8.32-1.09a13.7,13.7,0,0,0,.66-4.38v-.76a1,1,0,0,1-.11-.44c.29.07.69.15,1.2.22,1,.15,1.83.29,2.41.44a1.65,1.65,0,0,1-.44,1,.35.35,0,0,0-.11.22,5.21,5.21,0,0,0-.33,1.53,1.84,1.84,0,0,0-.1.55,6.46,6.46,0,0,1-.22,1.2c-.08.51-.15.91-.22,1.21A12.47,12.47,0,0,1,358.77,55.62Zm5.36-1.43v-.32a6.47,6.47,0,0,1,1-.77c.44-.36.76-.62,1-.76s.55.07,1,.65a16.09,16.09,0,0,1,2.08,2.3,52.19,52.19,0,0,1,3.39,4.48v.33l-2.63,1.64A44.53,44.53,0,0,0,364.13,54.19Z"/><path d="M378.9,53.54l3.06.65a43.89,43.89,0,0,0-1,8.21q4-3.28,7.87-3.28h.77a9.29,9.29,0,0,1,4.92,1.2,5.56,5.56,0,0,1,2.3,4.16V65a6.58,6.58,0,0,1-2.3,4.82,16.09,16.09,0,0,1-5,2.4,5.38,5.38,0,0,1-2.63.66l-1.42-2.41v-.11a36.47,36.47,0,0,0,4.38-1c2.48-1,3.72-2.34,3.72-3.94V65q-.22-3-4.05-3.28h-.44a11.88,11.88,0,0,0-4.37,1.1,7.3,7.3,0,0,0-3.5,3.5L378,65.24c.07-.58.18-1.49.32-2.73q.56-5.15.55-7.77Zm2.3-3.83,1.86-2.08a5,5,0,0,1,.87.44,35.67,35.67,0,0,1,4.81,2.41v.21l-1.86,2A30.76,30.76,0,0,0,381.2,49.71Z"/><path d="M417.29,52v2.84a32.84,32.84,0,0,1-4.81,1.2,45.78,45.78,0,0,1-5.69,12.14h-.33l-2.51-1-.11-.22a37.47,37.47,0,0,0,5.69-10.72,28.34,28.34,0,0,1-3.61.22l-.33-3h.87a21.18,21.18,0,0,0,2.41-.11,4.87,4.87,0,0,0,.87-.11h.66a16.22,16.22,0,0,0,.77-4.7V48a9.79,9.79,0,0,0,1.64.44,9.58,9.58,0,0,1,1.53.44,4.31,4.31,0,0,1-.33,1.42,3.27,3.27,0,0,0-.22,1,5.07,5.07,0,0,1-.11.88,6,6,0,0,1-.22.87A23.37,23.37,0,0,0,417.29,52Zm.22,4.7h.22l2.51.55a7.32,7.32,0,0,1-.11,1.31c0,1,.08,2.44.22,4.48.08,1.24.11,2.19.11,2.85a24.07,24.07,0,0,1,5.8,2.51v.33l-1.09,2.41a1.87,1.87,0,0,1-1.1-.55c-.14-.15-.25-.22-.33-.22A23.19,23.19,0,0,0,420.46,69a4.69,4.69,0,0,1-.33,1.86,2.17,2.17,0,0,1-.54.77,1.58,1.58,0,0,1-.22.32,4.65,4.65,0,0,1-3.61,1.21h-.66a4.82,4.82,0,0,1-3.72-1.43,3.3,3.3,0,0,1-.76-3.17,3.86,3.86,0,0,1,1.53-2.08,8.36,8.36,0,0,1,3.94-1h.76a4.22,4.22,0,0,1,1,.11C417.76,62.58,417.66,59.63,417.51,56.71Zm-1.64,11.16h-.44A2.48,2.48,0,0,0,413.24,69c-.29,1,.19,1.64,1.43,1.86h1c1.39-.07,2.11-.95,2.19-2.63A6.44,6.44,0,0,0,415.87,67.87Zm9.62-8.75h-.21a27.25,27.25,0,0,0-4.82-4.38L422,52.66h.22A48.1,48.1,0,0,1,426,55.73a2.32,2.32,0,0,1,1,1.2Z"/><path d="M442.78,55.62h1.64a2.38,2.38,0,0,1,2.18.87,3.38,3.38,0,0,1,.66,2.08V59a24.15,24.15,0,0,1-1,6.45q-.88,3.83-3.07,4.92a7.42,7.42,0,0,1-3.72.77H439c-.22,0-.33,0-.33-.11-.15-.29-.33-.69-.55-1.2a14.76,14.76,0,0,0-.76-1.54v-.11a9.57,9.57,0,0,1,1.2.11,7.61,7.61,0,0,0,1.09.11H440a2.31,2.31,0,0,0,2.08-1,7,7,0,0,0,1.09-2,.29.29,0,0,0,.11-.22,14.23,14.23,0,0,0,1-5.25v-.65c-.08-.81-.44-1.24-1.1-1.32a21.65,21.65,0,0,0-2.4.22,9.7,9.7,0,0,1-1.21.11,41.44,41.44,0,0,1-4.15,9,18.41,18.41,0,0,1-2.3,3.06,2.92,2.92,0,0,1-1.31-.54,4.16,4.16,0,0,0-.55-.33.33.33,0,0,1-.22-.11c-.44-.07-.69-.22-.76-.44a18.1,18.1,0,0,0,4.26-5.91c.73-1.45,1.42-2.88,2.08-4.26a8.22,8.22,0,0,0-3.17.87l-.11.11a1.34,1.34,0,0,1-.77.22l-1.53-3.17.11-.22a10.14,10.14,0,0,0,3.06,0,9.59,9.59,0,0,1,1.1-.11,7.19,7.19,0,0,1,2.08-.33c.14-.43.25-.8.32-1.09a13.7,13.7,0,0,0,.66-4.38v-.76a1,1,0,0,1-.11-.44c.29.07.69.15,1.2.22,1,.15,1.83.29,2.41.44a1.65,1.65,0,0,1-.44,1,.35.35,0,0,0-.11.22,5,5,0,0,0-.32,1.53,1.61,1.61,0,0,0-.11.55,6.46,6.46,0,0,1-.22,1.2c-.08.51-.15.91-.22,1.21A12.49,12.49,0,0,1,442.78,55.62Zm5.35-1.43v-.32a6.47,6.47,0,0,1,1-.77c.44-.36.76-.62,1-.76s.55.07,1,.65a16.09,16.09,0,0,1,2.08,2.3,48.37,48.37,0,0,1,3.39,4.48v.33l-2.63,1.64A44.53,44.53,0,0,0,448.13,54.19Z"/><path d="M474.82,53.21h.55A6.71,6.71,0,0,1,480,54.85a6.62,6.62,0,0,1,2,4.59V60a6,6,0,0,1-1,3.28,10.14,10.14,0,0,1-3,2.85,13.41,13.41,0,0,1-6.56,2.29l-1.75-2.07a16.24,16.24,0,0,0,6.56-2.08c2.19-1.32,3.29-2.88,3.29-4.71v-.43c-.3-2.12-1.79-3.36-4.49-3.72h-.44a10.83,10.83,0,0,0-3.39.54c-.87.3-1.75.62-2.62,1-.29.15-.7.33-1.21.55a33.18,33.18,0,0,0-3.17,1.75c-.07,0-.14.07-.22.21a.81.81,0,0,1-.76.22L460.93,57c2-.51,4.05-1.1,6-1.75a1.86,1.86,0,0,0,.43-.11C470.52,53.79,473,53.14,474.82,53.21Z"/><path d="M496.15,48.29h.22l3.28.87v.33a2.63,2.63,0,0,0-1.09,1.75,10.63,10.63,0,0,0-.66,1.86,3.58,3.58,0,0,1-.22.66l3.61-.66a3,3,0,0,0,.77-.22l.22.11v2.85c-1.75.29-3.5.51-5.25.65a3.73,3.73,0,0,1-.11.55c.07-.15,0-.07-.11.22a63.58,63.58,0,0,1-5.8,15l-2.95-.87-.11-.22a89.37,89.37,0,0,0,6.34-14.55,17.05,17.05,0,0,1-2.19.11c-.94.07-1.67.11-2.18.11l-.22-.11-.44-2.62.11-.22a12.71,12.71,0,0,1,1.42.11,12.31,12.31,0,0,0,1.31.11H493c.65,0,1.35,0,2.08-.11a4.55,4.55,0,0,0,.22-.66,17.4,17.4,0,0,0,.87-4.38Zm14.77,20.12-.33,3.07a30.33,30.33,0,0,1-3.61.21h-1.1a22.94,22.94,0,0,1-4.81-.54,2,2,0,0,1-.44-.11c-.51,0-.83-.11-1-.33l-.11-2.52a5.83,5.83,0,0,0,1,.22,28.55,28.55,0,0,0,4.81.55h.54A23.36,23.36,0,0,0,510.92,68.41Zm-6.35-10.72h1c1.16,0,2.4,0,3.72.11l.1,3-.1.11a24.25,24.25,0,0,0-4.71-.66h-1.09a9.09,9.09,0,0,0-2.41.33l.44-2.74h1.42C503.66,57.73,504.21,57.69,504.57,57.69Z"/><path d="M540.45,60.1v.77a10,10,0,0,1-3,6.89A13.44,13.44,0,0,1,532,71.69c0,.15-.08.15-.22,0a10.23,10.23,0,0,0-2.52-1.64v-.21q7.88-3.72,8-9.52v-.55a7.14,7.14,0,0,0-2.41-5,8.73,8.73,0,0,0-4.59-2,60.42,60.42,0,0,1-2.41,8,51.54,51.54,0,0,1-3.39,7.11q-1.43,2.63-3.5,2.62-3.29-.1-5.47-3.72a7.67,7.67,0,0,1-1.09-3.72v-.54a10.26,10.26,0,0,1,.87-3.61,12.86,12.86,0,0,1,2-3.28,12.37,12.37,0,0,1,5.91-4.49,15.6,15.6,0,0,1,5-1.09h1.2a11,11,0,0,1,8,3A10.38,10.38,0,0,1,540.45,60.1ZM517.37,62v.55a6.05,6.05,0,0,0,1.09,3.39,2.52,2.52,0,0,0,2.08,1.31,2.77,2.77,0,0,0,1.86-1.31,19.31,19.31,0,0,0,1.09-2c.15-.37.26-.62.33-.77a36.58,36.58,0,0,0,3.72-10.39,17.45,17.45,0,0,0-4.16,1.1,14.87,14.87,0,0,0-4.48,4A8.56,8.56,0,0,0,517.37,62Z"/><path d="M541.87,53.87h.66a14.77,14.77,0,0,0,3.28-.55l1.31-.33c1.38-.36,2.73-.69,4-1q3.6-.88,7.11-1.53a21.7,21.7,0,0,0,4.37-1,3.25,3.25,0,0,0,.33,1.2,3.78,3.78,0,0,1,.22,1.65l-1.53.32A7.57,7.57,0,0,0,558,53.87a8.6,8.6,0,0,0-3.17,4.7,15.34,15.34,0,0,0-.66,3.83v.65a5.79,5.79,0,0,0,1.64,4.27A6.41,6.41,0,0,0,560,69h.54a6.94,6.94,0,0,0,1.75-.22V72h-.87a12.76,12.76,0,0,1-6.89-1.86,8.57,8.57,0,0,1-3.28-6.89v-.54q0-4.27,3.39-9-4.38,1.1-8.75,2.4a3.08,3.08,0,0,1-.77.22,3,3,0,0,0-1.53.88l-1.75-3.07ZM562,55.4,563.53,54c.21.21.51.54.87,1a16.64,16.64,0,0,1,1.75,2l-1.53,1.31A17.33,17.33,0,0,0,562,55.4Zm3-2.19,1.53-1.31A18.17,18.17,0,0,1,569,54.74l-1.64,1.31A23.4,23.4,0,0,0,565,53.21Z"/><path d="M581.57,70.6l-2.19,2.19-5.9-6.45,2.08-1.86Z"/><path d="M169.67,101l2.4,2.74v.21a40,40,0,0,0-10.61,4.49,13.2,13.2,0,0,0-3.39,3.28,3.77,3.77,0,0,0-.65,1.86V114a3.37,3.37,0,0,0,2.07,2.95,8.49,8.49,0,0,0,3.72.66H164a22.68,22.68,0,0,0,6.34-.88l.22,3.28c-1.9.15-3.72.22-5.47.22h-1.64a10.06,10.06,0,0,1-5.8-1.2,5.43,5.43,0,0,1-2.84-4.92v-.55c.07-2.48,1.57-4.74,4.48-6.78a1.06,1.06,0,0,1,.55-.44,44,44,0,0,0-3.5-9.19l3-.54a63.13,63.13,0,0,1,3.29,8.2l3.93-2A13.13,13.13,0,0,0,169.67,101Z"/><path d="M186.73,104.82v.55a6.38,6.38,0,0,0,.44,2.62h.21l1.1-1.75h.33l1.2,1.1c-.15.29-.33.69-.55,1.2a10.93,10.93,0,0,0-1.2,4.26v.44a15.56,15.56,0,0,1-2.63.22,9,9,0,0,1-1.09-2.84,17.8,17.8,0,0,1-.66-4.93v-.87a28.87,28.87,0,0,1,.44-4,22.31,22.31,0,0,0,.44-3.61c1.09.08,2.15.19,3.17.33a22.11,22.11,0,0,0-.55,2.3A26.78,26.78,0,0,0,186.73,104.82Zm7.65-7.66,3.61-.32.22.1a11.78,11.78,0,0,0,.22,3.72,4.51,4.51,0,0,0,.22,1.21A37.66,37.66,0,0,1,199,106v1.75a15.88,15.88,0,0,1-1.21,6.67,16.35,16.35,0,0,1-4.59,6.68q-.1.21-.33,0l-2.51-1.21-.11-.22a17.53,17.53,0,0,0,3.94-4.7,16.28,16.28,0,0,0,1.75-7.55v-2.07A19.88,19.88,0,0,0,194.38,97.16Z"/><path d="M211.56,101.21h1.64c.36,0,.94,0,1.75-.11h.87a2,2,0,0,1,.11-.55,25.22,25.22,0,0,0,.22-2.84,7.14,7.14,0,0,0-.11-1.09h.55a13.17,13.17,0,0,1,1.53.11,12.31,12.31,0,0,0,1.31.11,1.64,1.64,0,0,1-.22,1.09,1.12,1.12,0,0,0-.22.55,4.49,4.49,0,0,1-.22,1.09,7.6,7.6,0,0,1-.21,1.2,3.74,3.74,0,0,0,1.2-.22,29.08,29.08,0,0,0,4.92-1.09v2.73q-3,.66-6,1.21h-.55c-.07.73-.15,1.6-.22,2.62a18.41,18.41,0,0,1,3.39-.65,1.9,1.9,0,0,1,.11-.44v-.66c-.07-.14,0-.29.22-.43l2.62.43.11.22-.11.11a8.28,8.28,0,0,0-.32.88,7.17,7.17,0,0,1,4.37,1.64,8.19,8.19,0,0,1,2.52,5.36v.76c-.08,2.63-1.5,4.81-4.27,6.56a5.28,5.28,0,0,1-2.62,1.1h-.11a11.65,11.65,0,0,0-2.41-2.08,8.62,8.62,0,0,0,4.7-1.75,5.64,5.64,0,0,0,2.08-4v-.33a5.37,5.37,0,0,0-2.3-4.26,4.12,4.12,0,0,0-1.2-.44h-.22a4.4,4.4,0,0,0-1.2-.33,25.62,25.62,0,0,1-4.7,8,16.25,16.25,0,0,0,.76,2c-.22.07-.58.22-1.09.43a3.29,3.29,0,0,1-1.21.33c-.21,0-.4-.22-.54-.65a2.21,2.21,0,0,1-1.21.65,6.53,6.53,0,0,1-4,1.64h-.44q-2.52-.1-2.73-3.72v-.43q.1-3.18,3.17-6.46a14.49,14.49,0,0,1,4-2.51c0-.44,0-1.13.11-2.08a8.41,8.41,0,0,1,.11-1.09h-1.64c-.8.07-1.42.11-1.86.11h-1.64c-.22,0-.33,0-.33-.11a3,3,0,0,1-.65-1.54v-.1c-.22-.44-.26-.77-.11-1C210.06,101.17,210.83,101.21,211.56,101.21Zm4.15,14-.11-.33a45.5,45.5,0,0,1-.33-5.47,9.73,9.73,0,0,0-4,4.16,3.86,3.86,0,0,0-.66,2.19c.07,1.09.55,1.64,1.42,1.64a4.29,4.29,0,0,0,2.74-1.21A6.49,6.49,0,0,1,215.71,115.21Zm2.19-7v2.63a6.78,6.78,0,0,0,.11,2,18.78,18.78,0,0,0,2.84-5.25c-1.24.22-2.11.41-2.62.55A.47.47,0,0,1,217.9,108.21Z"/><path d="M238.46,104.71H239a30.24,30.24,0,0,0,5.8-.55,11.42,11.42,0,0,0,3.71-.76c.37-.15.59-.29.66-.44h.22l2.52,1.53c.14.07.18.22.1.44V105a17.91,17.91,0,0,0-3.5,3.72l-1.31,1.64H248a3.43,3.43,0,0,1,2.08.65,4.58,4.58,0,0,1,.76,2.19,7,7,0,0,1,.22,1,13.62,13.62,0,0,0,.44,2,1.67,1.67,0,0,0,1.53,1.43h1.31a16.16,16.16,0,0,0,3.94-.55v3a29.21,29.21,0,0,1-3.5.22h-2.3a3.47,3.47,0,0,1-3.06-1.42,9.37,9.37,0,0,1-1.09-3.28,1.9,1.9,0,0,0-.11-.55,8.35,8.35,0,0,0-.22-1.09,1.62,1.62,0,0,0-1.42-1,3,3,0,0,0-2.3,1.32,57,57,0,0,0-4.7,6h-.22a22.66,22.66,0,0,0-2.74-1.75v-.11a87.5,87.5,0,0,0,7.66-8.42,19.83,19.83,0,0,0,2.62-3.72l-.11-.22a11.23,11.23,0,0,1-3.28.88,14.16,14.16,0,0,0-2.51.65,1.12,1.12,0,0,0-.55.22c-.22.22-.4.29-.55.22Zm7-8.75h.22A35.79,35.79,0,0,0,251,98.48a1.18,1.18,0,0,0,.33.21.87.87,0,0,1,.55.33l-.88,2.3-.33.11a34.63,34.63,0,0,1-6.45-3.06v-.22Z"/><path d="M278.17,95.74l.1.22a8.41,8.41,0,0,0-.76,3.94v.54c.51,0,1.27,0,2.3-.1h6.89v3.06a45.7,45.7,0,0,0-7.77-.66H277.4v3.61a3.78,3.78,0,0,1,.44.55,5.72,5.72,0,0,1,1,3.5v.65a13.35,13.35,0,0,1-3.17,8.64,10.26,10.26,0,0,1-2.41,2.3c-.07.15-.14.15-.22,0a4.83,4.83,0,0,1-1.2-.55,20.07,20.07,0,0,0-2.3-.76,10,10,0,0,0,3.29-2.19,5.37,5.37,0,0,0,2.29-3.5,4,4,0,0,1-1.31.22h-.44q-3.72-.43-4.15-4.7v-.44q.54-4.59,4.59-5h.44a1.14,1.14,0,0,1,.65.11,13.1,13.1,0,0,0,.22-2.41,49.61,49.61,0,0,0-5.68.55,31.65,31.65,0,0,0-5.15.87L263,101l.11-.33a5.07,5.07,0,0,1,.88.11,8.71,8.71,0,0,0,1.64.22h.54c1,0,2.56-.07,4.6-.22,1-.07,1.78-.11,2.29-.11a17.2,17.2,0,0,0,2.08-.11,22.32,22.32,0,0,0-.87-5.14C275.54,95.49,276.85,95.6,278.17,95.74ZM275.1,110v-1.53c-.07-.88-.43-1.31-1.09-1.31a1.74,1.74,0,0,0-1.31.87,3.41,3.41,0,0,0-.77,3.06c.29,1.1.84,1.64,1.64,1.64S275,111.78,275.1,110ZM286,98.8,284.62,100a18,18,0,0,0-2.95-2.52l1.42-1.2A17.44,17.44,0,0,1,286,98.8Zm1.86-1.86-1.42,1.21a6.65,6.65,0,0,1-.88-.77,12.51,12.51,0,0,0-1.75-1.53l1.21-1.2a4,4,0,0,0,.76.54A24.31,24.31,0,0,1,287.9,96.94Z"/><path d="M291.51,104.16a3.33,3.33,0,0,1-.55-1l-.87-1.31a19.82,19.82,0,0,0,5.9-6.46l3,.44a2.1,2.1,0,0,1-.33.44,17.16,17.16,0,0,1-1.53,2.19h18.59V101h-3.06v4.27h2.84v2.4h-2.84v4.49h3.83v2.4h-26v-2.4h4.26v-4.49h-3.39v-2.4h3.39v-3.94A38.14,38.14,0,0,1,291.51,104.16Zm2,17.39-2.85-.65q1.86-3.29,2.74-5.25l2.73.54a9.23,9.23,0,0,1-.43,1Q294.25,120.24,293.48,121.55ZM297.2,101v4.27h2.62V101Zm0,6.67v4.49h2.62v-4.49ZM299.49,121c-.43-1.46-.91-3-1.42-4.71l2.74-.32q.87,2.4,1.53,4.59Zm2.85-20v4.27H305V101Zm0,6.67v4.49H305v-4.49Zm3.83,13.13a30.13,30.13,0,0,0-1.32-3.17l-.54-1.43,2.73-.43,2,4.48Zm1.31-19.8v4.27h2.73V101Zm0,6.67v4.49h2.73v-4.49Zm6,13.35c-.36-.73-.91-1.68-1.64-2.85l-1.2-2.07,2.73-.55a2.48,2.48,0,0,0,.44.55,41.51,41.51,0,0,1,2.52,4.15Z"/><path d="M318.42,107.88v-2.51h4.26v-10h2.74v10h4v2.51h-4v2.74l1-1,.87.88c1.17,1.16,2.05,2.08,2.63,2.73l-1.75,2a18.93,18.93,0,0,0-1.86-2.08c-.37-.44-.66-.76-.87-1v9.29h-2.74v-9.29a26.32,26.32,0,0,1-3.72,6,23.49,23.49,0,0,0-.87-3.17,25.9,25.9,0,0,0,4.37-7.11Zm1.75-3.94q-1.21-3.5-1.86-5.46l2-.66c.44,1.31,1.06,3.14,1.86,5.47Zm7.43.11-1.86-.76c.88-2,1.64-3.79,2.3-5.47l2,.77A56.86,56.86,0,0,1,327.6,104.05Zm2.74,11-.33-2.73,8.2-.77V95.41h2.85v15.86l3.5-.33.11,2.74-3.61.33v7.43h-2.85v-7.1Zm4.48-5a51.25,51.25,0,0,0-4.37-3.5l1.64-2c1.6,1.17,3.1,2.3,4.48,3.39Zm.77-6.56a54.64,54.64,0,0,0-4.27-3.72l1.75-1.86a5.16,5.16,0,0,0,1.1.76q2.07,1.65,3.28,2.74Z"/><path d="M346.52,103.18v-2.63H350V95.41h2.74v5.14H356v2.63h-3.28v3.94l.76-.77a45.85,45.85,0,0,1,3.4,3.28l-1.75,2a1.4,1.4,0,0,0-.44-.44c-.81-.94-1.46-1.67-2-2.18v12.57H350V108.87a28.27,28.27,0,0,1-3.17,6.34q-.11-.87-.54-2.73a8.59,8.59,0,0,0-.22-1.1,27.27,27.27,0,0,0,3.83-8.2Zm10.72,18.37V96.94h14.22v24.61h-2.73V119.8H360v1.75Zm2.74-22v4.27h8.75V99.57Zm0,6.78v4.27h8.75v-4.27Zm0,6.78v4.27h8.75v-4.27Z"/><path d="M374.2,101V98.48h4.15l-1.09-2.74,2.62-.44c.22.59.62,1.57,1.21,3a.31.31,0,0,1,.11.22h2.95V101Zm.76,4.16v-2.3h8.53v2.3Zm0,4.26v-2.29h8.53v2.29Zm.11,11.93V111.27h8.31v10H381V119.8h-3.39v1.54Zm2.52-7.66v3.94H381v-3.94Zm7.76,7.87c-.07-.14-.22-.4-.43-.76-.52-.8-.92-1.39-1.21-1.75q6.45-2.62,7-6.89c.15-1.1.29-2.74.44-4.92h2.63a29.28,29.28,0,0,1-.22,3.71,10.63,10.63,0,0,0,7.22,7.77c-.74,1.17-1.24,2-1.54,2.63q-5.25-2.62-6.78-6.68Q391.49,118.71,385.35,121.55Zm13.57-13.34c-2.56-1.82-4.74-3.28-6.57-4.37q-1.31,2.3-6.45,4.7a24.08,24.08,0,0,0-1.53-2.41q6.24-2.5,6.56-5.9a26.31,26.31,0,0,0,.33-4.82H394a28,28,0,0,1-.43,5l-.22,1.1c.51.29,1.24.73,2.19,1.31,2.26,1.31,3.93,2.34,5,3.06Zm-11.49,6.13a41.08,41.08,0,0,0-2.73-3.94l2.08-1.21a1.57,1.57,0,0,1,.21.33,34.64,34.64,0,0,1,2.63,3.39Zm.33-12.15c-.37-.5-1-1.38-2-2.62l-1-1.31,2-1.32a3.67,3.67,0,0,1,.32.44q2.08,2.41,2.74,3.39Zm9,0-2.08-1.53a34.45,34.45,0,0,0,3.28-3.72L400,98.37q-1,1.3-2.95,3.5Zm0,12.15-2-1.54a1.58,1.58,0,0,0,.22-.32,38.42,38.42,0,0,0,2.95-3.39l2.08,1.53c-.51.65-1.31,1.57-2.41,2.73A7.66,7.66,0,0,0,396.73,114.34Z"/><path d="M407.45,96.62h.22l3.5.65c-.08.44-.19.92-.33,1.42v15.1a5.1,5.1,0,0,0,.65,2.95,3,3,0,0,0,2.3,1.1h.66a4.17,4.17,0,0,0,1.86-.44,10.94,10.94,0,0,0,2.51-1.21,11.87,11.87,0,0,0,3.06-2.73h.22l1.32,2.52q.21.21,0,.21a13.39,13.39,0,0,1-4.6,3.29,9.84,9.84,0,0,1-4.81,1.2h-.33a6.46,6.46,0,0,1-3.61-1.09,4.32,4.32,0,0,1-2.19-3.18c-.07-1-.1-2.07-.1-3.17V98.91a6.46,6.46,0,0,0-.22-1.31A5.73,5.73,0,0,1,407.45,96.62Z"/><path d="M432.06,101.87h.32l9.52-2c4.16-.88,7.29-1.5,9.41-1.86,1.09-.22,2.18-.4,3.28-.55l.22,3.17h-.66c-3.35,0-5.87.92-7.55,2.74a10.41,10.41,0,0,0-2.84,7.33v.43a5.77,5.77,0,0,0,1.53,4.27c1,1.09,2.63,1.6,4.81,1.53H452v3.28h-1.64a10.24,10.24,0,0,1-6.89-2.4,8.61,8.61,0,0,1-2.3-6.35V110.4q0-4.28,3.5-8.53c-.94.22-2.4.58-4.37,1.09-.95.22-1.68.4-2.19.55l-1,.33a12.29,12.29,0,0,0-3.28,1.2Z"/><path d="M458.42,115v-.44a8.47,8.47,0,0,1,1.09-3.5,9.12,9.12,0,0,1,2-2.29,9.69,9.69,0,0,1,6.23-2.3h.22a4.08,4.08,0,0,0,.77-1.31q1.31-2.3,2.73-4.6l-.22-.21a10.6,10.6,0,0,0-5.25,1.85c-.14-.29-.33-.65-.54-1.09s-.66-1.2-1.32-2.3l.11-.11h1.32a16.71,16.71,0,0,0,3.06-.43,5,5,0,0,1,.76-.11,17.84,17.84,0,0,0,3.39-1H473l2.85,2.74c.07.29-.11.54-.55.76l-.11.11a12.19,12.19,0,0,0-1.86,1.53c-.22.3-.51.73-.87,1.32a4.92,4.92,0,0,0-.44.65,4.3,4.3,0,0,1-.44.66,18.4,18.4,0,0,1-1,1.86c.8.15,1.6.33,2.4.55a22,22,0,0,1,3,1.2l1.42.65a23.9,23.9,0,0,0,.65-4.7v-.87h.22l3,.87v.22a20,20,0,0,0-1.32,4.48.28.28,0,0,1-.11.22,2.65,2.65,0,0,1-.32,1,29,29,0,0,1,5,3.5l-1.32,2.51h-.21q-1.86-1.64-3.83-3.17a1.58,1.58,0,0,0-.55-.33c-.44,1-.91,1.86-1.42,2.74a15.46,15.46,0,0,1-5.36,5h-.22a11.06,11.06,0,0,0-2.3-1.75v-.11a15.17,15.17,0,0,0,5.14-3.72,9.34,9.34,0,0,0,2.08-3.39.1.1,0,0,0-.11-.11,21.89,21.89,0,0,0-7-2.62c-.36.73-.91,1.75-1.64,3.06-.51.87-.87,1.53-1.09,2q-2.62,4.59-5.58,4A3.22,3.22,0,0,1,458.42,115Zm3.39-3.17c-.08.15-.19.33-.33.55a2.9,2.9,0,0,0-.66,1.09c-.29,1.31,0,2,1,2.08a2.2,2.2,0,0,0,1.31-.66.35.35,0,0,1,.11-.22,6.4,6.4,0,0,0,1.09-1.42,30.78,30.78,0,0,0,2.3-4.37A7.88,7.88,0,0,0,461.81,111.82Z"/><path d="M496.15,96.29h.22l3.28.87v.33a2.63,2.63,0,0,0-1.09,1.75,10.63,10.63,0,0,0-.66,1.86,3.58,3.58,0,0,1-.22.66l3.61-.66a3,3,0,0,0,.77-.22l.22.11v2.85c-1.75.29-3.5.51-5.25.65a3.73,3.73,0,0,1-.11.55c.07-.15,0-.07-.11.22a63.58,63.58,0,0,1-5.8,15l-2.95-.87-.11-.22a89.37,89.37,0,0,0,6.34-14.55,17.05,17.05,0,0,1-2.19.11c-.94.07-1.67.11-2.18.11l-.22-.11-.44-2.62.11-.22a12.71,12.71,0,0,1,1.42.11,12.31,12.31,0,0,0,1.31.11H493c.65,0,1.35,0,2.08-.11a4.55,4.55,0,0,0,.22-.66,17.4,17.4,0,0,0,.87-4.38Zm14.77,20.12-.33,3.07a30.33,30.33,0,0,1-3.61.21h-1.1a22.94,22.94,0,0,1-4.81-.54,2,2,0,0,1-.44-.11c-.51,0-.83-.11-1-.33l-.11-2.52a5.83,5.83,0,0,0,1,.22,28.55,28.55,0,0,0,4.81.55h.54A23.36,23.36,0,0,0,510.92,116.41Zm-6.35-10.72h1c1.16,0,2.4,0,3.72.11l.1,3-.1.11a24.25,24.25,0,0,0-4.71-.66h-1.09a9.09,9.09,0,0,0-2.41.33l.44-2.74h1.42C503.66,105.73,504.21,105.69,504.57,105.69Z"/><path d="M540.45,108.1v.77a10,10,0,0,1-3,6.89,13.44,13.44,0,0,1-5.46,3.93c0,.15-.08.15-.22,0a10.23,10.23,0,0,0-2.52-1.64v-.21q7.88-3.72,8-9.52v-.55a7.14,7.14,0,0,0-2.41-5,8.73,8.73,0,0,0-4.59-2,60.42,60.42,0,0,1-2.41,8,51.54,51.54,0,0,1-3.39,7.11q-1.43,2.63-3.5,2.62-3.29-.1-5.47-3.72a7.67,7.67,0,0,1-1.09-3.72v-.54a10.26,10.26,0,0,1,.87-3.61,12.86,12.86,0,0,1,2-3.28,12.37,12.37,0,0,1,5.91-4.49,15.6,15.6,0,0,1,5-1.09h1.2a11,11,0,0,1,8,2.95A10.38,10.38,0,0,1,540.45,108.1ZM517.37,110v.55a6.05,6.05,0,0,0,1.09,3.39,2.52,2.52,0,0,0,2.08,1.31,2.77,2.77,0,0,0,1.86-1.31,19.31,19.31,0,0,0,1.09-2c.15-.37.26-.62.33-.77a36.58,36.58,0,0,0,3.72-10.39,17.45,17.45,0,0,0-4.16,1.1,14.87,14.87,0,0,0-4.48,4A8.56,8.56,0,0,0,517.37,110Z"/><path d="M541.87,101.87h.66a14.77,14.77,0,0,0,3.28-.55l1.31-.33c1.38-.36,2.73-.69,4-1q3.6-.89,7.11-1.53a21.7,21.7,0,0,0,4.37-1,3.25,3.25,0,0,0,.33,1.2,3.78,3.78,0,0,1,.22,1.65l-1.53.32a7.57,7.57,0,0,0-3.72,1.21,8.6,8.6,0,0,0-3.17,4.7,15.34,15.34,0,0,0-.66,3.83v.65a5.79,5.79,0,0,0,1.64,4.27A6.41,6.41,0,0,0,560,117h.54a6.94,6.94,0,0,0,1.75-.22V120h-.87a12.76,12.76,0,0,1-6.89-1.86,8.57,8.57,0,0,1-3.28-6.89v-.54q0-4.28,3.39-9-4.38,1.09-8.75,2.4a3.08,3.08,0,0,1-.77.22,3,3,0,0,0-1.53.88l-1.75-3.07ZM562,103.4l1.54-1.42c.21.21.51.54.87,1a16.64,16.64,0,0,1,1.75,2l-1.53,1.31A17.33,17.33,0,0,0,562,103.4Zm3-2.19,1.53-1.31a18.17,18.17,0,0,1,2.51,2.84l-1.64,1.31A23.4,23.4,0,0,0,565,101.21Z"/><path d="M582.88,95.09l3.83.65a10.13,10.13,0,0,0-.54,3.39v1h9v3.17a43.88,43.88,0,0,0-8.2-.55h-.76v3.39l.11.11a6.17,6.17,0,0,1,1,3.72v1.86a13.73,13.73,0,0,1-1.09,4.59,17.09,17.09,0,0,1-2.41,3.61c-.66.66-1.35,1.32-2.08,2h-.22a14.22,14.22,0,0,0-3.17-1.53v-.22a10.9,10.9,0,0,0,5.8-5.58,4.43,4.43,0,0,1-4.27,0,5.2,5.2,0,0,1-2.19-4.37v-.55c.37-3,1.9-4.66,4.6-5h1.31v-2h-1.2a41,41,0,0,0-9.3,1.1l-.22-.11-1.09-3.18.11-.21a11.51,11.51,0,0,1,1.2.1,10.1,10.1,0,0,0,1.31.11h1.32c.29,0,.91,0,1.86-.11l6-.21c-.15-1.68-.33-3.14-.55-4.38A5,5,0,0,1,582.88,95.09Zm.66,14.65v-1.42q-.1-1.09-.87-1.2a1.49,1.49,0,0,0-1.1.43,2.84,2.84,0,0,0-1,2.19v.66c.07,1.46.54,2.22,1.42,2.29.51,0,1-.4,1.31-1.2A3.43,3.43,0,0,0,583.54,109.74Z"/><path d="M605,97.49l3.72.88-.33.87a4.16,4.16,0,0,0-.33.55,7.29,7.29,0,0,0-.22,1.2,1.9,1.9,0,0,0-.11.55c-.07.29-.14.73-.22,1.31a4.87,4.87,0,0,0-.21,1.09,2.92,2.92,0,0,1,.87-.1,5.67,5.67,0,0,1,.88-.11,3.19,3.19,0,0,0,.65-.11h1.1a5.05,5.05,0,0,1,2.07.43,2.72,2.72,0,0,1,1.1,2.19v1.31a28.72,28.72,0,0,1-1,6.89c-.51,2.48-1.49,3.91-3,4.27a7.92,7.92,0,0,1-3.39.77h-.77q-.33-.77-.87-1.86a7.94,7.94,0,0,1-.44-1l.11-.22a5,5,0,0,1,.77.11,7.2,7.2,0,0,0,1.53.22h.43a2.45,2.45,0,0,0,2.3-1.42,17.77,17.77,0,0,0,1-2.95,26.88,26.88,0,0,0,.65-5,1.26,1.26,0,0,0-1.53-1.32,15,15,0,0,1-1.64.22l-1.64.33a35.56,35.56,0,0,1-6,12.14l-.21.11a11.87,11.87,0,0,0-1.75-.77,5.23,5.23,0,0,0-.88-.43v-.22a28.29,28.29,0,0,0,3.94-5.58,25.33,25.33,0,0,0,1.64-3.72,9.9,9.9,0,0,0,.44-1,28.14,28.14,0,0,0-3.29,1.09,1.59,1.59,0,0,1-1,.33l-1.2-3.06.22-.22a2.61,2.61,0,0,1,.65.11,1.84,1.84,0,0,0,.88,0c.51-.08,1.27-.22,2.29-.44s1.64-.37,2.08-.44a2.06,2.06,0,0,1,.11-.65,23.89,23.89,0,0,0,.55-5.15Zm16.73,10.61-.11.22-2.29,1.31a36.41,36.41,0,0,0-5.36-7.44v-.32l2.08-1.21A31.32,31.32,0,0,1,621.71,108.1Zm.77-7.33V101l-1.42,1.2h-.22a8.55,8.55,0,0,0-2.63-2.84v-.22L619.53,98h.21A23.72,23.72,0,0,1,622.48,100.77ZM621,97.05v-.21l1.31-1.1h.22a1.17,1.17,0,0,0,.33.22c.51.44,1.09,1,1.75,1.64a1.82,1.82,0,0,1,.65,1.09L623.9,99.9h-.22A11.36,11.36,0,0,0,621,97.05Z"/><path d="M637.57,118.6l-2.19,2.19-5.9-6.45,2.08-1.86Z"/><path d="M139.15,159.49a18.32,18.32,0,0,0-2.84-1.53A77.72,77.72,0,0,0,141.88,147l3,1.1A92.51,92.51,0,0,1,139.15,159.49Zm-1.31,10.06a33.33,33.33,0,0,0-1.53-3.06q14.33-2.07,20.45-10.83l2.51,2Q152.16,166.83,137.84,169.55Zm9.95-10.06v-16h3.06v16Zm12.58-2.84q-2.52-3.28-7-8.53l2.3-1.64q4.16,4.49,7.21,8.2Z"/><path d="M169.45,144.62h.22l3.5.65c-.08.44-.19.92-.33,1.42v15.1a5.1,5.1,0,0,0,.65,3,3,3,0,0,0,2.3,1.1h.66a4.17,4.17,0,0,0,1.86-.44,10.94,10.94,0,0,0,2.51-1.21,11.87,11.87,0,0,0,3.06-2.73h.22l1.32,2.52q.21.21,0,.21a13.49,13.49,0,0,1-4.6,3.29,9.84,9.84,0,0,1-4.81,1.2h-.33a6.46,6.46,0,0,1-3.61-1.09,4.32,4.32,0,0,1-2.19-3.18c-.07-1-.11-2.07-.11-3.17V146.91a6.27,6.27,0,0,0-.21-1.31A5.73,5.73,0,0,1,169.45,144.62Z"/><path d="M200.51,144.62H201l3.5.87v.22a2.38,2.38,0,0,0-.88,1.53q-.1.33-.33,1c-.29.8-.51,1.46-.65,2,1.46-.36,2.88-.69,4.26-1l.22.11-.33,2.84c-1.6.3-3.24.51-4.92.66a88.63,88.63,0,0,1-2.84,8.42,44.65,44.65,0,0,1-3.28,7.33l-.11.11-3.28-1.2a35.88,35.88,0,0,0,4.7-9.19c.36-.8.8-2,1.31-3.5.29-.8.51-1.39.66-1.75H195a.65.65,0,0,1-.44-.11l-.43-2.74c.36,0,.91,0,1.64.11a15.56,15.56,0,0,0,1.64.11h2.29a17.54,17.54,0,0,0,.77-5.14Zm9.3,20.78h1.09a11.77,11.77,0,0,0,4.48-.66l-.21,2.95a23.23,23.23,0,0,1-3.83.33h-.77a22.53,22.53,0,0,1-6.56-1.2l.44-2.41a2.85,2.85,0,0,0,.76.22A21,21,0,0,0,209.81,165.4Zm.11-11.49h1a16.56,16.56,0,0,1,2.19.22,7.61,7.61,0,0,0,1.09.11l-.11,2.95a18.55,18.55,0,0,0-4.15-.65H209a17.17,17.17,0,0,0-2.3.22,4.87,4.87,0,0,1-.87.11l.22-2.63a10.1,10.1,0,0,0,1.31-.11A24.75,24.75,0,0,1,209.92,153.91Zm1.42-4.59v-.22l1.42-1.31c0-.15.07-.15.22,0a12.55,12.55,0,0,1,2.51,2l.55.54-.22.22-.11.11a3.28,3.28,0,0,1-1.31,1.1c0,.07-.07.07-.22,0C213.23,151,212.28,150.19,211.34,149.32Zm2.62-2.63,1.31-1.64a4.06,4.06,0,0,1,1.43.77,2.4,2.4,0,0,0,.54.44,15.3,15.3,0,0,0,1.32,1.2v.33L217,149.1q0,.1-.21,0a18,18,0,0,0-1.43-1.2,10.48,10.48,0,0,0-1.42-1.1Z"/><path d="M224.79,156.21v1.2a12.52,12.52,0,0,0,.88,5.25h.21a6.29,6.29,0,0,0,1-1.53,7.07,7.07,0,0,1,.55-1.09h.21l.88.65a18.42,18.42,0,0,0-1.31,6.13v.66a8,8,0,0,0-1.21.11,9.21,9.21,0,0,1-1.2.1,8.32,8.32,0,0,1-1.2-2.07,21.93,21.93,0,0,1-1.42-8.1V156a27.63,27.63,0,0,1,.87-6.89,5,5,0,0,0,0-3.61,10,10,0,0,1,3.5.88,4.15,4.15,0,0,1-.33,1.31,1.77,1.77,0,0,0-.22.66A31.87,31.87,0,0,0,224.79,156.21Zm12-10.72,4.05.22a3.27,3.27,0,0,1-.22,1,1.7,1.7,0,0,0-.22.66,10.62,10.62,0,0,0-.11,1.42v.88c0,.65,0,1.35.11,2.08,1.31-.37,2.63-.7,3.94-1l.33,2.63a25.78,25.78,0,0,1-4.16,1v1.86a18.21,18.21,0,0,1-.77,6.78,11.73,11.73,0,0,1-4.48,5.91h-.11a1,1,0,0,1-.33-.11.84.84,0,0,0-.33-.11,12.81,12.81,0,0,0-2-1.09l-.11-.11a12.08,12.08,0,0,0,4.37-4.49q1.2-2.3,1.1-6.89v-1.31c-1.46.07-3,.11-4.49.11h-1.75l-1-2.85.11-.21a9.21,9.21,0,0,1,1.2.1,17.39,17.39,0,0,0,2.41.22H236a13.88,13.88,0,0,0,1.86-.11A22.62,22.62,0,0,0,236.82,145.49Z"/><path d="M273.13,154c-1.31-.58-2.51-1.13-3.61-1.64v2.08H263v2.95h9.3V160H263v6.12H273.9v2.41H249v-2.41H259.9V160h-9.3v-2.63h9.3v-2.95h-6.78V152.6c-1,.51-2.15,1.06-3.39,1.64-.15-.22-.33-.51-.55-.87l-1.09-1.75q9.07-3.51,12.47-8.53l3.39.32-.66.88a22.53,22.53,0,0,0,11.38,6.89c-.15.29-.41.76-.77,1.42S273.28,153.73,273.13,154Zm-18,11.82c-.59-.73-1.68-2.05-3.28-3.94l2.18-1.42q1.22,1.31,3.07,3.5c-.15-.15,0,0,.32.43Zm6.56-19.47a28.15,28.15,0,0,1-7.11,5.57h14A26.13,26.13,0,0,1,261.65,146.37Zm5.8,19.47-2.19-1.43a1.58,1.58,0,0,0,.22-.32c1.46-1.61,2.51-2.81,3.17-3.61l2.41,1.31C270.11,162.88,268.9,164.23,267.45,165.84Z"/><path d="M276.42,154.35v-2.73h5.68v-4.05c-.43,0-1.05,0-1.86.11-1.46.15-2.51.22-3.17.22v-.22a18.64,18.64,0,0,0-.44-2.41q7.44-.44,12.8-1l.55,2.62a19.07,19.07,0,0,0-2.19.22c-1.24.08-2.19.15-2.84.22v4.27h5.47v2.73H285v3.06l.87-.87q3.82,3.06,5,4.26l-2,2.08q-1.31-1.31-3.93-3.72v10.28H282.1v-10.5a26.81,26.81,0,0,1-5.14,7,28.26,28.26,0,0,0-.87-3.71,20.64,20.64,0,0,0,5.68-7.88ZM291.84,163v-16.4h2.73V163Zm1.53,6.13a3.16,3.16,0,0,0-.11-.66,7.9,7.9,0,0,0-.55-2.19c.73.08,2.08.11,4.05.11,1.16,0,1.71-.62,1.64-1.86V143.63h2.84V165.4q.12,3.39-3.39,3.61h-2.08C294.61,169.08,293.81,169.12,293.37,169.12Z"/><path d="M314.15,143.74l3.5.88v.22l-.77.87c-.07.22-.21.58-.43,1.09A4.55,4.55,0,0,1,316,148a19.27,19.27,0,0,0,4.37-1.1v3a30.46,30.46,0,0,1-5.36.87,17.66,17.66,0,0,1-1.64,3.17,8.38,8.38,0,0,1,3.07-.87h.43a4.46,4.46,0,0,1,1.1.22l.22.11a4.62,4.62,0,0,1,2.18,3.39c.66-.29,1.28-.55,1.86-.77l1-.33a16.25,16.25,0,0,0,2-.76,1.55,1.55,0,0,0,.43-.33q.44-.44.66-.33l2.3,2.63v.32a67.44,67.44,0,0,0-7.77,2.08,7.52,7.52,0,0,1,.22,1.86v.77a12.72,12.72,0,0,1-.22,1.86,6.84,6.84,0,0,0-.11,1H318a8,8,0,0,1,.11-1.2v-3.17a10.72,10.72,0,0,0-2.41,1.42c-1.38,1-1.86,2-1.42,3.06s1.53,1.53,3.72,1.53h.44a25.59,25.59,0,0,0,5.46-.76l.33,3.17a29.22,29.22,0,0,1-4.37.33H318.2a9.45,9.45,0,0,1-4.49-1,4,4,0,0,1-2.29-3.17v-.44a6.93,6.93,0,0,1,3.17-5,14.83,14.83,0,0,1,2.18-1.2c.51-.29.92-.51,1.21-.66a2.88,2.88,0,0,0-1.21-2.19,3.71,3.71,0,0,0-2.07.22q-2.42,1.22-5.25,5.8a4.3,4.3,0,0,0-.44.66l-2.74-1.21a49.25,49.25,0,0,0,5.91-9.95H309l-.77-2.62v-.22a15,15,0,0,0,2.3.22h2.73a1.55,1.55,0,0,0,.11-.44,8.72,8.72,0,0,0,.77-3.5Z"/><path d="M332.42,148.12v-3h26v3H346v6.67l1.75-2.19c2.91,1.68,6.09,3.65,9.51,5.91l-2.07,2.73-6.24-4.15c-1.31-1-2.3-1.65-2.95-2.08v14.33h-3.39V148.12Z"/><path d="M361.29,145.16l3.5.88a13.47,13.47,0,0,1-.44,1.53,3.3,3.3,0,0,1-.22.55,31.53,31.53,0,0,0-1.31,8.31v1.64a12.31,12.31,0,0,0,1.1,4.59h.21a14.34,14.34,0,0,0,.88-2,9,9,0,0,0,.44-1l1.42,1.2a18.51,18.51,0,0,0-1.75,6.57l-2.08.21a18.89,18.89,0,0,1-2.84-10.06v-1.42a44.93,44.93,0,0,1,.65-6.34,18.75,18.75,0,0,0,.44-4.05Zm13.56,0h.55c.29,0,.8,0,1.53.11a8.91,8.91,0,0,0,1.64.22,10.77,10.77,0,0,0-.33,2.63v.43c0,.3,0,.81.11,1.54a8.42,8.42,0,0,1,.11,1.31,18.65,18.65,0,0,0,2.74-.66,6,6,0,0,0,.87-.22h.22c.15.95.25,1.86.33,2.74a14.79,14.79,0,0,1-2.84.54,8.81,8.81,0,0,0-1,.22v-.33c-.07-.21-.07-.25,0-.1V156a24.66,24.66,0,0,1-.66,5.8,12.88,12.88,0,0,1-2.73,4.92,7.64,7.64,0,0,1-1.75,2,9.31,9.31,0,0,0-2.84-.88l-.11-.11a11.75,11.75,0,0,0,4-5,14.54,14.54,0,0,0,1.21-6.45v-2a6.47,6.47,0,0,1-1.21.11c-1.16.07-2.37.11-3.61.11h-1.64l-.65-2.73.11-.11a21.72,21.72,0,0,0,2.95.22h1.42a16.65,16.65,0,0,0,2.3-.11c-.08-.95-.18-2-.33-3.29C375.07,146.77,374.92,145.67,374.85,145.16Zm4.82,1,1.53-1.31a5.9,5.9,0,0,1,.87.76,9.77,9.77,0,0,1,2,1.86L382.62,149A22.08,22.08,0,0,0,379.67,146.15Zm2.4-2.19,1.42-1.42c.22.15.51.36.88.65,1,.81,1.78,1.46,2.3,2l-1.43,1.53A11.44,11.44,0,0,0,382.07,144Z"/><path d="M393.12,146.91h1.53a25.78,25.78,0,0,0,8.09-1.09,1,1,0,0,0,.44-.11,1.6,1.6,0,0,1,.66-.22H404l2.84,2.3v.11a11,11,0,0,0-2.51,2.4c-.37.44-.95,1.14-1.75,2.08s-1.43,1.57-1.86,2.08a12.52,12.52,0,0,0,1.31-.11,9.57,9.57,0,0,1,1.2-.11h.55a7.76,7.76,0,0,1,4.81,1.75,6,6,0,0,1,2.08,4.7V161a6.48,6.48,0,0,1-3.28,5.36,9.77,9.77,0,0,1-5.47,1.64h-.44q-5-.44-5.36-3.72v-.43q.33-2.85,3.72-3.18h.55q2.73,0,5.36,3.5a4.73,4.73,0,0,0,1.75-3.39v-.54q-.33-3.06-4.05-3.39h-.55a9.33,9.33,0,0,0-7.32,3.82.31.31,0,0,1-.11.22,1.84,1.84,0,0,1-.55.55l-2.63-2v-.33a41,41,0,0,0,9.3-10.17,15.25,15.25,0,0,0-6,1.31c-.08,0-.15.08-.22.22a.86.86,0,0,1-.77.22l-1.42-3.61Zm7.33,18.71H401a4.71,4.71,0,0,0,1.43-.22,1.54,1.54,0,0,0-.77-1.21,2.57,2.57,0,0,0-2.62-.87c-.66.37-.84.84-.55,1.42A2.32,2.32,0,0,0,400.45,165.62Z"/><path d="M428.56,163.21h2.29a35.41,35.41,0,0,0,8.1-1v3.5a46.07,46.07,0,0,1-8.42.65h-1.65a12.39,12.39,0,0,1-5.14-.87,13.15,13.15,0,0,1-3.82-2.85v-.32l1.86-1.65c.07-.14.1-.14.1,0a8.61,8.61,0,0,0,3.18,2.08A10.18,10.18,0,0,0,428.56,163.21Zm.54-15.31H430a25.7,25.7,0,0,0,5.14-.77c-.07,0,0,0,.33-.11v3.17c-1.53.15-3,.22-4.49.22h-2.51c-1.53-.07-3-.22-4.49-.43l-.22-.11-.65-3.07.11-.11a6,6,0,0,0,.87.22A19.07,19.07,0,0,0,429.1,147.9Z"/><path d="M463.67,149l2.4,2.74v.21a40,40,0,0,0-10.61,4.49,13.2,13.2,0,0,0-3.39,3.28,3.77,3.77,0,0,0-.65,1.86V162a3.37,3.37,0,0,0,2.07,3,8.49,8.49,0,0,0,3.72.66H458a22.68,22.68,0,0,0,6.34-.88l.22,3.28c-1.9.15-3.72.22-5.47.22h-1.64a10.06,10.06,0,0,1-5.8-1.2,5.43,5.43,0,0,1-2.84-4.92v-.55q.1-3.72,4.49-6.78a1,1,0,0,1,.54-.44,44,44,0,0,0-3.5-9.19l3-.54a64.7,64.7,0,0,1,3.28,8.2l3.93-2A13.13,13.13,0,0,0,463.67,149Z"/><path d="M479,145.49l3.72.88-.33.87a4.16,4.16,0,0,0-.33.55,7.29,7.29,0,0,0-.22,1.2,1.9,1.9,0,0,0-.11.55c-.07.29-.14.73-.22,1.31a4.87,4.87,0,0,0-.21,1.09,2.92,2.92,0,0,1,.87-.1,5.67,5.67,0,0,1,.88-.11,3.19,3.19,0,0,0,.65-.11h1.1a5.05,5.05,0,0,1,2.07.43,2.72,2.72,0,0,1,1.1,2.19v1.31a28.72,28.72,0,0,1-1,6.89c-.51,2.48-1.49,3.91-2.95,4.27a7.92,7.92,0,0,1-3.39.77h-.77q-.33-.76-.87-1.86a7.94,7.94,0,0,1-.44-1l.11-.22a5,5,0,0,1,.77.11,7.2,7.2,0,0,0,1.53.22h.43a2.45,2.45,0,0,0,2.3-1.42,17.77,17.77,0,0,0,1-2.95,26.88,26.88,0,0,0,.65-5,1.26,1.26,0,0,0-1.53-1.32,15,15,0,0,1-1.64.22l-1.64.33a35.56,35.56,0,0,1-6,12.14l-.21.11a11.87,11.87,0,0,0-1.75-.77,5.23,5.23,0,0,0-.88-.43v-.22a28.29,28.29,0,0,0,3.94-5.58,25.33,25.33,0,0,0,1.64-3.72,9.9,9.9,0,0,0,.44-1,28.14,28.14,0,0,0-3.29,1.09,1.59,1.59,0,0,1-1,.33l-1.2-3.06.22-.22a2.61,2.61,0,0,1,.65.11,1.84,1.84,0,0,0,.88,0c.51-.08,1.27-.22,2.29-.44s1.64-.37,2.08-.44a2.06,2.06,0,0,1,.11-.65,23.89,23.89,0,0,0,.55-5.15Zm16.73,10.61-.11.22-2.29,1.31a36.41,36.41,0,0,0-5.36-7.44v-.32l2.08-1.21A31.32,31.32,0,0,1,495.71,156.1Zm.77-7.33V149l-1.42,1.2h-.22a8.55,8.55,0,0,0-2.63-2.84v-.22l1.32-1.09h.21A23.72,23.72,0,0,1,496.48,148.77ZM495,145.05v-.21l1.31-1.1h.22a1.17,1.17,0,0,0,.33.22c.51.44,1.09,1,1.75,1.64a1.82,1.82,0,0,1,.65,1.09l-1.31,1.21h-.22A11.36,11.36,0,0,0,495,145.05Z"/><path d="M499.87,149.87h.66a14.77,14.77,0,0,0,3.28-.55l1.31-.33c1.38-.36,2.73-.69,4.05-1q3.6-.88,7.11-1.53a21.7,21.7,0,0,0,4.37-1,3.25,3.25,0,0,0,.33,1.2,3.78,3.78,0,0,1,.22,1.65l-1.53.32a7.57,7.57,0,0,0-3.72,1.21,8.6,8.6,0,0,0-3.17,4.7,15.34,15.34,0,0,0-.66,3.83v.65a5.79,5.79,0,0,0,1.64,4.27A6.41,6.41,0,0,0,518,165h.54a6.94,6.94,0,0,0,1.75-.22V168h-.87a12.76,12.76,0,0,1-6.89-1.86,8.57,8.57,0,0,1-3.28-6.89v-.54q0-4.28,3.39-9-4.38,1.1-8.75,2.4a3.08,3.08,0,0,1-.77.22,3,3,0,0,0-1.53.88l-1.75-3.07ZM520,151.4l1.54-1.42c.21.21.51.54.87,1a16.64,16.64,0,0,1,1.75,2l-1.53,1.31A17.33,17.33,0,0,0,520,151.4Zm3-2.19,1.53-1.31a18.17,18.17,0,0,1,2.51,2.84l-1.64,1.31A23.4,23.4,0,0,0,523,149.21Z"/><path d="M545.81,146H546a7.48,7.48,0,0,1,1,2.3,12.25,12.25,0,0,1-2.63,1.09q-.54.23-.87.33a10.4,10.4,0,0,1,.87,1.53,14.43,14.43,0,0,1,.77,1.53c.44-.15,1.09-.4,2-.77l2-.65h.33l1,2-.11.32-1.2.33a13.2,13.2,0,0,1-1.31.44,4.58,4.58,0,0,1-1.43.44,2.66,2.66,0,0,1,.33.65,49.23,49.23,0,0,0,3.06,4.27.33.33,0,0,0,.11.22,1.6,1.6,0,0,1,.44.87l-2.41,2.3a15.63,15.63,0,0,0-8.75-2.3h-.65a5.18,5.18,0,0,0-2.3.44,2,2,0,0,0-1,2.41q.1.44,1.2,1.2a5.57,5.57,0,0,0,2.52.88,17.28,17.28,0,0,0,3.28.32h.54a7.35,7.35,0,0,0,1.32-.11l-.22,3.07h-.77q-10.17-.56-10.61-5.91v-.55a4.31,4.31,0,0,1,2.19-3.17,10.19,10.19,0,0,1,4.38-1h1.09a19.15,19.15,0,0,1,5.47,1h.11c-.15-.22-.37-.58-.66-1.09s-.69-1.42-1.42-2.74a11.42,11.42,0,0,1-2.3.44,53.89,53.89,0,0,1-6,.55l-.22-.11-1.31-2.08.1-.22h.77a34.86,34.86,0,0,0,6.23-.55,5.08,5.08,0,0,0,1.54-.21L541,150.41a33.52,33.52,0,0,1-4.7,1,5.83,5.83,0,0,0-.66-1,5.74,5.74,0,0,1-.43-.65,1.62,1.62,0,0,1-.44-.77h.33c1.46-.22,3-.51,4.7-.87a6.79,6.79,0,0,0-.55-1.32l-.65-1.31a.68.68,0,0,0-.22-.44,3.19,3.19,0,0,1-.11-.65l3-.55c.44,1.24.88,2.41,1.32,3.5A30.69,30.69,0,0,0,545.81,146Z"/><path d="M566.15,144.29h.22l3.28.87v.33a2.63,2.63,0,0,0-1.09,1.75,10.63,10.63,0,0,0-.66,1.86,3.58,3.58,0,0,1-.22.66l3.61-.66a3,3,0,0,0,.77-.22l.22.11v2.85c-1.75.29-3.5.51-5.25.65a3.73,3.73,0,0,1-.11.55l-.11.22a63.58,63.58,0,0,1-5.8,15l-3-.87-.11-.22a89.37,89.37,0,0,0,6.34-14.55,17.05,17.05,0,0,1-2.19.11c-.94.07-1.67.11-2.18.11l-.22-.11-.44-2.62.11-.22a12.71,12.71,0,0,1,1.42.11,12.31,12.31,0,0,0,1.31.11H563c.65,0,1.35,0,2.08-.11a4.55,4.55,0,0,0,.22-.66,17.4,17.4,0,0,0,.87-4.38Zm14.77,20.12-.33,3.07a30.33,30.33,0,0,1-3.61.21h-1.1a22.94,22.94,0,0,1-4.81-.54,2,2,0,0,1-.44-.11c-.51,0-.83-.11-1-.33l-.11-2.52a5.83,5.83,0,0,0,1,.22,28.55,28.55,0,0,0,4.81.55h.54A23.36,23.36,0,0,0,580.92,164.41Zm-6.35-10.72h1c1.16,0,2.4,0,3.72.11l.1,3-.1.11a24.25,24.25,0,0,0-4.71-.66h-1.09a9.09,9.09,0,0,0-2.41.33l.44-2.74h1.42C573.66,153.73,574.21,153.69,574.57,153.69Z"/><path d="M610.45,156.1v.77a10,10,0,0,1-3,6.89,13.44,13.44,0,0,1-5.46,3.93c0,.15-.08.15-.22,0a10.23,10.23,0,0,0-2.52-1.64v-.21q7.88-3.72,8-9.52v-.55a7.14,7.14,0,0,0-2.41-5,8.73,8.73,0,0,0-4.59-2,60.42,60.42,0,0,1-2.41,8,51.54,51.54,0,0,1-3.39,7.11q-1.43,2.63-3.5,2.62-3.29-.11-5.47-3.72a7.67,7.67,0,0,1-1.09-3.72v-.54a10.26,10.26,0,0,1,.87-3.61,12.86,12.86,0,0,1,2-3.28,12.37,12.37,0,0,1,5.91-4.49,15.6,15.6,0,0,1,5-1.09h1.2a11,11,0,0,1,8,3A10.38,10.38,0,0,1,610.45,156.1ZM587.37,158v.55a6.05,6.05,0,0,0,1.09,3.39,2.52,2.52,0,0,0,2.08,1.31,2.77,2.77,0,0,0,1.86-1.31,19.31,19.31,0,0,0,1.09-2c.15-.37.26-.62.33-.77a36.58,36.58,0,0,0,3.72-10.39,17.45,17.45,0,0,0-4.16,1.1,14.87,14.87,0,0,0-4.48,4A8.56,8.56,0,0,0,587.37,158Z"/><path d="M611.87,149.87h.66a14.77,14.77,0,0,0,3.28-.55l1.31-.33c1.38-.36,2.73-.69,4-1q3.6-.88,7.11-1.53a21.7,21.7,0,0,0,4.37-1,3.25,3.25,0,0,0,.33,1.2,3.78,3.78,0,0,1,.22,1.65l-1.53.32a7.57,7.57,0,0,0-3.72,1.21,8.6,8.6,0,0,0-3.17,4.7,15.34,15.34,0,0,0-.66,3.83v.65a5.79,5.79,0,0,0,1.64,4.27A6.41,6.41,0,0,0,630,165h.54a6.94,6.94,0,0,0,1.75-.22V168h-.87a12.76,12.76,0,0,1-6.89-1.86,8.57,8.57,0,0,1-3.28-6.89v-.54q0-4.28,3.39-9-4.38,1.1-8.75,2.4a3.08,3.08,0,0,1-.77.22,3,3,0,0,0-1.53.88l-1.75-3.07ZM632,151.4l1.54-1.42c.21.21.51.54.87,1a16.64,16.64,0,0,1,1.75,2l-1.53,1.31A17.33,17.33,0,0,0,632,151.4Zm3-2.19,1.53-1.31a18.17,18.17,0,0,1,2.51,2.84l-1.64,1.31A23.4,23.4,0,0,0,635,149.21Z"/><path d="M651.57,166.6l-2.19,2.19-5.9-6.45,2.08-1.86Z"/><path d="M179.73,206.73c-.15-.22-.48-.62-1-1.21s-.73-1-.87-1.2a40.43,40.43,0,0,0,5.9-12.91l3,.44c-.44,1.39-.91,2.74-1.42,4.05h6.78v2.73a24.52,24.52,0,0,1-11.49,18.82,15.1,15.1,0,0,0-1.2-1.43,7.37,7.37,0,0,1-.88-1,23.06,23.06,0,0,0,7.44-7c-.29-.22-.73-.58-1.31-1.1-1.09-.94-2-1.67-2.63-2.18l1.75-2.19,3.61,2.84a25.13,25.13,0,0,0,1.86-6.78h-5A48.79,48.79,0,0,1,179.73,206.73Zm14.65,10.72v-26h3v9.19l1.31-1.09q3,2.73,6.23,6.12l-2.18,2a69.07,69.07,0,0,0-5.36-5.58v15.43Z"/><path d="M207.4,207.6c-.58-1-1.09-1.89-1.53-2.62,1.68-2,2.44-4.78,2.3-8.43v-3.93h10.5v6.45h-8.1a6.84,6.84,0,0,1-.11,1,3.45,3.45,0,0,1-.11,1h8.42v6.45H210v-6A15.5,15.5,0,0,1,207.4,207.6Zm1.2,4.38v-2.19H218v-2.08h3v2.08h9.3V212H221v2.4h11.6v2.3H206.42v-2.3H218V212Zm2.08-17.29v2.41h5.47v-2.41Zm1.75,8.32v2.51h3.94V203Zm7.11-1.53v-2.19h3.06a3.69,3.69,0,0,0-.65-1c-.51-.94-.88-1.6-1.1-2l1.53-.22h-2.51v-2.19h4.81l-1-2.3,2.84-.44a17.87,17.87,0,0,1,.88,2.74h4.37v2.19h-2.62l1.53.22c-.3.43-.7,1.09-1.21,2l-.65,1h3.5v2.19h-5.25v2.18h4.48v2.19h-4.48v2.41h-2.74v-2.41h-4.26v-2.19h4.26v-2.18Zm5.58-2.52-1.75.33h2.95c.73-1.31,1.31-2.37,1.75-3.17h-4.7q.54.76.33.54C224.42,197.76,224.9,198.52,225.12,199Z"/><path d="M238.35,200.6c-1.31-.95-2.7-1.86-4.15-2.73l1.31-2c1.24.65,2.66,1.46,4.26,2.4ZM236.6,212v-2.19h9.3v-1.53h2.95v1.53h9.52V212h-9.52v2.29h11.71v2.3H234.31v-2.3H245.9V212Zm.66-3.39-2.41-1.32q1.86-3.06,3.5-6.23a15.49,15.49,0,0,0,1.53.76,4.71,4.71,0,0,0,.88.44C239.81,203.85,238.64,206,237.26,208.59Zm3.17-12.47c-.66-.44-1.6-1-2.84-1.75a13.38,13.38,0,0,1-1.42-.88l1.42-2.08q2.07,1.09,4.37,2.52Zm.55,12c-.37-.66-.77-1.31-1.21-2a33.63,33.63,0,0,0,5.69-3l1.42,1.64Q243.61,206.84,241,208.15Zm4.26-9.41v-1.42c-.29.15-.76.37-1.42.66a19.47,19.47,0,0,1-1.86.76c-.51-.8-1-1.57-1.42-2.3a22.7,22.7,0,0,0,9.19-5.35l3,.32-.66.66a27.31,27.31,0,0,0,8.54,4.16l-.33.54a16.13,16.13,0,0,0-1,1.86,1.37,1.37,0,0,0-.43-.22,20.63,20.63,0,0,1-3-1.31v1.64h-3.93v1.86H259v2.19h-7.1v2.3q.11,3.16-2.85,3.06c-.95.07-2,.11-3.06.11a11.4,11.4,0,0,0-.44-2.08c.88.07,1.68.11,2.41.11a1.16,1.16,0,0,0,1.31-1.31v-2.19h-7.55V200.6h7.55v-1.86Zm5.25-5.14a19.56,19.56,0,0,1-4.48,3.17h9.3A23.38,23.38,0,0,1,250.49,193.6Zm8.32,14.55a28.48,28.48,0,0,0-3.29-1.75c-.94-.44-1.67-.8-2.18-1.1l1.2-1.75a1,1,0,0,0,.44.22,52.55,52.55,0,0,1,5.14,2.41Z"/><path d="M262.42,207.27v-2.4h12a14.91,14.91,0,0,0-1-1.86l2.74-.44a11.9,11.9,0,0,1,.65,1.31,9.16,9.16,0,0,0,.55,1h11.16v2.4H277.07a16.5,16.5,0,0,0,2.63,3.18q3.49-1.75,5.36-2.74l1.42,2.3-4.6,2.08a29.29,29.29,0,0,0,6.57,2.18,8.51,8.51,0,0,0-1.21,1.86l-.32.66q-9-2.29-12.15-8.53c-1,.87-2.07,1.71-3.17,2.51v3.61c1.82-.58,3.76-1.13,5.8-1.64a12.47,12.47,0,0,1-.11,1.42v1.21a45.08,45.08,0,0,0-5.91,1.53,6.69,6.69,0,0,0-1.31.44,3.3,3.3,0,0,0-.65.21l-1.32-2a2.07,2.07,0,0,0,.88-1.75v-1.43a30.83,30.83,0,0,1-5.58,2.3l-1.2-2.41a32.26,32.26,0,0,0,10.06-5Zm1-4.37-1.09-2.74a67.73,67.73,0,0,0,7-3.17V191.3H272v12.14h-2.73v-3.6Q266.69,201.15,263.4,202.9Zm3-5.58c-1.09-1.17-2.22-2.33-3.39-3.5l2.08-1.53q1.75,1.53,3.39,3.17Zm6.89-.55v-2.4h6.13V191.3h2.73v3.07h6.35v2.4H282.1v3h5.58V202H274v-2.29h5.36v-3Z"/><path d="M298.51,192.62H299l3.5.87v.22a2.38,2.38,0,0,0-.88,1.53q-.1.33-.33,1c-.29.8-.51,1.46-.65,2,1.46-.36,2.88-.69,4.26-1l.22.11-.33,2.84c-1.6.3-3.24.51-4.92.66a88.63,88.63,0,0,1-2.84,8.42,44.65,44.65,0,0,1-3.28,7.33l-.11.11-3.28-1.2a35.88,35.88,0,0,0,4.7-9.19c.36-.8.8-2,1.31-3.5.29-.8.51-1.39.66-1.75H293a.65.65,0,0,1-.44-.11l-.43-2.74c.36,0,.91,0,1.64.11a15.56,15.56,0,0,0,1.64.11h2.29a17.54,17.54,0,0,0,.77-5.14Zm9.3,20.78h1.09a11.77,11.77,0,0,0,4.48-.66l-.21,3a24.33,24.33,0,0,1-3.83.32h-.77a22.53,22.53,0,0,1-6.56-1.2l.44-2.41a2.85,2.85,0,0,0,.76.22A21,21,0,0,0,307.81,213.4Zm.11-11.49h1a16.56,16.56,0,0,1,2.19.22,7.61,7.61,0,0,0,1.09.11l-.11,2.95a18.55,18.55,0,0,0-4.15-.65H307a17.17,17.17,0,0,0-2.3.22,4.87,4.87,0,0,1-.87.11l.22-2.63a10.1,10.1,0,0,0,1.31-.11A24.75,24.75,0,0,1,307.92,201.91Zm1.42-4.59v-.22l1.42-1.31c0-.15.07-.15.22,0a12.55,12.55,0,0,1,2.51,2l.55.54-.22.22-.11.11a3.28,3.28,0,0,1-1.31,1.1c0,.07-.07.07-.22,0C311.23,199,310.28,198.19,309.34,197.32Zm2.62-2.63,1.31-1.64a4.06,4.06,0,0,1,1.43.77,2.4,2.4,0,0,0,.54.44,15.3,15.3,0,0,0,1.32,1.2v.33L315,197.1q0,.1-.21,0a18,18,0,0,0-1.43-1.2,10.48,10.48,0,0,0-1.42-1.1Z"/><path d="M322.79,204.21v1.2a12.52,12.52,0,0,0,.88,5.25h.21a6.29,6.29,0,0,0,1-1.53,7.07,7.07,0,0,1,.55-1.09h.21l.88.66a18.32,18.32,0,0,0-1.31,6.12v.66a8,8,0,0,0-1.21.11,9.57,9.57,0,0,1-1.2.11,8.56,8.56,0,0,1-1.2-2.08,21.93,21.93,0,0,1-1.42-8.1V204a27.63,27.63,0,0,1,.87-6.89,5,5,0,0,0,0-3.61,10,10,0,0,1,3.5.88,4.15,4.15,0,0,1-.33,1.31,1.77,1.77,0,0,0-.22.66A31.87,31.87,0,0,0,322.79,204.21Zm12-10.72,4.05.22a3.27,3.27,0,0,1-.22,1,1.7,1.7,0,0,0-.22.66,10.62,10.62,0,0,0-.11,1.42v.88c0,.65,0,1.35.11,2.08,1.31-.37,2.63-.7,3.94-1l.33,2.63a25.78,25.78,0,0,1-4.16,1v1.86a18.21,18.21,0,0,1-.77,6.78,11.73,11.73,0,0,1-4.48,5.91h-.11a1,1,0,0,1-.33-.11.84.84,0,0,0-.33-.11,12.81,12.81,0,0,0-2-1.09l-.11-.11a12.08,12.08,0,0,0,4.37-4.49q1.2-2.3,1.1-6.89v-1.31c-1.46.07-3,.11-4.49.11h-1.75l-1-2.85.11-.21a9.21,9.21,0,0,1,1.2.1,17.39,17.39,0,0,0,2.41.22H334a13.88,13.88,0,0,0,1.86-.11A22.62,22.62,0,0,0,334.82,193.49Z"/><path d="M352.87,196.12V197c.65,1.31,1.31,2.59,2,3.83a.6.6,0,0,0,.43-.22,7.94,7.94,0,0,0,1-.44,28.39,28.39,0,0,1,4.7-2,15.25,15.25,0,0,1,5.47-1.2H367a6.88,6.88,0,0,1,3.61,1,4.87,4.87,0,0,1,2,3.82v.66a5.27,5.27,0,0,1-3.39,4.81,19.87,19.87,0,0,1-6.79,1.43l-1.53-2.41V206h.66a17,17,0,0,0,5.25-.66q3.5-1.53,2.3-4.26a3.72,3.72,0,0,0-3-1.42h-.43a14.18,14.18,0,0,0-4.71,1.2q-.54.23-.87.33c-1.32.58-2.63,1.2-3.94,1.86l-.11.11c.22.36.51.91.88,1.64a14.14,14.14,0,0,1,.87,1.64q2.85,5.35,3.94,8.09v.33l-2.52,1.2H359q-1.53-3.93-5.47-11.7c-.21.15-.58.37-1.09.66a20.65,20.65,0,0,0-2.73,1.64l-.22.22c-.37.29-.66.4-.88.32l-2.29-2.95a13.21,13.21,0,0,0,4.15-1.42l.77-.33a4.27,4.27,0,0,1,.54-.22,1.12,1.12,0,0,1,.55-.22c-.15-.22-.36-.58-.65-1.09a4.79,4.79,0,0,0-.44-1,2.27,2.27,0,0,1-.44-.87,20.07,20.07,0,0,0-1.31-1.86l.11-.22,3.06-.87Zm3.06-1.43,1.75-1.85a16.11,16.11,0,0,1,4.38,3.28L360,197.87A16.55,16.55,0,0,0,355.93,194.69Z"/><path d="M390.82,197.21h.55a6.71,6.71,0,0,1,4.59,1.64,6.62,6.62,0,0,1,2,4.59V204a6,6,0,0,1-1,3.28,10.14,10.14,0,0,1-3,2.85,13.41,13.41,0,0,1-6.56,2.29l-1.75-2.07a16.24,16.24,0,0,0,6.56-2.08c2.19-1.32,3.29-2.88,3.29-4.71v-.43c-.3-2.12-1.79-3.36-4.49-3.72h-.44a10.83,10.83,0,0,0-3.39.54c-.87.3-1.75.62-2.62,1-.3.15-.7.33-1.21.55a33.18,33.18,0,0,0-3.17,1.75c-.07,0-.14.07-.22.21a.81.81,0,0,1-.76.22l-2.3-2.62c2-.51,4.05-1.1,6-1.75a1.86,1.86,0,0,0,.43-.11C386.52,197.79,389,197.14,390.82,197.21Z"/><path d="M404.06,197.87h.32l9.52-2c4.16-.88,7.29-1.5,9.41-1.86,1.09-.22,2.18-.4,3.28-.55l.22,3.17h-.66c-3.35,0-5.87.92-7.55,2.74a10.41,10.41,0,0,0-2.84,7.33v.43a5.77,5.77,0,0,0,1.53,4.27c1,1.09,2.63,1.6,4.81,1.53H424v3.28h-1.64a10.24,10.24,0,0,1-6.89-2.4,8.61,8.61,0,0,1-2.3-6.35V206.4q0-4.28,3.5-8.53c-.94.22-2.4.58-4.37,1.09-.95.22-1.68.4-2.19.55l-1,.33a12.29,12.29,0,0,0-3.28,1.2Z"/><path d="M440.48,191.74h.44l3.17.88v.22a1.61,1.61,0,0,0-.55.87c-.15.29-.25.51-.33.66-.29.94-.54,1.93-.76,2.95a1,1,0,0,1-.11.33,5.37,5.37,0,0,1-.22.54h2.08a11.82,11.82,0,0,0,1.86-.21,2.61,2.61,0,0,1,.65-.11l-.54,2.73a.49.49,0,0,1-.33.11h-4.27c-.07.51-.14,1.2-.22,2.08s-.25,1.82-.32,2.4a18,18,0,0,0,5.25.11v.44l-.44,2.19a.47.47,0,0,1-.33.11h-2.3c-.8,0-1.64,0-2.51-.11v.77a2.84,2.84,0,0,0-.11.76v1.09a4.08,4.08,0,0,0,1.09,2.85,4,4,0,0,0,2.52,1h.65a4.69,4.69,0,0,0,3.18-1.09,4.55,4.55,0,0,0,1.09-2.95v-.44c0-1.24-.69-3-2.08-5.14a2.41,2.41,0,0,0-.33-.55l3.17-.22a9.43,9.43,0,0,1,2.41,6.13v.54a6.35,6.35,0,0,1-2.3,4.82,6.76,6.76,0,0,1-4.81,1.64h-.65a6.89,6.89,0,0,1-4.71-1.86c-1.16-.95-1.75-2.59-1.75-4.92v-1.1a14.82,14.82,0,0,1,.11-1.75c-.36-.14-.95-.33-1.75-.55a11,11,0,0,0-1.86-.54l.22-2.74a15.84,15.84,0,0,0,3.72,1.1v-.55a13.82,13.82,0,0,0,.44-2q.21-1.2.33-1.86c-.88-.22-1.68-.44-2.41-.65-.58-.08-.88-.19-.88-.33l.22-2.74a22,22,0,0,0,3.39,1c.08-.22.19-.62.33-1.21a7.2,7.2,0,0,1,.22-1.09,5,5,0,0,1,.11-.76,13,13,0,0,0,.22-2.08Z"/><path d="M462.9,197.54l3.06.65a43.89,43.89,0,0,0-1,8.21q4-3.28,7.87-3.28h.77a9.29,9.29,0,0,1,4.92,1.2,5.56,5.56,0,0,1,2.3,4.16V209a6.58,6.58,0,0,1-2.3,4.82,16.09,16.09,0,0,1-5,2.4,5.38,5.38,0,0,1-2.63.66l-1.42-2.41v-.11a36.47,36.47,0,0,0,4.38-1q3.72-1.53,3.72-3.94V209q-.22-3-4.05-3.28h-.44a11.93,11.93,0,0,0-4.37,1.1,7.3,7.3,0,0,0-3.5,3.5l-3.17-1.1c.07-.58.18-1.49.32-2.73q.56-5.14.55-7.77Zm2.3-3.83,1.86-2.08a5,5,0,0,1,.87.44,35.67,35.67,0,0,1,4.81,2.41v.21l-1.86,2A30.76,30.76,0,0,0,465.2,193.71Z"/><path d="M487.29,196.12l.11-.11c1.31.22,2.55.47,3.72.76a2.43,2.43,0,0,1-.22.77,4.52,4.52,0,0,0-.22,1.2,7,7,0,0,0-.11,1.31v.77a20.5,20.5,0,0,0,.44,4.59,40.26,40.26,0,0,0,1.53,4.38c.51,1.17,1.13,1.75,1.86,1.75a2.58,2.58,0,0,0,1.64-.77,9.22,9.22,0,0,0,1.75-2.07H498l1.31,2q.23.12,0,.33a4.79,4.79,0,0,1-1.53,2,5.19,5.19,0,0,1-3.61,1.53q-2.62,0-4.15-3.39a22,22,0,0,1-.77-2.19,6.73,6.73,0,0,0-.44-1.42,59,59,0,0,1-1-6.12,9.59,9.59,0,0,0-.11-1.1,7.15,7.15,0,0,0-.22-1c0-.37,0-.91-.11-1.64A8.43,8.43,0,0,0,487.29,196.12Zm16.3,2.84,2.51-.77h.22a38.08,38.08,0,0,1,4.27,7.11,7.28,7.28,0,0,1,1,2.41l-2.62,1.2h-.44a30.33,30.33,0,0,0-5-9.62Z"/><path d="M526.78,192.4l3.39.33.11.11a4.11,4.11,0,0,0-.44.87,1.34,1.34,0,0,1-.22.44v.44c-.07.58-.15,1.24-.22,2,.8-.07,1.93-.21,3.39-.43a14.19,14.19,0,0,0,1.42-.22l-.22,2.51a27,27,0,0,1-4.59.55,10.25,10.25,0,0,1,.11,1.75c.07.73.11,1.31.11,1.75h.22a21.72,21.72,0,0,0,4.81-.77l-.44,2.52a18.58,18.58,0,0,1-4.37.77q.1,2.51.33,5.25a19.16,19.16,0,0,1,6.12,3.39l-1.31,2a17.9,17.9,0,0,0-4.7-2.52,3.52,3.52,0,0,1-2.19,3.17,7.13,7.13,0,0,1-3.39.66h-1a5.48,5.48,0,0,1-4-1.42,3,3,0,0,1-.88-3.61,4.39,4.39,0,0,1,2.08-1.75,11.06,11.06,0,0,1,3.72-.66h1.09a8.81,8.81,0,0,1,1.64.22c-.44-.15-.36-.15.22,0a28,28,0,0,0-.22-3c-.07-.66-.11-1.17-.11-1.54h-2.29A37,37,0,0,1,521,205l-.22-.11-.55-2.41v-.22c.29.07.66.15,1.1.22a19.77,19.77,0,0,0,3.06.33h2.73c0-1.1,0-2.37-.11-3.83h-.65c-1.9,0-3.72-.07-5.47-.22l-.22-.11-.66-2.51a15,15,0,0,1,2.19.22,27.11,27.11,0,0,0,2.74.21H527v-1.2A25.35,25.35,0,0,0,526.78,192.4Zm-2.41,19.14h-.66c-1.67.15-2.55.76-2.62,1.86.07.44.44.76,1.09,1a13.82,13.82,0,0,0,1.64.11h.66a4.66,4.66,0,0,0,2.4-.44,2.18,2.18,0,0,0,.77-1.75v-.43a9.48,9.48,0,0,1-1.09-.11A17,17,0,0,0,524.37,211.54Z"/><path d="M547.45,192.62h.22l3.5.65c-.08.44-.19.92-.33,1.42v15.1a5.1,5.1,0,0,0,.65,3,3,3,0,0,0,2.3,1.1h.66a4.17,4.17,0,0,0,1.86-.44,11.32,11.32,0,0,0,2.51-1.2,12.1,12.1,0,0,0,3.06-2.74h.22l1.32,2.52c.14.14.14.22,0,.22a13.49,13.49,0,0,1-4.6,3.28,9.84,9.84,0,0,1-4.81,1.2h-.33a6.46,6.46,0,0,1-3.61-1.09,4.32,4.32,0,0,1-2.19-3.18c-.07-1-.1-2.07-.1-3.17V194.91a6.46,6.46,0,0,0-.22-1.31A5.73,5.73,0,0,1,547.45,192.62Z"/><path d="M580.15,192.29h.22l3.28.87v.33a2.63,2.63,0,0,0-1.09,1.75,10.63,10.63,0,0,0-.66,1.86,3.58,3.58,0,0,1-.22.66l3.61-.66a3,3,0,0,0,.77-.22l.22.11v2.85c-1.75.29-3.5.51-5.25.65a3.73,3.73,0,0,1-.11.55l-.11.22a63.58,63.58,0,0,1-5.8,15l-3-.87-.11-.22a89.37,89.37,0,0,0,6.34-14.55,17.05,17.05,0,0,1-2.19.11c-.94.07-1.67.11-2.18.11l-.22-.11-.44-2.62.11-.22a12.71,12.71,0,0,1,1.42.11,12.31,12.31,0,0,0,1.31.11H577c.65,0,1.35,0,2.08-.11a4.55,4.55,0,0,0,.22-.66,17.4,17.4,0,0,0,.87-4.38Zm14.77,20.12-.33,3.07a30.3,30.3,0,0,1-3.61.22h-1.1a23,23,0,0,1-4.81-.55,2,2,0,0,1-.44-.11c-.51,0-.83-.11-1-.33l-.11-2.51a7.3,7.3,0,0,0,1,.21,28.55,28.55,0,0,0,4.81.55h.54A23.36,23.36,0,0,0,594.92,212.41Zm-6.35-10.72h1c1.16,0,2.4,0,3.72.11l.1,3-.1.11a24.25,24.25,0,0,0-4.71-.66h-1.09a9.09,9.09,0,0,0-2.41.33l.44-2.74h1.42C587.66,201.73,588.21,201.69,588.57,201.69Z"/><path d="M601.48,212.74a4.39,4.39,0,0,1,4.48-4.48q4,.33,4.38,4.48-.44,3.72-4.38,4.16Q601.91,216.57,601.48,212.74Zm1.75,0c.14,1.46,1.06,2.26,2.73,2.41a2.54,2.54,0,0,0,2.63-2.41A2.66,2.66,0,0,0,606,210,2.7,2.7,0,0,0,603.23,212.74Z"/><path d="M80.42,250.35v-2.73H86.1v-4.05c-.43,0-1,0-1.86.11-1.46.15-2.51.22-3.17.22v-.22a18.64,18.64,0,0,0-.44-2.41q7.44-.44,12.8-1l.55,2.62a19.07,19.07,0,0,0-2.19.22c-1.24.08-2.19.15-2.84.22v4.27h5.47v2.73H89v3.06l.87-.87q3.83,3.06,5,4.26l-2,2.08q-1.3-1.31-3.93-3.72v10.29H86.1V255A27.14,27.14,0,0,1,81,262a27.92,27.92,0,0,0-.87-3.72,20.64,20.64,0,0,0,5.68-7.88ZM95.84,259v-16.4h2.73V259Zm1.53,6.13a3.16,3.16,0,0,0-.11-.66,7.9,7.9,0,0,0-.55-2.19c.73.08,2.08.11,4.05.11,1.16,0,1.71-.62,1.64-1.86V239.63h2.84V261.4q.12,3.39-3.39,3.61H99.77C98.61,265.08,97.81,265.12,97.37,265.12Z"/><path d="M108.2,254.07v-2.73h11.92v-2.85l7.65-4.92H110.6v-2.73h21.66v3.39l-9,5.68v1.43h11.38v2.73H123.29v7c.07,2.63-1.2,3.94-3.83,3.94-1.46.07-3,.11-4.7.11a27.67,27.67,0,0,0-.55-3c.66.08,1.9.11,3.72.11,1.53.08,2.26-.65,2.19-2.18v-6Z"/><path d="M155.67,245l2.4,2.74V248a39.67,39.67,0,0,0-10.61,4.48,13.2,13.2,0,0,0-3.39,3.28,3.77,3.77,0,0,0-.65,1.86V258a3.37,3.37,0,0,0,2.07,2.95,8.49,8.49,0,0,0,3.72.66H150a22.68,22.68,0,0,0,6.34-.88l.22,3.28c-1.9.15-3.72.22-5.47.22h-1.64a10.06,10.06,0,0,1-5.8-1.2,5.43,5.43,0,0,1-2.84-4.92v-.55c.07-2.48,1.57-4.74,4.48-6.78a1.06,1.06,0,0,1,.55-.44,44,44,0,0,0-3.5-9.19l3-.54a63.13,63.13,0,0,1,3.29,8.2l3.93-2A13.13,13.13,0,0,0,155.67,245Z"/><path d="M169.45,240.62h.22l3.5.65c-.08.44-.19.92-.33,1.43v15.09a5.1,5.1,0,0,0,.65,2.95,3,3,0,0,0,2.3,1.1h.66a4.17,4.17,0,0,0,1.86-.44,11.32,11.32,0,0,0,2.51-1.2,12.1,12.1,0,0,0,3.06-2.74h.22l1.32,2.52c.14.14.14.22,0,.22a13.59,13.59,0,0,1-4.6,3.28,9.84,9.84,0,0,1-4.81,1.2h-.33a6.46,6.46,0,0,1-3.61-1.09,4.32,4.32,0,0,1-2.19-3.18c-.07-1-.11-2.07-.11-3.17V242.91a6.27,6.27,0,0,0-.21-1.31A5.73,5.73,0,0,1,169.45,240.62Z"/><path d="M194.06,245.87h.32l9.52-2c4.16-.88,7.29-1.5,9.41-1.86,1.09-.22,2.18-.4,3.28-.55l.22,3.17h-.66c-3.35,0-5.87.92-7.55,2.74a10.41,10.41,0,0,0-2.84,7.33v.43a5.77,5.77,0,0,0,1.53,4.27c1,1.09,2.63,1.6,4.81,1.53H214v3.28h-1.64a10.22,10.22,0,0,1-6.89-2.4,8.61,8.61,0,0,1-2.3-6.35V254.4q0-4.28,3.5-8.53c-.94.22-2.4.58-4.37,1.09-.95.22-1.68.4-2.19.55l-1,.33a12.16,12.16,0,0,0-3.28,1.2Z"/><path d="M220.52,247.07v-2.62h3.72v-5h3v5h3.61v2.62H227.2v4.81l3.28-.76v2.95l-3.28.77v6.89c.07,2-1,3.13-3.28,3.28a27.21,27.21,0,0,1-2.74.11c-.15-.88-.33-1.79-.55-2.74h2.08q1.65,0,1.53-1.53v-5.36l-3.82.88-.33-3.07,4.15-.87v-5.36Zm10,16.52-1.42-2.3a8.54,8.54,0,0,0,2-3.06,163.76,163.76,0,0,0,5.8-18.6l3.17.55a189.72,189.72,0,0,1-6.89,20.34c1-.07,2.41-.14,4.38-.22l4.59-.32q-1.63-4.71-3.39-9l2.84-.88q3.51,9,5.15,14l-2.85.88-.87-2.52q-5.14.11-9.85.66A9.46,9.46,0,0,0,230.48,263.59Z"/><path d="M253.88,249.37h.77a10.41,10.41,0,0,0,3.06-.66c1-.22,1.9-.47,2.85-.76a10.83,10.83,0,0,1,3.5-.55h.32a4.07,4.07,0,0,1,3.61,2,6.18,6.18,0,0,1,1,3.61v1q-.12,6.78-6,11.81a1,1,0,0,0-.33.11.85.85,0,0,1-.32.11h-.11l-.11-.11a23.92,23.92,0,0,0-2.19-1.64V264A12.67,12.67,0,0,0,266,253.41v-.54c-.07-1.9-.87-2.88-2.4-3h-.44a7.53,7.53,0,0,0-2.84.88,1,1,0,0,1-.33.11,10.08,10.08,0,0,0-2.95,1.53l-.22.22c-.29.22-.51.29-.66.22l-2.3-3.17Zm4.6-7,1.09-2.63h.11a35.49,35.49,0,0,0,7.66,2.3l.11.11a5.9,5.9,0,0,0-.22,1c-.22.81-.37,1.42-.44,1.86l-.11.11a7.74,7.74,0,0,1-2.08-.44.31.31,0,0,0-.22-.11c-1-.29-2.48-.72-4.37-1.31l-1.42-.54Z"/><path d="M283.31,241.16h.76c.37,0,.91,0,1.64.11a8.91,8.91,0,0,0,1.64.22l.11.22a17.28,17.28,0,0,0-.76,4.49,3.28,3.28,0,0,1,1.09-.33c1.09-.37,1.93-.66,2.52-.88l.11,2.74c-1.32.43-2.63.8-3.94,1.09a16.26,16.26,0,0,0-.11,2v1.86a14.19,14.19,0,0,1,5.9-1.53h.44a8.13,8.13,0,0,1,4.38,1.09,5,5,0,0,1,2.18,3.94v.55a5.36,5.36,0,0,1-.65,2.62,7.06,7.06,0,0,1-2,2.19,11.7,11.7,0,0,1-5.8,2A25.78,25.78,0,0,0,289.1,261a12.37,12.37,0,0,0,3.61-.76,5.8,5.8,0,0,0,3.06-2.19,3,3,0,0,0,0-2.74,4,4,0,0,0-3.28-1.53H292a12.35,12.35,0,0,0-5.36,1.53,4.25,4.25,0,0,0,.11.88c0,.36,0,1,.11,1.75.14,1.53.21,2.7.21,3.5V262a2.74,2.74,0,0,1-1.64,2.62,5.73,5.73,0,0,1-3.17-.55c-2.62-.94-3.94-2.18-3.94-3.72a5.23,5.23,0,0,1,1.54-3.39,16.47,16.47,0,0,1,3.82-3q-.11-2.4,0-4.59a10.1,10.1,0,0,0-1.31.11,24.83,24.83,0,0,1-2.62.22h-.77L278.6,247l.11-.22a13.1,13.1,0,0,0,2.41.22,12.22,12.22,0,0,0,2.62-.22A47.68,47.68,0,0,0,283.31,241.16Zm.54,15.75a.35.35,0,0,0-.22.11,4.87,4.87,0,0,0-2.29,2.3,1.67,1.67,0,0,0,.43,1.64c.88.73,1.57.88,2.08.44q.33-.22.33-1a8.39,8.39,0,0,0-.22-1.86v-.87A4.88,4.88,0,0,1,283.85,256.91Zm16.63-9.62.11.11-1.32,2.3h-.21a57.6,57.6,0,0,0-5.36-3.18v-.22l1.31-1.85.22-.11A48.22,48.22,0,0,1,300.48,247.29Z"/><path d="M329.13,250c-1.31-.58-2.51-1.13-3.61-1.64v2.08H319v2.95h9.3V256H319v6.12H329.9v2.41H305v-2.41H315.9V256h-9.3v-2.63h9.3v-2.95h-6.78V248.6c-1,.51-2.15,1.06-3.39,1.64-.15-.22-.33-.51-.55-.87-.51-.8-.87-1.39-1.09-1.75q9.07-3.51,12.47-8.53l3.39.32-.66.88a22.53,22.53,0,0,0,11.38,6.89c-.15.29-.41.77-.77,1.42S329.28,249.73,329.13,250Zm-18,11.82c-.59-.73-1.68-2-3.28-3.94l2.18-1.42q1.22,1.31,3.07,3.5c-.15-.15,0,0,.32.43Zm6.56-19.47a28.4,28.4,0,0,1-7.11,5.58h14A26.36,26.36,0,0,1,317.65,242.37Zm5.8,19.47-2.19-1.43a1.58,1.58,0,0,0,.22-.32c1.46-1.61,2.51-2.81,3.17-3.61l2.41,1.31C326.11,258.88,324.9,260.23,323.45,261.84Z"/><path d="M342.15,239.74l3.5.88v.22l-.77.87c-.07.22-.21.58-.43,1.09A4.55,4.55,0,0,1,344,244a19.27,19.27,0,0,0,4.37-1.1v3a30.46,30.46,0,0,1-5.36.87,17.66,17.66,0,0,1-1.64,3.17,8.38,8.38,0,0,1,3.07-.87h.43a4.46,4.46,0,0,1,1.1.22l.22.11a4.62,4.62,0,0,1,2.18,3.39c.66-.29,1.28-.55,1.86-.77l1-.33a16.25,16.25,0,0,0,2-.76,1.55,1.55,0,0,0,.43-.33q.44-.44.66-.33l2.3,2.63v.33a65.39,65.39,0,0,0-7.77,2.07,7.52,7.52,0,0,1,.22,1.86v.77a12.72,12.72,0,0,1-.22,1.86,7,7,0,0,0-.11,1H346a8,8,0,0,1,.11-1.2v-3.17a10.72,10.72,0,0,0-2.41,1.42c-1.38.95-1.86,2-1.42,3.06s1.53,1.53,3.72,1.53h.44a25.59,25.59,0,0,0,5.46-.76l.33,3.17a29.22,29.22,0,0,1-4.37.33H346.2a9.45,9.45,0,0,1-4.49-1,4,4,0,0,1-2.29-3.17v-.44a6.93,6.93,0,0,1,3.17-5,14.83,14.83,0,0,1,2.18-1.2c.51-.29.92-.51,1.21-.66a2.84,2.84,0,0,0-1.21-2.18,3.6,3.6,0,0,0-2.07.21q-2.42,1.22-5.25,5.8a4.3,4.3,0,0,0-.44.66l-2.74-1.21a49.25,49.25,0,0,0,5.91-10H337l-.77-2.62v-.22a15,15,0,0,0,2.3.22h2.73a1.55,1.55,0,0,0,.11-.44,8.68,8.68,0,0,0,.77-3.5Z"/><path d="M371.57,262.6l-2.19,2.19-5.9-6.45,2.08-1.86Z"/><path d="M392.35,248.6q-2-1.42-4.15-2.73l1.31-2c1.24.65,2.66,1.46,4.27,2.4ZM390.6,260v-2.19h9.3v-1.53h3v1.53h9.52V260h-9.52v2.29h11.71v2.3H388.31v-2.3H399.9V260Zm.66-3.39-2.41-1.32q1.86-3.06,3.5-6.23a15.49,15.49,0,0,0,1.53.76,4.71,4.71,0,0,0,.88.44C393.81,251.85,392.64,254,391.26,256.59Zm3.17-12.47c-.65-.44-1.6-1-2.84-1.75a13.38,13.38,0,0,1-1.42-.88l1.42-2.08q2.07,1.09,4.37,2.52Zm.55,12c-.37-.66-.77-1.31-1.2-2a33.87,33.87,0,0,0,5.68-3l1.42,1.64Q397.61,254.84,395,256.15Zm4.26-9.41v-1.42c-.29.15-.76.37-1.42.66a19.47,19.47,0,0,1-1.86.76c-.51-.8-1-1.57-1.42-2.29a22.82,22.82,0,0,0,9.19-5.36l2.95.32-.65.66a27.16,27.16,0,0,0,8.53,4.16l-.33.54a16.13,16.13,0,0,0-1,1.86,1.26,1.26,0,0,0-.43-.22,21.13,21.13,0,0,1-3-1.31v1.64h-3.93v1.86H413v2.19h-7.11v2.3q.1,3.16-2.85,3.06c-.95.07-2,.11-3.06.11a11.4,11.4,0,0,0-.44-2.08c.88.07,1.68.11,2.41.11a1.16,1.16,0,0,0,1.31-1.31v-2.19h-7.55V248.6h7.55v-1.86Zm5.25-5.14a19.56,19.56,0,0,1-4.48,3.17h9.3A23.65,23.65,0,0,1,404.49,241.6Zm8.32,14.55a29,29,0,0,0-3.28-1.75c-.95-.44-1.68-.8-2.19-1.1l1.2-1.75a1,1,0,0,0,.44.22,52.55,52.55,0,0,1,5.14,2.41Z"/><path d="M424.73,248.82v.55a6.38,6.38,0,0,0,.44,2.62h.21l1.1-1.75h.33l1.2,1.1c-.15.29-.33.69-.55,1.2a10.93,10.93,0,0,0-1.2,4.26v.44a15.56,15.56,0,0,1-2.63.22,9,9,0,0,1-1.09-2.84,17.73,17.73,0,0,1-.66-4.92v-.88a29,29,0,0,1,.44-4,22.31,22.31,0,0,0,.44-3.61c1.09.08,2.15.19,3.17.33a22.11,22.11,0,0,0-.55,2.3A26.78,26.78,0,0,0,424.73,248.82Zm7.65-7.66,3.61-.32.22.11a11.73,11.73,0,0,0,.22,3.71,4.51,4.51,0,0,0,.22,1.21A37.66,37.66,0,0,1,437,250v1.75a16.11,16.11,0,0,1-1.2,6.68,16.39,16.39,0,0,1-4.6,6.67q-.1.21-.33,0l-2.51-1.21-.11-.21a17.72,17.72,0,0,0,3.94-4.71,16.26,16.26,0,0,0,1.75-7.54v-2.08A19.72,19.72,0,0,0,432.38,241.16Z"/><path d="M455.46,253.09c-.43-.37-1.2-1-2.29-1.75l-1.75-1.43a9.68,9.68,0,0,1-3.72,3.5h19.58v12.14h-2.85v-1.31H450.32v1.31h-2.84v-12c-.66.3-1.35.62-2.08,1a8,8,0,0,0-1.09-1.86,3.68,3.68,0,0,0-.33-.44c3.21-1.24,5.1-2.62,5.69-4.16h-5.25v-2.18h5.79V244h-5.14v-2.08h5.14l.11-2.52H453l-.11,2.52h3.72V244h-3.83v1.86h4v2.18h-4.16c1.31.81,2.77,1.79,4.37,3,2.56-.95,4.05-1.93,4.49-3h-3.61v-2.18H462v-.55a4.8,4.8,0,0,0,.1-.87V244h-4v-2.08h4v-2.52h2.63l-.11,2.52h5V244h-5l-.11,1.53v.33h5.69v2.18H465q1.31,2.52,5.69,3.72c-.44.73-.88,1.53-1.32,2.41q-4.59-1.86-6-4.59-.88,1.86-4.92,3.61A15.62,15.62,0,0,0,457,251Zm-5.14,2.51v2.3h14.11v-2.3Zm0,4.27v2.29h14.11v-2.29Z"/><path d="M476.46,248.71H477a30.24,30.24,0,0,0,5.8-.55,11.54,11.54,0,0,0,3.72-.76c.36-.15.58-.29.65-.44h.22l2.52,1.53c.14.08.18.22.11.44V249a17.64,17.64,0,0,0-3.5,3.72l-1.32,1.64H486a3.43,3.43,0,0,1,2.08.65,4.47,4.47,0,0,1,.76,2.19,7,7,0,0,1,.22,1,14.16,14.16,0,0,0,.44,2,1.67,1.67,0,0,0,1.53,1.42h1.31a16.16,16.16,0,0,0,3.94-.55V264a29.21,29.21,0,0,1-3.5.22h-2.3a3.47,3.47,0,0,1-3.06-1.42,9.37,9.37,0,0,1-1.09-3.28,1.9,1.9,0,0,0-.11-.55,8.35,8.35,0,0,0-.22-1.09,1.62,1.62,0,0,0-1.42-1,3,3,0,0,0-2.3,1.32,58,58,0,0,0-4.7,6h-.22a22.66,22.66,0,0,0-2.74-1.75v-.11a87.5,87.5,0,0,0,7.66-8.42,19.83,19.83,0,0,0,2.62-3.72l-.1-.22a11.41,11.41,0,0,1-3.29.88,14.16,14.16,0,0,0-2.51.65,1.12,1.12,0,0,0-.55.22c-.22.22-.4.3-.55.22Zm7-8.75h.22a35.79,35.79,0,0,0,5.36,2.52,1.43,1.43,0,0,0,.33.22.82.82,0,0,1,.55.32l-.88,2.3-.33.11a34.63,34.63,0,0,1-6.45-3.06v-.22C482.62,241.49,483,240.76,483.46,240Z"/><path d="M503.59,241.49l3.83,1.21a6.74,6.74,0,0,1-.55,1.42q-.22.54-.33.87a22,22,0,0,0-1.75,8.64v.88a10.38,10.38,0,0,0,1.09,5H506c.15-.29.33-.69.55-1.2a8.28,8.28,0,0,0,.55-1.1l1.2.22q-.1.56-.33,1.53a18.19,18.19,0,0,0-.54,3.5v.66l-2.63.55a10.18,10.18,0,0,1-2-4.27,23.89,23.89,0,0,1-.54-5.58v-1.2a28.92,28.92,0,0,1,.87-7,15.82,15.82,0,0,0,.44-3.61ZM517.37,259h1a23.19,23.19,0,0,0,6.13-.87l.11,2.95a15.23,15.23,0,0,1-5,.77h-1.21c-3.42,0-6-.81-7.76-2.41a3,3,0,0,1-.88-1.31l2-1.21A7.45,7.45,0,0,0,517.37,259Zm.11-15.09h1.2a39.75,39.75,0,0,1,4.27.22V247c-.51,0-1.21,0-2.08-.11s-1.53-.11-2-.11h-1.2a21.86,21.86,0,0,0-3.07.33,17.56,17.56,0,0,1-2.84.33l-.22-3a21.91,21.91,0,0,0,2.52-.22A26.48,26.48,0,0,1,517.48,243.9Z"/><path d="M531,265.45V251.88a22,22,0,0,1-2.3,3.5,22,22,0,0,0-.43-2.29c-.08-.66-.15-1.17-.22-1.54a45.21,45.21,0,0,0,5-12.14l2.84.66a46.44,46.44,0,0,1-2.18,6.34v19Zm22.2-.22q-7.22-.76-10.5-2.63a25.16,25.16,0,0,1-6.34,3.06,8.71,8.71,0,0,1-.77-1c-.43-.66-.8-1.17-1.09-1.53a23.15,23.15,0,0,0,5.69-2,16,16,0,0,1-3.17-3.5l2-1.42a16.13,16.13,0,0,0,3.17,3.17,7.87,7.87,0,0,0,1.2-3.72h-6.78V247.4h7V245H536v-2.51h7.66v-3.07h3v3.07h7.88V245h-8v2.41h7v8.86h-2.84v-.55h-4.38a10,10,0,0,1-1.64,5.14c2,.95,5.33,1.5,9.85,1.64C554,263.44,553.61,264.35,553.24,265.23Zm-9.73-11.93V253a1,1,0,0,0,.11-.44V249.7h-4.16v3.6Zm3-.65v.65h4.16v-3.6h-4.16Z"/><path d="M560.46,248.71H561a30.24,30.24,0,0,0,5.8-.55,11.54,11.54,0,0,0,3.72-.76c.36-.15.58-.29.65-.44h.22l2.52,1.53c.14.08.18.22.11.44V249a17.64,17.64,0,0,0-3.5,3.72l-1.32,1.64H570a3.43,3.43,0,0,1,2.08.65,4.47,4.47,0,0,1,.76,2.19,7,7,0,0,1,.22,1,14.16,14.16,0,0,0,.44,2,1.67,1.67,0,0,0,1.53,1.42h1.31a16.16,16.16,0,0,0,3.94-.55V264a29.21,29.21,0,0,1-3.5.22h-2.3a3.47,3.47,0,0,1-3.06-1.42,9.37,9.37,0,0,1-1.09-3.28,1.9,1.9,0,0,0-.11-.55,8.35,8.35,0,0,0-.22-1.09,1.62,1.62,0,0,0-1.42-1,3,3,0,0,0-2.3,1.32,58,58,0,0,0-4.7,6h-.22a22.66,22.66,0,0,0-2.74-1.75v-.11a87.5,87.5,0,0,0,7.66-8.42,19.83,19.83,0,0,0,2.62-3.72l-.1-.22a11.41,11.41,0,0,1-3.29.88,14.16,14.16,0,0,0-2.51.65,1.12,1.12,0,0,0-.55.22c-.22.22-.4.3-.55.22Zm7-8.75h.22a35.79,35.79,0,0,0,5.36,2.52,1.43,1.43,0,0,0,.33.22.82.82,0,0,1,.55.32l-.88,2.3-.33.11a34.63,34.63,0,0,1-6.45-3.06v-.22C566.62,241.49,567,240.76,567.46,240Z"/><path d="M589.12,242.91h1.53a25.78,25.78,0,0,0,8.09-1.09,1,1,0,0,0,.44-.11,1.77,1.77,0,0,1,.66-.22H600l2.84,2.3v.11a11,11,0,0,0-2.51,2.4c-.37.44-.95,1.14-1.75,2.08s-1.43,1.57-1.86,2.08a12.52,12.52,0,0,0,1.31-.11,9.57,9.57,0,0,1,1.2-.11h.55a7.82,7.82,0,0,1,4.81,1.75,6,6,0,0,1,2.08,4.71V257a6.48,6.48,0,0,1-3.28,5.36,9.77,9.77,0,0,1-5.47,1.64h-.44q-5-.43-5.36-3.72v-.43q.33-2.85,3.72-3.17h.55c1.82,0,3.61,1.16,5.36,3.5a4.76,4.76,0,0,0,1.75-3.4v-.54q-.33-3.06-4.05-3.39h-.55a9.31,9.31,0,0,0-7.32,3.83.31.31,0,0,1-.11.21,1.84,1.84,0,0,1-.55.55l-2.63-2v-.33a41,41,0,0,0,9.3-10.17,15.25,15.25,0,0,0-6,1.31c-.08,0-.15.08-.22.22a.84.84,0,0,1-.77.22l-1.42-3.61Zm7.33,18.71H597a4.71,4.71,0,0,0,1.43-.22,1.51,1.51,0,0,0-.77-1.2,2.56,2.56,0,0,0-2.62-.88c-.66.37-.84.84-.55,1.42A2.32,2.32,0,0,0,596.45,261.62Z"/><path d="M627.29,244v2.84a32.84,32.84,0,0,1-4.81,1.2,46,46,0,0,1-5.69,12.15h-.33l-2.51-1-.11-.22a37.47,37.47,0,0,0,5.69-10.72,28.34,28.34,0,0,1-3.61.22l-.33-3h.87a21.18,21.18,0,0,0,2.41-.11,4.87,4.87,0,0,0,.87-.11h.66a16.22,16.22,0,0,0,.77-4.7V240a9.79,9.79,0,0,0,1.64.44,9.58,9.58,0,0,1,1.53.44,4.31,4.31,0,0,1-.33,1.42,3.33,3.33,0,0,0-.22,1,5.07,5.07,0,0,1-.11.88,6,6,0,0,1-.22.87A22.41,22.41,0,0,0,627.29,244Zm.22,4.7h.22l2.51.55a7.24,7.24,0,0,1-.11,1.31c0,1,.08,2.44.22,4.48.08,1.24.11,2.19.11,2.85a24.07,24.07,0,0,1,5.8,2.51v.33l-1.09,2.41a1.87,1.87,0,0,1-1.1-.55c-.14-.15-.25-.22-.33-.22a23.19,23.19,0,0,0-3.28-1.42,4.69,4.69,0,0,1-.33,1.86,2.17,2.17,0,0,1-.54.77,1.58,1.58,0,0,1-.22.32,4.65,4.65,0,0,1-3.61,1.21h-.66a4.85,4.85,0,0,1-3.72-1.42,3.33,3.33,0,0,1-.76-3.18,3.8,3.8,0,0,1,1.53-2.07,8.26,8.26,0,0,1,3.94-1h.76a4.22,4.22,0,0,1,1,.11C627.76,254.58,627.66,251.63,627.51,248.71Zm-1.64,11.16h-.44a2.48,2.48,0,0,0-2.19,1.09c-.29,1,.19,1.64,1.43,1.86h1c1.39-.07,2.11-.95,2.19-2.62A6.17,6.17,0,0,0,625.87,259.87Zm9.62-8.75h-.21a27.25,27.25,0,0,0-4.82-4.38l1.53-2.08h.22a48.1,48.1,0,0,1,3.83,3.07,2.36,2.36,0,0,1,1,1.2Z"/><path d="M664.7,256.37,666,259.1q.22.22,0,.33l-.77.77c-2.69,3.06-5.14,4.55-7.32,4.48h-.44a3.72,3.72,0,0,1-3.06-1.86,7.7,7.7,0,0,1-.88-3.61c-.07-.51-.18-1.27-.33-2.3s-.14-1.67-.22-2.18-.29-.91-.65-1a4.06,4.06,0,0,0-2.08.77,7,7,0,0,0-2.08,1.75,18.15,18.15,0,0,0-3.61,6.12l-.44.88a4.25,4.25,0,0,1-.43,1l-2.85-.76a66.76,66.76,0,0,1,5-10.39c1-1.83,1.79-3.21,2.3-4.16l1.31-2.3c.37-.65.66-1.16.88-1.53a5.67,5.67,0,0,0,.22-.55,12.7,12.7,0,0,0,1.53-3.93h.44l3.72,1.75v.33a24.56,24.56,0,0,0-3.61,4.26,36.54,36.54,0,0,0-2.3,3.94,11.91,11.91,0,0,0-1.31,2.08,1,1,0,0,1,.32-.22c.66-.37,1.13-.62,1.43-.77q3.39-1.43,4.59.66a5.45,5.45,0,0,1,.66,2.08V255a10.75,10.75,0,0,0,.11,1.42c.07,1.31.14,2.29.21,2.95a2.88,2.88,0,0,0,1.1,2.19,1.9,1.9,0,0,0,2.3,0,16.33,16.33,0,0,0,4.26-4.38A8.45,8.45,0,0,1,664.7,256.37Z"/><path d="M670.06,245.87h.32l9.52-2c4.16-.88,7.29-1.5,9.41-1.86,1.09-.22,2.18-.4,3.28-.55l.22,3.17h-.66c-3.35,0-5.87.92-7.55,2.74a10.41,10.41,0,0,0-2.84,7.33v.43a5.77,5.77,0,0,0,1.53,4.27c1,1.09,2.63,1.6,4.81,1.53H690v3.28h-1.64a10.24,10.24,0,0,1-6.89-2.4,8.61,8.61,0,0,1-2.3-6.35V254.4q0-4.28,3.5-8.53c-.94.22-2.4.58-4.37,1.09-1,.22-1.68.4-2.19.55l-1,.33a12.29,12.29,0,0,0-3.28,1.2Z"/><path d="M707.57,262.6l-2.19,2.19-5.9-6.45,2.08-1.86Z"/><path d="M202.48,313c-.15-.81-.33-1.68-.55-2.63h6.24c1.67.07,2.55-.43,2.62-1.53a11.36,11.36,0,0,0,.22-2.3h-12.8l.66-3.28q-2.73,1.43-5.69,2.74a29.44,29.44,0,0,0-1.2-2.74,78.59,78.59,0,0,0,11.59-5.47h-11v-2.4h9.08v-2.85h-7v-2.4h7v-2.74h2.85v2.74h6v2.4h-6v2.85h2.84a82.86,82.86,0,0,0,7.44-6.56l2.29,1.75c-1.82,1.67-3.68,3.28-5.57,4.81h7v2.4H208.06c-.95.66-2,1.32-3.07,2H216.7v2.41H201.93l-.44,2.08h12.8c-.07.51-.15,1.27-.22,2.29-.15,1.32-.25,2.23-.33,2.74q-.21,3.72-4.59,3.61Q207.83,313,202.48,313Z"/><path d="M224.46,296.71H225a30.24,30.24,0,0,0,5.8-.55,11.42,11.42,0,0,0,3.71-.76c.37-.15.59-.29.66-.44h.22l2.52,1.53c.14.08.18.22.1.44V297a18.17,18.17,0,0,0-3.5,3.72l-1.31,1.64H234a3.43,3.43,0,0,1,2.08.65,4.58,4.58,0,0,1,.76,2.19,7,7,0,0,1,.22,1,14.16,14.16,0,0,0,.44,2,1.67,1.67,0,0,0,1.53,1.42h1.31a16.16,16.16,0,0,0,3.94-.55V312a29.21,29.21,0,0,1-3.5.22h-2.3a3.47,3.47,0,0,1-3.06-1.42,9.37,9.37,0,0,1-1.09-3.28,1.9,1.9,0,0,0-.11-.55,8.35,8.35,0,0,0-.22-1.09,1.62,1.62,0,0,0-1.42-1,3,3,0,0,0-2.3,1.32,58,58,0,0,0-4.7,6h-.22a22.66,22.66,0,0,0-2.74-1.75v-.11a87.5,87.5,0,0,0,7.66-8.42,19.83,19.83,0,0,0,2.62-3.72l-.11-.22a11.23,11.23,0,0,1-3.28.88,14.16,14.16,0,0,0-2.51.65,1.12,1.12,0,0,0-.55.22c-.22.22-.4.3-.55.22Zm7-8.75h.22a35.79,35.79,0,0,0,5.36,2.52,1.43,1.43,0,0,0,.33.22.82.82,0,0,1,.55.32l-.88,2.3-.33.11a34.63,34.63,0,0,1-6.45-3.06v-.22Z"/><path d="M258.15,288.29h.22l3.28.87v.33a2.6,2.6,0,0,0-1.09,1.75,10.63,10.63,0,0,0-.66,1.86,3.58,3.58,0,0,1-.22.66l3.61-.66a3.08,3.08,0,0,0,.77-.22l.21.11v2.85c-1.75.29-3.5.51-5.25.65a3,3,0,0,1-.1.55c.07-.15,0-.07-.11.22a63.58,63.58,0,0,1-5.8,15l-2.95-.87-.11-.22a89.37,89.37,0,0,0,6.34-14.55,17.05,17.05,0,0,1-2.19.11c-.95.07-1.68.11-2.18.11l-.22-.11-.44-2.62.11-.22a12.71,12.71,0,0,1,1.42.11,12.31,12.31,0,0,0,1.31.11H255c.65,0,1.35,0,2.08-.11a3.7,3.7,0,0,0,.21-.66,17.1,17.1,0,0,0,.88-4.37Zm14.77,20.12-.33,3.07a30.3,30.3,0,0,1-3.61.22h-1.1a23,23,0,0,1-4.81-.55,2,2,0,0,1-.44-.11c-.51,0-.83-.11-1-.33l-.11-2.51a7.44,7.44,0,0,0,1,.21,28.75,28.75,0,0,0,4.82.55h.54A23.36,23.36,0,0,0,272.92,308.41Zm-6.35-10.71h1c1.16,0,2.4,0,3.71.1l.11,3-.11.11a24.07,24.07,0,0,0-4.7-.66h-1.09a9,9,0,0,0-2.41.33l.44-2.74h1.42C265.66,297.73,266.21,297.7,266.57,297.7Z"/><path d="M288.56,307.21h2.29a35.48,35.48,0,0,0,8.1-1v3.5a46.11,46.11,0,0,1-8.43.65h-1.64a12.39,12.39,0,0,1-5.14-.87,13.15,13.15,0,0,1-3.82-2.85v-.32l1.85-1.64c.08-.15.11-.15.11,0a8.69,8.69,0,0,0,3.18,2.07A9.9,9.9,0,0,0,288.56,307.21Zm.54-15.31H290a25.7,25.7,0,0,0,5.14-.77c-.07,0,0,0,.33-.11v3.18c-1.53.14-3,.21-4.49.21h-2.51A43.5,43.5,0,0,1,284,294l-.22-.11-.65-3.07.11-.1a8,8,0,0,0,.87.21A19.07,19.07,0,0,0,289.1,291.9Z"/><path d="M323.67,293l2.4,2.74V296a39.67,39.67,0,0,0-10.61,4.48,13.2,13.2,0,0,0-3.39,3.28,3.77,3.77,0,0,0-.65,1.86V306a3.37,3.37,0,0,0,2.07,2.95,8.49,8.49,0,0,0,3.72.66H318a22.68,22.68,0,0,0,6.34-.88l.22,3.28c-1.9.15-3.72.22-5.47.22h-1.64a10.06,10.06,0,0,1-5.8-1.2,5.43,5.43,0,0,1-2.84-4.92v-.55c.07-2.48,1.57-4.74,4.48-6.78a1.06,1.06,0,0,1,.55-.44,44,44,0,0,0-3.5-9.19l2.95-.54a63.13,63.13,0,0,1,3.29,8.2l3.93-2A13.13,13.13,0,0,0,323.67,293Z"/><path d="M342.48,287.74h.44l3.17.88v.22a1.61,1.61,0,0,0-.55.87q-.23.44-.33.66c-.29.95-.54,1.93-.76,2.95a1,1,0,0,1-.11.33c-.08.22-.15.4-.22.55h2.08a12.1,12.1,0,0,0,1.86-.22,2.61,2.61,0,0,1,.65-.11l-.54,2.73a.49.49,0,0,1-.33.11h-4.27c-.07.51-.15,1.2-.22,2.08L343,301.2a18.29,18.29,0,0,0,5.25.1v.44l-.43,2.19a.49.49,0,0,1-.33.11h-2.3c-.8,0-1.64,0-2.51-.11v.77a2.84,2.84,0,0,0-.11.76v1.09a4.08,4.08,0,0,0,1.09,2.85,4,4,0,0,0,2.52,1h.65a4.64,4.64,0,0,0,3.17-1.09,4.5,4.5,0,0,0,1.1-3v-.44c0-1.24-.7-2.95-2.08-5.14a2.86,2.86,0,0,0-.33-.55l3.17-.22a9.43,9.43,0,0,1,2.41,6.13v.54a6.35,6.35,0,0,1-2.3,4.82,6.76,6.76,0,0,1-4.81,1.64h-.66a6.86,6.86,0,0,1-4.7-1.86q-1.76-1.42-1.75-4.92v-1.1a14.82,14.82,0,0,1,.11-1.75,17.22,17.22,0,0,0-1.75-.54,10.34,10.34,0,0,0-1.86-.55l.22-2.74a15.84,15.84,0,0,0,3.72,1.1v-.55a15.38,15.38,0,0,0,.44-2c.14-.8.25-1.42.32-1.86-.87-.22-1.67-.43-2.4-.65s-.88-.19-.88-.33l.22-2.74a22,22,0,0,0,3.39,1q.11-.33.33-1.2a7.12,7.12,0,0,1,.22-1.1,5,5,0,0,1,.11-.76,14.28,14.28,0,0,0,.22-2.08Z"/><path d="M365.56,293.21h1.64c.36,0,.94,0,1.75-.11h.87a2,2,0,0,1,.11-.55,25.05,25.05,0,0,0,.22-2.84,7.14,7.14,0,0,0-.11-1.09h.55a13.17,13.17,0,0,1,1.53.11,12.31,12.31,0,0,0,1.31.11,1.64,1.64,0,0,1-.22,1.09,1.12,1.12,0,0,0-.22.55,4.41,4.41,0,0,1-.22,1.09,7.6,7.6,0,0,1-.21,1.2,3.74,3.74,0,0,0,1.2-.22,29.08,29.08,0,0,0,4.92-1.09v2.74q-3,.65-6,1.2h-.55c-.07.73-.15,1.6-.22,2.62a18.41,18.41,0,0,1,3.39-.65,1.9,1.9,0,0,1,.11-.44v-.66c-.07-.14,0-.29.22-.43l2.62.43.11.22-.11.11a8.28,8.28,0,0,0-.32.88,7.17,7.17,0,0,1,4.37,1.64,8.19,8.19,0,0,1,2.52,5.36v.76c-.08,2.63-1.5,4.81-4.27,6.56a5.28,5.28,0,0,1-2.62,1.1h-.11a11.65,11.65,0,0,0-2.41-2.08,8.62,8.62,0,0,0,4.7-1.75,5.64,5.64,0,0,0,2.08-4.05v-.32a5.39,5.39,0,0,0-2.3-4.27,4.12,4.12,0,0,0-1.2-.44h-.22a4.4,4.4,0,0,0-1.2-.33,25.62,25.62,0,0,1-4.7,8,16.25,16.25,0,0,0,.76,2c-.22.07-.58.22-1.09.43a3.29,3.29,0,0,1-1.21.33c-.21,0-.4-.22-.54-.65a2.21,2.21,0,0,1-1.21.65,6.53,6.53,0,0,1-4,1.64h-.44q-2.52-.11-2.73-3.72v-.43q.1-3.18,3.17-6.46a14.49,14.49,0,0,1,4-2.51c0-.44,0-1.13.11-2.08a9,9,0,0,1,.11-1.09h-1.64c-.8.07-1.42.11-1.86.11h-1.64c-.22,0-.33,0-.33-.11a3,3,0,0,1-.65-1.53v-.11c-.22-.44-.26-.77-.11-1C364.06,293.17,364.83,293.21,365.56,293.21Zm4.15,14-.11-.33a45.5,45.5,0,0,1-.33-5.47,9.73,9.73,0,0,0-4,4.16,3.86,3.86,0,0,0-.66,2.19c.07,1.09.55,1.64,1.42,1.64a4.33,4.33,0,0,0,2.74-1.2A6.12,6.12,0,0,1,369.71,307.21Zm2.19-7v2.63a6.78,6.78,0,0,0,.11,2,18.78,18.78,0,0,0,2.84-5.25c-1.24.22-2.11.41-2.62.55A.47.47,0,0,1,371.9,300.21Z"/><path d="M396.73,296.82v.55a6.38,6.38,0,0,0,.44,2.62h.21l1.1-1.75h.33l1.2,1.1c-.15.29-.33.69-.55,1.2a10.93,10.93,0,0,0-1.2,4.26v.44a15.56,15.56,0,0,1-2.63.22,9,9,0,0,1-1.09-2.84,17.73,17.73,0,0,1-.66-4.92v-.88a29,29,0,0,1,.44-4.05,22.31,22.31,0,0,0,.44-3.61c1.09.08,2.15.19,3.17.33a22.11,22.11,0,0,0-.55,2.3A26.78,26.78,0,0,0,396.73,296.82Zm7.65-7.66,3.61-.32.22.11a11.73,11.73,0,0,0,.22,3.71,4.51,4.51,0,0,0,.22,1.21A37.66,37.66,0,0,1,409,298v1.75a16.11,16.11,0,0,1-1.2,6.68,16.39,16.39,0,0,1-4.6,6.67q-.1.21-.33,0l-2.51-1.21-.11-.21a17.72,17.72,0,0,0,3.94-4.71,16.26,16.26,0,0,0,1.75-7.54v-2.08A19.72,19.72,0,0,0,404.38,289.16Z"/><path d="M428.78,288.4l3.39.33.11.11a4.11,4.11,0,0,0-.44.87,1.34,1.34,0,0,1-.22.44v.44c-.07.58-.15,1.24-.22,2,.8-.07,1.93-.21,3.39-.43a14.19,14.19,0,0,0,1.42-.22l-.22,2.51a27,27,0,0,1-4.59.55,10.25,10.25,0,0,1,.11,1.75c.07.73.11,1.31.11,1.75h.22a22.29,22.29,0,0,0,4.81-.76l-.44,2.51a18.58,18.58,0,0,1-4.37.77q.11,2.5.33,5.25a19.16,19.16,0,0,1,6.12,3.39l-1.31,2a17.9,17.9,0,0,0-4.7-2.52,3.52,3.52,0,0,1-2.19,3.17,7.13,7.13,0,0,1-3.39.66h-1a5.48,5.48,0,0,1-4-1.42,3,3,0,0,1-.88-3.61,4.39,4.39,0,0,1,2.08-1.75,11.06,11.06,0,0,1,3.72-.66h1.09a8.81,8.81,0,0,1,1.64.22c-.44-.15-.36-.15.22,0a28,28,0,0,0-.22-2.95c-.07-.66-.11-1.17-.11-1.53h-2.29A37,37,0,0,1,423,301l-.22-.11-.55-2.41v-.22a10.6,10.6,0,0,0,1.1.22,19.77,19.77,0,0,0,3.06.33h2.73c0-1.09,0-2.37-.11-3.83h-.65c-1.9,0-3.72-.07-5.47-.22l-.22-.11-.66-2.51a15,15,0,0,1,2.19.22,27.11,27.11,0,0,0,2.74.21H429v-1.2A25.5,25.5,0,0,0,428.78,288.4Zm-2.41,19.14h-.66c-1.67.15-2.55.76-2.62,1.86.07.44.44.76,1.09,1a13.82,13.82,0,0,0,1.64.11h.66a4.66,4.66,0,0,0,2.4-.44,2.18,2.18,0,0,0,.77-1.75v-.43a9.48,9.48,0,0,1-1.09-.11A17,17,0,0,0,426.37,307.54Z"/><path d="M444.53,297.48l.21-.22a14,14,0,0,0,1.64.11H447a19.65,19.65,0,0,0,2.08-.11,17.39,17.39,0,0,1,2.41-.22v-2.3a8.06,8.06,0,0,0-.55-3.5l3.72.22a.82.82,0,0,1-.11.66l-.11.11a11.33,11.33,0,0,0-.22,2.29v2.19a5,5,0,0,0,1.42-.11c.58-.07,1.5-.14,2.74-.22s2.15-.22,2.73-.22v-.76c.07-.73.11-1.24.11-1.53V292a8.06,8.06,0,0,0-.44-2.52h.33a19.66,19.66,0,0,0,3.06.22l.11.11c0,.51,0,1.5-.11,2.95-.14,2.05-.22,3.1-.22,3.18a12,12,0,0,0,2-.11,37,37,0,0,0,3.94-.22l.44,3.28a10.05,10.05,0,0,0-3-.44h-1.53c-.43,0-1.13,0-2.07.11v.88a14.36,14.36,0,0,1-.77,4c-.44,1.31-1.2,2-2.3,2h-.33a4.36,4.36,0,0,1-1.42-.22v-2.62h.55c.58,0,.95-.48,1.09-1.42a9.37,9.37,0,0,0,.44-2.08v-.33c-1.68.07-3.17.15-4.48.22-.51.07-1.28.14-2.3.22q0,4.69.22,6.78c.07,1.53.73,2.33,2,2.4H461a25.45,25.45,0,0,0,5.14-.54v2.95c-.44,0-1.06,0-1.86.11-1.6.15-2.84.22-3.72.22h-1.42a10.84,10.84,0,0,1-4.59-.55c-1.53-.36-2.45-1.49-2.74-3.39a14,14,0,0,1-.32-3.61v-4.15a48.22,48.22,0,0,0-5.15.87,1.71,1.71,0,0,1-1,.22Z"/><path d="M496.7,304.37,498,307.1q.23.22,0,.33l-.77.77c-2.69,3.06-5.14,4.55-7.32,4.48h-.44a3.72,3.72,0,0,1-3.06-1.86,7.7,7.7,0,0,1-.88-3.61c-.07-.51-.18-1.27-.33-2.3s-.14-1.67-.22-2.18-.29-.91-.65-1a4.06,4.06,0,0,0-2.08.77,7,7,0,0,0-2.08,1.75,18.15,18.15,0,0,0-3.61,6.12l-.44.88a4.25,4.25,0,0,1-.43,1l-2.85-.76a66.76,66.76,0,0,1,5-10.39c1-1.83,1.79-3.21,2.3-4.16l1.31-2.3c.37-.65.66-1.16.88-1.53a5.67,5.67,0,0,0,.22-.55,12.7,12.7,0,0,0,1.53-3.93h.44l3.72,1.75v.33a24.56,24.56,0,0,0-3.61,4.26,36.54,36.54,0,0,0-2.3,3.94,11.91,11.91,0,0,0-1.31,2.08,1,1,0,0,1,.32-.22c.66-.37,1.13-.62,1.43-.77q3.39-1.42,4.59.66a5.45,5.45,0,0,1,.66,2.08V303a10.75,10.75,0,0,0,.11,1.42c.07,1.31.14,2.29.21,2.95a2.88,2.88,0,0,0,1.1,2.19,1.9,1.9,0,0,0,2.3,0,16.33,16.33,0,0,0,4.26-4.38A8.45,8.45,0,0,1,496.7,304.37Z"/><path d="M499.87,293.87h.66a14.77,14.77,0,0,0,3.28-.55l1.31-.33c1.38-.36,2.73-.69,4.05-1q3.6-.88,7.11-1.53a21.7,21.7,0,0,0,4.37-1,3.34,3.34,0,0,0,.33,1.21,3.72,3.72,0,0,1,.22,1.64l-1.53.32a7.57,7.57,0,0,0-3.72,1.21,8.6,8.6,0,0,0-3.17,4.7,15.34,15.34,0,0,0-.66,3.83v.65a5.79,5.79,0,0,0,1.64,4.27A6.41,6.41,0,0,0,518,309h.54a6.94,6.94,0,0,0,1.75-.22V312h-.87a12.76,12.76,0,0,1-6.89-1.86,8.57,8.57,0,0,1-3.28-6.89v-.54q0-4.28,3.39-9-4.38,1.1-8.75,2.4a3.08,3.08,0,0,1-.77.22,3,3,0,0,0-1.53.88l-1.75-3.06ZM520,295.4l1.54-1.42c.21.22.51.54.87,1a16.64,16.64,0,0,1,1.75,2l-1.53,1.31A17.33,17.33,0,0,0,520,295.4Zm3-2.19,1.53-1.31a18.17,18.17,0,0,1,2.51,2.84l-1.64,1.31A23.4,23.4,0,0,0,523,293.21Z"/><path d="M533.45,288.62h.22l3.5.65c-.08.44-.19.92-.33,1.43v15.09a5.1,5.1,0,0,0,.65,2.95,3,3,0,0,0,2.3,1.1h.66a4.17,4.17,0,0,0,1.86-.44,11.32,11.32,0,0,0,2.51-1.2,12.1,12.1,0,0,0,3.06-2.74h.22l1.32,2.52c.14.14.14.22,0,.22a13.49,13.49,0,0,1-4.6,3.28,9.84,9.84,0,0,1-4.81,1.2h-.33a6.46,6.46,0,0,1-3.61-1.09,4.32,4.32,0,0,1-2.19-3.18c-.07-1-.1-2.07-.1-3.17V290.91a6.46,6.46,0,0,0-.22-1.31A5.73,5.73,0,0,1,533.45,288.62Z"/><path d="M566.15,288.29h.22l3.28.87v.33a2.63,2.63,0,0,0-1.09,1.75,10.63,10.63,0,0,0-.66,1.86,3.58,3.58,0,0,1-.22.66l3.61-.66a3,3,0,0,0,.77-.22l.22.11v2.85c-1.75.29-3.5.51-5.25.65a3.5,3.5,0,0,1-.11.55l-.11.22a63.58,63.58,0,0,1-5.8,15l-3-.87-.11-.22a89.37,89.37,0,0,0,6.34-14.55,17.05,17.05,0,0,1-2.19.11c-.94.07-1.67.11-2.18.11l-.22-.11-.44-2.62.11-.22a12.71,12.71,0,0,1,1.42.11,12.31,12.31,0,0,0,1.31.11H563c.65,0,1.35,0,2.08-.11a4.55,4.55,0,0,0,.22-.66,17.43,17.43,0,0,0,.87-4.37Zm14.77,20.12-.33,3.07a30.3,30.3,0,0,1-3.61.22h-1.1a23,23,0,0,1-4.81-.55,2,2,0,0,1-.44-.11c-.51,0-.83-.11-1-.33l-.11-2.51a7.3,7.3,0,0,0,1,.21,28.55,28.55,0,0,0,4.81.55h.54A23.36,23.36,0,0,0,580.92,308.41Zm-6.35-10.71h1c1.16,0,2.4,0,3.72.1l.1,3-.1.11a24.25,24.25,0,0,0-4.71-.66h-1.09a9.09,9.09,0,0,0-2.41.33l.44-2.74h1.42C573.66,297.73,574.21,297.7,574.57,297.7Z"/><path d="M587.48,308.74a4.39,4.39,0,0,1,4.48-4.48q4,.33,4.38,4.48-.44,3.72-4.38,4.16Q587.91,312.57,587.48,308.74Zm1.75,0c.14,1.46,1.06,2.26,2.73,2.41a2.54,2.54,0,0,0,2.63-2.41A2.66,2.66,0,0,0,592,306,2.7,2.7,0,0,0,589.23,308.74Z"/></g></g></svg>