<svg id="レイヤー_1" data-name="レイヤー 1" xmlns="http://www.w3.org/2000/svg" viewBox="0 0 759.89 428.94"><g id="レイヤー_2" data-name="レイヤー 2"><g id="_4" data-name=" 4"><path d="M637.18,426.23c-5.6-2.7-9.6-7.9-14.2-12-5-4.5-11-7.6-15.5-12.8-9-10.3-15.5-25.4-12.8-39.2,2.5-12.6,9.9-24.5,21-31.3a119.46,119.46,0,0,1,21.5-9.8c8.2-2.9,15.9-7,23.9-10.3,7.3-2.9,14.5-5.9,21.9-8.7,8.3-3.1,15.3-7.9,22.7-12.6a103.92,103.92,0,0,0,19.9-15.6c7.4-7.6,15.1-15,19.3-24.9,7.3-17.1,12.6-36.3,11.6-55.1a180.79,180.79,0,0,0-2.7-22c-1.7-9.7-5.2-18.4-7.9-27.8-2.1-7.5-3.6-14-7.5-20.9-4.5-8-9.9-15.1-15.6-22.3-5.1-6.4-9.9-12.7-16.4-17.8-7.1-5.6-13.5-12.4-20.9-17.6-13.1-9.2-29.2-15.9-43.7-22.6-7-3.2-13.9-7.3-21.5-9.4-8.3-2.2-16.8-4.1-25.1-6.2-7.6-1.9-14.7-5.7-22.4-7.2a245,245,0,0,0-25.6-3.4c-8-.8-15.2-3.3-23.1-4.6-8.4-1.4-17.2-1.7-25.7-2.1-16.4-.9-32.8-1.2-49.3-1.7s-32.7.4-49.1.6c-8.9.1-17.5.3-26.4,1.2-7.4.7-14.8-.3-22.2,0-8.2.3-16.1,1.6-24.3,1.6s-16.3-.1-24.3.1c-33.1.8-66.3,5.4-98.9,10.9-32,5.4-63.1,15.2-93.9,25.3a133.25,133.25,0,0,0-22.3,9.7c-6.9,3.7-12.4,9.2-19.1,13a100.47,100.47,0,0,0-20.3,14.5c-6.7,6.3-12.1,13.5-18.1,20.4-12.4,14.2-17.9,32.5-21.4,50.7-1.5,7.5-2.2,15.2-3.6,22.7-1,5.4-2,10.1-1.4,15.5.5,4.4,1.5,8.8,1.8,13.2.7,8.5,1.4,16.4,3.7,24.7,2.5,8.8,7.1,16,11.1,24,3.3,6.6,6.5,12.7,11.3,18.5,6.2,7.5,13.3,13.4,20.3,20,5.5,5.2,10.2,9.9,16.8,13.6,7.8,4.3,15.4,8.8,23.4,12.8a234.39,234.39,0,0,0,45,17.5c7,1.9,13.7,4.9,20.8,6.4,8.7,1.8,17.4,3.3,26.1,5.2,16.6,3.6,33.5,6.1,50.4,6.1,7.9,0,15.2,2.7,23,3.1,9.2.5,18.4.5,27.7,1.2,7.8.6,15.3-1.4,23-1.2,8.5.1,17,.9,25.5.9,8.2,0,15.7-2,23.8-2.7,8.7-.7,17.5-.7,26.2-1.2,17.2-.8,34.4,0,51.7-.2,15.3-.2,31.2.6,46,5,14.5,4.3,25.7,13.9,37.1,23.3,12.2,10,28.8,17.7,43.9,22.3a302.27,302.27,0,0,0,49.6,10.6c11.9,1.5,23.9,1.7,35.8,3.4-1.1,2.6-2.1,5.3-3.2,7.9-1.1-1.3-5.8-2.1-7.4-2.7s1.6-8.5,3.2-7.9c1.8.7,6.3,1.3,7.6,2.7s-1.3,8.2-3.2,7.9c-12.7-1.9-25.5-2.1-38.2-3.7-17.3-2.2-35.7-5.8-52.1-12-14.9-5.6-30.3-12.7-42.2-23.4-11.4-10.3-24.8-18.9-40-22.1-16.4-3.5-32.4-3-49-3.4-17.7-.4-35.3,0-53,.8-17.4.8-34.3,3.9-51.7,3.4-4-.1-8.1-.8-12.1-.9-4.8-.1-9.4.7-14.2,1.2-7.4.7-14.7-.6-22.2-1-9.1-.4-17.6-.1-26.5-1.9s-17.9-.8-27-1.8c-17.6-2-34.6-6.4-52-9.3a129.72,129.72,0,0,1-22.3-5.5c-8-2.8-16.5-4-24.4-7-15.8-6.2-30.8-14.2-45.5-22.3C44.08,304.43,22,278.63,9,249,2.5,234.2,1.8,216.9.2,201c-.8-7.8,1.3-14.9,2.4-22.6,1.1-8,2.4-15.8,3.9-23.7C12.4,123.8,28.9,97.4,52,76.3A93.14,93.14,0,0,1,70.3,63.4c6.5-3.6,11.7-8.8,18.1-12.5,14.8-8.5,31.4-13.2,47.6-18.4,63.1-20,129.7-28.9,195.8-28.7,8.2,0,16.2-1.5,24.3-1.6,9.3-.2,18.3.2,27.6-.8,7.4-.7,14.8-.2,22.3-.4,9-.2,17.9-1.2,26.9-1,16.8.3,33.7,1.8,50.5,1.6,7.8-.1,15.6.4,23.4.9,9,.7,18.2.9,26.9,3.2,16.6,4.4,34.8,2.9,50.9,9.2,7.8,3,15.5,4.9,23.6,7.1,7.9,2.2,16.2,3.3,23.7,6.8,15.7,7.1,31.2,14.8,46.4,22.9a91.52,91.52,0,0,1,19.9,14.2c6.7,6.1,14.4,10.9,20.4,17.8,10.1,11.6,20.7,24.5,27,38.7,3.3,7.5,4.6,15.9,7.3,23.6a120.1,120.1,0,0,1,5.6,24.4c4.1,30.1-.6,62.5-16,89.2-3.6,6.2-8.6,11.1-13.5,16.3a123,123,0,0,1-18.6,16.8,217.19,217.19,0,0,1-20.8,13.4c-7.6,4.1-16.1,6.6-24.1,9.9-7.3,3-14.4,6-21.6,9.3-8.3,3.8-17.1,6.3-25.2,10.6-11.2,5.8-21.4,14.8-20.8,28.6.4,9,5.2,18.5,10.3,25.8,4.9,6.9,11.8,10.6,18,16.1,4.6,4.1,8.5,9.3,14.2,12C642,419,638.58,426.93,637.18,426.23Z"/></g></g><path d="M206.33,54.28V51.54H212c-.15-.51-.41-1.27-.77-2.29-.22-.66-.4-1.17-.55-1.53l3.07-.44c.14.44.4,1.13.76,2.08s.51,1.67.66,2.18h4v2.74h-1.64a40,40,0,0,1-2.51,9.84c.65,1,1.64,2.45,2.95,4.27a15.46,15.46,0,0,1,1.2,1.64l-2.4,1.64-1.64-2.3c-.73-1-1.28-1.82-1.64-2.4A29.33,29.33,0,0,1,208,73.31L205.89,71a23.94,23.94,0,0,0,5.91-6.67l-3-4.27c-.94-1.31-1.6-2.25-2-2.84l2.18-1.53,4.05,5.69a31.9,31.9,0,0,0,1.75-7.11Zm16.4,10.83c-1.24-2.63-2.33-4.74-3.28-6.35l2.41-1c1,1.68,2.15,3.75,3.39,6.23Zm-2.84-9.74V52.64h7.22V47.39h2.95v5.25h2.63v2.73h-2.63V69.48q.23,3.61-3.83,3.61h-1.85c-.95.07-1.68.11-2.19.11a5.9,5.9,0,0,1-.22-1c-.22-.81-.37-1.43-.44-1.86h3.61c1.39.07,2-.48,2-1.64V55.37Z"/><path d="M236,55.81c-.59-.58-1.2-1.2-1.86-1.86a27.46,27.46,0,0,0,8.31-6.67l3.28.33a8.51,8.51,0,0,1-1.53,1.75h10.72v2l-2.3,2.08h6.35v6.24h-1.86l1.53,2-4.16,2a10.87,10.87,0,0,0,6.35,6.68,10,10,0,0,0-1.42,1.53,2.4,2.4,0,0,0-.44.54,13,13,0,0,1-6.67-7.65c-.51.22-1.06.44-1.64.65a13.26,13.26,0,0,1,.43,3.4c0,3-1.42,4.48-4.26,4.48-1.24.07-2.52.11-3.83.11-.07-.29-.15-.69-.22-1.2s-.26-.92-.33-1.21a28.74,28.74,0,0,0,3.28.11c1.9.07,2.81-.73,2.74-2.4a3.39,3.39,0,0,0-.11-.77v-.66q-4.16,3.39-12.91,6c-.36-.73-.76-1.5-1.2-2.3A32.05,32.05,0,0,0,247.67,65a9.24,9.24,0,0,0-.54-.88.28.28,0,0,1-.11-.22,34.32,34.32,0,0,1-11.27,5,8.1,8.1,0,0,0-1.09-1.64,1.26,1.26,0,0,0-.22-.43,34.82,34.82,0,0,0,11.48-4.49,2.41,2.41,0,0,0-.44-.55,1.25,1.25,0,0,0-.43-.43q-3.06,1.86-9.85,3.39a10.09,10.09,0,0,0-1.09-2.19q7.21-1.1,9.73-3h-7.43v-4Zm3.28-.44v2.3h6.45a14.37,14.37,0,0,0,.77-2.3Zm12-3.94H242.2c-.73.66-1.53,1.32-2.4,2h9.29ZM247.13,60a28.38,28.38,0,0,1,2.62,3.17,73.91,73.91,0,0,0,7.11-3.5h-9.41Zm9.07-4.6h-6.78c-.22.88-.44,1.64-.65,2.3h7.43Z"/><path d="M269.44,67.4a29,29,0,0,0-2.08-2.4q7-3.51,6.67-10.18h-6.89V73.2h-2.95V52H274V47.5h3.17c0,1.67,0,3.17-.11,4.48h9.63V68.82q.11,4.05-3.94,4.16h-4.7a10.35,10.35,0,0,0-.66-2.84c1.39.07,2.74.11,4.05.11q2.29.1,2.19-2.19V54.82H277a13.7,13.7,0,0,1-.54,4q.44.33,1.2,1,4,3.16,5.8,4.81l-2.3,2.3c-1.38-1.39-3.32-3.18-5.8-5.36Q274,64.24,269.44,67.4Z"/><path d="M302.8,55.59h1.64a2.39,2.39,0,0,1,2.19.88,3.38,3.38,0,0,1,.65,2.07V59a24.15,24.15,0,0,1-1,6.45q-.89,3.84-3.07,4.93a7.41,7.41,0,0,1-3.71.76H299c-.22,0-.33,0-.33-.11-.15-.29-.33-.69-.55-1.2a13.52,13.52,0,0,0-.76-1.53v-.11a9.57,9.57,0,0,1,1.2.11,9.59,9.59,0,0,0,1.1.11h.43a2.32,2.32,0,0,0,2.08-1,6.81,6.81,0,0,0,1.09-2,.27.27,0,0,0,.11-.21,14.23,14.23,0,0,0,1-5.25v-.66c-.07-.8-.44-1.24-1.1-1.31a19.42,19.42,0,0,0-2.4.22,9.21,9.21,0,0,1-1.2.1,42,42,0,0,1-4.16,9,18.49,18.49,0,0,1-2.3,3.07,3,3,0,0,1-1.31-.55,4.16,4.16,0,0,0-.55-.33.35.35,0,0,1-.22-.11c-.43-.07-.69-.22-.76-.44a18.15,18.15,0,0,0,4.26-5.9c.73-1.46,1.43-2.88,2.08-4.27a8.41,8.41,0,0,0-3.17.88l-.11.11a1.38,1.38,0,0,1-.76.22l-1.54-3.18.11-.22a10.2,10.2,0,0,0,3.07,0,8.87,8.87,0,0,1,1.09-.1,7.19,7.19,0,0,1,2.08-.33c.14-.44.25-.8.33-1.1a14,14,0,0,0,.65-4.37V49.9a1,1,0,0,1-.11-.43c.29.07.7.14,1.21.21,1,.15,1.82.3,2.4.44a1.64,1.64,0,0,1-.44,1,.29.29,0,0,0-.1.21,4.76,4.76,0,0,0-.33,1.54,1.56,1.56,0,0,0-.11.54,6.66,6.66,0,0,1-.22,1.21c-.07.51-.15.91-.22,1.2A12.49,12.49,0,0,1,302.8,55.59Zm5.36-1.42v-.33a7,7,0,0,1,1-.77c.44-.36.77-.61,1-.76s.54.07,1,.66a16,16,0,0,1,2.08,2.29,48.49,48.49,0,0,1,3.39,4.49v.32L314,61.72A44.65,44.65,0,0,0,308.16,54.17Z"/><path d="M320.52,73.64q-1.09-1.53-1.86-2.52c4.44-1.6,6.89-4.19,7.32-7.76a9.91,9.91,0,0,0,.22-2.19h-4.15V58.76c-.73.66-1.53,1.31-2.41,2a5.58,5.58,0,0,0-.44-.66,21.71,21.71,0,0,0-1.2-2.18,26.33,26.33,0,0,0,9.08-10.28l2.73,1.2a30.78,30.78,0,0,1-7.33,9.62h17.61c-.07,1-.14,2.74-.21,5.14-.15,2.12-.22,3.61-.22,4.49q-.12,4.92-5.25,4.81h-4.27a18.37,18.37,0,0,0-.55-2.73h2c1.1.07,1.9.11,2.41.11,1.75.07,2.66-.84,2.73-2.74q.23-3.49.22-6.34h-7.65a9.57,9.57,0,0,1-.11,1.2c-.08.59-.15,1-.22,1.31Q328.51,70.25,320.52,73.64Zm22.53-13a24.41,24.41,0,0,1-10-12.25l2.63-1.09a19.46,19.46,0,0,0,9.08,10.39C344.51,58.25,343.92,59.24,343.05,60.62Z"/><path d="M358.8,55.59h1.64a2.39,2.39,0,0,1,2.19.88,3.38,3.38,0,0,1,.65,2.07V59a24.15,24.15,0,0,1-1,6.45q-.89,3.84-3.07,4.93a7.41,7.41,0,0,1-3.71.76H355c-.22,0-.33,0-.33-.11-.15-.29-.33-.69-.55-1.2a13.52,13.52,0,0,0-.76-1.53v-.11a9.57,9.57,0,0,1,1.2.11,9.59,9.59,0,0,0,1.1.11h.43a2.32,2.32,0,0,0,2.08-1,6.81,6.81,0,0,0,1.09-2,.27.27,0,0,0,.11-.21,14.23,14.23,0,0,0,1-5.25v-.66c-.07-.8-.44-1.24-1.1-1.31a19.42,19.42,0,0,0-2.4.22,9.21,9.21,0,0,1-1.2.1,42,42,0,0,1-4.16,9,18.49,18.49,0,0,1-2.3,3.07,3,3,0,0,1-1.31-.55,4.16,4.16,0,0,0-.55-.33.35.35,0,0,1-.22-.11c-.43-.07-.69-.22-.76-.44a18.15,18.15,0,0,0,4.26-5.9c.73-1.46,1.43-2.88,2.08-4.27a8.41,8.41,0,0,0-3.17.88l-.11.11a1.38,1.38,0,0,1-.76.22l-1.54-3.18.11-.22a10.2,10.2,0,0,0,3.07,0,8.87,8.87,0,0,1,1.09-.1,7.19,7.19,0,0,1,2.08-.33c.14-.44.25-.8.33-1.1a14,14,0,0,0,.65-4.37V49.9a1,1,0,0,1-.11-.43c.29.07.7.14,1.21.21,1,.15,1.82.3,2.4.44a1.64,1.64,0,0,1-.44,1,.29.29,0,0,0-.1.21,4.76,4.76,0,0,0-.33,1.54,1.56,1.56,0,0,0-.11.54,6.66,6.66,0,0,1-.22,1.21c-.07.51-.15.91-.22,1.2A12.49,12.49,0,0,1,358.8,55.59Zm5.36-1.42v-.33a7,7,0,0,1,1-.77c.44-.36.77-.61,1-.76s.54.07,1,.66a16,16,0,0,1,2.08,2.29,48.49,48.49,0,0,1,3.39,4.49v.32L370,61.72A44.65,44.65,0,0,0,364.16,54.17Z"/><path d="M378.92,53.51l3.07.66a43.66,43.66,0,0,0-1,8.2c2.7-2.19,5.32-3.28,7.88-3.28h.76a9.29,9.29,0,0,1,4.92,1.2,5.54,5.54,0,0,1,2.3,4.16V65a6.56,6.56,0,0,1-2.3,4.81,16.34,16.34,0,0,1-5,2.41,5.47,5.47,0,0,1-2.62.65l-1.42-2.4v-.11a36.88,36.88,0,0,0,4.37-1q3.72-1.53,3.72-3.94V65c-.15-2-1.5-3.07-4.05-3.28h-.44a11.88,11.88,0,0,0-4.37,1.09,7.35,7.35,0,0,0-3.5,3.5l-3.17-1.09.33-2.74c.36-3.43.54-6,.54-7.76Zm2.3-3.83,1.86-2.07A4.25,4.25,0,0,1,384,48a36.93,36.93,0,0,1,4.82,2.41v.22l-1.86,2A30.62,30.62,0,0,0,381.22,49.68Z"/><path d="M417.31,52v2.84A31.62,31.62,0,0,1,412.5,56a45.92,45.92,0,0,1-5.69,12.14h-.32l-2.52-1-.11-.21a37.61,37.61,0,0,0,5.69-10.72,30.3,30.3,0,0,1-3.61.22l-.33-3h.88a18.89,18.89,0,0,0,2.4-.11,4.25,4.25,0,0,0,.88-.11h.65a16.16,16.16,0,0,0,.77-4.7v-.66a8.9,8.9,0,0,0,1.64.44,10,10,0,0,1,1.53.44,4.26,4.26,0,0,1-.33,1.42,3.75,3.75,0,0,0-.22,1,4.17,4.17,0,0,1-.11.87,7.73,7.73,0,0,1-.21.88A22.56,22.56,0,0,0,417.31,52Zm.22,4.7h.22l2.52.55a8.17,8.17,0,0,1-.11,1.31c0,1,.07,2.45.22,4.49.07,1.24.11,2.19.11,2.84a24,24,0,0,1,5.79,2.52v.33l-1.09,2.4a1.9,1.9,0,0,1-1.1-.55c-.14-.14-.25-.21-.32-.21a24.22,24.22,0,0,0-3.28-1.43,4.69,4.69,0,0,1-.33,1.86,2.27,2.27,0,0,1-.55.77,1.57,1.57,0,0,1-.22.33,4.69,4.69,0,0,1-3.61,1.2h-.65a4.79,4.79,0,0,1-3.72-1.42,3.29,3.29,0,0,1-.77-3.17,3.79,3.79,0,0,1,1.53-2.08,8.26,8.26,0,0,1,3.94-1h.77a4.2,4.2,0,0,1,1,.11Q417.76,61.05,417.53,56.68Zm-1.64,11.16h-.44a2.47,2.47,0,0,0-2.18,1.09c-.3,1,.18,1.64,1.42,1.86h1c1.39-.07,2.12-.94,2.19-2.62A6.17,6.17,0,0,0,415.89,67.84Zm9.63-8.75h-.22a27.13,27.13,0,0,0-4.81-4.37L422,52.64h.22q2,1.43,3.82,3.06a2.34,2.34,0,0,1,1,1.2Z"/><path d="M442.8,55.59h1.64a2.39,2.39,0,0,1,2.19.88,3.38,3.38,0,0,1,.65,2.07V59a24.15,24.15,0,0,1-1,6.45q-.89,3.84-3.06,4.93a7.48,7.48,0,0,1-3.72.76H439c-.22,0-.33,0-.33-.11-.14-.29-.33-.69-.55-1.2a13.52,13.52,0,0,0-.76-1.53v-.11a9.57,9.57,0,0,1,1.2.11,9.59,9.59,0,0,0,1.1.11h.43a2.32,2.32,0,0,0,2.08-1,7,7,0,0,0,1.1-2,.29.29,0,0,0,.1-.21,14.23,14.23,0,0,0,1-5.25v-.66c-.07-.8-.44-1.24-1.09-1.31a19.38,19.38,0,0,0-2.41.22,9.21,9.21,0,0,1-1.2.1,42,42,0,0,1-4.16,9,18.49,18.49,0,0,1-2.3,3.07,3,3,0,0,1-1.31-.55,4.16,4.16,0,0,0-.55-.33.35.35,0,0,1-.22-.11c-.43-.07-.69-.22-.76-.44a18.15,18.15,0,0,0,4.26-5.9c.73-1.46,1.43-2.88,2.08-4.27a8.41,8.41,0,0,0-3.17.88l-.11.11a1.38,1.38,0,0,1-.76.22l-1.54-3.18.11-.22a10.2,10.2,0,0,0,3.07,0,8.87,8.87,0,0,1,1.09-.1,7.19,7.19,0,0,1,2.08-.33c.14-.44.25-.8.33-1.1a14,14,0,0,0,.65-4.37V49.9a1,1,0,0,1-.11-.43c.29.07.7.14,1.21.21,1,.15,1.82.3,2.4.44a1.68,1.68,0,0,1-.43,1,.27.27,0,0,0-.11.21,4.76,4.76,0,0,0-.33,1.54,1.56,1.56,0,0,0-.11.54,5.86,5.86,0,0,1-.22,1.21c-.07.51-.15.91-.22,1.2A12.49,12.49,0,0,1,442.8,55.59Zm5.36-1.42v-.33a7,7,0,0,1,1-.77c.44-.36.77-.61,1-.76s.54.07,1,.66a16,16,0,0,1,2.08,2.29,48.49,48.49,0,0,1,3.39,4.49v.32L454,61.72A44.65,44.65,0,0,0,448.16,54.17Z"/><path d="M474.84,53.18h.55A6.16,6.16,0,0,1,482,59.42V60a5.93,5.93,0,0,1-1,3.28,10.19,10.19,0,0,1-3,2.84,13.49,13.49,0,0,1-6.57,2.3l-1.75-2.08a16.35,16.35,0,0,0,6.57-2.08c2.18-1.31,3.28-2.88,3.28-4.7v-.44q-.44-3.17-4.49-3.72h-.43a10.47,10.47,0,0,0-3.39.55c-.88.29-1.75.62-2.63,1-.29.15-.69.33-1.2.55a30.81,30.81,0,0,0-3.17,1.75c-.08,0-.15.07-.22.22a.86.86,0,0,1-.77.22L461,57c2.05-.51,4.05-1.09,6-1.75a1.55,1.55,0,0,0,.44-.11Q472.11,53.08,474.84,53.18Z"/><path d="M496.17,48.26h.22l3.28.88v.33a2.61,2.61,0,0,0-1.09,1.75,10.19,10.19,0,0,0-.66,1.85,2.63,2.63,0,0,1-.22.66l3.61-.66a3.53,3.53,0,0,0,.77-.21l.22.11v2.84q-2.62.44-5.25.66a3.71,3.71,0,0,1-.11.54l-.11.22a63.85,63.85,0,0,1-5.8,15l-2.95-.88-.11-.22a87.78,87.78,0,0,0,6.34-14.55,15.32,15.32,0,0,1-2.18.11c-.95.08-1.68.11-2.19.11l-.22-.11-.44-2.62.11-.22c.29,0,.77,0,1.42.11a12.46,12.46,0,0,0,1.32.11H493c.66,0,1.35,0,2.08-.11a4.15,4.15,0,0,0,.22-.66,17.35,17.35,0,0,0,.87-4.37Zm14.77,20.13-.33,3.06a28.34,28.34,0,0,1-3.61.22h-1.09a22.42,22.42,0,0,1-4.82-.55,2,2,0,0,1-.43-.11q-.77,0-1-.33l-.11-2.51a7,7,0,0,0,1,.22,29.42,29.42,0,0,0,4.81.54h.55A24,24,0,0,0,510.94,68.39Zm-6.35-10.72h1c1.17,0,2.41,0,3.72.11l.11,2.95-.11.11a24.15,24.15,0,0,0-4.71-.66H503.5a9.14,9.14,0,0,0-2.41.33l.44-2.73H503C503.68,57.71,504.23,57.67,504.59,57.67Z"/><path d="M540.47,60.07v.77a9.92,9.92,0,0,1-3,6.89,13.59,13.59,0,0,1-5.47,3.94c0,.14-.08.14-.22,0A10,10,0,0,0,529.31,70v-.22q7.88-3.72,8-9.52v-.54a7.09,7.09,0,0,0-2.41-5,8.65,8.65,0,0,0-4.59-2,60.72,60.72,0,0,1-2.41,8,51.54,51.54,0,0,1-3.39,7.11c-1,1.75-2.11,2.63-3.5,2.63q-3.29-.12-5.47-3.72A7.73,7.73,0,0,1,514.44,63v-.55a10.26,10.26,0,0,1,.87-3.61,13.15,13.15,0,0,1,2-3.28,12.35,12.35,0,0,1,5.91-4.48,15.71,15.71,0,0,1,5-1.1h1.2a11,11,0,0,1,8,3A10.33,10.33,0,0,1,540.47,60.07Zm-23.08,1.86v.55a6,6,0,0,0,1.1,3.39,2.47,2.47,0,0,0,2.07,1.31,2.77,2.77,0,0,0,1.86-1.31,19.86,19.86,0,0,0,1.1-2c.14-.36.25-.62.32-.76a36.8,36.8,0,0,0,3.72-10.39,17.37,17.37,0,0,0-4.15,1.09,14.81,14.81,0,0,0-4.49,4A8.53,8.53,0,0,0,517.39,61.93Z"/><path d="M541.89,53.84h.66a14.68,14.68,0,0,0,3.28-.55l1.31-.32q2.08-.55,4.05-1,3.6-.87,7.11-1.53a22.38,22.38,0,0,0,4.37-1,3.3,3.3,0,0,0,.33,1.2,3.74,3.74,0,0,1,.22,1.64l-1.53.33a7.68,7.68,0,0,0-3.72,1.2,8.69,8.69,0,0,0-3.17,4.7,15.42,15.42,0,0,0-.66,3.83V63a5.77,5.77,0,0,0,1.64,4.26,6.38,6.38,0,0,0,4.27,1.64h.54a7.41,7.41,0,0,0,1.75-.21V72h-.87a13,13,0,0,1-6.89-1.86,8.6,8.6,0,0,1-3.28-6.89V62.7q0-4.26,3.39-9-4.38,1.1-8.75,2.41a4,4,0,0,1-.77.22,3,3,0,0,0-1.53.87l-1.75-3.06ZM562,55.37,563.55,54c.22.22.51.55.87,1a17.48,17.48,0,0,1,1.75,2l-1.53,1.32A17.5,17.5,0,0,0,562,55.37Zm3-2.19,1.53-1.31A18.31,18.31,0,0,1,569,54.72L567.38,56A23.57,23.57,0,0,0,565,53.18Z"/><path d="M581.59,70.57l-2.18,2.19-5.91-6.45,2.08-1.86Z"/><path d="M169.69,101l2.4,2.73v.22a40.15,40.15,0,0,0-10.61,4.48,13.36,13.36,0,0,0-3.39,3.28,3.88,3.88,0,0,0-.65,1.86V114a3.36,3.36,0,0,0,2.08,3,8.41,8.41,0,0,0,3.71.66H164a23.05,23.05,0,0,0,6.34-.87l.22,3.28c-1.89.14-3.72.22-5.47.22h-1.64a9.92,9.92,0,0,1-5.79-1.21,5.42,5.42,0,0,1-2.85-4.92v-.55c.07-2.47,1.57-4.74,4.49-6.78a1.09,1.09,0,0,1,.54-.44,43.74,43.74,0,0,0-3.5-9.18l3-.55a65.32,65.32,0,0,1,3.28,8.2l3.94-2A12.71,12.71,0,0,0,169.69,101Z"/><path d="M186.75,104.79v.55a6.63,6.63,0,0,0,.44,2.63h.22l1.09-1.75h.33l1.2,1.09c-.15.29-.33.69-.55,1.2a10.93,10.93,0,0,0-1.2,4.27v.44a16.53,16.53,0,0,1-2.62.21,8.7,8.7,0,0,1-1.1-2.84,18.11,18.11,0,0,1-.65-4.92v-.88a28.38,28.38,0,0,1,.43-4,22.56,22.56,0,0,0,.44-3.61c1.1.07,2.15.18,3.17.33a19.19,19.19,0,0,0-.54,2.29A26.22,26.22,0,0,0,186.75,104.79Zm7.66-7.65,3.61-.33.21.11a11.8,11.8,0,0,0,.22,3.72,5,5,0,0,0,.22,1.2A37.62,37.62,0,0,1,199,106v1.75a16.09,16.09,0,0,1-1.2,6.67,16.3,16.3,0,0,1-4.6,6.67c-.07.15-.18.15-.32,0l-2.52-1.2-.11-.22a17.68,17.68,0,0,0,3.94-4.7,16.3,16.3,0,0,0,1.75-7.55v-2.08A19.84,19.84,0,0,0,194.41,97.14Z"/><path d="M211.58,101.18h1.64c.36,0,.95,0,1.75-.11h.87a1.9,1.9,0,0,1,.11-.54,25.36,25.36,0,0,0,.22-2.85,7.26,7.26,0,0,0-.11-1.09h.55c.36,0,.87,0,1.53.11a12.31,12.31,0,0,0,1.31.11,1.57,1.57,0,0,1-.22,1.09,1.09,1.09,0,0,0-.21.55,5,5,0,0,1-.22,1.09,8.51,8.51,0,0,1-.22,1.21,4,4,0,0,0,1.2-.22,29,29,0,0,0,4.92-1.1v2.74q-3,.66-6,1.2h-.55c-.07.73-.15,1.61-.22,2.63a19.22,19.22,0,0,1,3.39-.66,2,2,0,0,1,.11-.44v-.65c-.07-.15,0-.29.22-.44l2.63.44.11.22-.11.1a6.11,6.11,0,0,0-.33.88,7.17,7.17,0,0,1,4.37,1.64,8.12,8.12,0,0,1,2.52,5.36v.77c-.07,2.62-1.5,4.81-4.27,6.56a5.24,5.24,0,0,1-2.62,1.09h-.11a11.65,11.65,0,0,0-2.41-2.08,8.53,8.53,0,0,0,4.71-1.75,5.63,5.63,0,0,0,2.07-4v-.33a5.42,5.42,0,0,0-2.29-4.27,4.28,4.28,0,0,0-1.21-.43h-.22a3.79,3.79,0,0,0-1.2-.33,25.68,25.68,0,0,1-4.7,8,17.33,17.33,0,0,0,.76,2c-.21.07-.58.22-1.09.44a3.3,3.3,0,0,1-1.2.33c-.22,0-.4-.22-.55-.66a2.18,2.18,0,0,1-1.2.66,6.63,6.63,0,0,1-4.05,1.64h-.44q-2.52-.12-2.73-3.72v-.44c.07-2.11,1.13-4.27,3.17-6.45a14.2,14.2,0,0,1,4.05-2.52c0-.44,0-1.13.11-2.08a6.25,6.25,0,0,1,.11-1.09h-1.64c-.81.07-1.43.11-1.86.11h-1.64c-.22,0-.33,0-.33-.11a3,3,0,0,1-.66-1.53v-.11c-.22-.44-.26-.77-.11-1C210.08,101.15,210.85,101.18,211.58,101.18Zm4.15,14-.1-.32a45.75,45.75,0,0,1-.33-5.47,9.67,9.67,0,0,0-4.05,4.15,3.86,3.86,0,0,0-.66,2.19c.08,1.09.55,1.64,1.43,1.64a4.33,4.33,0,0,0,2.73-1.2A6.55,6.55,0,0,1,215.73,115.18Zm2.19-7v2.63a6.89,6.89,0,0,0,.11,2,19.12,19.12,0,0,0,2.85-5.25c-1.25.22-2.12.4-2.63.54A.41.41,0,0,1,217.92,108.18Z"/><path d="M238.48,104.68H239a31.06,31.06,0,0,0,5.8-.54,11.54,11.54,0,0,0,3.72-.77,1.18,1.18,0,0,0,.65-.44h.22l2.52,1.54c.14.07.18.21.11.43V105a17.64,17.64,0,0,0-3.5,3.72c-.59.73-1,1.28-1.32,1.64H248a3.38,3.38,0,0,1,2.08.66,4.43,4.43,0,0,1,.76,2.19,5.45,5.45,0,0,1,.22,1,14.16,14.16,0,0,0,.44,2,1.66,1.66,0,0,0,1.53,1.42h1.31a16.16,16.16,0,0,0,3.94-.55v3a31.3,31.3,0,0,1-3.5.22h-2.3a3.47,3.47,0,0,1-3.06-1.43,9.29,9.29,0,0,1-1.09-3.28,1.84,1.84,0,0,0-.11-.54,7.12,7.12,0,0,0-.22-1.1,1.63,1.63,0,0,0-1.42-1,3,3,0,0,0-2.3,1.31,57.09,57.09,0,0,0-4.7,6h-.22a21,21,0,0,0-2.73-1.75v-.11a89.27,89.27,0,0,0,7.65-8.43,19.62,19.62,0,0,0,2.63-3.71l-.11-.22a11.81,11.81,0,0,1-3.28.87,13.1,13.1,0,0,0-2.52.66,1,1,0,0,0-.55.22c-.22.22-.4.29-.54.22Zm7-8.75h.22a35.79,35.79,0,0,0,5.36,2.52,1.17,1.17,0,0,0,.33.22.79.79,0,0,1,.55.33l-.88,2.29-.33.11a34.63,34.63,0,0,1-6.45-3.06v-.22Q244.84,97.15,245.48,95.93Z"/><path d="M278.19,95.72l.11.21a8.4,8.4,0,0,0-.77,3.94v.55c.51,0,1.28,0,2.3-.11h6.89v3.06a45.61,45.61,0,0,0-7.77-.65h-1.53v3.6a3.78,3.78,0,0,1,.44.55,5.68,5.68,0,0,1,1,3.5V111a13.4,13.4,0,0,1-3.17,8.64,10.41,10.41,0,0,1-2.4,2.3c-.08.14-.15.14-.22,0a5.75,5.75,0,0,1-1.21-.55,20.42,20.42,0,0,0-2.29-.77,10.07,10.07,0,0,0,3.28-2.18,5.45,5.45,0,0,0,2.3-3.5,4.33,4.33,0,0,1-1.32.21h-.43q-3.72-.44-4.16-4.7V110q.54-4.59,4.59-5h.44a1.21,1.21,0,0,1,.66.11,13.91,13.91,0,0,0,.22-2.4,49.55,49.55,0,0,0-5.69.54,30.34,30.34,0,0,0-5.14.88L263,101l.11-.33a4.25,4.25,0,0,1,.88.11,9.77,9.77,0,0,0,1.64.22h.55c1,0,2.55-.08,4.59-.22,1-.08,1.79-.11,2.3-.11a19.65,19.65,0,0,0,2.08-.11,22.73,22.73,0,0,0-.88-5.14C275.56,95.46,276.88,95.57,278.19,95.72Zm-3.06,14.21V108.4c-.08-.87-.44-1.31-1.1-1.31a1.75,1.75,0,0,0-1.31.88A3.41,3.41,0,0,0,272,111c.29,1.09.84,1.64,1.64,1.64C274.54,112.67,275.05,111.76,275.13,109.93Zm10.93-11.15-1.42,1.2a17,17,0,0,0-2.95-2.51l1.42-1.21A17.61,17.61,0,0,1,286.06,98.78Zm1.86-1.86-1.42,1.2a5.9,5.9,0,0,1-.87-.76,14.17,14.17,0,0,0-1.75-1.54l1.2-1.2a4,4,0,0,0,.76.55A22.58,22.58,0,0,1,287.92,96.92Z"/><path d="M291.53,104.14a3.59,3.59,0,0,1-.55-1l-.87-1.31A19.84,19.84,0,0,0,296,95.39l3,.43a1.45,1.45,0,0,1-.33.44,14.29,14.29,0,0,1-1.53,2.19H315.7V101h-3.06v4.26h2.84v2.41h-2.84v4.48h3.83v2.41h-26v-2.41h4.26v-4.48h-3.39v-2.41h3.39v-3.94A36.73,36.73,0,0,1,291.53,104.14Zm2,17.39-2.84-.66q1.86-3.28,2.73-5.25l2.74.55a9,9,0,0,1-.44,1Q294.27,120.21,293.5,121.53ZM297.22,101v4.26h2.62V101Zm0,6.67v4.48h2.62v-4.48Zm2.3,13.34c-.44-1.46-.92-3-1.43-4.7l2.74-.33q.87,2.4,1.53,4.59Zm2.84-20v4.26H305V101Zm0,6.67v4.48H305v-4.48Zm3.83,13.12a30.67,30.67,0,0,0-1.31-3.17c-.22-.58-.41-1.06-.55-1.42l2.73-.44,2,4.49ZM307.5,101v4.26h2.73V101Zm0,6.67v4.48h2.73v-4.48Zm6,13.34c-.37-.73-.92-1.68-1.64-2.84-.52-.88-.92-1.57-1.21-2.08l2.74-.55a2.38,2.38,0,0,0,.43.55,40.32,40.32,0,0,1,2.52,4.16Z"/><path d="M318.44,107.86v-2.52h4.26v-10h2.74v10h4v2.52h-4v2.73l1-1,.88.87c1.16,1.17,2,2.08,2.62,2.74l-1.75,2a17.2,17.2,0,0,0-1.86-2.07q-.54-.66-.87-1v9.3H322.7v-9.3a26.37,26.37,0,0,1-3.72,6,21.75,21.75,0,0,0-.87-3.17,25.9,25.9,0,0,0,4.37-7.11Zm1.75-3.94c-.81-2.33-1.42-4.16-1.86-5.47l2-.66q.65,2,1.86,5.47Zm7.44.11-1.86-.77c.87-2,1.64-3.79,2.29-5.47l2,.77A57.91,57.91,0,0,1,327.63,104Zm2.73,11-.33-2.73,8.2-.77V95.39h2.85v15.86l3.5-.33.11,2.73-3.61.33v7.44h-2.85v-7.11Zm4.48-5a53.33,53.33,0,0,0-4.37-3.5l1.64-2c1.6,1.17,3.1,2.3,4.48,3.4Zm.77-6.56a52.87,52.87,0,0,0-4.27-3.72l1.75-1.86a5.4,5.4,0,0,0,1.1.77c1.38,1.09,2.48,2,3.28,2.73Z"/><path d="M346.55,103.15v-2.62h3.5V95.39h2.73v5.14h3.28v2.62h-3.28v3.94l.77-.77a46.42,46.42,0,0,1,3.39,3.29l-1.75,2a1.29,1.29,0,0,0-.44-.43c-.8-1-1.46-1.68-2-2.19v12.58h-2.73V108.84a28.92,28.92,0,0,1-3.17,6.34c-.08-.58-.26-1.49-.55-2.73a6.68,6.68,0,0,0-.22-1.09,27.43,27.43,0,0,0,3.83-8.21Zm10.72,18.38V96.92h14.21v24.61h-2.73v-1.75H360v1.75Zm2.73-22v4.27h8.75V99.54Zm0,6.78v4.27h8.75v-4.27Zm0,6.79v4.26h8.75v-4.26Z"/><path d="M374.22,101V98.45h4.16l-1.1-2.73,2.63-.44c.22.58.62,1.57,1.2,3a.33.33,0,0,1,.11.22h2.95V101Zm.77,4.15v-2.3h8.53v2.3Zm0,4.27v-2.3h8.53v2.3Zm.1,11.92V111.25h8.32v10H381v-1.42h-3.39v1.53Zm2.52-7.66v3.94H381v-3.94Zm7.77,7.88c-.08-.15-.22-.4-.44-.77-.51-.8-.91-1.38-1.2-1.75q6.45-2.62,7-6.89c.14-1.09.29-2.73.43-4.92h2.63a29.44,29.44,0,0,1-.22,3.72,10.63,10.63,0,0,0,7.22,7.76c-.73,1.17-1.24,2-1.53,2.63-3.5-1.75-5.77-4-6.78-6.67Q391.5,118.69,385.38,121.53Zm13.56-13.35q-3.82-2.73-6.56-4.37-1.32,2.3-6.46,4.7a21.36,21.36,0,0,0-1.53-2.4q6.24-2.52,6.56-5.91a26.19,26.19,0,0,0,.33-4.81H394a28.85,28.85,0,0,1-.44,5l-.22,1.09c.51.29,1.24.73,2.19,1.31q3.39,2,5,3.07Zm-11.49,6.13a42.37,42.37,0,0,0-2.73-3.94l2.08-1.2a1.43,1.43,0,0,1,.22.33,35.83,35.83,0,0,1,2.62,3.39Zm.33-12.14c-.36-.51-1-1.39-2-2.63l-1-1.31,2-1.31a3.68,3.68,0,0,1,.33.44,42,42,0,0,1,2.73,3.39Zm9,0-2.08-1.53A34.31,34.31,0,0,0,398,96.92L400,98.34c-.65.88-1.64,2-2.95,3.5Zm0,12.14-2-1.53a1.17,1.17,0,0,0,.22-.33,36.78,36.78,0,0,0,2.95-3.39l2.08,1.53q-.76,1-2.4,2.73A8,8,0,0,0,396.75,114.31Z"/><path d="M407.47,96.59h.22l3.5.66a11.83,11.83,0,0,1-.33,1.42v15.09a5.05,5.05,0,0,0,.66,3,3,3,0,0,0,2.29,1.09h.66a4.11,4.11,0,0,0,1.86-.44,11.32,11.32,0,0,0,2.51-1.2,12.12,12.12,0,0,0,3.07-2.74h.22l1.31,2.52c.14.15.14.22,0,.22a13.49,13.49,0,0,1-4.6,3.28,9.81,9.81,0,0,1-4.81,1.2h-.33a6.38,6.38,0,0,1-3.61-1.09,4.31,4.31,0,0,1-2.18-3.17c-.08-1-.11-2.08-.11-3.17V98.89a6.53,6.53,0,0,0-.22-1.32A6.84,6.84,0,0,1,407.47,96.59Z"/><path d="M432.08,101.84h.33l9.51-2c4.16-.87,7.29-1.49,9.41-1.86,1.09-.22,2.19-.4,3.28-.54l.22,3.17h-.66c-3.35,0-5.87.91-7.54,2.73a10.39,10.39,0,0,0-2.85,7.33v.44a5.76,5.76,0,0,0,1.53,4.26q1.53,1.65,4.82,1.53H452v3.29h-1.65a10.29,10.29,0,0,1-6.89-2.41,8.58,8.58,0,0,1-2.29-6.34v-1.1a13.43,13.43,0,0,1,3.5-8.53c-1,.22-2.41.58-4.38,1.09-.95.22-1.68.41-2.19.55l-1,.33a12.29,12.29,0,0,0-3.28,1.2Z"/><path d="M458.44,115v-.44a8.43,8.43,0,0,1,1.09-3.5,9.19,9.19,0,0,1,2-2.3,9.72,9.72,0,0,1,6.24-2.3H468a4,4,0,0,0,.77-1.31c.87-1.53,1.79-3.06,2.73-4.59l-.21-.22a10.49,10.49,0,0,0-5.25,1.86c-.15-.29-.33-.66-.55-1.1s-.66-1.2-1.31-2.29l.11-.11h1.31a17,17,0,0,0,3.06-.44,4.88,4.88,0,0,1,.77-.11,19,19,0,0,0,3.39-1H473l2.84,2.73c.07.29-.11.55-.55.77l-.11.11a12,12,0,0,0-1.86,1.53c-.22.29-.51.73-.87,1.31a4.3,4.3,0,0,0-.44.66,4.92,4.92,0,0,1-.44.65,14.9,14.9,0,0,1-1,1.86c.8.15,1.6.33,2.41.55a24.09,24.09,0,0,1,2.95,1.2c.65.29,1.13.51,1.42.66a24.17,24.17,0,0,0,.66-4.7v-.88h.22l2.95.88v.21a19.61,19.61,0,0,0-1.31,4.49.33.33,0,0,1-.11.22,2.5,2.5,0,0,1-.33,1,28.63,28.63,0,0,1,5,3.5l-1.31,2.52h-.22c-1.24-1.1-2.52-2.15-3.83-3.17a1.33,1.33,0,0,0-.55-.33,29.27,29.27,0,0,1-1.42,2.73,15.28,15.28,0,0,1-5.36,5h-.22a11.35,11.35,0,0,0-2.29-1.75v-.11a15.27,15.27,0,0,0,5.14-3.72,9.29,9.29,0,0,0,2.08-3.39.1.1,0,0,0-.11-.11,22.22,22.22,0,0,0-7-2.62c-.37.73-.92,1.75-1.64,3.06-.52.88-.88,1.53-1.1,2q-2.62,4.59-5.58,4A3.23,3.23,0,0,1,458.44,115Zm3.39-3.18a4.16,4.16,0,0,1-.33.55,3.29,3.29,0,0,0-.66,1.09c-.29,1.32,0,2,1,2.08a2.24,2.24,0,0,0,1.31-.65.31.31,0,0,1,.11-.22,6.64,6.64,0,0,0,1.09-1.42,30.41,30.41,0,0,0,2.3-4.38A7.88,7.88,0,0,0,461.83,111.79Z"/><path d="M496.17,96.26h.22l3.28.88v.33a2.61,2.61,0,0,0-1.09,1.75,10.19,10.19,0,0,0-.66,1.85,2.63,2.63,0,0,1-.22.66l3.61-.66a3.53,3.53,0,0,0,.77-.21l.22.11v2.84q-2.62.43-5.25.66a3.71,3.71,0,0,1-.11.54l-.11.22a63.85,63.85,0,0,1-5.8,15l-2.95-.88-.11-.22a87.78,87.78,0,0,0,6.34-14.55,15.32,15.32,0,0,1-2.18.11c-.95.08-1.68.11-2.19.11l-.22-.11-.44-2.62.11-.22c.29,0,.77,0,1.42.11a12.46,12.46,0,0,0,1.32.11H493c.66,0,1.35,0,2.08-.11a4.15,4.15,0,0,0,.22-.66,17.35,17.35,0,0,0,.87-4.37Zm14.77,20.13-.33,3.06a28.34,28.34,0,0,1-3.61.22h-1.09a22.42,22.42,0,0,1-4.82-.55,2,2,0,0,1-.43-.11q-.77,0-1-.33l-.11-2.51a7,7,0,0,0,1,.22,29.42,29.42,0,0,0,4.81.54h.55A24,24,0,0,0,510.94,116.39Zm-6.35-10.72h1c1.17,0,2.41,0,3.72.11l.11,3-.11.11a24.15,24.15,0,0,0-4.71-.66H503.5a9.14,9.14,0,0,0-2.41.33l.44-2.73H503C503.68,105.71,504.23,105.67,504.59,105.67Z"/><path d="M540.47,108.07v.77a9.92,9.92,0,0,1-3,6.89,13.59,13.59,0,0,1-5.47,3.94c0,.14-.08.14-.22,0a10,10,0,0,0-2.52-1.64v-.22q7.88-3.72,8-9.52v-.54a7.09,7.09,0,0,0-2.41-5,8.65,8.65,0,0,0-4.59-2,60.72,60.72,0,0,1-2.41,8,51.54,51.54,0,0,1-3.39,7.11c-1,1.75-2.11,2.63-3.5,2.63q-3.29-.12-5.47-3.72a7.73,7.73,0,0,1-1.09-3.72v-.55a10.26,10.26,0,0,1,.87-3.61,13.15,13.15,0,0,1,2-3.28,12.35,12.35,0,0,1,5.91-4.48,15.71,15.71,0,0,1,5-1.1h1.2a11,11,0,0,1,8,3A10.33,10.33,0,0,1,540.47,108.07Zm-23.08,1.86v.55a6,6,0,0,0,1.1,3.39,2.47,2.47,0,0,0,2.07,1.31,2.77,2.77,0,0,0,1.86-1.31,19.86,19.86,0,0,0,1.1-2c.14-.36.25-.62.32-.76a36.8,36.8,0,0,0,3.72-10.39,17.37,17.37,0,0,0-4.15,1.09,14.81,14.81,0,0,0-4.49,4A8.53,8.53,0,0,0,517.39,109.93Z"/><path d="M541.89,101.84h.66a14.68,14.68,0,0,0,3.28-.55l1.31-.32q2.08-.56,4.05-1,3.6-.87,7.11-1.53a22.38,22.38,0,0,0,4.37-1,3.3,3.3,0,0,0,.33,1.2,3.74,3.74,0,0,1,.22,1.64l-1.53.33a7.68,7.68,0,0,0-3.72,1.2,8.69,8.69,0,0,0-3.17,4.7,15.42,15.42,0,0,0-.66,3.83V111a5.77,5.77,0,0,0,1.64,4.26,6.38,6.38,0,0,0,4.27,1.64h.54a7.41,7.41,0,0,0,1.75-.21V120h-.87a13,13,0,0,1-6.89-1.86,8.6,8.6,0,0,1-3.28-6.89v-.55q0-4.26,3.39-9-4.38,1.09-8.75,2.41a4,4,0,0,1-.77.22,3,3,0,0,0-1.53.87l-1.75-3.06ZM562,103.37l1.53-1.42c.22.22.51.55.87,1a17.48,17.48,0,0,1,1.75,2l-1.53,1.32A17.5,17.5,0,0,0,562,103.37Zm3-2.19,1.53-1.31a18.31,18.31,0,0,1,2.52,2.85L567.38,104A23.57,23.57,0,0,0,565,101.18Z"/><path d="M582.91,95.06l3.83.66a9.88,9.88,0,0,0-.55,3.39v1h9v3.17a43.2,43.2,0,0,0-8.21-.54h-.76v3.39l.11.11a6.11,6.11,0,0,1,1,3.71v1.86a13.58,13.58,0,0,1-1.09,4.6,17.62,17.62,0,0,1-2.41,3.61c-.65.65-1.35,1.31-2.08,2h-.21a14.33,14.33,0,0,0-3.18-1.54v-.21a10.9,10.9,0,0,0,5.8-5.58,4.43,4.43,0,0,1-4.27,0,5.2,5.2,0,0,1-2.18-4.38v-.54q.54-4.48,4.59-5h1.31v-2h-1.2a41,41,0,0,0-9.3,1.09l-.22-.11-1.09-3.17.11-.22c.22,0,.62,0,1.2.11a12.46,12.46,0,0,0,1.32.11h1.31c.29,0,.91,0,1.86-.11,2.26-.07,4.26-.15,6-.22-.14-1.68-.32-3.13-.54-4.38A3.83,3.83,0,0,1,582.91,95.06Zm.65,14.66v-1.43c-.07-.72-.36-1.13-.87-1.2a1.52,1.52,0,0,0-1.1.44,2.81,2.81,0,0,0-1,2.19v.65c.07,1.46.55,2.23,1.42,2.3.51,0,1-.4,1.31-1.2A3.34,3.34,0,0,0,583.56,109.72Z"/><path d="M605,97.47l3.72.87c-.07.22-.18.51-.33.88-.14.21-.25.4-.33.54a8.51,8.51,0,0,0-.22,1.21,1.78,1.78,0,0,0-.1.54,9.91,9.91,0,0,0-.22,1.31,4.55,4.55,0,0,0-.22,1.1,2.93,2.93,0,0,1,.87-.11,7.34,7.34,0,0,1,.88-.11,3.19,3.19,0,0,0,.65-.11h1.1a5.11,5.11,0,0,1,2.08.44,2.71,2.71,0,0,1,1.09,2.19v1.31a29.24,29.24,0,0,1-1,6.89c-.52,2.48-1.5,3.9-3,4.26a7.92,7.92,0,0,1-3.39.77h-.76c-.22-.51-.51-1.13-.88-1.86-.22-.44-.36-.77-.44-1l.11-.22a4,4,0,0,1,.77.11,7.92,7.92,0,0,0,1.53.22h.44a2.46,2.46,0,0,0,2.29-1.43,16.61,16.61,0,0,0,1-3,26,26,0,0,0,.65-5,1.25,1.25,0,0,0-1.53-1.31c-.36.07-.91.14-1.64.22l-1.64.32a35.64,35.64,0,0,1-6,12.14l-.22.11a11,11,0,0,0-1.75-.76,4.71,4.71,0,0,0-.88-.44v-.22a27.72,27.72,0,0,0,3.94-5.58,24.83,24.83,0,0,0,1.64-3.72,7.34,7.34,0,0,0,.44-1,29.3,29.3,0,0,0-3.28,1.09,1.6,1.6,0,0,1-1,.33l-1.2-3.06.22-.22a3.19,3.19,0,0,1,.65.11,1.84,1.84,0,0,0,.88,0c.51-.07,1.28-.22,2.3-.44s1.64-.36,2.07-.43a2.17,2.17,0,0,1,.11-.66,23.8,23.8,0,0,0,.55-5.14Zm16.74,10.6-.11.22-2.3,1.32a35.87,35.87,0,0,0-5.36-7.44v-.33l2.08-1.2A31.07,31.07,0,0,1,621.74,108.07Zm.76-7.32V101l-1.42,1.2h-.22a8.49,8.49,0,0,0-2.62-2.85v-.21l1.31-1.1h.22A24,24,0,0,1,622.5,100.75ZM621,97v-.22l1.31-1.09h.22a1.18,1.18,0,0,0,.33.21c.51.44,1.09,1,1.75,1.64a1.81,1.81,0,0,1,.66,1.1l-1.32,1.2h-.22A11.32,11.32,0,0,0,621,97Z"/><path d="M637.59,118.57l-2.18,2.19-5.91-6.45,2.08-1.86Z"/><path d="M139.17,159.47a17.14,17.14,0,0,0-2.84-1.54A76.64,76.64,0,0,0,141.91,147l3,1.09A92,92,0,0,1,139.17,159.47Zm-1.31,10.06a31,31,0,0,0-1.53-3.06q14.32-2.08,20.45-10.83l2.52,2Q152.19,166.79,137.86,169.53Zm9.95-10.06v-16h3.07v16Zm12.58-2.85q-2.52-3.28-7-8.53l2.3-1.64q4.16,4.49,7.22,8.2Z"/><path d="M169.47,144.59h.22l3.5.66a14.12,14.12,0,0,1-.33,1.42v15.09a5.05,5.05,0,0,0,.66,3,3,3,0,0,0,2.29,1.09h.66a4.14,4.14,0,0,0,1.86-.44,11.32,11.32,0,0,0,2.51-1.2,12.12,12.12,0,0,0,3.07-2.74h.22l1.31,2.52c.14.15.14.22,0,.22a13.49,13.49,0,0,1-4.6,3.28,9.84,9.84,0,0,1-4.81,1.2h-.33a6.38,6.38,0,0,1-3.61-1.09,4.31,4.31,0,0,1-2.18-3.17c-.08-1-.11-2.08-.11-3.17V146.89a6.53,6.53,0,0,0-.22-1.32A6.84,6.84,0,0,1,169.47,144.59Z"/><path d="M200.53,144.59H201l3.5.88v.21a2.42,2.42,0,0,0-.88,1.54c-.07.21-.18.54-.32,1-.3.8-.51,1.46-.66,2,1.46-.37,2.88-.69,4.27-1l.21.11-.32,2.85c-1.61.29-3.25.51-4.93.65a88.81,88.81,0,0,1-2.84,8.43,43.73,43.73,0,0,1-3.28,7.32l-.11.11-3.28-1.2a35.57,35.57,0,0,0,4.7-9.19,36.53,36.53,0,0,0,1.31-3.5c.29-.8.51-1.38.66-1.75h-3.94c-.22,0-.36,0-.43-.11l-.44-2.73c.36,0,.91,0,1.64.11s1.27.11,1.64.11h2.3a17.58,17.58,0,0,0,.76-5.14Zm9.3,20.78h1.09a12.1,12.1,0,0,0,4.49-.65l-.22,2.95a23.14,23.14,0,0,1-3.83.33h-.77a22.25,22.25,0,0,1-6.56-1.21l.44-2.4a3.89,3.89,0,0,0,.76.22A21,21,0,0,0,209.83,165.37Zm.11-11.48h1a15,15,0,0,1,2.19.22,9.48,9.48,0,0,0,1.09.11l-.11,2.95a18.1,18.1,0,0,0-4.15-.66h-.88a18.93,18.93,0,0,0-2.29.22,5.07,5.07,0,0,1-.88.11l.22-2.62a12.31,12.31,0,0,0,1.31-.11A22.28,22.28,0,0,1,209.94,153.89Zm1.42-4.6v-.22l1.42-1.31c0-.14.07-.14.22,0a12.6,12.6,0,0,1,2.52,2l.54.55-.22.22-.11.11a3.28,3.28,0,0,1-1.31,1.09c0,.07-.07.07-.22,0C213.26,151,212.31,150.17,211.36,149.29Zm2.62-2.62L215.3,145a4.06,4.06,0,0,1,1.42.76,2.21,2.21,0,0,0,.55.44,15.39,15.39,0,0,0,1.31,1.2v.33l-1.53,1.31c0,.08-.08.08-.22,0a17.42,17.42,0,0,0-1.42-1.2,10.86,10.86,0,0,0-1.43-1.09Z"/><path d="M224.81,156.18v1.21a12.52,12.52,0,0,0,.88,5.25h.22a6,6,0,0,0,1-1.53,7.29,7.29,0,0,1,.55-1.1h.22l.87.66a18.63,18.63,0,0,0-1.31,6.12v.66a9.57,9.57,0,0,0-1.2.11,9.7,9.7,0,0,1-1.21.11,8.56,8.56,0,0,1-1.2-2.08,21.87,21.87,0,0,1-1.42-8.09V156a27.71,27.71,0,0,1,.87-6.9,5,5,0,0,0,0-3.6,10.11,10.11,0,0,1,3.5.87,4.15,4.15,0,0,1-.33,1.31,1.71,1.71,0,0,0-.21.66A31.54,31.54,0,0,0,224.81,156.18Zm12-10.71,4,.21a3.38,3.38,0,0,1-.22,1,1.8,1.8,0,0,0-.22.65,10.76,10.76,0,0,0-.11,1.43v.87c0,.66,0,1.35.11,2.08,1.32-.36,2.63-.69,3.94-1l.33,2.62a23.62,23.62,0,0,1-4.16,1v1.86a18.49,18.49,0,0,1-.76,6.79,11.76,11.76,0,0,1-4.49,5.9h-.11a.85.85,0,0,1-.32-.11,1,1,0,0,0-.33-.11,14.37,14.37,0,0,0-2-1.09l-.11-.11a12,12,0,0,0,4.37-4.48c.81-1.54,1.17-3.83,1.1-6.9v-1.31c-1.46.08-3,.11-4.49.11H231.7l-1-2.84.11-.22a9.57,9.57,0,0,1,1.2.11,17.39,17.39,0,0,0,2.41.22H236a15.64,15.64,0,0,0,1.86-.11A21.85,21.85,0,0,0,236.84,145.47Z"/><path d="M273.16,154c-1.32-.59-2.52-1.13-3.61-1.64v2.07H263v3h9.3V160H263v6.13h10.94v2.4H249v-2.4h10.94V160h-9.29v-2.62h9.29v-3h-6.78v-1.86c-1,.52-2.15,1.06-3.39,1.65-.15-.22-.33-.51-.55-.88-.51-.8-.87-1.38-1.09-1.75q9.07-3.5,12.47-8.53l3.39.33-.66.87a22.62,22.62,0,0,0,11.38,6.89c-.15.29-.4.77-.77,1.42S273.3,153.71,273.16,154Zm-18.05,11.81c-.58-.73-1.68-2-3.28-3.94l2.19-1.42q1.2,1.31,3.06,3.5c-.15-.15,0,0,.33.44Zm6.56-19.47a28.4,28.4,0,0,1-7.11,5.58h14A26,26,0,0,1,261.67,146.34Zm5.8,19.47-2.19-1.42a1.17,1.17,0,0,0,.22-.33c1.46-1.6,2.52-2.81,3.17-3.61l2.41,1.31Q269.65,163.41,267.47,165.81Z"/><path d="M276.44,154.32v-2.73h5.69v-4.05c-.44,0-1.06,0-1.86.11-1.46.15-2.52.22-3.18.22v-.22a18.8,18.8,0,0,0-.43-2.4q7.43-.44,12.79-1l.55,2.63a17,17,0,0,0-2.19.22c-1.24.07-2.18.14-2.84.21v4.27h5.47v2.73H285v3.07l.87-.88c2.56,2,4.23,3.47,5,4.27l-2,2.08q-1.32-1.32-3.94-3.72v10.28h-2.84v-10.5a27.25,27.25,0,0,1-5.15,7,27.92,27.92,0,0,0-.87-3.72,20.69,20.69,0,0,0,5.69-7.88ZM291.86,163V146.56h2.73V163Zm1.53,6.12a3.16,3.16,0,0,0-.11-.66,7.71,7.71,0,0,0-.55-2.18c.73.07,2.08.11,4,.11,1.17,0,1.71-.62,1.64-1.86V143.61h2.85v21.76q.11,3.39-3.39,3.61H295.8C294.63,169.05,293.83,169.09,293.39,169.09Z"/><path d="M314.17,143.72l3.5.87v.22l-.76.87c-.08.22-.22.59-.44,1.1A4.25,4.25,0,0,1,316,148a19.5,19.5,0,0,0,4.38-1.09v3a30.76,30.76,0,0,1-5.36.88,19.46,19.46,0,0,1-1.64,3.17,8.15,8.15,0,0,1,3.06-.88h.44a5,5,0,0,1,1.09.22l.22.11a4,4,0,0,1,1.31,1.2,4.2,4.2,0,0,1,.88,2.19c.65-.29,1.27-.55,1.86-.76l1-.33a15.35,15.35,0,0,0,2-.77,1.74,1.74,0,0,0,.44-.33c.29-.29.51-.4.65-.32l2.3,2.62v.33a64.09,64.09,0,0,0-7.77,2.08,7.41,7.41,0,0,1,.22,1.86v.76a12.43,12.43,0,0,1-.22,1.86,7.1,7.1,0,0,0-.11,1H318a9.54,9.54,0,0,1,.11-1.21v-3.17a11.11,11.11,0,0,0-2.41,1.42c-1.38,1-1.86,2-1.42,3.06s1.53,1.54,3.72,1.54h.44a25.67,25.67,0,0,0,5.47-.77l.32,3.17a29.12,29.12,0,0,1-4.37.33h-1.64a9.57,9.57,0,0,1-4.49-1,4.06,4.06,0,0,1-2.29-3.18v-.43a6.89,6.89,0,0,1,3.17-5,13.58,13.58,0,0,1,2.19-1.21c.51-.29.91-.51,1.2-.65a2.87,2.87,0,0,0-1.2-2.19,3.65,3.65,0,0,0-2.08.22q-2.42,1.2-5.25,5.79a4.85,4.85,0,0,0-.44.66l-2.73-1.2a50,50,0,0,0,5.9-10H309l-.76-2.62v-.22a13.7,13.7,0,0,0,2.29.22h2.74a2,2,0,0,0,.11-.44,8.63,8.63,0,0,0,.76-3.5Z"/><path d="M332.44,148.09v-3h26v3H346v6.67l1.75-2.19q4.38,2.52,9.52,5.91l-2.08,2.74c-1.53-1-3.61-2.41-6.24-4.16-1.31-.95-2.29-1.64-2.95-2.08v14.33h-3.39V148.09Z"/><path d="M361.31,145.14l3.5.87a14,14,0,0,1-.43,1.53c-.08.22-.15.4-.22.55a31.29,31.29,0,0,0-1.32,8.31V158a12.56,12.56,0,0,0,1.1,4.6h.22a14,14,0,0,0,.87-2,7.94,7.94,0,0,0,.44-1l1.42,1.21a18.66,18.66,0,0,0-1.75,6.56l-2.08.22a18.94,18.94,0,0,1-2.84-10.06v-1.43a43.91,43.91,0,0,1,.66-6.34,18.68,18.68,0,0,0,.43-4.05Zm13.57,0h.54c.29,0,.8,0,1.53.11a9.9,9.9,0,0,0,1.64.22,11.18,11.18,0,0,0-.32,2.62v.44c0,.29,0,.8.11,1.53a10,10,0,0,1,.11,1.31,19.61,19.61,0,0,0,2.73-.65c.36-.08.66-.15.87-.22h.22c.15.94.26,1.86.33,2.73a15.12,15.12,0,0,1-2.84.55,5.83,5.83,0,0,0-1,.22v-.33c-.07-.22-.07-.26,0-.11V156a25.11,25.11,0,0,1-.65,5.79,13,13,0,0,1-2.74,4.92,7.48,7.48,0,0,1-1.75,2,9.21,9.21,0,0,0-2.84-.87l-.11-.11a11.9,11.9,0,0,0,4-5,14.69,14.69,0,0,0,1.2-6.46v-2a6.47,6.47,0,0,1-1.2.1c-1.17.08-2.37.11-3.61.11h-1.64l-.66-2.73.11-.11a20.22,20.22,0,0,0,2.95.22h1.42a16.65,16.65,0,0,0,2.3-.11c-.07-.95-.18-2-.33-3.28C375.09,146.74,375,145.65,374.88,145.14Zm4.81,1,1.53-1.31a6.58,6.58,0,0,1,.87.76,9.77,9.77,0,0,1,2,1.86L382.64,149A21.56,21.56,0,0,0,379.69,146.12Zm2.4-2.19,1.43-1.42q.33.23.87.66a26.88,26.88,0,0,1,2.3,2l-1.42,1.53A11.49,11.49,0,0,0,382.09,143.93Z"/><path d="M393.14,146.89h1.53a25.86,25.86,0,0,0,8.1-1.1.86.86,0,0,0,.43-.11,1.76,1.76,0,0,1,.66-.21H404l2.84,2.29v.11a11.45,11.45,0,0,0-2.51,2.41l-1.75,2.08q-1.2,1.3-1.86,2.07a10.1,10.1,0,0,0,1.31-.11,9.21,9.21,0,0,1,1.2-.1h.55a7.68,7.68,0,0,1,4.81,1.75,6,6,0,0,1,2.08,4.7V161a6.51,6.51,0,0,1-3.28,5.36,9.85,9.85,0,0,1-5.47,1.64h-.44c-3.35-.3-5.14-1.53-5.36-3.72v-.44c.22-1.9,1.46-3,3.72-3.17h.55q2.73,0,5.36,3.5a4.73,4.73,0,0,0,1.75-3.39v-.55q-.33-3.06-4.05-3.39h-.54a9.33,9.33,0,0,0-7.33,3.83.33.33,0,0,1-.11.22,1.78,1.78,0,0,1-.55.54l-2.62-2v-.33A41.54,41.54,0,0,0,401.56,149a14.9,14.9,0,0,0-6,1.31c-.08,0-.15.07-.22.22a.86.86,0,0,1-.77.22l-1.42-3.61Zm7.33,18.7H401a4.36,4.36,0,0,0,1.42-.22,1.51,1.51,0,0,0-.77-1.2,2.56,2.56,0,0,0-2.62-.88c-.66.37-.84.84-.55,1.43A2.29,2.29,0,0,0,400.47,165.59Z"/><path d="M428.58,163.18h2.3a34.85,34.85,0,0,0,8.09-1v3.5a45.09,45.09,0,0,1-8.42.66h-1.64a12.19,12.19,0,0,1-5.14-.88,13.16,13.16,0,0,1-3.83-2.84v-.33l1.86-1.64c.07-.15.11-.15.11,0a8.63,8.63,0,0,0,3.17,2.08A10.24,10.24,0,0,0,428.58,163.18Zm.55-15.31H430a25.42,25.42,0,0,0,5.14-.76c-.07,0,0,0,.33-.11v3.17c-1.53.15-3,.22-4.48.22h-2.52A43,43,0,0,1,424,150l-.22-.11-.66-3.06.11-.11a7.73,7.73,0,0,0,.87.22A19.37,19.37,0,0,0,429.13,147.87Z"/><path d="M463.69,149l2.4,2.73v.22a39.92,39.92,0,0,0-10.6,4.48,13.24,13.24,0,0,0-3.4,3.28,3.88,3.88,0,0,0-.65,1.86V162a3.36,3.36,0,0,0,2.08,3,8.43,8.43,0,0,0,3.72.66H458a23.05,23.05,0,0,0,6.34-.87l.22,3.28c-1.89.14-3.72.22-5.47.22h-1.64a9.92,9.92,0,0,1-5.79-1.21,5.44,5.44,0,0,1-2.85-4.92v-.55c.08-2.47,1.57-4.74,4.49-6.78a1.09,1.09,0,0,1,.54-.44,43.74,43.74,0,0,0-3.5-9.18l3-.55a63.83,63.83,0,0,1,3.28,8.2l3.94-2A12.71,12.71,0,0,0,463.69,149Z"/><path d="M479,145.47l3.72.87c-.07.22-.18.51-.33.88-.14.21-.25.4-.33.54a8.51,8.51,0,0,0-.22,1.21,1.78,1.78,0,0,0-.1.54,9.91,9.91,0,0,0-.22,1.31,4.55,4.55,0,0,0-.22,1.1,2.93,2.93,0,0,1,.87-.11,7.34,7.34,0,0,1,.88-.11,3.19,3.19,0,0,0,.65-.11h1.1a5.11,5.11,0,0,1,2.08.44,2.71,2.71,0,0,1,1.09,2.19v1.31a29.24,29.24,0,0,1-1,6.89c-.52,2.48-1.5,3.9-3,4.26a7.92,7.92,0,0,1-3.39.77h-.76c-.22-.51-.51-1.13-.88-1.86-.22-.44-.36-.77-.44-1l.11-.22a4,4,0,0,1,.77.11,7.92,7.92,0,0,0,1.53.22h.44a2.46,2.46,0,0,0,2.29-1.43,16.61,16.61,0,0,0,1-2.95,26,26,0,0,0,.65-5,1.25,1.25,0,0,0-1.53-1.31c-.36.07-.91.14-1.64.22l-1.64.32a35.64,35.64,0,0,1-6,12.14l-.22.11a11,11,0,0,0-1.75-.76,4.71,4.71,0,0,0-.88-.44v-.22a27.72,27.72,0,0,0,3.94-5.58,24.83,24.83,0,0,0,1.64-3.72,7.34,7.34,0,0,0,.44-1,29.3,29.3,0,0,0-3.28,1.09,1.6,1.6,0,0,1-1,.33l-1.2-3.06.22-.22a3.19,3.19,0,0,1,.65.11,1.84,1.84,0,0,0,.88,0c.51-.07,1.28-.22,2.3-.44s1.64-.36,2.07-.43a2.17,2.17,0,0,1,.11-.66,23.8,23.8,0,0,0,.55-5.14Zm16.74,10.6-.11.22-2.3,1.32a35.87,35.87,0,0,0-5.36-7.44v-.33l2.08-1.2A31.07,31.07,0,0,1,495.74,156.07Zm.76-7.32V149l-1.42,1.2h-.22a8.49,8.49,0,0,0-2.62-2.85v-.21l1.31-1.1h.22A24,24,0,0,1,496.5,148.75ZM495,145v-.22l1.31-1.09h.22a1.18,1.18,0,0,0,.33.21c.51.44,1.09,1,1.75,1.64a1.81,1.81,0,0,1,.66,1.1l-1.32,1.2h-.22A11.32,11.32,0,0,0,495,145Z"/><path d="M499.89,149.84h.66a14.68,14.68,0,0,0,3.28-.55l1.31-.32q2.08-.56,4.05-1,3.6-.87,7.11-1.53a22.38,22.38,0,0,0,4.37-1,3.3,3.3,0,0,0,.33,1.2,3.74,3.74,0,0,1,.22,1.64l-1.53.33a7.68,7.68,0,0,0-3.72,1.2,8.69,8.69,0,0,0-3.17,4.7,15.42,15.42,0,0,0-.66,3.83V159a5.77,5.77,0,0,0,1.64,4.26,6.38,6.38,0,0,0,4.27,1.64h.54a7.41,7.41,0,0,0,1.75-.21V168h-.87a13,13,0,0,1-6.89-1.86,8.6,8.6,0,0,1-3.28-6.89v-.55q0-4.26,3.39-9-4.38,1.1-8.75,2.41a4,4,0,0,1-.77.22,3,3,0,0,0-1.53.87l-1.75-3.06ZM520,151.37l1.53-1.42c.22.22.51.55.87,1a17.48,17.48,0,0,1,1.75,2l-1.53,1.32A17.5,17.5,0,0,0,520,151.37Zm3-2.19,1.53-1.31a18.31,18.31,0,0,1,2.52,2.85L525.38,152A23.57,23.57,0,0,0,523,149.18Z"/><path d="M545.83,146h.22a7.48,7.48,0,0,1,1,2.3,11.85,11.85,0,0,1-2.62,1.09c-.37.15-.66.26-.88.33a11.2,11.2,0,0,1,.88,1.53,14.92,14.92,0,0,1,.76,1.53c.44-.14,1.1-.4,2-.76l2-.66h.33l1,2-.11.33-1.2.33a11.8,11.8,0,0,1-1.31.43,4.52,4.52,0,0,1-1.42.44,2.86,2.86,0,0,1,.32.66,47.28,47.28,0,0,0,3.07,4.26.28.28,0,0,0,.11.22,1.62,1.62,0,0,1,.43.88l-2.4,2.29a15.65,15.65,0,0,0-8.75-2.29h-.66a5.21,5.21,0,0,0-2.3.43,2,2,0,0,0-1,2.41q.1.44,1.2,1.2a5.46,5.46,0,0,0,2.52.88,16.59,16.59,0,0,0,3.28.33h.55a8.37,8.37,0,0,0,1.31-.11l-.22,3.06h-.77c-6.78-.37-10.31-2.33-10.6-5.91v-.54a4.26,4.26,0,0,1,2.18-3.17,10.09,10.09,0,0,1,4.38-1h1.09a18.8,18.8,0,0,1,5.47,1h.11c-.15-.22-.37-.59-.66-1.1s-.69-1.42-1.42-2.73a11.28,11.28,0,0,1-2.3.43,51.41,51.41,0,0,1-6,.55l-.22-.11-1.31-2.08.11-.21h.76a35.84,35.84,0,0,0,6.24-.55,4.75,4.75,0,0,0,1.53-.22L541,150.39a34.81,34.81,0,0,1-4.71,1,5.31,5.31,0,0,0-.65-1,4.3,4.3,0,0,1-.44-.66,1.59,1.59,0,0,1-.44-.76h.33c1.46-.22,3-.51,4.7-.88a7,7,0,0,0-.54-1.31l-.66-1.31a.6.6,0,0,0-.22-.44,3.16,3.16,0,0,1-.11-.66l3-.55c.43,1.25.87,2.41,1.31,3.5A29.87,29.87,0,0,0,545.83,146Z"/><path d="M566.17,144.26h.22l3.28.88v.33a2.61,2.61,0,0,0-1.09,1.75,10.19,10.19,0,0,0-.66,1.85,2.63,2.63,0,0,1-.22.66l3.61-.66a3.53,3.53,0,0,0,.77-.21l.22.11v2.84q-2.62.44-5.25.66a3.71,3.71,0,0,1-.11.54c.07-.14,0-.07-.11.22a63.85,63.85,0,0,1-5.8,15l-2.95-.88-.11-.22a87.78,87.78,0,0,0,6.34-14.55,15.32,15.32,0,0,1-2.18.11c-1,.08-1.68.11-2.19.11l-.22-.11-.44-2.62.11-.22c.29,0,.77,0,1.42.11a12.46,12.46,0,0,0,1.32.11H563c.66,0,1.35,0,2.08-.11a4.15,4.15,0,0,0,.22-.66,17.35,17.35,0,0,0,.87-4.37Zm14.77,20.13-.33,3.06a28.34,28.34,0,0,1-3.61.22h-1.09a22.42,22.42,0,0,1-4.82-.55,2,2,0,0,1-.43-.11q-.76,0-1-.33l-.11-2.51a7,7,0,0,0,1,.22,29.42,29.42,0,0,0,4.81.54h.55A24,24,0,0,0,580.94,164.39Zm-6.35-10.72h1c1.17,0,2.41,0,3.72.11l.11,2.95-.11.11a24.15,24.15,0,0,0-4.71-.66H573.5a9.14,9.14,0,0,0-2.41.33l.44-2.73H573C573.68,153.71,574.23,153.67,574.59,153.67Z"/><path d="M610.47,156.07v.77a9.92,9.92,0,0,1-3,6.89,13.59,13.59,0,0,1-5.47,3.94c0,.14-.08.14-.22,0a10,10,0,0,0-2.52-1.64v-.22q7.88-3.72,8-9.52v-.54a7.09,7.09,0,0,0-2.41-5,8.65,8.65,0,0,0-4.59-2,60.72,60.72,0,0,1-2.41,8,51.54,51.54,0,0,1-3.39,7.11c-1,1.75-2.11,2.63-3.5,2.63q-3.29-.12-5.47-3.72a7.73,7.73,0,0,1-1.09-3.72v-.55a10.26,10.26,0,0,1,.87-3.61,13.15,13.15,0,0,1,2-3.28,12.35,12.35,0,0,1,5.91-4.48,15.71,15.71,0,0,1,5-1.1h1.2a11,11,0,0,1,8,3A10.33,10.33,0,0,1,610.47,156.07Zm-23.08,1.86v.55a6,6,0,0,0,1.1,3.39,2.47,2.47,0,0,0,2.07,1.31,2.77,2.77,0,0,0,1.86-1.31,19.86,19.86,0,0,0,1.1-2c.14-.36.25-.62.32-.76a36.8,36.8,0,0,0,3.72-10.39,17.37,17.37,0,0,0-4.15,1.09,14.81,14.81,0,0,0-4.49,4A8.53,8.53,0,0,0,587.39,157.93Z"/><path d="M611.89,149.84h.66a14.68,14.68,0,0,0,3.28-.55l1.31-.32q2.08-.56,4.05-1,3.6-.87,7.11-1.53a22.38,22.38,0,0,0,4.37-1,3.3,3.3,0,0,0,.33,1.2,3.74,3.74,0,0,1,.22,1.64l-1.53.33a7.68,7.68,0,0,0-3.72,1.2,8.69,8.69,0,0,0-3.17,4.7,15.42,15.42,0,0,0-.66,3.83V159a5.77,5.77,0,0,0,1.64,4.26,6.38,6.38,0,0,0,4.27,1.64h.54a7.41,7.41,0,0,0,1.75-.21V168h-.87a13,13,0,0,1-6.89-1.86,8.6,8.6,0,0,1-3.28-6.89v-.55q0-4.26,3.39-9-4.38,1.1-8.75,2.41a4,4,0,0,1-.77.22,3,3,0,0,0-1.53.87l-1.75-3.06ZM632,151.37l1.53-1.42c.22.22.51.55.87,1a17.48,17.48,0,0,1,1.75,2l-1.53,1.32A17.5,17.5,0,0,0,632,151.37Zm3-2.19,1.53-1.31a18.31,18.31,0,0,1,2.52,2.85L637.38,152A23.57,23.57,0,0,0,635,149.18Z"/><path d="M651.59,166.57l-2.18,2.19-5.91-6.45,2.08-1.86Z"/><path d="M179.75,206.7a14.72,14.72,0,0,0-1-1.2c-.44-.59-.73-1-.88-1.21a40.6,40.6,0,0,0,5.91-12.9l2.95.43c-.44,1.39-.91,2.74-1.42,4.05h6.78v2.74a24.47,24.47,0,0,1-11.48,18.81,16.69,16.69,0,0,0-1.21-1.42,6.93,6.93,0,0,1-.87-1,22.91,22.91,0,0,0,7.43-7c-.29-.22-.72-.58-1.31-1.09-1.09-.95-2-1.68-2.62-2.19l1.75-2.19,3.61,2.85a26,26,0,0,0,1.86-6.78h-5A48.7,48.7,0,0,1,179.75,206.7Zm14.66,10.72v-26h3v9.18l1.31-1.09q3,2.73,6.24,6.13l-2.19,2a64.37,64.37,0,0,0-5.36-5.58v15.42Z"/><path d="M207.42,207.58c-.58-1-1.09-1.9-1.53-2.63,1.68-2,2.44-4.78,2.3-8.42v-3.94h10.5V199h-8.1a5.83,5.83,0,0,1-.11,1,3.44,3.44,0,0,1-.1,1h8.42v6.46h-8.75v-6A15.51,15.51,0,0,1,207.42,207.58Zm1.21,4.37v-2.19H218v-2.08H221v2.08h9.3V212H221v2.41h11.6v2.29H206.44v-2.29H218V212Zm2.07-17.28v2.4h5.47v-2.4Zm1.75,8.31v2.52h3.94V203Zm7.11-1.53v-2.19h3.07a4.08,4.08,0,0,0-.66-1c-.51-.95-.88-1.61-1.09-2l1.53-.22h-2.52V193.9h4.81l-1-2.29,2.84-.44a16.73,16.73,0,0,1,.88,2.73h4.37v2.19h-2.62l1.53.22c-.29.44-.69,1.09-1.2,2l-.66,1h3.5v2.19h-5.25v2.19h4.48v2.18h-4.48v2.41h-2.73v-2.41h-4.27v-2.18h4.27v-2.19Zm5.58-2.52-1.75.33h3c.73-1.31,1.32-2.37,1.75-3.17h-4.7c.37.51.47.69.33.55A26.78,26.78,0,0,1,225.14,198.93Z"/><path d="M238.38,200.57c-1.32-.94-2.7-1.85-4.16-2.73l1.31-2q1.86,1,4.27,2.41ZM236.63,212v-2.19h9.29v-1.53h3v1.53h9.51V212h-9.51v2.3h11.7v2.29H234.33v-2.29h11.59V212Zm.65-3.39-2.4-1.31q1.85-3.06,3.5-6.24a13.3,13.3,0,0,0,1.53.77,5,5,0,0,0,.87.44C239.83,203.82,238.67,205.93,237.28,208.56Zm3.17-12.47c-.65-.44-1.6-1-2.84-1.75a13.7,13.7,0,0,1-1.42-.87l1.42-2.08q2.07,1.1,4.37,2.51Zm.55,12c-.37-.65-.77-1.31-1.2-2a33.14,33.14,0,0,0,5.68-3l1.43,1.64C244.72,206.15,242.75,207.25,241,208.12Zm4.27-9.4v-1.43c-.3.15-.77.37-1.43.66a20.12,20.12,0,0,1-1.86.77c-.51-.81-1-1.57-1.42-2.3a22.76,22.76,0,0,0,9.19-5.36l2.95.33-.65.65a27.26,27.26,0,0,0,8.53,4.16,4.16,4.16,0,0,1-.33.55,14.45,14.45,0,0,0-1,1.86,1.1,1.1,0,0,0-.44-.22,20.56,20.56,0,0,1-2.95-1.32v1.65h-3.94v1.85h7.11v2.19h-7.11v2.3c.07,2.11-.88,3.14-2.85,3.06-.94.08-2,.11-3.06.11a11.58,11.58,0,0,0-.44-2.08c.88.08,1.68.11,2.41.11a1.16,1.16,0,0,0,1.31-1.31v-2.19h-7.54v-2.19h7.54v-1.85Zm5.25-5.15a19.88,19.88,0,0,1-4.49,3.18h9.3A23.41,23.41,0,0,1,250.52,193.57Zm8.31,14.55a29,29,0,0,0-3.28-1.75c-1-.44-1.68-.8-2.19-1.09l1.2-1.75a1.34,1.34,0,0,0,.44.22,52.94,52.94,0,0,1,5.14,2.4Z"/><path d="M262.44,207.25v-2.41h12a14.32,14.32,0,0,0-1-1.86l2.74-.44a12.78,12.78,0,0,1,.66,1.32,10.21,10.21,0,0,0,.54,1h11.16v2.41H277.09a16.79,16.79,0,0,0,2.63,3.17q3.5-1.75,5.36-2.74l1.42,2.3-4.59,2.08a28.72,28.72,0,0,0,6.56,2.19,9,9,0,0,0-1.2,1.86l-.33.65q-9-2.3-12.14-8.53c-1,.88-2.08,1.72-3.17,2.52v3.61c1.82-.59,3.75-1.13,5.79-1.64a12.81,12.81,0,0,1-.11,1.42v1.2a44.38,44.38,0,0,0-5.9,1.53,6.54,6.54,0,0,0-1.32.44,3.19,3.19,0,0,0-.65.22l-1.31-2a2.08,2.08,0,0,0,.87-1.75v-1.42a30.25,30.25,0,0,1-5.58,2.29q-.33-.65-1.2-2.4a32.59,32.59,0,0,0,10.06-5Zm1-4.38-1.09-2.73a72.29,72.29,0,0,0,7-3.17v-5.69h2.73v12.14h-2.73v-3.61C267.58,200.68,265.61,201.71,263.42,202.87Zm3-5.58q-1.65-1.74-3.4-3.5l2.08-1.53q1.76,1.53,3.39,3.17Zm6.89-.54v-2.41h6.12v-3.06h2.74v3.06h6.34v2.41h-6.34v2.95h5.57V202H274v-2.3h5.36v-2.95Z"/><path d="M298.53,192.59H299l3.5.88v.21a2.42,2.42,0,0,0-.88,1.54c-.07.21-.18.54-.32,1-.3.8-.51,1.46-.66,2,1.46-.37,2.88-.69,4.27-1l.21.11-.32,2.85c-1.61.29-3.25.51-4.93.65a88.81,88.81,0,0,1-2.84,8.43,43.73,43.73,0,0,1-3.28,7.32l-.11.11-3.28-1.2a35.57,35.57,0,0,0,4.7-9.19,36.53,36.53,0,0,0,1.31-3.5c.29-.8.51-1.38.66-1.75h-3.94c-.22,0-.36,0-.43-.11l-.44-2.73c.36,0,.91,0,1.64.11s1.27.11,1.64.11h2.3a17.58,17.58,0,0,0,.76-5.14Zm9.3,20.78h1.09a12.1,12.1,0,0,0,4.49-.65l-.22,2.95a23.14,23.14,0,0,1-3.83.33h-.77a22.25,22.25,0,0,1-6.56-1.21l.44-2.4a3.89,3.89,0,0,0,.76.22A21,21,0,0,0,307.83,213.37Zm.11-11.48h1a15,15,0,0,1,2.19.22,9.48,9.48,0,0,0,1.09.11l-.11,2.95a18.1,18.1,0,0,0-4.15-.66h-.88a18.93,18.93,0,0,0-2.29.22,5.07,5.07,0,0,1-.88.11l.22-2.62a12.31,12.31,0,0,0,1.31-.11A22.28,22.28,0,0,1,307.94,201.89Zm1.42-4.6v-.22l1.42-1.31c0-.14.07-.14.22,0a12.6,12.6,0,0,1,2.52,2l.54.55-.22.22-.11.11a3.28,3.28,0,0,1-1.31,1.09c0,.07-.07.07-.22,0C311.26,199,310.31,198.17,309.36,197.29Zm2.62-2.62L313.3,193a4.06,4.06,0,0,1,1.42.76,2.21,2.21,0,0,0,.55.44,15.39,15.39,0,0,0,1.31,1.2v.33l-1.53,1.31c0,.08-.08.08-.22,0a17.42,17.42,0,0,0-1.42-1.2,10.86,10.86,0,0,0-1.43-1.09Z"/><path d="M322.81,204.18v1.21a12.52,12.52,0,0,0,.88,5.25h.22a6,6,0,0,0,1-1.53,7.29,7.29,0,0,1,.55-1.1h.22l.87.66a18.68,18.68,0,0,0-1.31,6.12v.66a9.57,9.57,0,0,0-1.2.11,9.7,9.7,0,0,1-1.21.11,8.56,8.56,0,0,1-1.2-2.08,21.87,21.87,0,0,1-1.42-8.09V204a27.71,27.71,0,0,1,.87-6.9,5,5,0,0,0,0-3.6,10.11,10.11,0,0,1,3.5.87,4.15,4.15,0,0,1-.33,1.31,1.71,1.71,0,0,0-.21.66A31.54,31.54,0,0,0,322.81,204.18Zm12-10.71,4.05.21a3.38,3.38,0,0,1-.22,1,1.8,1.8,0,0,0-.22.65,10.76,10.76,0,0,0-.11,1.43v.87c0,.66,0,1.35.11,2.08,1.32-.36,2.63-.69,3.94-1l.33,2.62a23.62,23.62,0,0,1-4.16,1v1.86a18.49,18.49,0,0,1-.76,6.79,11.72,11.72,0,0,1-4.49,5.9h-.11a.85.85,0,0,1-.32-.11,1,1,0,0,0-.33-.11,14.37,14.37,0,0,0-2-1.09l-.11-.11a12,12,0,0,0,4.37-4.48c.81-1.54,1.17-3.83,1.1-6.9v-1.31c-1.46.08-3,.11-4.49.11H329.7l-1-2.84.11-.22a9.57,9.57,0,0,1,1.2.11,17.39,17.39,0,0,0,2.41.22H334a15.64,15.64,0,0,0,1.86-.11A21.85,21.85,0,0,0,334.84,193.47Z"/><path d="M352.89,196.09V197c.66,1.31,1.31,2.58,2,3.82a.62.62,0,0,0,.44-.22,7.54,7.54,0,0,0,1-.43,27.53,27.53,0,0,1,4.7-2,15.29,15.29,0,0,1,5.47-1.2H367a6.84,6.84,0,0,1,3.61,1,4.86,4.86,0,0,1,2,3.83v.65a5.26,5.26,0,0,1-3.39,4.82,19.78,19.78,0,0,1-6.78,1.42l-1.53-2.41v-.33h.65a17,17,0,0,0,5.25-.65q3.5-1.53,2.3-4.27a3.74,3.74,0,0,0-2.95-1.42h-.44a14.24,14.24,0,0,0-4.71,1.2q-.54.22-.87.33c-1.31.59-2.63,1.2-3.94,1.86l-.11.11c.22.37.51.91.88,1.64a12.11,12.11,0,0,1,.87,1.64c1.9,3.58,3.21,6.27,3.94,8.1v.32L359.23,216H359q-1.54-3.94-5.47-11.71c-.22.15-.59.37-1.1.66a21.81,21.81,0,0,0-2.73,1.64l-.22.22q-.56.44-.87.33l-2.3-3a12.87,12.87,0,0,0,4.15-1.42,7.13,7.13,0,0,0,.77-.33,4.6,4.6,0,0,1,.55-.21,1,1,0,0,1,.54-.22c-.14-.22-.36-.59-.65-1.1a4.41,4.41,0,0,0-.44-1,2.42,2.42,0,0,1-.44-.88,20.07,20.07,0,0,0-1.31-1.86l.11-.21,3.06-.88Zm3.06-1.42,1.75-1.86a16.32,16.32,0,0,1,4.38,3.28L360,197.84A16.51,16.51,0,0,0,356,194.67Z"/><path d="M390.84,197.18h.55a6.16,6.16,0,0,1,6.56,6.24V204a5.93,5.93,0,0,1-1,3.28,10.07,10.07,0,0,1-3,2.84,13.49,13.49,0,0,1-6.57,2.3l-1.75-2.08a16.19,16.19,0,0,0,6.57-2.08c2.18-1.31,3.28-2.88,3.28-4.7v-.44c-.3-2.11-1.79-3.35-4.49-3.72h-.43a10.47,10.47,0,0,0-3.39.55c-.88.29-1.75.62-2.63,1-.29.15-.69.33-1.2.55a30.81,30.81,0,0,0-3.17,1.75c-.08,0-.15.07-.22.22a.86.86,0,0,1-.77.22L377,201c2.05-.51,4.05-1.09,6-1.75a1.55,1.55,0,0,0,.44-.11Q388.11,197.08,390.84,197.18Z"/><path d="M404.08,197.84h.33l9.51-2c4.16-.87,7.29-1.49,9.41-1.86,1.09-.22,2.19-.4,3.28-.54l.22,3.17h-.66c-3.35,0-5.87.91-7.54,2.73a10.39,10.39,0,0,0-2.85,7.33v.44a5.76,5.76,0,0,0,1.53,4.26q1.53,1.65,4.82,1.53H424v3.29h-1.65a10.29,10.29,0,0,1-6.89-2.41,8.58,8.58,0,0,1-2.29-6.34v-1.1a13.43,13.43,0,0,1,3.5-8.53c-1,.22-2.41.58-4.38,1.09-.95.22-1.68.41-2.19.55l-1,.33a12.29,12.29,0,0,0-3.28,1.2Z"/><path d="M440.5,191.72h.44l3.17.87v.22a1.7,1.7,0,0,0-.55.87c-.14.3-.25.51-.32.66-.3.95-.55,1.93-.77,2.95a.84.84,0,0,1-.11.33,4.47,4.47,0,0,1-.22.55h2.08a10.74,10.74,0,0,0,1.86-.22,3.16,3.16,0,0,1,.66-.11l-.55,2.73a.41.41,0,0,1-.33.11h-4.27c-.07.51-.14,1.21-.21,2.08-.15,1-.26,1.83-.33,2.41a18.3,18.3,0,0,0,5.25.11v.44l-.44,2.18a.41.41,0,0,1-.33.11h-2.29c-.81,0-1.65,0-2.52-.11v.77a3.38,3.38,0,0,0-.11.76v1.1a4.07,4.07,0,0,0,1.09,2.84,3.93,3.93,0,0,0,2.52,1h.66a4.73,4.73,0,0,0,3.17-1.1,4.47,4.47,0,0,0,1.09-2.95v-.44q0-1.86-2.08-5.14a2.81,2.81,0,0,0-.32-.55l3.17-.21a9.46,9.46,0,0,1,2.4,6.12v.55a6.36,6.36,0,0,1-2.29,4.81,6.78,6.78,0,0,1-4.82,1.64h-.65a6.89,6.89,0,0,1-4.71-1.86c-1.16-.95-1.75-2.59-1.75-4.92v-1.09a14.55,14.55,0,0,1,.11-1.75,15.92,15.92,0,0,0-1.75-.55,11.25,11.25,0,0,0-1.86-.55l.22-2.73a15.83,15.83,0,0,0,3.72,1.09v-.55a13.62,13.62,0,0,0,.44-2c.15-.81.25-1.43.33-1.86-.88-.22-1.68-.44-2.41-.66q-.87-.1-.87-.33l.22-2.73a22.45,22.45,0,0,0,3.39,1c.07-.22.18-.62.32-1.2a8.59,8.59,0,0,1,.22-1.1,5,5,0,0,1,.11-.76,13,13,0,0,0,.22-2.08Z"/><path d="M462.92,197.51l3.07.66a43.66,43.66,0,0,0-1,8.2c2.7-2.19,5.32-3.28,7.88-3.28h.76a9.29,9.29,0,0,1,4.92,1.2,5.54,5.54,0,0,1,2.3,4.16V209a6.56,6.56,0,0,1-2.3,4.81,16.12,16.12,0,0,1-5,2.41,5.47,5.47,0,0,1-2.62.65l-1.42-2.4v-.11a36.88,36.88,0,0,0,4.37-1q3.72-1.53,3.72-3.94V209c-.15-2-1.5-3.07-4.05-3.28h-.44a11.88,11.88,0,0,0-4.37,1.09,7.35,7.35,0,0,0-3.5,3.5l-3.17-1.09.33-2.74c.36-3.43.54-6,.54-7.76Zm2.3-3.83,1.86-2.07a4.25,4.25,0,0,1,.87.43,36.93,36.93,0,0,1,4.82,2.41v.22l-1.86,2A30.31,30.31,0,0,0,465.22,193.68Z"/><path d="M487.31,196.09l.11-.11c1.32.22,2.55.48,3.72.77a2.39,2.39,0,0,1-.22.76,5,5,0,0,0-.22,1.21,7,7,0,0,0-.11,1.31v.76a20.54,20.54,0,0,0,.44,4.6,39.35,39.35,0,0,0,1.53,4.37c.51,1.17,1.13,1.75,1.86,1.75a2.56,2.56,0,0,0,1.64-.76,9,9,0,0,0,1.75-2.08H498l1.31,2q.23.11,0,.33a4.77,4.77,0,0,1-1.53,2,5.14,5.14,0,0,1-3.61,1.54q-2.62,0-4.15-3.39a22,22,0,0,1-.77-2.19,6,6,0,0,0-.44-1.42q-.64-3.08-1-6.13a9.48,9.48,0,0,0-.11-1.09,7,7,0,0,0-.22-1,15.89,15.89,0,0,0-.11-1.64A7.73,7.73,0,0,0,487.31,196.09Zm16.3,2.84,2.52-.76h.21a36.91,36.91,0,0,1,4.27,7.11,7.17,7.17,0,0,1,1,2.4L509,208.89h-.44a30.38,30.38,0,0,0-5-9.63Z"/><path d="M526.8,192.37l3.39.33.11.11a5,5,0,0,0-.44.87,1.17,1.17,0,0,1-.22.44v.44c-.07.58-.14,1.24-.22,2,.8-.07,1.93-.22,3.39-.44a12.32,12.32,0,0,0,1.43-.22l-.22,2.52a28.34,28.34,0,0,1-4.6.54,9.3,9.3,0,0,1,.11,1.75c.07.73.11,1.32.11,1.75h.22a21.7,21.7,0,0,0,4.81-.76l-.43,2.51a18.16,18.16,0,0,1-4.38.77q.1,2.52.33,5.25a19.16,19.16,0,0,1,6.12,3.39l-1.31,2a18,18,0,0,0-4.7-2.52,3.53,3.53,0,0,1-2.19,3.18,7.26,7.26,0,0,1-3.39.65h-1a5.48,5.48,0,0,1-4-1.42,3,3,0,0,1-.88-3.61,4.5,4.5,0,0,1,2.08-1.75,11.06,11.06,0,0,1,3.72-.66h1.09a9.64,9.64,0,0,1,1.64.22c-.43-.14-.36-.14.22,0a28.21,28.21,0,0,0-.22-3,15.25,15.25,0,0,1-.1-1.53h-2.3A34.69,34.69,0,0,1,521,205l-.22-.11-.54-2.41v-.21c.29.07.65.14,1.09.21a19.77,19.77,0,0,0,3.06.33h2.74c0-1.09,0-2.37-.11-3.83h-.66c-1.9,0-3.72-.07-5.47-.21l-.22-.11-.65-2.52a14.76,14.76,0,0,1,2.18.22,25,25,0,0,0,2.74.22H527v-1.21A25.8,25.8,0,0,0,526.8,192.37Zm-2.41,19.14h-.65c-1.68.15-2.56.77-2.63,1.86.07.44.44.77,1.09,1a14,14,0,0,0,1.64.11h.66a4.83,4.83,0,0,0,2.41-.44,2.19,2.19,0,0,0,.76-1.75v-.44a9.48,9.48,0,0,1-1.09-.11A19.07,19.07,0,0,0,524.39,211.51Z"/><path d="M547.47,192.59h.22l3.5.66a11.83,11.83,0,0,1-.33,1.42v15.09a5.05,5.05,0,0,0,.66,3,3,3,0,0,0,2.29,1.09h.66a4.11,4.11,0,0,0,1.86-.44,11.32,11.32,0,0,0,2.51-1.2,12.12,12.12,0,0,0,3.07-2.74h.22l1.31,2.52c.14.15.14.22,0,.22a13.49,13.49,0,0,1-4.6,3.28,9.81,9.81,0,0,1-4.81,1.2h-.33a6.38,6.38,0,0,1-3.61-1.09,4.31,4.31,0,0,1-2.18-3.17c-.08-1-.11-2.08-.11-3.17V194.89a6.53,6.53,0,0,0-.22-1.32A6.84,6.84,0,0,1,547.47,192.59Z"/><path d="M580.17,192.26h.22l3.28.88v.33a2.61,2.61,0,0,0-1.09,1.75,10.19,10.19,0,0,0-.66,1.85,2.63,2.63,0,0,1-.22.66l3.61-.66a3.53,3.53,0,0,0,.77-.21l.22.11v2.84q-2.62.44-5.25.66a3.71,3.71,0,0,1-.11.54c.07-.14,0-.07-.11.22a63.85,63.85,0,0,1-5.8,15l-2.95-.88-.11-.22a87.78,87.78,0,0,0,6.34-14.55,15.32,15.32,0,0,1-2.18.11c-1,.08-1.68.11-2.19.11l-.22-.11-.44-2.62.11-.22c.29,0,.77,0,1.42.11a12.46,12.46,0,0,0,1.32.11H577c.66,0,1.35,0,2.08-.11a4.15,4.15,0,0,0,.22-.66,17.35,17.35,0,0,0,.87-4.37Zm14.77,20.13-.33,3.06a28.34,28.34,0,0,1-3.61.22h-1.09a22.42,22.42,0,0,1-4.82-.55,2,2,0,0,1-.43-.11q-.76,0-1-.33l-.11-2.51a7,7,0,0,0,1,.22,29.42,29.42,0,0,0,4.81.54h.55A24,24,0,0,0,594.94,212.39Zm-6.35-10.72h1c1.17,0,2.41,0,3.72.11l.11,2.95-.11.11a24.15,24.15,0,0,0-4.71-.66H587.5a9.14,9.14,0,0,0-2.41.33l.44-2.73H587C587.68,201.71,588.23,201.67,588.59,201.67Z"/><path d="M601.5,212.72a4.4,4.4,0,0,1,4.49-4.49q4,.33,4.37,4.49c-.29,2.47-1.75,3.86-4.37,4.15Q601.94,216.54,601.5,212.72Zm1.75,0c.15,1.45,1.06,2.25,2.74,2.4a2.53,2.53,0,0,0,2.62-2.4A2.67,2.67,0,0,0,606,210,2.72,2.72,0,0,0,603.25,212.72Z"/><path d="M80.44,250.33v-2.74h5.69v-4.05c-.44,0-1.06,0-1.86.11-1.46.15-2.52.22-3.18.22v-.22a18.8,18.8,0,0,0-.43-2.4q7.43-.44,12.79-1l.55,2.63a17,17,0,0,0-2.19.22c-1.24.07-2.18.14-2.84.22v4.26h5.47v2.74H89v3.06l.87-.88c2.56,2,4.23,3.47,5,4.27l-2,2.08q-1.32-1.32-3.94-3.72v10.28H86.13v-10.5a27.25,27.25,0,0,1-5.15,7,27.92,27.92,0,0,0-.87-3.72,20.73,20.73,0,0,0,5.69-7.87ZM95.86,259V242.56h2.73V259Zm1.53,6.12a3.16,3.16,0,0,0-.11-.66,7.71,7.71,0,0,0-.55-2.18c.73.07,2.08.11,4,.11,1.17,0,1.71-.62,1.64-1.86V239.61h2.85v21.76q.11,3.39-3.39,3.61H99.8C98.63,265.05,97.83,265.09,97.39,265.09Z"/><path d="M108.22,254v-2.73h11.92v-2.84l7.66-4.93H110.63v-2.73h21.65v3.39l-9,5.69v1.42h11.38V254H123.31v7c.07,2.63-1.2,3.94-3.83,3.94-1.45.07-3,.11-4.7.11a27.45,27.45,0,0,0-.55-2.95c.66.07,1.9.11,3.72.11q2.3.11,2.19-2.19v-6Z"/><path d="M155.69,245l2.4,2.73v.22a40.15,40.15,0,0,0-10.61,4.48,13.36,13.36,0,0,0-3.39,3.28,3.88,3.88,0,0,0-.65,1.86V258a3.36,3.36,0,0,0,2.08,2.95,8.41,8.41,0,0,0,3.71.66H150a23.05,23.05,0,0,0,6.34-.87l.22,3.28c-1.89.14-3.72.22-5.47.22h-1.64a9.92,9.92,0,0,1-5.79-1.21,5.42,5.42,0,0,1-2.85-4.92v-.55c.07-2.47,1.57-4.74,4.49-6.78a1,1,0,0,1,.54-.43,43.59,43.59,0,0,0-3.5-9.19l3-.55a65.32,65.32,0,0,1,3.28,8.2l3.94-2A13.07,13.07,0,0,0,155.69,245Z"/><path d="M169.47,240.59h.22l3.5.66a14.12,14.12,0,0,1-.33,1.42v15.09a5.05,5.05,0,0,0,.66,3,3,3,0,0,0,2.29,1.09h.66a4.14,4.14,0,0,0,1.86-.44,11.32,11.32,0,0,0,2.51-1.2,12.12,12.12,0,0,0,3.07-2.74h.22l1.31,2.52c.14.15.14.22,0,.22a13.49,13.49,0,0,1-4.6,3.28,9.84,9.84,0,0,1-4.81,1.2h-.33a6.38,6.38,0,0,1-3.61-1.09,4.31,4.31,0,0,1-2.18-3.17c-.08-1-.11-2.08-.11-3.17V242.89a6.35,6.35,0,0,0-.22-1.31A7.1,7.1,0,0,1,169.47,240.59Z"/><path d="M194.08,245.84h.33l9.51-2c4.16-.87,7.29-1.49,9.41-1.86,1.09-.22,2.19-.4,3.28-.54l.22,3.17h-.66c-3.35,0-5.87.91-7.54,2.73a10.39,10.39,0,0,0-2.85,7.33v.44a5.76,5.76,0,0,0,1.53,4.26q1.53,1.65,4.82,1.53H214v3.29h-1.64a10.29,10.29,0,0,1-6.89-2.41,8.58,8.58,0,0,1-2.29-6.34v-1.1a13.43,13.43,0,0,1,3.5-8.53c-.95.22-2.41.58-4.38,1.09-.95.22-1.68.41-2.19.55l-1,.33a12.65,12.65,0,0,0-3.28,1.2Z"/><path d="M220.55,247v-2.62h3.72v-5h2.95v5h3.61V247h-3.61v4.82l3.28-.77V254l-3.28.77v6.89q.1,3.06-3.28,3.28a27.21,27.21,0,0,1-2.74.11c-.14-.87-.32-1.79-.54-2.73h2.07c1.1,0,1.61-.51,1.54-1.53v-5.36l-3.83.87-.33-3.06,4.16-.88V247Zm9.95,16.52-1.42-2.3a8.52,8.52,0,0,0,2-3.06,166.22,166.22,0,0,0,5.79-18.59l3.18.54a191.39,191.39,0,0,1-6.89,20.35c.94-.08,2.4-.15,4.37-.22l4.59-.33q-1.64-4.69-3.39-9l2.85-.87q3.49,9,5.14,14l-2.85.87-.87-2.51q-5.15.11-9.84.65A9.91,9.91,0,0,0,230.5,263.56Z"/><path d="M253.91,249.34h.76a10.41,10.41,0,0,0,3.06-.66c.95-.21,1.9-.47,2.85-.76a10.83,10.83,0,0,1,3.5-.55h.33a4.11,4.11,0,0,1,3.61,2,6.25,6.25,0,0,1,1,3.61v1c-.07,4.53-2.08,8.46-6,11.82a.7.7,0,0,0-.32.11,1,1,0,0,1-.33.11h-.11l-.11-.11a20.06,20.06,0,0,0-2.19-1.64V264a12.72,12.72,0,0,0,6.13-10.61v-.55c-.08-1.89-.88-2.88-2.41-3h-.44a7.52,7.52,0,0,0-2.84.87.77.77,0,0,1-.33.11,10.59,10.59,0,0,0-2.95,1.53l-.22.22c-.29.22-.51.29-.66.22l-2.29-3.17Zm4.59-7,1.09-2.62h.11a35.58,35.58,0,0,0,7.66,2.29l.11.11a7,7,0,0,0-.22,1,18.87,18.87,0,0,0-.44,1.86l-.11.11a8.11,8.11,0,0,1-2.07-.44.35.35,0,0,0-.22-.11c-1-.29-2.48-.73-4.38-1.31-.58-.22-1.06-.4-1.42-.55Z"/><path d="M283.33,241.14h.76a15.56,15.56,0,0,1,1.64.11,9.86,9.86,0,0,0,1.65.22l.1.21a17.79,17.79,0,0,0-.76,4.49,4.06,4.06,0,0,1,1.09-.33c1.1-.36,1.93-.66,2.52-.87l.11,2.73a38.56,38.56,0,0,1-3.94,1.09,18.73,18.73,0,0,0-.11,2v1.86a14.23,14.23,0,0,1,5.91-1.53h.43a8.22,8.22,0,0,1,4.38,1.09,5.06,5.06,0,0,1,2.19,3.94v.55a5.34,5.34,0,0,1-.66,2.62,6.73,6.73,0,0,1-2,2.19,11.6,11.6,0,0,1-5.79,2,29.84,29.84,0,0,0-1.75-2.52,12.06,12.06,0,0,0,3.6-.76A5.69,5.69,0,0,0,295.8,258a3,3,0,0,0,0-2.73,3.94,3.94,0,0,0-3.28-1.53H292a12.35,12.35,0,0,0-5.36,1.53,4.87,4.87,0,0,0,.11.87c0,.37,0,.95.11,1.75.14,1.53.22,2.7.22,3.5v.55a2.75,2.75,0,0,1-1.64,2.62,5.73,5.73,0,0,1-3.18-.54q-3.93-1.42-3.93-3.72a5.22,5.22,0,0,1,1.53-3.39,16.57,16.57,0,0,1,3.83-3,43.9,43.9,0,0,1,0-4.59,12.46,12.46,0,0,0-1.32.11,22.2,22.2,0,0,1-2.62.22H279l-.32-2.74.1-.21a14.1,14.1,0,0,0,2.41.21,13.2,13.2,0,0,0,2.63-.21A47.77,47.77,0,0,0,283.33,241.14Zm.55,15.75a.28.28,0,0,0-.22.11,4.84,4.84,0,0,0-2.3,2.29,1.64,1.64,0,0,0,.44,1.64c.87.73,1.56.88,2.08.44.21-.14.32-.47.32-1a8.26,8.26,0,0,0-.22-1.86v-.88A4.58,4.58,0,0,1,283.88,256.89Zm16.62-9.63.11.11-1.31,2.3h-.22a57.49,57.49,0,0,0-5.36-3.17v-.22l1.31-1.86.22-.11A50,50,0,0,1,300.5,247.26Z"/><path d="M329.16,250c-1.32-.59-2.52-1.13-3.61-1.64v2.07H319v3h9.3V256H319v6.13h10.94v2.4H305v-2.4h10.94V256h-9.29v-2.62h9.29v-3h-6.78v-1.85c-1,.51-2.15,1-3.39,1.64-.15-.22-.33-.51-.55-.88-.51-.8-.87-1.38-1.09-1.75q9.08-3.5,12.47-8.53l3.39.33-.66.87a22.62,22.62,0,0,0,11.38,6.89c-.15.3-.4.77-.77,1.43S329.3,249.71,329.16,250Zm-18.05,11.81c-.58-.73-1.68-2-3.28-3.94l2.19-1.42c.8.88,1.82,2,3.06,3.5-.15-.15,0,0,.33.44Zm6.56-19.47a28.4,28.4,0,0,1-7.11,5.58h14A26,26,0,0,1,317.67,242.34Zm5.8,19.47-2.19-1.42a1.17,1.17,0,0,0,.22-.33c1.46-1.6,2.52-2.81,3.17-3.61l2.41,1.31Q325.65,259.41,323.47,261.81Z"/><path d="M342.17,239.72l3.5.87v.22l-.76.87c-.08.22-.22.59-.44,1.1A4.25,4.25,0,0,1,344,244a19.5,19.5,0,0,0,4.38-1.09v3a30.76,30.76,0,0,1-5.36.88,19.46,19.46,0,0,1-1.64,3.17,8.15,8.15,0,0,1,3.06-.88h.44a5,5,0,0,1,1.09.22l.22.11a4,4,0,0,1,1.31,1.2,4.2,4.2,0,0,1,.88,2.19c.65-.29,1.27-.55,1.86-.76l1-.33a15.35,15.35,0,0,0,2-.77,1.74,1.74,0,0,0,.44-.33c.29-.29.51-.4.65-.32l2.3,2.62v.33a64.09,64.09,0,0,0-7.77,2.08,7.41,7.41,0,0,1,.22,1.86v.76a12.43,12.43,0,0,1-.22,1.86,7.1,7.1,0,0,0-.11,1H346a9.54,9.54,0,0,1,.11-1.21v-3.17a11.11,11.11,0,0,0-2.41,1.42c-1.38.95-1.86,2-1.42,3.07s1.53,1.53,3.72,1.53h.44a25.67,25.67,0,0,0,5.47-.77l.32,3.17a29.12,29.12,0,0,1-4.37.33h-1.64a9.57,9.57,0,0,1-4.49-1,4.06,4.06,0,0,1-2.29-3.18v-.43a6.89,6.89,0,0,1,3.17-5,13.58,13.58,0,0,1,2.19-1.21c.51-.29.91-.51,1.2-.65a2.87,2.87,0,0,0-1.2-2.19,3.65,3.65,0,0,0-2.08.22q-2.42,1.2-5.25,5.79a5.58,5.58,0,0,0-.44.66l-2.73-1.2a50,50,0,0,0,5.9-10H337l-.76-2.62v-.22a13.7,13.7,0,0,0,2.29.22h2.74a1.9,1.9,0,0,0,.11-.44,8.63,8.63,0,0,0,.76-3.5Z"/><path d="M371.59,262.58l-2.18,2.18-5.91-6.45,2.08-1.86Z"/><path d="M392.38,248.58c-1.32-1-2.7-1.86-4.16-2.74l1.31-2q1.86,1,4.27,2.41ZM390.63,260v-2.19h9.29v-1.53h3v1.53h9.51V260h-9.51v2.3h11.7v2.29H388.33v-2.29h11.59V260Zm.65-3.39-2.4-1.31c1.24-2,2.4-4.12,3.5-6.24a13.3,13.3,0,0,0,1.53.77,5,5,0,0,0,.87.44C393.83,251.82,392.67,253.93,391.28,256.56Zm3.17-12.47c-.65-.44-1.6-1-2.84-1.75a13.7,13.7,0,0,1-1.42-.87l1.42-2.08c1.39.73,2.84,1.57,4.38,2.51Zm.55,12c-.36-.65-.76-1.31-1.2-2a33.68,33.68,0,0,0,5.69-3l1.42,1.64C398.72,254.15,396.75,255.25,395,256.12Zm4.27-9.4v-1.43c-.3.15-.77.37-1.43.66s-1.42.62-1.85.77c-.52-.81-1-1.57-1.43-2.3a22.76,22.76,0,0,0,9.19-5.36l2.95.33-.65.65a27,27,0,0,0,8.53,4.16,4.16,4.16,0,0,1-.33.55,15.84,15.84,0,0,0-1,1.86,1.1,1.1,0,0,0-.44-.22,21.68,21.68,0,0,1-2.95-1.31v1.64h-3.94v1.86h7.11v2.18h-7.11v2.3c.07,2.11-.88,3.14-2.85,3.06-.94.08-2,.11-3.06.11a11.58,11.58,0,0,0-.44-2.08c.88.08,1.68.11,2.41.11a1.15,1.15,0,0,0,1.31-1.31v-2.19h-7.54v-2.18h7.54v-1.86Zm5.25-5.14a20.16,20.16,0,0,1-4.49,3.17h9.3A23.75,23.75,0,0,1,404.52,241.58Zm8.31,14.54a29,29,0,0,0-3.28-1.75c-.95-.44-1.68-.8-2.19-1.09l1.2-1.75a1.46,1.46,0,0,0,.44.22,55.46,55.46,0,0,1,5.14,2.4Z"/><path d="M424.75,248.79v.55a6.63,6.63,0,0,0,.44,2.63h.22l1.09-1.75h.33l1.2,1.09c-.14.29-.33.69-.54,1.2a10.8,10.8,0,0,0-1.21,4.27v.44a16.53,16.53,0,0,1-2.62.21,8.7,8.7,0,0,1-1.1-2.84,18.11,18.11,0,0,1-.65-4.92v-.88a28.38,28.38,0,0,1,.43-4,21.44,21.44,0,0,0,.44-3.61c1.1.07,2.15.18,3.17.33a21.93,21.93,0,0,0-.54,2.29A26.22,26.22,0,0,0,424.75,248.79Zm7.66-7.65,3.61-.33.22.11a11.44,11.44,0,0,0,.21,3.72,5,5,0,0,0,.22,1.2A37.62,37.62,0,0,1,437,250v1.75a16.09,16.09,0,0,1-1.2,6.67,16.3,16.3,0,0,1-4.6,6.67c-.07.15-.18.15-.32,0l-2.52-1.2-.11-.22a17.68,17.68,0,0,0,3.94-4.7,16.3,16.3,0,0,0,1.75-7.55v-2.08A19.84,19.84,0,0,0,432.41,241.14Z"/><path d="M455.49,253.06c-.44-.36-1.21-.95-2.3-1.75-.8-.66-1.39-1.13-1.75-1.42a9.75,9.75,0,0,1-3.72,3.5H467.3v12.14h-2.85v-1.31H450.34v1.31H447.5v-12c-.66.29-1.35.62-2.08,1a7.61,7.61,0,0,0-1.09-1.86,4.81,4.81,0,0,0-.33-.44c3.21-1.23,5.1-2.62,5.69-4.15h-5.25v-2.19h5.8V244h-5.15V241.9h5.15l.1-2.51H453l-.11,2.51h3.72V244h-3.83v1.86h4.05V248h-4.16c1.31.8,2.77,1.79,4.38,2.95q3.83-1.42,4.48-2.95h-3.61v-2.19h4.16v-.55a4.87,4.87,0,0,0,.11-.87V244h-4.05V241.9h4.05v-2.51h2.62l-.11,2.51h5V244h-5l-.11,1.53v.33h5.69V248H465c.88,1.68,2.77,2.92,5.69,3.72-.44.73-.88,1.53-1.31,2.4-3.07-1.24-5.07-2.77-6-4.59q-.87,1.86-4.92,3.61A16.85,16.85,0,0,0,457,251Zm-5.15,2.52v2.29h14.11v-2.29Zm0,4.26v2.3h14.11v-2.3Z"/><path d="M476.49,248.68H477a31.06,31.06,0,0,0,5.8-.54,11.54,11.54,0,0,0,3.72-.77,1.18,1.18,0,0,0,.65-.44h.22l2.52,1.54c.14.07.18.21.11.43V249a17.64,17.64,0,0,0-3.5,3.72l-1.31,1.64H486a3.36,3.36,0,0,1,2.08.66,4.47,4.47,0,0,1,.76,2.19,5.45,5.45,0,0,1,.22,1,13.82,13.82,0,0,0,.44,2,1.66,1.66,0,0,0,1.53,1.42h1.31a16.16,16.16,0,0,0,3.94-.55v3a31.3,31.3,0,0,1-3.5.22h-2.29a3.48,3.48,0,0,1-3.07-1.43,9.5,9.5,0,0,1-1.09-3.28,1.84,1.84,0,0,0-.11-.54,7.12,7.12,0,0,0-.22-1.1,1.62,1.62,0,0,0-1.42-1,3.07,3.07,0,0,0-2.3,1.31,57.09,57.09,0,0,0-4.7,6h-.22a20.35,20.35,0,0,0-2.73-1.75v-.11a89.27,89.27,0,0,0,7.65-8.43,19.62,19.62,0,0,0,2.63-3.71l-.11-.22a11.81,11.81,0,0,1-3.28.87,13.1,13.1,0,0,0-2.52.66,1,1,0,0,0-.55.22c-.21.22-.4.29-.54.22Zm7-8.75h.21a35.79,35.79,0,0,0,5.36,2.52,1.57,1.57,0,0,0,.33.22.77.77,0,0,1,.55.33l-.88,2.29-.32.11a34.42,34.42,0,0,1-6.46-3.06v-.22C482.65,241.47,483.05,240.74,483.49,239.93Z"/><path d="M503.61,241.47l3.83,1.2a6.05,6.05,0,0,1-.55,1.42l-.33.88a22.16,22.16,0,0,0-1.75,8.64v.87a10.27,10.27,0,0,0,1.1,5H506q.21-.43.54-1.2a7.71,7.71,0,0,0,.55-1.09l1.2.21c-.07.37-.18.88-.32,1.54a17.52,17.52,0,0,0-.55,3.5v.65l-2.63.55a10.18,10.18,0,0,1-2-4.27,23.74,23.74,0,0,1-.54-5.57v-1.21a29,29,0,0,1,.87-7,15.82,15.82,0,0,0,.44-3.61ZM517.39,259h1a23.14,23.14,0,0,0,6.12-.88l.11,3a15.23,15.23,0,0,1-5,.77h-1.2q-5.14,0-7.77-2.41a2.82,2.82,0,0,1-.87-1.31l2-1.2A7.5,7.5,0,0,0,517.39,259Zm.11-15.1h1.2a42.51,42.51,0,0,1,4.27.22v2.84c-.51,0-1.2,0-2.08-.1s-1.53-.11-2-.11h-1.2a22.82,22.82,0,0,0-3.06.32,17.65,17.65,0,0,1-2.85.33l-.22-3a19.69,19.69,0,0,0,2.52-.22A26.48,26.48,0,0,1,517.5,243.87Z"/><path d="M531.06,265.42V251.86a22.41,22.41,0,0,1-2.29,3.5c-.08-.59-.22-1.35-.44-2.3-.07-.66-.15-1.17-.22-1.53a45.35,45.35,0,0,0,5-12.14L536,240a48,48,0,0,1-2.19,6.35v19Zm22.21-.22q-7.23-.76-10.5-2.62a26,26,0,0,1-6.35,3.06,10.89,10.89,0,0,1-.76-1c-.44-.65-.81-1.16-1.1-1.53a22.74,22.74,0,0,0,5.69-2,16.05,16.05,0,0,1-3.17-3.5l2-1.42a16.13,16.13,0,0,0,3.17,3.17,7.58,7.58,0,0,0,1.2-3.72h-6.78v-8.31h7V245H536v-2.52h7.65v-3.06h3v3.06h7.88V245h-8v2.4h7v8.86h-2.85v-.55h-4.37a10.26,10.26,0,0,1-1.64,5.15q3.06,1.41,9.84,1.64C554,263.41,553.63,264.33,553.27,265.2Zm-9.74-11.92V253a1,1,0,0,0,.11-.44v-2.84h-4.15v3.61Zm3-.66v.66h4.15v-3.61h-4.15Z"/><path d="M560.49,248.68H561a31.06,31.06,0,0,0,5.8-.54,11.54,11.54,0,0,0,3.72-.77,1.18,1.18,0,0,0,.65-.44h.22l2.52,1.54c.14.07.18.21.11.43V249a17.64,17.64,0,0,0-3.5,3.72l-1.31,1.64H570a3.36,3.36,0,0,1,2.08.66,4.47,4.47,0,0,1,.76,2.19,5.45,5.45,0,0,1,.22,1,13.82,13.82,0,0,0,.44,2,1.66,1.66,0,0,0,1.53,1.42h1.31a16.16,16.16,0,0,0,3.94-.55v3a31.3,31.3,0,0,1-3.5.22h-2.29a3.48,3.48,0,0,1-3.07-1.43,9.5,9.5,0,0,1-1.09-3.28,1.84,1.84,0,0,0-.11-.54,7.12,7.12,0,0,0-.22-1.1,1.62,1.62,0,0,0-1.42-1,3.07,3.07,0,0,0-2.3,1.31,57.09,57.09,0,0,0-4.7,6h-.22a20.35,20.35,0,0,0-2.73-1.75v-.11a89.27,89.27,0,0,0,7.65-8.43,19.62,19.62,0,0,0,2.63-3.71l-.11-.22a11.81,11.81,0,0,1-3.28.87,13.1,13.1,0,0,0-2.52.66,1,1,0,0,0-.55.22c-.21.22-.4.29-.54.22Zm7-8.75h.21a35.79,35.79,0,0,0,5.36,2.52,1.57,1.57,0,0,0,.33.22.77.77,0,0,1,.55.33l-.88,2.29-.32.11a34.42,34.42,0,0,1-6.46-3.06v-.22C566.65,241.47,567.05,240.74,567.49,239.93Z"/><path d="M589.14,242.89h1.53a25.86,25.86,0,0,0,8.1-1.1.86.86,0,0,0,.43-.11,1.76,1.76,0,0,1,.66-.21H600l2.84,2.29v.11a11.45,11.45,0,0,0-2.51,2.41l-1.75,2.08q-1.2,1.3-1.86,2.07a11.72,11.72,0,0,0,1.31-.1,8,8,0,0,1,1.2-.11h.55a7.68,7.68,0,0,1,4.81,1.75,6,6,0,0,1,2.08,4.7V257a6.51,6.51,0,0,1-3.28,5.36,9.85,9.85,0,0,1-5.47,1.64h-.44q-5-.44-5.36-3.72v-.44q.33-2.83,3.72-3.17h.55q2.73,0,5.36,3.5a4.73,4.73,0,0,0,1.75-3.39v-.55q-.33-3.06-4.05-3.39h-.54a9.33,9.33,0,0,0-7.33,3.83.33.33,0,0,1-.11.22,1.78,1.78,0,0,1-.55.54l-2.62-2v-.33A41.54,41.54,0,0,0,597.56,245a14.9,14.9,0,0,0-6,1.31c-.08,0-.15.07-.22.22a.86.86,0,0,1-.77.22l-1.42-3.61Zm7.33,18.7H597a4.36,4.36,0,0,0,1.42-.22,1.51,1.51,0,0,0-.77-1.2,2.56,2.56,0,0,0-2.62-.88c-.66.37-.84.84-.55,1.43A2.29,2.29,0,0,0,596.47,261.59Z"/><path d="M627.31,244v2.85a32.84,32.84,0,0,1-4.81,1.2,45.92,45.92,0,0,1-5.69,12.14h-.32l-2.52-1-.11-.21a37.61,37.61,0,0,0,5.69-10.72,30.3,30.3,0,0,1-3.61.22l-.33-3h.88a18.89,18.89,0,0,0,2.4-.11,4.25,4.25,0,0,0,.88-.11h.65a16.16,16.16,0,0,0,.77-4.7v-.66a8.9,8.9,0,0,0,1.64.44,10,10,0,0,1,1.53.44,4.26,4.26,0,0,1-.33,1.42,3.75,3.75,0,0,0-.22,1,4.17,4.17,0,0,1-.11.87,7.73,7.73,0,0,1-.21.88A22.56,22.56,0,0,0,627.31,244Zm.22,4.7h.22l2.52.55a8.17,8.17,0,0,1-.11,1.31c0,1,.07,2.45.22,4.49.07,1.24.11,2.19.11,2.84a24,24,0,0,1,5.79,2.52v.33l-1.09,2.4a1.94,1.94,0,0,1-1.1-.54c-.14-.15-.25-.22-.32-.22a24.22,24.22,0,0,0-3.28-1.43,4.69,4.69,0,0,1-.33,1.86,2.27,2.27,0,0,1-.55.77,1.34,1.34,0,0,1-.22.33,4.69,4.69,0,0,1-3.61,1.2h-.65a4.79,4.79,0,0,1-3.72-1.42,3.29,3.29,0,0,1-.77-3.17,3.82,3.82,0,0,1,1.53-2.08,8.26,8.26,0,0,1,3.94-1h.77a4.2,4.2,0,0,1,1,.11Q627.75,253.06,627.53,248.68Zm-1.64,11.16h-.44a2.47,2.47,0,0,0-2.18,1.09c-.3,1,.18,1.65,1.42,1.86h1c1.39-.07,2.12-.94,2.19-2.62A6.17,6.17,0,0,0,625.89,259.84Zm9.63-8.75h-.22a27.13,27.13,0,0,0-4.81-4.37l1.53-2.08h.22q2,1.43,3.82,3.06a2.34,2.34,0,0,1,1,1.2Z"/><path d="M664.72,256.34l1.31,2.74c.15.14.15.25,0,.32l-.76.77q-4,4.59-7.33,4.48h-.44a3.72,3.72,0,0,1-3.06-1.86,7.66,7.66,0,0,1-.88-3.61c-.07-.51-.18-1.27-.32-2.29s-.15-1.68-.22-2.19-.3-.91-.66-1a4.06,4.06,0,0,0-2.08.76,7.31,7.31,0,0,0-2.08,1.75,18.21,18.21,0,0,0-3.61,6.13l-.43.87a4.31,4.31,0,0,1-.44,1l-2.84-.77a65,65,0,0,1,5-10.39q1.53-2.73,2.29-4.16c.3-.51.73-1.27,1.32-2.29q.54-1,.87-1.53a4.47,4.47,0,0,0,.22-.55,12.33,12.33,0,0,0,1.53-3.94h.44l3.72,1.75v.33a24.56,24.56,0,0,0-3.61,4.26,37.53,37.53,0,0,0-2.3,3.94,12.29,12.29,0,0,0-1.31,2.08,1.17,1.17,0,0,1,.33-.22c.65-.36,1.13-.62,1.42-.76q3.39-1.42,4.59.65a5.45,5.45,0,0,1,.66,2.08v.22a12.64,12.64,0,0,0,.11,1.42c.07,1.31.14,2.3.22,3a2.84,2.84,0,0,0,1.09,2.19,1.9,1.9,0,0,0,2.3,0,16,16,0,0,0,4.26-4.37A9,9,0,0,1,664.72,256.34Z"/><path d="M670.08,245.84h.33l9.51-2c4.16-.87,7.29-1.49,9.41-1.86,1.09-.22,2.19-.4,3.28-.54l.22,3.17h-.66c-3.35,0-5.87.91-7.54,2.73a10.39,10.39,0,0,0-2.85,7.33v.44a5.76,5.76,0,0,0,1.53,4.26q1.53,1.65,4.82,1.53H690v3.29h-1.65a10.29,10.29,0,0,1-6.89-2.41,8.58,8.58,0,0,1-2.29-6.34v-1.1a13.43,13.43,0,0,1,3.5-8.53c-.95.22-2.41.58-4.38,1.09-.95.22-1.68.41-2.19.55l-1,.33a12.65,12.65,0,0,0-3.28,1.2Z"/><path d="M707.59,262.58l-2.18,2.18-5.91-6.45,2.08-1.86Z"/><path d="M202.5,313c-.15-.8-.33-1.68-.55-2.62h6.24c1.67.07,2.55-.44,2.62-1.53a11.43,11.43,0,0,0,.22-2.3h-12.8l.66-3.28q-2.73,1.42-5.69,2.73a28.13,28.13,0,0,0-1.2-2.73,79.63,79.63,0,0,0,11.59-5.47h-11v-2.41h9.08v-2.84h-7v-2.41h7v-2.73h2.84v2.73h6v2.41h-6v2.84h2.84a81.33,81.33,0,0,0,7.44-6.56l2.3,1.75q-2.75,2.52-5.58,4.81h7v2.41H208.08c-1,.65-2,1.31-3.06,2h11.7v2.4H202l-.43,2.08h12.79c-.07.51-.14,1.28-.22,2.3-.14,1.31-.25,2.22-.32,2.73q-.22,3.72-4.6,3.61C208.3,312.94,206.07,313,202.5,313Z"/><path d="M224.48,296.68H225a31.06,31.06,0,0,0,5.8-.54,11.54,11.54,0,0,0,3.72-.77,1.18,1.18,0,0,0,.65-.44h.22l2.52,1.54c.14.07.18.21.11.43V297a17.64,17.64,0,0,0-3.5,3.72c-.59.73-1,1.28-1.32,1.64H234a3.38,3.38,0,0,1,2.08.66,4.47,4.47,0,0,1,.76,2.19,5.45,5.45,0,0,1,.22,1,13.82,13.82,0,0,0,.44,2,1.66,1.66,0,0,0,1.53,1.42h1.31a16.16,16.16,0,0,0,3.94-.55v3a31.3,31.3,0,0,1-3.5.22h-2.3a3.47,3.47,0,0,1-3.06-1.43,9.29,9.29,0,0,1-1.09-3.28,1.84,1.84,0,0,0-.11-.54,7.12,7.12,0,0,0-.22-1.1,1.63,1.63,0,0,0-1.42-1,3.07,3.07,0,0,0-2.3,1.31,57.09,57.09,0,0,0-4.7,6h-.22a21,21,0,0,0-2.73-1.75v-.11a89.27,89.27,0,0,0,7.65-8.43,19.62,19.62,0,0,0,2.63-3.71l-.11-.22a11.81,11.81,0,0,1-3.28.87,13.1,13.1,0,0,0-2.52.66,1,1,0,0,0-.55.22c-.22.22-.4.29-.54.22Zm7-8.75h.22a35.79,35.79,0,0,0,5.36,2.52,1.17,1.17,0,0,0,.33.22.79.79,0,0,1,.55.33l-.88,2.29-.33.11a34.63,34.63,0,0,1-6.45-3.06v-.22Q230.84,289.15,231.48,287.93Z"/><path d="M258.17,288.26h.22l3.28.88v.33a2.61,2.61,0,0,0-1.09,1.75,10.05,10.05,0,0,0-.66,1.86,2.68,2.68,0,0,1-.22.65l3.61-.65a4,4,0,0,0,.77-.22l.22.11v2.84q-2.62.44-5.25.66a3.71,3.71,0,0,1-.11.54l-.11.22a63.85,63.85,0,0,1-5.8,15l-2.95-.88-.11-.22a88.89,88.89,0,0,0,6.34-14.54,17.35,17.35,0,0,1-2.18.1c-.95.08-1.68.11-2.19.11l-.22-.11-.44-2.62.11-.22c.29,0,.77,0,1.42.11a12.46,12.46,0,0,0,1.32.11H255c.66,0,1.35,0,2.08-.11a4.15,4.15,0,0,0,.22-.66,17.27,17.27,0,0,0,.87-4.37Zm14.77,20.13-.33,3.06a28.34,28.34,0,0,1-3.61.22h-1.09a22.42,22.42,0,0,1-4.82-.55,2,2,0,0,1-.43-.11q-.77,0-1-.33l-.11-2.51a7,7,0,0,0,1,.22,29.42,29.42,0,0,0,4.81.54h.55A24,24,0,0,0,272.94,308.39Zm-6.35-10.72h1c1.16,0,2.4,0,3.72.11l.11,3-.11.11a24.15,24.15,0,0,0-4.71-.66H265.5a9.14,9.14,0,0,0-2.41.33l.44-2.73H265C265.68,297.71,266.23,297.67,266.59,297.67Z"/><path d="M288.58,307.18h2.3a34.85,34.85,0,0,0,8.09-1v3.5a45.09,45.09,0,0,1-8.42.66h-1.64a12.19,12.19,0,0,1-5.14-.88,13.16,13.16,0,0,1-3.83-2.84v-.33l1.86-1.64c.07-.15.11-.15.11,0a8.63,8.63,0,0,0,3.17,2.08A10.24,10.24,0,0,0,288.58,307.18Zm.55-15.31H290a25.42,25.42,0,0,0,5.14-.76c-.07,0,0,0,.33-.11v3.17c-1.53.15-3,.22-4.49.22h-2.51A43.49,43.49,0,0,1,284,294l-.21-.11-.66-3.06.11-.11a7.73,7.73,0,0,0,.87.22A19.37,19.37,0,0,0,289.13,291.87Z"/><path d="M323.69,293l2.4,2.73v.22a40.15,40.15,0,0,0-10.61,4.48,13.36,13.36,0,0,0-3.39,3.28,3.88,3.88,0,0,0-.65,1.86V306a3.36,3.36,0,0,0,2.08,2.95,8.41,8.41,0,0,0,3.71.66H318a23.05,23.05,0,0,0,6.34-.87l.22,3.28c-1.89.14-3.72.22-5.47.22h-1.64a9.92,9.92,0,0,1-5.79-1.21,5.42,5.42,0,0,1-2.85-4.92v-.55c.07-2.47,1.57-4.74,4.49-6.78a1,1,0,0,1,.54-.43,43.59,43.59,0,0,0-3.5-9.19l3-.55a65.32,65.32,0,0,1,3.28,8.2l3.94-2A13.07,13.07,0,0,0,323.69,293Z"/><path d="M342.5,287.72h.44l3.17.87v.22a1.7,1.7,0,0,0-.55.87q-.21.45-.33.66c-.29,1-.54,1.93-.76,3a.84.84,0,0,1-.11.33,4.47,4.47,0,0,1-.22.55h2.08a10.74,10.74,0,0,0,1.86-.22,3.19,3.19,0,0,1,.65-.11l-.54,2.74a.47.47,0,0,1-.33.1h-4.27c-.07.52-.14,1.21-.21,2.08s-.26,1.83-.33,2.41a18.3,18.3,0,0,0,5.25.11v.44l-.44,2.18a.41.41,0,0,1-.33.11h-2.3c-.8,0-1.64,0-2.51-.11v.77a3.38,3.38,0,0,0-.11.76v1.1a4.07,4.07,0,0,0,1.09,2.84,3.93,3.93,0,0,0,2.52,1h.66a4.73,4.73,0,0,0,3.17-1.1,4.47,4.47,0,0,0,1.09-2.95v-.44q0-1.86-2.08-5.14a2.29,2.29,0,0,0-.33-.55l3.18-.21a9.46,9.46,0,0,1,2.4,6.12v.55a6.36,6.36,0,0,1-2.29,4.81,6.8,6.8,0,0,1-4.82,1.64h-.65a6.89,6.89,0,0,1-4.71-1.86c-1.16-1-1.75-2.59-1.75-4.92v-1.09a14.55,14.55,0,0,1,.11-1.75,15.92,15.92,0,0,0-1.75-.55,12.34,12.34,0,0,0-1.86-.55l.22-2.73a15.83,15.83,0,0,0,3.72,1.09v-.55a13.62,13.62,0,0,0,.44-2q.21-1.22.33-1.86c-.88-.22-1.68-.44-2.41-.66q-.87-.1-.87-.33l.21-2.73a21.76,21.76,0,0,0,3.4,1c.07-.22.18-.62.32-1.2a8,8,0,0,1,.22-1.09,4.88,4.88,0,0,1,.11-.77,13,13,0,0,0,.22-2.08Z"/><path d="M365.58,293.18h1.64c.36,0,.95,0,1.75-.1h.87a1.9,1.9,0,0,1,.11-.55,25.36,25.36,0,0,0,.22-2.85,7.26,7.26,0,0,0-.11-1.09h.55c.36,0,.87,0,1.53.11a12.31,12.31,0,0,0,1.31.11,1.57,1.57,0,0,1-.22,1.09,1.09,1.09,0,0,0-.21.55,5,5,0,0,1-.22,1.09,8.51,8.51,0,0,1-.22,1.21,4,4,0,0,0,1.2-.22,29,29,0,0,0,4.92-1.1v2.74c-2,.44-4,.84-6,1.2h-.55c-.07.73-.15,1.61-.22,2.63a19.22,19.22,0,0,1,3.39-.66,2,2,0,0,1,.11-.44v-.65c-.07-.15,0-.29.22-.44l2.63.44.11.22-.11.11a5.41,5.41,0,0,0-.33.87,7.17,7.17,0,0,1,4.37,1.64,8.16,8.16,0,0,1,2.52,5.36v.77q-.12,3.93-4.27,6.56a5.24,5.24,0,0,1-2.62,1.09h-.11a11.65,11.65,0,0,0-2.41-2.08,8.5,8.5,0,0,0,4.71-1.75,5.63,5.63,0,0,0,2.07-4v-.33a5.42,5.42,0,0,0-2.29-4.27,4.28,4.28,0,0,0-1.21-.43h-.21a3.94,3.94,0,0,0-1.21-.33,25.68,25.68,0,0,1-4.7,8,17.33,17.33,0,0,0,.76,2c-.21.07-.58.22-1.09.44a3.3,3.3,0,0,1-1.2.33c-.22,0-.4-.22-.55-.66a2.18,2.18,0,0,1-1.2.66,6.63,6.63,0,0,1-4.05,1.64h-.44q-2.52-.12-2.73-3.72v-.44q.1-3.16,3.17-6.45a14.2,14.2,0,0,1,4.05-2.52c0-.44,0-1.13.11-2.08a6.25,6.25,0,0,1,.11-1.09h-1.64c-.81.07-1.43.11-1.86.11h-1.64c-.22,0-.33,0-.33-.11a3,3,0,0,1-.66-1.53v-.11c-.22-.44-.26-.77-.11-1C364.08,293.15,364.85,293.18,365.58,293.18Zm4.15,14-.1-.32a45.75,45.75,0,0,1-.33-5.47,9.67,9.67,0,0,0-4.05,4.15,3.86,3.86,0,0,0-.66,2.19c.08,1.1.55,1.64,1.43,1.64a4.33,4.33,0,0,0,2.73-1.2A6.55,6.55,0,0,1,369.73,307.18Zm2.19-7v2.63a6.89,6.89,0,0,0,.11,2,19.12,19.12,0,0,0,2.85-5.25c-1.25.22-2.12.4-2.63.55A.45.45,0,0,1,371.92,300.18Z"/><path d="M396.75,296.79v.55a6.63,6.63,0,0,0,.44,2.63h.22l1.09-1.75h.33l1.2,1.09c-.14.29-.33.69-.54,1.2a10.8,10.8,0,0,0-1.21,4.27v.44a16.53,16.53,0,0,1-2.62.21,8.7,8.7,0,0,1-1.1-2.84,18.11,18.11,0,0,1-.65-4.92v-.88a28.38,28.38,0,0,1,.43-4,21.44,21.44,0,0,0,.44-3.61c1.1.07,2.15.18,3.17.33a21.93,21.93,0,0,0-.54,2.29A26.22,26.22,0,0,0,396.75,296.79Zm7.66-7.65,3.61-.33.22.11a11.44,11.44,0,0,0,.21,3.72,5,5,0,0,0,.22,1.2A37.62,37.62,0,0,1,409,298v1.75a16.09,16.09,0,0,1-1.2,6.67,16.3,16.3,0,0,1-4.6,6.67c-.07.15-.18.15-.32,0l-2.52-1.2-.11-.22a17.68,17.68,0,0,0,3.94-4.7,16.3,16.3,0,0,0,1.75-7.55v-2.08A19.84,19.84,0,0,0,404.41,289.14Z"/><path d="M428.8,288.37l3.39.33.11.11a5,5,0,0,0-.44.87,1.17,1.17,0,0,1-.22.44v.44c-.07.58-.14,1.24-.22,2,.8-.07,1.93-.22,3.39-.44a10.45,10.45,0,0,0,1.43-.22l-.22,2.52a28.34,28.34,0,0,1-4.6.54,9.3,9.3,0,0,1,.11,1.75c.07.73.11,1.32.11,1.75h.22a21.7,21.7,0,0,0,4.81-.76l-.43,2.51a18.16,18.16,0,0,1-4.38.77q.11,2.52.33,5.25a19.16,19.16,0,0,1,6.12,3.39l-1.31,2a18,18,0,0,0-4.7-2.52,3.53,3.53,0,0,1-2.19,3.18,7.26,7.26,0,0,1-3.39.65h-1a5.48,5.48,0,0,1-4.05-1.42,3,3,0,0,1-.88-3.61,4.5,4.5,0,0,1,2.08-1.75,11.06,11.06,0,0,1,3.72-.66h1.09a9.64,9.64,0,0,1,1.64.22c-.43-.14-.36-.14.22,0a28.21,28.21,0,0,0-.22-2.95,15.25,15.25,0,0,1-.1-1.53h-2.3A34.69,34.69,0,0,1,423,301l-.22-.11-.54-2.41v-.21c.29.07.65.14,1.09.21a19.77,19.77,0,0,0,3.06.33h2.74c0-1.09,0-2.37-.11-3.83h-.66c-1.9,0-3.72-.07-5.47-.21l-.22-.11-.65-2.52a14.76,14.76,0,0,1,2.18.22,25,25,0,0,0,2.74.22H429v-1.2A25.8,25.8,0,0,0,428.8,288.37Zm-2.41,19.14h-.65c-1.68.15-2.56.77-2.63,1.86.07.44.44.77,1.09,1a14,14,0,0,0,1.64.11h.66a4.83,4.83,0,0,0,2.41-.44,2.19,2.19,0,0,0,.76-1.75v-.44a9.48,9.48,0,0,1-1.09-.11A19.07,19.07,0,0,0,426.39,307.51Z"/><path d="M444.55,297.45l.22-.22a13.82,13.82,0,0,0,1.64.11h.65a19.51,19.51,0,0,0,2.08-.11,19.11,19.11,0,0,1,2.41-.22v-2.29a8,8,0,0,0-.55-3.5l3.72.21a.78.78,0,0,1-.11.66l-.11.11a11.43,11.43,0,0,0-.22,2.3v2.18a5.15,5.15,0,0,0,1.42-.1c.59-.08,1.5-.15,2.74-.22a25.06,25.06,0,0,1,2.73-.22v-.77c.08-.73.11-1.24.11-1.53V292a7.68,7.68,0,0,0-.44-2.51h.33a21.06,21.06,0,0,0,3.07.21l.1.11c0,.51,0,1.5-.1,3-.15,2-.22,3.1-.22,3.17a12.2,12.2,0,0,0,2-.11,34.51,34.51,0,0,0,3.93-.22l.44,3.28a10,10,0,0,0-2.95-.44h-1.53c-.44,0-1.13,0-2.08.11v.88a14.17,14.17,0,0,1-.77,4.05c-.44,1.31-1.2,2-2.29,2h-.33a4.6,4.6,0,0,1-1.42-.21v-2.63h.54c.59,0,1-.47,1.1-1.42a10,10,0,0,0,.43-2.08v-.33l-4.48.22c-.51.07-1.28.15-2.3.22q0,4.71.22,6.78c.07,1.53.73,2.34,2,2.41h4.59a24.77,24.77,0,0,0,5.14-.55v3c-.43,0-1.05,0-1.86.11-1.6.15-2.84.22-3.71.22H459.2a11,11,0,0,1-4.59-.54q-2.3-.56-2.73-3.4a13.78,13.78,0,0,1-.33-3.6v-4.16a48.16,48.16,0,0,0-5.14.87,1.77,1.77,0,0,1-1,.22Z"/><path d="M496.72,304.34l1.31,2.74c.15.14.15.25,0,.32l-.76.77q-4,4.59-7.33,4.48h-.44a3.72,3.72,0,0,1-3.06-1.86,7.66,7.66,0,0,1-.88-3.61c-.07-.51-.18-1.27-.32-2.29s-.15-1.68-.22-2.19-.3-.91-.66-1a4.06,4.06,0,0,0-2.08.76,7.31,7.31,0,0,0-2.08,1.75,18.21,18.21,0,0,0-3.61,6.13l-.43.87a4.31,4.31,0,0,1-.44,1l-2.84-.77a65,65,0,0,1,5-10.39q1.53-2.73,2.29-4.16c.3-.51.73-1.27,1.32-2.29q.54-1,.87-1.53a4.47,4.47,0,0,0,.22-.55,12.33,12.33,0,0,0,1.53-3.94h.44l3.72,1.75v.33a24.56,24.56,0,0,0-3.61,4.26,37.53,37.53,0,0,0-2.3,3.94,12.29,12.29,0,0,0-1.31,2.08,1.17,1.17,0,0,1,.33-.22c.65-.36,1.13-.62,1.42-.76q3.39-1.43,4.59.65a5.45,5.45,0,0,1,.66,2.08v.22a12.64,12.64,0,0,0,.11,1.42c.07,1.31.14,2.3.22,3a2.84,2.84,0,0,0,1.09,2.19,1.9,1.9,0,0,0,2.3,0,16,16,0,0,0,4.26-4.37A9,9,0,0,1,496.72,304.34Z"/><path d="M499.89,293.84h.66a14.68,14.68,0,0,0,3.28-.55l1.31-.32q2.08-.56,4.05-1,3.6-.87,7.11-1.53a22.38,22.38,0,0,0,4.37-1,3.3,3.3,0,0,0,.33,1.2,3.75,3.75,0,0,1,.22,1.64l-1.53.33a7.68,7.68,0,0,0-3.72,1.2,8.69,8.69,0,0,0-3.17,4.7,15.42,15.42,0,0,0-.66,3.83V303a5.77,5.77,0,0,0,1.64,4.26,6.38,6.38,0,0,0,4.27,1.64h.54a7.41,7.41,0,0,0,1.75-.21V312h-.87a13,13,0,0,1-6.89-1.86,8.6,8.6,0,0,1-3.28-6.89v-.55q0-4.26,3.39-9-4.38,1.09-8.75,2.41a4,4,0,0,1-.77.22,3.06,3.06,0,0,0-1.53.87l-1.75-3.06ZM520,295.37l1.53-1.42c.22.22.51.55.87,1a17.48,17.48,0,0,1,1.75,2l-1.53,1.32A17.5,17.5,0,0,0,520,295.37Zm3-2.19,1.53-1.31a18.78,18.78,0,0,1,2.52,2.85L525.38,296A23.57,23.57,0,0,0,523,293.18Z"/><path d="M533.47,288.59h.22l3.5.66a11.83,11.83,0,0,1-.33,1.42v15.09a5.05,5.05,0,0,0,.66,3,3,3,0,0,0,2.29,1.09h.66a4.11,4.11,0,0,0,1.86-.44,11.32,11.32,0,0,0,2.51-1.2,12.12,12.12,0,0,0,3.07-2.74h.22l1.31,2.52c.14.15.14.22,0,.22a13.49,13.49,0,0,1-4.6,3.28,9.81,9.81,0,0,1-4.81,1.2h-.33a6.38,6.38,0,0,1-3.61-1.09,4.31,4.31,0,0,1-2.18-3.17c-.08-1-.11-2.08-.11-3.17V290.89a6.35,6.35,0,0,0-.22-1.31A7.1,7.1,0,0,1,533.47,288.59Z"/><path d="M566.17,288.26h.22l3.28.88v.33a2.61,2.61,0,0,0-1.09,1.75,10.05,10.05,0,0,0-.66,1.86,2.68,2.68,0,0,1-.22.65l3.61-.65a4,4,0,0,0,.77-.22l.22.11v2.84q-2.62.44-5.25.66a3.71,3.71,0,0,1-.11.54c.07-.14,0-.07-.11.22a63.85,63.85,0,0,1-5.8,15l-2.95-.88-.11-.22a88,88,0,0,0,6.34-14.54,17.35,17.35,0,0,1-2.18.1c-1,.08-1.68.11-2.19.11l-.22-.11-.44-2.62.11-.22c.29,0,.77,0,1.42.11a12.46,12.46,0,0,0,1.32.11H563c.66,0,1.35,0,2.08-.11a4.15,4.15,0,0,0,.22-.66,17.27,17.27,0,0,0,.87-4.37Zm14.77,20.13-.33,3.06a28.34,28.34,0,0,1-3.61.22h-1.09a22.42,22.42,0,0,1-4.82-.55,2,2,0,0,1-.43-.11q-.76,0-1-.33l-.11-2.51a7,7,0,0,0,1,.22,29.42,29.42,0,0,0,4.81.54h.55A24,24,0,0,0,580.94,308.39Zm-6.35-10.72h1c1.17,0,2.41,0,3.72.11l.11,3-.11.11a24.15,24.15,0,0,0-4.71-.66H573.5a9.14,9.14,0,0,0-2.41.33l.44-2.73H573C573.68,297.71,574.23,297.67,574.59,297.67Z"/><path d="M587.5,308.72a4.4,4.4,0,0,1,4.49-4.49q4,.33,4.37,4.49c-.29,2.47-1.75,3.86-4.37,4.15Q587.94,312.54,587.5,308.72Zm1.75,0c.15,1.45,1.06,2.25,2.74,2.4a2.53,2.53,0,0,0,2.62-2.4A2.67,2.67,0,0,0,592,306,2.72,2.72,0,0,0,589.25,308.72Z"/></svg>