<svg xmlns="http://www.w3.org/2000/svg" viewBox="0 0 761.43 456.2"><defs><style>.cls-1{fill:#fff;}</style></defs><g id="レイヤー_2" data-name="レイヤー 2"><g id="_4" data-name="4"><path class="cls-1" d="M611.3,228.8c6.7-2.4,13.6-5.7,20.9-8.6,6.8-2.7,13.6-6,20.6-9.2,6.7-3,14-5.4,20.9-8.8,6.6-3.4,13.4-6.8,20-10.6s12.6-8.3,18.9-12.5,12.9-7.9,18.9-12.5,11.2-10.2,16.8-15.2c1.7-1.5,3.8-2.7,5.4-4.2,3.4,1.6,1.4,3.4-4.9,4.8-5.7,1.3-14,2.9-24,4.6-7.2,1.2-15.4,1.9-24.2,3.1-7.7,1-15.7,2.7-24.1,3.6-7.9.8-16.1,1.2-24.4,1.8-8.1.6-16.3,1.4-24.4,1.6-8.3.2-16.5.5-24.4.3-1.3,0-12-1.2-13.2-1.2,1.7,0,9.6.5,9.4,0-3.5-7-7-14.2-11.2-21.1-4-6.7-8.9-13.1-13.6-19.7-4.5-6.4-9.5-12.7-14.7-18.8s-10.7-11.6-16.4-17.3c-5.5-5.6-10.9-11.4-17.1-16.6-6-5.1-12-10.3-18.6-15-6.4-4.5-13.3-8.5-20.3-12.6-6.8-3.9-13.9-7.3-21.3-10.8-7-3.3-14.1-7.2-21.7-10.1-7.3-2.8-15-4.9-22.8-7.2-7.5-2.2-15.2-4.1-23.2-5.8C391,9.2,383,8.5,375,7.4c-7.7-1.1-15.5-3.2-23.6-3.8-7.8-.6-15.7-.8-23.9-1-7.8-.2-15.8-.4-23.9-.2-8.3.2-16.5.8-24.5,1.4-8.3.6-16.5,1.6-24.4,2.6-8.3,1.1-16.3,2.9-24.1,4.3-8.2,1.5-16.1,3.4-23.9,5.3-8.1,2-15.9,4.4-23.5,6.8-8,2.5-15.6,5.3-23.1,8.2-7.8,3.1-15.6,5.6-22.8,9.1-7.5,3.7-14.3,8.2-21.2,12.4-7.1,4.3-14.3,8.3-20.8,13.1-6.7,4.9-12.7,10.5-18.7,15.9A236.42,236.42,0,0,0,59.3,98.9c-5.5,6.2-11.2,12.2-15.8,18.8-4.8,6.8-8.5,14.1-12.4,21.2A201.93,201.93,0,0,0,20.6,161,180.94,180.94,0,0,0,13,184.3c-1.9,8-2.7,16.1-3.6,24.2a181.27,181.27,0,0,0-1.2,24.4A184.33,184.33,0,0,0,10,256.3a198.46,198.46,0,0,0,4.9,22.9c2,7.5,5.2,14.7,8.1,22s5.6,14.5,9.4,21.4a218.93,218.93,0,0,0,12.4,19.9c4.4,6.3,8.7,12.9,13.9,18.9,5.1,5.8,11.4,10.5,17.3,15.9a222.55,222.55,0,0,0,18,14.9c6.1,4.6,12.1,9.7,18.9,13.8,6.5,4,13.6,7.4,20.7,11,6.8,3.4,14,6.6,21.4,9.6,7.1,2.9,14.2,6.2,21.8,8.6,7.3,2.3,15,3.7,22.8,5.6,7.4,1.8,15,4.1,22.8,5.5,7.5,1.3,15.4,1.7,23.3,2.6,7.6.9,15.4,1.6,23.3,2.1,7.6.5,15.4,1.7,23.4,1.9,7.7.1,15.5,0,23.5-.2s15.9-1.8,23.7-2.4c8.1-.6,16.1-.4,23.7-1.4,8-1,15.7-3,23.4-4.4,8-1.5,15.8-2.6,23.3-4.5,7.9-1.9,15.5-4.1,22.9-6.5,7.7-2.5,15-5.6,22.2-8.5,7.5-3,15-5.7,21.9-9.1,7.3-3.6,14.2-7.5,20.8-11.5,6.9-4.2,13.1-9.1,19.4-13.8,6.5-4.8,13.4-8.9,19.2-14.1,6-5.4,10.8-11.8,16-17.6,5.4-6,11.1-11.5,15.7-17.8,4.7-6.5,8.4-13.6,12.2-20.4a209.53,209.53,0,0,0,10.6-21.2,228.89,228.89,0,0,0,7.6-22.5,183.91,183.91,0,0,0,5.7-23,182.49,182.49,0,0,0,2.4-23.2c-1.4-2.4-3.6,1.1-4.6,1.1C603.6,231.5,610,229.3,611.3,228.8Z"/><path d="M616.1,230.2c1.3-.5,2.6-.6,3.9-1.1s2.3-1.6,3.5-2.1,2.7-.5,3.9-1,2.3-1.4,3.5-1.9,2.5-1.1,3.7-1.6,2.5-.9,3.7-1.5,2.7-.6,3.9-1.2,2.2-1.6,3.4-2.1l3.6-1.8c1.2-.6,2.5-.9,3.8-1.4l3.6-1.5c1.2-.5,2.1-1.7,3.3-2.2s2.9.1,4-.5,2-1.8,3.2-2.3l3.6-1.5c1.2-.5,2.3-1.3,3.4-1.8s2.7-.3,3.9-.9,1.9-2,3.1-2.5,2.4-1.1,3.5-1.6,2.4-1,3.6-1.5,2.5-.9,3.6-1.5,2-1.7,3.2-2.3,2.2-1.3,3.3-2,2.9-.3,4-.9,2-1.7,3.1-2.4,2-1.6,3.1-2.3,2.2-1.4,3.2-2.1,2.3-1.2,3.4-1.9,1.7-2.1,2.8-2.8l3.3-2.1c1.1-.7,2.2-1.3,3.3-2.1s2.7-.5,3.8-1.2,1.7-2.4,2.8-3.1,2.8-.8,3.9-1.6a39.67,39.67,0,0,0,2.9-2.9c1.1-.9,2.2-1.6,3.2-2.5s1.8-2.1,2.8-3,2.7-1.1,3.7-2l3-2.7c1-.9,1.4-2.5,2.4-3.4s2.4-1.4,3.5-2.2a37.06,37.06,0,0,1,2.9-2.7l-3.7.3c-1.3.1-2.6-.3-3.9-.3s-2.7,0-3.9.1c.3.2-1,1.7-2.6,2.2-1.4.4-2.9.5-3.2.6-1.1.2-2.2.3-3.3.5l-3.3.6c-1.1.2-2.2.1-3.3.3-1.4.3-2.8.5-4.2.7s-2.7.8-4.1,1-2.8.6-4.2.8-2.9-.2-4.3,0-2.7,1.2-4.1,1.4-2.6.3-3.9.4-2.7-.2-4,0-2.5,1.3-3.8,1.5-2.7-.3-4-.1-2.7,0-4,.2-2.6.7-3.9.9-2.6.1-4,.3-2.6.3-3.9.5-2.6.2-3.9.4-2.6.5-3.9.7-2.6.9-3.9,1-2.6.2-4,.2-2.7,0-4,.1-2.7-.5-4.1-.4l-4,.3c-1.3.1-2.6,1.3-3.9,1.3s-2.8-1-4.1-.9l-4,.3c-1.3.1-2.6,1.1-4,1.2s-2.7.1-4,.2-2.7.1-4,.2-2.7.3-4,.4-2.7-.6-4-.6-2.7-.4-4.1-.4-2.7,1-4.1,1-2.7.2-4.1.2-2.7-.5-4.1-.6-2.7-.6-4-.6-2.7-.1-4.1-.2-2.4.4-3.7.3c-1.1,1.6-3,2.9-4.1,4.5,1.4,0,3.4-.2,4.8-.1s2.8.2,4.3.2a20.75,20.75,0,0,0,4.3-.3,14.59,14.59,0,0,0,3.9-1.6c.8-.5,1.1-1,.7-1.8-.6-1.2-1.6-2.2-2.2-3.4s-1.2-2.3-1.9-3.5-.6-2.7-1.3-3.8-2.2-1.8-2.8-3-1.3-2.3-2-3.5-.4-2.8-1.1-4-1.9-2-2.6-3.1-1-2.5-1.7-3.7-2-1.9-2.7-3-1.6-2.1-2.3-3.2-1.7-2-2.5-3.1-1.3-2.4-2-3.4-1.8-2-2.6-3-.6-2.9-1.4-3.9-2.1-1.8-2.9-2.8-1.7-2-2.6-3.1-1.3-2.4-2.1-3.4-1.9-1.8-2.8-2.9-1.8-1.9-2.7-2.9-1.6-2.1-2.5-3.1-1.5-2.2-2.4-3.2-2.6-1.2-3.5-2.2a37.62,37.62,0,0,0-2.5-3.1c-.9-1-2.1-1.6-3-2.6s-1.8-1.9-2.8-2.9-1.8-2-2.7-2.9-1.8-1.9-2.8-2.8-1.5-2.3-2.5-3.2-2-1.7-3-2.6-2-1.8-3-2.6-2.5-1.2-3.6-2-2.1-1.7-3.1-2.5-1.9-1.9-3-2.7-1.7-2.2-2.8-3-2.1-1.7-3.2-2.5-2.6-1-3.7-1.8-1.8-2.1-2.9-2.9-2.3-1.5-3.4-2.2-2.3-1.4-3.4-2.1-2.5-1.1-3.6-1.8-2-1.9-3.2-2.5-2.6-.8-3.8-1.5-2.4-1.2-3.5-1.9-2.1-1.8-3.2-2.4-2.6-.8-3.8-1.5L479,36.4c-1.2-.6-2.5-1.1-3.7-1.7s-2.1-1.9-3.3-2.5-2.3-1.3-3.6-1.9-2.6-.8-3.8-1.3-2.6-.7-3.9-1.2-2.3-1.5-3.5-2-2.6-.8-3.8-1.3-2.2-1.6-3.5-2.1-2.7-.5-3.9-1-2.4-1.2-3.7-1.7-2.9.2-4.2-.2-2.2-1.9-3.5-2.3-2.5-.9-3.8-1.3-2.6-.6-3.9-1-2.8.1-4.1-.3l-3.9-1.2c-1.3-.3-2.7-.3-4-.6s-2.4-1.7-3.7-2-2.8.3-4.2,0-2.5-1.4-3.8-1.7-2.8.4-4.2.1-2.5-1.4-3.8-1.6-2.7-.5-4-.8-2.8.6-4.2.4-2.6-.9-3.9-1.1-2.7-.2-4-.4-2.6-1.3-3.9-1.4-2.7-.4-4-.5-2.8.3-4.1.2-2.7-.5-4-.6-2.7-.2-4-.4-2.7,0-4.1-.1-2.7-.5-4-.6-2.7-.4-4-.5-2.7.3-4.1.2-2.6-1.2-4-1.2-2.7.2-4.1.2-2.7-.1-4.1-.2-2.7-.6-4-.6-2.7.7-4.1.6-2.7-.8-4-.8-2.7,1.2-4.1,1.2h-4c-1.3,0-2.7-.1-4,0s-2.7-.6-4-.6-2.7-.1-4,0-2.7.6-4,.7-2.7.4-4,.5-2.7-1-4.1-1-2.7.3-4,.4-2.7,0-4,.2-2.6,1.5-3.9,1.6-2.7-.4-4.1-.3-2.6.5-4,.7-2.6.6-4,.7-2.8-.5-4.1-.3-2.5,1.2-3.9,1.4-2.7.3-4,.5-2.8-.7-4.1-.5-2.5,1.5-3.8,1.7-2.7-.1-4.1.1-2.6.5-3.9.8-2.6.8-3.9,1-2.7.3-4,.6-2.6.5-3.9.8-2.6.8-3.9,1.1-2.8-.3-4.1,0-2.6.7-3.9,1-2.5,1.2-3.8,1.5-2.6.4-3.9.8-2.5.9-3.8,1.3-2.7.1-4,.5-2.5,1.1-3.8,1.5-2.7.3-4,.7-2.5,1-3.8,1.4-2.6.8-3.8,1.2-2.7.3-4,.7-2.4,1.2-3.7,1.6-2.3,1.5-3.6,1.9-2.7.3-4,.8-2.5,1-3.7,1.4-2.2,1.6-3.5,2.1-2.6.6-3.9,1.1-2.6.6-3.9,1.1-2.2,1.6-3.4,2.1-2.5,1-3.7,1.5-2.8.3-4,.9-2.1,1.9-3.3,2.4l-3.6,1.8c-1.2.6-2.8.4-4,1L124,43.4l-3.6,1.8c-1.2.6-1.9,2.1-3.1,2.8s-2.7.6-3.9,1.3-2.2,1.5-3.4,2.2-2.4,1.2-3.5,1.9-2,1.8-3.2,2.5-2.1,1.6-3.3,2.3-2.8.6-3.9,1.4-1.8,2.1-2.9,2.9-2.4,1.2-3.5,2-2.2,1.5-3.3,2.3-2,1.9-3,2.7S81,70.9,80,71.7s-1.6,2.3-2.6,3.1S75,76.2,74,77s-1.6,2.3-2.6,3.2-2.2,1.5-3.2,2.5-1.6,2.2-2.6,3.1-2.4,1.4-3.4,2.3-1.5,2.3-2.4,3.3-2.4,1.4-3.3,2.4-1.2,2.6-2.1,3.6-2.7,1.2-3.5,2.3-.9,2.8-1.8,3.8a38.33,38.33,0,0,0-2.8,2.9c-.8,1-1.5,2.3-2.3,3.3s-2.4,1.6-3.2,2.6-1.4,2.3-2.2,3.4-1.4,2.3-2.2,3.4-1.3,2.3-2.1,3.5-1.5,2.2-2.2,3.3-1.3,2.4-2,3.5-2.1,1.9-2.8,3-1.4,2.3-2.1,3.5-1.1,2.5-1.7,3.7-.6,2.7-1.3,3.9-2.2,1.9-2.8,3.1-1,2.5-1.6,3.7-.8,2.6-1.4,3.8-1.2,2.4-1.8,3.6-.7,2.6-1.2,3.9-.8,2.5-1.3,3.8-.9,2.5-1.4,3.7-1.5,2.3-1.9,3.6-.7,2.6-1.1,3.8-.4,2.6-.8,3.9-.3,2.7-.6,3.9-1.5,2.4-1.8,3.7.1,2.7-.2,4-.1,2.7-.3,4-1,2.5-1.2,3.8-.3,2.6-.5,3.9-.1,2.7-.2,4-.6,2.6-.7,3.9.3,2.7.2,4S.5,218.2.5,219.5s.2,2.7.1,4-.6,2.7-.6,4,1.2,2.7,1.2,4-.6,2.7-.6,4-.4,2.7-.3,4,1.2,2.6,1.3,3.9-.8,2.7-.6,4.1.5,2.6.6,4,.1,2.7.3,4,.9,2.6,1.1,3.9,1,2.5,1.3,3.8-.3,2.7,0,4,0,2.7.3,4,1.7,2.3,2.1,3.6l.9,3.9c.3,1.3.1,2.7.4,4s.4,2.7.8,4,1.4,2.4,1.8,3.7,1.5,2.3,1.9,3.6-.1,2.9.4,4.2,1.8,2.2,2.3,3.5.7,2.6,1.2,3.9,1.1,2.5,1.7,3.7.6,2.7,1.1,4,1.8,2.1,2.4,3.3.6,2.7,1.2,3.9,2.1,2,2.7,3.1.8,2.6,1.5,3.8,1.3,2.4,2,3.5,1,2.6,1.7,3.7,2.1,1.9,2.8,3,.9,2.6,1.7,3.7,1.5,2.2,2.3,3.3,1.4,2.3,2.2,3.4,1.7,2.1,2.5,3.2,1.2,2.4,2,3.5,2,1.9,2.8,2.9,1.4,2.1,2.3,3.1,2.2,1.4,3.1,2.4l2.7,2.7a34.46,34.46,0,0,0,2.8,2.6c.9.9,1.7,1.9,2.6,2.8a35,35,0,0,0,3,2.4c1,.8,1.3,2.4,2.3,3.2s1.7,1.9,2.7,2.7,2.5,1.3,3.5,2.2,1.6,2.3,2.6,3.2,2.7,1,3.7,1.9,1.5,2.5,2.5,3.3,2.6,1.1,3.7,1.9,2,1.8,3.1,2.7,2,1.9,3.1,2.7,2.5,1.2,3.6,2,2.1,1.8,3.2,2.5,2.4,1.4,3.5,2.1,1.7,2.3,2.9,3,2.3,1.4,3.5,2.2,2.4,1.3,3.6,2,2.8.6,4,1.2,2.2,1.6,3.5,2.2,2.4,1.3,3.6,1.9,2.4,1.4,3.6,2,2.5,1.1,3.7,1.7,2.6.8,3.9,1.4,2.5,1.2,3.7,1.7,2.4,1.4,3.6,2,2.2,1.7,3.5,2.3,2.8.5,4,1.1,2.4,1.3,3.7,1.8,2.5,1.1,3.8,1.6,2.6.9,3.9,1.4,2.7.6,4,1.1,2.3,1.6,3.6,2.1,2.6.8,3.9,1.3,2.6.7,3.9,1.1,2.6.8,3.9,1.1,2.7.2,4,.5,2.7.1,4,.4,2.4,1.7,3.7,2,2.8-.1,4.1.2,2.8.2,4.2.6,2.7.7,4.1,1.1,2.5,1.4,3.9,1.8,2.8.3,4.2.7,2.7.6,4.1.8,2.7,1,4,1.3,2.7.7,4.1.9,2.6.1,3.9.3,2.5.6,3.8.7,2.5.5,3.8.6,2.6,0,3.9.1,2.6-.3,3.9-.2,2.6.1,3.9.3,2.5.9,3.8,1,2.6.4,3.8.5,2.6-.8,3.9-.7,2.5.4,3.8.5,2.6-.1,3.9,0,2.5,1.4,3.8,1.5,2.7-1,3.9-.9l3.8.3c1.3.1,2.6.4,3.8.5,1.4.1,2.8.4,4.2.4s2.8.7,4.2.8,2.8-.7,4.2-.7,2.8.5,4.2.5,2.8.1,4.2.1,2.8-.7,4.2-.8,2.8.6,4.2.6,2.6-.1,3.9-.2,2.6-.1,3.9-.2,2.6-.6,3.9-.7,2.6-.1,3.9-.3,2.6-.6,3.9-.7,2.7.6,4,.5,2.6,0,3.9-.1,2.6-.4,3.9-.5,2.6-1.1,3.9-1.2l4-.3c1.3-.1,2.7,1,4,1s2.6-1.3,3.9-1.4,2.7,0,4-.2,2.6-.3,4-.4l3.9-.6c1.3-.2,2.7.7,4,.4s2.4-1.5,3.6-1.7,2.5-.6,3.8-.8,2.7.2,3.9,0,2.5-.7,3.8-1,2.6-.2,3.9-.4,2.5-.6,3.8-.8,2.4-1.1,3.7-1.4,2.7-.7,4-.9,2.7-.3,4.1-.6l4-.9c1.3-.3,2.7-.7,4-1s2.7-.3,4.1-.7,2.6-1,3.9-1.4,2.5-1.1,3.9-1.5,2.8-.3,4.1-.7,2.8-.4,4.1-.9,2.3-1.7,3.6-2.2,2.7-.6,4-1.1,2.7-.6,4-1.1,2.5-1.1,3.8-1.6,2.3-1.6,3.6-2.1,2.6-.5,3.8-1,2.3-1.2,3.5-1.7,2.2-1.3,3.4-1.8,2.4-.9,3.6-1.4,2.5-.7,3.7-1.2,2.1-1.6,3.3-2.2,2.4-.9,3.6-1.5,2.6-.6,3.7-1.2,2-1.7,3.2-2.3,2.7-.4,3.9-.9,2.3-1.1,3.5-1.8,1.9-1.9,3-2.5,2.6-.7,3.7-1.3,2-1.7,3.1-2.4,1.9-1.8,3-2.5,2.9-.5,4-1.2,2-1.9,3.1-2.6,2.2-1.6,3.3-2.4,2.1-1.6,3.2-2.4,1.9-1.9,3-2.7,2.8-.7,3.9-1.5a38.48,38.48,0,0,0,3-2.7c1.1-.8,2.1-1.7,3.1-2.5l3.1-2.5c1-.9,1.6-2.3,2.6-3.2s1.9-1.9,2.9-2.8,2-1.8,2.9-2.7a39.19,39.19,0,0,0,3.2-2.5c.9-1,1.4-2.3,2.4-3.3s1.9-1.9,2.8-2.9a35.84,35.84,0,0,1,2.9-2.6c.9-1,1.5-2.1,2.4-3s1.6-2,2.5-3,1.5-2.1,2.4-3.1,2-1.7,2.8-2.6,2.2-1.5,3.1-2.5,1-2.5,1.9-3.5l2.4-3c.8-1,2.1-1.7,2.8-2.7s1.7-2,2.4-3.1,1.2-2.3,1.8-3.4.9-2.5,1.5-3.6,1.2-2.3,1.9-3.4,1.4-2.2,2-3.3,1.4-2.2,2-3.3.4-2.7,1.1-3.8,1.4-2.2,2-3.4,1.9-2,2.5-3.2,1.3-2.4,1.8-3.6,0-2.9.6-4.1,1.4-2.3,1.9-3.5.5-2.7.9-3.9,2-2.1,2.4-3.4.9-2.5,1.3-3.8.2-2.7.6-4,.3-2.7.7-4,1.9-2.2,2.3-3.5.2-2.7.5-4,.1-2.7.5-4,1.1-2.5,1.4-3.8,1.1-2.5,1.4-3.8c.3-1.1.1-2.4.3-3.5s-.3-2.4-.1-3.6,1.4-2.2,1.5-3.3-.7-2.5-.6-3.6a20,20,0,0,0,1.1-3.6c.2-1.1.6-2.4.7-3.6a23.47,23.47,0,0,0,.1-3.7,4.33,4.33,0,0,0-.9-3.3c-1.2-1-2.1-2.1-3.4-2.4a8.53,8.53,0,0,0-4.2,0,19.4,19.4,0,0,0-4.2.7c-1.3.5-2.5,1.3-3.8,1.9-2.5,1.2-2.1,2.9-.4,3.6,1.1.4,3-.4,4.5-.3,1.8.1,3.7,1.1,4.5.8,1.1-.4,1.9-1.7,3.1-2.1s2.2-.9,3.3-1.3,2.4-.5,3.5-.9c2.5-.9,2-2.1-.3-2.7-1.5-.5-3-1.5-4.6-1.4s-3.1,1-4.6,1.6c-1.3.4-2.7.3-4,.8s-2.4,1.3-3.6,1.8c1.4.6,2.5,1.7,3.9,2.2s3,.4,4.4.9c1.4-.6,4.7-1.2.8-.5-1.4-.2-2.7-1.3-4.1-1.5s-3-.2-4.4-.4c.6.5.7,2.2.7,3.8,0,1.1-.2,2.3-.3,3.5s-.3,2.4-.5,3.6a30,30,0,0,0-.7,3.5c-.1,1.2.8,2.5.6,3.6s-1.3,2.2-1.5,3.3.6,2.5.4,3.7-1.5,2.1-1.8,3.2c-.3,1.3.6,2.9.3,4.2s-1,2.5-1.4,3.9-.9,2.6-1.2,3.9-.1,2.8-.5,4.1-1,2.5-1.4,3.8-.6,2.6-1,3.9-1.2,2.5-1.6,3.8-1.2,2.5-1.6,3.7-.5,2.6-1,3.9-1.2,2.4-1.7,3.6-.3,2.7-.9,3.9-1.4,2.3-1.9,3.5-1.4,2.3-2,3.5-1,2.5-1.5,3.7-.7,2.6-1.3,3.8-2.1,1.9-2.8,3-.5,2.8-1.1,3.9-2.1,1.8-2.8,3l-2.1,3.3c-.7,1.1-.5,2.8-1.2,3.9s-1.8,2-2.6,3.1-1.9,1.9-2.6,3-1.5,2.2-2.2,3.3-2,1.8-2.9,2.9-1.5,2.3-2.4,3.3-1.5,2.3-2.4,3.3-1.6,2.2-2.5,3.2-2.2,1.7-3.1,2.7-2.2,1.7-3.1,2.7-1.5,2.3-2.4,3.3-1.3,2.5-2.2,3.5-2,1.8-3,2.8-2.6,1.2-3.6,2.1-1.7,2.1-2.7,3l-3,2.7c-1,.9-1.7,2.2-2.8,3s-2.5,1.1-3.6,1.9-2.3,1.4-3.4,2.1-2.2,1.6-3.3,2.3-1.6,2.4-2.7,3.1-2.8.7-3.9,1.4-2.2,1.5-3.3,2.3-2.3,1.5-3.4,2.2-2.1,1.7-3.2,2.4-2.3,1.4-3.4,2.2-2.2,1.5-3.4,2.2-2,1.9-3.2,2.6-2.2,1.6-3.3,2.3-2.3,1.4-3.5,2.1-2.7.6-3.9,1.3-2.3,1.5-3.5,2.1-2.3,1.5-3.5,2-2.3,1.5-3.5,2-2.6.8-3.8,1.3-2.3,1.4-3.6,1.9-2.7.6-3.9,1.1-2.3,1.4-3.6,1.9-2.9,0-4.2.4-2.4,1.4-3.6,1.8-2.4,1.3-3.7,1.7-2.8.2-4.1.6-2.4,1.1-3.7,1.6-2.4,1.2-3.7,1.6-2.5,1-3.8,1.4-2.5,1.2-3.7,1.6-2.8.1-4.1.4-2.4,1.3-3.7,1.7-2.8,0-4.1.3-2.7.5-4.1.8-2.6.9-4,1.2-2.8.3-4.1.6-2.7.7-4.1,1-2.7.7-4.1.9-2.8,0-4.2.2-2.7.7-4.1,1-2.5.8-3.8,1.1-2.7-.1-4,.1-2.5.7-3.8.9-2.5,1.3-3.8,1.5-2.7-.3-4-.2-2.6.6-3.9.8-2.6.4-3.9.5-2.6-.4-4-.4-2.6.2-3.9.3-2.6-.2-3.9-.1l-3.9.3c-1.3.1-2.6,0-3.9.1s-2.6.1-3.9.2-2.6.4-3.9.5-2.6.3-3.9.4-2.5.8-3.8.9-2.6,0-3.9.1-2.6.3-3.9.4l-3.9.3c-1.3.1-2.6-.5-3.9-.5s-2.6.7-3.9.7-2.6-.2-3.9-.2-2.6-.1-3.9-.1-2.6.2-3.9.1-2.6-.7-3.9-.8-2.7.4-4,.3-2.6-.9-3.9-1-2.6-.4-3.9-.5-2.6-.5-3.9-.6-2.6-.1-4-.2-2.7.6-4,.5-2.6-.1-4-.3-2.6-.1-4-.2-2.6-.7-3.9-.8-2.7.2-4,0-2.5-1.2-3.8-1.3-2.7.1-4,0-2.7.1-4-.1-2.6-.8-3.9-.9-2.7-.6-4.1-.8-2.8,0-4.2-.4-2.7-.8-4-1.1-2.6-.9-4-1.2-2.8-.4-4.1-.7-2.4-1.7-3.8-2-3,.4-4.3.1-2.4-1.4-3.7-1.7-2.7-.2-3.9-.6-2.4-1.3-3.7-1.6-2.6-.6-3.8-1-2.6-.5-3.9-.9-2.5-.8-3.8-1.3-2.4-1-3.7-1.5-2.6-.6-3.8-1.1-2.2-1.6-3.4-2.1-2.4-1.1-3.6-1.6l-3.6-1.5c-1.2-.5-2.5-.8-3.7-1.3s-2.5-.8-3.7-1.3-2.4-.9-3.6-1.5-2.5-.9-3.6-1.4-2.1-1.7-3.2-2.3-2.3-1.3-3.4-1.8-2.4-1-3.6-1.6-2.2-1.5-3.3-2.1-2.9-.2-4-.8-2.3-1.2-3.5-1.8-2.1-1.5-3.2-2.2-2.2-1.5-3.3-2.2-2-1.7-3.2-2.5-2.3-1.4-3.4-2.1-2.5-1.1-3.6-1.9-1.5-2.5-2.5-3.3-2.8-.8-3.8-1.6-1.7-2.1-2.8-3-2.3-1.5-3.3-2.3-2.1-1.6-3.2-2.5-2-1.7-3.1-2.6-1.6-2.3-2.6-3.2l-3-2.7c-1-.9-2.1-1.6-3.1-2.5l-3-2.7c-1-.9-2.4-1.4-3.3-2.3s-1.7-2.1-2.7-3-2.5-1.3-3.4-2.3-1-2.7-1.9-3.7-2.3-1.6-3.1-2.6-1-2.6-1.8-3.7-2.2-1.7-3-2.8-.8-2.7-1.6-3.8-1.9-2-2.6-3.1-1.5-2.1-2.2-3.1-1.2-2.2-1.9-3.3-1.3-2.2-2-3.2-1.4-2.1-2.1-3.2-1.4-2.1-2-3.2-1.4-2.1-2-3.3-1.3-2.2-1.9-3.3a36.83,36.83,0,0,1-1.5-3.5c-.6-1.2-1-2.4-1.5-3.6s-1.2-2.3-1.7-3.5-1.5-2.2-2-3.4-1.5-2.2-2-3.4-.5-2.6-1-3.8a39.21,39.21,0,0,1-1.6-3.6c-.5-1.2-.9-2.4-1.3-3.7s.1-2.8-.3-4-1.9-2.1-2.3-3.4-.7-2.5-1.1-3.8-.2-2.7-.5-3.9-1.2-2.4-1.5-3.6-.5-2.6-.8-3.8,0-2.7-.3-3.9-.6-2.5-.9-3.8-.2-2.6-.4-3.9-.6-2.5-.8-3.8-.7-2.5-.9-3.8.3-2.7.2-4-.8-2.6-.9-3.9,0-2.6-.1-3.9,1.2-2.8,1.2-4.1.3-2.6.3-3.9-.5-2.6-.5-3.9.7-2.6.8-3.9-.1-2.6-.1-3.9-.7-2.7-.7-4,.5-2.6.6-3.9.3-2.6.5-3.9.6-2.6.7-3.9.8-2.5,1-3.8-.9-2.8-.8-4.1.8-2.6,1-3.8.7-2.5,1-3.8.1-2.7.3-4,.3-2.6.6-3.9,1.2-2.4,1.5-3.7.4-2.6.8-3.9,1.6-2.2,2-3.5.8-2.5,1.3-3.7,0-2.8.5-4,.8-2.5,1.3-3.7,1.2-2.4,1.7-3.6,2-2,2.6-3.2.1-2.9.7-4,1.9-2,2.5-3.2,1.6-2.1,2.2-3.3.2-2.9.8-4.1,2.2-1.7,2.9-2.9,1.5-2.1,2.2-3.3.5-2.8,1.2-3.9,2-1.8,2.8-2.9a37,37,0,0,1,2.1-3.3c.8-1.1,1.5-2.2,2.2-3.2s1.1-2.5,1.9-3.5,1.8-2,2.6-3,2-1.8,2.8-2.8,1.2-2.4,2-3.4,2.6-1.3,3.4-2.3,1.3-2.4,2.2-3.3,1.5-2.2,2.4-3.1,2.3-1.4,3.3-2.3,1.7-2,2.7-2.9,1.3-2.4,2.2-3.4S78.8,85,79.9,84s2.3-1.6,3.3-2.6S85,79.2,86,78.2s2.6-1.3,3.7-2.2,1.6-2.4,2.7-3.3,2.3-1.6,3.4-2.5,2.1-1.9,3.2-2.8a38.7,38.7,0,0,1,3.4-2.1c1.1-.8,2.5-1.1,3.6-1.8s1.6-2.3,2.8-3.1,2.6-.9,3.7-1.6,2.4-1.2,3.5-1.9,2.3-1.4,3.4-2,2.1-1.7,3.2-2.4,2.4-1.1,3.6-1.8,1.8-2.1,3-2.7,2.3-1.4,3.4-2,2.3-1.3,3.5-1.9,2.5-1,3.7-1.6,2.5-.8,3.7-1.4,2.3-1.2,3.6-1.8,2.3-1.3,3.6-1.8,2.5-.8,3.8-1.3,2.4-1.1,3.6-1.6,2.4-1.1,3.7-1.6,2.6-.7,3.8-1.2,2.4-1.3,3.6-1.7,2.7-.2,4-.7,2.5-.7,3.8-1.2,2.2-1.6,3.5-2.1,2.7-.3,4-.7,2.6-.7,3.9-1.1,2.5-.9,3.8-1.3,2.4-1.4,3.7-1.8,2.8.1,4.1-.2,2.4-1.3,3.7-1.6,2.5-1.1,3.8-1.5,2.8,0,4.1-.3,2.6-.7,3.9-1,2.5-1,3.8-1.3,2.7-.3,4-.6,2.6-.7,3.9-.9,2.7-.1,4-.3,2.6-.7,3.9-.9,2.6-.4,4-.7,2.5-1.3,3.8-1.5,2.8.2,4.1,0,2.6-.8,3.9-1,2.6-.8,3.9-1,2.8.6,4.1.5,2.6-1.1,3.9-1.3,2.6-.6,4-.7,2.7-.5,4-.6,2.7.2,4.1,0,2.7.2,4,.1,2.6-.7,4-.8,2.7.2,4,.1,2.7-.5,4-.5,2.7-.4,4-.5,2.7-.2,4-.2,2.7,1.2,4.1,1.1,2.7-.9,4-.9,2.7.7,4,.7,2.7-1.1,4-1,2.7.3,4,.3,2.7.7,4,.7,2.7-.7,4.1-.6,2.7.4,4,.4,2.7.3,4,.4,2.7-.5,4.1-.4l4,.3c1.3.1,2.6,1.1,4,1.3s2.7.3,4,.4,2.7.5,4,.6,2.8-.5,4.1-.3,2.6.9,3.9,1.1,2.8-.4,4.1-.2,2.6.8,3.9,1,2.8-.3,4.1-.1,2.5,1.3,3.8,1.5,2.6.5,4,.7,2.6.5,4,.8,2.8-.5,4.2-.2,2.6.8,3.9,1.1,2.7.5,4,.8,2.6.7,3.9,1,2.4,1.5,3.7,1.8,2.9-.3,4.2,0,2.6.8,3.9,1.1,2.5,1.2,3.8,1.6,2.8-.1,4.1.2,2.3,1.6,3.6,2,2.7.3,4,.7,2.5,1.1,3.8,1.6,2.3,1.4,3.6,1.9,2.6.8,3.8,1.3,2.8.2,4.1.7,2.1,2,3.3,2.5,2.9.1,4.2.6,2.3,1.4,3.6,2,2.3,1.5,3.5,2.1,2.5,1.1,3.7,1.7,2.7.7,3.9,1.3,2,2.1,3.2,2.7,2.4,1.2,3.6,1.9,2.4,1.3,3.5,2,2.5,1,3.7,1.7,2.2,1.6,3.4,2.3,2.4,1.3,3.6,2,2.1,1.8,3.2,2.5,2.8.6,4,1.4,2.3,1.5,3.4,2.2,1.7,2.3,2.9,3.1,2.6,1.1,3.7,1.9,2.3,1.5,3.4,2.3,1.5,2.5,2.6,3.4l3.2,2.6c1,.9,2.2,1.6,3.2,2.5s2.3,1.5,3.3,2.5,2.2,1.6,3.2,2.5,2.3,1.6,3.2,2.5a40.31,40.31,0,0,1,2.6,3.2,39.19,39.19,0,0,0,2.5,3.2,38.48,38.48,0,0,0,3,2.7l2.7,3c.9,1,2,1.8,2.9,2.8s1.9,1.9,2.8,2.9,2.3,1.6,3.2,2.6,1.5,2.3,2.4,3.3,1.6,2.2,2.4,3.2,1.9,1.9,2.8,2.9,1.3,2.4,2.1,3.5,2.4,1.5,3.2,2.6.9,2.7,1.8,3.7,1.8,2,2.6,3.1,1.4,2.3,2.2,3.4,2.1,1.8,2.9,2.9,1.7,2.1,2.5,3.2,1.3,2.4,2.1,3.5a39.19,39.19,0,0,1,2.5,3.2c.7,1.1.8,2.7,1.5,3.8s2.2,1.8,2.9,3,1,2.5,1.7,3.7,2,2,2.7,3.1.4,2.9,1,4.1,1.2,2.4,1.8,3.6,1.4,2.3,2,3.5,1.5,2.4,2.1,3.7a17,17,0,0,0,.4-2.2c0-.1-.1-.4,0-.4,1.9-.5,4-.3,5.9-.9-1.2.1-2.5-.7-3.8-.8s-2.5,1.1-3.7,1.1-2.9-1.2-4.4-.9a6.18,6.18,0,0,0-3.7,2.5c-.7,1.1.5,1.2,1.8,1.6a13.28,13.28,0,0,0,3.1.6c1.3.1,2.7.6,4,.6s2.6.9,4,.9,2.7-.7,4.1-.6,2.7-.3,4-.3,2.7.9,4,.9,2.7-.1,4-.1,2.7-.3,4-.3,2.7.1,4,.1,2.7-.3,4-.3,2.7-.2,4-.2,2.7.1,4,0,2.7-.1,4-.1,2.7,0,4-.1,2.7.2,4,.1,2.7-.3,4-.4,2.7.7,4.1.6,2.6-.9,4-1,2.7,0,4-.1,2.7,0,4-.1,2.6-1,3.9-1.1,2.8.6,4.1.5,2.6-.6,4-.7,2.7-.3,4-.5,2.6-.9,3.9-1l3.9-.6c1.3-.2,2.6-.6,3.9-.7s2.7-.1,4-.3,2.7.5,4.1.3,2.6-.9,3.9-1,2.7,0,4-.2,2.6-.4,4-.6,2.6-.6,3.9-.8,2.6-.9,3.9-1.1,2.7,0,4-.3,2.7-.2,4-.4,2.6-.9,3.9-1.1,2.6-.3,4-.5,2.6-1.1,4-1.3,2.8-.1,4.1-.3,2.7-.7,4-.9,2.8,0,4.2-.3,2.7-.8,4-1.2a18.45,18.45,0,0,0,3.5-1.5,3,3,0,0,0,1.3-3.1c0-.9-.3-1.6-1.9-2.5a8.07,8.07,0,0,0-3.7-.9,13.46,13.46,0,0,0-4-.2,7,7,0,0,0-3.3,1.9,34.46,34.46,0,0,0-2.8,2.6c-1,.8-2.4,1.1-3.4,2a35,35,0,0,0-3,2.4c-1,.9-2,1.6-2.9,2.5s-1.3,2.4-2.3,3.2-2.3,1.2-3.3,2.1-1.7,1.9-2.7,2.7-1.9,1.7-3,2.5-2.4,1-3.5,1.8-1.9,1.7-3,2.4-1.9,1.7-3,2.5-2.7.6-3.8,1.4-1.5,2.4-2.6,3.1-2.3,1.3-3.4,2-2,1.7-3.1,2.4-2.3,1.2-3.4,1.9-2.3,1.2-3.4,1.9-2.1,1.5-3.2,2.2-2.5.8-3.6,1.5-1.7,2.2-2.8,2.9-2.8.4-3.9,1-2.1,1.7-3.3,2.3-2.5.9-3.7,1.5-2.4,1.3-3.6,1.9-2.4,1.1-3.7,1.7-2.6.7-3.8,1.3-2.5,1-3.7,1.5-2.4,1.3-3.6,1.8-2.5,1.1-3.7,1.6-2.4,1.1-3.7,1.7-2.6.9-3.8,1.4-2.1,1.6-3.3,2.1-2.3,1.2-3.5,1.7-2.4,1.1-3.5,1.6-2.2,1.4-3.4,2-2.8,0-4,.6-2,1.8-3.2,2.4-2.6.4-3.8.9-2.3,1.1-3.5,1.6l-3.6,1.5c-1.2.5-2.3,1.2-3.5,1.7s-2.6.4-3.8.8c-2.5.9-1.8,2.8.4,3.5a11.87,11.87,0,0,0,4.6.5C613,230.9,614.6,230.8,616.1,230.2Z"/><path d="M230,65.21V63.06h9.37V60.83l6-3.87H231.92V54.81h17v2.67L241.89,62v1.11h8.94v2.15h-8.94v5.5q.09,3.09-3,3.09-1.71.09-3.69.09a23.11,23.11,0,0,0-.43-2.32c.51.06,1.49.09,2.92.09,1.2,0,1.78-.52,1.72-1.72V65.21Z"/><path d="M252.46,66c-.06-.34-.14-.86-.26-1.54s-.2-1.26-.25-1.55a31.69,31.69,0,0,0,4.21-9.19l2.32.6a36.23,36.23,0,0,1-1.81,4.55V74.23h-2.23V63.15C253.81,64.07,253.15,65,252.46,66Zm6.88,8.25a14.55,14.55,0,0,0-1.81-1.63,28.62,28.62,0,0,0,4.73-4.47l1.89,1.29Q261.83,71.84,259.34,74.23Zm-.95-14.18V58H261V53.78h2.23V58h4V53.78h2.24V58h2.58v2.06h-2.58v5.42h3.26v2.06h-15V65.47H261V60.05Zm4.81,0v5.42h4V60.05Zm7.74,14.1q-2.24-2.33-4.73-4.64l1.72-1.38c.57.52,1.38,1.26,2.41,2.24s1.83,1.63,2.4,2.15Z"/><path d="M279.36,55.33l2.92.69c-.06.17-.14.4-.26.68a3.74,3.74,0,0,0-.25.43,5.5,5.5,0,0,0-.18.95,1.59,1.59,0,0,0-.08.43,7.48,7.48,0,0,0-.17,1,3.51,3.51,0,0,0-.18.86,2.22,2.22,0,0,1,.69-.09,6.5,6.5,0,0,1,.69-.08,2.33,2.33,0,0,0,.52-.09h.85a4.15,4.15,0,0,1,1.64.34,2.14,2.14,0,0,1,.86,1.72v1a22.55,22.55,0,0,1-.78,5.42c-.4,1.95-1.17,3.06-2.32,3.35a6.22,6.22,0,0,1-2.66.6h-.6c-.17-.4-.4-.89-.69-1.46a5.56,5.56,0,0,1-.34-.77l.08-.17a3.06,3.06,0,0,1,.6.08,5.62,5.62,0,0,0,1.21.17h.34a2,2,0,0,0,1.81-1.11,14.62,14.62,0,0,0,.77-2.32,21,21,0,0,0,.51-4,1,1,0,0,0-1.2-1,11.84,11.84,0,0,1-1.29.17l-1.29.26A28,28,0,0,1,275.84,72l-.18.09a7.55,7.55,0,0,0-1.37-.61,4.23,4.23,0,0,0-.69-.34V71a22.31,22.31,0,0,0,3.1-4.38A20.94,20.94,0,0,0,278,63.66a7.16,7.16,0,0,0,.34-.77,23.64,23.64,0,0,0-2.58.86A1.28,1.28,0,0,1,275,64l-1-2.41.17-.17a2.24,2.24,0,0,1,.52.09,1.58,1.58,0,0,0,.69,0c.4-.06,1-.18,1.8-.35s1.29-.28,1.63-.34a1.58,1.58,0,0,1,.09-.52,18.72,18.72,0,0,0,.43-4Zm13.15,8.33-.09.18-1.8,1A28.38,28.38,0,0,0,286.41,59v-.25l1.63-1A24.82,24.82,0,0,1,292.51,63.66Zm.6-5.75v.17L292,59h-.17a6.56,6.56,0,0,0-2.06-2.23v-.17l1-.86H291A18.6,18.6,0,0,1,293.11,57.91ZM291.91,55v-.17l1-.86h.17a.78.78,0,0,0,.26.17c.4.35.86.78,1.37,1.29a1.4,1.4,0,0,1,.52.86l-1,.95h-.17A9.13,9.13,0,0,0,291.91,55Z"/><path d="M298.35,69.59a19.31,19.31,0,0,0-2.4-.94,53.84,53.84,0,0,0,3.95-10.31l2.49.68Q300.67,64.27,298.35,69.59Zm3.1,4.21a7.3,7.3,0,0,0-.52-2.32c.69.06,1.6.09,2.75.09s1.83-.46,1.72-1.72v-16h2.49V70.62q.18,3.18-3.18,3.18Zm13-4.46q-1.71-4.65-4.21-10.23l2.32-.77q1.13,2.56,3.7,8.59a12.5,12.5,0,0,1,.68,1.55Z"/><path d="M318.29,68.82V66.67h9.54v-.6l3.52-2.15H321.9V61.86h12.89v2.06l-4.47,2.75h8.34v2.15h-8.42v2.49c.05,1.84-.92,2.75-2.93,2.75H324c-.17-.8-.34-1.54-.51-2.23h1.37c.63,0,1.12.08,1.46.08,1.15.12,1.66-.34,1.55-1.37V68.82Zm.52-6.19V57.91H331.7l-.35-.18c1.15-1.54,2.06-2.86,2.75-3.95l2.49.77c-.22.29-.54.72-.94,1.29l-1.55,2.07h4v4.72h-2.24V60H321v2.66Zm3.43-4.9c-.23-.34-.57-.88-1-1.63s-.89-1.2-1.12-1.55l2.32-.68c.81,1,1.55,2,2.24,3Zm5.59-.43a8.33,8.33,0,0,1-.52-.94c-.28-.4-.74-1.17-1.37-2.32l2.32-.43c.69,1,1.37,2.09,2.06,3.18Z"/><path d="M340.2,59.8V57.73h2.5V53.61h2.14v4.12h2.07V59.8h-2.07v2l.26.26c.63.52,1.41,1.18,2.32,2l-1.2,1.8-1.38-1.54v10H342.7V64.35a29.39,29.39,0,0,1-2.24,4.9c-.06-.29-.17-.77-.34-1.46a8,8,0,0,0-.35-1.55,25.1,25.1,0,0,0,2.84-6.44Zm19.34,14.09a28.33,28.33,0,0,1-5.76-3,24.45,24.45,0,0,1-6.19,3.35,14.11,14.11,0,0,0-1.28-2.06,17.43,17.43,0,0,0,5.93-2.83,17.23,17.23,0,0,1-2.84-4.9l1.89-.78a17.43,17.43,0,0,0,2.49,4.13,12.38,12.38,0,0,0,2.32-4.3l2.06.69a14.62,14.62,0,0,1-2.83,5.16,15.45,15.45,0,0,0,5.58,2.49,7.51,7.51,0,0,1-.68,1C359.94,73.32,359.71,73.66,359.54,73.89Zm-11.26-9A17.24,17.24,0,0,0,347,63.23a31.62,31.62,0,0,0,4.39-4.12l1.54,1.37A45.23,45.23,0,0,1,348.28,64.87Zm-.51-6.19V56.62h5.32a27.22,27.22,0,0,0-.85-2.67l2.23-.34.94,3h5.08v2.06Zm11.68,5.93q-2.31-2.23-4.64-4.13l1.38-1.37q1.63,1.29,4.3,3.61l.25.26Z"/><path d="M364.7,55.33l3,.94a4.41,4.41,0,0,1-.43,1.12c-.11.29-.2.52-.25.69a17.28,17.28,0,0,0-1.38,6.79v.68a8.12,8.12,0,0,0,.86,4h.09c.11-.23.25-.55.43-1a7.31,7.31,0,0,0,.43-.86l.94.17c-.06.29-.14.69-.26,1.21a14.64,14.64,0,0,0-.43,2.75v.51l-2.06.43a7.87,7.87,0,0,1-1.55-3.35,18.78,18.78,0,0,1-.43-4.38v-1a22.58,22.58,0,0,1,.69-5.5,12.31,12.31,0,0,0,.35-2.83Zm10.82,13.75h.78a18,18,0,0,0,4.81-.69l.09,2.32a12,12,0,0,1-4,.6h-.94q-4.05,0-6.1-1.89a2.21,2.21,0,0,1-.69-1l1.55-.94A5.88,5.88,0,0,0,375.52,69.08Zm.09-11.86h.95a33.39,33.39,0,0,1,3.35.17v2.23c-.4,0-1,0-1.64-.08s-1.2-.09-1.54-.09h-1a17.48,17.48,0,0,0-2.4.26,14.29,14.29,0,0,1-2.24.26L371,57.65a17.07,17.07,0,0,0,2-.17A19.57,19.57,0,0,1,375.61,57.22Z"/><path d="M89.31,129.26v-2h7.91V111.61h2.66v5.7h8.25v2.14H99.88v7.83h9.88v2Z"/><path d="M116.47,113l2.92.63c-.06.16-.15.37-.26.63a3.25,3.25,0,0,0-.26.4,5,5,0,0,0-.17.87,1.17,1.17,0,0,0-.09.4c0,.21-.11.52-.17.94a3.35,3.35,0,0,0-.17.8,2.17,2.17,0,0,1,.69-.08,6.23,6.23,0,0,1,.69-.08,2.79,2.79,0,0,0,.51-.08H121a4.27,4.27,0,0,1,1.63.32,1.88,1.88,0,0,1,.86,1.58v.95a19.6,19.6,0,0,1-.77,5c-.4,1.8-1.18,2.83-2.32,3.09a6.68,6.68,0,0,1-2.67.55h-.6c-.17-.37-.4-.81-.68-1.34a6.2,6.2,0,0,1-.35-.71l.09-.16a3.25,3.25,0,0,1,.6.08,6.76,6.76,0,0,0,1.2.15h.35a2,2,0,0,0,1.8-1,11.9,11.9,0,0,0,.77-2.14,17.23,17.23,0,0,0,.52-3.64c-.06-.69-.46-1-1.2-1-.29.05-.72.11-1.29.16l-1.29.24a25.1,25.1,0,0,1-4.73,8.78l-.17.08a9.71,9.71,0,0,0-1.37-.56,4.44,4.44,0,0,0-.69-.31v-.16a20.05,20.05,0,0,0,3.09-4,16.77,16.77,0,0,0,1.29-2.69,4.61,4.61,0,0,0,.34-.71,25.23,25.23,0,0,0-2.57.79,1.33,1.33,0,0,1-.78.24l-.94-2.22.17-.15a2.05,2.05,0,0,1,.51.08,1.58,1.58,0,0,0,.69,0c.4-.06,1-.16,1.81-.32s1.29-.26,1.63-.32a1.31,1.31,0,0,1,.09-.47,16.59,16.59,0,0,0,.43-3.72Zm13.14,7.67-.08.16-1.81.95a26,26,0,0,0-4.21-5.38v-.24l1.64-.87A22.89,22.89,0,0,1,129.61,120.63Zm.61-5.3v.16l-1.12.87h-.17a6.5,6.5,0,0,0-2.07-2.06v-.16l1-.79h.17A18.75,18.75,0,0,1,130.22,115.33ZM129,112.64v-.16l1-.79h.18a.9.9,0,0,0,.25.16c.4.32.86.71,1.38,1.19a1.26,1.26,0,0,1,.51.79l-1,.87h-.17A8.45,8.45,0,0,0,129,112.64Z"/><path d="M137,114h1.21a21.85,21.85,0,0,0,6.36-.8.83.83,0,0,0,.34-.07,1.32,1.32,0,0,1,.52-.16h.08l2.24,1.66v.08a8.21,8.21,0,0,0-2,1.74l-1.37,1.5c-.64.64-1.12,1.14-1.47,1.51.23,0,.58,0,1-.08a8.23,8.23,0,0,1,.94-.08h.43a6.39,6.39,0,0,1,3.78,1.26,4.24,4.24,0,0,1,1.63,3.41v.23a4.63,4.63,0,0,1-2.57,3.88,8.22,8.22,0,0,1-4.3,1.19h-.34c-2.64-.21-4-1.11-4.22-2.69v-.32c.18-1.37,1.15-2.13,2.93-2.29h.43q2.15,0,4.21,2.53a3.33,3.33,0,0,0,1.37-2.45v-.4c-.17-1.48-1.23-2.29-3.18-2.45h-.43A7.49,7.49,0,0,0,138.9,124a.24.24,0,0,1-.09.16,1.4,1.4,0,0,1-.43.39l-2.06-1.42v-.24a30.91,30.91,0,0,0,7.3-7.36,12.65,12.65,0,0,0-4.72,1c-.06,0-.12,0-.18.16a.71.71,0,0,1-.6.16L137,114.14Zm5.76,13.53h.43a3.65,3.65,0,0,0,1.12-.16,1.08,1.08,0,0,0-.6-.87,2.13,2.13,0,0,0-2.06-.63c-.52.26-.66.6-.43,1A1.83,1.83,0,0,0,142.76,127.52Z"/><path d="M164.85,125.78h1.8a29.47,29.47,0,0,0,6.36-.72v2.54a39.26,39.26,0,0,1-6.61.47h-1.29a8.76,8.76,0,0,1-7.05-2.69v-.24l1.46-1.18q.09-.17.09,0a6.79,6.79,0,0,0,2.49,1.5A8.63,8.63,0,0,0,164.85,125.78Zm.43-11.08H166a21.67,21.67,0,0,0,4-.56c-.05,0,0,0,.26-.07v2.29c-1.2.11-2.38.16-3.52.16h-2c-1.2,0-2.38-.16-3.52-.32l-.17-.08-.52-2.21.09-.08.68.16A16.41,16.41,0,0,0,165.28,114.7Z"/><path d="M192.43,115.49l1.89,2v.16a32.84,32.84,0,0,0-8.33,3.24,10.25,10.25,0,0,0-2.67,2.37,2.65,2.65,0,0,0-.51,1.35v.32a2.45,2.45,0,0,0,1.63,2.13,7.11,7.11,0,0,0,2.92.48H188a19.16,19.16,0,0,0,5-.64l.17,2.38c-1.49.1-2.92.16-4.3.16h-1.28a8.45,8.45,0,0,1-4.56-.87,3.89,3.89,0,0,1-2.23-3.56v-.4c.05-1.79,1.23-3.43,3.52-4.91a.83.83,0,0,1,.43-.31,30.68,30.68,0,0,0-2.75-6.65l2.32-.4a44.74,44.74,0,0,1,2.58,5.94l3.09-1.43A10.06,10.06,0,0,0,192.43,115.49Z"/><path d="M207.22,111.69h.34l2.49.63v.16a1.25,1.25,0,0,0-.43.64c-.11.21-.2.37-.26.47-.23.69-.43,1.4-.6,2.14a.62.62,0,0,1-.08.23,3.11,3.11,0,0,1-.18.4h1.64a9,9,0,0,0,1.46-.16,2.79,2.79,0,0,1,.51-.08l-.43,2a.36.36,0,0,1-.25.08h-3.36c0,.37-.11.87-.17,1.5s-.2,1.32-.25,1.74a15.11,15.11,0,0,0,4.12.08v.32l-.34,1.58a.35.35,0,0,1-.26.08h-1.81c-.63,0-1.29,0-2-.08V124a2,2,0,0,0-.09.55v.79a2.85,2.85,0,0,0,.86,2.06,3.27,3.27,0,0,0,2,.71h.51a3.87,3.87,0,0,0,2.5-.79,3.09,3.09,0,0,0,.85-2.14v-.31a7.44,7.44,0,0,0-1.63-3.72,1.8,1.8,0,0,0-.26-.4l2.5-.16A6.62,6.62,0,0,1,216.5,125v.39a4.45,4.45,0,0,1-1.81,3.48,5.6,5.6,0,0,1-3.78,1.19h-.51a5.69,5.69,0,0,1-3.7-1.34,4.19,4.19,0,0,1-1.38-3.57v-.79a8.9,8.9,0,0,1,.09-1.26,13.91,13.91,0,0,0-1.37-.4,9.1,9.1,0,0,0-1.47-.39l.18-2a13.07,13.07,0,0,0,2.92.79v-.4a9.31,9.31,0,0,0,.34-1.42c.12-.58.2-1,.26-1.35-.69-.16-1.32-.31-1.89-.47s-.69-.13-.69-.24l.17-2a17.11,17.11,0,0,0,2.67.71c.05-.15.14-.44.26-.87a4.07,4.07,0,0,1,.17-.79,3.7,3.7,0,0,1,.08-.55,8.59,8.59,0,0,0,.18-1.5Z"/><path d="M225.35,115.65h1.29c.28,0,.74,0,1.37-.08h.69a1.17,1.17,0,0,1,.09-.4,18.38,18.38,0,0,0,.17-2,4.52,4.52,0,0,0-.09-.8h.43c.29,0,.69,0,1.2.08a8.36,8.36,0,0,0,1,.08,1.1,1.1,0,0,1-.18.79.77.77,0,0,0-.17.4,3.29,3.29,0,0,1-.17.79,5,5,0,0,1-.17.87,3.09,3.09,0,0,0,.94-.16,24.39,24.39,0,0,0,3.87-.79v2c-1.55.32-3.12.61-4.73.87h-.43c-.05.53-.11,1.16-.17,1.9a15.57,15.57,0,0,1,2.67-.47,1.41,1.41,0,0,1,.08-.32v-.48c-.05-.1,0-.21.17-.31l2.07.31.08.16-.08.08a4.89,4.89,0,0,0-.26.63,6,6,0,0,1,3.44,1.19,5.69,5.69,0,0,1,2,3.88v.55q-.08,2.85-3.35,4.75a4.33,4.33,0,0,1-2.06.79H235a8.79,8.79,0,0,0-1.89-1.5,7.16,7.16,0,0,0,3.7-1.27,4,4,0,0,0,1.63-2.93V124a3.85,3.85,0,0,0-1.8-3.09,4,4,0,0,0-1-.32h-.17a3.56,3.56,0,0,0-1-.23,18.23,18.23,0,0,1-3.69,5.77,11.44,11.44,0,0,0,.6,1.43c-.17,0-.46.16-.86.31a2.78,2.78,0,0,1-.94.24c-.18,0-.32-.16-.43-.47a1.85,1.85,0,0,1-.95.47,5.45,5.45,0,0,1-3.18,1.19h-.34c-1.32,0-2-.95-2.15-2.69v-.32a7.19,7.19,0,0,1,2.49-4.67,11.52,11.52,0,0,1,3.18-1.82q0-.47.09-1.5a4.33,4.33,0,0,1,.08-.79h-1.29c-.63,0-1.11.08-1.46.08H224.4c-.17,0-.25,0-.25-.08a2.05,2.05,0,0,1-.52-1.11v-.08c-.17-.32-.2-.55-.09-.71C224.17,115.62,224.78,115.65,225.35,115.65Zm3.26,10.13-.08-.24a31,31,0,0,1-.26-4,7.36,7.36,0,0,0-3.18,3,2.65,2.65,0,0,0-.52,1.58c.06.79.43,1.19,1.12,1.19a3.53,3.53,0,0,0,2.15-.87A5.19,5.19,0,0,1,228.61,125.78Zm1.72-5.07v1.9a4.36,4.36,0,0,0,.09,1.43,13.36,13.36,0,0,0,2.23-3.8c-1,.16-1.66.29-2.06.39A.34.34,0,0,1,230.33,120.71Z"/><path d="M249.84,118.26v.4a4.35,4.35,0,0,0,.34,1.89h.18l.86-1.26h.25l.95.79c-.12.21-.26.5-.43.87a7.43,7.43,0,0,0-1,3.09v.31a12.91,12.91,0,0,1-2.06.16,6.18,6.18,0,0,1-.86-2.06,12,12,0,0,1-.51-3.56v-.63a18.86,18.86,0,0,1,.34-2.93,14.66,14.66,0,0,0,.34-2.61c.86,0,1.69.13,2.5.24a12.22,12.22,0,0,0-.43,1.66A17.23,17.23,0,0,0,249.84,118.26Zm6-5.54,2.83-.24.17.08a7.85,7.85,0,0,0,.18,2.69,3,3,0,0,0,.17.87,25.77,25.77,0,0,1,.26,3v1.27a10.8,10.8,0,0,1-1,4.82,11.86,11.86,0,0,1-3.61,4.83c-.06.11-.14.11-.26,0l-2-.87-.09-.16a12.79,12.79,0,0,0,3.09-3.4,11,11,0,0,0,1.38-5.46v-1.5A13.41,13.41,0,0,0,255.86,112.72Z"/><path d="M274.85,125.78h1.8a29.47,29.47,0,0,0,6.36-.72v2.54a39.26,39.26,0,0,1-6.61.47h-1.29a8.76,8.76,0,0,1-7.05-2.69v-.24l1.46-1.18q.09-.17.09,0a6.79,6.79,0,0,0,2.49,1.5A8.63,8.63,0,0,0,274.85,125.78Zm.43-11.08H276a21.67,21.67,0,0,0,4-.56c-.05,0,0,0,.26-.07v2.29c-1.2.11-2.38.16-3.52.16h-2c-1.2,0-2.38-.16-3.52-.32l-.17-.08-.52-2.21.09-.08.68.16A16.41,16.41,0,0,0,275.28,114.7Z"/><path d="M292.64,113.83v-.4a4.62,4.62,0,0,0-.17-1.11,24.49,24.49,0,0,0,2.92.16v.24a2.52,2.52,0,0,0-.52.87.54.54,0,0,0-.08.24,20.48,20.48,0,0,0-.52,2.37c.06,0,.09,0,.09-.08l1.54,1.11c.06.11,0,.24-.17.4a.22.22,0,0,0-.17.08,2.26,2.26,0,0,0-.43.63c-.23.26-.4.47-.52.63.29-.21.72-.55,1.29-1,1.84-1.69,3.44-2.5,4.82-2.45h.34a3.49,3.49,0,0,1,1.46.32,1.92,1.92,0,0,1,1,1.42v.32a36.36,36.36,0,0,1-.43,4.51c-.18,1-.29,1.74-.35,2.21a3,3,0,0,0,.09,1.67c.23.47.69.6,1.37.39a4.84,4.84,0,0,0,2-1.19l.34-.31.09-.08c.29-.42.57-.63.86-.63l.69,2.13a16,16,0,0,1-2.24,1.82,5,5,0,0,1-2.4.79h-.35a3.42,3.42,0,0,1-2-.87,4,4,0,0,1-.61-2.37v-.32a27.64,27.64,0,0,1,.43-3.88,7.65,7.65,0,0,1,.18-1,2.77,2.77,0,0,1,.08-.56,4.68,4.68,0,0,0,.17-1.11v-.31c-.11-.64-.68-.9-1.72-.79a7.74,7.74,0,0,0-2.14,1.26l-.18.16a24.47,24.47,0,0,0-2.83,2.37,3.14,3.14,0,0,0-.43.56l-.52.47v.64c0,.84.09,2.13.26,3.87.11,1.22.17,2.14.17,2.77h-2.49v-3q0-1,.09-2a27.37,27.37,0,0,0-2.58,3.32h-.17L287,127v-.16q4.45-4.42,5.24-7.83l-1.21.48a9.24,9.24,0,0,0-2.66,1.18l-1.2-2.37.08-.16a14.19,14.19,0,0,0,5.07-1,11.63,11.63,0,0,0,.18-1.19c0-.47.08-.84.08-1.1a3,3,0,0,1,.09-.56Z"/><path d="M319,117.39h1.29A2,2,0,0,1,322,118a2.34,2.34,0,0,1,.51,1.51v.31a15.9,15.9,0,0,1-.77,4.67c-.46,1.85-1.26,3-2.41,3.56a6.23,6.23,0,0,1-2.92.56H316c-.17,0-.26,0-.26-.08-.11-.21-.25-.5-.43-.87a7.54,7.54,0,0,0-.6-1.11v-.08a8.37,8.37,0,0,1,.95.08,8.38,8.38,0,0,0,.86.08h.34a1.87,1.87,0,0,0,1.63-.71,5.11,5.11,0,0,0,.86-1.43.21.21,0,0,0,.09-.16,9.53,9.53,0,0,0,.77-3.8v-.47a.91.91,0,0,0-.86-1,16.37,16.37,0,0,0-1.89.16,8.23,8.23,0,0,1-.94.08,28.86,28.86,0,0,1-3.27,6.49,13,13,0,0,1-1.8,2.21,2.38,2.38,0,0,1-1-.39,4.34,4.34,0,0,0-.43-.24.29.29,0,0,1-.18-.08c-.34,0-.54-.16-.6-.32a13.12,13.12,0,0,0,3.35-4.27c.58-1,1.12-2.08,1.64-3.09a7,7,0,0,0-2.49.64l-.09.08a1.16,1.16,0,0,1-.6.15l-1.21-2.29.09-.16a8.57,8.57,0,0,0,2.41,0,8.14,8.14,0,0,1,.86-.08,6,6,0,0,1,1.63-.24c.11-.31.2-.58.26-.79a9.31,9.31,0,0,0,.51-3.16v-.56a.71.71,0,0,1-.08-.31c.23.05.54.1.94.16.8.1,1.43.21,1.89.31a1.13,1.13,0,0,1-.34.71.24.24,0,0,0-.09.16,3.25,3.25,0,0,0-.25,1.11,1.17,1.17,0,0,0-.09.4,4.54,4.54,0,0,1-.17.87c-.06.37-.12.66-.17.87A10.45,10.45,0,0,1,319,117.39Zm4.21-1v-.24a5.06,5.06,0,0,1,.77-.55c.35-.26.61-.45.78-.56s.43.06.77.48a11.67,11.67,0,0,1,1.63,1.66,34.55,34.55,0,0,1,2.67,3.25v.23l-2.06,1.19A33.35,33.35,0,0,0,323.23,116.36Z"/><path d="M334.83,115.89l2.41.47a29.39,29.39,0,0,0-.77,5.94,10.34,10.34,0,0,1,6.18-2.38h.6a7.8,7.8,0,0,1,3.87.87,4,4,0,0,1,1.81,3v.39a4.63,4.63,0,0,1-1.81,3.49,13.11,13.11,0,0,1-3.95,1.74,4.62,4.62,0,0,1-2.06.47L340,128.15v-.08a31,31,0,0,0,3.44-.71c1.94-.74,2.92-1.69,2.92-2.85v-.32q-.18-2.13-3.18-2.37h-.35a9.93,9.93,0,0,0-3.43.79,5.58,5.58,0,0,0-2.75,2.53l-2.49-.79c.05-.42.14-1.08.25-2a52.25,52.25,0,0,0,.43-5.61Zm1.81-2.77,1.46-1.51a4.69,4.69,0,0,1,.69.32,30.2,30.2,0,0,1,3.78,1.74v.16l-1.46,1.42A24.72,24.72,0,0,0,336.64,113.12Z"/><path d="M373.76,120.63v.56a6.91,6.91,0,0,1-2.32,5,10.58,10.58,0,0,1-4.29,2.85q0,.16-.18,0a8.2,8.2,0,0,0-2-1.19v-.15q6.18-2.7,6.27-6.89v-.39a5,5,0,0,0-1.89-3.64,7.08,7.08,0,0,0-3.61-1.43,42.1,42.1,0,0,1-1.89,5.78,35.67,35.67,0,0,1-2.66,5.14,3.23,3.23,0,0,1-2.75,1.9,5.77,5.77,0,0,1-5.16-5.38v-.4a6.93,6.93,0,0,1,.69-2.61,9.33,9.33,0,0,1,1.54-2.37,9.77,9.77,0,0,1,4.64-3.25,13.57,13.57,0,0,1,4-.79h.94a9.14,9.14,0,0,1,6.28,2.14A7.25,7.25,0,0,1,373.76,120.63ZM355.63,122v.39a4.16,4.16,0,0,0,.86,2.46,2,2,0,0,0,1.63,1,2.23,2.23,0,0,0,1.46-1,12.86,12.86,0,0,0,.86-1.43c.12-.26.2-.44.26-.55a25.13,25.13,0,0,0,2.92-7.52,14.55,14.55,0,0,0-3.26.79,11.48,11.48,0,0,0-3.53,2.93A5.87,5.87,0,0,0,355.63,122Z"/><path d="M377.11,120.4v-7.13h2.32v5.07h4.82v-6.81h2.49v6.81h4.81v-5.07H394v7.13h-7.22v7.12h5.58v-5.15h2.33v7.76h-2.33v-.79h-16v-7h2.32v5.15h5.59V120.4Z"/><path d="M398,121.74a5.69,5.69,0,0,0-.78-1.42q4.9-.55,5.93-1.74h-4.81l.69-3.49h4.9v-1h-5.5v-1.35h5.5v-1.27h2.14v1.27h3.18v-1.27h2.15v1.27h5.16v3.56H411.4v1.11h5.93a7.1,7.1,0,0,1-.08.87,2.45,2.45,0,0,1-.09.79c-.06,1-.63,1.43-1.72,1.43v7.12H399.72v-6.1Zm.08,8.71a8.52,8.52,0,0,0-.34-.8l-.43-.79,1.55-.23c1.71-.27,3.83-.53,6.36-.8L406,129C402.78,129.65,400.15,130.13,398.08,130.45Zm2.84-14.17-.26,1.11h3.09a2.66,2.66,0,0,0,.18-1v-.16Zm1,5.14v1h11.26v-1Zm0,2v.95h11.26v-.95Zm0,2v1h11.26v-1Zm7.3-5.54v-1.26h-3.6a3.35,3.35,0,0,1-1.81,1.66h9.28a1.2,1.2,0,0,0-.17-.48,4,4,0,0,0-.17-.39h1.63c.46,0,.72-.16.77-.48v-.31H411.4v1.26Zm-3.18-3.32a1.81,1.81,0,0,1-.08.47v.4h3.26v-1.11h-3.18Zm0-2.45v1h3.18v-1Zm11,16.3c-3-.58-5.67-1-7.9-1.35l.6-1.19c2.58.22,5.21.56,7.91,1Zm-2.57-16.3h-3.1v1h3.1Z"/><path d="M427,111.69l2.75.63v.16l-.6.64c-.06.15-.18.42-.35.79a3,3,0,0,1-.34.87,16.38,16.38,0,0,0,3.44-.79v2.13a26.12,26.12,0,0,1-4.21.64,14.08,14.08,0,0,1-1.29,2.29,7,7,0,0,1,2.4-.63h.35a3.79,3.79,0,0,1,.86.16l.17.08a2.93,2.93,0,0,1,1,.87,2.85,2.85,0,0,1,.69,1.58c.51-.21,1-.4,1.46-.56l.77-.23a12.92,12.92,0,0,0,1.55-.56,1.36,1.36,0,0,0,.34-.23c.23-.21.4-.29.52-.24l1.8,1.9v.23a55.35,55.35,0,0,0-6.1,1.51,5.29,5.29,0,0,1,.17,1.34v.56a9.3,9.3,0,0,1-.17,1.34,4.33,4.33,0,0,0-.09.71H430a5.54,5.54,0,0,1,.08-.87v-2.29a8.57,8.57,0,0,0-1.89,1c-1.09.68-1.46,1.42-1.12,2.21s1.21,1.11,2.93,1.11h.34a21.85,21.85,0,0,0,4.3-.55l.25,2.29a24.72,24.72,0,0,1-3.43.24h-1.29a8.08,8.08,0,0,1-3.53-.71,3,3,0,0,1-1.8-2.3v-.31a5,5,0,0,1,2.49-3.64,10.37,10.37,0,0,1,1.72-.87l1-.48a2.07,2.07,0,0,0-1-1.58,3.07,3.07,0,0,0-1.63.16q-1.89.87-4.13,4.19a3.49,3.49,0,0,0-.34.48l-2.15-.87a35.41,35.41,0,0,0,4.64-7.21h-2.49l-.6-1.9v-.15a12.66,12.66,0,0,0,1.8.15h2.15a1.09,1.09,0,0,0,.09-.31,5.89,5.89,0,0,0,.6-2.53Z"/><path d="M449.22,130c-.12-.58-.26-1.21-.43-1.9h4.89c1.32.05,2-.31,2.07-1.11a8.05,8.05,0,0,0,.17-1.66H445.86l.52-2.37q-2.14,1-4.47,2c-.29-.69-.6-1.35-.94-2a65.1,65.1,0,0,0,9.1-4H441.4v-1.74h7.13v-2.06H443v-1.74h5.5v-2h2.23v2h4.73v1.74h-4.73v2.06H453a63,63,0,0,0,5.84-4.75l1.81,1.27q-2.16,1.81-4.39,3.48h5.5V119H453.6c-.75.48-1.55,1-2.41,1.43h9.2v1.74h-11.6l-.35,1.5H458.5c-.06.37-.12.92-.18,1.66-.11,1-.2,1.61-.25,2q-.18,2.68-3.61,2.61C453.77,129.94,452,130,449.22,130Z"/><path d="M466.49,118.18h.43a25.41,25.41,0,0,0,4.55-.4,9.66,9.66,0,0,0,2.93-.55.94.94,0,0,0,.51-.32h.17l2,1.11c.11.06.14.16.09.32v.08a12.82,12.82,0,0,0-2.75,2.69l-1,1.19H474a2.77,2.77,0,0,1,1.63.47,3.18,3.18,0,0,1,.6,1.58,5,5,0,0,1,.17.71,9.27,9.27,0,0,0,.35,1.43,1.27,1.27,0,0,0,1.2,1h1a13.51,13.51,0,0,0,3.09-.4v2.14a27.06,27.06,0,0,1-2.75.16h-1.8a2.84,2.84,0,0,1-2.41-1,6.6,6.6,0,0,1-.86-2.38,1.41,1.41,0,0,0-.08-.39,6.1,6.1,0,0,0-.17-.79,1.27,1.27,0,0,0-1.12-.71,2.47,2.47,0,0,0-1.81.94,44.23,44.23,0,0,0-3.69,4.36h-.17a17.32,17.32,0,0,0-2.15-1.27v-.08a65.84,65.84,0,0,0,6-6.09,14.75,14.75,0,0,0,2.07-2.69l-.09-.16a9.83,9.83,0,0,1-2.58.63,11,11,0,0,0-2,.48.82.82,0,0,0-.43.16c-.18.15-.32.21-.43.15Zm5.5-6.33h.17a29.24,29.24,0,0,0,4.21,1.82,1,1,0,0,0,.26.16.6.6,0,0,1,.43.24l-.69,1.66-.26.08a28.64,28.64,0,0,1-5.07-2.22v-.16C471.33,113,471.65,112.43,472,111.85Z"/><path d="M489,114h1.21a21.85,21.85,0,0,0,6.36-.8.83.83,0,0,0,.34-.07,1.32,1.32,0,0,1,.52-.16h.08l2.24,1.66v.08a8.21,8.21,0,0,0-2,1.74l-1.37,1.5c-.64.64-1.12,1.14-1.47,1.51.23,0,.58,0,1-.08a8.23,8.23,0,0,1,.94-.08h.43a6.39,6.39,0,0,1,3.78,1.26,4.24,4.24,0,0,1,1.63,3.41v.23a4.63,4.63,0,0,1-2.57,3.88,8.22,8.22,0,0,1-4.3,1.19h-.34c-2.64-.21-4-1.11-4.22-2.69v-.32c.18-1.37,1.15-2.13,2.93-2.29h.43q2.15,0,4.21,2.53a3.33,3.33,0,0,0,1.37-2.45v-.4c-.17-1.48-1.23-2.29-3.18-2.45h-.43A7.49,7.49,0,0,0,490.9,124a.24.24,0,0,1-.09.16,1.4,1.4,0,0,1-.43.39l-2.06-1.42v-.24a30.91,30.91,0,0,0,7.3-7.36,12.65,12.65,0,0,0-4.72,1c-.06,0-.12,0-.18.16a.71.71,0,0,1-.6.16L489,114.14Zm5.76,13.53h.43a3.65,3.65,0,0,0,1.12-.16,1.08,1.08,0,0,0-.6-.87,2.13,2.13,0,0,0-2.06-.63c-.52.26-.66.6-.43,1A1.83,1.83,0,0,0,494.76,127.52Z"/><path d="M522.43,115.49l1.89,2v.16a32.84,32.84,0,0,0-8.33,3.24,10.25,10.25,0,0,0-2.67,2.37,2.65,2.65,0,0,0-.51,1.35v.32a2.45,2.45,0,0,0,1.63,2.13,7.11,7.11,0,0,0,2.92.48H518a19.16,19.16,0,0,0,5-.64l.17,2.38c-1.49.1-2.92.16-4.3.16h-1.28a8.45,8.45,0,0,1-4.56-.87,3.89,3.89,0,0,1-2.23-3.56v-.4c.05-1.79,1.23-3.43,3.52-4.91a.83.83,0,0,1,.43-.31,30.68,30.68,0,0,0-2.75-6.65l2.32-.4a44.74,44.74,0,0,1,2.58,5.94l3.09-1.43A10.06,10.06,0,0,0,522.43,115.49Z"/><path d="M538.07,128.23l-1.71,1.58-4.64-4.67,1.63-1.34Z"/><path d="M122.35,179.14c-1-.74-2.12-1.46-3.26-2.15l1-1.54c1,.51,2.09,1.14,3.35,1.89ZM121,188.08v-1.72h7.3v-1.2h2.32v1.2h7.48v1.72H130.6v1.8h9.2v1.81H119.17v-1.81h9.11v-1.8Zm.51-2.67-1.89-1c1-1.6,1.89-3.23,2.75-4.9a10.24,10.24,0,0,0,1.21.61,3.84,3.84,0,0,0,.68.34Q123.13,182.32,121.49,185.41Zm2.49-9.79c-.51-.35-1.26-.8-2.23-1.38a9.84,9.84,0,0,1-1.12-.68l1.12-1.64c1.09.58,2.23,1.23,3.44,2Zm.43,9.45c-.28-.51-.6-1-.94-1.55a25.83,25.83,0,0,0,4.47-2.32l1.12,1.29Q126.48,184,124.41,185.07Zm3.36-7.39v-1.12c-.23.12-.61.29-1.12.52a14.4,14.4,0,0,1-1.46.6c-.4-.63-.78-1.23-1.12-1.8a17.83,17.83,0,0,0,7.22-4.22l2.32.26-.52.52a21.31,21.31,0,0,0,6.71,3.26,4.93,4.93,0,0,1-.26.43,13.53,13.53,0,0,0-.77,1.46,1.25,1.25,0,0,0-.35-.17,16.55,16.55,0,0,1-2.32-1v1.29H133v1.46h5.58v1.72H133v1.8c.05,1.67-.69,2.47-2.24,2.41q-1.11.09-2.4.09a9,9,0,0,0-.35-1.64q1,.09,1.89.09a.91.91,0,0,0,1-1v-1.72H125v-1.72H131v-1.46Zm4.12-4a15.1,15.1,0,0,1-3.52,2.49h7.3A18.54,18.54,0,0,1,131.89,173.64Zm6.53,11.43a22,22,0,0,0-2.58-1.37c-.74-.35-1.31-.63-1.71-.86l.94-1.38a.81.81,0,0,0,.34.17,42.89,42.89,0,0,1,4,1.89Z"/><path d="M147.79,179.31v.43a5.2,5.2,0,0,0,.34,2.07h.18l.85-1.38h.26l1,.86c-.12.23-.26.54-.43.94a8.65,8.65,0,0,0-.95,3.36v.34a11.85,11.85,0,0,1-2.06.17,7,7,0,0,1-.86-2.23,14.2,14.2,0,0,1-.51-3.87v-.69a22.31,22.31,0,0,1,.34-3.18,17.18,17.18,0,0,0,.34-2.83c.86,0,1.69.14,2.49.26a15.81,15.81,0,0,0-.42,1.8A20.25,20.25,0,0,0,147.79,179.31Zm6-6,2.83-.26.17.09a9.47,9.47,0,0,0,.17,2.92,3.49,3.49,0,0,0,.18.94,29.9,29.9,0,0,1,.25,3.27v1.37a12.49,12.49,0,0,1-.94,5.25,13,13,0,0,1-3.61,5.24c-.06.11-.14.11-.26,0l-2-1-.09-.17a13.66,13.66,0,0,0,3.09-3.69,12.73,12.73,0,0,0,1.38-5.93v-1.64A15.59,15.59,0,0,0,153.81,173.3Z"/><path d="M171.94,182.66c-.35-.28-.95-.74-1.81-1.37l-1.37-1.12a7.59,7.59,0,0,1-2.92,2.75h15.38v9.54H179v-1H167.9v1h-2.24V183c-.51.23-1.06.49-1.63.77a6,6,0,0,0-.86-1.46,1.76,1.76,0,0,0-.26-.34c2.53-1,4-2.07,4.47-3.27h-4.12V177h4.55v-1.46h-4V173.9h4l.09-2H170l-.08,2h2.92v1.63h-3V177H173v1.72H169.7c1,.63,2.18,1.41,3.44,2.32,2-.74,3.18-1.52,3.52-2.32h-2.83V177h3.26v-.43a3.43,3.43,0,0,0,.09-.68v-.35H174V173.9h3.18v-2h2.06l-.08,2h4v1.63h-4l-.09,1.2V177h4.47v1.72h-4.13q1,2,4.47,2.92c-.34.58-.68,1.21-1,1.89-2.4-1-4-2.17-4.72-3.61-.46,1-1.75,1.92-3.87,2.84a13.79,13.79,0,0,0-1.12-1.72Zm-4,2v1.81H179v-1.81Zm0,3.35v1.81H179V188Z"/><path d="M188.44,179.23h.43a24.62,24.62,0,0,0,4.55-.43,9.28,9.28,0,0,0,2.92-.6,1,1,0,0,0,.52-.35H197l2,1.21c.11.05.14.17.08.34v.08a14,14,0,0,0-2.75,2.93l-1,1.29h.6a2.69,2.69,0,0,1,1.64.51,3.67,3.67,0,0,1,.6,1.72,5.52,5.52,0,0,1,.17.77,12.54,12.54,0,0,0,.34,1.55,1.32,1.32,0,0,0,1.21,1.12h1a13.2,13.2,0,0,0,3.09-.43v2.32a24.56,24.56,0,0,1-2.75.17h-1.8a2.72,2.72,0,0,1-2.41-1.12,7.41,7.41,0,0,1-.86-2.58,1.59,1.59,0,0,0-.08-.42,5,5,0,0,0-.18-.86,1.25,1.25,0,0,0-1.11-.78,2.42,2.42,0,0,0-1.81,1,47.73,47.73,0,0,0-3.69,4.73h-.17a16.94,16.94,0,0,0-2.15-1.37V190a69.84,69.84,0,0,0,6-6.62,15.71,15.71,0,0,0,2.07-2.92l-.09-.17a9.13,9.13,0,0,1-2.58.69,10.4,10.4,0,0,0-2,.51.92.92,0,0,0-.43.17c-.17.18-.31.23-.42.18Zm5.5-6.88h.17a28.13,28.13,0,0,0,4.21,2,1,1,0,0,0,.26.17.61.61,0,0,1,.43.26l-.69,1.8-.26.09a27.37,27.37,0,0,1-5.07-2.41v-.17C193.28,173.56,193.59,173,193.94,172.35Z"/><path d="M220.49,176.73l1.64,1.81v.17c-1.21.35-2.35.72-3.44,1.12a32.72,32.72,0,0,0-5.33,2.66,6.79,6.79,0,0,0-2.15,2.07,3.78,3.78,0,0,0-.6,1.8v.26a2.62,2.62,0,0,0,1.8,2.23,6.85,6.85,0,0,0,2.75.52h.35a30.38,30.38,0,0,0,4.12-.43c.46-.06.81-.12,1-.17l.18,2.49c-1.09.11-2.3.17-3.61.17h-1.81a11.13,11.13,0,0,1-3.52-.6,5.8,5.8,0,0,1-2.92-2.06,4.55,4.55,0,0,1-.43-2.07v-.34a6.17,6.17,0,0,1,1.89-4.13,12.69,12.69,0,0,1,2.23-1.89,25,25,0,0,0-2.83-7l2.32-.35a39,39,0,0,1,2.49,6.28.36.36,0,0,0,.26-.09,11.53,11.53,0,0,1,2.66-1,6.07,6.07,0,0,1,.86-.43,9.13,9.13,0,0,0,1.38-.6A.26.26,0,0,0,220,177,.74.74,0,0,1,220.49,176.73Zm.35-1.8,1.37-.77c.12.17.29.4.52.68a17.3,17.3,0,0,1,1.54,2l-1.37.86A21.39,21.39,0,0,0,220.84,174.93Zm2.32-1.55,1.2-.68a8.39,8.39,0,0,1,2.06,2.66l-1.2.77c-.23-.34-.57-.8-1-1.37S223.39,173.67,223.16,173.38Z"/><path d="M238.8,187.48h1.8a27.37,27.37,0,0,0,6.36-.78v2.75a35,35,0,0,1-6.62.52h-1.28a9.63,9.63,0,0,1-4-.69,10.28,10.28,0,0,1-3-2.23v-.26l1.46-1.29q.09-.17.09,0a6.7,6.7,0,0,0,2.49,1.63A7.93,7.93,0,0,0,238.8,187.48Zm.43-12h.68a19.49,19.49,0,0,0,4-.61s0,0,.26-.08v2.49c-1.2.12-2.38.17-3.52.17h-2a33.31,33.31,0,0,1-3.52-.34L235,177l-.52-2.4.09-.09a4.45,4.45,0,0,0,.68.17A14.93,14.93,0,0,0,239.23,175.45Z"/><path d="M255.81,174.67h.52a15.78,15.78,0,0,0,2.75-.34c-.8.17-.72.17.26,0a10.08,10.08,0,0,0,3.86-1,.78.78,0,0,0,.35-.17A.85.85,0,0,1,264,173h.25l1.9,1.46v.26a6.44,6.44,0,0,0-1.81,1.89,2.75,2.75,0,0,1-.43.6q-1.54,1.89-3.26,3.87l.94-.26a9.65,9.65,0,0,1,2.49-.43h.35a8,8,0,0,1,3.86,1,4.75,4.75,0,0,1,2.15,3.87v.34a5.6,5.6,0,0,1-2.83,4.9,10,10,0,0,1-5.16,1.55l-.95-2.06h.35a8.62,8.62,0,0,0,3.69-.69,3.93,3.93,0,0,0,2.41-3.44v-.34a3.11,3.11,0,0,0-1-2.24,3.39,3.39,0,0,0-2.49-.86H264a9.24,9.24,0,0,0-5.33,1.72,26.88,26.88,0,0,0-4,4l-2.06-1.8q1.45-1.22,4-3.87l.94-1a23.51,23.51,0,0,0,4.47-5.84c-.4.11-1,.26-1.72.43-1.09.29-1.89.51-2.4.69a.78.78,0,0,0-.35.17l-.34.17-1.46-2.41Z"/><path d="M272.83,177h.51a11.45,11.45,0,0,0,2.58-.43l1-.25q1.64-.44,3.18-.78c1.89-.46,3.76-.86,5.59-1.2a18.08,18.08,0,0,0,3.44-.77,2.62,2.62,0,0,0,.25.94,2.93,2.93,0,0,1,.18,1.29l-1.21.26a6,6,0,0,0-2.92.94,6.83,6.83,0,0,0-2.49,3.7,12.34,12.34,0,0,0-.52,3v.51a4.52,4.52,0,0,0,1.29,3.35,5,5,0,0,0,3.35,1.29h.43a5.43,5.43,0,0,0,1.38-.17v2.58h-.69a10.15,10.15,0,0,1-5.41-1.46,6.78,6.78,0,0,1-2.58-5.42V184a12.21,12.21,0,0,1,2.66-7q-3.44.85-6.87,1.89a3.68,3.68,0,0,1-.6.17,2.34,2.34,0,0,0-1.21.69l-1.37-2.41Zm15.81,1.21,1.2-1.12c.18.17.4.43.69.77a13.94,13.94,0,0,1,1.38,1.55l-1.21,1A13.44,13.44,0,0,0,288.64,178.2Zm2.32-1.72,1.2-1a13.87,13.87,0,0,1,2,2.23l-1.29,1A16.87,16.87,0,0,0,291,176.48Z"/><path d="M298,172.87h.26l2.32.86a5.27,5.27,0,0,1-.52,1.37l-.26.52a26.13,26.13,0,0,0-1.11,3.69,18.66,18.66,0,0,0-.52,3.61v.78a15.62,15.62,0,0,0,.6,4H299c.12-.22.29-.54.52-.94a5.14,5.14,0,0,1,.43-.86h.17l.69.69v.17c-.35,1.49-.63,2.89-.86,4.21l-1.89.43a14.51,14.51,0,0,1-1.81-7.56v-1.29a19,19,0,0,1,.69-4.38c.06-.29.17-.72.34-1.29a13.16,13.16,0,0,0,.78-3.7Zm9.19.43,3,.43c-.11,1.32-.17,2.75-.17,4.29v-.08c1.2-.12,2.41-.29,3.61-.52v2.06a33.51,33.51,0,0,1-3.52.52q.08,6.45.08,6.19l2,.77c.11.12.2.17.26.17a11.88,11.88,0,0,1,2.32,1.55l-1.38,1.63h-.26c-.46-.34-.94-.68-1.46-1-.23-.11-.54-.28-.94-.51s-.49-.29-.6-.35a3.49,3.49,0,0,1-.95,1.72,4.14,4.14,0,0,1-3.18,1.29h-.43a5.09,5.09,0,0,1-2.58-.69,2.7,2.7,0,0,1-1.29-2.23v-.35A2.78,2.78,0,0,1,303,186.1a4.55,4.55,0,0,1,2.58-.69H306a12.56,12.56,0,0,1,2.15.18c0-.35,0-.89-.09-1.64-.11-1.43-.17-2.52-.17-3.26v-.52h-1.8c-1.21,0-2.44-.17-3.7-.34l-.26-2.15a6.34,6.34,0,0,1,1.21.17,32.85,32.85,0,0,0,3.43.26h1q-.09-2.24-.18-3.09v-.18A2.34,2.34,0,0,0,307.2,173.3Zm-1.37,14h-.43c-.86,0-1.41.14-1.63.42-.41.52-.23,1,.51,1.55a3.18,3.18,0,0,0,3.18-.34,1.71,1.71,0,0,0,.6-1.21A5.83,5.83,0,0,0,305.83,187.31Z"/><path d="M318.12,178.8a2.62,2.62,0,0,1-.43-.78c-.35-.51-.58-.86-.69-1a15.47,15.47,0,0,0,4.64-5.07l2.32.35a1.29,1.29,0,0,1-.26.34,10.9,10.9,0,0,1-1.2,1.72h14.61v2H334.7v3.35h2.24v1.89H334.7v3.52h3V187H317.26v-1.89h3.35v-3.52H318v-1.89h2.66v-3.1A28.93,28.93,0,0,1,318.12,178.8Zm1.54,13.66-2.23-.51q1.45-2.58,2.15-4.13l2.15.43a5.94,5.94,0,0,1-.35.77C320.64,190.63,320.06,191.77,319.66,192.46Zm2.93-16.15v3.35h2.06v-3.35Zm0,5.24v3.52h2.06v-3.52Zm1.8,10.48c-.34-1.14-.72-2.38-1.12-3.69l2.15-.26c.46,1.26.86,2.46,1.21,3.61Zm2.24-15.72v3.35h2.06v-3.35Zm0,5.24v3.52h2.06v-3.52Zm3,10.31a22.75,22.75,0,0,0-1-2.49c-.17-.46-.31-.83-.43-1.12l2.15-.34,1.55,3.52Zm1-15.55v3.35h2.15v-3.35Zm0,5.24v3.52h2.15v-3.52ZM335.39,192c-.29-.57-.72-1.32-1.29-2.23l-.94-1.64,2.15-.43a1.56,1.56,0,0,0,.34.43,37.45,37.45,0,0,1,2,3.27Z"/><path d="M349,178.37h1.29a1.88,1.88,0,0,1,1.72.69,2.64,2.64,0,0,1,.51,1.63V181a19,19,0,0,1-.77,5.07q-.69,3-2.41,3.87a5.84,5.84,0,0,1-2.92.6H346c-.17,0-.26,0-.26-.09-.11-.22-.25-.54-.43-.94a11,11,0,0,0-.6-1.2v-.09a6.82,6.82,0,0,1,.95.09,8.38,8.38,0,0,0,.86.08h.34a1.83,1.83,0,0,0,1.63-.77,5.53,5.53,0,0,0,.86-1.55.22.22,0,0,0,.09-.17,11.33,11.33,0,0,0,.77-4.12v-.52c-.06-.63-.34-1-.86-1a17,17,0,0,0-1.89.17,6.71,6.71,0,0,1-.94.09,32.83,32.83,0,0,1-3.27,7,15,15,0,0,1-1.8,2.41,2.21,2.21,0,0,1-1-.43l-.43-.26a.29.29,0,0,1-.18-.08c-.34-.06-.54-.18-.6-.35a14.18,14.18,0,0,0,3.35-4.64c.58-1.14,1.12-2.26,1.64-3.35a6.64,6.64,0,0,0-2.5.69l-.08.08a1,1,0,0,1-.6.18l-1.21-2.5.09-.17a7.86,7.86,0,0,0,2.41,0,6.08,6.08,0,0,1,.86-.08,5.37,5.37,0,0,1,1.63-.26c.11-.35.2-.63.26-.86a11,11,0,0,0,.51-3.44v-.6a.73.73,0,0,1-.08-.34c.22.05.54.11.94.17.8.11,1.43.23,1.89.34a1.26,1.26,0,0,1-.34.77.26.26,0,0,0-.09.18,4,4,0,0,0-.26,1.2,1.59,1.59,0,0,0-.08.43,4.94,4.94,0,0,1-.17.94,9.13,9.13,0,0,1-.18.95A10.61,10.61,0,0,1,349,178.37Zm4.21-1.12V177a5.47,5.47,0,0,1,.77-.6,9.45,9.45,0,0,1,.78-.6c.17-.11.43.06.77.52a11.91,11.91,0,0,1,1.63,1.8,39.3,39.3,0,0,1,2.67,3.52v.26l-2.07,1.29A35,35,0,0,0,353.18,177.25Z"/><path d="M374.15,176.48h.43a5.27,5.27,0,0,1,3.61,1.29,5.17,5.17,0,0,1,1.54,3.61v.43a4.63,4.63,0,0,1-.77,2.57,7.92,7.92,0,0,1-2.32,2.24,10.49,10.49,0,0,1-5.16,1.8l-1.37-1.63a12.8,12.8,0,0,0,5.16-1.63c1.71-1,2.57-2.27,2.57-3.7v-.34c-.23-1.66-1.4-2.64-3.52-2.92H374a8.3,8.3,0,0,0-2.67.43c-.68.22-1.37.48-2.06.77-.23.11-.54.26-.94.43a26,26,0,0,0-2.5,1.37c-.05,0-.11.06-.17.18a.69.69,0,0,1-.6.17l-1.81-2.07c1.61-.4,3.18-.85,4.73-1.37a1.43,1.43,0,0,0,.35-.09A14.28,14.28,0,0,1,374.15,176.48Z"/><path d="M390.91,172.61h.17l2.58.69v.26a2,2,0,0,0-.86,1.37,8.1,8.1,0,0,0-.52,1.46,2.87,2.87,0,0,1-.17.52l2.84-.52a2.88,2.88,0,0,0,.6-.17l.17.09v2.23c-1.38.23-2.75.4-4.13.52a3.19,3.19,0,0,1-.08.42c.05-.11,0,0-.09.18a50.07,50.07,0,0,1-4.55,11.77l-2.32-.69-.09-.17a69.79,69.79,0,0,0,5-11.43,12.57,12.57,0,0,1-1.72.09c-.75.05-1.32.08-1.72.08l-.17-.08-.35-2.07.09-.17a11.07,11.07,0,0,1,1.12.09,8.1,8.1,0,0,0,1,.08h.68a15.76,15.76,0,0,0,1.64-.08,4,4,0,0,0,.17-.52,13.49,13.49,0,0,0,.69-3.43Zm11.6,15.81-.26,2.41a23.81,23.81,0,0,1-2.84.17h-.85a17.63,17.63,0,0,1-3.79-.43,1.4,1.4,0,0,1-.34-.09c-.4,0-.66-.08-.77-.25l-.09-2a4.37,4.37,0,0,0,.77.17,22.63,22.63,0,0,0,3.79.43h.43A18.38,18.38,0,0,0,402.51,188.42Zm-5-8.42h.78c.91,0,1.89,0,2.92.09l.09,2.32-.09.08a19.39,19.39,0,0,0-3.7-.51h-.86a7.22,7.22,0,0,0-1.89.25l.35-2.14h1.11Q397.1,180,397.52,180Z"/><path d="M425.71,181.89v.6a7.8,7.8,0,0,1-2.32,5.42,10.73,10.73,0,0,1-4.3,3.09c0,.11,0,.11-.17,0a7.9,7.9,0,0,0-2-1.29v-.17q6.18-2.92,6.27-7.48v-.43a5.59,5.59,0,0,0-1.89-3.95,6.92,6.92,0,0,0-3.61-1.55,48.75,48.75,0,0,1-1.89,6.28,39.62,39.62,0,0,1-2.67,5.58c-.74,1.38-1.66,2.07-2.75,2.07-1.71-.06-3.15-1-4.29-2.93a6,6,0,0,1-.86-2.92v-.43A8,8,0,0,1,406,181a10,10,0,0,1,1.54-2.58,9.79,9.79,0,0,1,4.64-3.53,12.49,12.49,0,0,1,4-.86H417a8.67,8.67,0,0,1,6.28,2.33A8.15,8.15,0,0,1,425.71,181.89Zm-18.13,1.46v.43a4.7,4.7,0,0,0,.86,2.67,2,2,0,0,0,1.63,1,2.19,2.19,0,0,0,1.46-1,14.91,14.91,0,0,0,.86-1.55c.12-.29.2-.49.26-.6a28.77,28.77,0,0,0,2.92-8.17,14,14,0,0,0-3.26.86,11.76,11.76,0,0,0-3.53,3.18A6.73,6.73,0,0,0,407.58,183.35Z"/><path d="M426.83,177h.51a11.45,11.45,0,0,0,2.58-.43l1-.25q1.64-.44,3.18-.78c1.89-.46,3.76-.86,5.59-1.2a18.08,18.08,0,0,0,3.44-.77,2.48,2.48,0,0,0,.26.94,3,3,0,0,1,.17,1.29l-1.21.26a6,6,0,0,0-2.92.94,6.83,6.83,0,0,0-2.49,3.7,12.34,12.34,0,0,0-.52,3v.51a4.52,4.52,0,0,0,1.29,3.35,5,5,0,0,0,3.35,1.29h.43a5.43,5.43,0,0,0,1.38-.17v2.58h-.69a10.15,10.15,0,0,1-5.41-1.46,6.78,6.78,0,0,1-2.58-5.42V184a12.21,12.21,0,0,1,2.66-7q-3.44.85-6.87,1.89a3.68,3.68,0,0,1-.6.17,2.34,2.34,0,0,0-1.21.69l-1.37-2.41Zm15.81,1.21,1.2-1.12a9,9,0,0,1,.69.77,13.94,13.94,0,0,1,1.38,1.55l-1.21,1A13.44,13.44,0,0,0,442.64,178.2Zm2.32-1.72,1.21-1a14.31,14.31,0,0,1,2,2.23l-1.29,1A16.87,16.87,0,0,0,445,176.48Z"/><path d="M459.06,171.66l3,.52a8,8,0,0,0-.43,2.66v.78h7.05v2.49a34.58,34.58,0,0,0-6.44-.43h-.61v2.66l.09.09a4.76,4.76,0,0,1,.77,2.92v1.46a10.5,10.5,0,0,1-.86,3.61,13.25,13.25,0,0,1-1.89,2.84c-.51.51-1.06,1-1.63,1.55h-.17a11,11,0,0,0-2.49-1.21v-.17a8.53,8.53,0,0,0,4.55-4.38,3.49,3.49,0,0,1-3.35,0,4.09,4.09,0,0,1-1.72-3.44v-.43q.44-3.52,3.61-4h1v-1.55h-.94a32.33,32.33,0,0,0-7.31.86l-.17-.09-.86-2.49.09-.17a8.76,8.76,0,0,1,.94.09c.46.05.8.08,1,.08h1c.23,0,.72,0,1.46-.08l4.73-.18c-.11-1.31-.26-2.46-.43-3.43A3.23,3.23,0,0,1,459.06,171.66Zm.51,11.52v-1.12c-.06-.57-.29-.88-.69-.94a1.17,1.17,0,0,0-.86.34,2.22,2.22,0,0,0-.77,1.72v.52c.06,1.14.43,1.74,1.12,1.8.4,0,.74-.31,1-.94A2.71,2.71,0,0,0,459.57,183.18Z"/><path d="M476.42,173.56l2.92.68c-.06.17-.15.4-.26.69a4.09,4.09,0,0,0-.26.43,5.79,5.79,0,0,0-.17.95,1.32,1.32,0,0,0-.09.42c-.05.23-.11.58-.17,1a3.78,3.78,0,0,0-.17.86,2.14,2.14,0,0,1,.69-.09,5,5,0,0,1,.68-.09,2.11,2.11,0,0,0,.52-.08H481a3.94,3.94,0,0,1,1.63.34,2.13,2.13,0,0,1,.86,1.72v1a23.07,23.07,0,0,1-.77,5.42c-.4,1.94-1.18,3.06-2.32,3.35a6.26,6.26,0,0,1-2.67.6h-.6c-.17-.4-.4-.89-.68-1.46a5.92,5.92,0,0,1-.35-.78l.09-.17a3.57,3.57,0,0,1,.6.09,6.16,6.16,0,0,0,1.2.17h.35a1.92,1.92,0,0,0,1.8-1.12,13.38,13.38,0,0,0,.77-2.32,20.25,20.25,0,0,0,.52-4,1,1,0,0,0-1.2-1c-.29.06-.72.11-1.29.17l-1.29.26a28,28,0,0,1-4.73,9.54l-.17.08a9.13,9.13,0,0,0-1.38-.6,3.84,3.84,0,0,0-.68-.34v-.17a22,22,0,0,0,3.09-4.39,20.15,20.15,0,0,0,1.29-2.92,5.56,5.56,0,0,0,.34-.77,21.53,21.53,0,0,0-2.57.86,1.27,1.27,0,0,1-.78.25l-.94-2.4.17-.17a2.79,2.79,0,0,1,.51.08,1.32,1.32,0,0,0,.69,0c.4-.05,1-.17,1.81-.34s1.29-.29,1.63-.34a1.54,1.54,0,0,1,.09-.52,19.37,19.37,0,0,0,.43-4Zm13.14,8.33-.08.17-1.81,1a28,28,0,0,0-4.21-5.84V177l1.63-.94A24.1,24.1,0,0,1,489.56,181.89Zm.61-5.76v.18l-1.12.94h-.17a6.57,6.57,0,0,0-2.07-2.23v-.18l1-.86H488A19.45,19.45,0,0,1,490.17,176.13ZM489,173.21V173l1-.86h.18a.72.72,0,0,0,.25.17q.6.53,1.38,1.29a1.4,1.4,0,0,1,.51.86l-1,.95h-.17A8.79,8.79,0,0,0,489,173.21Z"/><path d="M502,190.14l-1.71,1.72-4.64-5.07,1.63-1.46Z"/><path d="M32.46,236.28v-2.06h6.62v2.06H36.93v5H39v2.07H36.93v5.07l1.72-.35a6.32,6.32,0,0,0,.69-.17v2.23c-.35.06-.89.18-1.64.35q-3.26.6-5.24,1.12l-.34-2.15,1.37-.26,1.29-.26v-5.58H32.55v-2.07h2.23v-5ZM48.79,253c-1.72.06-2.55-.72-2.49-2.32v-3.7H44.58l-.09.69c0,2.7-1.75,4.61-5.24,5.76a3.91,3.91,0,0,0-.34-.52,15.24,15.24,0,0,0-1-1.37c3-.75,4.46-2,4.46-3.87v-.69H39.85V233.7H51.54v13.23H48.45v3.27c-.06.52.25.74.94.69H50c.58.05.89-.23.95-.86.05-.29.11-.83.17-1.63a8.88,8.88,0,0,0,.09-1l1.8.69a17.17,17.17,0,0,1-.43,2.75A2.21,2.21,0,0,1,50.16,253Zm-6.7-17.45v2.07h7.22V235.5Zm0,3.79v2.06h7.22v-2.06Zm0,3.78v2.06h7.22v-2.06Z"/><path d="M73.8,241.18,71,239.89v1.63H65.81v2.32h7.3v2.06h-7.3v4.82H74.4v1.89H54.81v-1.89H63.4V245.9H56.09v-2.06H63.4v-2.32H58.07v-1.46c-.8.4-1.69.83-2.66,1.29-.12-.17-.26-.4-.43-.69l-.86-1.37q7.13-2.76,9.79-6.71l2.67.26-.52.69A17.77,17.77,0,0,0,75,238.94c-.11.23-.31.6-.6,1.12S73.91,241,73.8,241.18Zm-14.18,9.28c-.46-.57-1.32-1.61-2.58-3.1l1.72-1.11c.63.68,1.43,1.6,2.4,2.75-.11-.12,0,0,.26.34Zm5.15-15.3a22,22,0,0,1-5.58,4.38h11A20.37,20.37,0,0,1,64.77,235.16Zm4.56,15.3-1.72-1.12a1,1,0,0,0,.17-.26c1.15-1.26,2-2.2,2.49-2.83l1.89,1C71.42,248.14,70.47,249.2,69.33,250.46Z"/><path d="M77.92,240.06l-1.54-1.63a24.89,24.89,0,0,0,6.27-5.85l2.66.26a9.12,9.12,0,0,1-1.2,1.46h8.08V236l-2,2h4.47v11.34h-16v-9.88Zm-.34,13.41-1-2.07A68.8,68.8,0,0,0,84,249.6l1,1.63C82.79,252,80.33,252.72,77.58,253.47Zm11.77-17.36H82.48a22,22,0,0,1-2,1.89h7Zm-8.42,3.69v1.63H92.45V239.8Zm0,3.1v1.63H92.45V242.9Zm0,3v1.64H92.45V245.9Zm14.61,7.48c-2.46-.8-4.9-1.55-7.3-2.23L89,249.6q4.38.94,7.39,1.72Z"/><path d="M98.38,238.68v-2.06h2.49v-3.69h2.32v3.69h2.15v2.06h-2.15v4c.69-.17,1.43-.35,2.23-.52v2.15l-2.23.6v5.76q.07,2.33-2.49,2.49a14.54,14.54,0,0,0-1.81.09,9.9,9.9,0,0,1-.17-1c-.12-.58-.2-1-.26-1.21h1.29c.8.06,1.17-.25,1.12-.94v-4.47l-2.49.6-.18-2.41c.18-.05.4-.11.69-.17s1-.2,2-.43v-4.47Zm6.27,13.75v-2h14.26v2Zm1.72-4.81V234h11.34v13.66Zm2.32-11.51v3.61h6.79v-3.61Zm0,5.67v3.78h6.79v-3.78Z"/><path d="M130.6,234q6.19.09,6.28,9.11c0,6.08-2.1,9.08-6.28,9s-6.21-3.07-6.27-9Q124.5,234.3,130.6,234Zm0,16.25q3.53.08,3.53-7c.05-4.87-1.12-7.25-3.53-7.13s-3.52,2.37-3.52,7.13S128.25,250.29,130.6,250.29Z"/><path d="M143.32,253.12V233.87h18.56v16q.09,3-3.09,3.09c-.8.06-1.92.09-3.35.09a8.87,8.87,0,0,0-.52-2.15h3c1.15.05,1.66-.46,1.55-1.55v-4.55H145.64v8.33Zm2.32-17.1v6.53h5.76V236Zm13.84,0h-5.76v6.53h5.76Z"/><path d="M164,237.91h.51a11.62,11.62,0,0,0,2.58-.43l1-.26c1.09-.28,2.15-.54,3.18-.77q2.83-.69,5.59-1.2a17.06,17.06,0,0,0,3.43-.78,2.67,2.67,0,0,0,.26.95,2.89,2.89,0,0,1,.17,1.29l-1.2.26a6,6,0,0,0-2.92.94,6.83,6.83,0,0,0-2.49,3.7,11.88,11.88,0,0,0-.52,3v.52a4.54,4.54,0,0,0,1.29,3.35,5.07,5.07,0,0,0,3.35,1.29h.43a5.92,5.92,0,0,0,1.38-.17v2.58h-.69a10.19,10.19,0,0,1-5.42-1.46,6.76,6.76,0,0,1-2.57-5.42v-.43a12.14,12.14,0,0,1,2.66-7q-3.44.85-6.87,1.89a3.58,3.58,0,0,1-.61.17,2.35,2.35,0,0,0-1.2.69L164,238.17Zm15.81,1.2L181,238c.17.17.4.43.69.77a12.72,12.72,0,0,1,1.37,1.55l-1.2,1A14,14,0,0,0,179.76,239.11Zm2.32-1.71,1.2-1a14.38,14.38,0,0,1,2,2.24l-1.29,1A16.87,16.87,0,0,0,182.08,237.4Z"/><path d="M186,237.91h.51a11.62,11.62,0,0,0,2.58-.43l1-.26c1.09-.28,2.15-.54,3.18-.77q2.83-.69,5.59-1.2a17.06,17.06,0,0,0,3.43-.78,2.67,2.67,0,0,0,.26.95,2.89,2.89,0,0,1,.17,1.29l-1.2.26a6,6,0,0,0-2.92.94,6.83,6.83,0,0,0-2.49,3.7,11.88,11.88,0,0,0-.52,3v.52a4.54,4.54,0,0,0,1.29,3.35,5.07,5.07,0,0,0,3.35,1.29h.43a5.92,5.92,0,0,0,1.38-.17v2.58h-.69a10.19,10.19,0,0,1-5.42-1.46,6.76,6.76,0,0,1-2.57-5.42v-.43a12.14,12.14,0,0,1,2.66-7q-3.44.85-6.87,1.89a3.58,3.58,0,0,1-.61.17,2.35,2.35,0,0,0-1.2.69L186,238.17Zm15.81,1.2L203,238c.17.17.4.43.69.77a12.72,12.72,0,0,1,1.37,1.55l-1.2,1A14,14,0,0,0,201.76,239.11Zm2.32-1.71,1.2-1a14.38,14.38,0,0,1,2,2.24l-1.29,1A16.87,16.87,0,0,0,204.08,237.4Z"/><path d="M222,234.9h.17a6.09,6.09,0,0,1,.78,1.81,9.84,9.84,0,0,1-2.07.86l-.68.26a8,8,0,0,1,.68,1.2,10.07,10.07,0,0,1,.6,1.2c.35-.11.86-.31,1.55-.6l1.55-.52h.26l.77,1.55-.09.26-.94.26c-.46.17-.8.28-1,.34a3.55,3.55,0,0,1-1.12.34,2.8,2.8,0,0,1,.26.52,35.86,35.86,0,0,0,2.4,3.35.22.22,0,0,0,.09.17,1.26,1.26,0,0,1,.34.69l-1.89,1.81a12.2,12.2,0,0,0-6.87-1.81h-.52a4.18,4.18,0,0,0-1.8.34,1.6,1.6,0,0,0-.78,1.9c.06.22.38.54,1,.94a4.36,4.36,0,0,0,2,.69,13.18,13.18,0,0,0,2.57.26h.43a5.89,5.89,0,0,0,1-.09l-.17,2.41h-.6q-8-.43-8.33-4.64V248a3.38,3.38,0,0,1,1.71-2.5,8,8,0,0,1,3.44-.77h.86a15.06,15.06,0,0,1,4.3.77H222c-.11-.17-.28-.45-.51-.86s-.55-1.11-1.12-2.14a9.4,9.4,0,0,1-1.8.34,43.29,43.29,0,0,1-4.73.43l-.17-.09-1-1.63.08-.17h.6a27.39,27.39,0,0,0,4.9-.43,4,4,0,0,0,1.21-.17l-1.12-2.41a26.68,26.68,0,0,1-3.7.77,4.6,4.6,0,0,0-.51-.77,5.39,5.39,0,0,1-.35-.51,1.37,1.37,0,0,1-.34-.61h.26c1.14-.17,2.37-.4,3.69-.68a5.21,5.21,0,0,0-.43-1c-.23-.45-.4-.8-.51-1a.5.5,0,0,0-.17-.34,2.24,2.24,0,0,1-.09-.52l2.32-.43c.34,1,.69,1.9,1,2.75A23.1,23.1,0,0,0,222,234.9Z"/><path d="M234.07,235.59h1.2a20.41,20.41,0,0,0,6.36-.86.89.89,0,0,0,.35-.08,1.29,1.29,0,0,1,.51-.18h.09l2.23,1.81v.08a9,9,0,0,0-2,1.89l-1.38,1.64c-.63.69-1.12,1.23-1.46,1.63a8.71,8.71,0,0,0,1-.09,8.37,8.37,0,0,1,.95-.08h.43a6.09,6.09,0,0,1,3.78,1.37,4.75,4.75,0,0,1,1.63,3.7v.26a5.11,5.11,0,0,1-2.58,4.21,7.71,7.71,0,0,1-4.29,1.29h-.35c-2.63-.23-4-1.21-4.21-2.93v-.34c.17-1.49,1.15-2.32,2.92-2.49h.43c1.43,0,2.84.92,4.21,2.75a3.72,3.72,0,0,0,1.38-2.67v-.42q-.26-2.42-3.18-2.67h-.43a7.35,7.35,0,0,0-5.76,3,.27.27,0,0,1-.08.17,1.68,1.68,0,0,1-.43.43l-2.07-1.55v-.25a32.45,32.45,0,0,0,7.31-8,12,12,0,0,0-4.73,1c-.06,0-.11.06-.17.18a.66.66,0,0,1-.6.17l-1.12-2.84Zm5.76,14.7h.43a3.42,3.42,0,0,0,1.12-.18,1.21,1.21,0,0,0-.61-.94,2,2,0,0,0-2.06-.69c-.51.29-.66.66-.43,1.12A1.83,1.83,0,0,0,239.83,250.29Z"/><path d="M267.5,237.22l1.89,2.15v.17a31.42,31.42,0,0,0-8.33,3.53,10.07,10.07,0,0,0-2.67,2.58,3,3,0,0,0-.51,1.46v.34a2.65,2.65,0,0,0,1.63,2.32,6.72,6.72,0,0,0,2.92.52h.6a18.06,18.06,0,0,0,5-.69l.17,2.58c-1.49.11-2.92.17-4.3.17H262.6a7.78,7.78,0,0,1-4.55-.95,4.28,4.28,0,0,1-2.24-3.86v-.43c.06-2,1.23-3.73,3.53-5.33a.82.82,0,0,1,.43-.35,34.85,34.85,0,0,0-2.75-7.21l2.32-.43a48,48,0,0,1,2.57,6.44l3.1-1.55A10,10,0,0,0,267.5,237.22Z"/><path d="M274.38,237.31v-2h9.28c-.23-.68-.52-1.43-.86-2.23l2.66-.35c.29.86.57,1.72.86,2.58h8.51v2Zm2.06,16.07v-7.73h16.24v7.73h-2.23v-1.2H278.67v1.2Zm.08-12.72v-1.72h16.25v1.72Zm0,3.44v-1.81h16.25v1.81Zm2.15,3.44v2.83h11.78v-2.83Z"/><path d="M300.67,240.66h.6a8.29,8.29,0,0,0,2.41-.51c.74-.18,1.49-.38,2.23-.61a8.85,8.85,0,0,1,2.75-.43h.26a3.22,3.22,0,0,1,2.84,1.55,4.93,4.93,0,0,1,.77,2.84v.77a12.16,12.16,0,0,1-4.72,9.28.61.61,0,0,0-.26.09.79.79,0,0,1-.26.08h-.09l-.08-.08a17,17,0,0,0-1.72-1.29v-.17a10,10,0,0,0,4.81-8.34v-.43c-.06-1.49-.69-2.26-1.89-2.32H308a5.88,5.88,0,0,0-2.24.69.57.57,0,0,1-.25.08,8.19,8.19,0,0,0-2.33,1.21l-.17.17c-.23.17-.4.23-.51.17l-1.81-2.49Zm3.61-5.5.86-2.06h.09a27.21,27.21,0,0,0,6,1.8l.09.09a4.37,4.37,0,0,0-.17.77c-.17.63-.29,1.12-.35,1.46l-.08.09a6.27,6.27,0,0,1-1.64-.34.22.22,0,0,0-.17-.09c-.8-.23-1.95-.57-3.43-1l-1.12-.43Z"/><path d="M318.29,236v-1.55h9.11v-1.72h2.32v1.72h9.19V236h-9.19v1.2h6.87v4.13h-6.87v1.2H337v2.75h2v1.55h-2v4h-2.14v-1.12h-5.16v.43c.11,1.95-.83,2.93-2.84,2.93-.63.05-1.74.08-3.35.08a11.62,11.62,0,0,0-.43-1.89h2.84c1.09.12,1.57-.34,1.46-1.37v-.18h-7.91v-1.37h7.91v-1.46h-9.11V245.3h9.11v-1.37h-7.82v-1.38h7.82v-1.2h-6.88v-4.13h6.88V236Zm4.47,2.58V240h4.64V238.6Zm11.69,0h-4.73V240h4.73Zm.43,5.33h-5.16v1.37h5.16Zm-5.16,2.92v1.46h5.16v-1.46Z"/><path d="M348.28,233.1h.35l2.49.69V234a1.24,1.24,0,0,0-.43.69c-.12.22-.2.4-.26.51-.23.75-.43,1.52-.6,2.32a.66.66,0,0,1-.09.26,2.57,2.57,0,0,1-.17.43h1.63a9.18,9.18,0,0,0,1.46-.17,2.33,2.33,0,0,1,.52-.09l-.43,2.15a.34.34,0,0,1-.26.09h-3.35c-.06.4-.11.94-.17,1.63s-.2,1.43-.26,1.89a14.08,14.08,0,0,0,4.13.08v.35l-.35,1.72a.36.36,0,0,1-.25.08h-1.81c-.63,0-1.29,0-2-.08v.6a2.92,2.92,0,0,0-.08.6v.86a3.17,3.17,0,0,0,.86,2.23,3.07,3.07,0,0,0,2,.78h.52a3.71,3.71,0,0,0,2.49-.86,3.55,3.55,0,0,0,.86-2.32v-.35a8.43,8.43,0,0,0-1.63-4,1.87,1.87,0,0,0-.26-.43l2.49-.18a7.39,7.39,0,0,1,1.89,4.82V248a5,5,0,0,1-1.8,3.78A5.32,5.32,0,0,1,352,253h-.52a5.39,5.39,0,0,1-3.69-1.46q-1.38-1.12-1.38-3.87v-.86a10.66,10.66,0,0,1,.09-1.38c-.29-.11-.75-.25-1.38-.43a10.15,10.15,0,0,0-1.46-.43l.17-2.14a12.74,12.74,0,0,0,2.93.86v-.43a13,13,0,0,0,.34-1.55c.11-.63.2-1.12.26-1.46-.69-.17-1.32-.35-1.89-.52s-.69-.14-.69-.26l.17-2.14a17.78,17.78,0,0,0,2.66.77c.06-.17.15-.49.26-1a7.53,7.53,0,0,1,.17-.86,3.57,3.57,0,0,1,.09-.6,11,11,0,0,0,.17-1.63Z"/><path d="M366.41,237.4h1.29q.44,0,1.38-.09h.69a1.32,1.32,0,0,1,.08-.43,19.22,19.22,0,0,0,.17-2.23,6.23,6.23,0,0,0-.08-.86h.43c.28,0,.69,0,1.2.08a8.71,8.71,0,0,0,1,.09,1.28,1.28,0,0,1-.17.86.85.85,0,0,0-.17.43,3.88,3.88,0,0,1-.17.86,5.33,5.33,0,0,1-.18.94,3.13,3.13,0,0,0,.95-.17,23.64,23.64,0,0,0,3.87-.86v2.15c-1.55.34-3.13.66-4.73.94h-.43c-.06.58-.11,1.26-.17,2.07a14.92,14.92,0,0,1,2.66-.52,1.29,1.29,0,0,1,.09-.34v-.52c-.06-.11,0-.23.17-.34l2.06.34.09.17-.09.09a6.64,6.64,0,0,0-.25.69,5.54,5.54,0,0,1,3.43,1.29,6.41,6.41,0,0,1,2,4.21v.6c-.06,2.06-1.17,3.78-3.35,5.15a4.09,4.09,0,0,1-2.06.86H376a9.51,9.51,0,0,0-1.89-1.63,6.71,6.71,0,0,0,3.69-1.37,4.45,4.45,0,0,0,1.64-3.18v-.26a4.23,4.23,0,0,0-1.81-3.35,3.2,3.2,0,0,0-.94-.35h-.17a3.15,3.15,0,0,0-.95-.25,20,20,0,0,1-3.7,6.27,11.61,11.61,0,0,0,.61,1.55,8.91,8.91,0,0,0-.86.34,2.67,2.67,0,0,1-1,.26c-.17,0-.31-.17-.43-.52a1.68,1.68,0,0,1-.94.52,5.18,5.18,0,0,1-3.18,1.29h-.35c-1.32-.06-2-1-2.15-2.93v-.34a8,8,0,0,1,2.5-5.07,11.41,11.41,0,0,1,3.18-2c0-.34,0-.88.08-1.63a5.47,5.47,0,0,1,.09-.86h-1.29c-.63.06-1.12.09-1.46.09h-1.29c-.17,0-.26,0-.26-.09a2.32,2.32,0,0,1-.51-1.2v-.09c-.18-.34-.21-.6-.09-.77Q365.56,237.4,366.41,237.4Zm3.27,11-.09-.26a36.47,36.47,0,0,1-.25-4.3,7.62,7.62,0,0,0-3.18,3.27,3,3,0,0,0-.52,1.72c.06.85.43,1.28,1.12,1.28a3.39,3.39,0,0,0,2.15-.94A4.32,4.32,0,0,1,369.68,248.4Zm1.72-5.5V245a5,5,0,0,0,.09,1.54,14.82,14.82,0,0,0,2.23-4.12c-1,.17-1.66.32-2.06.43A.36.36,0,0,1,371.4,242.9Z"/><path d="M390.91,240.23v.43a5.11,5.11,0,0,0,.34,2.06h.17l.86-1.37h.26l.95.86c-.12.23-.26.54-.43.94a8.48,8.48,0,0,0-.95,3.35v.35a13,13,0,0,1-2.06.17,6.91,6.91,0,0,1-.86-2.23,13.87,13.87,0,0,1-.52-3.87v-.69a22.4,22.4,0,0,1,.35-3.18,18.37,18.37,0,0,0,.34-2.83c.86.05,1.69.14,2.49.25-.17.58-.31,1.18-.43,1.81A20.9,20.9,0,0,0,390.91,240.23Zm6-6,2.84-.26.17.08a9.22,9.22,0,0,0,.17,2.93,3.83,3.83,0,0,0,.17.94,27.88,27.88,0,0,1,.26,3.27v1.37a12.57,12.57,0,0,1-.94,5.24A13,13,0,0,1,396,253c-.06.11-.15.11-.26,0l-2-.95-.08-.17a13.88,13.88,0,0,0,3.09-3.7,12.67,12.67,0,0,0,1.38-5.93v-1.63A15.58,15.58,0,0,0,396.92,234.22Z"/><path d="M406.46,238.94v-2.06h2.75v-4h2.15v4h2.58v2.06h-2.58V242l.6-.61c.75.64,1.63,1.49,2.67,2.58l-1.38,1.55a1,1,0,0,0-.34-.34c-.63-.75-1.15-1.32-1.55-1.72v9.88h-2.15v-10a22.59,22.59,0,0,1-2.49,5c-.06-.46-.2-1.18-.43-2.15a7.09,7.09,0,0,0-.17-.86,21.8,21.8,0,0,0,3-6.45Zm8.42,14.44V234h11.18v19.34h-2.15V252H417v1.38ZM417,236.11v3.35h6.88v-3.35Zm0,5.32v3.36h6.88v-3.36Zm0,5.33v3.35h6.88v-3.35Z"/><path d="M428.2,237.22v-2h3.27l-.86-2.15,2.06-.35c.17.46.49,1.24.95,2.33a.25.25,0,0,1,.08.17H436v2Zm.61,3.27v-1.81h6.7v1.81Zm0,3.35V242h6.7v1.8Zm.08,9.37V245.3h6.53v7.82h-1.89V252h-2.66v1.21Zm2-6v3.1h2.66v-3.1Zm6.1,6.19c-.06-.12-.17-.32-.34-.6-.41-.63-.72-1.09-.95-1.38,3.38-1.37,5.21-3.18,5.5-5.41.11-.86.23-2.15.34-3.87h2.07a21.26,21.26,0,0,1-.18,2.92,8.41,8.41,0,0,0,5.68,6.11c-.58.91-1,1.6-1.21,2.06-2.75-1.38-4.52-3.12-5.32-5.24Q441.78,251.15,437,253.38Zm10.66-10.48c-2-1.44-3.73-2.58-5.16-3.44q-1,1.8-5.07,3.69a18,18,0,0,0-1.2-1.89q4.89-2,5.15-4.64a20.84,20.84,0,0,0,.26-3.78h2.15a21.4,21.4,0,0,1-.35,3.95l-.17.86,1.72,1q2.67,1.56,4,2.41Zm-9,4.81a33.37,33.37,0,0,0-2.15-3.1l1.64-.94a1.3,1.3,0,0,1,.17.26,26.52,26.52,0,0,1,2.06,2.66Zm.26-9.54c-.29-.4-.8-1.09-1.55-2.06l-.77-1,1.55-1a3.89,3.89,0,0,1,.25.35,33,33,0,0,1,2.15,2.66Zm7.05,0-1.64-1.2a27.63,27.63,0,0,0,2.58-2.93l1.64,1.12c-.52.69-1.29,1.61-2.33,2.75Zm0,9.54-1.55-1.21a.9.9,0,0,0,.17-.25,30.13,30.13,0,0,0,2.32-2.67l1.64,1.21c-.41.51-1,1.23-1.9,2.14A6.21,6.21,0,0,0,445.91,247.71Z"/><path d="M454.33,233.79h.17l2.75.51a9.34,9.34,0,0,1-.26,1.12v11.86a3.91,3.91,0,0,0,.52,2.32,2.37,2.37,0,0,0,1.8.86h.52a3.24,3.24,0,0,0,1.46-.35,8.54,8.54,0,0,0,2-.94,9.44,9.44,0,0,0,2.4-2.15h.17l1,2c.11.11.11.17,0,.17a10.72,10.72,0,0,1-3.61,2.58,7.73,7.73,0,0,1-3.78.94h-.26a5,5,0,0,1-2.84-.86,3.38,3.38,0,0,1-1.72-2.49c-.05-.8-.08-1.63-.08-2.49V235.59a4.51,4.51,0,0,0-.18-1A6,6,0,0,1,454.33,233.79Z"/><path d="M473.66,237.91h.26l7.48-1.55c3.26-.68,5.73-1.17,7.39-1.46.86-.17,1.72-.31,2.58-.43l.17,2.5H491q-3.94,0-5.93,2.14a8.18,8.18,0,0,0-2.23,5.76v.35a4.53,4.53,0,0,0,1.2,3.35,4.73,4.73,0,0,0,3.78,1.2h1.47v2.58H488a8.07,8.07,0,0,1-5.42-1.89,6.77,6.77,0,0,1-1.8-5v-.86a10.56,10.56,0,0,1,2.75-6.7c-.75.17-1.89.46-3.44.86-.74.17-1.32.32-1.72.43l-.77.26a9.71,9.71,0,0,0-2.58.94Z"/><path d="M494.38,248.22v-.34a6.56,6.56,0,0,1,.86-2.75,7.18,7.18,0,0,1,1.54-1.8,7.59,7.59,0,0,1,4.9-1.81h.17a3.06,3.06,0,0,0,.6-1c.69-1.2,1.41-2.41,2.15-3.61l-.17-.17a8.2,8.2,0,0,0-4.12,1.46c-.12-.23-.26-.52-.43-.86s-.52-.95-1-1.81l.09-.08h1a13.83,13.83,0,0,0,2.41-.34,3.31,3.31,0,0,1,.6-.09,14.24,14.24,0,0,0,2.66-.77h.18l2.23,2.14c.06.23-.09.43-.43.61l-.09.08a10.94,10.94,0,0,0-1.46,1.2c-.17.23-.4.58-.68,1a4,4,0,0,0-.35.51,3.91,3.91,0,0,1-.34.52,13.86,13.86,0,0,1-.78,1.46c.63.11,1.26.26,1.9.43a19.39,19.39,0,0,1,2.32.94c.51.23.88.4,1.11.52a18.68,18.68,0,0,0,.52-3.7v-.68h.17l2.32.68v.18a15.55,15.55,0,0,0-1,3.52.24.24,0,0,1-.09.17,1.94,1.94,0,0,1-.25.77,23.52,23.52,0,0,1,4,2.75l-1,2h-.17c-1-.86-2-1.69-3-2.49a1.1,1.1,0,0,0-.43-.26c-.35.75-.72,1.46-1.12,2.15a12.07,12.07,0,0,1-4.21,3.95h-.17a9.06,9.06,0,0,0-1.81-1.37v-.09a11.94,11.94,0,0,0,4-2.92,7.48,7.48,0,0,0,1.64-2.66.08.08,0,0,0-.09-.09,17,17,0,0,0-5.5-2.06q-.44.85-1.29,2.4c-.4.69-.69,1.21-.86,1.55q-2.06,3.62-4.38,3.18A2.52,2.52,0,0,1,494.38,248.22Zm2.66-2.49a3.27,3.27,0,0,1-.26.43,2.19,2.19,0,0,0-.51.86c-.23,1,0,1.58.77,1.63a1.73,1.73,0,0,0,1-.51.22.22,0,0,1,.09-.17,5.67,5.67,0,0,0,.86-1.12,25,25,0,0,0,1.8-3.44A6.2,6.2,0,0,0,497,245.73Z"/><path d="M526.09,233.61l2.66.26.09.09a3.65,3.65,0,0,0-.35.69.81.81,0,0,1-.17.34v.34c-.06.46-.11,1-.17,1.55.63-.06,1.52-.17,2.66-.34a9,9,0,0,0,1.12-.18l-.17,2a22.47,22.47,0,0,1-3.61.43,7.53,7.53,0,0,1,.09,1.38c0,.57.08,1,.08,1.37h.17a17.71,17.71,0,0,0,3.78-.6l-.34,2a14.79,14.79,0,0,1-3.44.6c.06,1.32.15,2.69.26,4.12a15,15,0,0,1,4.81,2.67l-1,1.54a13.7,13.7,0,0,0-3.69-2,2.77,2.77,0,0,1-1.72,2.49,5.7,5.7,0,0,1-2.67.51h-.77a4.32,4.32,0,0,1-3.18-1.11,2.41,2.41,0,0,1-.69-2.84,3.43,3.43,0,0,1,1.64-1.37,8.53,8.53,0,0,1,2.92-.52h.86a7.83,7.83,0,0,1,1.29.17c-.35-.11-.29-.11.17,0,0-.51-.06-1.29-.17-2.32a10.92,10.92,0,0,1-.09-1.2h-1.8a29.13,29.13,0,0,1-3.1-.17l-.17-.09-.43-1.89v-.17c.23.06.52.11.86.17a15.91,15.91,0,0,0,2.41.26h2.14c0-.86,0-1.86-.08-3h-.52c-1.49,0-2.92-.06-4.29-.17l-.18-.09-.51-2a11.45,11.45,0,0,1,1.72.17c1,.11,1.69.17,2.15.17h1.63v-.95A20.21,20.21,0,0,0,526.09,233.61Zm-1.89,15h-.52c-1.32.12-2,.6-2.06,1.46,0,.35.34.61.86.78a12,12,0,0,0,1.29.08h.51a3.63,3.63,0,0,0,1.89-.34,1.72,1.72,0,0,0,.6-1.38v-.34a8.63,8.63,0,0,1-.86-.08A13.28,13.28,0,0,0,524.2,248.65Z"/><path d="M542.33,233.79h.17l2.75.51a9.34,9.34,0,0,1-.26,1.12v11.86a3.91,3.91,0,0,0,.52,2.32,2.37,2.37,0,0,0,1.8.86h.52a3.24,3.24,0,0,0,1.46-.35,8.54,8.54,0,0,0,2-.94,9.44,9.44,0,0,0,2.4-2.15h.17l1,2c.11.11.11.17,0,.17a10.72,10.72,0,0,1-3.61,2.58,7.73,7.73,0,0,1-3.78.94h-.26a5,5,0,0,1-2.84-.86,3.38,3.38,0,0,1-1.72-2.49c0-.8-.08-1.63-.08-2.49V235.59a4.51,4.51,0,0,0-.18-1A6,6,0,0,1,542.33,233.79Z"/><path d="M568,233.53h.18l2.57.69v.25a2.1,2.1,0,0,0-.86,1.38,8.21,8.21,0,0,0-.51,1.46,4,4,0,0,1-.17.52l2.83-.52a2.54,2.54,0,0,0,.6-.17l.18.08v2.24c-1.38.23-2.75.4-4.13.51a3.21,3.21,0,0,1-.08.43q.07-.17-.09.18A50.51,50.51,0,0,1,564,252.35l-2.33-.69-.08-.17a70.61,70.61,0,0,0,5-11.43,12.37,12.37,0,0,1-1.72.09c-.74,0-1.31.08-1.71.08l-.18-.08-.34-2.07.09-.17a10.93,10.93,0,0,1,1.11.09c.46.05.81.08,1,.08h.69c.52,0,1.06,0,1.63-.08a2.76,2.76,0,0,0,.18-.52A13.87,13.87,0,0,0,568,234Zm11.61,15.81-.26,2.41a23.81,23.81,0,0,1-2.84.17h-.86a17.61,17.61,0,0,1-3.78-.43,1.29,1.29,0,0,1-.34-.09c-.4,0-.66-.08-.78-.25l-.08-2a5.52,5.52,0,0,0,.77.17,22.65,22.65,0,0,0,3.78.43h.43A18.4,18.4,0,0,0,579.63,249.34Zm-5-8.42h.77c.92,0,1.9,0,2.93.08l.08,2.33-.08.08a19.39,19.39,0,0,0-3.7-.51h-.86a7.22,7.22,0,0,0-1.89.25l.35-2.15h1.11C573.92,241,574.35,240.92,574.64,240.92Z"/><path d="M584.78,249.6a3.45,3.45,0,0,1,3.53-3.52,3.41,3.41,0,0,1,3.43,3.52,3.49,3.49,0,0,1-7,0Zm1.38,0c.11,1.14.83,1.77,2.15,1.89a2,2,0,0,0,2.06-1.89,2.1,2.1,0,0,0-2.06-2.15A2.13,2.13,0,0,0,586.16,249.6Z"/><path d="M133.35,294.62l2.67,1.29v.17a3.81,3.81,0,0,0-1.21,1.2.29.29,0,0,0-.08.17,4.93,4.93,0,0,1-.26.43c-.75,1.09-1.35,1.92-1.8,2.5a2.85,2.85,0,0,1-.69.77,6.25,6.25,0,0,1-.43.52l1.8-.26c.8-.06,1.41-.12,1.81-.17a6.69,6.69,0,0,0,.86-.09,12.67,12.67,0,0,1,1.72-.17h.43v2.32h-.78a10.51,10.51,0,0,0-3.87,1,7.56,7.56,0,0,0-2.57,2.06,2.79,2.79,0,0,0-.78,2.67,3.71,3.71,0,0,0,2.58,2.06,15.79,15.79,0,0,0,2.92.43c0,.17-.14.46-.25.86-.18.69-.32,1.17-.43,1.46h-.35a8.25,8.25,0,0,1-2-.35,2.87,2.87,0,0,0-.52-.08l-.52-.26-1.63-.86a4.34,4.34,0,0,1-2.15-3.61v-.43a4.53,4.53,0,0,1,1.55-3.18,7.84,7.84,0,0,1,1.89-1.54,27.47,27.47,0,0,0-7.13,2.06.93.93,0,0,1-.35.17,3,3,0,0,1-1.37.52q-.25,0-.69-.69a.24.24,0,0,1-.08-.17,1,1,0,0,1-.18-.35,7.63,7.63,0,0,1-.51-1.54,5.85,5.85,0,0,0,3.09-.18,1.67,1.67,0,0,1,.35-.08c.28-.06.74-.17,1.37-.35l1.8-.51h.18a.63.63,0,0,1,.25-.09,12.88,12.88,0,0,0,1.81-1.8,16.56,16.56,0,0,0,3.26-5.93Zm-5.07,4.64-.08.17-2,.95-.17-.09a2.26,2.26,0,0,1-.17-.43,28.68,28.68,0,0,0-1.89-3.44c.11-.05.31-.17.6-.34a5.31,5.31,0,0,1,1.46-.6A24.83,24.83,0,0,1,128.28,299.26Z"/><path d="M146.67,296.25v-.43a4.79,4.79,0,0,0-.17-1.2,24.54,24.54,0,0,0,2.92.17v.26a2.8,2.8,0,0,0-.51.94.66.66,0,0,0-.09.26,24.39,24.39,0,0,0-.51,2.58c.05,0,.08,0,.08-.09l1.55,1.21c.06.11,0,.25-.17.43a.29.29,0,0,0-.18.08,3.32,3.32,0,0,0-.42.69c-.23.29-.41.52-.52.69.29-.23.72-.6,1.29-1.12,1.83-1.83,3.44-2.72,4.81-2.66h.34a3.24,3.24,0,0,1,1.47.34,2.09,2.09,0,0,1,.94,1.55v.34a40.5,40.5,0,0,1-.43,4.9c-.17,1.09-.29,1.89-.34,2.41a3.38,3.38,0,0,0,.08,1.8c.23.52.69.66,1.38.43a4.89,4.89,0,0,0,2-1.29l.34-.34.08-.09c.29-.46.58-.69.86-.69l.69,2.32a16.51,16.51,0,0,1-2.23,2,4.77,4.77,0,0,1-2.41.86h-.34a3.33,3.33,0,0,1-2-.95,4.77,4.77,0,0,1-.6-2.57v-.35a30.64,30.64,0,0,1,.43-4.21,9.85,9.85,0,0,1,.17-1.12,3.57,3.57,0,0,1,.09-.6,6.16,6.16,0,0,0,.17-1.2v-.34c-.12-.69-.69-1-1.72-.86a7.65,7.65,0,0,0-2.15,1.37l-.17.17a26.09,26.09,0,0,0-2.84,2.58,4.86,4.86,0,0,0-.43.6l-.51.52v.69c0,.91.08,2.32.26,4.21.11,1.31.17,2.32.17,3h-2.49v-3.26c0-.75,0-1.46.08-2.15a31.46,31.46,0,0,0-2.58,3.61h-.17L141,310.6v-.17q4.47-4.81,5.24-8.51l-1.2.52a8.76,8.76,0,0,0-2.66,1.29l-1.21-2.58.09-.17a13.28,13.28,0,0,0,5.07-1c.06-.29.11-.72.17-1.29a11.24,11.24,0,0,0,.09-1.21,4.5,4.5,0,0,1,.08-.6Z"/><path d="M165.84,295.31l3,.94a4.72,4.72,0,0,1-.42,1.12,6.67,6.67,0,0,0-.26.69,17.25,17.25,0,0,0-1.38,6.79v.68a8.15,8.15,0,0,0,.86,4h.09c.11-.23.26-.55.43-.95a6,6,0,0,0,.43-.86l.94.17c-.06.29-.14.69-.26,1.21a14.53,14.53,0,0,0-.43,2.75v.51l-2.06.43a7.93,7.93,0,0,1-1.54-3.35,18.37,18.37,0,0,1-.43-4.38v-.95a22.57,22.57,0,0,1,.68-5.5,12.31,12.31,0,0,0,.35-2.83Zm10.83,13.75h.77a18,18,0,0,0,4.81-.69l.09,2.32a12,12,0,0,1-4,.6h-.94c-2.69,0-4.73-.63-6.1-1.89a2.29,2.29,0,0,1-.69-1l1.55-.95A5.86,5.86,0,0,0,176.67,309.06Zm.08-11.86h.95a30.67,30.67,0,0,1,3.35.17v2.23c-.4,0-1,0-1.63-.08s-1.21-.09-1.55-.09h-1a17.48,17.48,0,0,0-2.4.26,14.29,14.29,0,0,1-2.24.26l-.17-2.32a15.46,15.46,0,0,0,2-.18A20.89,20.89,0,0,1,176.75,297.2Z"/><path d="M186.46,314.21c-.69-.8-1.23-1.4-1.63-1.8q3.27-3.78,3.26-12.46v-.43h-2.57v-2.15h2.66v-3.7h2.24v3.7h4.72q0,8.42-.26,13.23c0,2-.91,3-2.75,3a25.17,25.17,0,0,1-2.57.09c-.12-.81-.26-1.55-.43-2.24h2a1.37,1.37,0,0,0,1.64-1.54c.11-3.33.17-6.79.17-10.4h-2.58V300Q190.24,310.17,186.46,314.21ZM197,313.7V295.91h8.08V313.7h-2.23v-2h-3.7v2Zm2.15-15.64v11.6h3.7v-11.6Z"/><path d="M210.52,301H211a23.81,23.81,0,0,0,4.56-.43,9.28,9.28,0,0,0,2.92-.6,1,1,0,0,0,.52-.35h.17l2,1.21c.12.05.15.17.09.34v.09a13.93,13.93,0,0,0-2.75,2.92l-1,1.29h.6a2.66,2.66,0,0,1,1.63.51,3.55,3.55,0,0,1,.61,1.72,7.52,7.52,0,0,1,.17.77,10.92,10.92,0,0,0,.34,1.55,1.3,1.3,0,0,0,1.2,1.12h1a12.76,12.76,0,0,0,3.09-.43V313a24.7,24.7,0,0,1-2.75.17h-1.81a2.71,2.71,0,0,1-2.4-1.12,7.21,7.21,0,0,1-.86-2.57,1.32,1.32,0,0,0-.09-.43,4.55,4.55,0,0,0-.17-.86,1.28,1.28,0,0,0-1.12-.78,2.41,2.41,0,0,0-1.8,1,46.41,46.41,0,0,0-3.7,4.73h-.17a17.35,17.35,0,0,0-2.15-1.37v-.09a69.72,69.72,0,0,0,6-6.62,15.58,15.58,0,0,0,2.06-2.92l-.08-.17a9.33,9.33,0,0,1-2.58.69,10.4,10.4,0,0,0-2,.51.88.88,0,0,0-.43.17c-.17.18-.31.23-.43.18Zm5.5-6.88h.18a26.73,26.73,0,0,0,4.21,2,.83.83,0,0,0,.26.17c.22.06.37.14.42.26l-.68,1.8-.26.09a26.78,26.78,0,0,1-5.07-2.41v-.17C215.37,295.31,215.68,294.73,216,294.1Z"/><path d="M229.17,305.88V304h2.92l.78-4.9h14.69l-.25,4.9H250v1.89h-2.75l-.17,3.09h2.23v1.89h-2.4q-.09,3.09-3.61,3.09a15.41,15.41,0,0,1-2.41,0h-1.37l-.43-1.8h3.52q1.8,0,2-1.29H231l.77-5Zm1.46-4.64a14.53,14.53,0,0,0-1.2-2A15.59,15.59,0,0,0,234,293.5l2.49.17a11.65,11.65,0,0,1-.95,1.72h13.92v2H234.33A37.46,37.46,0,0,1,230.63,301.24Zm3.36,4.64-.43,3.09h4.38l.34-3.09Zm.85-4.9-.51,3h4.21l.34-3Zm9.89,8,.17-3.09h-4.38l-.35,3.09Zm.51-8h-4.12l-.35,3h4.3a9.13,9.13,0,0,0,.09-1.47C245.21,301.84,245.24,301.32,245.24,301Z"/><path d="M253.67,314.3l-.95-.95c-.46-.4-.8-.71-1-.94a8.33,8.33,0,0,0,2.32-4,25,25,0,0,0,.6-6.44v-7.39h14.78v15.64c.06,2.23-1.06,3.41-3.35,3.52-.75.06-2,.09-3.61.09-.06-.35-.17-.92-.34-1.72a3.15,3.15,0,0,0-.17-.6c.85.06,1.94.08,3.26.08s1.86-.51,1.81-1.71v-2.24H256.67A13.48,13.48,0,0,1,253.67,314.3Zm3.26-12.12c0,1.26,0,2.41-.09,3.44H267v-3.44Zm0-5.41v3.35H267v-3.35Z"/><path d="M293.8,303.64v.6a7.85,7.85,0,0,1-2.32,5.42,10.73,10.73,0,0,1-4.3,3.09c0,.12-.06.12-.17,0a8.05,8.05,0,0,0-2-1.29v-.17q6.2-2.93,6.28-7.48v-.43a5.63,5.63,0,0,0-1.89-3.95,7,7,0,0,0-3.61-1.55,48.75,48.75,0,0,1-1.89,6.28,40.77,40.77,0,0,1-2.67,5.58c-.74,1.38-1.66,2.07-2.75,2.07q-2.58-.09-4.3-2.93a6.06,6.06,0,0,1-.86-2.92v-.43a8,8,0,0,1,.69-2.83,10,10,0,0,1,1.55-2.58,9.66,9.66,0,0,1,4.64-3.52,12.12,12.12,0,0,1,3.95-.86h.95a8.63,8.63,0,0,1,6.27,2.32A8.12,8.12,0,0,1,293.8,303.64Zm-18.13,1.46v.43a4.76,4.76,0,0,0,.85,2.67,2,2,0,0,0,1.64,1,2.22,2.22,0,0,0,1.46-1,17.07,17.07,0,0,0,.86-1.55,5.3,5.3,0,0,1,.26-.6,29.08,29.08,0,0,0,2.92-8.17,14.08,14.08,0,0,0-3.27.86,11.85,11.85,0,0,0-3.52,3.18A6.73,6.73,0,0,0,275.67,305.1Z"/><path d="M314.68,314a34.06,34.06,0,0,1-9-2.75,46.09,46.09,0,0,1-9.28,3.1c-.29-.63-.66-1.38-1.12-2.24a29,29,0,0,0,8.25-2.32,16,16,0,0,1-4.73-6.27h-1.72v-2.06h7.39v-2.92h-8.93v-2.07h8.93v-2.83h2.41v2.83h8.68v2.07h-8.68v2.92h6v2.15a17.46,17.46,0,0,1-5.16,6.18,24.12,24.12,0,0,0,8.16,2.07,6.65,6.65,0,0,0-.43.86A5.93,5.93,0,0,0,314.68,314Zm-4.38-10.48h-9.11a13.44,13.44,0,0,0,4.47,5.07A13.88,13.88,0,0,0,310.3,303.47Z"/><path d="M317.43,299.69v-2.06h2.92v-4h2.32v4h2.84v2.06h-2.84v3.78l2.58-.6v2.32l-2.58.6v5.41q.09,2.42-2.58,2.58a19.55,19.55,0,0,1-2.14.09c-.12-.69-.26-1.41-.43-2.15h1.63q1.29,0,1.2-1.2v-4.21l-3,.68-.25-2.4,3.26-.69v-4.21Zm7.82,13-1.12-1.81a6.61,6.61,0,0,0,1.55-2.41,131.22,131.22,0,0,0,4.56-14.6l2.49.42a149.49,149.49,0,0,1-5.42,16c.75-.06,1.89-.12,3.44-.17l3.61-.26q-1.29-3.69-2.66-7.05l2.23-.68q2.74,7,4,11l-2.23.68-.69-2c-2.7.05-5.27.22-7.74.51A7.7,7.7,0,0,0,325.25,312.67Z"/><path d="M340,297.37l.09-.09c1,.17,2,.38,2.92.6a2.11,2.11,0,0,1-.17.61,3.4,3.4,0,0,0-.17.94,5.12,5.12,0,0,0-.09,1v.6a16,16,0,0,0,.34,3.61,30.89,30.89,0,0,0,1.21,3.44c.4.92.88,1.38,1.46,1.38a2,2,0,0,0,1.29-.61,7.07,7.07,0,0,0,1.37-1.63h.17l1,1.55c.11.06.11.14,0,.26a3.87,3.87,0,0,1-1.21,1.54,4,4,0,0,1-2.83,1.21q-2.07,0-3.27-2.67c-.17-.4-.37-1-.6-1.72a6,6,0,0,0-.34-1.11,44.76,44.76,0,0,1-.78-4.82,8.63,8.63,0,0,0-.08-.86,5.26,5.26,0,0,0-.18-.77c0-.29,0-.72-.08-1.29A6.23,6.23,0,0,0,340,297.37Zm12.81,2.23,2-.6H355a29.85,29.85,0,0,1,3.35,5.59,5.84,5.84,0,0,1,.77,1.89l-2.06.94h-.35a23.77,23.77,0,0,0-3.95-7.56Z"/><path d="M369.25,293.93h.34l2.5.69v.17a1.28,1.28,0,0,0-.43.69l-.26.51c-.23.75-.43,1.52-.6,2.32a.61.61,0,0,1-.09.26,3.21,3.21,0,0,1-.17.43h1.63a9.18,9.18,0,0,0,1.46-.17,2.24,2.24,0,0,1,.52-.09l-.43,2.15a.34.34,0,0,1-.26.09h-3.35c-.06.4-.11.94-.17,1.63s-.2,1.43-.26,1.89a14.45,14.45,0,0,0,4.13.09v.34l-.35,1.72a.34.34,0,0,1-.26.09h-1.8q-.94,0-2-.09v.6a2.92,2.92,0,0,0-.08.6v.86a3.19,3.19,0,0,0,.86,2.24,3.11,3.11,0,0,0,2,.77h.52a3.68,3.68,0,0,0,2.49-.86,3.55,3.55,0,0,0,.86-2.32v-.34a8.46,8.46,0,0,0-1.63-4,2.15,2.15,0,0,0-.26-.43l2.49-.17a7.47,7.47,0,0,1,1.89,4.81v.43a5,5,0,0,1-1.8,3.78,5.32,5.32,0,0,1-3.78,1.29h-.52a5.39,5.39,0,0,1-3.69-1.46q-1.38-1.12-1.38-3.87v-.86a10.39,10.39,0,0,1,.09-1.37,12.65,12.65,0,0,0-1.38-.43,8.3,8.3,0,0,0-1.46-.43l.17-2.15a12.32,12.32,0,0,0,2.92.86v-.43a11,11,0,0,0,.35-1.55c.11-.63.2-1.12.26-1.46-.69-.17-1.32-.34-1.89-.52s-.69-.14-.69-.25l.17-2.15a17.45,17.45,0,0,0,2.66.77c.06-.17.15-.48.26-.94a7.09,7.09,0,0,1,.17-.86,3.31,3.31,0,0,1,.09-.6,11.2,11.2,0,0,0,.17-1.64Z"/><path d="M385.84,303.81c-.92-1-1.81-2-2.67-2.92l1.64-1.29,1,1c.8.75,1.4,1.35,1.8,1.81ZM385.32,314l-2.06-.68q.76-2.32,2-7.14a4.45,4.45,0,0,1,.17-.68,9.08,9.08,0,0,1,1,.34,6.78,6.78,0,0,1,.94.34c-.17.69-.46,1.78-.86,3.27C386,311.35,385.61,312.87,385.32,314Zm1.29-15.55-1.89-2.15-1-.94,1.72-1.29,1.46,1.46c.63.69,1.12,1.2,1.47,1.54ZM396,314.13c-.23-.23-.66-.61-1.29-1.12.46.34.37.26-.26-.26a22.6,22.6,0,0,0,2-1.89h-4.73V304h4.9v6.7a21.49,21.49,0,0,0,1.63-2.24,57.75,57.75,0,0,1-.86-8.68v-.94h-6.53v4a30.31,30.31,0,0,1-.51,6.36,15.82,15.82,0,0,1-2.07,4.9,20.38,20.38,0,0,1-1.72-1.38,14.62,14.62,0,0,0,1.81-4.38,27.61,27.61,0,0,0,.43-5.59v-5.84h8.51v-3.27h2.06v3.27h2.41c-.29-.4-.89-1.12-1.81-2.15l1.29-.77a20.52,20.52,0,0,1,1.89,2l-1.29.95h2.06v1.89h-4.46v.77c.05,1.21.14,2.72.25,4.56.06.69.09,1.2.09,1.54a38.26,38.26,0,0,0,2-5.07l1.8.78a35.64,35.64,0,0,1-3.27,7.39c.18.57.35,1.17.52,1.8s.57,1,.86,1,.46-.14.52-.6a6.21,6.21,0,0,1,.08-.86c.12-1,.2-1.77.26-2.23a10.27,10.27,0,0,0,1.55.6c-.12,1.15-.26,2.26-.43,3.35-.29,1.38-.92,2.06-1.89,2.06-1.32,0-2.27-1-2.84-2.92-.06,0-.09,0-.09-.08A33.58,33.58,0,0,1,396,314.13Zm-4.47-11.86v-1.81h5.24v1.81Zm1.8,3.43v3.44H395V305.7Z"/><path d="M418.23,298.23h.43a5.24,5.24,0,0,1,3.61,1.29,5.18,5.18,0,0,1,1.55,3.61v.43a4.71,4.71,0,0,1-.77,2.57,8,8,0,0,1-2.32,2.24,10.52,10.52,0,0,1-5.16,1.8l-1.37-1.63a12.8,12.8,0,0,0,5.15-1.63c1.72-1,2.58-2.27,2.58-3.7v-.34c-.23-1.66-1.4-2.64-3.52-2.92h-.35a8.28,8.28,0,0,0-2.66.43c-.69.23-1.38.48-2.06.77-.23.11-.55.26-.95.43A24.39,24.39,0,0,0,409.9,303c-.06,0-.12.06-.17.18a.66.66,0,0,1-.6.17l-1.81-2.06q2.4-.6,4.73-1.38a1.4,1.4,0,0,0,.34-.09A14.28,14.28,0,0,1,418.23,298.23Z"/><path d="M435,294.36h.17l2.58.69v.26a2.08,2.08,0,0,0-.86,1.37,8.21,8.21,0,0,0-.51,1.46,4,4,0,0,1-.17.52l2.83-.52a2.13,2.13,0,0,0,.6-.17l.18.09v2.23c-1.38.23-2.75.4-4.13.52a2.64,2.64,0,0,1-.09.43l-.08.17A50,50,0,0,1,431,313.18l-2.32-.69-.08-.17a69.86,69.86,0,0,0,5-11.43,12.37,12.37,0,0,1-1.72.09c-.74.06-1.32.08-1.72.08l-.17-.08-.34-2.06.08-.18a10.86,10.86,0,0,1,1.12.09,8.71,8.71,0,0,0,1,.09h.69a15.54,15.54,0,0,0,1.63-.09,2.52,2.52,0,0,0,.18-.52,13.82,13.82,0,0,0,.68-3.43Zm11.6,15.81-.25,2.41a23.94,23.94,0,0,1-2.84.17h-.86a17.61,17.61,0,0,1-3.78-.43,1.63,1.63,0,0,1-.34-.08c-.41,0-.66-.09-.78-.26l-.08-2a4.37,4.37,0,0,0,.77.17,22.43,22.43,0,0,0,3.78.43h.43A18.24,18.24,0,0,0,446.59,310.17Zm-5-8.42h.77c.92,0,1.89,0,2.93.09l.08,2.32-.08.08a19.39,19.39,0,0,0-3.7-.51h-.86a6.84,6.84,0,0,0-1.89.26l.34-2.15h1.12Q441.17,301.75,441.61,301.75Z"/><path d="M469.8,303.64v.6a7.85,7.85,0,0,1-2.32,5.42,10.73,10.73,0,0,1-4.3,3.09c0,.12-.06.12-.17,0a8.05,8.05,0,0,0-2-1.29v-.17q6.2-2.93,6.28-7.48v-.43a5.61,5.61,0,0,0-1.9-3.95,6.89,6.89,0,0,0-3.6-1.55,47.21,47.21,0,0,1-1.9,6.28,39.76,39.76,0,0,1-2.66,5.58c-.74,1.38-1.66,2.07-2.75,2.07q-2.58-.09-4.3-2.93a6.06,6.06,0,0,1-.86-2.92v-.43a8,8,0,0,1,.69-2.83,10,10,0,0,1,1.55-2.58,9.66,9.66,0,0,1,4.64-3.52,12.12,12.12,0,0,1,3.95-.86h.95a8.63,8.63,0,0,1,6.27,2.32A8.12,8.12,0,0,1,469.8,303.64Zm-18.14,1.46v.43a4.78,4.78,0,0,0,.86,2.67,2,2,0,0,0,1.64,1,2.22,2.22,0,0,0,1.46-1,17.07,17.07,0,0,0,.86-1.55c.11-.29.2-.49.25-.6a28.83,28.83,0,0,0,2.93-8.17,14,14,0,0,0-3.27.86,11.85,11.85,0,0,0-3.52,3.18A6.66,6.66,0,0,0,451.66,305.1Z"/><path d="M470.91,298.74h.52a11.62,11.62,0,0,0,2.58-.43l1-.25q1.63-.44,3.18-.78,2.83-.69,5.59-1.2a17.94,17.94,0,0,0,3.43-.77,2.63,2.63,0,0,0,.26.94,2.89,2.89,0,0,1,.17,1.29l-1.2.26a6,6,0,0,0-2.92.94,6.83,6.83,0,0,0-2.49,3.7,11.87,11.87,0,0,0-.52,3V306a4.52,4.52,0,0,0,1.29,3.35,5,5,0,0,0,3.35,1.29h.43a5.3,5.3,0,0,0,1.37-.17V313h-.68a10.19,10.19,0,0,1-5.42-1.46,6.75,6.75,0,0,1-2.57-5.42v-.43a12.14,12.14,0,0,1,2.66-7q-3.44.85-6.88,1.89a2.54,2.54,0,0,1-.6.17,2.35,2.35,0,0,0-1.2.69L470.91,299ZM486.73,300l1.2-1.12c.17.17.4.43.69.77a12.72,12.72,0,0,1,1.37,1.55l-1.2,1A13.86,13.86,0,0,0,486.73,300Zm2.32-1.72,1.2-1a14.91,14.91,0,0,1,2,2.23l-1.29,1A19.35,19.35,0,0,0,489.05,298.23Z"/><path d="M223.54,358.51l1.89,2.15v.17a31.09,31.09,0,0,0-8.33,3.53,10.34,10.34,0,0,0-2.67,2.57,3,3,0,0,0-.51,1.47v.34a2.67,2.67,0,0,0,1.63,2.32,6.72,6.72,0,0,0,2.92.52h.6a18.06,18.06,0,0,0,5-.69l.17,2.58c-1.49.11-2.92.17-4.3.17h-1.28a7.87,7.87,0,0,1-4.56-.95,4.26,4.26,0,0,1-2.23-3.86v-.43c0-1.95,1.23-3.73,3.52-5.33a.85.85,0,0,1,.43-.35,35.12,35.12,0,0,0-2.75-7.22l2.32-.42a49.27,49.27,0,0,1,2.58,6.44l3.09-1.55A10,10,0,0,0,223.54,358.51Z"/><path d="M231.71,359.2H232l7.47-1.55q4.91-1,7.39-1.46c.86-.17,1.72-.31,2.58-.43l.17,2.49h-.51q-4,0-5.93,2.15a8.19,8.19,0,0,0-2.24,5.76v.34a4.52,4.52,0,0,0,1.21,3.36,4.7,4.7,0,0,0,3.78,1.2h1.46v2.58h-1.29a8,8,0,0,1-5.41-1.89,6.74,6.74,0,0,1-1.81-5v-.86a10.59,10.59,0,0,1,2.75-6.7c-.74.17-1.89.46-3.44.86-.74.17-1.32.31-1.72.43l-.77.26a9.84,9.84,0,0,0-2.58.94Z"/><path d="M260.32,354.39h.35l2.49.69v.17a1.31,1.31,0,0,0-.43.68l-.26.52c-.23.75-.43,1.52-.6,2.32a.79.79,0,0,1-.08.26,3.73,3.73,0,0,1-.18.43h1.64a9.3,9.3,0,0,0,1.46-.17,2.26,2.26,0,0,1,.51-.09l-.43,2.15a.32.32,0,0,1-.25.08h-3.36c-.05.41-.11.95-.17,1.64s-.2,1.43-.26,1.89a14.08,14.08,0,0,0,4.13.08v.35l-.34,1.72a.4.4,0,0,1-.26.08h-1.81c-.63,0-1.29,0-2-.08v.6a2.43,2.43,0,0,0-.09.6v.86a3.21,3.21,0,0,0,.86,2.23,3.07,3.07,0,0,0,2,.78h.51a3.71,3.71,0,0,0,2.49-.86,3.5,3.5,0,0,0,.86-2.32v-.35a8.5,8.5,0,0,0-1.63-4,2,2,0,0,0-.26-.43l2.5-.17a7.5,7.5,0,0,1,1.89,4.82v.42A5,5,0,0,1,267.8,373a5.32,5.32,0,0,1-3.78,1.29h-.52a5.37,5.37,0,0,1-3.69-1.47c-.92-.74-1.38-2-1.38-3.86v-.86a10.66,10.66,0,0,1,.09-1.38c-.29-.11-.74-.26-1.37-.43a9.34,9.34,0,0,0-1.47-.43l.18-2.15a11.74,11.74,0,0,0,2.92.86v-.43a10.71,10.71,0,0,0,.34-1.54c.12-.63.2-1.12.26-1.46-.69-.18-1.32-.35-1.89-.52s-.69-.14-.69-.26l.17-2.15a16.55,16.55,0,0,0,2.67.78c.05-.17.14-.49.26-.95a4.73,4.73,0,0,1,.17-.86,4.5,4.5,0,0,1,.08-.6,9.86,9.86,0,0,0,.17-1.63Z"/><path d="M274.42,373.12l-.26-2.15h.69a6,6,0,0,1,.77-.08V355.25h7.91v14.86l1.12-.17v1c1.26-1.77,1.94-5,2.06-9.54a2.79,2.79,0,0,1,.08-.51v-.43h-2.23v-2.15h2.23l.09-4.12h2.23c-.05,1-.08,2.35-.08,4.12h5.07q-.18,9.8-.35,13a2.56,2.56,0,0,1-2.75,2.83,28.74,28.74,0,0,1-2.92.09c-.11-.69-.26-1.41-.43-2.15.92.06,1.72.09,2.41.09a1.39,1.39,0,0,0,1.55-1.46V370q.25-6.27.25-9.54h-2.92V361a2.18,2.18,0,0,0-.08.52q.08,9.38-4.3,13.15c-.12-.12-.29-.32-.52-.6l-1-1.21.78-.68C281.32,372.29,278.2,372.61,274.42,373.12Zm3.26-16v3.26h3.7v-3.26Zm0,5.07v3.18h3.7v-3.18Zm0,8.42h.26c1.09-.06,2.24-.17,3.44-.34v-3.1h-3.7Z"/><path d="M306.13,360.58h1.29a1.88,1.88,0,0,1,1.72.68,2.69,2.69,0,0,1,.51,1.64v.34a18.61,18.61,0,0,1-.77,5.07c-.46,2-1.26,3.29-2.41,3.87a5.84,5.84,0,0,1-2.92.6h-.43c-.17,0-.26,0-.26-.09-.11-.23-.25-.54-.43-.94a12.36,12.36,0,0,0-.6-1.21v-.08a8.37,8.37,0,0,1,.95.08,6.69,6.69,0,0,0,.86.09H304a1.82,1.82,0,0,0,1.63-.77,5.53,5.53,0,0,0,.86-1.55.24.24,0,0,0,.09-.17,11.34,11.34,0,0,0,.77-4.13v-.51c-.05-.63-.34-1-.86-1a14.82,14.82,0,0,0-1.89.17,6.42,6.42,0,0,1-.94.08,32.69,32.69,0,0,1-3.27,7,15,15,0,0,1-1.8,2.41,2.32,2.32,0,0,1-1-.43c-.18-.12-.32-.2-.43-.26a.26.26,0,0,1-.18-.09c-.34,0-.54-.17-.6-.34a14.29,14.29,0,0,0,3.35-4.64c.58-1.15,1.12-2.26,1.64-3.35a6.44,6.44,0,0,0-2.5.68l-.08.09a1,1,0,0,1-.6.17l-1.21-2.49.09-.17a8.57,8.57,0,0,0,2.41,0,6.53,6.53,0,0,1,.86-.09,5.7,5.7,0,0,1,1.63-.26c.11-.34.2-.63.26-.85a11,11,0,0,0,.51-3.44v-.6a.74.74,0,0,1-.08-.35,7.13,7.13,0,0,0,.94.17c.8.12,1.43.23,1.89.35a1.26,1.26,0,0,1-.34.77.26.26,0,0,0-.09.17,4,4,0,0,0-.26,1.21,1.59,1.59,0,0,0-.08.43,5.07,5.07,0,0,1-.17.94c-.06.4-.12.72-.18.95A9.69,9.69,0,0,1,306.13,360.58Zm4.21-1.12v-.26a5.47,5.47,0,0,1,.77-.6,9.45,9.45,0,0,1,.78-.6c.17-.12.43.05.77.51a12.51,12.51,0,0,1,1.63,1.81,36.24,36.24,0,0,1,2.67,3.52v.26l-2.06,1.29A35.51,35.51,0,0,0,310.34,359.46Z"/><path d="M325,361.52V362a5.11,5.11,0,0,0,.34,2.06h.18l.85-1.37h.26l.95.86c-.12.23-.26.54-.43.94a8.61,8.61,0,0,0-1,3.35v.35a12.91,12.91,0,0,1-2.06.17,7.15,7.15,0,0,1-.86-2.23,14.25,14.25,0,0,1-.51-3.87v-.69a22,22,0,0,1,.34-3.18,17.16,17.16,0,0,0,.34-2.84c.86.06,1.69.15,2.5.26a14.49,14.49,0,0,0-.43,1.81A20.25,20.25,0,0,0,325,361.52Zm6-6,2.83-.25.17.08a9.22,9.22,0,0,0,.18,2.92,3.46,3.46,0,0,0,.17.95,29.73,29.73,0,0,1,.25,3.27v1.37a12.44,12.44,0,0,1-.94,5.24,12.89,12.89,0,0,1-3.61,5.25c-.06.11-.14.11-.26,0l-2-.95-.09-.17a13.84,13.84,0,0,0,3.09-3.7,12.67,12.67,0,0,0,1.38-5.93V362A15.67,15.67,0,0,0,331,355.5Z"/><path d="M350.13,354.9l2.66.26.09.09a3.3,3.3,0,0,0-.34.68.91.91,0,0,1-.18.35v.34c-.05.46-.11,1-.17,1.55.63-.06,1.52-.17,2.67-.34a9.09,9.09,0,0,0,1.11-.18l-.17,2a22.47,22.47,0,0,1-3.61.43,7.41,7.41,0,0,1,.09,1.37c.05.58.08,1,.08,1.38h.18a17.71,17.71,0,0,0,3.78-.6l-.35,2a14.22,14.22,0,0,1-3.43.61c0,1.31.14,2.69.25,4.12a15.05,15.05,0,0,1,4.82,2.67l-1,1.54a13.7,13.7,0,0,0-3.69-2,2.77,2.77,0,0,1-1.72,2.49,5.69,5.69,0,0,1-2.66.51h-.78a4.33,4.33,0,0,1-3.18-1.11,2.39,2.39,0,0,1-.68-2.84,3.41,3.41,0,0,1,1.63-1.37,8.57,8.57,0,0,1,2.92-.52h.86a7.58,7.58,0,0,1,1.29.17c-.34-.11-.29-.11.17,0,0-.51-.06-1.29-.17-2.32a11.09,11.09,0,0,1-.09-1.2h-1.8a29.42,29.42,0,0,1-3.1-.17l-.17-.09-.43-1.89v-.17c.23.06.52.11.86.17a16,16,0,0,0,2.41.26h2.15c0-.86,0-1.86-.09-3h-.51c-1.49,0-2.93-.06-4.3-.17l-.17-.09-.52-2a11.33,11.33,0,0,1,1.72.17c1,.11,1.69.17,2.15.17h1.63v-.95A20.21,20.21,0,0,0,350.13,354.9Zm-1.89,15h-.52c-1.31.12-2,.6-2.06,1.46.06.35.34.6.86.78a12,12,0,0,0,1.29.08h.51a3.79,3.79,0,0,0,1.9-.34,1.72,1.72,0,0,0,.6-1.38v-.34a6.69,6.69,0,0,1-.86-.09A14.88,14.88,0,0,0,348.24,369.94Z"/><path d="M366.37,355.08h.17l2.75.51a9.64,9.64,0,0,1-.25,1.12v11.86a4,4,0,0,0,.51,2.32,2.39,2.39,0,0,0,1.81.86h.51a3.21,3.21,0,0,0,1.46-.35,9,9,0,0,0,2-.94,9.48,9.48,0,0,0,2.41-2.15h.17l1,2c.11.11.11.17,0,.17a10.72,10.72,0,0,1-3.61,2.58,7.73,7.73,0,0,1-3.78.94h-.26a5,5,0,0,1-2.84-.86,3.37,3.37,0,0,1-1.71-2.49q-.09-1.2-.09-2.49V356.88a5,5,0,0,0-.17-1A5,5,0,0,1,366.37,355.08Z"/><path d="M392.07,354.82h.17l2.58.68v.26a2.06,2.06,0,0,0-.86,1.38,8.1,8.1,0,0,0-.52,1.46,2.48,2.48,0,0,1-.17.51l2.84-.51a3.68,3.68,0,0,0,.6-.17l.17.08v2.24c-1.38.23-2.75.4-4.13.51a2.08,2.08,0,0,1-.08.43l-.09.17A50.16,50.16,0,0,1,388,373.64l-2.32-.69-.09-.17a69.79,69.79,0,0,0,5-11.43,12.88,12.88,0,0,1-1.72.08c-.75.06-1.32.09-1.72.09l-.17-.09-.35-2.06.09-.17a11.07,11.07,0,0,1,1.12.09c.45,0,.8.08,1,.08h.68c.52,0,1.06,0,1.64-.08a4,4,0,0,0,.17-.52,13.54,13.54,0,0,0,.69-3.44Zm11.6,15.81-.26,2.41a23.81,23.81,0,0,1-2.84.17h-.85a18.28,18.28,0,0,1-3.79-.43,1.4,1.4,0,0,1-.34-.09c-.4,0-.66-.08-.77-.26l-.09-2a5.52,5.52,0,0,0,.77.17,22.63,22.63,0,0,0,3.79.43h.43A18.38,18.38,0,0,0,403.67,370.63Zm-5-8.42h.78c.91,0,1.89,0,2.92.08l.09,2.32-.09.09a19.47,19.47,0,0,0-3.7-.52h-.86a7.23,7.23,0,0,0-1.89.26l.35-2.15h1.12C398,362.24,398.4,362.21,398.68,362.21Z"/><path d="M412.69,356.11l-.51,12.63H410l-.43-12.63Zm-.17,17.61h-2.75V371h2.75Z"/></g></g></svg>