<svg xmlns="http://www.w3.org/2000/svg" viewBox="0 0 759.89 428.94"><defs><style>.cls-1{fill:#fff;}</style></defs><g id="レイヤー_2" data-name="レイヤー 2"><g id="_4" data-name="4"><path class="cls-1" d="M638.78,422.23c-4.9-1.9-12.1-10.7-16.6-14.1-4.3-3.2-9.3-6.3-12.8-10.4a62.77,62.77,0,0,1-8.8-14.1,47.08,47.08,0,0,1-4.6-16,35,35,0,0,1,3.5-16.3,39.23,39.23,0,0,1,10.1-13.1c4-3.4,9.5-5.9,15-8.7,4.8-2.5,10.5-3.9,16.1-6.2,5.1-2.1,10.2-4.9,15.7-7.1,5.2-2.1,10.6-4.3,16-6.5s10.9-3.8,16.1-6.4,9.8-6.1,14.8-9.1a150.6,150.6,0,0,0,14.2-9.9c4.5-3.5,8.3-7.8,12.3-12.1,3.9-4.1,8.1-8,11.3-13,3-4.7,5-10.1,7.3-15.6a107.32,107.32,0,0,0,5.1-16.3c1.3-5.3,3.3-10.8,3.9-16.8a155.72,155.72,0,0,0,1.1-17.3,164.18,164.18,0,0,0-1.7-17.2,158.89,158.89,0,0,0-3-17c-1.3-5.6-3.5-10.9-5.4-16.3s-2.3-11.5-4.8-16.7a150.39,150.39,0,0,0-8.6-15.1c-3-4.8-6.8-9.2-10.4-13.8a170,170,0,0,0-11.1-13.3c-4-4-8.9-7.1-13.4-10.9-4.3-3.6-8.2-8.1-13-11.5-4.6-3.2-10-5.5-15.1-8.4-4.8-2.8-10.2-4.9-15.5-7.5-5-2.5-10-5.3-15.4-7.6-5.2-2.2-10.1-5.3-15.7-7.3-5.3-1.9-11.2-2.4-16.8-4.2-5.4-1.6-11-2.8-16.7-4.3-5.5-1.4-10.6-4.6-16.3-5.8-5.5-1.2-11.3-1.4-17.1-2.5-5.5-1-11.3-1.1-17.1-1.9-5.6-.8-11.1-3.3-16.9-4-5.6-.7-11.4-.9-17.2-1.4-5.6-.5-11.4-.7-17.2-1-5.6-.4-11.4.2-17.3-.1-5.7-.2-11.4-.9-17.2-1s-11.4-.5-17.2-.5-11.4-.3-17.3-.2c-5.7.1-11.4.9-17,1.1s-11.4-.1-17,0-11.4,1.4-17,1.5-11.4-.6-17.1-.4-11.3,1.3-17,1.5-11.4-.1-17,.2-11.4-.3-17.1.1-11.4.7-17,1.1-11.4.8-17,1.3-11.4,1.2-17,1.8-11.4,1.2-16.9,1.9c-5.7.7-11.3,1.9-16.8,2.7-5.7.8-11.3,1.8-16.8,2.7-5.7,1-11.2,2.3-16.7,3.4s-11,3.3-16.4,4.6c-5.6,1.3-11.2,2.4-16.6,3.8-5.6,1.5-10.9,3.3-16.3,5s-11,3.3-16.2,5.2c-5.4,2-11,3.4-16.1,5.6q-8,3.6-15.3,7.5c-5.1,2.7-9.1,7-13.8,10s-10.3,5.2-14.7,8.7a153.81,153.81,0,0,0-12.7,11.4,135,135,0,0,0-11.1,12.9c-3.6,4.4-7.7,8.5-10.7,13.3s-5.2,10.1-7.6,15.3a152.45,152.45,0,0,0-5.7,16.1c-1.7,5.3-2.5,10.9-3.6,16.6a168.88,168.88,0,0,0-2.6,16.8c-.6,5.5-2.5,11.1-2.6,16.9s1.5,11.4,2,16.9c.5,5.8.5,11.5,1.6,16.9a119.54,119.54,0,0,0,4.5,16.4c1.9,5.4,5.3,10,7.9,15s4.7,10.3,7.9,14.9a125.85,125.85,0,0,0,23.2,24.4c4.2,3.7,7.8,8.2,12.4,11.5s9.8,5.5,14.7,8.4,9.7,5.6,14.8,8.1,10.1,4.9,15.4,7.1,10.1,4.9,15.5,6.8,11,2.7,16.4,4.3,10.6,3.9,16.1,5.3,11.2,1.8,16.7,2.9,11,2.7,16.5,3.7,11.1,2.1,16.7,2.9,11.2,1.6,16.8,2.2,11.4-.2,17,.3,11.2,2.5,16.8,2.9,11.4,0,17,.3,11.4,1.1,16.9,1.2c5.7.1,11.4-1.5,17-1.5,5.8,0,11.4,1.1,16.9,1,5.8-.1,11.5,0,17-.2,5.9-.3,11.4-2.2,16.8-2.6,6.3-.4,12.3-.4,18-.7,6.3-.4,12.4-.6,18-.9,6.4-.3,12.4.1,18.1,0,6.5-.2,12.5.3,18,.3,6.6,0,12.6-.3,18-.1,6.8.3,12.6,1.2,17.9,1.9a98.63,98.63,0,0,1,17.5,3.7,59.06,59.06,0,0,1,15.9,7.9c4.7,3.3,9.9,6.1,14.6,10.6a75.74,75.74,0,0,0,14,10.7,145.62,145.62,0,0,0,15.8,8c5.3,2.3,10.6,5,16.4,7,5.6,1.9,11.5,3,17.2,4.5s11.6,3.1,17.3,4.2c6.1,1.2,12,1.9,17.6,2.6,6.5.8,12.4,1.8,17.6,1.8C648,423.73,651.88,427.33,638.78,422.23Z"/><path d="M637.18,426.23c-5.6-2.7-9.6-7.9-14.2-12-5-4.5-11-7.6-15.5-12.8-9-10.3-15.5-25.4-12.8-39.2,2.5-12.6,9.9-24.5,21-31.3a119.26,119.26,0,0,1,21.5-9.8c8.2-2.9,15.9-7,23.9-10.3,7.3-2.9,14.5-5.9,21.9-8.7,8.3-3.1,15.3-7.9,22.7-12.6a103.78,103.78,0,0,0,19.9-15.6c7.4-7.6,15.1-15,19.3-24.9,7.3-17.1,12.6-36.3,11.6-55.1a181,181,0,0,0-2.7-22c-1.7-9.7-5.2-18.4-7.9-27.8-2.1-7.5-3.6-14-7.5-20.9-4.5-8-9.9-15.1-15.6-22.3-5.1-6.4-9.9-12.7-16.4-17.8-7.1-5.6-13.5-12.4-20.9-17.6-13.1-9.2-29.2-15.9-43.7-22.6-7-3.2-13.9-7.3-21.5-9.4-8.3-2.2-16.8-4.1-25.1-6.2-7.6-1.9-14.7-5.7-22.4-7.2a245.72,245.72,0,0,0-25.6-3.4c-8-.8-15.2-3.3-23.1-4.6-8.4-1.4-17.2-1.7-25.7-2.1-16.4-.9-32.8-1.2-49.3-1.7s-32.7.4-49.1.6c-8.9.1-17.5.3-26.4,1.2-7.4.7-14.8-.3-22.2,0-8.2.3-16.1,1.6-24.3,1.6s-16.3-.1-24.3.1c-33.1.8-66.3,5.4-98.9,10.9-32,5.4-63.1,15.2-93.9,25.3a133.18,133.18,0,0,0-22.3,9.7c-6.9,3.7-12.4,9.2-19.1,13a100.08,100.08,0,0,0-20.3,14.5c-6.7,6.3-12.1,13.5-18.1,20.4-12.4,14.2-17.9,32.5-21.4,50.7-1.5,7.5-2.2,15.2-3.6,22.7-1,5.4-2,10.1-1.4,15.5.5,4.4,1.5,8.8,1.8,13.2.7,8.5,1.4,16.4,3.7,24.7,2.5,8.8,7.1,16,11.1,24,3.3,6.6,6.5,12.7,11.3,18.5,6.2,7.5,13.3,13.4,20.3,20,5.5,5.2,10.2,9.9,16.8,13.6,7.8,4.3,15.4,8.8,23.4,12.8a234.39,234.39,0,0,0,45,17.5c7,1.9,13.7,4.9,20.8,6.4,8.7,1.8,17.4,3.3,26.1,5.2,16.6,3.6,33.5,6.1,50.4,6.1,7.9,0,15.2,2.7,23,3.1,9.2.5,18.4.5,27.7,1.2,7.8.6,15.3-1.4,23-1.2,8.5.1,17,.9,25.5.9,8.2,0,15.7-2,23.8-2.7,8.7-.7,17.5-.7,26.2-1.2,17.2-.8,34.4,0,51.7-.2,15.3-.2,31.2.6,46,5,14.5,4.3,25.7,13.9,37.1,23.3,12.2,10,28.8,17.7,43.9,22.3a302.19,302.19,0,0,0,49.6,10.6c11.9,1.5,23.9,1.7,35.8,3.4-1.1,2.6-2.1,5.3-3.2,7.9-1.1-1.3-5.8-2.1-7.4-2.7s1.6-8.5,3.2-7.9c1.8.7,6.3,1.3,7.6,2.7s-1.3,8.2-3.2,7.9c-12.7-1.9-25.5-2.1-38.2-3.7-17.3-2.2-35.7-5.8-52.1-12-14.9-5.6-30.3-12.7-42.2-23.4-11.4-10.3-24.8-18.9-40-22.1-16.4-3.5-32.4-3-49-3.4-17.7-.4-35.3,0-53,.8-17.4.8-34.3,3.9-51.7,3.4-4-.1-8.1-.8-12.1-.9-4.8-.1-9.4.7-14.2,1.2-7.4.7-14.7-.6-22.2-1-9.1-.4-17.6-.1-26.5-1.9s-17.9-.8-27-1.8c-17.6-2-34.6-6.4-52-9.3a129.75,129.75,0,0,1-22.3-5.5c-8-2.8-16.5-4-24.4-7-15.8-6.2-30.8-14.2-45.5-22.3C44.08,304.43,22,278.63,9,249c-6.5-14.8-7.2-32.1-8.8-48-.8-7.8,1.3-14.9,2.4-22.6,1.1-8,2.4-15.8,3.9-23.7,5.9-30.9,22.4-57.3,45.5-78.4a93.06,93.06,0,0,1,18.3-12.9c6.5-3.6,11.7-8.8,18.1-12.5,14.8-8.5,31.4-13.2,47.6-18.4,63.1-20,129.7-28.9,195.8-28.7,8.2,0,16.2-1.5,24.3-1.6,9.3-.2,18.3.2,27.6-.8,7.4-.7,14.8-.2,22.3-.4,9-.2,17.9-1.2,26.9-1,16.8.3,33.7,1.8,50.5,1.6,7.8-.1,15.6.4,23.4.9,9,.7,18.2.9,26.9,3.2,16.6,4.4,34.8,2.9,50.9,9.2,7.8,3,15.5,4.9,23.6,7.1,7.9,2.2,16.2,3.3,23.7,6.8,15.7,7.1,31.2,14.8,46.4,22.9a91.56,91.56,0,0,1,19.9,14.2c6.7,6.1,14.4,10.9,20.4,17.8,10.1,11.6,20.7,24.5,27,38.7,3.3,7.5,4.6,15.9,7.3,23.6a120,120,0,0,1,5.6,24.4c4.1,30.1-.6,62.5-16,89.2-3.6,6.2-8.6,11.1-13.5,16.3a123.35,123.35,0,0,1-18.6,16.8,216.51,216.51,0,0,1-20.8,13.4c-7.6,4.1-16.1,6.6-24.1,9.9-7.3,3-14.4,6-21.6,9.3-8.3,3.8-17.1,6.3-25.2,10.6-11.2,5.8-21.4,14.8-20.8,28.6.4,9,5.2,18.5,10.3,25.8,4.9,6.9,11.8,10.6,18,16.1,4.6,4.1,8.5,9.3,14.2,12C642,419,638.58,426.93,637.18,426.23Z"/><path d="M203.67,69.13V66.59h11.07V64l7.11-4.57H205.9V56.84H226V60l-8.33,5.28v1.32h10.56v2.54H217.68v6.5c.07,2.44-1.12,3.66-3.55,3.66-1.36.06-2.81.1-4.37.1a24.1,24.1,0,0,0-.51-2.74c.61.07,1.76.1,3.46.1,1.42.07,2.09-.61,2-2V69.13Z"/><path d="M230.17,70.05c-.06-.41-.17-1-.3-1.83s-.24-1.49-.31-1.83a37.05,37.05,0,0,0,5-10.87l2.74.71a43.18,43.18,0,0,1-2.13,5.39V79.8h-2.64V66.69C231.76,67.78,231,68.89,230.17,70.05Zm8.13,9.75a16.17,16.17,0,0,0-2.13-1.93,35.09,35.09,0,0,0,5.58-5.29L244,74.11Q241.25,76.94,238.3,79.8ZM237.18,63V60.6h3v-5h2.64v5h4.77v-5h2.64v5h3.05V63h-3.05v6.4h3.86v2.43H236.37V69.44h3.86V63Zm5.69,0v6.4h4.77V63ZM252,79.69q-2.64-2.73-5.59-5.48l2-1.63c.67.61,1.62,1.49,2.84,2.64l2.84,2.54Z"/><path d="M262,57.45l3.46.81c-.07.21-.17.48-.31.82a3.43,3.43,0,0,0-.3.5,6.81,6.81,0,0,0-.21,1.12,1.89,1.89,0,0,0-.1.51,11.37,11.37,0,0,0-.2,1.22,4,4,0,0,0-.2,1,2.87,2.87,0,0,1,.81-.1,7.55,7.55,0,0,1,.81-.1,2.58,2.58,0,0,0,.61-.1h1a4.74,4.74,0,0,1,1.93.41,2.5,2.5,0,0,1,1,2V66.8a26.74,26.74,0,0,1-.91,6.39c-.48,2.31-1.39,3.63-2.75,4a7.24,7.24,0,0,1-3.14.72h-.71c-.21-.48-.48-1.05-.82-1.73a6.69,6.69,0,0,1-.4-.92l.1-.2a5.4,5.4,0,0,1,.71.1,6.8,6.8,0,0,0,1.42.21h.41A2.29,2.29,0,0,0,266.33,74a16.08,16.08,0,0,0,.91-2.75,24.11,24.11,0,0,0,.61-4.67,1.17,1.17,0,0,0-1.42-1.22c-.34.07-.85.14-1.52.21l-1.53.3a32.93,32.93,0,0,1-5.58,11.27l-.2.11a9.81,9.81,0,0,0-1.63-.71,4.36,4.36,0,0,0-.81-.41v-.2a26.4,26.4,0,0,0,3.65-5.18,22.9,22.9,0,0,0,1.53-3.46,6.69,6.69,0,0,0,.4-.91,27.75,27.75,0,0,0-3,1,1.46,1.46,0,0,1-.92.31l-1.11-2.84.2-.21a3.38,3.38,0,0,1,.61.1,1.56,1.56,0,0,0,.81,0c.47-.06,1.18-.2,2.13-.4S261,64,261.35,64a1.92,1.92,0,0,1,.11-.61,22.92,22.92,0,0,0,.5-4.77ZM277.5,67.3l-.1.21-2.13,1.21a33.63,33.63,0,0,0-5-6.9v-.31l1.93-1.11A28.7,28.7,0,0,1,277.5,67.3Zm.71-6.8v.2l-1.32,1.12h-.2a7.74,7.74,0,0,0-2.44-2.64V59l1.22-1h.2A21.34,21.34,0,0,1,278.21,60.5Zm-1.42-3.45v-.21l1.22-1h.2a1.52,1.52,0,0,0,.31.2c.47.41,1,.91,1.62,1.52a1.67,1.67,0,0,1,.61,1l-1.22,1.12h-.2A10.27,10.27,0,0,0,276.79,57.05Z"/><path d="M284.41,74.31a24.84,24.84,0,0,0-2.85-1.12A63.25,63.25,0,0,0,286.24,61l2.94.81Q287.15,68,284.41,74.31Zm3.65,5a8.54,8.54,0,0,0-.6-2.74c.81.06,1.89.1,3.25.1s2.16-.54,2-2V55.72h2.94V75.53c.14,2.5-1.12,3.76-3.76,3.76ZM303.4,74c-1.36-3.66-3-7.69-5-12.09l2.75-.91q1.31,3,4.36,10.15a15.69,15.69,0,0,1,.82,1.83Z"/><path d="M308,73.4V70.86h11.27v-.71l4.17-2.54H312.24V65.17h15.23v2.44l-5.28,3.25H332V73.4h-10v2.94q.09,3.25-3.46,3.25h-4c-.2-1-.4-1.83-.61-2.64h1.63c.74.07,1.32.1,1.73.1,1.35.14,2-.4,1.82-1.62v-2Zm.61-7.32V60.5h15.23l-.4-.2c1.35-1.83,2.44-3.39,3.25-4.68l2.94.92c-.27.34-.64.85-1.11,1.52-.82,1.08-1.43,1.9-1.83,2.44h4.67v5.58h-2.64V62.94H311.22v3.14Zm4.06-5.78c-.27-.41-.68-1-1.22-1.93s-1.05-1.43-1.32-1.83l2.75-.82q1.41,1.83,2.64,3.56Zm6.6-.51c-.13-.21-.34-.58-.61-1.12A31,31,0,0,1,317,55.93l2.74-.51c.81,1.22,1.63,2.47,2.44,3.76Z"/><path d="M333.87,62.73V60.3h2.94V55.42h2.54V60.3h2.44v2.43h-2.44v2.34l.31.3c.74.61,1.66,1.39,2.74,2.34L341,69.84,339.35,68V79.8h-2.54V68.12a34,34,0,0,1-2.64,5.78c-.06-.33-.2-.91-.4-1.72a9.51,9.51,0,0,0-.41-1.83,29.62,29.62,0,0,0,3.35-7.62Zm22.85,16.66a33.68,33.68,0,0,1-6.8-3.56,29.28,29.28,0,0,1-7.32,4,15,15,0,0,0-1.52-2.44,20.63,20.63,0,0,0,7-3.35,20.11,20.11,0,0,1-3.35-5.79L347,67.3a20.41,20.41,0,0,0,2.95,4.88,14.61,14.61,0,0,0,2.74-5.08l2.44.81a17.31,17.31,0,0,1-3.36,6.1A18.28,18.28,0,0,0,358.35,77a9.46,9.46,0,0,1-.82,1.22C357.19,78.71,356.92,79.12,356.72,79.39Zm-13.3-10.67a22.2,22.2,0,0,0-1.53-1.92,37.74,37.74,0,0,0,5.18-4.88l1.83,1.63A53.4,53.4,0,0,1,343.42,68.72Zm-.61-7.31V59h6.29c-.27-1-.61-2.06-1-3.14l2.64-.41L351.85,59h6v2.44Zm13.81,7q-2.75-2.64-5.49-4.87l1.63-1.63c1.28,1,3,2.44,5.08,4.27l.3.3Z"/><path d="M362.81,57.45l3.56,1.12a5.74,5.74,0,0,1-.51,1.32q-.21.51-.3.81a20.39,20.39,0,0,0-1.63,8v.82a9.53,9.53,0,0,0,1,4.67h.1c.13-.27.3-.64.51-1.12a5.89,5.89,0,0,0,.5-1l1.12.2-.3,1.42a16.65,16.65,0,0,0-.51,3.25v.61l-2.44.51a9.5,9.5,0,0,1-1.83-4,21.9,21.9,0,0,1-.5-5.18V67.81a26.79,26.79,0,0,1,.81-6.5,14.65,14.65,0,0,0,.4-3.35Zm12.8,16.25h.92a21.39,21.39,0,0,0,5.68-.81l.1,2.74a13.93,13.93,0,0,1-4.67.71h-1.11c-3.19,0-5.59-.74-7.22-2.23a2.71,2.71,0,0,1-.81-1.22l1.83-1.12A6.92,6.92,0,0,0,375.61,73.7Zm.1-14h1.12a36.71,36.71,0,0,1,4,.2v2.64c-.47,0-1.12,0-1.93-.1s-1.42-.1-1.83-.1h-1.11a20.75,20.75,0,0,0-2.85.3,17,17,0,0,1-2.64.31l-.2-2.75a17.94,17.94,0,0,0,2.33-.2A25.41,25.41,0,0,1,375.71,59.69Z"/><path d="M385.87,78.37V75.83h9.34V55.72h3.15V63h9.75v2.74h-9.75v10H410v2.54Z"/><path d="M418,57.45l3.46.81c-.07.21-.17.48-.31.82a3.43,3.43,0,0,0-.3.5,6.81,6.81,0,0,0-.21,1.12,1.89,1.89,0,0,0-.1.51,11.37,11.37,0,0,0-.2,1.22,4,4,0,0,0-.2,1,2.87,2.87,0,0,1,.81-.1,7.55,7.55,0,0,1,.81-.1,2.58,2.58,0,0,0,.61-.1h1a4.74,4.74,0,0,1,1.93.41,2.5,2.5,0,0,1,1,2V66.8a26.74,26.74,0,0,1-.91,6.39c-.48,2.31-1.39,3.63-2.75,4a7.24,7.24,0,0,1-3.14.72h-.71c-.21-.48-.48-1.05-.82-1.73a6.69,6.69,0,0,1-.4-.92l.1-.2a5.4,5.4,0,0,1,.71.1,6.8,6.8,0,0,0,1.42.21h.41A2.29,2.29,0,0,0,422.33,74a16.08,16.08,0,0,0,.91-2.75,24.11,24.11,0,0,0,.61-4.67,1.17,1.17,0,0,0-1.42-1.22c-.34.07-.85.14-1.52.21l-1.53.3a32.93,32.93,0,0,1-5.58,11.27l-.2.11a9.81,9.81,0,0,0-1.63-.71,4.36,4.36,0,0,0-.81-.41v-.2a26.4,26.4,0,0,0,3.65-5.18,22.9,22.9,0,0,0,1.53-3.46,6.69,6.69,0,0,0,.4-.91,27.75,27.75,0,0,0-3,1,1.46,1.46,0,0,1-.92.31l-1.11-2.84.2-.21a3.38,3.38,0,0,1,.61.1,1.56,1.56,0,0,0,.81,0c.47-.06,1.18-.2,2.13-.4S417,64,417.35,64a1.92,1.92,0,0,1,.11-.61,22.92,22.92,0,0,0,.5-4.77ZM433.5,67.3l-.1.21-2.13,1.21a33.63,33.63,0,0,0-5-6.9v-.31l1.93-1.11A28.7,28.7,0,0,1,433.5,67.3Zm.71-6.8v.2l-1.32,1.12h-.2a7.74,7.74,0,0,0-2.44-2.64V59l1.22-1h.2A21.34,21.34,0,0,1,434.21,60.5Zm-1.42-3.45v-.21l1.22-1h.2a1.52,1.52,0,0,0,.31.2c.47.41,1,.91,1.62,1.52a1.67,1.67,0,0,1,.61,1l-1.22,1.12h-.2A10.27,10.27,0,0,0,432.79,57.05Z"/><path d="M442.24,58.77h1.42a24.19,24.19,0,0,0,7.51-1,.9.9,0,0,0,.41-.11,1.61,1.61,0,0,1,.61-.2h.1l2.64,2.13v.11a10.25,10.25,0,0,0-2.33,2.23L451,63.85c-.75.81-1.32,1.46-1.73,1.93a10.18,10.18,0,0,0,1.22-.1,8.1,8.1,0,0,1,1.12-.1h.51a7.19,7.19,0,0,1,4.47,1.62,5.63,5.63,0,0,1,1.93,4.37v.3a6.05,6.05,0,0,1-3.05,5,9.08,9.08,0,0,1-5.08,1.52H450q-4.68-.41-5-3.45v-.41q.3-2.64,3.45-2.94h.51q2.54,0,5,3.25a4.4,4.4,0,0,0,1.62-3.15v-.51c-.2-1.89-1.46-2.94-3.76-3.15h-.5a8.7,8.7,0,0,0-6.81,3.56.26.26,0,0,1-.1.2,1.71,1.71,0,0,1-.51.51l-2.44-1.83v-.3a38.19,38.19,0,0,0,8.64-9.45,14,14,0,0,0-5.59,1.22c-.07,0-.14.07-.2.2a.79.79,0,0,1-.71.21L442.24,59ZM449,76.14h.51a4.34,4.34,0,0,0,1.32-.2,1.42,1.42,0,0,0-.71-1.12,2.39,2.39,0,0,0-2.44-.81q-.92.51-.51,1.32A2.15,2.15,0,0,0,449,76.14Z"/><path d="M463.77,59.28V57.45h10.76v-2h2.75v2h10.86v1.83H477.28V60.7h8.12v4.88h-8.12V67h8.63v3.25h2.33v1.83h-2.33v4.67h-2.54V75.43h-6.09v.51q.2,3.45-3.36,3.45c-.74.07-2.06.1-4,.1a13.6,13.6,0,0,0-.5-2.23h3.35c1.28.13,1.86-.41,1.72-1.63v-.2h-9.34V73.8h9.34V72.08H463.77V70.25h10.76V68.62h-9.24V67h9.24V65.58h-8.12V60.7h8.12V59.28Zm5.28,3V64h5.48V62.33Zm13.81,0h-5.58V64h5.58Zm.51,6.29h-6.09v1.63h6.09Zm-6.09,3.46V73.8h6.09V72.08Z"/><path d="M499.21,55.83h.41l2.94.81v.2a1.55,1.55,0,0,0-.5.81l-.31.61c-.27.88-.51,1.8-.71,2.75a.73.73,0,0,1-.1.3c-.07.2-.14.37-.2.51h1.93a10.88,10.88,0,0,0,1.72-.2,2.82,2.82,0,0,1,.61-.11l-.51,2.54a.39.39,0,0,1-.3.1h-4c-.07.48-.14,1.12-.2,1.93s-.24,1.7-.31,2.24a17.16,17.16,0,0,0,4.88.1v.41l-.41,2a.41.41,0,0,1-.31.1h-2.13c-.74,0-1.52,0-2.33-.1v.71a2.93,2.93,0,0,0-.11.71v1a3.8,3.8,0,0,0,1,2.64,3.62,3.62,0,0,0,2.34.91h.61a4.37,4.37,0,0,0,2.94-1,4.14,4.14,0,0,0,1-2.74v-.4c0-1.15-.65-2.75-1.93-4.78a2.52,2.52,0,0,0-.31-.51l2.95-.2a8.84,8.84,0,0,1,2.23,5.69v.51a5.93,5.93,0,0,1-2.13,4.47,6.32,6.32,0,0,1-4.47,1.52H503a6.41,6.41,0,0,1-4.37-1.73Q497,76.34,497,73.09v-1a12.74,12.74,0,0,1,.1-1.63q-.51-.2-1.62-.51a10.08,10.08,0,0,0-1.73-.5l.2-2.54a14.62,14.62,0,0,0,3.45,1V67.4a12.56,12.56,0,0,0,.41-1.82c.14-.75.24-1.32.31-1.73-.82-.2-1.56-.41-2.24-.61s-.81-.17-.81-.3l.2-2.54a20.44,20.44,0,0,0,3.15.91c.07-.2.17-.57.31-1.12a5.48,5.48,0,0,1,.2-1,4,4,0,0,1,.1-.71,13.22,13.22,0,0,0,.2-1.93Z"/><path d="M520.64,60.9h1.53c.33,0,.87,0,1.62-.1h.81a1.62,1.62,0,0,1,.11-.5,26,26,0,0,0,.2-2.65,7.55,7.55,0,0,0-.1-1h.5a13.17,13.17,0,0,1,1.43.1,10,10,0,0,0,1.22.1,1.55,1.55,0,0,1-.21,1,1,1,0,0,0-.2.51,4.51,4.51,0,0,1-.2,1,6.59,6.59,0,0,1-.21,1.12,3.74,3.74,0,0,0,1.12-.2,27,27,0,0,0,4.57-1v2.54c-1.83.4-3.69.78-5.59,1.12h-.5c-.07.67-.14,1.49-.21,2.43a17.79,17.79,0,0,1,3.15-.61,1.55,1.55,0,0,1,.1-.4v-.61c-.07-.14,0-.27.21-.41l2.43.41.11.2-.11.1c-.06.14-.17.41-.3.82a6.59,6.59,0,0,1,4.06,1.52,7.6,7.6,0,0,1,2.34,5v.71c-.07,2.43-1.39,4.47-4,6.09a4.9,4.9,0,0,1-2.44,1H532a10.12,10.12,0,0,0-2.24-1.93,8,8,0,0,0,4.37-1.63,5.25,5.25,0,0,0,1.93-3.76v-.3a5,5,0,0,0-2.13-4,4,4,0,0,0-1.12-.41h-.2a4.05,4.05,0,0,0-1.12-.3,23.65,23.65,0,0,1-4.37,7.41,15.81,15.81,0,0,0,.71,1.83c-.2.07-.54.2-1,.41a3.17,3.17,0,0,1-1.12.3c-.2,0-.37-.2-.51-.61a2,2,0,0,1-1.11.61,6.1,6.1,0,0,1-3.76,1.52h-.41c-1.56-.07-2.4-1.22-2.54-3.45v-.41a9.45,9.45,0,0,1,3-6,13.08,13.08,0,0,1,3.76-2.33c0-.41,0-1,.1-1.93a5.49,5.49,0,0,1,.1-1h-1.52c-.75.07-1.32.1-1.73.1h-1.52c-.21,0-.31,0-.31-.1a2.82,2.82,0,0,1-.61-1.42v-.1c-.2-.41-.24-.71-.1-.92C519.25,60.87,520,60.9,520.64,60.9Zm3.86,13-.1-.3a43.15,43.15,0,0,1-.3-5.08,9,9,0,0,0-3.76,3.86,3.56,3.56,0,0,0-.61,2c.06,1,.51,1.53,1.32,1.53a4,4,0,0,0,2.54-1.12A6.09,6.09,0,0,1,524.5,73.9Zm2-6.5v2.44a6.7,6.7,0,0,0,.1,1.83,17.58,17.58,0,0,0,2.65-4.87c-1.16.2-2,.37-2.44.5A.41.41,0,0,1,526.53,67.4Z"/><path d="M549.59,64.26v.5a6.11,6.11,0,0,0,.4,2.44h.21l1-1.62h.31l1.11,1c-.13.27-.3.65-.5,1.12a10,10,0,0,0-1.12,4v.41a15.44,15.44,0,0,1-2.44.2,8.41,8.41,0,0,1-1-2.64,16.44,16.44,0,0,1-.61-4.57v-.81a26.2,26.2,0,0,1,.4-3.76,20.86,20.86,0,0,0,.41-3.35c1,.07,2,.17,3,.3a17.44,17.44,0,0,0-.51,2.13A24.29,24.29,0,0,0,549.59,64.26Zm7.11-7.11,3.35-.31.2.1a10.69,10.69,0,0,0,.21,3.46,4.07,4.07,0,0,0,.2,1.11,35.85,35.85,0,0,1,.3,3.86V67a14.76,14.76,0,0,1-1.11,6.19,15.33,15.33,0,0,1-4.27,6.2q-.11.19-.3,0l-2.34-1.12-.1-.2a16.28,16.28,0,0,0,3.65-4.37,15,15,0,0,0,1.63-7V64.76A18.56,18.56,0,0,0,556.7,57.15Z"/><path d="M91.91,133.86h2.14a32.5,32.5,0,0,0,7.51-.91v3.25a42.68,42.68,0,0,1-7.82.61H92.22a11.32,11.32,0,0,1-4.78-.82,12.07,12.07,0,0,1-3.55-2.64v-.3l1.73-1.52c.06-.14.1-.14.1,0a8.08,8.08,0,0,0,2.94,1.93A9.51,9.51,0,0,0,91.91,133.86Zm.51-14.22h.81a23.35,23.35,0,0,0,4.78-.71c-.07,0,0,0,.3-.1v3c-1.42.13-2.81.2-4.16.2H91.81a39.87,39.87,0,0,1-4.16-.41l-.21-.1-.61-2.84.11-.1c.2.06.47.13.81.2A17.68,17.68,0,0,0,92.42,119.64Z"/><path d="M112.94,118.53V118a5.74,5.74,0,0,0-.21-1.42,29,29,0,0,0,3.46.2v.3a3.2,3.2,0,0,0-.61,1.12.82.82,0,0,0-.11.31,29,29,0,0,0-.6,3,.09.09,0,0,0,.1-.1l1.83,1.42c.06.14,0,.31-.21.51a.32.32,0,0,0-.2.1,3.36,3.36,0,0,0-.51.81c-.27.34-.47.61-.61.82q.51-.41,1.53-1.32c2.16-2.17,4.06-3.22,5.68-3.15h.41a4,4,0,0,1,1.73.4,2.49,2.49,0,0,1,1.11,1.83v.41a48.38,48.38,0,0,1-.51,5.79c-.2,1.29-.34,2.23-.4,2.84a4,4,0,0,0,.1,2.13c.27.61.81.78,1.63.51a5.78,5.78,0,0,0,2.33-1.52l.41-.41.1-.1c.34-.54.67-.81,1-.81l.82,2.74a21.18,21.18,0,0,1-2.64,2.34,5.65,5.65,0,0,1-2.85,1h-.4a4,4,0,0,1-2.34-1.11,5.69,5.69,0,0,1-.71-3.05v-.41a36.54,36.54,0,0,1,.51-5A9.44,9.44,0,0,1,123,127a4,4,0,0,1,.1-.72,6.8,6.8,0,0,0,.21-1.42v-.4c-.14-.82-.82-1.15-2-1a9.12,9.12,0,0,0-2.54,1.63l-.2.2a28.77,28.77,0,0,0-3.35,3,3.77,3.77,0,0,0-.51.71l-.61.61v.81c0,1.08.1,2.74.31,5,.13,1.56.2,2.75.2,3.56h-2.94v-3.86c0-.88,0-1.73.1-2.54a36.1,36.1,0,0,0-3,4.27h-.2l-2.24-1.32v-.21q5.28-5.68,6.2-10l-1.42.61a10.24,10.24,0,0,0-3.15,1.52l-1.42-3,.1-.2a15.43,15.43,0,0,0,6-1.22c.07-.34.13-.84.2-1.52a13,13,0,0,0,.1-1.42,4.26,4.26,0,0,1,.11-.71Z"/><path d="M144.12,123.1h1.52a2.23,2.23,0,0,1,2,.81,3.09,3.09,0,0,1,.61,1.93v.4a22.68,22.68,0,0,1-.91,6c-.55,2.37-1.49,3.89-2.85,4.57a6.94,6.94,0,0,1-3.45.71h-.51c-.2,0-.3,0-.3-.1-.14-.28-.31-.65-.51-1.12a14.22,14.22,0,0,0-.71-1.42v-.1a7.85,7.85,0,0,1,1.11.1,7.92,7.92,0,0,0,1,.1h.41a2.16,2.16,0,0,0,1.93-.92,6.2,6.2,0,0,0,1-1.82.29.29,0,0,0,.1-.21,13.21,13.21,0,0,0,.92-4.87v-.61c-.07-.75-.41-1.15-1-1.22a19.89,19.89,0,0,0-2.23.2,8.1,8.1,0,0,1-1.12.1,38.38,38.38,0,0,1-3.86,8.33,17.34,17.34,0,0,1-2.13,2.85,2.69,2.69,0,0,1-1.22-.51,4.1,4.1,0,0,0-.51-.31.26.26,0,0,1-.2-.1c-.41-.06-.65-.2-.71-.4a16.91,16.91,0,0,0,4-5.49c.67-1.35,1.32-2.67,1.93-4a7.79,7.79,0,0,0-3,.81l-.1.11a1.28,1.28,0,0,1-.71.2l-1.42-3,.1-.2a9.36,9.36,0,0,0,2.84,0,7.92,7.92,0,0,1,1-.1,6.8,6.8,0,0,1,1.93-.31c.13-.4.24-.74.3-1a12.68,12.68,0,0,0,.61-4.06v-.72a.82.82,0,0,1-.1-.4,9.07,9.07,0,0,0,1.12.2c1,.14,1.69.27,2.23.41a1.52,1.52,0,0,1-.4.91.29.29,0,0,0-.1.2,4.52,4.52,0,0,0-.31,1.43,1.57,1.57,0,0,0-.1.5,5.86,5.86,0,0,1-.2,1.12,11,11,0,0,1-.21,1.12A11.6,11.6,0,0,1,144.12,123.1Zm5-1.32v-.31a6.64,6.64,0,0,1,.92-.71c.4-.34.71-.57.91-.71s.51.07.91.61a14.82,14.82,0,0,1,1.93,2.13,45.15,45.15,0,0,1,3.15,4.17v.3l-2.44,1.52A41.13,41.13,0,0,0,149.09,121.78Z"/><path d="M162.8,121.17l2.85.61a40.8,40.8,0,0,0-.92,7.61,11.74,11.74,0,0,1,7.32-3h.71a8.69,8.69,0,0,1,4.57,1.11,5.17,5.17,0,0,1,2.13,3.86v.51a6.08,6.08,0,0,1-2.13,4.47,15,15,0,0,1-4.68,2.23,4.93,4.93,0,0,1-2.43.61l-1.32-2.23v-.1a35.19,35.19,0,0,0,4.06-.92q3.45-1.41,3.45-3.65v-.41c-.13-1.83-1.39-2.84-3.76-3.05h-.4a11,11,0,0,0-4.06,1,6.8,6.8,0,0,0-3.25,3.25L162,132c.07-.54.17-1.38.31-2.54q.49-4.77.5-7.21Zm2.14-3.56,1.72-1.93a4.07,4.07,0,0,1,.81.41,34,34,0,0,1,4.47,2.23v.21l-1.72,1.82A28.55,28.55,0,0,0,164.94,117.61Z"/><path d="M208.81,127.26V128a9.22,9.22,0,0,1-2.74,6.4A12.75,12.75,0,0,1,201,138c0,.13-.07.13-.2,0a9.46,9.46,0,0,0-2.34-1.53v-.2q7.32-3.45,7.42-8.84V127a6.62,6.62,0,0,0-2.24-4.68,8.1,8.1,0,0,0-4.26-1.82,56,56,0,0,1-2.24,7.41,47.37,47.37,0,0,1-3.15,6.6c-.88,1.63-2,2.44-3.25,2.44q-3-.1-5.08-3.45a7.22,7.22,0,0,1-1-3.46v-.51a9.58,9.58,0,0,1,.81-3.35,11.85,11.85,0,0,1,1.83-3,11.45,11.45,0,0,1,5.48-4.17,14.8,14.8,0,0,1,4.68-1h1.11a10.24,10.24,0,0,1,7.42,2.74A9.61,9.61,0,0,1,208.81,127.26ZM187.38,129v.5a5.56,5.56,0,0,0,1,3.15,2.3,2.3,0,0,0,1.93,1.22,2.54,2.54,0,0,0,1.72-1.22,17.39,17.39,0,0,0,1-1.83c.13-.33.23-.57.3-.71a34.21,34.21,0,0,0,3.46-9.64,16,16,0,0,0-3.86,1,13.71,13.71,0,0,0-4.17,3.76A7.9,7.9,0,0,0,187.38,129Z"/><path d="M212.77,127v-9.15h2.74v6.5h5.69v-8.73h3v8.73h5.68v-6.5h2.85V127h-8.53v9.14h6.6v-6.61h2.74v10h-2.74v-1H211.86v-8.94h2.74v6.61h6.6V127Z"/><path d="M237.45,128.68a7.79,7.79,0,0,0-.91-1.83c3.86-.47,6.19-1.22,7-2.23h-5.69l.81-4.47h5.79v-1.32H238V117.1h6.5v-1.62H247v1.62h3.76v-1.62h2.54v1.62h6.09v4.57H253.3v1.43h7a7.85,7.85,0,0,1-.1,1.11,3.49,3.49,0,0,1-.1,1,1.77,1.77,0,0,1-2,1.83v9.14H239.48v-7.82Zm.1,11.17c-.07-.2-.2-.54-.4-1l-.51-1,1.83-.3q3-.51,7.51-1l.92,1.53C243.1,138.84,240,139.45,237.55,139.85Zm3.35-18.18-.3,1.43h3.66a4,4,0,0,0,.2-1.22v-.21Zm1.22,6.61v1.21h13.31v-1.21Zm0,2.53V132h13.31v-1.22Zm0,2.54v1.32h13.31v-1.32Zm8.64-7.11v-1.62h-4.27a4.09,4.09,0,0,1-2.13,2.13h11a1.55,1.55,0,0,0-.21-.61,4.54,4.54,0,0,0-.2-.51h1.93c.54,0,.85-.2.91-.6v-.41H253.3v1.62ZM247,122a3.25,3.25,0,0,1-.1.61v.51h3.86v-1.43H247Zm0-3.15v1.32h3.76v-1.32Zm13,20.92c-3.59-.74-6.7-1.32-9.35-1.72l.72-1.53a93.58,93.58,0,0,1,9.34,1.32ZM257,118.83H253.3v1.32H257Z"/><path d="M271.68,115.78l3.25.82v.2l-.71.81c-.07.2-.21.54-.41,1a3.82,3.82,0,0,1-.41,1.11,18,18,0,0,0,4.07-1v2.74a27.55,27.55,0,0,1-5,.81,17.53,17.53,0,0,1-1.52,3,7.68,7.68,0,0,1,2.84-.81h.41a4,4,0,0,1,1,.2l.21.1a3.64,3.64,0,0,1,1.21,1.12,3.81,3.81,0,0,1,.82,2c.61-.27,1.18-.51,1.72-.71l.92-.31a14.16,14.16,0,0,0,1.83-.71,1.49,1.49,0,0,0,.4-.3c.27-.27.47-.37.61-.31l2.13,2.44v.31a58.08,58.08,0,0,0-7.21,1.93,6.81,6.81,0,0,1,.21,1.72v.71a11.78,11.78,0,0,1-.21,1.73,5.81,5.81,0,0,0-.1.91h-2.54a9.72,9.72,0,0,1,.1-1.11v-2.95a10.09,10.09,0,0,0-2.23,1.32c-1.29.88-1.73,1.83-1.32,2.84s1.42,1.43,3.45,1.43h.41a24.12,24.12,0,0,0,5.08-.71L281,139a27.75,27.75,0,0,1-4.06.31h-1.52a8.8,8.8,0,0,1-4.17-.92,3.76,3.76,0,0,1-2.13-2.94v-.41a6.43,6.43,0,0,1,2.94-4.67,13.09,13.09,0,0,1,2-1.12c.47-.27.84-.47,1.11-.61a2.65,2.65,0,0,0-1.11-2,3.45,3.45,0,0,0-1.93.2c-1.49.75-3.12,2.54-4.88,5.39a4.92,4.92,0,0,0-.41.61l-2.53-1.12a47,47,0,0,0,5.48-9.24h-3l-.71-2.44v-.2a14,14,0,0,0,2.14.2h2.54a2,2,0,0,0,.1-.41,8.08,8.08,0,0,0,.71-3.25Z"/><path d="M298,139.24q-.19-1.11-.51-2.43h5.79c1.56.06,2.37-.41,2.44-1.43a10.41,10.41,0,0,0,.2-2.13H294l.61-3q-2.53,1.32-5.28,2.53c-.34-.87-.71-1.72-1.12-2.53A73.88,73.88,0,0,0,299,125.13H288.74v-2.24h8.43v-2.64h-6.5V118h6.5v-2.54h2.64V118h5.59v2.23h-5.59v2.64h2.64a75.23,75.23,0,0,0,6.91-6.09l2.13,1.62q-2.53,2.34-5.18,4.47h6.5v2.24h-9.65c-.88.61-1.83,1.22-2.84,1.83h10.87v2.23H297.47l-.4,1.93H309c-.07.47-.14,1.18-.2,2.13-.14,1.22-.24,2.07-.31,2.54-.13,2.3-1.56,3.42-4.26,3.35Q303,139.25,298,139.24Z"/><path d="M318.4,124.11h.5a28.38,28.38,0,0,0,5.39-.51,10.52,10.52,0,0,0,3.45-.71,1.16,1.16,0,0,0,.61-.4h.2l2.34,1.42c.13.07.17.2.1.4v.11a16.54,16.54,0,0,0-3.25,3.45l-1.22,1.52h.71a3.15,3.15,0,0,1,1.93.61,4.11,4.11,0,0,1,.71,2,6.52,6.52,0,0,1,.21.92,13.38,13.38,0,0,0,.4,1.83,1.55,1.55,0,0,0,1.42,1.32h1.22a15.19,15.19,0,0,0,3.66-.51v2.74a26.82,26.82,0,0,1-3.25.2H331.4a3.23,3.23,0,0,1-2.85-1.32,8.84,8.84,0,0,1-1-3,1.89,1.89,0,0,0-.1-.51,6.67,6.67,0,0,0-.21-1,1.5,1.5,0,0,0-1.32-.91,2.82,2.82,0,0,0-2.13,1.22,55,55,0,0,0-4.37,5.58h-.2a19.46,19.46,0,0,0-2.54-1.62v-.1a84.24,84.24,0,0,0,7.11-7.82,18.94,18.94,0,0,0,2.44-3.46l-.1-.2a10.63,10.63,0,0,1-3.05.81,13.09,13.09,0,0,0-2.34.61,1,1,0,0,0-.51.21c-.2.2-.37.27-.5.2Zm6.5-8.12h.2a32.19,32.19,0,0,0,5,2.33,1,1,0,0,0,.3.21.73.73,0,0,1,.51.3l-.81,2.13-.31.1a31.9,31.9,0,0,1-6-2.84V118Z"/><path d="M345,118.73h1.42a23.87,23.87,0,0,0,7.51-1,.88.88,0,0,0,.41-.1,1.61,1.61,0,0,1,.61-.2h.1l2.64,2.13v.1a10.3,10.3,0,0,0-2.33,2.24l-1.63,1.93c-.75.81-1.32,1.45-1.73,1.93a10.7,10.7,0,0,0,1.22-.11,10.06,10.06,0,0,1,1.12-.1h.51a7.2,7.2,0,0,1,4.47,1.63,5.63,5.63,0,0,1,1.93,4.37v.3a6.05,6.05,0,0,1-3.05,5,9.16,9.16,0,0,1-5.08,1.52h-.41q-4.67-.41-5-3.45v-.41q.3-2.64,3.45-2.94h.51q2.54,0,5,3.25a4.4,4.4,0,0,0,1.62-3.15v-.51c-.2-1.9-1.46-3-3.76-3.15h-.5a8.67,8.67,0,0,0-6.81,3.56.29.29,0,0,1-.1.2,1.71,1.71,0,0,1-.51.51l-2.44-1.83v-.31a38.33,38.33,0,0,0,8.64-9.44,14,14,0,0,0-5.59,1.22c-.07,0-.14.07-.2.2a.78.78,0,0,1-.71.2L345,118.93Zm6.8,17.37h.51a4.06,4.06,0,0,0,1.32-.21,1.42,1.42,0,0,0-.71-1.11,2.38,2.38,0,0,0-2.44-.82q-.92.51-.51,1.32A2.13,2.13,0,0,0,351.81,136.1Z"/><path d="M384.51,120.66l2.24,2.54v.2a37.26,37.26,0,0,0-9.85,4.16,12.33,12.33,0,0,0-3.15,3.05,3.54,3.54,0,0,0-.61,1.73v.4a3.15,3.15,0,0,0,1.93,2.75,8,8,0,0,0,3.45.61h.71a21,21,0,0,0,5.89-.82l.21,3.05c-1.77.14-3.46.2-5.08.2h-1.53a9.25,9.25,0,0,1-5.38-1.11,5.06,5.06,0,0,1-2.64-4.57v-.51q.1-3.45,4.17-6.3a1,1,0,0,1,.5-.41,40.71,40.71,0,0,0-3.25-8.53l2.75-.5a59.37,59.37,0,0,1,3,7.61l3.66-1.83A12,12,0,0,0,384.51,120.66Z"/><path d="M403,137l-2,2-5.49-6,1.93-1.73Z"/><path d="M422.3,124q-1.83-1.32-3.86-2.54l1.21-1.83c1.15.61,2.48,1.36,4,2.24Zm-1.63,10.56v-2h8.63v-1.42h2.75v1.42h8.83v2h-8.83v2.14h10.86v2.13H418.54v-2.13H429.3v-2.14Zm.61-3.15-2.23-1.21q1.72-2.85,3.25-5.79a13.19,13.19,0,0,0,1.42.71,3.93,3.93,0,0,0,.81.4C423.65,127,422.56,129,421.28,131.42Zm2.94-11.57c-.6-.41-1.49-.95-2.64-1.63a13.26,13.26,0,0,1-1.32-.81l1.32-1.93c1.29.68,2.64,1.46,4.07,2.33Zm.51,11.17q-.51-.92-1.11-1.83a31.5,31.5,0,0,0,5.28-2.74l1.32,1.52Q427.17,129.8,424.73,131Zm4-8.74V121c-.27.14-.71.34-1.32.61a17.49,17.49,0,0,1-1.72.71q-.72-1.11-1.32-2.13a21.07,21.07,0,0,0,8.53-5l2.74.31-.61.61a25.55,25.55,0,0,0,7.92,3.86q-.11.19-.3.51a15.31,15.31,0,0,0-.92,1.72,1.19,1.19,0,0,0-.4-.2,19.85,19.85,0,0,1-2.74-1.22v1.52h-3.66V124h6.6v2h-6.6v2.13q.11,3-2.64,2.85c-.88.07-1.83.1-2.85.1a10.55,10.55,0,0,0-.4-1.93c.81.07,1.55.1,2.23.1a1.08,1.08,0,0,0,1.22-1.22v-2h-7v-2h7v-1.73Zm4.88-4.77a18.76,18.76,0,0,1-4.17,2.95H438A22.12,22.12,0,0,1,433.57,117.51ZM441.29,131a26.85,26.85,0,0,0-3.05-1.63c-.88-.4-1.56-.74-2-1l1.12-1.63a1,1,0,0,0,.4.21,49.81,49.81,0,0,1,4.78,2.23Z"/><path d="M452.36,124.21v.51a6.11,6.11,0,0,0,.4,2.44H453l1-1.63h.31l1.11,1c-.13.27-.3.64-.5,1.12a10,10,0,0,0-1.12,4v.4a14.36,14.36,0,0,1-2.44.21,8.41,8.41,0,0,1-1-2.64,16.49,16.49,0,0,1-.61-4.57v-.82a26.23,26.23,0,0,1,.4-3.75,20.83,20.83,0,0,0,.41-3.36c1,.07,2,.17,2.94.31a19.5,19.5,0,0,0-.5,2.13A24.21,24.21,0,0,0,452.36,124.21Zm7.11-7.11,3.35-.3.2.1a10.57,10.57,0,0,0,.2,3.45,4.16,4.16,0,0,0,.21,1.12,35.67,35.67,0,0,1,.3,3.86V127a14.79,14.79,0,0,1-1.11,6.19,15.33,15.33,0,0,1-4.27,6.2q-.11.19-.3,0l-2.34-1.12-.1-.2a16.43,16.43,0,0,0,3.65-4.37,15,15,0,0,0,1.63-7v-1.93A18.58,18.58,0,0,0,459.47,117.1Z"/><path d="M480.9,128.17c-.41-.33-1.12-.87-2.14-1.62l-1.62-1.32a9,9,0,0,1-3.45,3.25h18.18v11.27h-2.65v-1.22h-13.1v1.22h-2.64V128.58c-.61.27-1.25.58-1.93.91a7.09,7.09,0,0,0-1-1.72,2.93,2.93,0,0,0-.31-.41q4.47-1.73,5.28-3.86h-4.87v-2H476v-1.73h-4.77v-1.93H476l.1-2.33h2.44l-.1,2.33h3.45v1.93h-3.55v1.73h3.76v2h-3.86c1.21.75,2.57,1.66,4.06,2.74,2.37-.87,3.76-1.79,4.16-2.74h-3.35v-2H487V121a4.09,4.09,0,0,0,.1-.81v-.41h-3.76v-1.93h3.76v-2.33h2.44l-.1,2.33h4.67v1.93h-4.67l-.1,1.43v.3h5.28v2h-4.88c.82,1.56,2.57,2.71,5.28,3.46-.4.67-.81,1.42-1.21,2.23q-4.28-1.73-5.59-4.27c-.54,1.16-2.07,2.27-4.57,3.36a15.58,15.58,0,0,0-1.32-2Zm-4.78,2.34v2.13h13.1v-2.13Zm0,4v2.13h13.1v-2.13Z"/><path d="M500.4,124.11h.5a28.38,28.38,0,0,0,5.39-.51,10.52,10.52,0,0,0,3.45-.71,1.16,1.16,0,0,0,.61-.4h.2l2.34,1.42c.13.07.17.2.1.4v.11a16.54,16.54,0,0,0-3.25,3.45l-1.22,1.52h.71a3.15,3.15,0,0,1,1.93.61,4.11,4.11,0,0,1,.71,2,6.52,6.52,0,0,1,.21.92,13.38,13.38,0,0,0,.4,1.83,1.55,1.55,0,0,0,1.42,1.32h1.22a15.19,15.19,0,0,0,3.66-.51v2.74a26.82,26.82,0,0,1-3.25.2H513.4a3.23,3.23,0,0,1-2.85-1.32,8.84,8.84,0,0,1-1-3,1.89,1.89,0,0,0-.1-.51,6.67,6.67,0,0,0-.21-1,1.5,1.5,0,0,0-1.32-.91,2.82,2.82,0,0,0-2.13,1.22,55,55,0,0,0-4.37,5.58h-.2a19.46,19.46,0,0,0-2.54-1.62v-.1a84.24,84.24,0,0,0,7.11-7.82,18.94,18.94,0,0,0,2.44-3.46l-.1-.2a10.63,10.63,0,0,1-3.05.81,13.09,13.09,0,0,0-2.34.61,1,1,0,0,0-.51.21c-.2.2-.37.27-.5.2Zm6.5-8.12h.2a32.19,32.19,0,0,0,5,2.33,1,1,0,0,0,.3.21.73.73,0,0,1,.51.3l-.81,2.13-.31.1a31.9,31.9,0,0,1-6-2.84V118Z"/><path d="M538.28,121.17l1.93,2.13v.2c-1.42.41-2.78.85-4.06,1.32a38.6,38.6,0,0,0-6.3,3.15,8.06,8.06,0,0,0-2.54,2.44,4.42,4.42,0,0,0-.71,2.13v.31a3.11,3.11,0,0,0,2.13,2.64,8.3,8.3,0,0,0,3.25.61h.41a34.44,34.44,0,0,0,4.87-.51,10.87,10.87,0,0,0,1.22-.21l.21,3a39.89,39.89,0,0,1-4.27.2h-2.13a13,13,0,0,1-4.17-.71,6.89,6.89,0,0,1-3.45-2.44,5.32,5.32,0,0,1-.51-2.43v-.41a7.28,7.28,0,0,1,2.24-4.87,13.92,13.92,0,0,1,2.64-2.24,29.76,29.76,0,0,0-3.35-8.33l2.74-.4a45,45,0,0,1,2.94,7.41.41.41,0,0,0,.31-.1,13.6,13.6,0,0,1,3.15-1.22,8.21,8.21,0,0,1,1-.51,9.44,9.44,0,0,0,1.63-.71.29.29,0,0,0,.2-.1A.88.88,0,0,1,538.28,121.17Zm.41-2.14,1.62-.91c.14.2.34.47.61.81a22,22,0,0,1,1.83,2.34l-1.63,1A26.12,26.12,0,0,0,538.69,119Zm2.74-1.82,1.42-.82a10,10,0,0,1,2.44,3.15l-1.42.92c-.28-.41-.68-.95-1.22-1.63S541.7,117.55,541.43,117.21Z"/><path d="M559.91,133.86h2.14a32.5,32.5,0,0,0,7.51-.91v3.25a42.68,42.68,0,0,1-7.82.61h-1.52a11.32,11.32,0,0,1-4.78-.82,12.07,12.07,0,0,1-3.55-2.64v-.3l1.73-1.52c.06-.14.1-.14.1,0a8.08,8.08,0,0,0,2.94,1.93A9.51,9.51,0,0,0,559.91,133.86Zm.51-14.22h.81a23.35,23.35,0,0,0,4.78-.71c-.07,0,0,0,.3-.1v3c-1.42.13-2.81.2-4.16.2h-2.34a39.87,39.87,0,0,1-4.16-.41l-.21-.1-.61-2.84.11-.1c.2.06.47.13.81.2A17.68,17.68,0,0,0,560.42,119.64Z"/><path d="M580,118.73h.61a19,19,0,0,0,3.25-.41c-1,.21-.85.21.31,0a12.09,12.09,0,0,0,4.57-1.11,1.06,1.06,0,0,0,.4-.21,1,1,0,0,1,.51-.2h.3l2.24,1.73v.3a7.49,7.49,0,0,0-2.13,2.23,5,5,0,0,1-.51.72q-1.83,2.23-3.86,4.57l1.12-.31a11.57,11.57,0,0,1,2.94-.51h.41a9.49,9.49,0,0,1,4.57,1.22,5.64,5.64,0,0,1,2.54,4.57v.41a6.66,6.66,0,0,1-3.35,5.79,11.8,11.8,0,0,1-6.1,1.83l-1.12-2.44h.41a10.3,10.3,0,0,0,4.37-.81,4.64,4.64,0,0,0,2.84-4.07v-.4a3.65,3.65,0,0,0-1.22-2.64,4,4,0,0,0-2.94-1h-.51a11,11,0,0,0-6.3,2,31.07,31.07,0,0,0-4.77,4.78l-2.44-2.14a63.54,63.54,0,0,0,4.78-4.57l1.11-1.11a27.45,27.45,0,0,0,5.28-6.91c-.47.14-1.15.3-2,.51-1.28.34-2.23.61-2.84.81a1.15,1.15,0,0,0-.41.2l-.4.21-1.73-2.85Z"/><path d="M600.13,121.47h.61a13.88,13.88,0,0,0,3-.51l1.22-.3c1.28-.34,2.54-.64,3.75-.92q3.36-.81,6.61-1.42a20.57,20.57,0,0,0,4.06-.91,3.17,3.17,0,0,0,.3,1.12,3.46,3.46,0,0,1,.21,1.52l-1.43.3a7.18,7.18,0,0,0-3.45,1.12,8,8,0,0,0-2.94,4.37,14.16,14.16,0,0,0-.61,3.55V130a5.32,5.32,0,0,0,1.52,4,6,6,0,0,0,4,1.53h.51a6.43,6.43,0,0,0,1.62-.21v3.05h-.81a11.9,11.9,0,0,1-6.4-1.73,8,8,0,0,1-3-6.39v-.51a14.38,14.38,0,0,1,3.14-8.33c-2.71.68-5.41,1.42-8.12,2.23a3.11,3.11,0,0,1-.71.21,2.76,2.76,0,0,0-1.42.81l-1.63-2.84Zm18.69,1.42,1.42-1.32c.2.21.47.51.81.92a15.57,15.57,0,0,1,1.63,1.82l-1.42,1.22A17,17,0,0,0,618.82,122.89Zm2.74-2,1.42-1.22a18.14,18.14,0,0,1,2.34,2.64l-1.52,1.22A21.1,21.1,0,0,0,621.56,120.86Z"/><path d="M629.89,116.6h.3l2.75,1a6.66,6.66,0,0,1-.61,1.63l-.31.61a32.71,32.71,0,0,0-1.32,4.36,23,23,0,0,0-.61,4.27v.91a18.76,18.76,0,0,0,.71,4.78H631c.13-.27.33-.65.61-1.12a8.09,8.09,0,0,1,.5-1h.21l.81.82v.2q-.61,2.64-1,5l-2.23.5a17.11,17.11,0,0,1-2.13-8.93v-1.53a22.78,22.78,0,0,1,.81-5.18c.06-.34.2-.84.4-1.52a15.64,15.64,0,0,0,.92-4.37Zm10.87.5,3.55.51c-.14,1.56-.2,3.25-.2,5.08v-.1c1.42-.14,2.84-.34,4.26-.61v2.44c-1.35.27-2.74.47-4.16.61q.1,7.6.1,7.31l2.34.91q.2.21.3.21a13.72,13.72,0,0,1,2.74,1.82l-1.62,1.93h-.31c-.54-.4-1.11-.81-1.72-1.22-.27-.13-.65-.33-1.12-.61l-.71-.4a4.13,4.13,0,0,1-1.12,2,4.88,4.88,0,0,1-3.76,1.52h-.5a6.06,6.06,0,0,1-3.05-.81,3.17,3.17,0,0,1-1.52-2.64v-.41a3.21,3.21,0,0,1,1.52-2.43,5.39,5.39,0,0,1,3.05-.82h.5a14.93,14.93,0,0,1,2.54.21c0-.41,0-1-.1-1.93-.14-1.69-.2-3-.2-3.86v-.61h-2.13c-1.43-.07-2.88-.2-4.37-.41l-.31-2.54a6.88,6.88,0,0,1,1.43.21,38.65,38.65,0,0,0,4.06.3h1.22q-.11-2.64-.21-3.66v-.2A2.87,2.87,0,0,0,640.76,117.1Zm-1.63,16.56h-.51c-1,0-1.66.17-1.93.51-.47.61-.27,1.21.61,1.82a3.76,3.76,0,0,0,3.76-.4,2.05,2.05,0,0,0,.71-1.42A6.75,6.75,0,0,0,639.13,133.66Z"/><path d="M36.29,183.75a3.28,3.28,0,0,1-.51-.91c-.4-.61-.67-1-.81-1.22a18.43,18.43,0,0,0,5.49-6l2.74.4a1.43,1.43,0,0,1-.31.41,13.88,13.88,0,0,1-1.42,2H58.74v2.34H55.89v4h2.64V187H55.89v4.17h3.56v2.23H35.28v-2.23h4V187H36.09v-2.23h3.15v-3.66A34.62,34.62,0,0,1,36.29,183.75Zm1.83,16.15-2.64-.61c1.15-2,2-3.65,2.54-4.87l2.54.51a10,10,0,0,1-.41.91C39.27,197.73,38.59,199.09,38.12,199.9Zm3.45-19.09v4H44v-4Zm0,6.19v4.17H44V187Zm2.14,12.39c-.41-1.35-.85-2.8-1.33-4.36l2.54-.31c.54,1.49,1,2.91,1.43,4.27Zm2.64-18.58v4h2.43v-4Zm0,6.19v4.17h2.43V187Zm3.55,12.19a28.11,28.11,0,0,0-1.22-2.94c-.2-.55-.37-1-.51-1.32l2.54-.41,1.83,4.16Zm1.22-18.38v4h2.54v-4Zm0,6.19v4.17h2.54V187Zm5.59,12.39q-.51-1-1.53-2.64c-.47-.81-.85-1.45-1.12-1.93l2.54-.5a2.43,2.43,0,0,0,.41.5,41.4,41.4,0,0,1,2.34,3.86Z"/><path d="M72.75,183.25h1.53a2.23,2.23,0,0,1,2,.81,3.15,3.15,0,0,1,.61,1.93v.4a22.32,22.32,0,0,1-.92,6q-.81,3.56-2.84,4.57a7,7,0,0,1-3.45.71H69.2c-.21,0-.31,0-.31-.1l-.51-1.12a12.34,12.34,0,0,0-.71-1.42v-.1a8,8,0,0,1,1.12.1,7.61,7.61,0,0,0,1,.1h.4a2.15,2.15,0,0,0,1.93-.92,6.4,6.4,0,0,0,1-1.82.34.34,0,0,0,.1-.21,13.2,13.2,0,0,0,.91-4.87v-.61c-.06-.75-.4-1.15-1-1.22a20,20,0,0,0-2.24.2,7.85,7.85,0,0,1-1.11.1A38.86,38.86,0,0,1,66,194.11,16.85,16.85,0,0,1,63.81,197a2.67,2.67,0,0,1-1.21-.51c-.21-.14-.38-.24-.51-.31a.29.29,0,0,1-.21-.1c-.4-.06-.64-.2-.71-.4a16.91,16.91,0,0,0,4-5.49c.68-1.35,1.33-2.67,1.93-4a7.79,7.79,0,0,0-2.94.81l-.1.11a1.31,1.31,0,0,1-.71.2l-1.43-2.95.11-.2a9.35,9.35,0,0,0,2.84,0,7.61,7.61,0,0,1,1-.1,6.8,6.8,0,0,1,1.93-.31c.13-.4.23-.74.3-1a12.68,12.68,0,0,0,.61-4.06V178a.82.82,0,0,1-.1-.4,9.07,9.07,0,0,0,1.12.2c.94.14,1.69.27,2.23.41a1.54,1.54,0,0,1-.41.91.29.29,0,0,0-.1.2,4.3,4.3,0,0,0-.3,1.43,1.57,1.57,0,0,0-.1.5,5.35,5.35,0,0,1-.21,1.12c-.07.48-.13.85-.2,1.12A11.42,11.42,0,0,1,72.75,183.25Zm5-1.32v-.31a6.45,6.45,0,0,1,.91-.71c.41-.34.71-.57.92-.71s.5.07.91.61a14.82,14.82,0,0,1,1.93,2.13,45.15,45.15,0,0,1,3.15,4.17v.3l-2.44,1.52A41.65,41.65,0,0,0,77.73,181.93Z"/><path d="M102.51,181H103a5.73,5.73,0,0,1,6.09,5.79v.51a5.55,5.55,0,0,1-.91,3.05,9.52,9.52,0,0,1-2.74,2.64,12.63,12.63,0,0,1-6.1,2.13l-1.62-1.93a15,15,0,0,0,6.09-1.93c2-1.22,3-2.67,3-4.37v-.4q-.41-3-4.17-3.46h-.4a9.81,9.81,0,0,0-3.15.51c-.81.27-1.63.58-2.44.91-.27.14-.64.31-1.12.51a29.8,29.8,0,0,0-2.94,1.63c-.07,0-.14.07-.2.2a.8.8,0,0,1-.72.2l-2.13-2.43q2.85-.72,5.59-1.63a1.55,1.55,0,0,0,.4-.1A16.91,16.91,0,0,1,102.51,181Z"/><path d="M122.31,176.44h.21l3,.81v.31a2.42,2.42,0,0,0-1,1.62,10.08,10.08,0,0,0-.61,1.73,4.34,4.34,0,0,1-.2.61l3.35-.61a3.23,3.23,0,0,0,.71-.2l.2.1v2.64c-1.62.27-3.25.47-4.87.61a4,4,0,0,1-.1.51c.06-.14,0-.07-.11.2a58.74,58.74,0,0,1-5.38,13.91l-2.74-.81-.1-.2a82.59,82.59,0,0,0,5.89-13.51,15.06,15.06,0,0,1-2,.1c-.88.07-1.56.1-2,.1l-.21-.1-.4-2.44.1-.2c.27,0,.71,0,1.32.1a10.18,10.18,0,0,0,1.22.1h.81a18.78,18.78,0,0,0,1.93-.1,3.08,3.08,0,0,0,.2-.61,16.11,16.11,0,0,0,.81-4.06ZM136,195.13l-.31,2.84a26.08,26.08,0,0,1-3.35.21h-1a21,21,0,0,1-4.47-.51,2.17,2.17,0,0,1-.4-.1,1.07,1.07,0,0,1-.92-.31l-.1-2.33a8.81,8.81,0,0,0,.92.2,26.82,26.82,0,0,0,4.47.51h.5A21.92,21.92,0,0,0,136,195.13Zm-5.9-9.95h.92c1.08,0,2.23,0,3.45.1l.1,2.74-.1.1a22.21,22.21,0,0,0-4.37-.61h-1a8.23,8.23,0,0,0-2.24.31l.41-2.54h1.32C129.29,185.21,129.79,185.18,130.13,185.18Z"/><path d="M163.45,187.41v.71a9.26,9.26,0,0,1-2.74,6.4,12.75,12.75,0,0,1-5.08,3.66q0,.19-.21,0a9.22,9.22,0,0,0-2.33-1.53v-.2q7.31-3.45,7.41-8.84v-.5a6.61,6.61,0,0,0-2.23-4.68,8.1,8.1,0,0,0-4.27-1.82,56,56,0,0,1-2.23,7.41,47.37,47.37,0,0,1-3.15,6.6c-.88,1.63-2,2.44-3.25,2.44-2-.07-3.73-1.22-5.08-3.45a7.11,7.11,0,0,1-1-3.46v-.51a9.36,9.36,0,0,1,.81-3.35,11.85,11.85,0,0,1,1.83-3,11.45,11.45,0,0,1,5.48-4.17,14.69,14.69,0,0,1,4.67-1h1.12a10.2,10.2,0,0,1,7.41,2.74A9.62,9.62,0,0,1,163.45,187.41ZM142,189.14v.5a5.63,5.63,0,0,0,1,3.15A2.31,2.31,0,0,0,145,194a2.55,2.55,0,0,0,1.73-1.22,17.39,17.39,0,0,0,1-1.83c.13-.33.23-.57.3-.71a33.84,33.84,0,0,0,3.45-9.64,16.14,16.14,0,0,0-3.86,1,13.8,13.8,0,0,0-4.16,3.76A7.9,7.9,0,0,0,142,189.14Z"/><path d="M164.77,181.62h.61a13.81,13.81,0,0,0,3-.51l1.22-.3c1.29-.34,2.54-.64,3.76-.92q3.34-.81,6.6-1.42a20.39,20.39,0,0,0,4.06-.91,3.23,3.23,0,0,0,.31,1.12,3.42,3.42,0,0,1,.2,1.52l-1.42.3a7.14,7.14,0,0,0-3.45,1.12,8,8,0,0,0-2.95,4.37,14.63,14.63,0,0,0-.61,3.55v.61a5.33,5.33,0,0,0,1.53,4,5.94,5.94,0,0,0,4,1.53h.5a6.45,6.45,0,0,0,1.63-.21v3H183a11.87,11.87,0,0,1-6.4-1.73,8,8,0,0,1-3.05-6.39v-.51a14.4,14.4,0,0,1,3.15-8.33q-4.07,1-8.12,2.23a3.24,3.24,0,0,1-.72.21,2.8,2.8,0,0,0-1.42.81l-1.62-2.84ZM183.46,183l1.42-1.32c.2.21.47.51.81.92a16.27,16.27,0,0,1,1.62,1.82l-1.42,1.22A17,17,0,0,0,183.46,183Zm2.74-2,1.42-1.22a18.14,18.14,0,0,1,2.34,2.64l-1.53,1.22A21,21,0,0,0,186.2,181Z"/><path d="M202.85,175.32l3.56.61a9.29,9.29,0,0,0-.51,3.15V180h8.33v2.94a41.19,41.19,0,0,0-7.62-.51h-.71v3.15l.1.1a5.7,5.7,0,0,1,.92,3.46v1.72a12.56,12.56,0,0,1-1,4.27,16.56,16.56,0,0,1-2.23,3.35c-.61.61-1.26,1.22-1.93,1.83h-.21a12.82,12.82,0,0,0-2.94-1.42v-.21A10,10,0,0,0,204,193.5a4.09,4.09,0,0,1-4,0,4.78,4.78,0,0,1-2-4.06v-.51q.51-4.16,4.26-4.67h1.22v-1.83h-1.11a37.87,37.87,0,0,0-8.64,1l-.2-.1-1-2.95.11-.2a10,10,0,0,1,1.11.1,10.18,10.18,0,0,0,1.22.1h1.22c.27,0,.85,0,1.73-.1,2.09-.07,4-.13,5.58-.2-.13-1.56-.3-2.91-.5-4.07A4.12,4.12,0,0,1,202.85,175.32Zm.61,13.61v-1.32c-.07-.67-.34-1.05-.81-1.11a1.38,1.38,0,0,0-1,.4,2.65,2.65,0,0,0-.91,2v.61c.07,1.36.51,2.07,1.32,2.14.47,0,.88-.38,1.22-1.12A3.2,3.2,0,0,0,203.46,188.93Z"/><path d="M223.37,177.56l3.45.81c-.07.2-.17.48-.3.81s-.24.38-.31.51a6.88,6.88,0,0,0-.2,1.12,1.57,1.57,0,0,0-.1.51,9.07,9.07,0,0,0-.2,1.21,4.29,4.29,0,0,0-.21,1,2.58,2.58,0,0,1,.81-.1,5.8,5.8,0,0,1,.82-.1,3.52,3.52,0,0,0,.61-.1h1a4.7,4.7,0,0,1,1.93.4,2.51,2.51,0,0,1,1,2v1.22a26.88,26.88,0,0,1-.92,6.4c-.47,2.3-1.39,3.62-2.74,4a7.42,7.42,0,0,1-3.15.71h-.71c-.2-.47-.47-1.05-.81-1.72a9.84,9.84,0,0,1-.41-.92l.1-.2a4,4,0,0,1,.72.1,6.58,6.58,0,0,0,1.42.2h.4a2.3,2.3,0,0,0,2.14-1.32,16.86,16.86,0,0,0,.91-2.74,24.11,24.11,0,0,0,.61-4.67,1.17,1.17,0,0,0-1.42-1.22,14.32,14.32,0,0,1-1.53.2l-1.52.31a33.2,33.2,0,0,1-5.58,11.27l-.21.1a10.53,10.53,0,0,0-1.62-.71,4,4,0,0,0-.82-.4V196a25.78,25.78,0,0,0,3.66-5.18,22.88,22.88,0,0,0,1.52-3.45,7.75,7.75,0,0,0,.41-.91,27.9,27.9,0,0,0-3.05,1,1.49,1.49,0,0,1-.91.31L217.07,185l.21-.2a2.6,2.6,0,0,1,.6.1,1.61,1.61,0,0,0,.82,0c.47-.07,1.18-.2,2.13-.41s1.52-.33,1.93-.4a1.86,1.86,0,0,1,.1-.61,22.33,22.33,0,0,0,.51-4.77Zm15.54,9.85-.1.2-2.14,1.22a33.21,33.21,0,0,0-5-6.9v-.31l1.93-1.12A29.5,29.5,0,0,1,238.91,187.41Zm.71-6.8v.2l-1.32,1.12h-.2a8,8,0,0,0-2.44-2.65v-.2l1.22-1h.2A21.33,21.33,0,0,1,239.62,180.61Zm-1.42-3.46V177l1.22-1h.2a1.29,1.29,0,0,0,.3.21c.48.4,1,.91,1.63,1.52a1.67,1.67,0,0,1,.61,1l-1.22,1.11h-.2A10.78,10.78,0,0,0,238.2,177.15Z"/><path d="M253.63,197.16l-2,2-5.48-6,1.93-1.73Z"/><path d="M269.38,179.69v-2.44h7.82v2.44h-2.54v5.89h2.44V188h-2.44v6c.4-.06,1.08-.2,2-.4a6.55,6.55,0,0,0,.81-.21V196c-.4.07-1.05.21-1.93.41-2.57.47-4.64.91-6.19,1.32l-.41-2.54,1.63-.3,1.52-.31V188h-2.64v-2.44h2.64v-5.89Zm19.29,19.7q-3,.11-2.94-2.74v-4.37h-2l-.1.82q0,4.77-6.2,6.8a4.55,4.55,0,0,0-.41-.61,16.09,16.09,0,0,0-1.21-1.62c3.51-.88,5.28-2.4,5.28-4.57v-.82h-2.95V176.64h13.81v15.64h-3.65v3.86c-.07.61.3.88,1.11.82h.72c.67.06,1-.27,1.11-1a18,18,0,0,0,.21-1.93c.06-.54.1-.91.1-1.12l2.13.82a20.42,20.42,0,0,1-.51,3.25,2.6,2.6,0,0,1-2.84,2.43Zm-7.92-20.61v2.43h8.53v-2.43Zm0,4.47v2.43h8.53v-2.43Zm0,4.46v2.44h8.53v-2.44Z"/><path d="M318.23,185.48c-1.22-.54-2.34-1-3.35-1.52v1.93h-6.1v2.74h8.64v2.44h-8.64v5.68h10.16V199H295.78v-2.24h10.16v-5.68h-8.63v-2.44h8.63v-2.74h-6.3v-1.73c-.95.47-2,1-3.15,1.52-.13-.2-.3-.47-.5-.81q-.72-1.11-1-1.62,8.43-3.25,11.58-7.93l3.15.31-.61.81a21,21,0,0,0,10.56,6.4c-.14.27-.37.71-.71,1.32S318.36,185.21,318.23,185.48Zm-16.76,11q-.81-1-3.05-3.66l2-1.32c.74.81,1.69,1.9,2.84,3.25-.14-.13,0,0,.3.41Zm6.09-18.08a26.25,26.25,0,0,1-6.6,5.18h13A24.22,24.22,0,0,1,307.56,178.37ZM313,196.45l-2-1.32a1.52,1.52,0,0,0,.2-.31c1.35-1.48,2.34-2.6,2.94-3.35l2.24,1.22Q315,194.22,313,196.45Z"/><path d="M323.1,184.16l-1.82-1.93a29.19,29.19,0,0,0,7.41-6.91l3.15.31a12.08,12.08,0,0,1-1.42,1.73H340v2l-2.33,2.33h5.28v13.41H324V183.45ZM322.7,200l-1.22-2.43a81.66,81.66,0,0,0,8.83-2.14l1.12,1.93Q327.58,198.68,322.7,200Zm13.91-20.51h-8.12a24.42,24.42,0,0,1-2.34,2.23h8.33Zm-9.95,4.37v1.92h13.61v-1.92Zm0,3.65v1.93h13.61v-1.93Zm0,3.56V193h13.61v-1.93Zm17.26,8.83q-4.37-1.43-8.63-2.64l.92-1.83q5.18,1.13,8.73,2Z"/><path d="M347.28,182.53V180.1h2.94v-4.37H353v4.37h2.54v2.43H353v4.68c.82-.21,1.69-.41,2.64-.61v2.54l-2.64.71v6.8q.1,2.74-2.94,2.95a17.71,17.71,0,0,0-2.14.1c-.06-.27-.13-.68-.2-1.22s-.24-1.15-.3-1.42h1.52c1,.06,1.39-.31,1.32-1.12v-5.28l-2.94.71-.21-2.84a7.07,7.07,0,0,1,.81-.21c.41-.06,1.19-.23,2.34-.5v-5.29Zm7.41,16.25v-2.33h16.86v2.33Zm2-5.68V177h13.41V193.1Zm2.74-13.61v4.26h8v-4.26Zm0,6.7v4.47h8v-4.47Z"/><path d="M385.36,177.05q7.32.1,7.42,10.77t-7.42,10.66q-7.31-.1-7.41-10.66Q378.15,177.35,385.36,177.05Zm0,19.2q4.17.09,4.17-8.33c.06-5.76-1.32-8.57-4.17-8.43s-4.16,2.81-4.16,8.43S382.58,196.25,385.36,196.25Z"/><path d="M400.39,199.6V176.85h21.94v18.89q.1,3.56-3.66,3.65c-.95.07-2.27.11-4,.11a10.41,10.41,0,0,0-.61-2.54h3.56c1.35.06,2-.54,1.83-1.83v-5.38H403.13v9.85Zm2.74-20.21v7.72h6.81v-7.72Zm16.36,0h-6.81v7.72h6.81Z"/><path d="M424.77,181.62h.61a13.81,13.81,0,0,0,3-.51l1.22-.3c1.29-.34,2.54-.64,3.76-.92q3.35-.81,6.6-1.42a20.39,20.39,0,0,0,4.06-.91,3.23,3.23,0,0,0,.31,1.12,3.42,3.42,0,0,1,.2,1.52l-1.42.3a7.14,7.14,0,0,0-3.45,1.12,8,8,0,0,0-2.95,4.37,14.63,14.63,0,0,0-.61,3.55v.61a5.33,5.33,0,0,0,1.53,4,5.94,5.94,0,0,0,4,1.53h.5a6.45,6.45,0,0,0,1.63-.21v3H443a11.87,11.87,0,0,1-6.4-1.73,8,8,0,0,1-3.05-6.39v-.51a14.4,14.4,0,0,1,3.15-8.33q-4.06,1-8.12,2.23a3.24,3.24,0,0,1-.72.21,2.8,2.8,0,0,0-1.42.81l-1.62-2.84ZM443.46,183l1.42-1.32c.2.21.47.51.81.92a16.27,16.27,0,0,1,1.62,1.82l-1.42,1.22A17,17,0,0,0,443.46,183Zm2.74-2,1.42-1.22a18.14,18.14,0,0,1,2.34,2.64l-1.53,1.22A21,21,0,0,0,446.2,181Z"/><path d="M450.77,181.62h.61a13.81,13.81,0,0,0,3-.51l1.22-.3c1.29-.34,2.54-.64,3.76-.92q3.35-.81,6.6-1.42a20.39,20.39,0,0,0,4.06-.91,3.23,3.23,0,0,0,.31,1.12,3.42,3.42,0,0,1,.2,1.52l-1.42.3a7.14,7.14,0,0,0-3.45,1.12,8,8,0,0,0-2.95,4.37,14.63,14.63,0,0,0-.61,3.55v.61a5.33,5.33,0,0,0,1.53,4,5.94,5.94,0,0,0,4,1.53h.5a6.45,6.45,0,0,0,1.63-.21v3H469a11.87,11.87,0,0,1-6.4-1.73,8,8,0,0,1-3.05-6.39v-.51a14.4,14.4,0,0,1,3.15-8.33q-4.06,1-8.12,2.23a3.24,3.24,0,0,1-.72.21,2.8,2.8,0,0,0-1.42.81l-1.62-2.84ZM469.46,183l1.42-1.32c.2.21.47.51.81.92a16.27,16.27,0,0,1,1.62,1.82l-1.42,1.22A17,17,0,0,0,469.46,183Zm2.74-2,1.42-1.22a18.14,18.14,0,0,1,2.34,2.64l-1.53,1.22A21,21,0,0,0,472.2,181Z"/><path d="M493.42,178.07h.21a7.09,7.09,0,0,1,.91,2.13,10.41,10.41,0,0,1-2.44,1l-.81.31a11.22,11.22,0,0,1,.81,1.42,13.08,13.08,0,0,1,.71,1.42c.41-.13,1-.37,1.83-.71l1.83-.61h.31l.91,1.83-.1.31c-.27.06-.65.17-1.12.3s-1,.34-1.22.41a4.14,4.14,0,0,1-1.32.4,2.7,2.7,0,0,1,.31.61,42.91,42.91,0,0,0,2.84,4,.29.29,0,0,0,.1.21,1.52,1.52,0,0,1,.41.81L495.35,194a14.49,14.49,0,0,0-8.12-2.13h-.61a4.93,4.93,0,0,0-2.13.4,1.89,1.89,0,0,0-.92,2.24c.07.27.44.64,1.12,1.12a5.13,5.13,0,0,0,2.34.81,15.67,15.67,0,0,0,3,.3h.51a7.17,7.17,0,0,0,1.22-.1l-.2,2.85h-.72Q481.44,199,481,194v-.51a4,4,0,0,1,2-2.94,9.42,9.42,0,0,1,4.07-.92h1a17.57,17.57,0,0,1,5.08.92h.1c-.13-.2-.34-.54-.61-1s-.64-1.32-1.32-2.54a10.57,10.57,0,0,1-2.13.41,51.14,51.14,0,0,1-5.59.51l-.2-.1-1.22-1.93.1-.21h.71a32.64,32.64,0,0,0,5.79-.5,4.44,4.44,0,0,0,1.43-.21L489,182.13a32,32,0,0,1-4.37.91,5.76,5.76,0,0,0-.61-.91,4.92,4.92,0,0,1-.41-.61,1.45,1.45,0,0,1-.4-.71h.3c1.35-.2,2.81-.47,4.37-.81a7,7,0,0,0-.51-1.22l-.61-1.22a.61.61,0,0,0-.2-.41,2.58,2.58,0,0,1-.1-.61l2.74-.51c.4,1.16.81,2.24,1.22,3.25A27.46,27.46,0,0,0,493.42,178.07Z"/><path d="M507.64,178.88h1.42a23.93,23.93,0,0,0,7.52-1,.91.91,0,0,0,.41-.1,1.61,1.61,0,0,1,.61-.2h.1l2.64,2.13v.1A10.55,10.55,0,0,0,518,182L516.38,184c-.75.81-1.32,1.45-1.73,1.93a10.7,10.7,0,0,0,1.22-.11,9.68,9.68,0,0,1,1.12-.1h.5a7.2,7.2,0,0,1,4.47,1.63,5.6,5.6,0,0,1,1.93,4.37v.3a6,6,0,0,1-3,5,9.16,9.16,0,0,1-5.08,1.52h-.41q-4.67-.4-5-3.45v-.41q.31-2.64,3.46-2.94h.51q2.53,0,5,3.25a4.38,4.38,0,0,0,1.63-3.15v-.51q-.32-2.85-3.76-3.15h-.51a8.65,8.65,0,0,0-6.8,3.56.34.34,0,0,1-.1.2,2,2,0,0,1-.51.51l-2.44-1.83v-.31a38.48,38.48,0,0,0,8.63-9.44,14,14,0,0,0-5.58,1.22c-.07,0-.14.07-.21.2a.78.78,0,0,1-.71.2l-1.32-3.35Zm6.81,17.37H515a4.06,4.06,0,0,0,1.32-.21,1.4,1.4,0,0,0-.72-1.11,2.37,2.37,0,0,0-2.43-.82q-.92.51-.51,1.32A2.13,2.13,0,0,0,514.45,196.25Z"/><path d="M547.15,180.81l2.23,2.54v.2a37.4,37.4,0,0,0-9.85,4.16,12.33,12.33,0,0,0-3.15,3,3.61,3.61,0,0,0-.6,1.73v.4a3.13,3.13,0,0,0,1.93,2.75,8,8,0,0,0,3.45.61h.71a21.05,21.05,0,0,0,5.89-.82l.2,3c-1.76.14-3.45.2-5.08.2h-1.52a9.25,9.25,0,0,1-5.38-1.11,5,5,0,0,1-2.64-4.57v-.51q.09-3.45,4.16-6.3a1.05,1.05,0,0,1,.51-.41,41.28,41.28,0,0,0-3.25-8.53l2.74-.5a59.26,59.26,0,0,1,3,7.61l3.66-1.83A12,12,0,0,0,547.15,180.81Z"/><path d="M556.09,180l.1-.11q1.83.31,3.45.72a2.52,2.52,0,0,1-.2.71,4.07,4.07,0,0,0-.2,1.11,6.13,6.13,0,0,0-.11,1.22v.71a19,19,0,0,0,.41,4.27,36.53,36.53,0,0,0,1.42,4.06c.48,1.09,1,1.63,1.73,1.63a2.41,2.41,0,0,0,1.52-.71,8.72,8.72,0,0,0,1.63-1.93h.2l1.22,1.82c.13.07.13.17,0,.31a4.52,4.52,0,0,1-1.42,1.83,4.8,4.8,0,0,1-3.35,1.42q-2.44,0-3.86-3.15a19.2,19.2,0,0,1-.71-2,6.77,6.77,0,0,0-.41-1.32,53.41,53.41,0,0,1-.91-5.69,8.18,8.18,0,0,0-.11-1,5.3,5.3,0,0,0-.2-.92c0-.34,0-.84-.1-1.52A8.42,8.42,0,0,0,556.09,180Zm15.13,2.64,2.34-.71h.2a34.84,34.84,0,0,1,4,6.6,6.53,6.53,0,0,1,.91,2.23l-2.43,1.12h-.41a28.11,28.11,0,0,0-4.67-8.94Z"/><path d="M586.35,184.87h.71a9.65,9.65,0,0,0,2.85-.61c.88-.2,1.76-.44,2.64-.71a10.15,10.15,0,0,1,3.25-.51h.3a3.81,3.81,0,0,1,3.36,1.83,5.83,5.83,0,0,1,.91,3.35v.92q-.11,6.3-5.59,11a.69.69,0,0,0-.3.1,1,1,0,0,1-.31.1h-.1l-.1-.1a18.71,18.71,0,0,0-2-1.53v-.2a11.8,11.8,0,0,0,5.69-9.85v-.51c-.07-1.76-.82-2.67-2.24-2.74H595a6.94,6.94,0,0,0-2.64.81.76.76,0,0,1-.31.1,9.89,9.89,0,0,0-2.74,1.42l-.2.21c-.28.2-.48.27-.61.2l-2.14-2.94Zm4.27-6.5,1-2.44h.11a32.6,32.6,0,0,0,7.11,2.14l.1.1a6.32,6.32,0,0,0-.21.91,17.17,17.17,0,0,0-.4,1.73l-.1.1a7.11,7.11,0,0,1-1.93-.41.34.34,0,0,0-.21-.1c-1-.27-2.3-.67-4.06-1.22l-1.32-.5Z"/><path d="M607.17,179.39v-1.83h10.77v-2h2.74v2h10.87v1.83H620.68v1.42h8.13v4.87h-8.13v1.43h8.63v3.25h2.34v1.82h-2.34v4.68h-2.53v-1.33h-6.1V196c.14,2.3-1,3.46-3.35,3.46-.75.06-2.07.1-4,.1a14.78,14.78,0,0,0-.51-2.24h3.35c1.29.14,1.86-.4,1.73-1.62v-.21H608.6v-1.62h9.34v-1.73H607.17v-1.82h10.77v-1.63H608.7v-1.62h9.24v-1.43h-8.13v-4.87h8.13v-1.42Zm5.29,3v1.63h5.48v-1.63Zm13.81,0h-5.59v1.63h5.59Zm.51,6.3h-6.1v1.63h6.1Zm-6.1,3.45v1.73h6.1v-1.73Z"/><path d="M642.62,175.93H643l2.94.82v.2a1.62,1.62,0,0,0-.51.81l-.3.61c-.27.88-.51,1.8-.71,2.74a1,1,0,0,1-.1.31,4.42,4.42,0,0,1-.21.51h1.93a10.11,10.11,0,0,0,1.73-.21,3.25,3.25,0,0,1,.61-.1l-.51,2.54a.4.4,0,0,1-.3.1h-4c-.06.48-.13,1.12-.2,1.93s-.24,1.69-.3,2.24a17.09,17.09,0,0,0,4.87.1v.4l-.4,2a.42.42,0,0,1-.31.11h-2.13c-.75,0-1.53,0-2.34-.11v.72a2.81,2.81,0,0,0-.1.71v1a3.77,3.77,0,0,0,1,2.64,3.63,3.63,0,0,0,2.33.92h.61a4.37,4.37,0,0,0,3-1,4.2,4.2,0,0,0,1-2.74v-.41q0-1.72-1.93-4.77a2.65,2.65,0,0,0-.3-.51l2.94-.2a8.77,8.77,0,0,1,2.24,5.69v.5a5.91,5.91,0,0,1-2.13,4.47A6.28,6.28,0,0,1,647,199.5h-.61a6.37,6.37,0,0,1-4.37-1.73c-1.08-.88-1.63-2.4-1.63-4.57v-1a12.6,12.6,0,0,1,.11-1.62,14.45,14.45,0,0,0-1.63-.51,10.76,10.76,0,0,0-1.73-.51l.21-2.54a14.05,14.05,0,0,0,3.45,1v-.51a12.44,12.44,0,0,0,.41-1.83l.3-1.72c-.81-.21-1.56-.41-2.23-.61s-.81-.17-.81-.31l.2-2.54a20.51,20.51,0,0,0,3.15.92c.06-.21.16-.58.3-1.12a8.66,8.66,0,0,1,.2-1,4.41,4.41,0,0,1,.11-.71,13,13,0,0,0,.2-1.93Z"/><path d="M664.05,181h1.52c.34,0,.88,0,1.63-.1H668a1.67,1.67,0,0,1,.1-.51,23.09,23.09,0,0,0,.2-2.64,6,6,0,0,0-.1-1h.51a13,13,0,0,1,1.42.1,10.18,10.18,0,0,0,1.22.1,1.5,1.5,0,0,1-.2,1,1,1,0,0,0-.2.51,4.11,4.11,0,0,1-.21,1,7.11,7.11,0,0,1-.2,1.12,3.48,3.48,0,0,0,1.12-.21,28.3,28.3,0,0,0,4.57-1v2.54c-1.83.4-3.7.77-5.59,1.11h-.51c-.07.68-.13,1.49-.2,2.44a17.79,17.79,0,0,1,3.15-.61,1.59,1.59,0,0,1,.1-.41v-.6c-.07-.14,0-.27.2-.41l2.44.41.1.2-.1.1a6.93,6.93,0,0,0-.3.81,6.69,6.69,0,0,1,4.06,1.53,7.49,7.49,0,0,1,2.33,5v.71q-.09,3.66-4,6.1a4.93,4.93,0,0,1-2.43,1h-.11a10.66,10.66,0,0,0-2.23-1.93,7.94,7.94,0,0,0,4.37-1.62,5.27,5.27,0,0,0,1.93-3.76v-.3a5,5,0,0,0-2.14-4,4.22,4.22,0,0,0-1.11-.4H676a3.63,3.63,0,0,0-1.11-.31,23.89,23.89,0,0,1-4.37,7.42,15.81,15.81,0,0,0,.71,1.83c-.2.06-.54.2-1,.4a2.93,2.93,0,0,1-1.11.31c-.21,0-.38-.21-.51-.61a2.11,2.11,0,0,1-1.12.61,6.16,6.16,0,0,1-3.76,1.52h-.4c-1.56-.07-2.41-1.22-2.54-3.45v-.41a9.48,9.48,0,0,1,2.94-6,13.31,13.31,0,0,1,3.76-2.34c0-.4,0-1,.1-1.93a5.25,5.25,0,0,1,.11-1h-1.53c-.74.07-1.32.1-1.72.1h-1.53c-.2,0-.3,0-.3-.1a2.77,2.77,0,0,1-.61-1.42v-.11c-.21-.4-.24-.71-.1-.91C662.66,181,663.37,181,664.05,181Zm3.86,13-.1-.3a41.23,41.23,0,0,1-.31-5.08,9,9,0,0,0-3.76,3.86,3.64,3.64,0,0,0-.61,2c.07,1,.51,1.52,1.33,1.52a4,4,0,0,0,2.53-1.11A5.72,5.72,0,0,1,667.91,194Zm2-6.5V190a6.22,6.22,0,0,0,.1,1.83,17.3,17.3,0,0,0,2.64-4.88c-1.15.21-2,.38-2.44.51A.39.39,0,0,1,669.94,187.51Z"/><path d="M693,184.36v.51a6.1,6.1,0,0,0,.41,2.44h.2l1-1.63h.3l1.12,1c-.14.27-.3.64-.51,1.12a10.14,10.14,0,0,0-1.11,4v.4a14.45,14.45,0,0,1-2.44.21,8.15,8.15,0,0,1-1-2.64,16.88,16.88,0,0,1-.61-4.57v-.82a26.61,26.61,0,0,1,.41-3.75,20.83,20.83,0,0,0,.41-3.36c1,.07,2,.17,2.94.31q-.3,1-.51,2.13A25,25,0,0,0,693,184.36Zm7.11-7.11,3.36-.3.2.1a10.57,10.57,0,0,0,.2,3.45,4.49,4.49,0,0,0,.2,1.12,33.74,33.74,0,0,1,.31,3.86v1.63a14.8,14.8,0,0,1-1.12,6.19,15.22,15.22,0,0,1-4.26,6.2c-.07.13-.17.13-.31,0l-2.33-1.12-.11-.2a16.3,16.3,0,0,0,3.66-4.37,15.12,15.12,0,0,0,1.63-7v-1.93A18.41,18.41,0,0,0,700.1,177.25Z"/><path d="M30.61,249.27v-2.44h3.25v-4.78H36.4v4.78h3v2.44h-3v3.65l.71-.71a41.87,41.87,0,0,1,3.15,3l-1.63,1.83a1.13,1.13,0,0,0-.41-.41c-.74-.88-1.35-1.56-1.82-2v11.68H33.86V254.55a26.83,26.83,0,0,1-2.95,5.89c-.07-.54-.24-1.39-.51-2.54a5.83,5.83,0,0,0-.2-1,25.29,25.29,0,0,0,3.56-7.61Zm10,17.06V243.48h13.2v22.85H51.22V264.7H43.1v1.63Zm2.54-20.42v4h8.12v-4Zm0,6.3v4h8.12v-4Zm0,6.3v4h8.12v-4Z"/><path d="M56.3,247.23V244.9h3.86l-1-2.54,2.43-.41c.21.55.58,1.46,1.12,2.75a.26.26,0,0,1,.1.2h2.74v2.33Zm.71,3.86V249h7.93v2.13Zm0,4v-2.13h7.93v2.13Zm.11,11.07v-9.34h7.71V266H62.6V264.7H59.45v1.42Zm2.33-7.1v3.65H62.6V259Zm7.21,7.31c-.07-.14-.2-.37-.4-.71-.48-.75-.85-1.29-1.12-1.63q6-2.43,6.5-6.4c.13-1,.27-2.54.4-4.57h2.44a27.48,27.48,0,0,1-.2,3.46,9.89,9.89,0,0,0,6.7,7.21c-.68,1.08-1.15,1.89-1.42,2.43q-4.87-2.43-6.3-6.19Q72.35,263.7,66.66,266.33Zm12.6-12.39q-3.57-2.53-6.1-4.07c-.81,1.43-2.81,2.88-6,4.37A21.26,21.26,0,0,0,65.75,252q5.79-2.34,6.09-5.49a24.59,24.59,0,0,0,.31-4.47h2.54a26.83,26.83,0,0,1-.41,4.68l-.2,1c.47.27,1.15.68,2,1.22q3.14,1.83,4.67,2.84Zm-10.67,5.68A39.56,39.56,0,0,0,66.05,256L68,254.85a1.18,1.18,0,0,1,.21.31,31.07,31.07,0,0,1,2.43,3.14Zm.31-11.27c-.34-.47-1-1.28-1.83-2.44l-.92-1.21L68,243.48a2.67,2.67,0,0,1,.31.4c1.28,1.49,2.13,2.54,2.54,3.15Zm8.32,0-1.93-1.42a32.88,32.88,0,0,0,3-3.45l1.93,1.32c-.61.81-1.52,1.89-2.74,3.25Zm0,11.27L75.4,258.2a1.18,1.18,0,0,0,.2-.3,35.74,35.74,0,0,0,2.74-3.15l1.93,1.42c-.47.61-1.22,1.46-2.23,2.54A8,8,0,0,0,77.22,259.62Z"/><path d="M91.54,242.36l3.25.81v.2l-.71.82c-.06.2-.2.54-.4,1a3.8,3.8,0,0,1-.41,1.12,17.23,17.23,0,0,0,4.06-1v2.75a29.14,29.14,0,0,1-5,.81,17.5,17.5,0,0,1-1.53,2.94,7.72,7.72,0,0,1,2.85-.81h.4a4.2,4.2,0,0,1,1,.21l.2.1a3.53,3.53,0,0,1,1.22,1.11,3.79,3.79,0,0,1,.81,2c.61-.27,1.19-.51,1.73-.72l.91-.3a14.46,14.46,0,0,0,1.83-.71,1.58,1.58,0,0,0,.41-.31c.27-.27.47-.37.61-.3l2.13,2.44v.3a61.8,61.8,0,0,0-7.21,1.93,7.39,7.39,0,0,1,.2,1.73v.71a13.06,13.06,0,0,1-.2,1.73,5.69,5.69,0,0,0-.1.91H95.1a8.1,8.1,0,0,1,.1-1.12V257.8A9.86,9.86,0,0,0,93,259.12c-1.29.88-1.73,1.83-1.32,2.84s1.42,1.42,3.45,1.42h.41a22.8,22.8,0,0,0,5.07-.71l.31,2.95a27.84,27.84,0,0,1-4.06.3H95.3a8.78,8.78,0,0,1-4.16-.91A3.73,3.73,0,0,1,89,262.06v-.4A6.44,6.44,0,0,1,92,257a13,13,0,0,1,2-1.11c.47-.27.85-.48,1.12-.61a2.66,2.66,0,0,0-1.12-2,3.37,3.37,0,0,0-1.93.2q-2.23,1.13-4.87,5.38a4.55,4.55,0,0,0-.41.61l-2.54-1.12a46.64,46.64,0,0,0,5.49-9.24h-3l-.71-2.44v-.2a12.59,12.59,0,0,0,2.13.2h2.54a1.46,1.46,0,0,0,.1-.4,8,8,0,0,0,.71-3.25Z"/><path d="M113.18,243.17h.2l3.25.61a13.5,13.5,0,0,1-.3,1.32v14a4.66,4.66,0,0,0,.61,2.74,2.76,2.76,0,0,0,2.13,1h.61a3.78,3.78,0,0,0,1.72-.4,10.25,10.25,0,0,0,2.34-1.12,11.06,11.06,0,0,0,2.84-2.54h.21l1.22,2.34c.13.14.13.2,0,.2a12.6,12.6,0,0,1-4.27,3,9.18,9.18,0,0,1-4.47,1.12H119a5.88,5.88,0,0,1-3.35-1,4,4,0,0,1-2-2.95c-.06-.94-.1-1.93-.1-2.94V245.3a5.89,5.89,0,0,0-.2-1.21A5.91,5.91,0,0,1,113.18,243.17Z"/><path d="M136,248.05h.3l8.84-1.83q5.79-1.22,8.73-1.73c1-.2,2-.37,3-.51l.2,3h-.61c-3.11,0-5.45.85-7,2.54a9.65,9.65,0,0,0-2.64,6.8v.41a5.35,5.35,0,0,0,1.42,4,5.56,5.56,0,0,0,4.47,1.42h1.72v3.05H153a9.48,9.48,0,0,1-6.4-2.24,8,8,0,0,1-2.13-5.89v-1a12.49,12.49,0,0,1,3.25-7.92c-.88.2-2.24.54-4.06,1-.88.21-1.56.38-2,.51l-.92.3a12.06,12.06,0,0,0-3,1.12Z"/><path d="M160.51,260.23v-.4a7.79,7.79,0,0,1,1-3.25,8.38,8.38,0,0,1,1.83-2.13,9,9,0,0,1,5.79-2.14h.2a3.59,3.59,0,0,0,.71-1.22c.82-1.42,1.66-2.84,2.54-4.26l-.2-.21a9.91,9.91,0,0,0-4.88,1.73l-.5-1c-.21-.41-.61-1.12-1.22-2.14l.1-.1h1.22a15.38,15.38,0,0,0,2.84-.4,4.41,4.41,0,0,1,.71-.11,16.45,16.45,0,0,0,3.15-.91h.2l2.64,2.54c.07.27-.1.51-.5.71l-.11.1a12,12,0,0,0-1.72,1.42c-.2.27-.48.68-.81,1.22a4.55,4.55,0,0,0-.41.61,4,4,0,0,1-.41.61,15.64,15.64,0,0,1-.91,1.73c.74.13,1.49.3,2.23.5a23.13,23.13,0,0,1,2.75,1.12c.61.27,1,.48,1.32.61a23,23,0,0,0,.61-4.37v-.81h.2l2.74.81v.21a18.46,18.46,0,0,0-1.22,4.16.26.26,0,0,1-.1.2,2.37,2.37,0,0,1-.3.92,27.26,27.26,0,0,1,4.67,3.25l-1.22,2.33h-.2c-1.16-1-2.34-2-3.56-2.94a1.25,1.25,0,0,0-.51-.31,25.34,25.34,0,0,1-1.32,2.54,14.28,14.28,0,0,1-5,4.68h-.21a10.34,10.34,0,0,0-2.13-1.63v-.1a14.34,14.34,0,0,0,4.77-3.45,8.68,8.68,0,0,0,1.93-3.15c0-.07,0-.1-.1-.1a20.29,20.29,0,0,0-6.5-2.44c-.34.68-.85,1.62-1.52,2.84-.48.81-.81,1.42-1,1.83-1.62,2.84-3.35,4.1-5.18,3.76A3,3,0,0,1,160.51,260.23Zm3.14-2.94a4.63,4.63,0,0,1-.3.51,2.79,2.79,0,0,0-.61,1c-.27,1.22,0,1.87.91,1.93a2,2,0,0,0,1.22-.61.34.34,0,0,1,.1-.2,6.32,6.32,0,0,0,1-1.32,29.55,29.55,0,0,0,2.13-4.06A7.31,7.31,0,0,0,163.65,257.29Z"/><path d="M198,243l3.15.3.1.1a4.83,4.83,0,0,0-.4.82,1,1,0,0,1-.21.4V245c-.07.54-.13,1.15-.2,1.83.74-.07,1.79-.21,3.15-.41a9.44,9.44,0,0,0,1.32-.2l-.2,2.33a24.61,24.61,0,0,1-4.27.51,9.06,9.06,0,0,1,.1,1.63c.07.68.1,1.22.1,1.62h.21a19.82,19.82,0,0,0,4.46-.71l-.4,2.34a17.57,17.57,0,0,1-4.06.71c.06,1.56.16,3.18.3,4.87a18.07,18.07,0,0,1,5.69,3.15l-1.22,1.83a16.69,16.69,0,0,0-4.37-2.34,3.26,3.26,0,0,1-2,2.95,6.62,6.62,0,0,1-3.15.61h-.91a5.08,5.08,0,0,1-3.76-1.32,2.83,2.83,0,0,1-.81-3.35,4.09,4.09,0,0,1,1.93-1.63,10.46,10.46,0,0,1,3.45-.61h1a8.39,8.39,0,0,1,1.52.21c-.41-.14-.34-.14.2,0,0-.61-.07-1.53-.2-2.75a13,13,0,0,1-.1-1.42h-2.13a32.06,32.06,0,0,1-3.66-.2l-.2-.1-.51-2.24v-.2a10,10,0,0,0,1,.2,17.86,17.86,0,0,0,2.85.31h2.54c0-1,0-2.2-.1-3.56h-.61c-1.77,0-3.46-.06-5.08-.2l-.21-.1-.6-2.34a15.2,15.2,0,0,1,2,.2,23.28,23.28,0,0,0,2.54.21h1.93v-1.12A22,22,0,0,0,198,243Zm-2.23,17.77h-.61c-1.56.14-2.37.71-2.44,1.73.07.4.41.71,1,.91a11.85,11.85,0,0,0,1.52.1h.61a4.31,4.31,0,0,0,2.23-.4,2,2,0,0,0,.71-1.63v-.4a10,10,0,0,1-1-.1A16.1,16.1,0,0,0,195.75,260.74Z"/><path d="M217.18,243.17h.2l3.25.61a13.5,13.5,0,0,1-.3,1.32v14a4.66,4.66,0,0,0,.61,2.74,2.76,2.76,0,0,0,2.13,1h.61a3.78,3.78,0,0,0,1.72-.4,10.25,10.25,0,0,0,2.34-1.12,11.06,11.06,0,0,0,2.84-2.54h.21l1.22,2.34c.13.14.13.2,0,.2a12.6,12.6,0,0,1-4.27,3,9.18,9.18,0,0,1-4.47,1.12H223a5.88,5.88,0,0,1-3.35-1,4,4,0,0,1-2-2.95c-.06-.94-.1-1.93-.1-2.94V245.3a5.89,5.89,0,0,0-.2-1.21A5.91,5.91,0,0,1,217.18,243.17Z"/><path d="M247.54,242.87h.21l3,.81v.3a2.47,2.47,0,0,0-1,1.63,9.77,9.77,0,0,0-.61,1.73,4.34,4.34,0,0,1-.2.61l3.35-.61a3.11,3.11,0,0,0,.71-.21l.2.1v2.64c-1.62.28-3.25.48-4.87.61a4,4,0,0,1-.1.51,2.23,2.23,0,1,0-.11.21,58.91,58.91,0,0,1-5.38,13.91L240,264.3l-.1-.21a82.49,82.49,0,0,0,5.89-13.5,16.94,16.94,0,0,1-2,.1c-.88.07-1.56.1-2,.1l-.21-.1-.4-2.44.1-.2a12.75,12.75,0,0,1,1.32.1,10.18,10.18,0,0,0,1.22.1h.81a18.78,18.78,0,0,0,1.93-.1,3.33,3.33,0,0,0,.2-.61,16.11,16.11,0,0,0,.81-4.06Zm13.72,18.68L261,264.4a28,28,0,0,1-3.35.2h-1a20.84,20.84,0,0,1-4.46-.51,1.5,1.5,0,0,1-.41-.1c-.48,0-.78-.1-.92-.3l-.1-2.34a5.53,5.53,0,0,0,.92.2,26.82,26.82,0,0,0,4.47.51h.5A21.92,21.92,0,0,0,261.26,261.55Zm-5.89-10h.91c1.08,0,2.23,0,3.45.1l.1,2.75-.1.1a22.23,22.23,0,0,0-4.36-.61h-1a8.49,8.49,0,0,0-2.23.3l.4-2.54h1.32C254.52,251.64,255,251.6,255.37,251.6Z"/><path d="M267.35,261.86a4.07,4.07,0,0,1,4.16-4.16c2.51.2,3.86,1.59,4.07,4.16-.28,2.3-1.63,3.59-4.07,3.86Q267.76,265.42,267.35,261.86Zm1.62,0a2.4,2.4,0,0,0,2.54,2.23,2.35,2.35,0,0,0,2.44-2.23,2.48,2.48,0,0,0-2.44-2.54A2.52,2.52,0,0,0,269,261.86Z"/><path d="M307.06,243.17l3.15,1.53v.2a4.55,4.55,0,0,0-1.42,1.42.29.29,0,0,0-.1.2,4.1,4.1,0,0,1-.31.51c-.88,1.29-1.59,2.27-2.13,2.95a3.31,3.31,0,0,1-.81.91,7.25,7.25,0,0,1-.51.61l2.13-.3q1.43-.1,2.13-.21a7.76,7.76,0,0,0,1-.1,15.2,15.2,0,0,1,2-.2h.51v2.74h-.92a12.5,12.5,0,0,0-4.57,1.22,8.89,8.89,0,0,0-3,2.44c-1,1.21-1.26,2.27-.92,3.14a4.35,4.35,0,0,0,3.05,2.44,18.6,18.6,0,0,0,3.45.51q-.1.3-.3,1c-.21.81-.38,1.38-.51,1.72h-.41a9.76,9.76,0,0,1-2.33-.4,2.82,2.82,0,0,0-.61-.11l-.61-.3c-.41-.2-1-.54-1.93-1a5.13,5.13,0,0,1-2.54-4.26v-.51a5.36,5.36,0,0,1,1.83-3.76,9.62,9.62,0,0,1,2.23-1.83,33.41,33.41,0,0,0-8.43,2.44,1,1,0,0,1-.4.2,3.44,3.44,0,0,1-1.63.61q-.3,0-.81-.81a.26.26,0,0,1-.1-.2,1.08,1.08,0,0,1-.21-.41,8.48,8.48,0,0,1-.6-1.83,6.83,6.83,0,0,0,3.65-.2,1.5,1.5,0,0,1,.41-.1c.34-.07.88-.2,1.62-.41l2.14-.61h.2a.93.93,0,0,1,.3-.1,14.83,14.83,0,0,0,2.14-2.13,19.74,19.74,0,0,0,3.86-7Zm-6,5.49-.1.2L298.63,250l-.2-.11a3.59,3.59,0,0,1-.21-.5A32.66,32.66,0,0,0,296,245.3c.13-.06.37-.2.71-.4a6.12,6.12,0,0,1,1.73-.71A30.5,30.5,0,0,1,301.07,248.66Z"/><path d="M322.8,245.1v-.51a6.26,6.26,0,0,0-.2-1.42,26.93,26.93,0,0,0,3.45.2v.31a3.44,3.44,0,0,0-.61,1.12.73.73,0,0,0-.1.3c-.27,1.09-.47,2.1-.61,3.05.07,0,.1,0,.1-.1l1.83,1.42c.07.14,0,.3-.2.51a.26.26,0,0,0-.2.1,3,3,0,0,0-.51.81c-.27.34-.48.61-.61.81.34-.27.84-.71,1.52-1.32,2.17-2.16,4.06-3.21,5.69-3.15h.41a3.79,3.79,0,0,1,1.72.41,2.46,2.46,0,0,1,1.12,1.83v.4a48.38,48.38,0,0,1-.51,5.79c-.2,1.29-.34,2.24-.4,2.85a3.92,3.92,0,0,0,.1,2.13q.4.92,1.62.51a5.78,5.78,0,0,0,2.34-1.53l.4-.4.11-.1c.33-.54.67-.82,1-.82l.81,2.75a19.46,19.46,0,0,1-2.64,2.33,5.56,5.56,0,0,1-2.84,1h-.41a3.94,3.94,0,0,1-2.33-1.12,5.58,5.58,0,0,1-.71-3v-.4a36.4,36.4,0,0,1,.5-5,10.76,10.76,0,0,1,.21-1.32,4.07,4.07,0,0,1,.1-.71,7.38,7.38,0,0,0,.2-1.42V251c-.13-.81-.81-1.15-2-1a9.09,9.09,0,0,0-2.54,1.62l-.2.2a28.85,28.85,0,0,0-3.35,3,3.65,3.65,0,0,0-.51.71l-.61.61V257q0,1.63.3,5c.14,1.56.21,2.74.21,3.56h-2.95v-3.86c0-.88,0-1.73.1-2.54a35.14,35.14,0,0,0-3,4.26h-.21l-2.23-1.32v-.2q5.28-5.69,6.19-10.06l-1.42.61a10.71,10.71,0,0,0-3.15,1.53l-1.42-3.05.1-.2a15.62,15.62,0,0,0,6-1.22c.06-.34.13-.85.2-1.52a13.17,13.17,0,0,0,.1-1.43,4.07,4.07,0,0,1,.1-.71Z"/><path d="M345.45,244,349,245.1a5.74,5.74,0,0,1-.51,1.32c-.14.34-.24.61-.31.81a20.57,20.57,0,0,0-1.62,8v.81a9.62,9.62,0,0,0,1,4.67h.11c.13-.27.3-.64.5-1.12a7.16,7.16,0,0,0,.51-1l1.12.2c-.07.34-.17.81-.31,1.42a16.44,16.44,0,0,0-.5,3.25v.61l-2.44.51a9.25,9.25,0,0,1-1.83-4,21.77,21.77,0,0,1-.51-5.18v-1.12a26.85,26.85,0,0,1,.81-6.5,14.61,14.61,0,0,0,.41-3.35Zm12.8,16.25h.91a21.46,21.46,0,0,0,5.69-.81l.1,2.74a13.93,13.93,0,0,1-4.67.71h-1.12q-4.77,0-7.21-2.23a2.63,2.63,0,0,1-.81-1.22L353,258.3A6.92,6.92,0,0,0,358.25,260.23Zm.1-14h1.12a39.46,39.46,0,0,1,4,.2v2.64c-.48,0-1.12,0-1.93-.1s-1.42-.1-1.83-.1h-1.12a20.49,20.49,0,0,0-2.84.3,15.8,15.8,0,0,1-2.64.31l-.2-2.74a18.33,18.33,0,0,0,2.33-.21A25.08,25.08,0,0,1,358.35,246.22Z"/><path d="M369.83,266.33c-.82-.95-1.46-1.66-1.93-2.13q3.86-4.47,3.86-14.73V249h-3.05v-2.54h3.15v-4.37h2.64v4.37h5.58q0,10-.3,15.64,0,3.56-3.25,3.56c-.61.06-1.63.1-3,.1a22.92,22.92,0,0,0-.51-2.64h2.34a1.61,1.61,0,0,0,1.93-1.83q.19-5.9.2-12.29h-3v.61Q374.29,261.56,369.83,266.33Zm12.49-.61v-21h9.55v21h-2.65v-2.34h-4.36v2.34Zm2.54-18.49V261h4.36V247.23Z"/><path d="M398.26,250.69h.51a28.27,28.27,0,0,0,5.38-.51,11.07,11.07,0,0,0,3.46-.71,1.16,1.16,0,0,0,.61-.41h.2l2.34,1.42c.13.07.16.21.1.41v.1a16.14,16.14,0,0,0-3.25,3.46c-.55.67-.95,1.18-1.22,1.52h.71a3.11,3.11,0,0,1,1.93.61,4.13,4.13,0,0,1,.71,2,6.58,6.58,0,0,1,.2.91,12.44,12.44,0,0,0,.41,1.83,1.54,1.54,0,0,0,1.42,1.32H413a15.26,15.26,0,0,0,3.66-.51v2.75a29.3,29.3,0,0,1-3.25.2h-2.14a3.22,3.22,0,0,1-2.84-1.32,8.67,8.67,0,0,1-1-3.05,1.67,1.67,0,0,0-.1-.51,6.5,6.5,0,0,0-.2-1,1.51,1.51,0,0,0-1.32-.92,2.82,2.82,0,0,0-2.13,1.22,52.68,52.68,0,0,0-4.37,5.59h-.2a21.44,21.44,0,0,0-2.54-1.63v-.1a83,83,0,0,0,7.11-7.82,18,18,0,0,0,2.43-3.45l-.1-.2a10.55,10.55,0,0,1-3,.81,11.37,11.37,0,0,0-2.34.61,1,1,0,0,0-.51.2c-.2.2-.37.27-.51.2Zm6.5-8.13H405a33,33,0,0,0,5,2.34,1,1,0,0,0,.31.2.74.74,0,0,1,.51.31l-.82,2.13-.3.1a31.9,31.9,0,0,1-6-2.84v-.21C404,244,404.36,243.31,404.76,242.56Z"/><path d="M420.3,256.48v-2.24h3.46l.91-5.79H442l-.31,5.79h3.15v2.24h-3.25l-.2,3.65h2.64v2.24h-2.85c-.06,2.43-1.49,3.65-4.26,3.65a18.35,18.35,0,0,1-2.84,0h-1.63l-.51-2.13h4.17c1.42,0,2.2-.51,2.33-1.52h-16l.91-5.89ZM422,251a20.33,20.33,0,0,0-1.42-2.33,18.41,18.41,0,0,0,5.38-6.81l2.95.2a15.06,15.06,0,0,1-1.12,2h16.45v2.33H426.4A44.66,44.66,0,0,1,422,251Zm4,5.49-.51,3.65h5.18l.41-3.65Zm1-5.79-.61,3.55h5l.41-3.55Zm11.68,9.44.2-3.65h-5.18l-.41,3.65Zm.6-9.44h-4.87l-.41,3.55h5.08a10.82,10.82,0,0,0,.1-1.72C439.26,251.7,439.29,251.09,439.29,250.69Z"/><path d="M449.25,266.43l-1.12-1.12c-.54-.47-.95-.85-1.22-1.11a9.82,9.82,0,0,0,2.74-4.68,29.17,29.17,0,0,0,.72-7.61v-8.74h17.46v18.49c.07,2.64-1.25,4-4,4.16-.88.07-2.3.1-4.26.1-.07-.4-.21-1.08-.41-2a3.92,3.92,0,0,0-.2-.71c1,.07,2.3.1,3.86.1s2.2-.61,2.13-2v-2.64H452.8A15.93,15.93,0,0,1,449.25,266.43Zm3.86-14.32c0,1.49,0,2.84-.1,4.06h12v-4.06Zm0-6.4v4H465v-4Z"/><path d="M496.68,253.84v.71a9.28,9.28,0,0,1-2.74,6.4,12.63,12.63,0,0,1-5.08,3.65q0,.21-.21,0a8.93,8.93,0,0,0-2.33-1.52v-.21q7.31-3.45,7.41-8.83v-.51a6.6,6.6,0,0,0-2.23-4.67,8,8,0,0,0-4.27-1.83,56.63,56.63,0,0,1-2.23,7.42,47.37,47.37,0,0,1-3.15,6.6c-.88,1.62-2,2.43-3.25,2.43-2-.06-3.73-1.21-5.08-3.45a7.11,7.11,0,0,1-1-3.45v-.51a9.48,9.48,0,0,1,.81-3.35,12.12,12.12,0,0,1,1.83-3.05,11.49,11.49,0,0,1,5.48-4.16,14.53,14.53,0,0,1,4.67-1h1.12a10.24,10.24,0,0,1,7.41,2.74A9.64,9.64,0,0,1,496.68,253.84Zm-21.43,1.72v.51a5.67,5.67,0,0,0,1,3.15,2.33,2.33,0,0,0,1.93,1.22,2.62,2.62,0,0,0,1.73-1.22,19.76,19.76,0,0,0,1-1.83c.13-.34.23-.57.3-.71a34,34,0,0,0,3.45-9.65,15.69,15.69,0,0,0-3.86,1,13.89,13.89,0,0,0-4.16,3.75A7.94,7.94,0,0,0,475.25,255.56Z"/><path d="M521.36,266q-7.51-1.51-10.67-3.25a53.57,53.57,0,0,1-11,3.66c-.34-.75-.77-1.63-1.32-2.64a34.31,34.31,0,0,0,9.75-2.74,19,19,0,0,1-5.58-7.42h-2V251.2h8.73v-3.46H498.71V245.3h10.56V242h2.85v3.35h10.25v2.44H512.12v3.46h7.1v2.53a20.39,20.39,0,0,1-6.09,7.32,28.73,28.73,0,0,0,9.65,2.43,6.73,6.73,0,0,0-.51,1A6.89,6.89,0,0,0,521.36,266Zm-5.18-12.39H505.41a15.81,15.81,0,0,0,5.28,6A16.25,16.25,0,0,0,516.18,253.63Z"/><path d="M524.61,249.16v-2.43h3.45v-4.68h2.74v4.68h3.35v2.43H530.8v4.47l3.05-.71v2.74l-3.05.71v6.4c.07,1.9-.95,2.91-3,3.05a23.91,23.91,0,0,1-2.54.1c-.14-.81-.31-1.66-.51-2.54h1.93c1,0,1.49-.47,1.42-1.42v-5l-3.55.82L524.2,255l3.86-.81v-5Zm9.24,15.34-1.32-2.13a8,8,0,0,0,1.83-2.85,154.34,154.34,0,0,0,5.38-17.26l3,.51a177.56,177.56,0,0,1-6.4,18.89c.88-.07,2.23-.14,4.06-.21l4.27-.3q-1.53-4.36-3.15-8.33l2.64-.81c2.16,5.55,3.76,9.88,4.77,13l-2.64.81-.81-2.34c-3.19.07-6.23.27-9.14.61A9.17,9.17,0,0,0,533.85,264.5Z"/><path d="M551.32,246.42l.1-.1c1.22.2,2.37.44,3.45.71a2.44,2.44,0,0,1-.2.71,4.2,4.2,0,0,0-.2,1.12,6.19,6.19,0,0,0-.1,1.22v.71a19,19,0,0,0,.4,4.26,36.7,36.7,0,0,0,1.42,4.07c.48,1.08,1,1.62,1.73,1.62a2.36,2.36,0,0,0,1.52-.71,8.5,8.5,0,0,0,1.63-1.93h.2l1.22,1.83q.19.1,0,.3a4.52,4.52,0,0,1-1.42,1.83,4.8,4.8,0,0,1-3.35,1.42c-1.63,0-2.92-1-3.86-3.14a19.53,19.53,0,0,1-.71-2,7.27,7.27,0,0,0-.41-1.32,53.23,53.23,0,0,1-.91-5.68,8.29,8.29,0,0,0-.11-1,5.15,5.15,0,0,0-.2-.91c0-.34,0-.85-.1-1.53A8.42,8.42,0,0,0,551.32,246.42Zm15.13,2.64,2.34-.71h.2a34.84,34.84,0,0,1,4,6.6,6.85,6.85,0,0,1,.92,2.24l-2.44,1.11H571a28.06,28.06,0,0,0-4.67-8.93Z"/><path d="M585.85,242.36h.41l2.94.81v.2a1.61,1.61,0,0,0-.51.82c-.13.27-.24.47-.3.61-.27.88-.51,1.79-.71,2.74a.86.86,0,0,1-.1.3,3.3,3.3,0,0,1-.21.51h1.93a9.89,9.89,0,0,0,1.73-.2,2.58,2.58,0,0,1,.61-.1l-.51,2.54a.45.45,0,0,1-.3.1h-4c-.07.47-.14,1.11-.21,1.93s-.24,1.69-.3,2.23a16.73,16.73,0,0,0,4.87.1v.41l-.4,2a.41.41,0,0,1-.31.1h-2.13c-.75,0-1.52,0-2.34-.1v.71a2.87,2.87,0,0,0-.1.71v1a3.8,3.8,0,0,0,1,2.64,3.62,3.62,0,0,0,2.33.91h.61a4.32,4.32,0,0,0,3-1,4.23,4.23,0,0,0,1-2.75v-.4q0-1.73-1.93-4.77a2.65,2.65,0,0,0-.3-.51l2.94-.21a8.81,8.81,0,0,1,2.24,5.69v.51a5.91,5.91,0,0,1-2.13,4.47,6.32,6.32,0,0,1-4.47,1.52h-.61a6.38,6.38,0,0,1-4.37-1.72q-1.62-1.32-1.62-4.58v-1a12.85,12.85,0,0,1,.1-1.63c-.34-.13-.88-.3-1.63-.5a11,11,0,0,0-1.72-.51l.2-2.54a15,15,0,0,0,3.45,1v-.51a13.1,13.1,0,0,0,.41-1.83l.3-1.73c-.81-.2-1.56-.4-2.23-.61s-.81-.16-.81-.3l.2-2.54a19.38,19.38,0,0,0,3.15.91q.09-.3.3-1.11a7.86,7.86,0,0,1,.2-1,4.41,4.41,0,0,1,.11-.71,13.09,13.09,0,0,0,.2-1.93Z"/><path d="M605.45,254q-1.62-1.83-3.15-3.45l1.93-1.53,1.22,1.22a29.94,29.94,0,0,1,2.13,2.13Zm-.61,12-2.44-.81q.92-2.74,2.34-8.43a6.82,6.82,0,0,1,.2-.81c.27.07.68.2,1.22.4a7.88,7.88,0,0,1,1.12.41c-.2.81-.54,2.1-1,3.86C605.65,262.94,605.18,264.74,604.84,266Zm1.53-18.38c-.55-.61-1.29-1.45-2.24-2.54-.47-.47-.85-.84-1.12-1.12l2-1.52,1.73,1.73c.75.81,1.32,1.42,1.73,1.83Zm11.07,18.59c-.28-.27-.78-.71-1.53-1.32.54.4.44.3-.3-.31a23.88,23.88,0,0,0,2.33-2.23h-5.58v-8.13h5.79v7.92a27.22,27.22,0,0,0,1.93-2.64,67,67,0,0,1-1-10.25v-1.12h-7.72v4.77a35.22,35.22,0,0,1-.61,7.52,18.26,18.26,0,0,1-2.44,5.79,23.76,23.76,0,0,1-2-1.63,17,17,0,0,0,2.14-5.18,33.62,33.62,0,0,0,.5-6.6v-6.91H619v-3.86h2.44v3.86h2.84c-.34-.47-1-1.32-2.13-2.54l1.52-.91a24.6,24.6,0,0,1,2.24,2.34l-1.53,1.11h2.44v2.24H621.5v.91c.06,1.42.17,3.22.3,5.39.07.81.1,1.42.1,1.82a44,44,0,0,0,2.34-6l2.13.92a41.6,41.6,0,0,1-3.86,8.73c.21.68.41,1.39.61,2.13s.68,1.22,1,1.22.54-.17.61-.71a7.92,7.92,0,0,1,.1-1c.13-1.21.24-2.09.3-2.64a13.38,13.38,0,0,0,1.83.71c-.13,1.36-.3,2.68-.51,4-.34,1.62-1.08,2.43-2.23,2.43q-2.34,0-3.35-3.45c-.07,0-.1,0-.1-.1A39.87,39.87,0,0,1,617.44,266.23Zm-5.29-14v-2.13h6.2v2.13Zm2.14,4.06v4.07h2v-4.07Z"/><path d="M643.74,247.44h.51a5.73,5.73,0,0,1,6.09,5.79v.5a5.52,5.52,0,0,1-.91,3,9.52,9.52,0,0,1-2.74,2.64,12.43,12.43,0,0,1-6.1,2.13L639,259.62a15,15,0,0,0,6.09-1.92q3-1.83,3.05-4.37v-.41q-.4-2.94-4.17-3.45h-.4a9.81,9.81,0,0,0-3.15.51c-.81.27-1.63.57-2.44.91-.27.14-.64.31-1.12.51a32.56,32.56,0,0,0-2.94,1.62c-.07,0-.14.07-.2.21a.8.8,0,0,1-.72.2L630.84,251q2.85-.7,5.59-1.62a2.17,2.17,0,0,0,.4-.1A16.75,16.75,0,0,1,643.74,247.44Z"/><path d="M663.54,242.87h.21l3,.81v.3a2.47,2.47,0,0,0-1,1.63,9.77,9.77,0,0,0-.61,1.73,4.34,4.34,0,0,1-.2.61l3.35-.61a3.11,3.11,0,0,0,.71-.21l.2.1v2.64c-1.62.28-3.25.48-4.87.61a4,4,0,0,1-.1.51,2.23,2.23,0,1,0-.11.21,58.91,58.91,0,0,1-5.38,13.91L656,264.3l-.1-.21a82.49,82.49,0,0,0,5.89-13.5,16.94,16.94,0,0,1-2,.1c-.88.07-1.56.1-2,.1l-.21-.1-.4-2.44.1-.2a12.75,12.75,0,0,1,1.32.1,10.18,10.18,0,0,0,1.22.1h.81a18.78,18.78,0,0,0,1.93-.1,3.33,3.33,0,0,0,.2-.61,16.11,16.11,0,0,0,.81-4.06Zm13.72,18.68L677,264.4a28,28,0,0,1-3.35.2h-1a20.84,20.84,0,0,1-4.46-.51,1.5,1.5,0,0,1-.41-.1c-.48,0-.78-.1-.92-.3l-.1-2.34a5.53,5.53,0,0,0,.92.2,26.82,26.82,0,0,0,4.47.51h.5A21.92,21.92,0,0,0,677.26,261.55Zm-5.89-10h.91c1.08,0,2.23,0,3.45.1l.1,2.75-.1.1a22.23,22.23,0,0,0-4.36-.61h-1a8.49,8.49,0,0,0-2.23.3l.4-2.54h1.32C670.52,251.64,671,251.6,671.37,251.6Z"/><path d="M704.68,253.84v.71a9.28,9.28,0,0,1-2.74,6.4,12.63,12.63,0,0,1-5.08,3.65q0,.21-.21,0a8.93,8.93,0,0,0-2.33-1.52v-.21q7.3-3.45,7.41-8.83v-.51a6.6,6.6,0,0,0-2.23-4.67,8,8,0,0,0-4.27-1.83,56.63,56.63,0,0,1-2.23,7.42,47.37,47.37,0,0,1-3.15,6.6c-.88,1.62-2,2.43-3.25,2.43-2-.06-3.73-1.21-5.08-3.45a7.11,7.11,0,0,1-1-3.45v-.51a9.48,9.48,0,0,1,.81-3.35,12.12,12.12,0,0,1,1.83-3.05,11.49,11.49,0,0,1,5.48-4.16,14.53,14.53,0,0,1,4.67-1h1.12a10.24,10.24,0,0,1,7.41,2.74A9.64,9.64,0,0,1,704.68,253.84Zm-21.43,1.72v.51a5.67,5.67,0,0,0,1,3.15,2.33,2.33,0,0,0,1.93,1.22,2.62,2.62,0,0,0,1.73-1.22,19.76,19.76,0,0,0,1-1.83c.13-.34.23-.57.3-.71a34,34,0,0,0,3.45-9.65,15.69,15.69,0,0,0-3.86,1,13.89,13.89,0,0,0-4.16,3.75A7.94,7.94,0,0,0,683.25,255.56Z"/><path d="M706,248.05h.61a13.81,13.81,0,0,0,3-.51l1.22-.31c1.29-.33,2.54-.64,3.76-.91,2.24-.54,4.43-1,6.6-1.42a20.26,20.26,0,0,0,4.06-.92,3.12,3.12,0,0,0,.31,1.12,3.45,3.45,0,0,1,.2,1.52l-1.42.31a7,7,0,0,0-3.45,1.12,8,8,0,0,0-2.95,4.36,14.7,14.7,0,0,0-.61,3.56v.61a5.36,5.36,0,0,0,1.53,4,5.88,5.88,0,0,0,4,1.52h.51a6.42,6.42,0,0,0,1.62-.2v3.05h-.81a12,12,0,0,1-6.4-1.73,8,8,0,0,1-3-6.4v-.51a14.38,14.38,0,0,1,3.15-8.32c-2.71.67-5.42,1.42-8.12,2.23a2.85,2.85,0,0,1-.72.2,2.88,2.88,0,0,0-1.42.82L706,248.35Zm18.69,1.42,1.42-1.32c.2.2.47.51.81.91a17.13,17.13,0,0,1,1.62,1.83l-1.42,1.22A16.56,16.56,0,0,0,724.69,249.47Zm2.74-2,1.42-1.22a17.15,17.15,0,0,1,2.34,2.64l-1.53,1.22A21,21,0,0,0,727.43,247.44Z"/><path d="M285.17,304.11l2.24,2.54v.21a36.61,36.61,0,0,0-9.85,4.16,12.17,12.17,0,0,0-3.15,3.05,3.47,3.47,0,0,0-.61,1.72v.41a3.14,3.14,0,0,0,1.93,2.74,7.81,7.81,0,0,0,3.45.61h.71a21.37,21.37,0,0,0,5.89-.81l.21,3.05c-1.77.13-3.46.2-5.08.2h-1.53a9.32,9.32,0,0,1-5.38-1.12,5.06,5.06,0,0,1-2.64-4.57v-.51q.11-3.45,4.17-6.29a.94.94,0,0,1,.5-.41,40.51,40.51,0,0,0-3.25-8.53l2.75-.51a59,59,0,0,1,3,7.62l3.66-1.83A12,12,0,0,0,285.17,304.11Z"/><path d="M294.82,304.93h.31L304,303.1q5.79-1.22,8.74-1.73c1-.2,2-.37,3-.51l.21,2.95h-.61c-3.12,0-5.45.85-7,2.54a9.63,9.63,0,0,0-2.64,6.8v.41a5.35,5.35,0,0,0,1.42,4,5.56,5.56,0,0,0,4.47,1.42h1.73V322h-1.53a9.48,9.48,0,0,1-6.4-2.24,8,8,0,0,1-2.13-5.89v-1a12.49,12.49,0,0,1,3.25-7.92c-.88.2-2.23.54-4.06,1-.88.2-1.56.37-2,.51l-.92.3a11.46,11.46,0,0,0-3,1.12Z"/><path d="M328.64,299.24h.41l2.94.81v.2a1.54,1.54,0,0,0-.5.82l-.31.61c-.27.88-.51,1.79-.71,2.74a.69.69,0,0,1-.1.3,5,5,0,0,1-.2.51h1.93a10.88,10.88,0,0,0,1.72-.2,2.58,2.58,0,0,1,.61-.1l-.51,2.53a.39.39,0,0,1-.3.11h-4c-.07.47-.14,1.11-.21,1.93s-.23,1.69-.3,2.23a16.8,16.8,0,0,0,4.88.1v.41l-.41,2a.41.41,0,0,1-.31.1h-2.13c-.74,0-1.52,0-2.33-.1V315a2.93,2.93,0,0,0-.11.71v1a3.8,3.8,0,0,0,1,2.64,3.62,3.62,0,0,0,2.34.91h.6a4.32,4.32,0,0,0,2.95-1,4.19,4.19,0,0,0,1-2.75v-.4c0-1.15-.65-2.74-1.93-4.78a2.1,2.1,0,0,0-.31-.5l2.95-.21a8.84,8.84,0,0,1,2.23,5.69v.51a5.91,5.91,0,0,1-2.13,4.47A6.32,6.32,0,0,1,333,322.8h-.61a6.41,6.41,0,0,1-4.37-1.73c-1.08-.87-1.62-2.4-1.62-4.57v-1a12.85,12.85,0,0,1,.1-1.63c-.34-.13-.88-.3-1.63-.5a11,11,0,0,0-1.72-.51l.2-2.54a14.62,14.62,0,0,0,3.45,1v-.5a13.1,13.1,0,0,0,.41-1.83c.14-.75.24-1.32.31-1.73-.82-.2-1.56-.4-2.24-.61-.54-.06-.81-.17-.81-.3l.2-2.54a20.44,20.44,0,0,0,3.15.91q.1-.3.3-1.11a6.16,6.16,0,0,1,.21-1,4.07,4.07,0,0,1,.1-.71,13.09,13.09,0,0,0,.2-1.93Z"/><path d="M345.3,321.38l-.31-2.54h.82a5.69,5.69,0,0,1,.91-.1V300.25h9.34v17.57l1.32-.2v1.22q2.24-3.15,2.44-11.27a3.25,3.25,0,0,1,.1-.61v-.51h-2.64v-2.54h2.64L360,299h2.64c-.07,1.15-.11,2.77-.11,4.87h6q-.21,11.58-.41,15.34-.11,3.24-3.25,3.35c-.54.06-1.69.1-3.45.1-.14-.81-.31-1.66-.51-2.54,1.08.07,2,.1,2.84.1a1.63,1.63,0,0,0,1.83-1.72v-.82c.2-4.94.31-8.7.31-11.27h-3.46v.61a2.58,2.58,0,0,0-.1.61q.11,11.07-5.08,15.54c-.13-.14-.34-.38-.61-.71-.47-.55-.88-1-1.22-1.43l.92-.81Q352,320.47,345.3,321.38Zm3.86-18.89v3.86h4.37v-3.86Zm0,6v3.76h4.37v-3.76Zm0,9.95h.3c1.29-.06,2.64-.2,4.07-.4v-3.66h-4.37Z"/><path d="M382.78,306.55h1.52a2.23,2.23,0,0,1,2,.81,3.13,3.13,0,0,1,.61,1.93v.41a22.55,22.55,0,0,1-.91,6c-.55,2.37-1.49,3.9-2.85,4.57a6.94,6.94,0,0,1-3.45.71h-.51c-.2,0-.3,0-.3-.1-.14-.27-.31-.64-.51-1.12a14.22,14.22,0,0,0-.71-1.42v-.1a9.72,9.72,0,0,1,1.11.1,7.92,7.92,0,0,0,1,.1h.41a2.15,2.15,0,0,0,1.93-.91,6.45,6.45,0,0,0,1-1.83.26.26,0,0,0,.1-.2,13.26,13.26,0,0,0,.92-4.88V310c-.07-.74-.41-1.15-1-1.21a17.72,17.72,0,0,0-2.23.2,8.1,8.1,0,0,1-1.12.1,38.6,38.6,0,0,1-3.86,8.33,17.69,17.69,0,0,1-2.13,2.84,2.69,2.69,0,0,1-1.22-.51,5.42,5.42,0,0,0-.51-.3.26.26,0,0,1-.2-.1c-.41-.07-.65-.21-.71-.41a16.75,16.75,0,0,0,4-5.48c.67-1.36,1.32-2.68,1.93-4a7.61,7.61,0,0,0-2.95.81l-.1.1a1.21,1.21,0,0,1-.71.2l-1.42-2.94.1-.21a9.36,9.36,0,0,0,2.84,0c.48-.06.82-.1,1-.1a6.78,6.78,0,0,1,1.93-.3c.13-.41.24-.75.3-1a12.68,12.68,0,0,0,.61-4.06v-.71a.88.88,0,0,1-.1-.41,11,11,0,0,0,1.12.21c.95.13,1.69.27,2.23.4a1.54,1.54,0,0,1-.4.92.29.29,0,0,0-.11.2,4.8,4.8,0,0,0-.3,1.42,1.57,1.57,0,0,0-.1.51,6,6,0,0,1-.2,1.12,11.25,11.25,0,0,1-.21,1.11A12.54,12.54,0,0,1,382.78,306.55Zm5-1.32v-.3a6,6,0,0,1,.92-.72c.4-.33.71-.57.91-.71s.51.07.91.61a14.4,14.4,0,0,1,1.93,2.14,45,45,0,0,1,3.15,4.16v.3l-2.44,1.53A41.26,41.26,0,0,0,387.75,305.23Z"/><path d="M405,307.67v.51a6.09,6.09,0,0,0,.4,2.43h.21l1-1.62H407l1.11,1c-.13.28-.3.65-.5,1.12a10.1,10.1,0,0,0-1.12,4v.41a14.34,14.34,0,0,1-2.44.2,8.41,8.41,0,0,1-1-2.64,16.39,16.39,0,0,1-.61-4.57v-.81a26.33,26.33,0,0,1,.4-3.76,20.86,20.86,0,0,0,.41-3.35c1,.07,2,.17,2.94.3a19.15,19.15,0,0,0-.5,2.14A24.11,24.11,0,0,0,405,307.67Zm7.11-7.11,3.35-.31.2.11a10.58,10.58,0,0,0,.2,3.45,4.29,4.29,0,0,0,.21,1.12,35.67,35.67,0,0,1,.3,3.86v1.62a14.84,14.84,0,0,1-1.11,6.2A15.29,15.29,0,0,1,411,322.8c-.07.14-.17.14-.31,0l-2.33-1.12-.1-.2a16.28,16.28,0,0,0,3.65-4.37,14.92,14.92,0,0,0,1.63-7v-1.93A18.58,18.58,0,0,0,412.13,300.56Z"/><path d="M434.78,299.85l3.14.3.11.1a4.15,4.15,0,0,0-.41.82,1.19,1.19,0,0,1-.2.4v.41q-.1.81-.21,1.83c.75-.07,1.8-.21,3.15-.41a11.26,11.26,0,0,0,1.32-.2l-.2,2.33a24.61,24.61,0,0,1-4.27.51,9.06,9.06,0,0,1,.1,1.63c.07.67.11,1.22.11,1.62h.2a19.82,19.82,0,0,0,4.47-.71l-.41,2.34a17.48,17.48,0,0,1-4.06.71c.07,1.56.17,3.18.3,4.87a18,18,0,0,1,5.69,3.15l-1.22,1.83A16.6,16.6,0,0,0,438,319a3.27,3.27,0,0,1-2,2.95,6.7,6.7,0,0,1-3.14.61h-.92a5.1,5.1,0,0,1-3.76-1.32,2.85,2.85,0,0,1-.81-3.35,4.09,4.09,0,0,1,1.93-1.63,10.21,10.21,0,0,1,3.45-.61h1a8.89,8.89,0,0,1,1.52.2c-.4-.13-.34-.13.21,0a26.51,26.51,0,0,0-.21-2.74,13,13,0,0,1-.1-1.42h-2.13a34.53,34.53,0,0,1-3.66-.2l-.2-.1-.51-2.24V309a9.71,9.71,0,0,0,1,.2,19,19,0,0,0,2.84.31h2.54c0-1,0-2.2-.1-3.56h-.61c-1.76,0-3.45-.06-5.08-.2l-.2-.1-.61-2.34a15.2,15.2,0,0,1,2,.2,23.47,23.47,0,0,0,2.54.21H435v-1.12A23.79,23.79,0,0,0,434.78,299.85Zm-2.24,17.77h-.61c-1.56.14-2.37.71-2.44,1.73.07.4.41.71,1,.91a11.85,11.85,0,0,0,1.52.1h.61a4.35,4.35,0,0,0,2.24-.4,2.06,2.06,0,0,0,.71-1.63v-.4a8.1,8.1,0,0,1-1-.11A17.42,17.42,0,0,0,432.54,317.62Z"/><path d="M454,300.05h.2l3.25.61a11.1,11.1,0,0,1-.3,1.32v14a4.66,4.66,0,0,0,.61,2.74,2.77,2.77,0,0,0,2.13,1h.61a3.85,3.85,0,0,0,1.73-.4,10.19,10.19,0,0,0,2.33-1.12,11.29,11.29,0,0,0,2.85-2.54h.2L468.8,318c.13.13.13.2,0,.2a12.6,12.6,0,0,1-4.27,3,9.15,9.15,0,0,1-4.47,1.11h-.3a5.94,5.94,0,0,1-3.35-1,4,4,0,0,1-2-2.95c-.07-.94-.1-1.93-.1-2.94V302.18a5.48,5.48,0,0,0-.21-1.22A5.69,5.69,0,0,1,454,300.05Z"/><path d="M484.34,299.75h.2l3,.81v.3a2.45,2.45,0,0,0-1,1.63,10.48,10.48,0,0,0-.61,1.72,2.87,2.87,0,0,1-.2.61l3.35-.61a2.63,2.63,0,0,0,.71-.2l.21.1v2.64c-1.63.28-3.25.48-4.88.61a2.71,2.71,0,0,1-.1.51c.07-.13,0-.07-.1.2A58.81,58.81,0,0,1,479.56,322l-2.74-.81-.1-.21a82.22,82.22,0,0,0,5.89-13.51,14.64,14.64,0,0,1-2,.11c-.88.06-1.56.1-2,.1l-.2-.1-.41-2.44.1-.2a12.75,12.75,0,0,1,1.32.1,10.18,10.18,0,0,0,1.22.1h.81a18.78,18.78,0,0,0,1.93-.1,3.22,3.22,0,0,0,.21-.61,16.11,16.11,0,0,0,.81-4.06Zm13.71,18.68-.31,2.85a28,28,0,0,1-3.35.2h-1a20.86,20.86,0,0,1-4.47-.51,1.5,1.5,0,0,1-.41-.1c-.47,0-.78-.1-.91-.3l-.1-2.34a5.15,5.15,0,0,0,.91.2,26.93,26.93,0,0,0,4.47.51h.51A21.9,21.9,0,0,0,498.05,318.43Zm-5.89-9.95h.91c1.08,0,2.24,0,3.46.1l.1,2.74-.1.11a22.4,22.4,0,0,0-4.37-.61h-1a8.55,8.55,0,0,0-2.23.3l.4-2.54h1.32C491.31,308.52,491.82,308.48,492.16,308.48Z"/><path d="M508.71,301.27l-.61,14.93h-2.54l-.5-14.93Zm-.2,20.82h-3.25v-3.25h3.25Z"/></g></g></svg>