<svg xmlns="http://www.w3.org/2000/svg" viewBox="0 0 759.89 428.94"><defs><style>.cls-1{fill:#fff;}</style></defs><g id="レイヤー_2" data-name="レイヤー 2"><g id="_4" data-name="4"><path class="cls-1" d="M121.11,422.23c4.9-1.9,12.1-10.7,16.6-14.1,4.3-3.2,9.3-6.3,12.8-10.4a62.77,62.77,0,0,0,8.8-14.1,47.08,47.08,0,0,0,4.6-16,35,35,0,0,0-3.5-16.3,39.23,39.23,0,0,0-10.1-13.1c-4-3.4-9.5-5.9-15-8.7-4.8-2.5-10.5-3.9-16.1-6.2-5.1-2.1-10.2-4.9-15.7-7.1-5.2-2.1-10.6-4.3-16-6.5s-10.9-3.8-16.1-6.4-9.8-6.1-14.8-9.1a150.6,150.6,0,0,1-14.2-9.9c-4.5-3.5-8.3-7.8-12.3-12.1-3.9-4.1-8.1-8-11.3-13-3-4.7-5-10.1-7.3-15.6a107.32,107.32,0,0,1-5.1-16.3c-1.3-5.3-3.3-10.8-3.9-16.8a155.72,155.72,0,0,1-1.1-17.3A164.18,164.18,0,0,1,3.11,176a158.89,158.89,0,0,1,3-17c1.3-5.6,3.5-10.9,5.4-16.3s2.3-11.5,4.8-16.7a150.39,150.39,0,0,1,8.6-15.1c3-4.8,6.8-9.2,10.4-13.8a170,170,0,0,1,11.1-13.3c4-4,8.9-7.1,13.4-10.9,4.3-3.6,8.2-8.1,13-11.5,4.6-3.2,10-5.5,15.1-8.4,4.8-2.8,10.2-4.9,15.5-7.5,5-2.5,10-5.3,15.4-7.6,5.2-2.2,10.1-5.3,15.7-7.3,5.3-1.9,11.2-2.4,16.8-4.2,5.4-1.6,11-2.8,16.7-4.3,5.5-1.4,10.6-4.6,16.3-5.8,5.5-1.2,11.3-1.4,17.1-2.5,5.5-1,11.3-1.1,17.1-1.9,5.6-.8,11.1-3.3,16.9-4,5.6-.7,11.4-.9,17.2-1.4,5.6-.5,11.4-.7,17.2-1,5.6-.4,11.4.2,17.3-.1,5.7-.2,11.4-.9,17.2-1s11.4-.5,17.2-.5,11.4-.3,17.3-.2c5.7.1,11.4.9,17,1.1s11.4-.1,17,0,11.4,1.4,17,1.5,11.4-.6,17.1-.4,11.3,1.3,17,1.5,11.4-.1,17,.2,11.4-.3,17.1.1,11.4.7,17,1.1,11.4.8,17,1.3,11.4,1.2,17,1.8,11.4,1.2,16.9,1.9c5.7.7,11.3,1.9,16.8,2.7,5.7.8,11.3,1.8,16.8,2.7,5.7,1,11.2,2.3,16.7,3.4s11,3.3,16.4,4.6c5.6,1.3,11.2,2.4,16.6,3.8,5.6,1.5,10.9,3.3,16.3,5s11,3.3,16.2,5.2c5.4,2,11,3.4,16.1,5.6q8,3.6,15.3,7.5c5.1,2.7,9.1,7,13.8,10s10.3,5.2,14.7,8.7a153.81,153.81,0,0,1,12.7,11.4,135,135,0,0,1,11.1,12.9c3.6,4.4,7.7,8.5,10.7,13.3s5.2,10.1,7.6,15.3a152.45,152.45,0,0,1,5.7,16.1c1.7,5.3,2.5,10.9,3.6,16.6a168.88,168.88,0,0,1,2.6,16.8c.6,5.5,2.5,11.1,2.6,16.9s-1.5,11.4-2,16.9c-.5,5.8-.5,11.5-1.6,16.9a119.54,119.54,0,0,1-4.5,16.4c-1.9,5.4-5.3,10-7.9,15s-4.7,10.3-7.9,14.9a125.85,125.85,0,0,1-23.2,24.4c-4.2,3.7-7.8,8.2-12.4,11.5s-9.8,5.5-14.7,8.4-9.7,5.6-14.8,8.1-10.1,4.9-15.4,7.1-10.1,4.9-15.5,6.8-11,2.7-16.4,4.3-10.6,3.9-16.1,5.3-11.2,1.8-16.7,2.9-11,2.7-16.5,3.7-11.1,2.1-16.7,2.9-11.2,1.6-16.8,2.2-11.4-.2-17,.3-11.2,2.5-16.8,2.9-11.4,0-17,.3-11.4,1.1-16.9,1.2c-5.7.1-11.4-1.5-17-1.5-5.8,0-11.4,1.1-16.9,1-5.8-.1-11.5,0-17-.2-5.9-.3-11.4-2.2-16.8-2.6-6.3-.4-12.3-.4-18-.7-6.3-.4-12.4-.6-18-.9-6.4-.3-12.4.1-18.1,0-6.5-.2-12.5.3-18,.3-6.6,0-12.6-.3-18-.1-6.8.3-12.6,1.2-17.9,1.9a98.63,98.63,0,0,0-17.5,3.7,59.06,59.06,0,0,0-15.9,7.9c-4.7,3.3-9.9,6.1-14.6,10.6a75.74,75.74,0,0,1-14,10.7,145.62,145.62,0,0,1-15.8,8c-5.3,2.3-10.6,5-16.4,7-5.6,1.9-11.5,3-17.2,4.5s-11.6,3.1-17.3,4.2c-6.1,1.2-12,1.9-17.6,2.6-6.5.8-12.4,1.8-17.6,1.8C111.91,423.73,108,427.33,121.11,422.23Z"/><path d="M122.71,426.23c5.6-2.7,9.6-7.9,14.2-12,5-4.5,11-7.6,15.5-12.8,9-10.3,15.5-25.4,12.8-39.2-2.5-12.6-9.9-24.5-21-31.3a119.26,119.26,0,0,0-21.5-9.8c-8.2-2.9-15.9-7-23.9-10.3-7.3-2.9-14.5-5.9-21.9-8.7-8.3-3.1-15.3-7.9-22.7-12.6a103.78,103.78,0,0,1-19.9-15.6c-7.4-7.6-15.1-15-19.3-24.9-7.3-17.1-12.6-36.3-11.6-55.1a181,181,0,0,1,2.7-22c1.7-9.7,5.2-18.4,7.9-27.8,2.1-7.5,3.6-14,7.5-20.9,4.5-8,9.9-15.1,15.6-22.3,5.1-6.4,9.9-12.7,16.4-17.8,7.1-5.6,13.5-12.4,20.9-17.6,13.1-9.2,29.2-15.9,43.7-22.6,7-3.2,13.9-7.3,21.5-9.4,8.3-2.2,16.8-4.1,25.1-6.2,7.6-1.9,14.7-5.7,22.4-7.2a245.72,245.72,0,0,1,25.6-3.4c8-.8,15.2-3.3,23.1-4.6,8.4-1.4,17.2-1.7,25.7-2.1,16.4-.9,32.8-1.2,49.3-1.7s32.7.4,49.1.6c8.9.1,17.5.3,26.4,1.2,7.4.7,14.8-.3,22.2,0,8.2.3,16.1,1.6,24.3,1.6s16.3-.1,24.3.1c33.1.8,66.3,5.4,98.9,10.9,32,5.4,63.1,15.2,93.9,25.3a133.18,133.18,0,0,1,22.3,9.7c6.9,3.7,12.4,9.2,19.1,13a100.08,100.08,0,0,1,20.3,14.5c6.7,6.3,12.1,13.5,18.1,20.4,12.4,14.2,17.9,32.5,21.4,50.7,1.5,7.5,2.2,15.2,3.6,22.7,1,5.4,2,10.1,1.4,15.5-.5,4.4-1.5,8.8-1.8,13.2-.7,8.5-1.4,16.4-3.7,24.7-2.5,8.8-7.1,16-11.1,24-3.3,6.6-6.5,12.7-11.3,18.5-6.2,7.5-13.3,13.4-20.3,20-5.5,5.2-10.2,9.9-16.8,13.6-7.8,4.3-15.4,8.8-23.4,12.8a234.39,234.39,0,0,1-45,17.5c-7,1.9-13.7,4.9-20.8,6.4-8.7,1.8-17.4,3.3-26.1,5.2-16.6,3.6-33.5,6.1-50.4,6.1-7.9,0-15.2,2.7-23,3.1-9.2.5-18.4.5-27.7,1.2-7.8.6-15.3-1.4-23-1.2-8.5.1-17,.9-25.5.9-8.2,0-15.7-2-23.8-2.7-8.7-.7-17.5-.7-26.2-1.2-17.2-.8-34.4,0-51.7-.2-15.3-.2-31.2.6-46,5-14.5,4.3-25.7,13.9-37.1,23.3-12.2,10-28.8,17.7-43.9,22.3a302.19,302.19,0,0,1-49.6,10.6c-11.9,1.5-23.9,1.7-35.8,3.4,1.1,2.6,2.1,5.3,3.2,7.9,1.1-1.3,5.8-2.1,7.4-2.7s-1.6-8.5-3.2-7.9c-1.8.7-6.3,1.3-7.6,2.7s1.3,8.2,3.2,7.9c12.7-1.9,25.5-2.1,38.2-3.7,17.3-2.2,35.7-5.8,52.1-12,14.9-5.6,30.3-12.7,42.2-23.4,11.4-10.3,24.8-18.9,40-22.1,16.4-3.5,32.4-3,49-3.4,17.7-.4,35.3,0,53,.8,17.4.8,34.3,3.9,51.7,3.4,4-.1,8.1-.8,12.1-.9,4.8-.1,9.4.7,14.2,1.2,7.4.7,14.7-.6,22.2-1,9.1-.4,17.6-.1,26.5-1.9s17.9-.8,27-1.8c17.6-2,34.6-6.4,52-9.3a129.75,129.75,0,0,0,22.3-5.5c8-2.8,16.5-4,24.4-7,15.8-6.2,30.8-14.2,45.5-22.3,28.3-15.6,50.4-41.4,63.4-71,6.5-14.8,7.2-32.1,8.8-48,.8-7.8-1.3-14.9-2.4-22.6-1.1-8-2.4-15.8-3.9-23.7-5.9-30.9-22.4-57.3-45.5-78.4a93.06,93.06,0,0,0-18.3-12.9c-6.5-3.6-11.7-8.8-18.1-12.5-14.8-8.5-31.4-13.2-47.6-18.4-63.1-20-129.7-28.9-195.8-28.7-8.2,0-16.2-1.5-24.3-1.6-9.3-.2-18.3.2-27.6-.8-7.4-.7-14.8-.2-22.3-.4-9-.2-17.9-1.2-26.9-1-16.8.3-33.7,1.8-50.5,1.6-7.8-.1-15.6.4-23.4.9-9,.7-18.2.9-26.9,3.2-16.6,4.4-34.8,2.9-50.9,9.2-7.8,3-15.5,4.9-23.6,7.1-7.9,2.2-16.2,3.3-23.7,6.8-15.7,7.1-31.2,14.8-46.4,22.9a91.56,91.56,0,0,0-19.9,14.2c-6.7,6.1-14.4,10.9-20.4,17.8-10.1,11.6-20.7,24.5-27,38.7-3.3,7.5-4.6,15.9-7.3,23.6a120,120,0,0,0-5.6,24.4c-4.1,30.1.6,62.5,16,89.2,3.6,6.2,8.6,11.1,13.5,16.3a123.35,123.35,0,0,0,18.6,16.8,216.51,216.51,0,0,0,20.8,13.4c7.6,4.1,16.1,6.6,24.1,9.9,7.3,3,14.4,6,21.6,9.3,8.3,3.8,17.1,6.3,25.2,10.6,11.2,5.8,21.4,14.8,20.8,28.6-.4,9-5.2,18.5-10.3,25.8-4.9,6.9-11.8,10.6-18,16.1-4.6,4.1-8.5,9.3-14.2,12C117.91,419,121.31,426.93,122.71,426.23Z"/><path d="M193.88,46V43.22h5.69c-.14-.51-.4-1.28-.76-2.3-.22-.66-.4-1.16-.55-1.53l3.06-.44c.15.44.4,1.13.77,2.08s.51,1.68.65,2.19h4V46h-1.64a39.73,39.73,0,0,1-2.52,9.85q1,1.53,3,4.26a18.44,18.44,0,0,1,1.2,1.64l-2.41,1.64-1.64-2.29c-.73-1-1.27-1.83-1.64-2.41A28.8,28.8,0,0,1,195.53,65l-2.08-2.29a23.77,23.77,0,0,0,5.9-6.68l-2.95-4.26c-1-1.31-1.6-2.26-2-2.84l2.19-1.54,4,5.69A32.47,32.47,0,0,0,202.42,46Zm16.41,10.83C209.05,54.16,208,52,207,50.44l2.41-1Q211,52,212.81,55.69Zm-2.84-9.73V44.31h7.22V39.06h3v5.25h2.62v2.74h-2.62V61.16c.14,2.4-1.13,3.6-3.83,3.6h-1.86c-1,.08-1.68.11-2.19.11a6.76,6.76,0,0,1-.21-1,18.87,18.87,0,0,1-.44-1.86h3.61c1.38.07,2-.47,2-1.64V47.05Z"/><path d="M223.53,47.48q-.89-.87-1.86-1.86A27.56,27.56,0,0,0,230,39l3.28.33A8.86,8.86,0,0,1,231.73,41h10.72v2l-2.3,2.08h6.34v6.23h-1.86l1.54,2-4.16,2a10.84,10.84,0,0,0,6.34,6.67,11.1,11.1,0,0,0-1.42,1.53,2.48,2.48,0,0,0-.44.55,13.06,13.06,0,0,1-6.67-7.66c-.51.22-1.06.44-1.64.66a13.13,13.13,0,0,1,.44,3.39q0,4.48-4.27,4.48c-1.24.08-2.51.11-3.82.11a9.86,9.86,0,0,1-.22-1.2q-.23-.77-.33-1.2a28.74,28.74,0,0,0,3.28.11c1.9.07,2.81-.73,2.73-2.41a3,3,0,0,0-.11-.77v-.65q-4.15,3.39-12.9,6c-.37-.73-.77-1.49-1.2-2.29a32.24,32.24,0,0,0,13.45-5.91c-.07-.14-.26-.44-.55-.87a.35.35,0,0,1-.11-.22,34.37,34.37,0,0,1-11.26,5,7.58,7.58,0,0,0-1.1-1.64,1,1,0,0,0-.22-.44,34.78,34.78,0,0,0,11.49-4.48,2.21,2.21,0,0,0-.44-.55,1.22,1.22,0,0,0-.44-.44q-3.06,1.86-9.84,3.39a10.55,10.55,0,0,0-1.09-2.19q7.22-1.08,9.73-2.95H224V47.26Zm3.28-.43v2.29h6.45a14.24,14.24,0,0,0,.77-2.29Zm12-3.94h-9.08c-.73.65-1.53,1.31-2.41,2h9.3Zm-4.16,8.53a28.39,28.39,0,0,1,2.63,3.17,71.63,71.63,0,0,0,7.11-3.5H235Zm9.08-4.59H237c-.22.87-.44,1.64-.66,2.29h7.44Z"/><path d="M257,59.08a26.27,26.27,0,0,0-2.07-2.41q7-3.49,6.67-10.17H254.7V64.87h-3V43.66h9.85V39.17h3.17c0,1.68,0,3.17-.11,4.49h9.63V60.5c.07,2.7-1.25,4.08-3.94,4.16h-4.71a10.12,10.12,0,0,0-.65-2.85c1.38.07,2.73.11,4,.11,1.53.07,2.25-.66,2.18-2.19V46.5h-6.67a13.45,13.45,0,0,1-.55,4c.29.21.7.54,1.21,1,2.69,2.12,4.63,3.72,5.79,4.81l-2.29,2.3q-2.08-2.07-5.8-5.36Q261.59,55.91,257,59.08Z"/><path d="M290.35,47.26H292a2.39,2.39,0,0,1,2.19.88,3.36,3.36,0,0,1,.66,2.08v.44a23.85,23.85,0,0,1-1,6.45Q293,60.93,290.79,62a7.42,7.42,0,0,1-3.72.77h-.54c-.22,0-.33,0-.33-.11-.15-.3-.33-.7-.55-1.21a15.22,15.22,0,0,0-.77-1.53v-.11a9.54,9.54,0,0,1,1.21.11,7.61,7.61,0,0,0,1.09.11h.44a2.33,2.33,0,0,0,2.08-1,7.22,7.22,0,0,0,1.09-2,.33.33,0,0,0,.11-.22,14.22,14.22,0,0,0,1-5.25V51c-.07-.8-.43-1.24-1.09-1.31a19.7,19.7,0,0,0-2.41.22,9.57,9.57,0,0,1-1.2.11A41.89,41.89,0,0,1,283,59a19.43,19.43,0,0,1-2.3,3.06,2.85,2.85,0,0,1-1.31-.55c-.22-.14-.41-.25-.55-.32a.33.33,0,0,1-.22-.11c-.44-.08-.69-.22-.77-.44a18.07,18.07,0,0,0,4.27-5.91q1.1-2.19,2.08-4.26a8.17,8.17,0,0,0-3.17.87l-.11.11a1.34,1.34,0,0,1-.77.22l-1.53-3.17.11-.22a10.14,10.14,0,0,0,3.06,0,9.59,9.59,0,0,1,1.1-.11,7.13,7.13,0,0,1,2.07-.33c.15-.44.26-.8.33-1.09a13.7,13.7,0,0,0,.66-4.38v-.76a1,1,0,0,1-.11-.44c.29.07.69.15,1.2.22,1,.15,1.82.29,2.41.44a1.65,1.65,0,0,1-.44,1,.33.33,0,0,0-.11.22,4.9,4.9,0,0,0-.33,1.53,1.9,1.9,0,0,0-.11.55,6.18,6.18,0,0,1-.21,1.2c-.08.51-.15.91-.22,1.2A13.31,13.31,0,0,1,290.35,47.26Zm5.36-1.42v-.33a7.25,7.25,0,0,1,1-.76,11.59,11.59,0,0,1,1-.77q.33-.21,1,.66a16,16,0,0,1,2.07,2.3,48.37,48.37,0,0,1,3.39,4.48v.33l-2.62,1.64A45.05,45.05,0,0,0,295.71,45.84Z"/><path d="M308.07,65.31c-.73-1-1.35-1.86-1.86-2.51q6.68-2.41,7.33-7.77a9.84,9.84,0,0,0,.22-2.19H309.6v-2.4c-.73.65-1.53,1.31-2.4,2a5.23,5.23,0,0,0-.44-.66,23.43,23.43,0,0,0-1.2-2.19,26.24,26.24,0,0,0,9.07-10.28l2.74,1.2A31,31,0,0,1,310,50.11h17.61c-.07,1-.15,2.73-.22,5.14-.15,2.11-.22,3.61-.22,4.48q-.1,4.92-5.25,4.82H317.7a18.27,18.27,0,0,0-.55-2.74h2c1.09.07,1.89.11,2.41.11q2.63.11,2.73-2.73c.15-2.34.22-4.45.22-6.35h-7.66a9.7,9.7,0,0,1-.11,1.21,9.91,9.91,0,0,1-.22,1.31Q316.05,61.91,308.07,65.31Zm22.53-13a24.48,24.48,0,0,1-10-12.25l2.63-1.1a19.41,19.41,0,0,0,9.07,10.39C332.06,49.93,331.48,50.91,330.6,52.3Z"/><path d="M346.35,47.26H348a2.39,2.39,0,0,1,2.19.88,3.36,3.36,0,0,1,.66,2.08v.44a23.85,23.85,0,0,1-1,6.45Q349,60.93,346.79,62a7.42,7.42,0,0,1-3.72.77h-.54c-.22,0-.33,0-.33-.11-.15-.3-.33-.7-.55-1.21a15.22,15.22,0,0,0-.77-1.53v-.11a9.54,9.54,0,0,1,1.21.11,7.61,7.61,0,0,0,1.09.11h.44a2.33,2.33,0,0,0,2.08-1,7.22,7.22,0,0,0,1.09-2,.33.33,0,0,0,.11-.22,14.22,14.22,0,0,0,1-5.25V51c-.07-.8-.43-1.24-1.09-1.31a19.7,19.7,0,0,0-2.41.22,9.57,9.57,0,0,1-1.2.11A41.89,41.89,0,0,1,339,59a19.43,19.43,0,0,1-2.3,3.06,2.85,2.85,0,0,1-1.31-.55c-.22-.14-.41-.25-.55-.32a.33.33,0,0,1-.22-.11c-.44-.08-.69-.22-.77-.44a18.07,18.07,0,0,0,4.27-5.91q1.1-2.19,2.08-4.26a8.17,8.17,0,0,0-3.17.87l-.11.11a1.34,1.34,0,0,1-.77.22l-1.53-3.17.11-.22a10.14,10.14,0,0,0,3.06,0,9.59,9.59,0,0,1,1.1-.11,7.13,7.13,0,0,1,2.07-.33c.15-.44.26-.8.33-1.09a13.7,13.7,0,0,0,.66-4.38v-.76a1,1,0,0,1-.11-.44c.29.07.69.15,1.2.22,1,.15,1.82.29,2.41.44a1.65,1.65,0,0,1-.44,1,.33.33,0,0,0-.11.22,4.9,4.9,0,0,0-.33,1.53,1.9,1.9,0,0,0-.11.55,6.18,6.18,0,0,1-.21,1.2c-.08.51-.15.91-.22,1.2A13.31,13.31,0,0,1,346.35,47.26Zm5.36-1.42v-.33a7.25,7.25,0,0,1,1-.76,11.59,11.59,0,0,1,1-.77q.33-.21,1,.66a16,16,0,0,1,2.07,2.3,48.37,48.37,0,0,1,3.39,4.48v.33l-2.62,1.64A45.05,45.05,0,0,0,351.71,45.84Z"/><path d="M366.48,45.19l3.06.65a43.89,43.89,0,0,0-1,8.21c2.69-2.19,5.32-3.29,7.87-3.29h.77A9.29,9.29,0,0,1,382.12,52a5.54,5.54,0,0,1,2.3,4.15v.55a6.54,6.54,0,0,1-2.3,4.81,15.9,15.9,0,0,1-5,2.41,5.4,5.4,0,0,1-2.63.66L373,62.14V62a39,39,0,0,0,4.38-1c2.47-1,3.71-2.34,3.71-3.94v-.44q-.21-3-4-3.28h-.44a12,12,0,0,0-4.37,1.09,7.39,7.39,0,0,0-3.5,3.5l-3.18-1.09c.08-.58.18-1.49.33-2.73q.56-5.14.55-7.77Zm2.3-3.83,1.85-2.08a4.71,4.71,0,0,1,.88.44,36.66,36.66,0,0,1,4.81,2.4v.22l-1.86,2A30.16,30.16,0,0,0,368.78,41.36Z"/><path d="M404.87,43.66V46.5a33.16,33.16,0,0,1-4.81,1.2,46.1,46.1,0,0,1-5.69,12.14H394l-2.51-1-.11-.22a37.46,37.46,0,0,0,5.68-10.72,28.23,28.23,0,0,1-3.61.22l-.32-3H394a21.31,21.31,0,0,0,2.41-.11,4.87,4.87,0,0,0,.87-.11H398a16.25,16.25,0,0,0,.76-4.71v-.65a10.38,10.38,0,0,0,1.64.44,10.75,10.75,0,0,1,1.54.43,4.31,4.31,0,0,1-.33,1.43,3.27,3.27,0,0,0-.22,1,4.87,4.87,0,0,1-.11.87,7.44,7.44,0,0,1-.22.88A23.64,23.64,0,0,0,404.87,43.66Zm.22,4.7h.22l2.51.55a8.37,8.37,0,0,1-.11,1.31c0,1,.07,2.44.22,4.48.07,1.24.11,2.19.11,2.85a24.25,24.25,0,0,1,5.8,2.51v.33l-1.1,2.41a1.94,1.94,0,0,1-1.09-.55c-.15-.15-.26-.22-.33-.22A23.7,23.7,0,0,0,408,60.61a4.69,4.69,0,0,1-.33,1.86,2.07,2.07,0,0,1-.54.76,1.43,1.43,0,0,1-.22.33,4.7,4.7,0,0,1-3.61,1.2h-.66A4.82,4.82,0,0,1,399,63.34a3.3,3.3,0,0,1-.76-3.17,3.86,3.86,0,0,1,1.53-2.08,8.36,8.36,0,0,1,3.94-1h.76a4.28,4.28,0,0,1,1,.11Q405.3,52.74,405.09,48.36Zm-1.64,11.15H403a2.51,2.51,0,0,0-2.19,1.1c-.29,1,.18,1.64,1.42,1.86h1c1.38-.08,2.11-.95,2.19-2.63A6.21,6.21,0,0,0,403.45,59.51Zm9.62-8.75h-.22A27.52,27.52,0,0,0,408,46.39l1.53-2.08h.22q2,1.42,3.83,3.06a2.29,2.29,0,0,1,1,1.21Z"/><path d="M430.35,47.26H432a2.39,2.39,0,0,1,2.19.88,3.36,3.36,0,0,1,.66,2.08v.44a23.85,23.85,0,0,1-1,6.45Q433,60.93,430.79,62a7.42,7.42,0,0,1-3.72.77h-.54c-.22,0-.33,0-.33-.11-.15-.3-.33-.7-.55-1.21a15.22,15.22,0,0,0-.77-1.53v-.11a9.54,9.54,0,0,1,1.21.11,7.61,7.61,0,0,0,1.09.11h.44a2.33,2.33,0,0,0,2.08-1,7.22,7.22,0,0,0,1.09-2,.33.33,0,0,0,.11-.22,14.22,14.22,0,0,0,1-5.25V51c-.07-.8-.43-1.24-1.09-1.31a19.7,19.7,0,0,0-2.41.22,9.57,9.57,0,0,1-1.2.11A41.89,41.89,0,0,1,423,59a19.43,19.43,0,0,1-2.3,3.06,2.85,2.85,0,0,1-1.31-.55c-.22-.14-.41-.25-.55-.32a.33.33,0,0,1-.22-.11c-.44-.08-.69-.22-.77-.44a18.07,18.07,0,0,0,4.27-5.91q1.1-2.19,2.08-4.26a8.17,8.17,0,0,0-3.17.87l-.11.11a1.34,1.34,0,0,1-.77.22l-1.53-3.17.11-.22a10.14,10.14,0,0,0,3.06,0,9.59,9.59,0,0,1,1.1-.11,7.13,7.13,0,0,1,2.07-.33c.15-.44.26-.8.33-1.09a13.7,13.7,0,0,0,.66-4.38v-.76a1,1,0,0,1-.11-.44c.29.07.69.15,1.2.22,1,.15,1.82.29,2.41.44a1.65,1.65,0,0,1-.44,1,.33.33,0,0,0-.11.22,4.9,4.9,0,0,0-.33,1.53,1.9,1.9,0,0,0-.11.55,6.18,6.18,0,0,1-.21,1.2c-.08.51-.15.91-.22,1.2A13.31,13.31,0,0,1,430.35,47.26Zm5.36-1.42v-.33a7.25,7.25,0,0,1,1-.76,11.59,11.59,0,0,1,1-.77q.33-.21,1,.66a16,16,0,0,1,2.07,2.3,48.37,48.37,0,0,1,3.39,4.48v.33l-2.62,1.64A45.05,45.05,0,0,0,435.71,45.84Z"/><path d="M462.4,44.86H463a6.71,6.71,0,0,1,4.59,1.64,6.62,6.62,0,0,1,2,4.59v.55a6,6,0,0,1-1,3.28,10,10,0,0,1-3,2.84,13.32,13.32,0,0,1-6.56,2.3L457.26,58a16.1,16.1,0,0,0,6.56-2.07C466,54.59,467.1,53,467.1,51.2v-.44q-.44-3.16-4.48-3.71h-.44a10.74,10.74,0,0,0-3.39.54c-.87.29-1.75.62-2.62,1-.3.14-.7.33-1.21.54a34.19,34.19,0,0,0-3.17,1.75c-.07,0-.15.08-.22.22a.84.84,0,0,1-.76.22l-2.3-2.62c2-.51,4.05-1.1,6-1.75a2,2,0,0,0,.43-.11C458.1,45.44,460.58,44.79,462.4,44.86Z"/><path d="M483.73,39.94H484l3.28.87v.33a2.61,2.61,0,0,0-1.1,1.75,11.66,11.66,0,0,0-.65,1.86,3.58,3.58,0,0,1-.22.66l3.61-.66a3.29,3.29,0,0,0,.76-.22l.22.11v2.84c-1.75.3-3.5.51-5.25.66a2.69,2.69,0,0,1-.11.55l-.11.22a63.35,63.35,0,0,1-5.79,15l-3-.88-.1-.21a89.37,89.37,0,0,0,6.34-14.55,17.05,17.05,0,0,1-2.19.11c-.95.07-1.68.11-2.19.11l-.21-.11-.44-2.63.11-.22c.29,0,.76,0,1.42.11a10.1,10.1,0,0,0,1.31.11h.88a18.8,18.8,0,0,0,2.07-.11,2.68,2.68,0,0,0,.22-.65,17.08,17.08,0,0,0,.88-4.38Zm14.76,20.12-.32,3.06a28.34,28.34,0,0,1-3.61.22h-1.1a22.94,22.94,0,0,1-4.81-.54,2,2,0,0,1-.44-.11c-.51,0-.84-.11-1-.33l-.11-2.52a5.9,5.9,0,0,0,1,.22,28.65,28.65,0,0,0,4.82.55h.54A23.2,23.2,0,0,0,498.49,60.06Zm-6.34-10.72h1c1.17,0,2.41,0,3.72.11l.11,3-.11.1a24.79,24.79,0,0,0-4.7-.65h-1.09a9,9,0,0,0-2.41.33l.44-2.74h1.42C491.24,49.38,491.78,49.34,492.15,49.34Z"/><path d="M528,51.75v.76a10,10,0,0,1-3,6.9,13.47,13.47,0,0,1-5.47,3.93c0,.15-.07.15-.22,0a10,10,0,0,0-2.51-1.64v-.22c5.25-2.47,7.91-5.65,8-9.51v-.55a7.11,7.11,0,0,0-2.4-5,8.79,8.79,0,0,0-4.6-2,60.88,60.88,0,0,1-2.4,8,50.76,50.76,0,0,1-3.39,7.1q-1.42,2.63-3.5,2.63-3.29-.11-5.47-3.72A7.69,7.69,0,0,1,502,54.7v-.54a10.09,10.09,0,0,1,.88-3.61,13,13,0,0,1,2-3.29,12.43,12.43,0,0,1,5.9-4.48,15.65,15.65,0,0,1,5-1.09H517a11,11,0,0,1,8,3A10.38,10.38,0,0,1,528,51.75ZM505,53.61v.55A6.05,6.05,0,0,0,506,57.55a2.51,2.51,0,0,0,2.08,1.31A2.79,2.79,0,0,0,510,57.55a21.49,21.49,0,0,0,1.09-2c.15-.37.26-.62.33-.77a36.69,36.69,0,0,0,3.72-10.39A17.94,17.94,0,0,0,511,45.51a14.9,14.9,0,0,0-4.48,4.05A8.56,8.56,0,0,0,505,53.61Z"/><path d="M529.45,45.51h.65a15,15,0,0,0,3.28-.54l1.32-.33c1.38-.36,2.73-.69,4-1q3.62-.88,7.11-1.54a21.79,21.79,0,0,0,4.38-1,3.3,3.3,0,0,0,.33,1.2,3.75,3.75,0,0,1,.22,1.64l-1.54.33a7.6,7.6,0,0,0-3.71,1.2,8.68,8.68,0,0,0-3.18,4.71,15.72,15.72,0,0,0-.65,3.83v.65A5.77,5.77,0,0,0,543.34,59a6.38,6.38,0,0,0,4.26,1.64h.55a7,7,0,0,0,1.75-.22v3.28H549a12.8,12.8,0,0,1-6.9-1.86,8.64,8.64,0,0,1-3.28-6.89v-.55q0-4.26,3.39-9c-2.91.72-5.83,1.53-8.75,2.4a3.29,3.29,0,0,1-.76.22,3,3,0,0,0-1.53.88l-1.75-3.07Zm20.12,1.54,1.53-1.43c.22.22.51.55.88,1a17.62,17.62,0,0,1,1.75,2l-1.53,1.31A17.33,17.33,0,0,0,549.57,47.05Zm3-2.19,1.53-1.31a18.7,18.7,0,0,1,2.51,2.84l-1.64,1.31A22.66,22.66,0,0,0,552.53,44.86Z"/><path d="M569.15,62.25,567,64.44,561.06,58l2.07-1.86Z"/><path d="M157.24,95.64l2.41,2.73v.22A40,40,0,0,0,149,103.08a13.2,13.2,0,0,0-3.39,3.28,3.8,3.8,0,0,0-.66,1.86v.44a3.4,3.4,0,0,0,2.08,3,8.5,8.5,0,0,0,3.72.65h.77a23.11,23.11,0,0,0,6.34-.87l.22,3.28c-1.9.15-3.72.22-5.47.22H151a10.06,10.06,0,0,1-5.8-1.2,5.44,5.44,0,0,1-2.84-4.93v-.54c.07-2.48,1.57-4.74,4.48-6.78a1.06,1.06,0,0,1,.55-.44,43.79,43.79,0,0,0-3.5-9.19l2.95-.55a62.6,62.6,0,0,1,3.28,8.21l3.94-2A12.89,12.89,0,0,0,157.24,95.64Z"/><path d="M174.31,99.47V100a6.62,6.62,0,0,0,.43,2.63H175l1.1-1.75h.32l1.21,1.09c-.15.3-.33.7-.55,1.21a10.93,10.93,0,0,0-1.2,4.26v.44a15.56,15.56,0,0,1-2.63.22,9,9,0,0,1-1.09-2.85,17.73,17.73,0,0,1-.66-4.92v-.87a28.72,28.72,0,0,1,.44-4,22.44,22.44,0,0,0,.44-3.61c1.09.07,2.15.18,3.17.33a21.51,21.51,0,0,0-.55,2.3A26.78,26.78,0,0,0,174.31,99.47ZM182,91.81l3.61-.33.22.11a11.48,11.48,0,0,0,.22,3.72,4.45,4.45,0,0,0,.22,1.2,37.8,37.8,0,0,1,.33,4.16v1.75a15.88,15.88,0,0,1-1.21,6.67,16.31,16.31,0,0,1-4.59,6.67q-.1.22-.33,0l-2.51-1.2-.11-.22a17.45,17.45,0,0,0,3.93-4.7,16.18,16.18,0,0,0,1.75-7.55V100A19.87,19.87,0,0,0,182,91.81Z"/><path d="M199.13,95.86h1.65c.36,0,.94,0,1.75-.11h.87a1.9,1.9,0,0,1,.11-.55,25.38,25.38,0,0,0,.22-2.84,7.37,7.37,0,0,0-.11-1.1h.55c.36,0,.87,0,1.53.11a10.1,10.1,0,0,0,1.31.11,1.65,1.65,0,0,1-.22,1.1,1,1,0,0,0-.22.54,4.46,4.46,0,0,1-.22,1.1,6.34,6.34,0,0,1-.22,1.2,3.75,3.75,0,0,0,1.21-.22,29.08,29.08,0,0,0,4.92-1.09v2.73q-3,.66-6,1.21h-.54c-.08.73-.15,1.6-.22,2.62a19.22,19.22,0,0,1,3.39-.66,2,2,0,0,1,.11-.43v-.66c-.07-.14,0-.29.22-.44l2.62.44.11.22-.11.11q-.1.23-.33.87a7.24,7.24,0,0,1,4.38,1.64,8.17,8.17,0,0,1,2.51,5.36v.77q-.1,3.93-4.26,6.56a5.27,5.27,0,0,1-2.63,1.1h-.11a11.38,11.38,0,0,0-2.4-2.08,8.62,8.62,0,0,0,4.7-1.75,5.68,5.68,0,0,0,2.08-4v-.33a5.37,5.37,0,0,0-2.3-4.26,4.25,4.25,0,0,0-1.2-.44H212a3.79,3.79,0,0,0-1.2-.33,25.46,25.46,0,0,1-4.71,8,16.7,16.7,0,0,0,.77,2c-.22.08-.58.22-1.09.44a3.34,3.34,0,0,1-1.21.33q-.33,0-.54-.66a2.2,2.2,0,0,1-1.21.66,6.59,6.59,0,0,1-4,1.64h-.44q-2.52-.11-2.74-3.72v-.44c.08-2.11,1.13-4.26,3.18-6.45a14.26,14.26,0,0,1,4-2.51c0-.44,0-1.13.11-2.08a6.66,6.66,0,0,1,.11-1.1h-1.64c-.8.08-1.42.11-1.86.11h-1.64c-.22,0-.33,0-.33-.11a3,3,0,0,1-.65-1.53v-.11c-.22-.43-.26-.76-.11-1C197.64,95.82,198.41,95.86,199.13,95.86Zm4.16,14-.11-.33a45.62,45.62,0,0,1-.33-5.47,9.73,9.73,0,0,0-4,4.16,3.82,3.82,0,0,0-.66,2.19c.07,1.09.55,1.64,1.42,1.64a4.29,4.29,0,0,0,2.74-1.21A6.49,6.49,0,0,1,203.29,109.86Zm2.19-7v2.62a6.4,6.4,0,0,0,.11,2,18.78,18.78,0,0,0,2.84-5.25c-1.24.22-2.11.4-2.62.55A.49.49,0,0,1,205.48,102.86Z"/><path d="M226,99.36h.55a30.07,30.07,0,0,0,5.79-.55,11.7,11.7,0,0,0,3.72-.76c.37-.15.59-.29.66-.44H237l2.51,1.53c.15.07.19.22.11.44v.11a17.65,17.65,0,0,0-3.5,3.72l-1.31,1.64h.77a3.32,3.32,0,0,1,2.07.65,4.46,4.46,0,0,1,.77,2.19,7.15,7.15,0,0,1,.22,1,12.28,12.28,0,0,0,.44,2,1.64,1.64,0,0,0,1.53,1.42h1.31a16.61,16.61,0,0,0,3.94-.54v3a29.21,29.21,0,0,1-3.5.22H240a3.48,3.48,0,0,1-3.06-1.42,9.55,9.55,0,0,1-1.1-3.28,1.84,1.84,0,0,0-.1-.55,8,8,0,0,0-.22-1.09,1.63,1.63,0,0,0-1.43-1,3.06,3.06,0,0,0-2.29,1.31,59.66,59.66,0,0,0-4.71,6h-.21a21.5,21.5,0,0,0-2.74-1.75V113a87.5,87.5,0,0,0,7.66-8.42,19.83,19.83,0,0,0,2.62-3.72l-.11-.22a11.32,11.32,0,0,1-3.28.88,12.59,12.59,0,0,0-2.51.65,1.12,1.12,0,0,0-.55.22c-.22.22-.4.29-.55.22Zm7-8.75h.22a34.56,34.56,0,0,0,5.36,2.51,1,1,0,0,0,.33.22.81.81,0,0,1,.54.33l-.87,2.3-.33.11A34.05,34.05,0,0,1,231.84,93V92.8Z"/><path d="M265.74,90.39l.11.22a8.41,8.41,0,0,0-.76,3.94v.54c.51,0,1.27,0,2.29-.11h6.9v3.07a45.79,45.79,0,0,0-7.77-.66H265V101a4.59,4.59,0,0,1,.44.55,5.72,5.72,0,0,1,1,3.5v.65a13.35,13.35,0,0,1-3.17,8.64,10.67,10.67,0,0,1-2.41,2.3c-.07.15-.14.15-.22,0a5.24,5.24,0,0,1-1.2-.55,20.07,20.07,0,0,0-2.3-.76,9.84,9.84,0,0,0,3.28-2.19,5.39,5.39,0,0,0,2.3-3.5,4,4,0,0,1-1.31.22h-.44q-3.72-.44-4.15-4.7v-.44q.54-4.59,4.59-5h.44c.36,0,.58,0,.65.11a13.18,13.18,0,0,0,.22-2.41,49.78,49.78,0,0,0-5.69.55,29.52,29.52,0,0,0-5.14.87l-1.31-3.17.11-.33a5.07,5.07,0,0,1,.88.11,8.71,8.71,0,0,0,1.64.22h.54c1,0,2.55-.07,4.6-.22,1-.07,1.78-.11,2.29-.11a17.2,17.2,0,0,0,2.08-.11,23.46,23.46,0,0,0-.87-5.14Q263.77,90.17,265.74,90.39Zm-3.06,14.22v-1.53c-.07-.88-.44-1.32-1.09-1.32a1.76,1.76,0,0,0-1.31.88,3.41,3.41,0,0,0-.77,3.06c.29,1.1.84,1.64,1.64,1.64Q262.58,107.34,262.68,104.61Zm10.94-11.16-1.42,1.21a17.59,17.59,0,0,0-3-2.52l1.43-1.2A17.35,17.35,0,0,1,273.62,93.45Zm1.86-1.86-1.42,1.21a6.65,6.65,0,0,1-.88-.77,12.51,12.51,0,0,0-1.75-1.53l1.2-1.2a4.7,4.7,0,0,0,.77.54A24.31,24.31,0,0,1,275.48,91.59Z"/><path d="M279.09,98.81a3.33,3.33,0,0,1-.55-1l-.87-1.32a19.69,19.69,0,0,0,5.9-6.45l3,.44a2.1,2.1,0,0,1-.33.44,16.45,16.45,0,0,1-1.53,2.18h18.59v2.52H300.2v4.27H303v2.4H300.2v4.49H304v2.4H278v-2.4h4.27v-4.49h-3.39v-2.4h3.39V96A38.14,38.14,0,0,1,279.09,98.81Zm2,17.39-2.85-.65q1.86-3.28,2.74-5.25l2.73.54a7.94,7.94,0,0,1-.44,1Q281.83,114.89,281.06,116.2Zm3.72-20.56v4.27h2.62V95.64Zm0,6.67v4.49h2.62v-4.49Zm2.29,13.35q-.66-2.19-1.42-4.71l2.73-.33q.89,2.41,1.54,4.6Zm2.85-20v4.27h2.62V95.64Zm0,6.67v4.49h2.62v-4.49Zm3.82,13.13a29.84,29.84,0,0,0-1.31-3.18c-.22-.58-.4-1.05-.55-1.42l2.74-.43,2,4.48Zm1.32-19.8v4.27h2.73V95.64Zm0,6.67v4.49h2.73v-4.49Zm6,13.35c-.36-.73-.91-1.68-1.64-2.85-.51-.87-.91-1.57-1.2-2.08l2.73-.54a2.4,2.4,0,0,0,.44.54,41.43,41.43,0,0,1,2.52,4.16Z"/><path d="M306,102.53V100h4.27v-10H313v10H317v2.52H313v2.73l1-1,.87.88c1.17,1.16,2,2.07,2.63,2.73l-1.75,2a20.06,20.06,0,0,0-1.86-2.08c-.37-.44-.66-.77-.88-1v9.29h-2.73V106.8a26.32,26.32,0,0,1-3.72,6,23.49,23.49,0,0,0-.87-3.17,25.9,25.9,0,0,0,4.37-7.11Zm1.75-3.94q-1.2-3.5-1.86-5.47l2-.65q.66,2,1.86,5.47Zm7.44.11-1.86-.76c.88-2,1.64-3.79,2.3-5.47l2,.76A57,57,0,0,1,315.18,98.7Zm2.74,11-.33-2.74,8.2-.76V90.06h2.84v15.86l3.5-.33.11,2.74-3.61.33v7.43h-2.84V109Zm4.48-5a51.25,51.25,0,0,0-4.37-3.5l1.64-2q2.4,1.75,4.48,3.39Zm.77-6.56a50.7,50.7,0,0,0-4.27-3.72l1.75-1.86a5.32,5.32,0,0,0,1.09.76c1.39,1.1,2.48,2,3.29,2.74Z"/><path d="M334.1,97.83V95.2h3.5V90.06h2.74V95.2h3.28v2.63h-3.28v3.93l.76-.76a44.08,44.08,0,0,1,3.39,3.28l-1.75,2a1.18,1.18,0,0,0-.43-.44c-.81-1-1.46-1.68-2-2.19V116.2H337.6V103.51a28.55,28.55,0,0,1-3.17,6.35,26.31,26.31,0,0,0-.55-2.74,7.22,7.22,0,0,0-.21-1.09,27.11,27.11,0,0,0,3.82-8.2Zm10.72,18.37V91.59H359V116.2h-2.73v-1.75h-8.75v1.75Zm2.74-22v4.26h8.75V94.22Zm0,6.78v4.26h8.75V101Zm0,6.78v4.27h8.75v-4.27Z"/><path d="M361.78,95.64V93.12h4.15l-1.09-2.73,2.62-.44c.22.59.62,1.57,1.21,3a.31.31,0,0,1,.11.21h3v2.52Zm.76,4.16V97.5h8.53v2.3Zm0,4.26v-2.3h8.53v2.3Zm.11,11.92V105.92H371v10h-2.4v-1.42h-3.39V116Zm2.52-7.65v3.93h3.39v-3.93Zm7.76,7.87c-.07-.14-.22-.4-.44-.76a19.93,19.93,0,0,0-1.2-1.75q6.45-2.62,7-6.89c.15-1.1.29-2.74.44-4.93h2.62a27.58,27.58,0,0,1-.22,3.72,10.67,10.67,0,0,0,7.22,7.77c-.73,1.16-1.24,2-1.53,2.62q-5.25-2.62-6.78-6.67Q379,113.36,372.93,116.2Zm13.56-13.34q-3.83-2.73-6.56-4.38-1.31,2.3-6.45,4.71a22,22,0,0,0-1.53-2.41q6.23-2.52,6.56-5.91a26.11,26.11,0,0,0,.33-4.81h2.73a27.75,27.75,0,0,1-.44,5l-.21,1.1c.51.29,1.24.73,2.18,1.31q3.39,2,5,3.06ZM375,109a42.26,42.26,0,0,0-2.73-3.93l2.07-1.21a1.26,1.26,0,0,1,.22.33,34.64,34.64,0,0,1,2.63,3.39Zm.33-12.14c-.37-.51-1-1.38-2-2.62l-1-1.31,2-1.32a3.45,3.45,0,0,1,.33.44,40.6,40.6,0,0,1,2.74,3.39Zm9,0-2.08-1.53a35.58,35.58,0,0,0,3.28-3.72L387.59,93c-.66.88-1.64,2-3,3.5Zm0,12.14-2-1.53a1.43,1.43,0,0,0,.22-.33,35.71,35.71,0,0,0,2.95-3.39l2.08,1.53c-.51.66-1.31,1.57-2.41,2.74A7,7,0,0,0,384.31,109Z"/><path d="M395,91.26h.21l3.5.66a13.34,13.34,0,0,1-.32,1.42v15.1a5,5,0,0,0,.65,3,3,3,0,0,0,2.3,1.09H402a4.09,4.09,0,0,0,1.85-.43,11.23,11.23,0,0,0,2.52-1.21,12.06,12.06,0,0,0,3.06-2.73h.22l1.31,2.51c.15.15.15.22,0,.22a13.42,13.42,0,0,1-4.59,3.28,9.74,9.74,0,0,1-4.81,1.21h-.33a6.37,6.37,0,0,1-3.61-1.1,4.3,4.3,0,0,1-2.19-3.17c-.07-1-.11-2.08-.11-3.17V93.56a5.73,5.73,0,0,0-.22-1.31A6.75,6.75,0,0,1,395,91.26Z"/><path d="M419.63,96.51H420l9.52-2c4.15-.88,7.29-1.5,9.4-1.86,1.1-.22,2.19-.4,3.29-.55l.21,3.17h-.65c-3.36,0-5.87.91-7.55,2.74a10.36,10.36,0,0,0-2.84,7.32v.44a5.78,5.78,0,0,0,1.53,4.27q1.53,1.64,4.81,1.53h1.86v3.28H437.9a10.22,10.22,0,0,1-6.89-2.41,8.57,8.57,0,0,1-2.3-6.34v-1.09q0-4.27,3.5-8.54c-.95.22-2.4.59-4.37,1.1-.95.22-1.68.4-2.19.55l-1,.32a12.7,12.7,0,0,0-3.29,1.21Z"/><path d="M446,109.64v-.44a8.52,8.52,0,0,1,1.1-3.5,8.93,8.93,0,0,1,2-2.29,9.64,9.64,0,0,1,6.23-2.3h.22a4.39,4.39,0,0,0,.77-1.31q1.31-2.31,2.73-4.6l-.22-.22a10.69,10.69,0,0,0-5.25,1.86L453,95.75c-.21-.44-.65-1.2-1.31-2.3l.11-.11h1.31a16.68,16.68,0,0,0,3.07-.43,3.83,3.83,0,0,1,.76-.11,17.84,17.84,0,0,0,3.39-1h.22l2.84,2.74c.08.29-.1.54-.54.76l-.11.11A12.19,12.19,0,0,0,460.87,97c-.22.29-.51.73-.88,1.31a6.63,6.63,0,0,0-.43.66,5.23,5.23,0,0,1-.44.66,19.15,19.15,0,0,1-1,1.86c.81.14,1.61.32,2.41.54a22.33,22.33,0,0,1,2.95,1.21l1.43.65a24.79,24.79,0,0,0,.65-4.7v-.88h.22l2.95.88v.22a20,20,0,0,0-1.31,4.48.31.31,0,0,1-.11.22,2.53,2.53,0,0,1-.33,1,29.17,29.17,0,0,1,5,3.5l-1.32,2.51h-.22q-1.86-1.64-3.82-3.17a1.33,1.33,0,0,0-.55-.33c-.44,1-.91,1.86-1.42,2.74a15.46,15.46,0,0,1-5.36,5h-.22a11.06,11.06,0,0,0-2.3-1.75v-.11a15.45,15.45,0,0,0,5.14-3.72,9.47,9.47,0,0,0,2.08-3.39.1.1,0,0,0-.11-.11,21.93,21.93,0,0,0-7-2.63c-.36.73-.91,1.75-1.64,3.07-.51.87-.87,1.53-1.09,2q-2.62,4.59-5.58,4A3.24,3.24,0,0,1,446,109.64Zm3.39-3.17a5.29,5.29,0,0,1-.32.54,3,3,0,0,0-.66,1.1c-.29,1.31,0,2,1,2.08a2.2,2.2,0,0,0,1.32-.66.29.29,0,0,1,.11-.22,7,7,0,0,0,1.09-1.42,30.36,30.36,0,0,0,2.3-4.38A7.94,7.94,0,0,0,449.38,106.47Z"/><path d="M483.73,90.94H484l3.28.87v.33a2.61,2.61,0,0,0-1.1,1.75,11.66,11.66,0,0,0-.65,1.86,3.58,3.58,0,0,1-.22.66l3.61-.66a3.29,3.29,0,0,0,.76-.22l.22.11v2.84c-1.75.3-3.5.51-5.25.66a2.69,2.69,0,0,1-.11.55l-.11.22a63.35,63.35,0,0,1-5.79,15l-3-.88-.1-.21a89.37,89.37,0,0,0,6.34-14.55,17.05,17.05,0,0,1-2.19.11c-.95.07-1.68.11-2.19.11l-.21-.11-.44-2.63.11-.22c.29,0,.76,0,1.42.11a10.1,10.1,0,0,0,1.31.11h.88a18.8,18.8,0,0,0,2.07-.11,2.68,2.68,0,0,0,.22-.65,17.08,17.08,0,0,0,.88-4.38Zm14.76,20.12-.32,3.06a28.34,28.34,0,0,1-3.61.22h-1.1a22.94,22.94,0,0,1-4.81-.54,2,2,0,0,1-.44-.11c-.51,0-.84-.11-1-.33l-.11-2.52a5.9,5.9,0,0,0,1,.22,28.65,28.65,0,0,0,4.82.55h.54A23.2,23.2,0,0,0,498.49,111.06Zm-6.34-10.72h1c1.17,0,2.41,0,3.72.11l.11,3-.11.1a24.79,24.79,0,0,0-4.7-.65h-1.09a9,9,0,0,0-2.41.33l.44-2.74h1.42C491.24,100.38,491.78,100.34,492.15,100.34Z"/><path d="M528,102.75v.76a10,10,0,0,1-3,6.9,13.47,13.47,0,0,1-5.47,3.93c0,.15-.07.15-.22,0a10,10,0,0,0-2.51-1.64v-.22c5.25-2.47,7.91-5.65,8-9.51v-.55a7.11,7.11,0,0,0-2.4-5,8.79,8.79,0,0,0-4.6-2,60.88,60.88,0,0,1-2.4,8,50.76,50.76,0,0,1-3.39,7.1q-1.42,2.63-3.5,2.63-3.29-.11-5.47-3.72a7.69,7.69,0,0,1-1.1-3.72v-.54a10.09,10.09,0,0,1,.88-3.61,13,13,0,0,1,2-3.29,12.43,12.43,0,0,1,5.9-4.48,15.65,15.65,0,0,1,5-1.09H517a11,11,0,0,1,8,3A10.38,10.38,0,0,1,528,102.75ZM505,104.61v.55a6.05,6.05,0,0,0,1.09,3.39,2.51,2.51,0,0,0,2.08,1.31,2.79,2.79,0,0,0,1.86-1.31,21.49,21.49,0,0,0,1.09-2c.15-.37.26-.62.33-.77a36.69,36.69,0,0,0,3.72-10.39A17.94,17.94,0,0,0,511,96.51a14.9,14.9,0,0,0-4.48,4A8.56,8.56,0,0,0,505,104.61Z"/><path d="M529.45,96.51h.65a15,15,0,0,0,3.28-.54l1.32-.33c1.38-.36,2.73-.69,4-1q3.62-.89,7.11-1.54a21.79,21.79,0,0,0,4.38-1,3.3,3.3,0,0,0,.33,1.2,3.75,3.75,0,0,1,.22,1.64l-1.54.33a7.6,7.6,0,0,0-3.71,1.2,8.68,8.68,0,0,0-3.18,4.71,15.72,15.72,0,0,0-.65,3.83v.65a5.77,5.77,0,0,0,1.64,4.27,6.38,6.38,0,0,0,4.26,1.64h.55a7,7,0,0,0,1.75-.22v3.28H549a12.8,12.8,0,0,1-6.9-1.86,8.64,8.64,0,0,1-3.28-6.89v-.55q0-4.26,3.39-9c-2.91.72-5.83,1.53-8.75,2.4a3.29,3.29,0,0,1-.76.22,3,3,0,0,0-1.53.88l-1.75-3.07Zm20.12,1.54,1.53-1.43c.22.22.51.55.88,1a17.62,17.62,0,0,1,1.75,2l-1.53,1.31A17.33,17.33,0,0,0,549.57,98.05Zm3-2.19,1.53-1.31a18.7,18.7,0,0,1,2.51,2.84l-1.64,1.31A22.66,22.66,0,0,0,552.53,95.86Z"/><path d="M570.46,89.73l3.83.66a10.13,10.13,0,0,0-.55,3.39v1h9v3.18a43.94,43.94,0,0,0-8.2-.55h-.77v3.39l.11.11a6.08,6.08,0,0,1,1,3.72v1.86a13.59,13.59,0,0,1-1.1,4.59,17.31,17.31,0,0,1-2.4,3.61c-.66.66-1.35,1.31-2.08,2H569a13.79,13.79,0,0,0-3.17-1.53v-.22a10.9,10.9,0,0,0,5.8-5.58,4.43,4.43,0,0,1-4.27,0,5.16,5.16,0,0,1-2.19-4.37v-.55q.56-4.48,4.6-5h1.31v-2h-1.2a41.4,41.4,0,0,0-9.3,1.09l-.22-.11-1.09-3.17.11-.22c.21,0,.61,0,1.2.11a10.1,10.1,0,0,0,1.31.11h1.31c.29,0,.92,0,1.86-.11q3.39-.11,6-.22c-.15-1.67-.33-3.13-.55-4.37A5,5,0,0,1,570.46,89.73Zm.66,14.66V103c-.07-.73-.37-1.13-.88-1.21a1.49,1.49,0,0,0-1.09.44,2.8,2.8,0,0,0-1,2.19v.66c.07,1.46.54,2.22,1.42,2.29.51,0,.94-.4,1.31-1.2A3.43,3.43,0,0,0,571.12,104.39Z"/><path d="M592.56,92.14l3.72.87c-.08.22-.19.52-.33.88a4.16,4.16,0,0,0-.33.55,7.29,7.29,0,0,0-.22,1.2,1.9,1.9,0,0,0-.11.55,11.94,11.94,0,0,0-.22,1.31,5,5,0,0,0-.22,1.09,3,3,0,0,1,.88-.11,7.51,7.51,0,0,1,.87-.11,2.6,2.6,0,0,0,.66-.11h1.09a5.07,5.07,0,0,1,2.08.44,2.7,2.7,0,0,1,1.1,2.19v1.31a28.72,28.72,0,0,1-1,6.89q-.76,3.72-2.95,4.27a8,8,0,0,1-3.39.76h-.77q-.33-.77-.87-1.86a7.34,7.34,0,0,1-.44-1l.11-.22a5,5,0,0,1,.76.11,7.36,7.36,0,0,0,1.54.22H595a2.46,2.46,0,0,0,2.3-1.42,17.66,17.66,0,0,0,1-3,26.13,26.13,0,0,0,.66-5,1.26,1.26,0,0,0-1.53-1.31c-.37.07-.91.15-1.64.22l-1.64.33a35.83,35.83,0,0,1-6,12.14l-.22.11a10.11,10.11,0,0,0-1.75-.77,5,5,0,0,0-.87-.44v-.21a28.29,28.29,0,0,0,3.94-5.58,26.47,26.47,0,0,0,1.64-3.72,7.53,7.53,0,0,0,.43-1,30.81,30.81,0,0,0-3.28,1.1,1.59,1.59,0,0,1-1,.33l-1.2-3.07.21-.21a3,3,0,0,1,.66.1,1.62,1.62,0,0,0,.88,0c.5-.07,1.27-.21,2.29-.43s1.64-.37,2.08-.44a2.17,2.17,0,0,1,.11-.66,24.37,24.37,0,0,0,.55-5.14Zm16.73,10.61-.11.22-2.3,1.31a35.46,35.46,0,0,0-5.35-7.44v-.33l2.07-1.2A31.34,31.34,0,0,1,609.29,102.75Zm.77-7.33v.22l-1.43,1.2h-.21A8.45,8.45,0,0,0,605.79,94v-.22l1.31-1.09h.22A23.72,23.72,0,0,1,610.06,95.42Zm-1.53-3.72v-.22l1.31-1.09h.22a1.26,1.26,0,0,0,.32.22c.51.44,1.1,1,1.75,1.64a1.79,1.79,0,0,1,.66,1.09l-1.31,1.21h-.22A11.36,11.36,0,0,0,608.53,91.7Z"/><path d="M625.15,113.25,623,115.44l-5.9-6.46,2.07-1.86Z"/><path d="M126.73,157.14a18,18,0,0,0-2.85-1.53,76.74,76.74,0,0,0,5.58-10.94l3,1.09A92,92,0,0,1,126.73,157.14Zm-1.31,10.06a31.28,31.28,0,0,0-1.54-3.06q14.34-2.07,20.46-10.83l2.51,2Q139.74,164.48,125.42,167.2Zm10-10.06v-16h3.06v16ZM148,154.3q-2.52-3.28-7-8.54l2.29-1.64q4.15,4.49,7.22,8.21Z"/><path d="M157,142.26h.21l3.5.66a13.34,13.34,0,0,1-.32,1.42v15.1a5,5,0,0,0,.65,2.95,3,3,0,0,0,2.3,1.09H164a4.09,4.09,0,0,0,1.85-.43,11.23,11.23,0,0,0,2.52-1.21,12.06,12.06,0,0,0,3.06-2.73h.22l1.31,2.51c.15.15.15.22,0,.22a13.42,13.42,0,0,1-4.59,3.28,9.74,9.74,0,0,1-4.81,1.21h-.33a6.37,6.37,0,0,1-3.61-1.1,4.3,4.3,0,0,1-2.19-3.17c-.07-1-.11-2.08-.11-3.17V144.56a5.73,5.73,0,0,0-.22-1.31A6.75,6.75,0,0,1,157,142.26Z"/><path d="M188.09,142.26h.44l3.5.88v.22a2.34,2.34,0,0,0-.88,1.53c-.07.22-.18.55-.33,1-.29.81-.51,1.46-.65,2,1.45-.36,2.88-.69,4.26-1l.22.11-.33,2.84q-2.4.44-4.92.66a88.63,88.63,0,0,1-2.84,8.42,45,45,0,0,1-3.28,7.33l-.11.11-3.29-1.21a35.47,35.47,0,0,0,4.71-9.18c.36-.81.8-2,1.31-3.5.29-.81.51-1.39.66-1.75h-3.94a.65.65,0,0,1-.44-.11l-.44-2.74c.37,0,.92,0,1.64.11a15.88,15.88,0,0,0,1.65.11h2.29a17.59,17.59,0,0,0,.77-5.14Zm9.29,20.79h1.1a11.77,11.77,0,0,0,4.48-.66l-.22,3a23,23,0,0,1-3.82.33h-.77a22.53,22.53,0,0,1-6.56-1.2l.44-2.41a3.29,3.29,0,0,0,.76.22A21,21,0,0,0,197.38,163.05Zm.11-11.49h1a15,15,0,0,1,2.19.22,9.48,9.48,0,0,0,1.09.11l-.11,3a18.62,18.62,0,0,0-4.16-.65h-.87a17.17,17.17,0,0,0-2.3.22,4.71,4.71,0,0,1-.87.1l.22-2.62a12.52,12.52,0,0,0,1.31-.11A22,22,0,0,1,197.49,151.56Zm1.43-4.59v-.22l1.42-1.31c0-.15.07-.15.22,0a12.2,12.2,0,0,1,2.51,2l.55.54-.22.22-.11.11a3.27,3.27,0,0,1-1.31,1.09c0,.08-.07.08-.22,0C200.81,148.65,199.86,147.84,198.92,147Zm2.62-2.63,1.31-1.64a4.06,4.06,0,0,1,1.43.77,2.47,2.47,0,0,0,.54.44,17.08,17.08,0,0,0,1.31,1.2v.33l-1.53,1.31c0,.07-.07.07-.22,0a15.81,15.81,0,0,0-1.42-1.2,10.48,10.48,0,0,0-1.42-1.1Z"/><path d="M212.37,153.86v1.2a12.71,12.71,0,0,0,.87,5.25h.22a6.29,6.29,0,0,0,1-1.53,8.37,8.37,0,0,1,.54-1.09h.22l.88.65a18.42,18.42,0,0,0-1.31,6.13v.65a9.54,9.54,0,0,0-1.21.11,8,8,0,0,1-1.2.11,8.38,8.38,0,0,1-1.2-2.08,21.83,21.83,0,0,1-1.43-8.09v-1.53a27.18,27.18,0,0,1,.88-6.89,5,5,0,0,0,0-3.61,10.17,10.17,0,0,1,3.5.87,4.19,4.19,0,0,1-.33,1.32,1.62,1.62,0,0,0-.22.65A32,32,0,0,0,212.37,153.86Zm12-10.72,4,.22a3.61,3.61,0,0,1-.22,1,1.6,1.6,0,0,0-.22.66,10.5,10.5,0,0,0-.11,1.42v.88c0,.65,0,1.35.11,2.07,1.31-.36,2.62-.69,3.94-1l.33,2.62a24.77,24.77,0,0,1-4.16,1v1.86a18.21,18.21,0,0,1-.77,6.78,11.73,11.73,0,0,1-4.48,5.91h-.11a1,1,0,0,1-.33-.11.73.73,0,0,0-.33-.11,12.51,12.51,0,0,0-2-1.1l-.1-.11a12,12,0,0,0,4.37-4.48c.8-1.53,1.17-3.83,1.09-6.89v-1.31c-1.46.07-3,.11-4.48.11h-1.75l-1-2.85.1-.22a9.54,9.54,0,0,1,1.21.11,17.4,17.4,0,0,0,2.4.22h1.54a13.63,13.63,0,0,0,1.85-.11A22.32,22.32,0,0,0,224.4,143.14Z"/><path d="M260.71,151.67c-1.31-.58-2.51-1.13-3.61-1.64v2.08h-6.56v2.95h9.3v2.63h-9.3v6.12h10.94v2.41H236.54v-2.41h10.94v-6.12h-9.3v-2.63h9.3v-2.95H240.7v-1.86c-1,.51-2.15,1.06-3.39,1.64-.15-.22-.33-.51-.55-.88-.51-.8-.88-1.38-1.09-1.75q9.08-3.49,12.46-8.53l3.4.33-.66.88a22.62,22.62,0,0,0,11.37,6.89c-.14.29-.4.76-.76,1.42S260.86,151.38,260.71,151.67Zm-18,11.81c-.59-.72-1.68-2-3.29-3.93l2.19-1.43q1.2,1.32,3.06,3.5c-.14-.14,0,0,.33.44ZM249.23,144a28.13,28.13,0,0,1-7.11,5.58h14A25.81,25.81,0,0,1,249.23,144Zm5.8,19.47-2.19-1.42a1.43,1.43,0,0,0,.22-.33q2.17-2.4,3.17-3.61l2.4,1.32C257.69,160.53,256.48,161.88,255,163.48Z"/><path d="M264,152v-2.74h5.69v-4c-.44,0-1.06,0-1.86.11-1.46.14-2.51.22-3.17.22v-.22a18.3,18.3,0,0,0-.44-2.41q7.44-.43,12.8-1l.55,2.62a17,17,0,0,0-2.19.22c-1.24.07-2.19.15-2.84.22v4.26H278V152h-5.46v3.06l.87-.87q3.83,3.06,5,4.26l-2,2.08q-1.31-1.31-3.93-3.72v10.28h-2.85v-10.5a26.81,26.81,0,0,1-5.14,7,28.66,28.66,0,0,0-.87-3.72,20.71,20.71,0,0,0,5.68-7.87Zm15.43,8.64V144.23h2.73v16.41Zm1.53,6.12a3.19,3.19,0,0,0-.11-.65,7.9,7.9,0,0,0-.55-2.19c.73.07,2.08.11,4,.11,1.16,0,1.71-.62,1.64-1.86V141.28h2.84v21.77q.1,3.39-3.39,3.61h-2.08C282.19,166.73,281.38,166.76,281,166.76Z"/><path d="M301.73,141.39l3.5.87v.22l-.77.88c-.07.22-.22.58-.43,1.09a4.55,4.55,0,0,1-.44,1.21,19.27,19.27,0,0,0,4.37-1.1v2.95a30.6,30.6,0,0,1-5.36.88,18,18,0,0,1-1.64,3.17,8.38,8.38,0,0,1,3.07-.87h.43a4.46,4.46,0,0,1,1.1.22l.22.1a4.67,4.67,0,0,1,2.18,3.4c.66-.3,1.28-.55,1.86-.77l1-.33a18.13,18.13,0,0,0,2-.76,2.06,2.06,0,0,0,.43-.33q.44-.43.66-.33l2.3,2.62v.33a65.47,65.47,0,0,0-7.77,2.08,7.47,7.47,0,0,1,.22,1.86v.77a12.72,12.72,0,0,1-.22,1.86,6.84,6.84,0,0,0-.11,1h-2.73a8,8,0,0,1,.11-1.2V158a11,11,0,0,0-2.41,1.43c-1.39.94-1.86,2-1.42,3.06s1.53,1.53,3.72,1.53H306a25.05,25.05,0,0,0,5.47-.77l.33,3.18a29.31,29.31,0,0,1-4.37.32h-1.64a9.45,9.45,0,0,1-4.49-1,4.05,4.05,0,0,1-2.3-3.17v-.44a7,7,0,0,1,3.18-5,14,14,0,0,1,2.18-1.2c.51-.29.91-.51,1.21-.66a2.85,2.85,0,0,0-1.21-2.19,3.71,3.71,0,0,0-2.07.22c-1.61.8-3.36,2.74-5.25,5.8a4.92,4.92,0,0,0-.44.65l-2.74-1.2a50,50,0,0,0,5.91-9.95h-3.17l-.77-2.63v-.22a13.81,13.81,0,0,0,2.3.22h2.73a1.51,1.51,0,0,0,.11-.43,8.72,8.72,0,0,0,.77-3.5Z"/><path d="M320,145.76v-2.95h26v2.95H333.56v6.68l1.75-2.19q4.37,2.52,9.51,5.91l-2.08,2.73-6.23-4.16c-1.31-.94-2.3-1.64-2.95-2.07V167h-3.39V145.76Z"/><path d="M348.87,142.81l3.5.88a13.47,13.47,0,0,1-.44,1.53,3.73,3.73,0,0,1-.22.54,31.66,31.66,0,0,0-1.31,8.32v1.64a12.55,12.55,0,0,0,1.09,4.59h.22a14.34,14.34,0,0,0,.88-2,9,9,0,0,0,.44-1l1.42,1.2a18.51,18.51,0,0,0-1.75,6.56l-2.08.22a18.89,18.89,0,0,1-2.84-10.06v-1.42a43.7,43.7,0,0,1,.65-6.35,18.66,18.66,0,0,0,.44-4Zm13.56,0H363c.29,0,.8,0,1.53.11a8.81,8.81,0,0,0,1.64.22,10.69,10.69,0,0,0-.33,2.62v.44c0,.29,0,.81.11,1.53a10,10,0,0,1,.11,1.32,20.43,20.43,0,0,0,2.74-.66,7.73,7.73,0,0,0,.87-.22h.22c.14,1,.25,1.86.33,2.74a15.57,15.57,0,0,1-2.85.54,9.06,9.06,0,0,0-1,.22v-.33c-.07-.22-.07-.25,0-.11v2.41a24.72,24.72,0,0,1-.66,5.8,13,13,0,0,1-2.73,4.92,7.83,7.83,0,0,1-1.75,2,9.29,9.29,0,0,0-2.85-.88l-.1-.11a11.81,11.81,0,0,0,4-5,14.54,14.54,0,0,0,1.21-6.45v-2a6.47,6.47,0,0,1-1.21.11c-1.16.07-2.37.11-3.61.11h-1.64l-.65-2.74.11-.11a20.22,20.22,0,0,0,3,.22h1.42a15.25,15.25,0,0,0,2.3-.11c-.08-.94-.19-2-.33-3.28C362.65,144.42,362.5,143.32,362.43,142.81Zm4.81,1,1.54-1.32a7.45,7.45,0,0,1,.87.77,10.06,10.06,0,0,1,2,1.86l-1.42,1.53A21.57,21.57,0,0,0,367.24,143.8Zm2.41-2.19,1.42-1.42c.22.14.51.36.88.65a28.34,28.34,0,0,1,2.29,2l-1.42,1.53A11.44,11.44,0,0,0,369.65,141.61Z"/><path d="M380.7,144.56h1.53a25.82,25.82,0,0,0,8.09-1.09,1,1,0,0,0,.44-.11,1.6,1.6,0,0,1,.66-.22h.11l2.84,2.3v.11a11.23,11.23,0,0,0-2.52,2.4c-.36.44-.94,1.13-1.75,2.08s-1.42,1.57-1.86,2.08a12.66,12.66,0,0,0,1.32-.11,9.57,9.57,0,0,1,1.2-.11h.55a7.76,7.76,0,0,1,4.81,1.75,6.06,6.06,0,0,1,2.08,4.7v.33a6.5,6.5,0,0,1-3.28,5.36,9.85,9.85,0,0,1-5.47,1.64H389q-5-.43-5.36-3.72v-.44q.33-2.83,3.72-3.17h.55q2.73,0,5.36,3.5a4.74,4.74,0,0,0,1.75-3.39v-.54q-.33-3.07-4-3.4h-.55a9.36,9.36,0,0,0-7.33,3.83.28.28,0,0,1-.11.22,1.85,1.85,0,0,1-.54.55l-2.63-2v-.33a41,41,0,0,0,9.3-10.17,15.13,15.13,0,0,0-6,1.31c-.07,0-.14.08-.22.22a.84.84,0,0,1-.76.22l-1.42-3.61Zm7.33,18.7h.54a4.6,4.6,0,0,0,1.42-.21,1.52,1.52,0,0,0-.76-1.21,2.58,2.58,0,0,0-2.63-.87c-.65.36-.84.84-.54,1.42S387,163.19,388,163.26Z"/><path d="M416.13,160.86h2.3a35,35,0,0,0,8.1-1v3.5a45.21,45.21,0,0,1-8.43.66h-1.64a12.39,12.39,0,0,1-5.14-.87,13.3,13.3,0,0,1-3.83-2.85V160l1.86-1.64c.08-.14.11-.14.11,0a8.66,8.66,0,0,0,3.17,2.08A10.22,10.22,0,0,0,416.13,160.86Zm.55-15.31h.88a25.7,25.7,0,0,0,5.14-.77c-.08,0,0,0,.33-.11v3.17c-1.54.15-3,.22-4.49.22H416a43.21,43.21,0,0,1-4.49-.44l-.22-.11-.65-3.06.11-.11a5.41,5.41,0,0,0,.87.22A19,19,0,0,0,416.68,145.55Z"/><path d="M451.24,146.64l2.41,2.73v.22A40,40,0,0,0,443,154.08a13.2,13.2,0,0,0-3.39,3.28,3.8,3.8,0,0,0-.66,1.86v.44a3.4,3.4,0,0,0,2.08,3,8.5,8.5,0,0,0,3.72.65h.77a23.11,23.11,0,0,0,6.34-.87l.22,3.28c-1.9.15-3.72.22-5.47.22H445a10.06,10.06,0,0,1-5.8-1.2,5.44,5.44,0,0,1-2.84-4.93v-.54c.07-2.48,1.57-4.74,4.48-6.78a1.06,1.06,0,0,1,.55-.44,43.79,43.79,0,0,0-3.5-9.19l3-.55a62.6,62.6,0,0,1,3.28,8.21l3.94-2A12.89,12.89,0,0,0,451.24,146.64Z"/><path d="M466.56,143.14l3.72.87c-.08.22-.19.52-.33.88a4.16,4.16,0,0,0-.33.55,7.29,7.29,0,0,0-.22,1.2,1.9,1.9,0,0,0-.11.55,11.94,11.94,0,0,0-.22,1.31,5,5,0,0,0-.22,1.09,3,3,0,0,1,.88-.11,7.51,7.51,0,0,1,.87-.11,2.6,2.6,0,0,0,.66-.11h1.09a5.07,5.07,0,0,1,2.08.44,2.7,2.7,0,0,1,1.1,2.19v1.31a28.72,28.72,0,0,1-1,6.89q-.77,3.72-3,4.27a8,8,0,0,1-3.39.76h-.77q-.33-.76-.87-1.86a7.34,7.34,0,0,1-.44-1l.11-.22a5,5,0,0,1,.76.11,7.36,7.36,0,0,0,1.54.22H469a2.46,2.46,0,0,0,2.3-1.42,17.66,17.66,0,0,0,1-3,26.13,26.13,0,0,0,.66-5,1.26,1.26,0,0,0-1.53-1.31c-.37.07-.91.15-1.64.22l-1.64.33a35.83,35.83,0,0,1-6,12.14l-.22.11a10.11,10.11,0,0,0-1.75-.77,5,5,0,0,0-.87-.44v-.21a28.29,28.29,0,0,0,3.94-5.58,26.47,26.47,0,0,0,1.64-3.72,7.53,7.53,0,0,0,.43-1,30.81,30.81,0,0,0-3.28,1.1,1.59,1.59,0,0,1-1,.33l-1.2-3.07.21-.21a3,3,0,0,1,.66.1,1.62,1.62,0,0,0,.88,0c.5-.07,1.27-.21,2.29-.43s1.64-.37,2.08-.44a2.17,2.17,0,0,1,.11-.66,24.37,24.37,0,0,0,.55-5.14Zm16.73,10.61-.11.22-2.3,1.31a35.46,35.46,0,0,0-5.35-7.44v-.33l2.07-1.2A31.34,31.34,0,0,1,483.29,153.75Zm.77-7.33v.22l-1.43,1.2h-.21a8.45,8.45,0,0,0-2.63-2.84v-.22l1.31-1.09h.22A23.72,23.72,0,0,1,484.06,146.42Zm-1.53-3.72v-.22l1.31-1.09h.22a1.26,1.26,0,0,0,.32.22c.51.44,1.1,1,1.75,1.64a1.79,1.79,0,0,1,.66,1.09l-1.31,1.21h-.22A11.36,11.36,0,0,0,482.53,142.7Z"/><path d="M487.45,147.51h.65a15,15,0,0,0,3.28-.54l1.32-.33c1.38-.36,2.73-.69,4-1q3.61-.89,7.11-1.54a21.79,21.79,0,0,0,4.38-1,3.3,3.3,0,0,0,.33,1.2,3.75,3.75,0,0,1,.22,1.64l-1.54.33a7.6,7.6,0,0,0-3.71,1.2,8.68,8.68,0,0,0-3.18,4.71,15.72,15.72,0,0,0-.65,3.83v.65a5.77,5.77,0,0,0,1.64,4.27,6.38,6.38,0,0,0,4.26,1.64h.55a7,7,0,0,0,1.75-.22v3.28H507a12.8,12.8,0,0,1-6.9-1.86,8.64,8.64,0,0,1-3.28-6.89v-.55q0-4.26,3.39-9c-2.91.72-5.83,1.53-8.75,2.4a3.29,3.29,0,0,1-.76.22,3,3,0,0,0-1.53.88l-1.75-3.07Zm20.12,1.54,1.53-1.43c.22.22.51.55.88,1a17.62,17.62,0,0,1,1.75,2l-1.53,1.31A17.33,17.33,0,0,0,507.57,149.05Zm3-2.19,1.53-1.31a18.7,18.7,0,0,1,2.51,2.84l-1.64,1.31A22.66,22.66,0,0,0,510.53,146.86Z"/><path d="M533.38,143.69h.22a7.54,7.54,0,0,1,1,2.29,11.91,11.91,0,0,1-2.63,1.1l-.87.33a10.4,10.4,0,0,1,.87,1.53,13.53,13.53,0,0,1,.77,1.53c.44-.15,1.09-.4,2-.77l2-.65H537l1,2-.11.33-1.2.33a13.18,13.18,0,0,1-1.32.44,4.71,4.71,0,0,1-1.42.44,2.35,2.35,0,0,1,.33.65,47.17,47.17,0,0,0,3.06,4.27.35.35,0,0,0,.11.22,1.6,1.6,0,0,1,.44.87l-2.41,2.3a15.63,15.63,0,0,0-8.75-2.3h-.65a5.18,5.18,0,0,0-2.3.44,2,2,0,0,0-1,2.41q.11.43,1.2,1.2a5.44,5.44,0,0,0,2.51.87,16.69,16.69,0,0,0,3.29.33h.54a7.17,7.17,0,0,0,1.31-.11l-.21,3.06h-.77q-10.17-.54-10.61-5.9v-.55a4.28,4.28,0,0,1,2.19-3.17,10,10,0,0,1,4.37-1h1.1a18.8,18.8,0,0,1,5.47,1h.11c-.15-.22-.37-.58-.66-1.09s-.69-1.43-1.42-2.74a11.42,11.42,0,0,1-2.3.44,56.32,56.32,0,0,1-6,.55l-.21-.11-1.32-2.08.11-.22h.77a34.86,34.86,0,0,0,6.23-.55,4.66,4.66,0,0,0,1.53-.22c-.43-.94-.91-2-1.42-3.06a33.52,33.52,0,0,1-4.7,1,6.5,6.5,0,0,0-.66-1,4.6,4.6,0,0,1-.43-.65,1.62,1.62,0,0,1-.44-.77h.33c1.45-.22,3-.51,4.7-.88a7.49,7.49,0,0,0-.55-1.31l-.65-1.31a.66.66,0,0,0-.22-.44,2.61,2.61,0,0,1-.11-.65l2.95-.55c.44,1.24.88,2.41,1.31,3.5A31.12,31.12,0,0,0,533.38,143.69Z"/><path d="M553.73,141.94H554l3.28.87v.33a2.61,2.61,0,0,0-1.1,1.75,11.66,11.66,0,0,0-.65,1.86,3.58,3.58,0,0,1-.22.66l3.61-.66a3.29,3.29,0,0,0,.76-.22l.22.11v2.84c-1.75.3-3.5.51-5.25.66a2.69,2.69,0,0,1-.11.55c.08-.15,0-.08-.11.22a63.35,63.35,0,0,1-5.79,15l-3-.88-.1-.21a89.37,89.37,0,0,0,6.34-14.55,17.05,17.05,0,0,1-2.19.11c-.95.07-1.68.11-2.19.11l-.21-.11-.44-2.63.11-.22c.29,0,.76,0,1.42.11a10.1,10.1,0,0,0,1.31.11h.88a18.8,18.8,0,0,0,2.07-.11,2.68,2.68,0,0,0,.22-.65,17.08,17.08,0,0,0,.88-4.38Zm14.76,20.12-.32,3.06a28.34,28.34,0,0,1-3.61.22h-1.1a22.94,22.94,0,0,1-4.81-.54,2,2,0,0,1-.44-.11c-.51,0-.84-.11-1-.33l-.11-2.52a5.9,5.9,0,0,0,1,.22,28.65,28.65,0,0,0,4.82.55h.54A23.2,23.2,0,0,0,568.49,162.06Zm-6.34-10.72h1c1.17,0,2.41,0,3.72.11l.11,3-.11.1a24.79,24.79,0,0,0-4.7-.65h-1.09a9,9,0,0,0-2.41.33l.44-2.74h1.42C561.24,151.38,561.78,151.34,562.15,151.34Z"/><path d="M598,153.75v.76a10,10,0,0,1-3,6.9,13.47,13.47,0,0,1-5.47,3.93c0,.15-.07.15-.22,0a10,10,0,0,0-2.51-1.64v-.22c5.25-2.47,7.91-5.65,8-9.51v-.55a7.11,7.11,0,0,0-2.4-5,8.79,8.79,0,0,0-4.6-2,60.88,60.88,0,0,1-2.4,8,50.76,50.76,0,0,1-3.39,7.1q-1.42,2.63-3.5,2.63-3.28-.1-5.47-3.72a7.69,7.69,0,0,1-1.1-3.72v-.54a10.09,10.09,0,0,1,.88-3.61,13,13,0,0,1,2-3.29,12.43,12.43,0,0,1,5.9-4.48,15.65,15.65,0,0,1,5-1.09H587a11,11,0,0,1,8,2.95A10.38,10.38,0,0,1,598,153.75ZM575,155.61v.55a6.05,6.05,0,0,0,1.09,3.39,2.51,2.51,0,0,0,2.08,1.31,2.79,2.79,0,0,0,1.86-1.31,21.49,21.49,0,0,0,1.09-2c.15-.37.26-.62.33-.77a36.69,36.69,0,0,0,3.72-10.39,17.94,17.94,0,0,0-4.16,1.09,14.9,14.9,0,0,0-4.48,4.05A8.56,8.56,0,0,0,575,155.61Z"/><path d="M599.45,147.51h.65a15,15,0,0,0,3.28-.54l1.32-.33c1.38-.36,2.73-.69,4-1q3.62-.89,7.11-1.54a21.79,21.79,0,0,0,4.38-1,3.3,3.3,0,0,0,.33,1.2,3.75,3.75,0,0,1,.22,1.64l-1.54.33a7.6,7.6,0,0,0-3.71,1.2,8.68,8.68,0,0,0-3.18,4.71,15.72,15.72,0,0,0-.65,3.83v.65a5.77,5.77,0,0,0,1.64,4.27,6.38,6.38,0,0,0,4.26,1.64h.55a7,7,0,0,0,1.75-.22v3.28H619a12.8,12.8,0,0,1-6.9-1.86,8.64,8.64,0,0,1-3.28-6.89v-.55q0-4.26,3.39-9c-2.91.72-5.83,1.53-8.75,2.4a3.29,3.29,0,0,1-.76.22,3,3,0,0,0-1.53.88l-1.75-3.07Zm20.12,1.54,1.53-1.43c.22.22.51.55.88,1a17.62,17.62,0,0,1,1.75,2l-1.53,1.31A17.33,17.33,0,0,0,619.57,149.05Zm3-2.19,1.53-1.31a18.7,18.7,0,0,1,2.51,2.84l-1.64,1.31A22.66,22.66,0,0,0,622.53,146.86Z"/><path d="M639.15,164.25,637,166.44l-5.9-6.46,2.07-1.86Z"/><path d="M167.31,207.37q-.23-.31-1-1.2t-.87-1.2a40.43,40.43,0,0,0,5.9-12.91l3,.44c-.44,1.38-.92,2.73-1.43,4.05h6.79v2.73a24.51,24.51,0,0,1-11.49,18.81c-.15-.22-.55-.69-1.2-1.42a8.07,8.07,0,0,1-.88-1,23.06,23.06,0,0,0,7.44-7c-.29-.22-.73-.59-1.31-1.1-1.1-.94-2-1.67-2.63-2.18l1.75-2.19,3.61,2.84a25.23,25.23,0,0,0,1.86-6.78h-5A48.7,48.7,0,0,1,167.31,207.37ZM182,218.09v-26h3v9.19l1.31-1.09q3,2.73,6.23,6.12l-2.18,2a67.45,67.45,0,0,0-5.36-5.58v15.42Z"/><path d="M195,208.25l-1.53-2.63c1.67-2,2.44-4.77,2.29-8.42v-3.94h10.5v6.46h-8.09a7,7,0,0,1-.11,1,3.45,3.45,0,0,1-.11,1h8.42v6.45H197.6v-6A15.48,15.48,0,0,1,195,208.25Zm1.2,4.37v-2.18h9.41v-2.08h2.95v2.08h9.3v2.18h-9.3V215h11.59v2.3H194V215h11.6v-2.41Zm2.08-17.28v2.41h5.47v-2.41Zm1.75,8.32v2.51H204v-2.51Zm7.11-1.54v-2.18h3.06a3.69,3.69,0,0,0-.65-1c-.52-.94-.88-1.6-1.1-2l1.53-.22h-2.51v-2.18h4.81l-1-2.3,2.84-.44a16.81,16.81,0,0,1,.87,2.74h4.38v2.18h-2.63l1.54.22c-.3.44-.7,1.1-1.21,2l-.65,1h3.5v2.18h-5.25v2.19h4.48v2.19h-4.48v2.41h-2.74V206.5h-4.26v-2.19h4.26v-2.19Zm5.58-2.51-1.75.33h3c.73-1.32,1.31-2.37,1.75-3.18H211c.36.52.47.7.33.55C212,198.41,212.48,199.17,212.7,199.61Z"/><path d="M225.93,201.25c-1.31-.95-2.7-1.86-4.15-2.74l1.31-2c1.24.65,2.66,1.46,4.26,2.4Zm-1.75,11.37v-2.18h9.3v-1.53h3v1.53H246v2.18h-9.52v2.3h11.7v2.3H221.88v-2.3h11.6v-2.3Zm.66-3.39-2.41-1.31q1.86-3.06,3.5-6.23a15.49,15.49,0,0,0,1.53.76,4.71,4.71,0,0,0,.88.44C227.39,204.49,226.22,206.61,224.84,209.23ZM228,196.76c-.66-.43-1.6-1-2.84-1.75a12.47,12.47,0,0,1-1.43-.87l1.43-2.08q2.07,1.09,4.37,2.52Zm.55,12c-.37-.66-.77-1.32-1.21-2a32.86,32.86,0,0,0,5.69-3l1.42,1.64C232.28,206.83,230.31,207.92,228.56,208.8Zm4.26-9.41V198c-.29.14-.76.36-1.42.65a20.12,20.12,0,0,1-1.86.77c-.51-.8-1-1.57-1.42-2.3a22.71,22.71,0,0,0,9.19-5.36l2.95.33-.66.66a27.34,27.34,0,0,0,8.53,4.15,5.27,5.27,0,0,1-.32.55,16.13,16.13,0,0,0-1,1.86,1.17,1.17,0,0,0-.44-.22,21,21,0,0,1-2.95-1.31v1.64h-3.94v1.86h7.11v2.19h-7.11v2.29q.12,3.18-2.84,3.07c-1,.07-2,.11-3.06.11a12.31,12.31,0,0,0-.44-2.08c.88.07,1.68.11,2.41.11a1.16,1.16,0,0,0,1.31-1.32v-2.18h-7.55v-2.19h7.55v-1.86Zm5.25-5.14a19.78,19.78,0,0,1-4.48,3.17h9.29A24,24,0,0,1,238.07,194.25Zm8.31,14.55a28.13,28.13,0,0,0-3.28-1.75c-.94-.44-1.67-.81-2.18-1.1l1.2-1.75a1,1,0,0,0,.44.22,52.55,52.55,0,0,1,5.14,2.41Z"/><path d="M250,207.92v-2.41h12a15.51,15.51,0,0,0-1-1.85l2.74-.44a11,11,0,0,1,.65,1.31,8,8,0,0,0,.55,1h11.15v2.41H264.65a16.13,16.13,0,0,0,2.63,3.17c2.33-1.16,4.11-2.08,5.35-2.73l1.43,2.3-4.6,2.07a28.8,28.8,0,0,0,6.57,2.19,8.51,8.51,0,0,0-1.21,1.86q-.21.43-.33.66-9-2.3-12.14-8.53c-1,.87-2.07,1.71-3.17,2.51V215c1.82-.58,3.76-1.13,5.8-1.64a12.47,12.47,0,0,1-.11,1.42V216a45.08,45.08,0,0,0-5.91,1.53,7.29,7.29,0,0,0-1.31.43,4.55,4.55,0,0,0-.66.22l-1.31-2a2,2,0,0,0,.88-1.75v-1.42a30.83,30.83,0,0,1-5.58,2.3l-1.2-2.41a32.48,32.48,0,0,0,10.06-5Zm1-4.37-1.1-2.74a66.76,66.76,0,0,0,7-3.17V192h2.74v12.14h-2.74v-3.61C255.13,201.36,253.17,202.38,251,203.55Zm3-5.58q-1.63-1.75-3.39-3.5l2.08-1.53c1.16,1,2.3,2.07,3.39,3.17Zm6.89-.55V195H267V192h2.73V195H276v2.41h-6.35v3h5.58v2.3H261.59v-2.3H267v-3Z"/><path d="M286.09,193.26h.44l3.5.88v.22a2.34,2.34,0,0,0-.88,1.53c-.07.22-.18.55-.33,1-.29.81-.51,1.46-.65,2,1.45-.36,2.88-.69,4.26-1l.22.11-.33,2.84q-2.4.44-4.92.66a88.63,88.63,0,0,1-2.84,8.42,45,45,0,0,1-3.28,7.33l-.11.11-3.29-1.21a35.47,35.47,0,0,0,4.71-9.18c.36-.81.8-2,1.31-3.5.29-.81.51-1.39.66-1.75h-3.94a.65.65,0,0,1-.44-.11l-.44-2.74c.37,0,.92,0,1.64.11a15.88,15.88,0,0,0,1.65.11h2.29a17.59,17.59,0,0,0,.77-5.14Zm9.29,20.79h1.1a11.77,11.77,0,0,0,4.48-.66l-.22,3a23,23,0,0,1-3.82.33h-.77a22.53,22.53,0,0,1-6.56-1.2l.44-2.41a3.29,3.29,0,0,0,.76.22A21,21,0,0,0,295.38,214.05Zm.11-11.49h1a15,15,0,0,1,2.19.22,9.48,9.48,0,0,0,1.09.11l-.11,3a18.62,18.62,0,0,0-4.16-.65h-.87a17.17,17.17,0,0,0-2.3.22,4.71,4.71,0,0,1-.87.1l.22-2.62a12.52,12.52,0,0,0,1.31-.11A22,22,0,0,1,295.49,202.56Zm1.43-4.59v-.22l1.42-1.31c0-.15.07-.15.22,0a12.2,12.2,0,0,1,2.51,2l.55.54-.22.22-.11.11a3.27,3.27,0,0,1-1.31,1.09c0,.08-.07.08-.22,0C298.81,199.65,297.86,198.84,296.92,198Zm2.62-2.63,1.31-1.64a4.06,4.06,0,0,1,1.43.77,2.47,2.47,0,0,0,.54.44,17.08,17.08,0,0,0,1.31,1.2v.33l-1.53,1.31c0,.07-.07.07-.22,0a15.81,15.81,0,0,0-1.42-1.2,10.48,10.48,0,0,0-1.42-1.1Z"/><path d="M310.37,204.86v1.2a12.71,12.71,0,0,0,.87,5.25h.22a6.29,6.29,0,0,0,1-1.53,8.37,8.37,0,0,1,.54-1.09h.22l.88.65a18.42,18.42,0,0,0-1.31,6.13v.65a9.54,9.54,0,0,0-1.21.11,8,8,0,0,1-1.2.11,8.38,8.38,0,0,1-1.2-2.08,21.83,21.83,0,0,1-1.43-8.09v-1.53a27.18,27.18,0,0,1,.88-6.89,5,5,0,0,0,0-3.61,10.17,10.17,0,0,1,3.5.87,4.19,4.19,0,0,1-.33,1.32,1.62,1.62,0,0,0-.22.65A32,32,0,0,0,310.37,204.86Zm12-10.72,4.05.22a3.61,3.61,0,0,1-.22,1,1.6,1.6,0,0,0-.22.66,10.5,10.5,0,0,0-.11,1.42v.88c0,.65,0,1.35.11,2.07,1.31-.36,2.62-.69,3.94-1l.33,2.62a24.77,24.77,0,0,1-4.16,1v1.86a18.21,18.21,0,0,1-.77,6.78,11.73,11.73,0,0,1-4.48,5.91h-.11a1,1,0,0,1-.33-.11.73.73,0,0,0-.33-.11,12.51,12.51,0,0,0-2-1.1l-.1-.11a12,12,0,0,0,4.37-4.48c.8-1.53,1.17-3.83,1.09-6.89v-1.31c-1.46.07-2.95.11-4.48.11h-1.75l-1-2.85.1-.22a9.54,9.54,0,0,1,1.21.11,17.4,17.4,0,0,0,2.4.22h1.54a13.63,13.63,0,0,0,1.85-.11A22.32,22.32,0,0,0,322.4,194.14Z"/><path d="M340.45,196.76v.88c.65,1.31,1.31,2.59,2,3.83a.6.6,0,0,0,.43-.22,7.94,7.94,0,0,0,1-.44,27.53,27.53,0,0,1,4.7-2,15.25,15.25,0,0,1,5.47-1.2h.55a7,7,0,0,1,3.61,1,4.86,4.86,0,0,1,2,3.83v.66a5.24,5.24,0,0,1-3.39,4.81,19.78,19.78,0,0,1-6.78,1.42l-1.53-2.4v-.33h.66a17,17,0,0,0,5.25-.66c2.33-1,3.1-2.44,2.29-4.26a3.73,3.73,0,0,0-2.95-1.43h-.44a14.27,14.27,0,0,0-4.7,1.21l-.87.33c-1.32.58-2.63,1.2-3.94,1.86l-.11.1q.33.56.87,1.65a12.43,12.43,0,0,1,.88,1.64q2.83,5.35,3.94,8.09v.33l-2.52,1.2h-.22Q345,212.74,341.1,205c-.22.14-.58.36-1.09.65a23.1,23.1,0,0,0-2.73,1.64l-.22.22c-.37.3-.66.4-.88.33l-2.3-2.95a13.16,13.16,0,0,0,4.16-1.42l.77-.33a3.73,3.73,0,0,1,.54-.22,1,1,0,0,1,.55-.22c-.15-.22-.37-.58-.66-1.09a4.36,4.36,0,0,0-.43-1,2.13,2.13,0,0,1-.44-.87,20.07,20.07,0,0,0-1.31-1.86l.11-.22,3.06-.88Zm3.06-1.42,1.75-1.86a16.48,16.48,0,0,1,4.37,3.28l-2.07,1.75A16.75,16.75,0,0,0,343.51,195.34Z"/><path d="M378.4,197.86H379a6.71,6.71,0,0,1,4.59,1.64,6.62,6.62,0,0,1,2,4.59v.55a6,6,0,0,1-1,3.28,10,10,0,0,1-3,2.84,13.32,13.32,0,0,1-6.56,2.3L373.26,211a16.1,16.1,0,0,0,6.56-2.07c2.19-1.32,3.28-2.88,3.28-4.71v-.44q-.44-3.16-4.48-3.71h-.44a10.74,10.74,0,0,0-3.39.54c-.87.29-1.75.62-2.62,1-.3.14-.7.33-1.21.54a34.19,34.19,0,0,0-3.17,1.75c-.07,0-.15.08-.22.22a.84.84,0,0,1-.76.22l-2.3-2.62c2-.51,4.05-1.1,6-1.75a2,2,0,0,0,.43-.11C374.1,198.44,376.58,197.79,378.4,197.86Z"/><path d="M391.63,198.51H392l9.52-2c4.15-.88,7.29-1.5,9.4-1.86,1.1-.22,2.19-.4,3.29-.55l.21,3.17h-.65c-3.36,0-5.87.91-7.55,2.74a10.36,10.36,0,0,0-2.84,7.32v.44a5.78,5.78,0,0,0,1.53,4.27q1.53,1.63,4.81,1.53h1.86v3.28H409.9a10.17,10.17,0,0,1-6.89-2.41,8.57,8.57,0,0,1-2.3-6.34v-1.09q0-4.28,3.5-8.54c-.95.22-2.4.59-4.37,1.1-.95.22-1.68.4-2.19.55l-1,.32a12.7,12.7,0,0,0-3.29,1.21Z"/><path d="M428.06,192.39h.43l3.18.87v.22a1.63,1.63,0,0,0-.55.88l-.33.65c-.29,1-.55,1.94-.76,3a1,1,0,0,1-.11.33c-.08.21-.15.4-.22.54h2.08a10.75,10.75,0,0,0,1.85-.22,3.26,3.26,0,0,1,.66-.11l-.55,2.74a.44.44,0,0,1-.32.11h-4.27c-.07.51-.15,1.2-.22,2.08s-.25,1.82-.33,2.4a18.31,18.31,0,0,0,5.25.11v.44l-.43,2.19a.49.49,0,0,1-.33.11h-2.3c-.8,0-1.64,0-2.51-.11v.76a2.91,2.91,0,0,0-.11.77v1.09a4.1,4.1,0,0,0,1.09,2.85,4,4,0,0,0,2.52,1h.65a4.69,4.69,0,0,0,3.17-1.09,4.51,4.51,0,0,0,1.1-3v-.43c0-1.24-.7-3-2.08-5.14a2.55,2.55,0,0,0-.33-.55l3.17-.22a9.47,9.47,0,0,1,2.41,6.12v.55a6.33,6.33,0,0,1-2.3,4.81,6.72,6.72,0,0,1-4.81,1.65h-.66a6.89,6.89,0,0,1-4.7-1.86q-1.75-1.42-1.75-4.93v-1.09a14.68,14.68,0,0,1,.11-1.75,17.5,17.5,0,0,0-1.75-.55,11,11,0,0,0-1.86-.54l.22-2.74a15.7,15.7,0,0,0,3.72,1.1v-.55a15.79,15.79,0,0,0,.44-2c.14-.8.25-1.42.32-1.86q-1.31-.33-2.4-.66c-.59-.07-.88-.18-.88-.32l.22-2.74a22,22,0,0,0,3.39,1c.07-.22.18-.62.33-1.21a6.93,6.93,0,0,1,.22-1.09,4,4,0,0,1,.11-.77,14,14,0,0,0,.22-2.07Z"/><path d="M450.48,198.19l3.06.65a43.89,43.89,0,0,0-1,8.21c2.69-2.19,5.32-3.29,7.87-3.29h.77a9.29,9.29,0,0,1,4.92,1.21,5.54,5.54,0,0,1,2.3,4.15v.55a6.54,6.54,0,0,1-2.3,4.81,15.9,15.9,0,0,1-5,2.41,5.4,5.4,0,0,1-2.63.66L457,215.14V215a39,39,0,0,0,4.38-1c2.47-1,3.71-2.34,3.71-3.94v-.44q-.21-3-4-3.28h-.44a12,12,0,0,0-4.37,1.09,7.39,7.39,0,0,0-3.5,3.5l-3.18-1.09c.08-.58.18-1.49.33-2.73q.56-5.15.55-7.77Zm2.3-3.83,1.85-2.08a4.71,4.71,0,0,1,.88.44,36.66,36.66,0,0,1,4.81,2.4v.22l-1.86,2A30.16,30.16,0,0,0,452.78,194.36Z"/><path d="M474.87,196.76l.11-.1c1.31.21,2.55.47,3.72.76a2.74,2.74,0,0,1-.22.77,4.52,4.52,0,0,0-.22,1.2,7,7,0,0,0-.11,1.31v.77a20.5,20.5,0,0,0,.44,4.59,38.24,38.24,0,0,0,1.53,4.38c.51,1.16,1.13,1.75,1.86,1.75a2.6,2.6,0,0,0,1.64-.77,9.26,9.26,0,0,0,1.75-2.08h.22l1.31,2q.23.1,0,.33a4.79,4.79,0,0,1-1.53,2,5.19,5.19,0,0,1-3.61,1.53q-2.62,0-4.16-3.39a22.48,22.48,0,0,1-.76-2.19,6.73,6.73,0,0,0-.44-1.42,56.21,56.21,0,0,1-1-6.13,9.69,9.69,0,0,0-.11-1.09,8.53,8.53,0,0,0-.22-1c0-.37,0-.91-.11-1.64A8.63,8.63,0,0,0,474.87,196.76Zm16.3,2.85,2.51-.77h.22a38.63,38.63,0,0,1,4.27,7.11,7.2,7.2,0,0,1,1,2.41l-2.62,1.2h-.44a30.43,30.43,0,0,0-5-9.62Z"/><path d="M514.35,193.05l3.39.32.11.11a4.82,4.82,0,0,0-.43.88,1.46,1.46,0,0,1-.22.44v.43c-.08.59-.15,1.24-.22,2,.8-.07,1.93-.22,3.39-.44a12.24,12.24,0,0,0,1.42-.21l-.22,2.51a28,28,0,0,1-4.59.55,10.17,10.17,0,0,1,.11,1.75c.07.73.11,1.31.11,1.75h.22a21.81,21.81,0,0,0,4.81-.77l-.44,2.52a18.14,18.14,0,0,1-4.37.76c.07,1.68.18,3.43.32,5.25a19.49,19.49,0,0,1,6.13,3.39l-1.31,2a17.86,17.86,0,0,0-4.71-2.51,3.51,3.51,0,0,1-2.18,3.17,7.18,7.18,0,0,1-3.39.66h-1a5.48,5.48,0,0,1-4.05-1.43,3.05,3.05,0,0,1-.87-3.61,4.45,4.45,0,0,1,2.08-1.75,11.3,11.3,0,0,1,3.72-.65h1.09a8.91,8.91,0,0,1,1.64.22c-.44-.15-.37-.15.22,0a28.36,28.36,0,0,0-.22-3c-.07-.65-.11-1.16-.11-1.53h-2.3a34.51,34.51,0,0,1-3.93-.22l-.22-.11-.55-2.4v-.22c.29.07.66.15,1.09.22a20,20,0,0,0,3.07.33h2.73c0-1.1,0-2.37-.11-3.83h-.65c-1.9,0-3.72-.07-5.47-.22l-.22-.11-.66-2.52a16.56,16.56,0,0,1,2.19.22,25.06,25.06,0,0,0,2.73.22h2.08V196A23.57,23.57,0,0,0,514.35,193.05ZM512,212.19h-.66c-1.68.14-2.55.76-2.62,1.86.07.43.43.76,1.09,1a13.82,13.82,0,0,0,1.64.11h.66a4.66,4.66,0,0,0,2.4-.44,2.2,2.2,0,0,0,.77-1.75v-.44a9,9,0,0,1-1.1-.1A17,17,0,0,0,512,212.19Z"/><path d="M535,193.26h.21l3.5.66a13.34,13.34,0,0,1-.32,1.42v15.1a5,5,0,0,0,.65,2.95,3,3,0,0,0,2.3,1.09H542a4.09,4.09,0,0,0,1.85-.43,11.23,11.23,0,0,0,2.52-1.21,12.06,12.06,0,0,0,3.06-2.73h.22l1.31,2.51c.15.15.15.22,0,.22a13.42,13.42,0,0,1-4.59,3.28,9.74,9.74,0,0,1-4.81,1.21h-.33a6.37,6.37,0,0,1-3.61-1.1,4.3,4.3,0,0,1-2.19-3.17c-.07-1-.11-2.08-.11-3.17V195.56a5.73,5.73,0,0,0-.22-1.31A6.75,6.75,0,0,1,535,193.26Z"/><path d="M567.73,192.94H568l3.28.87v.33a2.61,2.61,0,0,0-1.1,1.75,11.66,11.66,0,0,0-.65,1.86,3.58,3.58,0,0,1-.22.66l3.61-.66a3.29,3.29,0,0,0,.76-.22l.22.11v2.84c-1.75.3-3.5.51-5.25.66a2.69,2.69,0,0,1-.11.55c.08-.15,0-.08-.11.22a63.35,63.35,0,0,1-5.79,15l-3-.87-.1-.22a89.37,89.37,0,0,0,6.34-14.55,17.05,17.05,0,0,1-2.19.11c-.95.07-1.68.11-2.19.11l-.21-.11-.44-2.63.11-.22c.29,0,.76,0,1.42.11a10.1,10.1,0,0,0,1.31.11h.88a18.8,18.8,0,0,0,2.07-.11,2.68,2.68,0,0,0,.22-.65,17.08,17.08,0,0,0,.88-4.38Zm14.76,20.12-.32,3.06a28.34,28.34,0,0,1-3.61.22h-1.1a22.94,22.94,0,0,1-4.81-.54,2,2,0,0,1-.44-.11c-.51,0-.84-.11-1-.33l-.11-2.52a5.9,5.9,0,0,0,1,.22,28.65,28.65,0,0,0,4.82.55h.54A23.2,23.2,0,0,0,582.49,213.06Zm-6.34-10.72h1c1.17,0,2.41,0,3.72.11l.11,3-.11.1a24.79,24.79,0,0,0-4.7-.65h-1.09a9,9,0,0,0-2.41.33l.44-2.74h1.42C575.24,202.38,575.78,202.34,576.15,202.34Z"/><path d="M589.06,213.39c.22-2.77,1.71-4.27,4.48-4.48,2.7.21,4.16,1.71,4.38,4.48-.3,2.48-1.75,3.86-4.38,4.16Q589.49,217.22,589.06,213.39Zm1.75,0c.14,1.46,1.05,2.26,2.73,2.41a2.54,2.54,0,0,0,2.63-2.41,2.66,2.66,0,0,0-2.63-2.73A2.69,2.69,0,0,0,590.81,213.39Z"/><path d="M68,254v-2.73h5.69v-4.05c-.44,0-1.06,0-1.86.11-1.46.14-2.51.22-3.17.22v-.22a18.3,18.3,0,0,0-.44-2.41q7.44-.43,12.8-1l.55,2.62a17,17,0,0,0-2.19.22c-1.24.07-2.19.15-2.84.22v4.27H82V254H76.53v3.06l.87-.87q3.82,3.06,5,4.26l-2,2.08q-1.3-1.3-3.93-3.72v10.28H73.68v-10.5a26.81,26.81,0,0,1-5.14,7,28.66,28.66,0,0,0-.87-3.72A20.71,20.71,0,0,0,73.35,254Zm15.43,8.64V246.23h2.73v16.41ZM85,268.77a3.16,3.16,0,0,0-.11-.66,7.9,7.9,0,0,0-.55-2.19c.73.07,2.08.11,4,.11,1.16,0,1.71-.62,1.64-1.86V243.28h2.84v21.77q.11,3.39-3.39,3.61H87.35C86.19,268.73,85.38,268.77,85,268.77Z"/><path d="M95.78,257.72V255H107.7v-2.84l7.65-4.92H98.18v-2.74h21.66v3.39l-9,5.69V255h11.37v2.74H110.87v7c.07,2.62-1.2,3.94-3.83,3.94-1.46.07-3,.11-4.7.11a27.67,27.67,0,0,0-.55-3c.66.07,1.9.11,3.72.11,1.53.07,2.26-.65,2.19-2.19v-6Z"/><path d="M143.24,248.64l2.41,2.73v.22A40,40,0,0,0,135,256.08a13.2,13.2,0,0,0-3.39,3.28,3.8,3.8,0,0,0-.66,1.86v.44a3.4,3.4,0,0,0,2.08,2.95,8.49,8.49,0,0,0,3.72.66h.77a23.11,23.11,0,0,0,6.34-.88l.22,3.28c-1.9.15-3.72.22-5.47.22H137a10.06,10.06,0,0,1-5.8-1.2,5.43,5.43,0,0,1-2.84-4.92v-.55c.07-2.48,1.57-4.74,4.48-6.78a1.06,1.06,0,0,1,.55-.44,43.79,43.79,0,0,0-3.5-9.19l2.95-.54a61.84,61.84,0,0,1,3.28,8.2l3.94-2A12.89,12.89,0,0,0,143.24,248.64Z"/><path d="M157,244.27h.21l3.5.65a13.34,13.34,0,0,1-.32,1.42v15.1a5,5,0,0,0,.65,2.95,3,3,0,0,0,2.3,1.09H164a4.09,4.09,0,0,0,1.85-.43,11.23,11.23,0,0,0,2.52-1.21,12.06,12.06,0,0,0,3.06-2.73h.22l1.31,2.51c.15.15.15.22,0,.22a13.42,13.42,0,0,1-4.59,3.28,9.74,9.74,0,0,1-4.81,1.21h-.33a6.37,6.37,0,0,1-3.61-1.1,4.3,4.3,0,0,1-2.19-3.17c-.07-1-.11-2.08-.11-3.17V246.56a5.73,5.73,0,0,0-.22-1.31A6.77,6.77,0,0,1,157,244.27Z"/><path d="M181.63,249.52H182l9.52-2c4.15-.88,7.29-1.5,9.4-1.86,1.1-.22,2.19-.4,3.29-.55l.21,3.17h-.65c-3.36,0-5.87.91-7.55,2.74a10.36,10.36,0,0,0-2.84,7.32v.44a5.78,5.78,0,0,0,1.53,4.27q1.53,1.64,4.81,1.53h1.86v3.28H199.9a10.17,10.17,0,0,1-6.89-2.41,8.57,8.57,0,0,1-2.3-6.34v-1.09q0-4.28,3.5-8.53c-1,.21-2.4.58-4.37,1.09-1,.22-1.68.4-2.19.55l-1,.32a12.7,12.7,0,0,0-3.29,1.21Z"/><path d="M208.1,250.72v-2.63h3.72v-5h3v5h3.6v2.63h-3.6v4.81l3.28-.76v3l-3.28.76v6.89q.1,3.06-3.29,3.29a26.85,26.85,0,0,1-2.73.11c-.15-.88-.33-1.79-.55-2.74h2.08q1.64,0,1.53-1.53v-5.36L208,260l-.32-3.07,4.15-.87v-5.36Zm10,16.51-1.43-2.29a8.39,8.39,0,0,0,2-3.07,163,163,0,0,0,5.8-18.59l3.17.55a189.72,189.72,0,0,1-6.89,20.34c.95-.07,2.41-.14,4.38-.22l4.59-.33q-1.64-4.69-3.39-9l2.84-.88q3.51,9,5.14,14l-2.84.88-.87-2.52q-5.15.11-9.85.66A9.78,9.78,0,0,0,218.06,267.23Z"/><path d="M241.46,253h.77a10.41,10.41,0,0,0,3.06-.66c1-.22,1.9-.48,2.84-.77a11.15,11.15,0,0,1,3.5-.54H252a4.07,4.07,0,0,1,3.61,2,6.14,6.14,0,0,1,1,3.6v1q-.12,6.78-6,11.81a1,1,0,0,0-.33.11.84.84,0,0,1-.33.11h-.1l-.11-.11a22.22,22.22,0,0,0-2.19-1.64v-.22a12.67,12.67,0,0,0,6.12-10.61v-.54c-.07-1.9-.87-2.89-2.4-3h-.44a7.34,7.34,0,0,0-2.84.88,1,1,0,0,1-.33.11,10.14,10.14,0,0,0-3,1.53l-.21.22c-.3.22-.51.29-.66.22l-2.3-3.18Zm4.6-7,1.09-2.63h.11a35.49,35.49,0,0,0,7.66,2.3l.11.11a5.67,5.67,0,0,0-.22,1,18.87,18.87,0,0,0-.44,1.86l-.11.11a8.16,8.16,0,0,1-2.08-.44.33.33,0,0,0-.22-.11c-1-.29-2.48-.73-4.37-1.31-.59-.22-1.06-.4-1.42-.55Z"/><path d="M270.88,244.81h.77c.36,0,.91,0,1.64.11a8.91,8.91,0,0,0,1.64.22l.11.22a17.2,17.2,0,0,0-.76,4.48,3.72,3.72,0,0,1,1.09-.32c1.09-.37,1.93-.66,2.51-.88l.11,2.73a38.46,38.46,0,0,1-3.93,1.1,16.15,16.15,0,0,0-.11,2v1.86a14.15,14.15,0,0,1,5.9-1.53h.44a8.13,8.13,0,0,1,4.38,1.09,5,5,0,0,1,2.18,3.94v.54a5.48,5.48,0,0,1-.65,2.63,7.06,7.06,0,0,1-2,2.19,11.63,11.63,0,0,1-5.8,2,27.67,27.67,0,0,0-1.75-2.51,12.13,12.13,0,0,0,3.61-.77,5.74,5.74,0,0,0,3.06-2.18,3,3,0,0,0,0-2.74,3.93,3.93,0,0,0-3.28-1.53h-.54a12.31,12.31,0,0,0-5.36,1.53,4.25,4.25,0,0,0,.11.88c0,.36,0,.94.1,1.75.15,1.53.22,2.69.22,3.5v.54a2.75,2.75,0,0,1-1.64,2.63,5.8,5.8,0,0,1-3.17-.55c-2.62-.95-3.94-2.19-3.94-3.72a5.26,5.26,0,0,1,1.53-3.39,16.72,16.72,0,0,1,3.83-2.95c-.07-1.6-.07-3.14,0-4.59a11.72,11.72,0,0,0-1.31.1,22.36,22.36,0,0,1-2.62.22h-.77l-.33-2.73.11-.22a13,13,0,0,0,2.41.22,12.22,12.22,0,0,0,2.62-.22A45.94,45.94,0,0,0,270.88,244.81Zm.55,15.75a.33.33,0,0,0-.22.11,4.78,4.78,0,0,0-2.29,2.3,1.67,1.67,0,0,0,.43,1.64c.88.73,1.57.87,2.08.44q.33-.23.33-1a8.39,8.39,0,0,0-.22-1.86v-.87A5,5,0,0,1,271.43,260.56Zm16.63-9.62.11.11-1.32,2.29h-.22a59.62,59.62,0,0,0-5.35-3.17V250l1.31-1.86.22-.11A51.92,51.92,0,0,1,288.06,250.94Z"/><path d="M316.71,253.67c-1.31-.58-2.51-1.13-3.61-1.64v2.08h-6.56v2.95h9.3v2.63h-9.3v6.12h10.94v2.41H292.54v-2.41h10.94v-6.12h-9.3v-2.63h9.3v-2.95H296.7v-1.86c-1,.51-2.15,1.06-3.39,1.64-.15-.22-.33-.51-.55-.87-.51-.81-.88-1.39-1.09-1.75q9.07-3.51,12.46-8.54l3.4.33-.66.88a22.55,22.55,0,0,0,11.37,6.89c-.14.29-.4.76-.76,1.42S316.86,253.38,316.71,253.67Zm-18,11.81c-.59-.72-1.68-2-3.29-3.93l2.19-1.43q1.2,1.32,3.06,3.5c-.14-.14,0,0,.33.44ZM305.23,246a28.33,28.33,0,0,1-7.11,5.57h14A26,26,0,0,1,305.23,246Zm5.8,19.46-2.19-1.42a1.43,1.43,0,0,0,.22-.33q2.18-2.4,3.17-3.61l2.4,1.32C313.69,262.53,312.48,263.88,311,265.48Z"/><path d="M329.73,243.39l3.5.88v.21l-.77.88c-.07.22-.22.58-.43,1.09a4.55,4.55,0,0,1-.44,1.21,19.27,19.27,0,0,0,4.37-1.1v3a31.58,31.58,0,0,1-5.36.87,18,18,0,0,1-1.64,3.17,8.38,8.38,0,0,1,3.07-.87h.43a4.46,4.46,0,0,1,1.1.22l.22.11a3.85,3.85,0,0,1,1.31,1.2,4,4,0,0,1,.87,2.19c.66-.3,1.28-.55,1.86-.77l1-.33a16.25,16.25,0,0,0,2-.76,2.06,2.06,0,0,0,.43-.33q.44-.43.66-.33l2.3,2.63v.32a65.47,65.47,0,0,0-7.77,2.08,7.47,7.47,0,0,1,.22,1.86v.77a12.72,12.72,0,0,1-.22,1.86,6.84,6.84,0,0,0-.11,1h-2.73a8,8,0,0,1,.11-1.2V260a10.5,10.5,0,0,0-2.41,1.42c-1.39.94-1.86,2-1.42,3.06s1.53,1.53,3.72,1.53H334a25.69,25.69,0,0,0,5.47-.76l.33,3.17a29.32,29.32,0,0,1-4.37.33h-1.64a9.45,9.45,0,0,1-4.49-1,4.05,4.05,0,0,1-2.3-3.17v-.44a7,7,0,0,1,3.18-5,14,14,0,0,1,2.18-1.2c.51-.29.91-.51,1.21-.66a2.85,2.85,0,0,0-1.21-2.19,3.71,3.71,0,0,0-2.07.22c-1.61.8-3.36,2.74-5.25,5.8a4.3,4.3,0,0,0-.44.66l-2.74-1.21a50,50,0,0,0,5.91-9.95h-3.17l-.77-2.63v-.21a14.83,14.83,0,0,0,2.3.21h2.73a1.44,1.44,0,0,0,.11-.43,8.72,8.72,0,0,0,.77-3.5Z"/><path d="M359.15,266.25,357,268.44l-5.9-6.46,2.07-1.86Z"/><path d="M379.93,252.25c-1.31-.95-2.7-1.86-4.15-2.73l1.31-2c1.24.65,2.66,1.46,4.26,2.4Zm-1.75,11.37v-2.18h9.3v-1.53h2.95v1.53H400v2.18h-9.52v2.3h11.7v2.3H375.88v-2.3h11.6v-2.3Zm.66-3.39-2.41-1.31q1.86-3.06,3.5-6.23a15.49,15.49,0,0,0,1.53.76,4.71,4.71,0,0,0,.88.44C381.39,255.49,380.22,257.61,378.84,260.23ZM382,247.77c-.66-.44-1.6-1-2.84-1.75a13.78,13.78,0,0,1-1.43-.88l1.43-2.08q2.07,1.09,4.37,2.52Zm.55,12c-.37-.66-.77-1.32-1.21-2a32.86,32.86,0,0,0,5.69-3l1.42,1.65Q385.19,258.49,382.56,259.8Zm4.26-9.41V249c-.29.14-.76.36-1.42.65a20.12,20.12,0,0,1-1.86.77c-.51-.8-1-1.57-1.42-2.3a22.71,22.71,0,0,0,9.19-5.36l2.95.33-.66.66a27.34,27.34,0,0,0,8.53,4.15,5.27,5.27,0,0,1-.32.55,16.13,16.13,0,0,0-1,1.86,1.17,1.17,0,0,0-.44-.22,21,21,0,0,1-2.95-1.31v1.64h-3.94v1.86h7.11v2.19h-7.11v2.29q.12,3.18-2.84,3.07c-.95.07-2,.11-3.06.11a12.31,12.31,0,0,0-.44-2.08c.88.07,1.68.11,2.41.11a1.16,1.16,0,0,0,1.31-1.32v-2.18h-7.55v-2.19h7.55v-1.86Zm5.25-5.14a19.78,19.78,0,0,1-4.48,3.17h9.29A24,24,0,0,1,392.07,245.25Zm8.31,14.55a28.13,28.13,0,0,0-3.28-1.75c-.94-.44-1.67-.81-2.18-1.1l1.2-1.75a1,1,0,0,0,.44.22,52.55,52.55,0,0,1,5.14,2.41Z"/><path d="M412.31,252.47V253a6.6,6.6,0,0,0,.43,2.62H413l1.1-1.75h.32l1.21,1.09c-.15.3-.33.7-.55,1.21a10.93,10.93,0,0,0-1.2,4.26v.44a15.56,15.56,0,0,1-2.63.22,9,9,0,0,1-1.09-2.84,17.85,17.85,0,0,1-.66-4.93v-.87a28.72,28.72,0,0,1,.44-4.05,22.44,22.44,0,0,0,.44-3.61c1.09.07,2.15.18,3.17.33a21.51,21.51,0,0,0-.55,2.3A26.78,26.78,0,0,0,412.31,252.47Zm7.65-7.66,3.61-.33.22.11a11.48,11.48,0,0,0,.22,3.72,4.58,4.58,0,0,0,.22,1.21,37.48,37.48,0,0,1,.33,4.15v1.75a15.88,15.88,0,0,1-1.21,6.67,16.42,16.42,0,0,1-4.59,6.68q-.11.21-.33,0l-2.51-1.21-.11-.22a17.45,17.45,0,0,0,3.93-4.7,16.18,16.18,0,0,0,1.75-7.55V253A19.89,19.89,0,0,0,420,244.81Z"/><path d="M443,256.73c-.44-.36-1.2-.94-2.3-1.75-.8-.65-1.38-1.13-1.75-1.42a9.57,9.57,0,0,1-3.71,3.5h19.57V269.2H452v-1.31H437.9v1.31h-2.84v-12c-.66.29-1.35.62-2.08,1a7.73,7.73,0,0,0-1.1-1.86,3,3,0,0,0-.32-.44c3.2-1.24,5.1-2.63,5.68-4.16H432v-2.18h5.8v-1.86h-5.14v-2.08h5.14l.11-2.52h2.63l-.11,2.52h3.71v2.08h-3.82v1.86h4v2.18H440.2c1.31.81,2.77,1.79,4.37,3q3.82-1.42,4.49-3h-3.61v-2.18h4.15V249a4.25,4.25,0,0,0,.11-.88v-.43h-4v-2.08h4v-2.52h2.63l-.11,2.52h5v2.08h-5l-.11,1.53v.33h5.69v2.18h-5.25c.87,1.68,2.77,2.92,5.68,3.72-.43.73-.87,1.53-1.31,2.41-3.06-1.24-5.07-2.77-6-4.6-.59,1.24-2.23,2.45-4.93,3.61a15.17,15.17,0,0,0-1.42-2.18Zm-5.14,2.52v2.3H452v-2.3Zm0,4.27v2.29H452v-2.29Z"/><path d="M464,252.36h.55a30.07,30.07,0,0,0,5.79-.55,11.7,11.7,0,0,0,3.72-.76c.37-.15.59-.29.66-.44H475l2.51,1.53c.15.07.19.22.11.44v.11a17.65,17.65,0,0,0-3.5,3.72l-1.31,1.64h.77a3.38,3.38,0,0,1,2.07.65,4.46,4.46,0,0,1,.77,2.19,7.15,7.15,0,0,1,.22,1,12.28,12.28,0,0,0,.44,2,1.66,1.66,0,0,0,1.53,1.43h1.31a16.66,16.66,0,0,0,3.94-.55v2.95a29.21,29.21,0,0,1-3.5.22H478a3.48,3.48,0,0,1-3.06-1.42,9.55,9.55,0,0,1-1.1-3.28,1.84,1.84,0,0,0-.1-.55,8.35,8.35,0,0,0-.22-1.09,1.63,1.63,0,0,0-1.43-1,3.06,3.06,0,0,0-2.29,1.31,59.66,59.66,0,0,0-4.71,6h-.21a21.5,21.5,0,0,0-2.74-1.75V266a87.5,87.5,0,0,0,7.66-8.42,19.83,19.83,0,0,0,2.62-3.72l-.11-.22a11.32,11.32,0,0,1-3.28.88,13.33,13.33,0,0,0-2.51.65,1.12,1.12,0,0,0-.55.22c-.22.22-.4.29-.55.22Zm7-8.75h.22a34.56,34.56,0,0,0,5.36,2.51,1,1,0,0,0,.33.22.81.81,0,0,1,.54.33l-.87,2.3-.33.11a34.63,34.63,0,0,1-6.45-3.06v-.22Z"/><path d="M491.17,245.14l3.82,1.2a6,6,0,0,1-.54,1.43q-.22.54-.33.87a22,22,0,0,0-1.75,8.64v.88a10.3,10.3,0,0,0,1.09,5h.11c.15-.29.33-.7.55-1.21a8.34,8.34,0,0,0,.55-1.09l1.2.22q-.11.54-.33,1.53a18.3,18.3,0,0,0-.55,3.5v.66l-2.62.54a10.07,10.07,0,0,1-2-4.26,23.3,23.3,0,0,1-.55-5.58v-1.2a28.39,28.39,0,0,1,.88-7,15.89,15.89,0,0,0,.44-3.61ZM505,262.64h1a23.19,23.19,0,0,0,6.13-.87l.11,3a15.26,15.26,0,0,1-5,.76h-1.2c-3.43,0-6-.8-7.76-2.4a2.91,2.91,0,0,1-.88-1.31l2-1.21A7.45,7.45,0,0,0,505,262.64Zm.11-15.09h1.2a39.75,39.75,0,0,1,4.27.22v2.84c-.52,0-1.21,0-2.08-.11s-1.53-.11-2-.11h-1.2a21.86,21.86,0,0,0-3.07.33,17.56,17.56,0,0,1-2.84.33l-.22-3a20,20,0,0,0,2.52-.22A28,28,0,0,1,505.06,247.55Z"/><path d="M518.62,269.09V255.53a22,22,0,0,1-2.3,3.5,23.14,23.14,0,0,0-.44-2.3q-.11-1-.21-1.53a45.67,45.67,0,0,0,5-12.14l2.84.66a45.16,45.16,0,0,1-2.19,6.34v19Zm22.2-.22q-7.22-.76-10.5-2.62a25.86,25.86,0,0,1-6.34,3.06,9.82,9.82,0,0,1-.77-1c-.43-.66-.8-1.17-1.09-1.53a23.31,23.31,0,0,0,5.69-2,16.56,16.56,0,0,1-3.18-3.5l2-1.42a16.45,16.45,0,0,0,3.18,3.17,7.87,7.87,0,0,0,1.2-3.72H524.2v-8.31h7v-2.41h-7.66v-2.52h7.66v-3.06h2.95v3.06H542v2.52h-8v2.41h7v8.86H538.2v-.55h-4.38a10.15,10.15,0,0,1-1.64,5.14c2,.95,5.32,1.49,9.85,1.64C541.59,267.09,541.19,268,540.82,268.87ZM531.09,257v-.33a1,1,0,0,0,.11-.43v-2.85H527V257Zm2.95-.65V257h4.16v-3.61H534Z"/><path d="M548,252.36h.55a30.07,30.07,0,0,0,5.79-.55,11.7,11.7,0,0,0,3.72-.76c.37-.15.59-.29.66-.44H559l2.51,1.53c.15.07.19.22.11.44v.11a17.65,17.65,0,0,0-3.5,3.72l-1.31,1.64h.77a3.38,3.38,0,0,1,2.07.65,4.46,4.46,0,0,1,.77,2.19,7.15,7.15,0,0,1,.22,1,12.28,12.28,0,0,0,.44,2,1.66,1.66,0,0,0,1.53,1.43h1.31a16.66,16.66,0,0,0,3.94-.55v2.95a29.21,29.21,0,0,1-3.5.22H562a3.48,3.48,0,0,1-3.06-1.42,9.55,9.55,0,0,1-1.1-3.28,1.84,1.84,0,0,0-.1-.55,8.35,8.35,0,0,0-.22-1.09,1.63,1.63,0,0,0-1.43-1,3.06,3.06,0,0,0-2.29,1.31,59.66,59.66,0,0,0-4.71,6h-.21a21.5,21.5,0,0,0-2.74-1.75V266a87.5,87.5,0,0,0,7.66-8.42,19.83,19.83,0,0,0,2.62-3.72l-.11-.22a11.32,11.32,0,0,1-3.28.88,13.33,13.33,0,0,0-2.51.65,1.12,1.12,0,0,0-.55.22c-.22.22-.4.29-.55.22Zm7-8.75h.22a34.56,34.56,0,0,0,5.36,2.51,1,1,0,0,0,.33.22.81.81,0,0,1,.54.33l-.87,2.3-.33.11a34.63,34.63,0,0,1-6.45-3.06v-.22Z"/><path d="M576.7,246.56h1.53a25.82,25.82,0,0,0,8.09-1.09,1,1,0,0,0,.44-.11,1.6,1.6,0,0,1,.66-.22h.11l2.84,2.3v.11a11.23,11.23,0,0,0-2.52,2.4c-.36.44-.94,1.13-1.75,2.08s-1.42,1.57-1.86,2.08a12.66,12.66,0,0,0,1.32-.11,9.57,9.57,0,0,1,1.2-.11h.55a7.76,7.76,0,0,1,4.81,1.75,6.06,6.06,0,0,1,2.08,4.7v.33a6.5,6.5,0,0,1-3.28,5.36,9.85,9.85,0,0,1-5.47,1.64H585q-5-.44-5.36-3.72v-.43q.33-2.85,3.72-3.18h.55q2.73,0,5.36,3.5a4.73,4.73,0,0,0,1.75-3.39v-.54q-.33-3.07-4-3.39h-.55a9.32,9.32,0,0,0-7.33,3.82.28.28,0,0,1-.11.22,1.85,1.85,0,0,1-.54.55l-2.63-2v-.33a41,41,0,0,0,9.3-10.17,15.13,15.13,0,0,0-6,1.31c-.07,0-.14.08-.22.22a.84.84,0,0,1-.76.22l-1.42-3.61ZM584,265.27h.54a4.59,4.59,0,0,0,1.42-.22,1.52,1.52,0,0,0-.76-1.21,2.58,2.58,0,0,0-2.63-.87c-.65.36-.84.84-.54,1.42S583,265.19,584,265.27Z"/><path d="M614.87,247.66v2.84a33.16,33.16,0,0,1-4.81,1.2,46.1,46.1,0,0,1-5.69,12.14H604l-2.51-1-.11-.22a37.46,37.46,0,0,0,5.68-10.72,28.23,28.23,0,0,1-3.61.22l-.32-2.95H604a21.31,21.31,0,0,0,2.41-.11,4.87,4.87,0,0,0,.87-.11H608a16.24,16.24,0,0,0,.76-4.7v-.66a10.38,10.38,0,0,0,1.64.44,10.75,10.75,0,0,1,1.54.43,4.31,4.31,0,0,1-.33,1.43,3.27,3.27,0,0,0-.22,1,5.07,5.07,0,0,1-.11.88,7.73,7.73,0,0,1-.22.87A23.64,23.64,0,0,0,614.87,247.66Zm.22,4.7h.22l2.51.55a8.37,8.37,0,0,1-.11,1.31c0,.95.07,2.44.22,4.48.07,1.24.11,2.19.11,2.85a24.25,24.25,0,0,1,5.8,2.51v.33l-1.1,2.41a1.94,1.94,0,0,1-1.09-.55c-.15-.15-.26-.22-.33-.22a23.7,23.7,0,0,0-3.28-1.42,4.69,4.69,0,0,1-.33,1.86,2.07,2.07,0,0,1-.54.76,1.43,1.43,0,0,1-.22.33,4.7,4.7,0,0,1-3.61,1.21h-.66a4.82,4.82,0,0,1-3.72-1.43,3.3,3.3,0,0,1-.76-3.17,3.86,3.86,0,0,1,1.53-2.08,8.36,8.36,0,0,1,3.94-1h.76a4.28,4.28,0,0,1,1,.11Q615.3,256.74,615.09,252.36Zm-1.64,11.16H613a2.48,2.48,0,0,0-2.19,1.09c-.29,1,.18,1.64,1.42,1.86h1c1.38-.08,2.11-1,2.19-2.63A6.2,6.2,0,0,0,613.45,263.52Zm9.62-8.75h-.22a27.19,27.19,0,0,0-4.81-4.38l1.53-2.08h.22q2,1.42,3.83,3.06a2.29,2.29,0,0,1,1,1.21Z"/><path d="M652.28,260l1.31,2.73q.21.22,0,.33l-.77.76q-4.05,4.61-7.33,4.49h-.43a3.75,3.75,0,0,1-3.07-1.86,7.76,7.76,0,0,1-.87-3.61c-.07-.51-.18-1.28-.33-2.3s-.15-1.68-.22-2.19-.29-.91-.65-1a4.06,4.06,0,0,0-2.08.77,7,7,0,0,0-2.08,1.75,18,18,0,0,0-3.61,6.12c-.07.15-.22.44-.44.88a4.46,4.46,0,0,1-.43,1l-2.85-.77a66.7,66.7,0,0,1,5-10.39q1.53-2.73,2.3-4.15l1.31-2.3c.37-.66.66-1.17.88-1.53.07-.15.14-.33.22-.55a12.7,12.7,0,0,0,1.53-3.93h.43l3.72,1.75v.32a25.46,25.46,0,0,0-3.61,4.27,35.48,35.48,0,0,0-2.29,3.94,12.93,12.93,0,0,0-1.32,2.07,1.57,1.57,0,0,1,.33-.21c.66-.37,1.13-.62,1.42-.77,2.26-.95,3.8-.73,4.6.66a5.24,5.24,0,0,1,.65,2.07v.22a12.79,12.79,0,0,0,.11,1.43c.08,1.31.15,2.29.22,3a2.88,2.88,0,0,0,1.1,2.19,1.89,1.89,0,0,0,2.29,0,16.18,16.18,0,0,0,4.27-4.38A8.45,8.45,0,0,1,652.28,260Z"/><path d="M657.63,249.52H658l9.52-2c4.15-.88,7.29-1.5,9.4-1.86,1.1-.22,2.19-.4,3.29-.55l.21,3.17h-.65c-3.36,0-5.87.91-7.55,2.74a10.36,10.36,0,0,0-2.84,7.32v.44a5.78,5.78,0,0,0,1.53,4.27q1.53,1.64,4.81,1.53h1.86v3.28H675.9a10.17,10.17,0,0,1-6.89-2.41,8.57,8.57,0,0,1-2.3-6.34v-1.09q0-4.28,3.5-8.53c-1,.21-2.4.58-4.37,1.09-1,.22-1.68.4-2.19.55l-1,.32a12.7,12.7,0,0,0-3.29,1.21Z"/><path d="M695.15,266.25,693,268.44l-5.9-6.46,2.07-1.86Z"/><path d="M190.06,319.66c-.15-.81-.33-1.68-.55-2.63h6.23c1.68.07,2.56-.44,2.63-1.53a12.13,12.13,0,0,0,.22-2.3h-12.8l.66-3.28c-1.83.95-3.72,1.86-5.69,2.74-.37-1-.77-1.86-1.2-2.74a78.59,78.59,0,0,0,11.59-5.47H180.1v-2.4h9.08V299.2h-7v-2.4h7v-2.74H192v2.74h6v2.4h-6v2.85h2.84a82.94,82.94,0,0,0,7.44-6.57l2.29,1.75q-2.73,2.52-5.57,4.82h7v2.4h-10.4c-.94.66-2,1.32-3.06,2h11.71v2.41H189.51l-.44,2.08h12.8c-.07.51-.15,1.27-.22,2.29-.15,1.32-.26,2.23-.33,2.74-.14,2.48-1.68,3.68-4.59,3.61Q195.41,319.65,190.06,319.66Z"/><path d="M212,303.36h.55a30.07,30.07,0,0,0,5.79-.55,11.7,11.7,0,0,0,3.72-.76c.37-.15.59-.29.66-.44H223l2.51,1.53c.15.07.19.22.11.44v.11a17.65,17.65,0,0,0-3.5,3.72l-1.31,1.64h.77a3.38,3.38,0,0,1,2.07.65,4.46,4.46,0,0,1,.77,2.19,7.15,7.15,0,0,1,.22,1,12.28,12.28,0,0,0,.44,2,1.66,1.66,0,0,0,1.53,1.43h1.31a16.66,16.66,0,0,0,3.94-.55v2.95a29.21,29.21,0,0,1-3.5.22H226a3.45,3.45,0,0,1-3.06-1.42,9.55,9.55,0,0,1-1.1-3.28,1.84,1.84,0,0,0-.1-.55,8.35,8.35,0,0,0-.22-1.09,1.63,1.63,0,0,0-1.43-1,3.06,3.06,0,0,0-2.29,1.31,59.66,59.66,0,0,0-4.71,6h-.21a21.5,21.5,0,0,0-2.74-1.75V317a87.5,87.5,0,0,0,7.66-8.42,19.83,19.83,0,0,0,2.62-3.72l-.11-.22a11.32,11.32,0,0,1-3.28.88,13.33,13.33,0,0,0-2.51.65,1.12,1.12,0,0,0-.55.22c-.22.22-.4.29-.55.22Zm7-8.75h.22a34.56,34.56,0,0,0,5.36,2.51,1,1,0,0,0,.33.22.81.81,0,0,1,.54.33l-.87,2.3-.33.11a34.63,34.63,0,0,1-6.45-3.06v-.22Z"/><path d="M245.73,294.94H246l3.28.87v.33a2.64,2.64,0,0,0-1.1,1.75,11.66,11.66,0,0,0-.65,1.86,3.58,3.58,0,0,1-.22.66l3.61-.66a3.29,3.29,0,0,0,.76-.22l.22.11v2.84c-1.75.3-3.5.51-5.25.66a2.69,2.69,0,0,1-.11.55l-.11.22a63.35,63.35,0,0,1-5.79,15l-3-.87-.1-.22a89.37,89.37,0,0,0,6.34-14.55,17.05,17.05,0,0,1-2.19.11c-1,.07-1.68.11-2.19.11l-.21-.11-.44-2.63.11-.21c.29,0,.76,0,1.42.1a10.1,10.1,0,0,0,1.31.11h.88a18.8,18.8,0,0,0,2.07-.11,2.68,2.68,0,0,0,.22-.65,17.08,17.08,0,0,0,.88-4.38Zm14.76,20.12-.32,3.06a28.34,28.34,0,0,1-3.61.22h-1.1a22.94,22.94,0,0,1-4.81-.54,2,2,0,0,1-.44-.11c-.51,0-.84-.11-1-.33l-.11-2.52a5.9,5.9,0,0,0,1,.22,28.65,28.65,0,0,0,4.82.55h.54A23.2,23.2,0,0,0,260.49,315.06Zm-6.34-10.72h1c1.17,0,2.41,0,3.72.11l.11,3-.11.11a24.17,24.17,0,0,0-4.7-.66h-1.09a9,9,0,0,0-2.41.33l.44-2.74h1.42C253.24,304.38,253.78,304.34,254.15,304.34Z"/><path d="M276.13,313.86h2.3a35,35,0,0,0,8.1-1v3.5a45.21,45.21,0,0,1-8.43.66h-1.64a12.39,12.39,0,0,1-5.14-.87,13.3,13.3,0,0,1-3.83-2.85V313l1.86-1.64c.08-.14.11-.14.11,0a8.66,8.66,0,0,0,3.17,2.08A10.22,10.22,0,0,0,276.13,313.86Zm.55-15.31h.88a25.7,25.7,0,0,0,5.14-.77c-.08,0,0,0,.33-.11v3.17c-1.54.15-3,.22-4.49.22H276a43.21,43.21,0,0,1-4.49-.44l-.22-.1-.65-3.07.11-.11a5.41,5.41,0,0,0,.87.22A19,19,0,0,0,276.68,298.55Z"/><path d="M311.24,299.64l2.41,2.73v.22A40,40,0,0,0,303,307.08a13.2,13.2,0,0,0-3.39,3.28,3.8,3.8,0,0,0-.66,1.86v.44a3.4,3.4,0,0,0,2.08,2.95,8.49,8.49,0,0,0,3.72.66h.77a23.11,23.11,0,0,0,6.34-.88l.22,3.28c-1.9.15-3.72.22-5.47.22H305a10.06,10.06,0,0,1-5.8-1.2,5.43,5.43,0,0,1-2.84-4.92v-.55c.07-2.48,1.57-4.74,4.48-6.78a1.06,1.06,0,0,1,.55-.44,43.79,43.79,0,0,0-3.5-9.19l3-.54a61.84,61.84,0,0,1,3.28,8.2l3.94-2A12.89,12.89,0,0,0,311.24,299.64Z"/><path d="M330.06,294.39h.43l3.18.88v.21a1.63,1.63,0,0,0-.55.88l-.33.66c-.29.94-.55,1.93-.76,3a1,1,0,0,1-.11.33,5.37,5.37,0,0,1-.22.54h2.08a10.75,10.75,0,0,0,1.85-.22,3.09,3.09,0,0,1,.66-.1l-.55,2.73a.44.44,0,0,1-.32.11h-4.27c-.07.51-.15,1.2-.22,2.08s-.25,1.82-.33,2.4a18.31,18.31,0,0,0,5.25.11v.44l-.43,2.19a.49.49,0,0,1-.33.11h-2.3c-.8,0-1.64,0-2.51-.11v.76a2.91,2.91,0,0,0-.11.77v1.09a4.1,4.1,0,0,0,1.09,2.85,4,4,0,0,0,2.52,1h.65a4.69,4.69,0,0,0,3.17-1.09,4.51,4.51,0,0,0,1.1-3v-.43c0-1.24-.7-3-2.08-5.14a2.55,2.55,0,0,0-.33-.55l3.17-.22a9.48,9.48,0,0,1,2.41,6.13v.54a6.33,6.33,0,0,1-2.3,4.81,6.72,6.72,0,0,1-4.81,1.65h-.66a6.89,6.89,0,0,1-4.7-1.86q-1.75-1.43-1.75-4.93v-1.09a14.68,14.68,0,0,1,.11-1.75,17.5,17.5,0,0,0-1.75-.55,11,11,0,0,0-1.86-.54l.22-2.74a15.7,15.7,0,0,0,3.72,1.1v-.55a15.38,15.38,0,0,0,.44-2c.14-.8.25-1.42.32-1.86q-1.31-.33-2.4-.66c-.59-.07-.88-.18-.88-.32l.22-2.74a22,22,0,0,0,3.39,1c.07-.22.18-.62.33-1.21a6.93,6.93,0,0,1,.22-1.09,4,4,0,0,1,.11-.77,14,14,0,0,0,.22-2.07Z"/><path d="M353.13,299.86h1.65c.36,0,.94,0,1.75-.11h.87a1.9,1.9,0,0,1,.11-.55,25.22,25.22,0,0,0,.22-2.84,7.14,7.14,0,0,0-.11-1.09h.55a15.25,15.25,0,0,1,1.53.1,10.1,10.1,0,0,0,1.31.11,1.65,1.65,0,0,1-.22,1.1,1,1,0,0,0-.22.54,4.46,4.46,0,0,1-.22,1.1,6.34,6.34,0,0,1-.22,1.2,3.75,3.75,0,0,0,1.21-.22,29.08,29.08,0,0,0,4.92-1.09v2.73q-3,.66-6,1.21h-.54c-.08.73-.15,1.6-.22,2.62a18.41,18.41,0,0,1,3.39-.65,1.9,1.9,0,0,1,.11-.44v-.66c-.07-.14,0-.29.22-.44l2.62.44.11.22-.11.11q-.1.22-.33.87a7.19,7.19,0,0,1,4.38,1.65,8.13,8.13,0,0,1,2.51,5.35v.77c-.07,2.63-1.49,4.81-4.26,6.56a5.27,5.27,0,0,1-2.63,1.1h-.11a11.38,11.38,0,0,0-2.4-2.08,8.62,8.62,0,0,0,4.7-1.75,5.68,5.68,0,0,0,2.08-4.05v-.33a5.37,5.37,0,0,0-2.3-4.26,4.25,4.25,0,0,0-1.2-.44H366a3.79,3.79,0,0,0-1.2-.33,25.46,25.46,0,0,1-4.71,8,17.77,17.77,0,0,0,.77,2c-.22.07-.58.21-1.09.43a3.34,3.34,0,0,1-1.21.33q-.33,0-.54-.66a2.2,2.2,0,0,1-1.21.66,6.59,6.59,0,0,1-4,1.64h-.44q-2.52-.1-2.74-3.72v-.43c.08-2.12,1.13-4.27,3.18-6.46a14.26,14.26,0,0,1,4-2.51c0-.44,0-1.13.11-2.08a6.66,6.66,0,0,1,.11-1.1h-1.64c-.8.08-1.42.11-1.86.11h-1.64c-.22,0-.33,0-.33-.11a3,3,0,0,1-.65-1.53v-.11c-.22-.43-.26-.76-.11-1C351.64,299.82,352.41,299.86,353.13,299.86Zm4.16,14-.11-.33a45.62,45.62,0,0,1-.33-5.47,9.73,9.73,0,0,0-4,4.16,3.82,3.82,0,0,0-.66,2.19c.07,1.09.55,1.64,1.42,1.64a4.29,4.29,0,0,0,2.74-1.21A6.49,6.49,0,0,1,357.29,313.86Zm2.19-7v2.62a6.4,6.4,0,0,0,.11,2,18.78,18.78,0,0,0,2.84-5.25c-1.24.22-2.11.4-2.62.55A.49.49,0,0,1,359.48,306.86Z"/><path d="M384.31,303.47V304a6.6,6.6,0,0,0,.43,2.62H385l1.1-1.75h.32l1.21,1.09c-.15.3-.33.7-.55,1.21a10.93,10.93,0,0,0-1.2,4.26v.44a15.56,15.56,0,0,1-2.63.22,9,9,0,0,1-1.09-2.84,17.85,17.85,0,0,1-.66-4.93v-.87a28.72,28.72,0,0,1,.44-4.05,22.44,22.44,0,0,0,.44-3.61c1.09.07,2.15.18,3.17.33a21.51,21.51,0,0,0-.55,2.3A26.78,26.78,0,0,0,384.31,303.47Zm7.65-7.66,3.61-.33.22.11a11.48,11.48,0,0,0,.22,3.72,4.58,4.58,0,0,0,.22,1.21,37.48,37.48,0,0,1,.33,4.15v1.75a15.88,15.88,0,0,1-1.21,6.67,16.42,16.42,0,0,1-4.59,6.68q-.11.21-.33,0l-2.51-1.21-.11-.22a17.45,17.45,0,0,0,3.93-4.7,16.18,16.18,0,0,0,1.75-7.55V304A19.89,19.89,0,0,0,392,295.81Z"/><path d="M416.35,295.05l3.39.32.11.11a4.82,4.82,0,0,0-.43.88,1.46,1.46,0,0,1-.22.44v.43c-.08.59-.15,1.24-.22,2,.8-.07,1.93-.22,3.39-.43a14.19,14.19,0,0,0,1.42-.22l-.22,2.51a28,28,0,0,1-4.59.55,10.17,10.17,0,0,1,.11,1.75c.07.73.11,1.31.11,1.75h.22a21.81,21.81,0,0,0,4.81-.77l-.44,2.52a18.14,18.14,0,0,1-4.37.76c.07,1.68.18,3.43.32,5.25a19.32,19.32,0,0,1,6.13,3.4l-1.31,2a17.86,17.86,0,0,0-4.71-2.51,3.51,3.51,0,0,1-2.18,3.17,7.18,7.18,0,0,1-3.39.66h-1a5.48,5.48,0,0,1-4.05-1.43,3,3,0,0,1-.87-3.6,4.34,4.34,0,0,1,2.08-1.75,11.06,11.06,0,0,1,3.72-.66h1.09a8.91,8.91,0,0,1,1.64.22c-.44-.15-.37-.15.22,0a28.36,28.36,0,0,0-.22-3c-.07-.65-.11-1.16-.11-1.53h-2.3a34.51,34.51,0,0,1-3.93-.22l-.22-.1-.55-2.41v-.22c.29.07.66.15,1.09.22a20,20,0,0,0,3.07.33h2.73c0-1.1,0-2.37-.11-3.83h-.65c-1.9,0-3.72-.07-5.47-.22l-.22-.11-.66-2.51a16.2,16.2,0,0,1,2.19.21,25.06,25.06,0,0,0,2.73.22h2.08V298A23.57,23.57,0,0,0,416.35,295.05ZM414,314.19h-.66c-1.68.14-2.55.76-2.62,1.86.07.43.43.76,1.09,1a13.82,13.82,0,0,0,1.64.11h.66a4.66,4.66,0,0,0,2.4-.44,2.18,2.18,0,0,0,.77-1.75v-.43a9.59,9.59,0,0,1-1.1-.11A17,17,0,0,0,414,314.19Z"/><path d="M432.1,304.12l.22-.21A14,14,0,0,0,434,304h.66a19.65,19.65,0,0,0,2.08-.11,17.4,17.4,0,0,1,2.4-.22v-2.3a8,8,0,0,0-.54-3.5l3.72.22a.82.82,0,0,1-.11.66l-.11.1a11.43,11.43,0,0,0-.22,2.3v2.19a5,5,0,0,0,1.42-.11c.58-.07,1.49-.15,2.73-.22a25,25,0,0,1,2.74-.22v-.76c.07-.73.11-1.24.11-1.53v-1.86a8,8,0,0,0-.44-2.52h.33a19.66,19.66,0,0,0,3.06.22l.11.11c0,.51,0,1.49-.11,2.95-.15,2-.22,3.1-.22,3.17a11,11,0,0,0,2-.11,37.14,37.14,0,0,0,3.94-.21l.44,3.28a10.1,10.1,0,0,0-3-.44h-1.53c-.44,0-1.13,0-2.08.11v.87a14.08,14.08,0,0,1-.76,4.05c-.44,1.31-1.21,2-2.3,2H448a4.36,4.36,0,0,1-1.42-.22v-2.62h.55c.58,0,.94-.48,1.09-1.43a9.29,9.29,0,0,0,.44-2.07v-.33c-1.68.07-3.17.14-4.49.22-.51.07-1.27.14-2.29.21q0,4.71.22,6.79c.07,1.53.72,2.33,2,2.4h4.59a25.45,25.45,0,0,0,5.14-.54v3c-.44,0-1.06,0-1.86.11-1.6.14-2.84.22-3.72.22h-1.42a10.79,10.79,0,0,1-4.59-.55c-1.54-.37-2.45-1.49-2.74-3.39a13.87,13.87,0,0,1-.33-3.61v-4.16c-.94.08-2.66.37-5.14.88a1.82,1.82,0,0,1-1,.22Z"/><path d="M484.28,311l1.31,2.73q.21.22,0,.33l-.77.76q-4.05,4.61-7.33,4.49h-.43a3.75,3.75,0,0,1-3.07-1.86,7.76,7.76,0,0,1-.87-3.61c-.07-.51-.18-1.28-.33-2.3s-.15-1.68-.22-2.19-.29-.91-.65-1a4.06,4.06,0,0,0-2.08.77,7,7,0,0,0-2.08,1.75,18,18,0,0,0-3.61,6.12c-.07.15-.22.44-.44.88a4.46,4.46,0,0,1-.43,1l-2.85-.77a66.7,66.7,0,0,1,5-10.39q1.53-2.73,2.3-4.15l1.31-2.3c.37-.66.66-1.17.88-1.53.07-.15.14-.33.22-.55a12.7,12.7,0,0,0,1.53-3.93h.43l3.72,1.75v.32a25.46,25.46,0,0,0-3.61,4.27,35.48,35.48,0,0,0-2.29,3.94,12.93,12.93,0,0,0-1.32,2.07,1.57,1.57,0,0,1,.33-.21c.66-.37,1.13-.62,1.42-.77,2.26-.95,3.8-.73,4.6.66a5.24,5.24,0,0,1,.65,2.07v.22a12.79,12.79,0,0,0,.11,1.43c.08,1.31.15,2.29.22,3a2.88,2.88,0,0,0,1.1,2.19,1.89,1.89,0,0,0,2.29,0,16.18,16.18,0,0,0,4.27-4.38A8.45,8.45,0,0,1,484.28,311Z"/><path d="M487.45,300.52h.65a15.2,15.2,0,0,0,3.28-.55l1.32-.33c1.38-.36,2.73-.69,4-1q3.61-.89,7.11-1.54a21.79,21.79,0,0,0,4.38-1,3.3,3.3,0,0,0,.33,1.2,3.75,3.75,0,0,1,.22,1.64l-1.54.33a7.49,7.49,0,0,0-3.71,1.21,8.62,8.62,0,0,0-3.18,4.7,15.72,15.72,0,0,0-.65,3.83v.65a5.77,5.77,0,0,0,1.64,4.27,6.38,6.38,0,0,0,4.26,1.64h.55a7,7,0,0,0,1.75-.22v3.28H507a12.8,12.8,0,0,1-6.9-1.86,8.64,8.64,0,0,1-3.28-6.89v-.55q0-4.26,3.39-9c-2.91.72-5.83,1.53-8.75,2.4a3.29,3.29,0,0,1-.76.22,3,3,0,0,0-1.53.88l-1.75-3.07Zm20.12,1.53,1.53-1.43c.22.22.51.55.88,1a17.62,17.62,0,0,1,1.75,2l-1.53,1.31A17.33,17.33,0,0,0,507.57,302.05Zm3-2.19,1.53-1.31a18.7,18.7,0,0,1,2.51,2.84l-1.64,1.31A22.66,22.66,0,0,0,510.53,299.86Z"/><path d="M521,295.27h.21l3.5.65a13.34,13.34,0,0,1-.32,1.42v15.1a5,5,0,0,0,.65,2.95,3,3,0,0,0,2.3,1.09H528a4.09,4.09,0,0,0,1.85-.43,11.23,11.23,0,0,0,2.52-1.21,12.06,12.06,0,0,0,3.06-2.73h.22l1.31,2.51c.15.15.15.22,0,.22a13.42,13.42,0,0,1-4.59,3.28,9.74,9.74,0,0,1-4.81,1.21h-.33a6.37,6.37,0,0,1-3.61-1.1,4.3,4.3,0,0,1-2.19-3.17c-.07-1-.11-2.08-.11-3.17V297.56a5.73,5.73,0,0,0-.22-1.31A6.77,6.77,0,0,1,521,295.27Z"/><path d="M553.73,294.94H554l3.28.87v.33a2.64,2.64,0,0,0-1.1,1.75,11.66,11.66,0,0,0-.65,1.86,3.58,3.58,0,0,1-.22.66l3.61-.66a3.29,3.29,0,0,0,.76-.22l.22.11v2.84c-1.75.3-3.5.51-5.25.66a2.69,2.69,0,0,1-.11.55c.08-.15,0-.08-.11.22a63.35,63.35,0,0,1-5.79,15l-3-.87-.1-.22a89.37,89.37,0,0,0,6.34-14.55,17.05,17.05,0,0,1-2.19.11c-.95.07-1.68.11-2.19.11l-.21-.11-.44-2.63.11-.21c.29,0,.76,0,1.42.1a10.1,10.1,0,0,0,1.31.11h.88a18.8,18.8,0,0,0,2.07-.11,2.68,2.68,0,0,0,.22-.65,17.08,17.08,0,0,0,.88-4.38Zm14.76,20.12-.32,3.06a28.34,28.34,0,0,1-3.61.22h-1.1a22.94,22.94,0,0,1-4.81-.54,2,2,0,0,1-.44-.11c-.51,0-.84-.11-1-.33l-.11-2.52a5.9,5.9,0,0,0,1,.22,28.65,28.65,0,0,0,4.82.55h.54A23.2,23.2,0,0,0,568.49,315.06Zm-6.34-10.72h1c1.17,0,2.41,0,3.72.11l.11,3-.11.11a24.17,24.17,0,0,0-4.7-.66h-1.09a9,9,0,0,0-2.41.33l.44-2.74h1.42C561.24,304.38,561.78,304.34,562.15,304.34Z"/><path d="M575.06,315.39c.22-2.77,1.71-4.27,4.48-4.48,2.7.21,4.16,1.71,4.38,4.48-.3,2.48-1.75,3.86-4.38,4.16Q575.49,319.22,575.06,315.39Zm1.75,0c.14,1.46,1.05,2.26,2.73,2.41a2.54,2.54,0,0,0,2.63-2.41,2.66,2.66,0,0,0-2.63-2.73A2.69,2.69,0,0,0,576.81,315.39Z"/></g></g></svg>