<svg xmlns="http://www.w3.org/2000/svg" viewBox="0 0 759.89 428.94"><defs><style>.cls-1{fill:#fff;}</style></defs><g id="レイヤー_2" data-name="レイヤー 2"><g id="_4" data-name="4"><path class="cls-1" d="M121.11,422.23c4.9-1.9,12.1-10.7,16.6-14.1,4.3-3.2,9.3-6.3,12.8-10.4a62.77,62.77,0,0,0,8.8-14.1,47.08,47.08,0,0,0,4.6-16,35,35,0,0,0-3.5-16.3,39.23,39.23,0,0,0-10.1-13.1c-4-3.4-9.5-5.9-15-8.7-4.8-2.5-10.5-3.9-16.1-6.2-5.1-2.1-10.2-4.9-15.7-7.1-5.2-2.1-10.6-4.3-16-6.5s-10.9-3.8-16.1-6.4-9.8-6.1-14.8-9.1a150.6,150.6,0,0,1-14.2-9.9c-4.5-3.5-8.3-7.8-12.3-12.1-3.9-4.1-8.1-8-11.3-13-3-4.7-5-10.1-7.3-15.6a107.32,107.32,0,0,1-5.1-16.3c-1.3-5.3-3.3-10.8-3.9-16.8a155.72,155.72,0,0,1-1.1-17.3A164.18,164.18,0,0,1,3.11,176a158.89,158.89,0,0,1,3-17c1.3-5.6,3.5-10.9,5.4-16.3s2.3-11.5,4.8-16.7a150.39,150.39,0,0,1,8.6-15.1c3-4.8,6.8-9.2,10.4-13.8a170,170,0,0,1,11.1-13.3c4-4,8.9-7.1,13.4-10.9,4.3-3.6,8.2-8.1,13-11.5,4.6-3.2,10-5.5,15.1-8.4,4.8-2.8,10.2-4.9,15.5-7.5,5-2.5,10-5.3,15.4-7.6,5.2-2.2,10.1-5.3,15.7-7.3,5.3-1.9,11.2-2.4,16.8-4.2,5.4-1.6,11-2.8,16.7-4.3,5.5-1.4,10.6-4.6,16.3-5.8,5.5-1.2,11.3-1.4,17.1-2.5,5.5-1,11.3-1.1,17.1-1.9,5.6-.8,11.1-3.3,16.9-4,5.6-.7,11.4-.9,17.2-1.4,5.6-.5,11.4-.7,17.2-1,5.6-.4,11.4.2,17.3-.1,5.7-.2,11.4-.9,17.2-1s11.4-.5,17.2-.5,11.4-.3,17.3-.2c5.7.1,11.4.9,17,1.1s11.4-.1,17,0,11.4,1.4,17,1.5,11.4-.6,17.1-.4,11.3,1.3,17,1.5,11.4-.1,17,.2,11.4-.3,17.1.1,11.4.7,17,1.1,11.4.8,17,1.3,11.4,1.2,17,1.8,11.4,1.2,16.9,1.9c5.7.7,11.3,1.9,16.8,2.7,5.7.8,11.3,1.8,16.8,2.7,5.7,1,11.2,2.3,16.7,3.4s11,3.3,16.4,4.6c5.6,1.3,11.2,2.4,16.6,3.8,5.6,1.5,10.9,3.3,16.3,5s11,3.3,16.2,5.2c5.4,2,11,3.4,16.1,5.6q8,3.6,15.3,7.5c5.1,2.7,9.1,7,13.8,10s10.3,5.2,14.7,8.7a153.81,153.81,0,0,1,12.7,11.4,135,135,0,0,1,11.1,12.9c3.6,4.4,7.7,8.5,10.7,13.3s5.2,10.1,7.6,15.3a152.45,152.45,0,0,1,5.7,16.1c1.7,5.3,2.5,10.9,3.6,16.6a168.88,168.88,0,0,1,2.6,16.8c.6,5.5,2.5,11.1,2.6,16.9s-1.5,11.4-2,16.9c-.5,5.8-.5,11.5-1.6,16.9a119.54,119.54,0,0,1-4.5,16.4c-1.9,5.4-5.3,10-7.9,15s-4.7,10.3-7.9,14.9a125.85,125.85,0,0,1-23.2,24.4c-4.2,3.7-7.8,8.2-12.4,11.5s-9.8,5.5-14.7,8.4-9.7,5.6-14.8,8.1-10.1,4.9-15.4,7.1-10.1,4.9-15.5,6.8-11,2.7-16.4,4.3-10.6,3.9-16.1,5.3-11.2,1.8-16.7,2.9-11,2.7-16.5,3.7-11.1,2.1-16.7,2.9-11.2,1.6-16.8,2.2-11.4-.2-17,.3-11.2,2.5-16.8,2.9-11.4,0-17,.3-11.4,1.1-16.9,1.2c-5.7.1-11.4-1.5-17-1.5-5.8,0-11.4,1.1-16.9,1-5.8-.1-11.5,0-17-.2-5.9-.3-11.4-2.2-16.8-2.6-6.3-.4-12.3-.4-18-.7-6.3-.4-12.4-.6-18-.9-6.4-.3-12.4.1-18.1,0-6.5-.2-12.5.3-18,.3-6.6,0-12.6-.3-18-.1-6.8.3-12.6,1.2-17.9,1.9a98.63,98.63,0,0,0-17.5,3.7,59.06,59.06,0,0,0-15.9,7.9c-4.7,3.3-9.9,6.1-14.6,10.6a75.74,75.74,0,0,1-14,10.7,145.62,145.62,0,0,1-15.8,8c-5.3,2.3-10.6,5-16.4,7-5.6,1.9-11.5,3-17.2,4.5s-11.6,3.1-17.3,4.2c-6.1,1.2-12,1.9-17.6,2.6-6.5.8-12.4,1.8-17.6,1.8C111.91,423.73,108,427.33,121.11,422.23Z"/><path d="M122.71,426.23c5.6-2.7,9.6-7.9,14.2-12,5-4.5,11-7.6,15.5-12.8,9-10.3,15.5-25.4,12.8-39.2-2.5-12.6-9.9-24.5-21-31.3a119.26,119.26,0,0,0-21.5-9.8c-8.2-2.9-15.9-7-23.9-10.3-7.3-2.9-14.5-5.9-21.9-8.7-8.3-3.1-15.3-7.9-22.7-12.6a103.78,103.78,0,0,1-19.9-15.6c-7.4-7.6-15.1-15-19.3-24.9-7.3-17.1-12.6-36.3-11.6-55.1a181,181,0,0,1,2.7-22c1.7-9.7,5.2-18.4,7.9-27.8,2.1-7.5,3.6-14,7.5-20.9,4.5-8,9.9-15.1,15.6-22.3,5.1-6.4,9.9-12.7,16.4-17.8,7.1-5.6,13.5-12.4,20.9-17.6,13.1-9.2,29.2-15.9,43.7-22.6,7-3.2,13.9-7.3,21.5-9.4,8.3-2.2,16.8-4.1,25.1-6.2,7.6-1.9,14.7-5.7,22.4-7.2a245.72,245.72,0,0,1,25.6-3.4c8-.8,15.2-3.3,23.1-4.6,8.4-1.4,17.2-1.7,25.7-2.1,16.4-.9,32.8-1.2,49.3-1.7s32.7.4,49.1.6c8.9.1,17.5.3,26.4,1.2,7.4.7,14.8-.3,22.2,0,8.2.3,16.1,1.6,24.3,1.6s16.3-.1,24.3.1c33.1.8,66.3,5.4,98.9,10.9,32,5.4,63.1,15.2,93.9,25.3a133.18,133.18,0,0,1,22.3,9.7c6.9,3.7,12.4,9.2,19.1,13a100.08,100.08,0,0,1,20.3,14.5c6.7,6.3,12.1,13.5,18.1,20.4,12.4,14.2,17.9,32.5,21.4,50.7,1.5,7.5,2.2,15.2,3.6,22.7,1,5.4,2,10.1,1.4,15.5-.5,4.4-1.5,8.8-1.8,13.2-.7,8.5-1.4,16.4-3.7,24.7-2.5,8.8-7.1,16-11.1,24-3.3,6.6-6.5,12.7-11.3,18.5-6.2,7.5-13.3,13.4-20.3,20-5.5,5.2-10.2,9.9-16.8,13.6-7.8,4.3-15.4,8.8-23.4,12.8a234.39,234.39,0,0,1-45,17.5c-7,1.9-13.7,4.9-20.8,6.4-8.7,1.8-17.4,3.3-26.1,5.2-16.6,3.6-33.5,6.1-50.4,6.1-7.9,0-15.2,2.7-23,3.1-9.2.5-18.4.5-27.7,1.2-7.8.6-15.3-1.4-23-1.2-8.5.1-17,.9-25.5.9-8.2,0-15.7-2-23.8-2.7-8.7-.7-17.5-.7-26.2-1.2-17.2-.8-34.4,0-51.7-.2-15.3-.2-31.2.6-46,5-14.5,4.3-25.7,13.9-37.1,23.3-12.2,10-28.8,17.7-43.9,22.3a302.19,302.19,0,0,1-49.6,10.6c-11.9,1.5-23.9,1.7-35.8,3.4,1.1,2.6,2.1,5.3,3.2,7.9,1.1-1.3,5.8-2.1,7.4-2.7s-1.6-8.5-3.2-7.9c-1.8.7-6.3,1.3-7.6,2.7s1.3,8.2,3.2,7.9c12.7-1.9,25.5-2.1,38.2-3.7,17.3-2.2,35.7-5.8,52.1-12,14.9-5.6,30.3-12.7,42.2-23.4,11.4-10.3,24.8-18.9,40-22.1,16.4-3.5,32.4-3,49-3.4,17.7-.4,35.3,0,53,.8,17.4.8,34.3,3.9,51.7,3.4,4-.1,8.1-.8,12.1-.9,4.8-.1,9.4.7,14.2,1.2,7.4.7,14.7-.6,22.2-1,9.1-.4,17.6-.1,26.5-1.9s17.9-.8,27-1.8c17.6-2,34.6-6.4,52-9.3a129.75,129.75,0,0,0,22.3-5.5c8-2.8,16.5-4,24.4-7,15.8-6.2,30.8-14.2,45.5-22.3,28.3-15.6,50.4-41.4,63.4-71,6.5-14.8,7.2-32.1,8.8-48,.8-7.8-1.3-14.9-2.4-22.6-1.1-8-2.4-15.8-3.9-23.7-5.9-30.9-22.4-57.3-45.5-78.4a93.06,93.06,0,0,0-18.3-12.9c-6.5-3.6-11.7-8.8-18.1-12.5-14.8-8.5-31.4-13.2-47.6-18.4-63.1-20-129.7-28.9-195.8-28.7-8.2,0-16.2-1.5-24.3-1.6-9.3-.2-18.3.2-27.6-.8-7.4-.7-14.8-.2-22.3-.4-9-.2-17.9-1.2-26.9-1-16.8.3-33.7,1.8-50.5,1.6-7.8-.1-15.6.4-23.4.9-9,.7-18.2.9-26.9,3.2-16.6,4.4-34.8,2.9-50.9,9.2-7.8,3-15.5,4.9-23.6,7.1-7.9,2.2-16.2,3.3-23.7,6.8-15.7,7.1-31.2,14.8-46.4,22.9a91.56,91.56,0,0,0-19.9,14.2c-6.7,6.1-14.4,10.9-20.4,17.8-10.1,11.6-20.7,24.5-27,38.7-3.3,7.5-4.6,15.9-7.3,23.6a120,120,0,0,0-5.6,24.4c-4.1,30.1.6,62.5,16,89.2,3.6,6.2,8.6,11.1,13.5,16.3a123.35,123.35,0,0,0,18.6,16.8,216.51,216.51,0,0,0,20.8,13.4c7.6,4.1,16.1,6.6,24.1,9.9,7.3,3,14.4,6,21.6,9.3,8.3,3.8,17.1,6.3,25.2,10.6,11.2,5.8,21.4,14.8,20.8,28.6-.4,9-5.2,18.5-10.3,25.8-4.9,6.9-11.8,10.6-18,16.1-4.6,4.1-8.5,9.3-14.2,12C117.91,419,121.31,426.93,122.71,426.23Z"/><path d="M165.78,53.72V51H177.7V48.14l7.65-4.92H168.18V40.48h21.66v3.39l-9,5.69V51h11.37v2.74H180.87v7c.07,2.62-1.2,3.94-3.83,3.94-1.46.07-3,.1-4.7.1a27.93,27.93,0,0,0-.55-3c.66.07,1.9.11,3.72.11q2.3.11,2.19-2.19v-6Z"/><path d="M194.32,54.7c-.07-.44-.18-1.09-.33-2s-.25-1.6-.32-2A40.19,40.19,0,0,0,199,39.06l2.95.77a45.33,45.33,0,0,1-2.3,5.79V65.2h-2.84V51.09C196,52.26,195.2,53.46,194.32,54.7Zm8.75,10.5a18.2,18.2,0,0,0-2.29-2.08,37,37,0,0,0,6-5.68l2.41,1.64Q206.25,62.14,203.07,65.2Zm-1.2-18V44.53h3.28V39.17H208v5.36h5.14V39.17H216v5.36h3.28v2.63H216v6.89h4.15v2.62H201V54.05h4.16V47.16Zm6.12,0v6.89h5.14V47.16Zm9.85,17.93c-1.9-2-3.9-3.93-6-5.9L214,57.44c.73.65,1.75,1.6,3.06,2.84L220.13,63Z"/><path d="M228.56,41.14l3.72.87c-.08.22-.19.52-.33.88a4.16,4.16,0,0,0-.33.55,7.29,7.29,0,0,0-.22,1.2,1.9,1.9,0,0,0-.11.55,11.94,11.94,0,0,0-.22,1.31,5,5,0,0,0-.22,1.09,3,3,0,0,1,.88-.11,7.51,7.51,0,0,1,.87-.11,2.6,2.6,0,0,0,.66-.11h1.09a5.07,5.07,0,0,1,2.08.44,2.7,2.7,0,0,1,1.1,2.19V51.2a28.72,28.72,0,0,1-1,6.89q-.76,3.72-2.95,4.27a8,8,0,0,1-3.39.76h-.77q-.33-.76-.87-1.86a7.34,7.34,0,0,1-.44-1l.11-.22a5,5,0,0,1,.76.11,7.36,7.36,0,0,0,1.54.22H231a2.46,2.46,0,0,0,2.3-1.42,17.66,17.66,0,0,0,1-3,26.13,26.13,0,0,0,.66-5,1.26,1.26,0,0,0-1.53-1.31c-.37.07-.91.15-1.64.22l-1.64.33a35.83,35.83,0,0,1-6,12.14l-.22.11a10.11,10.11,0,0,0-1.75-.77,5,5,0,0,0-.87-.44v-.21a28.29,28.29,0,0,0,3.94-5.58,26.47,26.47,0,0,0,1.64-3.72,7.53,7.53,0,0,0,.43-1,30.81,30.81,0,0,0-3.28,1.1,1.59,1.59,0,0,1-1,.33l-1.2-3.07.21-.21a3,3,0,0,1,.66.1,1.62,1.62,0,0,0,.88,0c.5-.07,1.27-.21,2.29-.43s1.64-.37,2.08-.44a2.17,2.17,0,0,1,.11-.66,24.37,24.37,0,0,0,.55-5.14Zm16.73,10.61-.11.22-2.3,1.31a35.46,35.46,0,0,0-5.35-7.44v-.33l2.07-1.2A31.34,31.34,0,0,1,245.29,51.75Zm.77-7.33v.22l-1.43,1.2h-.21A8.45,8.45,0,0,0,241.79,43v-.22l1.31-1.09h.22A23.72,23.72,0,0,1,246.06,44.42Zm-1.53-3.72v-.22l1.31-1.09h.22a1.26,1.26,0,0,0,.32.22c.51.44,1.1,1,1.75,1.64a1.79,1.79,0,0,1,.66,1.09l-1.31,1.21h-.22A11.36,11.36,0,0,0,244.53,40.7Z"/><path d="M252.73,59.3a24.72,24.72,0,0,0-3.06-1.21,68,68,0,0,0,5-13.12l3.17.87Q255.68,52.52,252.73,59.3Zm3.94,5.36a9.59,9.59,0,0,0-.66-3c.87.08,2,.11,3.5.11s2.33-.58,2.19-2.19V39.28h3.17V60.61c.14,2.7-1.2,4-4.05,4ZM273.18,59q-2.19-5.91-5.36-13l3-1q1.41,3.28,4.7,10.94a15.5,15.5,0,0,1,.87,2Z"/><path d="M278.1,58.31V55.58h12.14v-.77l4.49-2.73h-12V49.45h16.4v2.63l-5.68,3.5H304v2.73H293.31v3.17c.07,2.34-1.17,3.5-3.72,3.5h-4.27c-.22-1-.44-2-.65-2.84h1.75c.8.07,1.42.11,1.86.11,1.45.14,2.11-.44,2-1.75V58.31Zm.66-7.87v-6h16.41l-.44-.22c1.46-2,2.62-3.64,3.5-5l3.17,1c-.29.36-.69.91-1.2,1.64-.88,1.16-1.53,2-2,2.62h5v6h-2.84V47.05H281.6v3.39Zm4.37-6.24c-.29-.44-.72-1.13-1.31-2.08s-1.13-1.53-1.42-2l3-.88q1.53,2,2.85,3.83Zm7.11-.54c-.14-.22-.36-.62-.65-1.21a32.41,32.41,0,0,1-1.75-3l3-.55c.88,1.31,1.75,2.66,2.63,4Z"/><path d="M306,46.83V44.2h3.18V39h2.73V44.2h2.63v2.63H311.9v2.51q.11.12.33.33c.8.66,1.78,1.5,2.95,2.52l-1.53,2.29-1.75-2V65.2h-2.73V52.62a38,38,0,0,1-2.85,6.24c-.07-.37-.22-1-.44-1.86a10.5,10.5,0,0,0-.43-2,32.56,32.56,0,0,0,3.61-8.2ZM330.6,64.76a36.45,36.45,0,0,1-7.32-3.82,31.79,31.79,0,0,1-7.88,4.26,17.1,17.1,0,0,0-1.64-2.62A22.13,22.13,0,0,0,321.31,59a21.82,21.82,0,0,1-3.61-6.24l2.4-1A22.4,22.4,0,0,0,323.28,57a15.86,15.86,0,0,0,3-5.47l2.62.88A18.5,18.5,0,0,1,325.24,59a19.65,19.65,0,0,0,7.11,3.17,8.88,8.88,0,0,1-.87,1.31C331.11,64,330.82,64.47,330.6,64.76ZM316.28,53.28a23.91,23.91,0,0,0-1.65-2.08A39.28,39.28,0,0,0,320.21,46l2,1.75A57.34,57.34,0,0,1,316.28,53.28Zm-.66-7.87V42.78h6.78c-.29-1.09-.66-2.22-1.09-3.39l2.84-.44,1.2,3.83h6.46v2.63ZM330.49,53q-2.94-2.84-5.9-5.25L326.34,46c1.38,1.1,3.21,2.63,5.47,4.6l.32.32Z"/><path d="M337.17,41.14l3.82,1.2a5.79,5.79,0,0,1-.54,1.42c-.15.37-.26.66-.33.88a22,22,0,0,0-1.75,8.64v.88a10.3,10.3,0,0,0,1.09,5h.11c.15-.29.33-.7.55-1.21a8.34,8.34,0,0,0,.55-1.09l1.2.22q-.11.54-.33,1.53a18.3,18.3,0,0,0-.55,3.5v.66l-2.62.54a10.07,10.07,0,0,1-2-4.26,23.3,23.3,0,0,1-.55-5.58V52.3a28.39,28.39,0,0,1,.88-7,15.89,15.89,0,0,0,.44-3.61ZM351,58.64h1a22.81,22.81,0,0,0,6.13-.88l.11,3a15.26,15.26,0,0,1-5,.76h-1.2c-3.43,0-6-.8-7.76-2.4a2.88,2.88,0,0,1-.88-1.32l2-1.2A7.45,7.45,0,0,0,351,58.64Zm.11-15.09h1.2a42.55,42.55,0,0,1,4.27.21v2.85c-.52,0-1.21,0-2.08-.11s-1.53-.11-2-.11h-1.2a21.86,21.86,0,0,0-3.07.33,17.56,17.56,0,0,1-2.84.33l-.22-3a20,20,0,0,0,2.52-.22A28,28,0,0,1,351.06,43.55Z"/><path d="M362,63.67V60.94h10.07V39.28h3.39v7.88H386v3h-10.5V60.94H388v2.73Z"/><path d="M396.56,41.14l3.72.87c-.08.22-.19.52-.33.88a4.16,4.16,0,0,0-.33.55,7.29,7.29,0,0,0-.22,1.2,1.9,1.9,0,0,0-.11.55,11.94,11.94,0,0,0-.22,1.31,5,5,0,0,0-.22,1.09,3,3,0,0,1,.88-.11,7.51,7.51,0,0,1,.87-.11,2.6,2.6,0,0,0,.66-.11h1.09a5.07,5.07,0,0,1,2.08.44,2.7,2.7,0,0,1,1.1,2.19V51.2a28.72,28.72,0,0,1-1,6.89q-.77,3.72-3,4.27a8,8,0,0,1-3.39.76h-.77q-.33-.76-.87-1.86a7.34,7.34,0,0,1-.44-1l.11-.22a5,5,0,0,1,.76.11,7.36,7.36,0,0,0,1.54.22H399a2.46,2.46,0,0,0,2.3-1.42,17.66,17.66,0,0,0,1-3,26.13,26.13,0,0,0,.66-5,1.26,1.26,0,0,0-1.53-1.31c-.37.07-.91.15-1.64.22l-1.64.33a35.83,35.83,0,0,1-6,12.14l-.22.11a10.11,10.11,0,0,0-1.75-.77,5,5,0,0,0-.87-.44v-.21a28.29,28.29,0,0,0,3.94-5.58,26.47,26.47,0,0,0,1.64-3.72,7.53,7.53,0,0,0,.43-1,30.81,30.81,0,0,0-3.28,1.1,1.59,1.59,0,0,1-1,.33l-1.2-3.07.21-.21a3,3,0,0,1,.66.1,1.62,1.62,0,0,0,.88,0c.5-.07,1.27-.21,2.29-.43s1.64-.37,2.08-.44a2.17,2.17,0,0,1,.11-.66,24.37,24.37,0,0,0,.55-5.14Zm16.73,10.61-.11.22-2.3,1.31a35.46,35.46,0,0,0-5.35-7.44v-.33l2.07-1.2A31.34,31.34,0,0,1,413.29,51.75Zm.77-7.33v.22l-1.43,1.2h-.21A8.45,8.45,0,0,0,409.79,43v-.22l1.31-1.09h.22A23.72,23.72,0,0,1,414.06,44.42Zm-1.53-3.72v-.22l1.31-1.09h.22a1.26,1.26,0,0,0,.32.22c.51.44,1.1,1,1.75,1.64a1.79,1.79,0,0,1,.66,1.09l-1.31,1.21h-.22A11.36,11.36,0,0,0,412.53,40.7Z"/><path d="M422.7,42.56h1.53a25.82,25.82,0,0,0,8.09-1.09,1,1,0,0,0,.44-.11,1.6,1.6,0,0,1,.66-.22h.11l2.84,2.3v.11a11.23,11.23,0,0,0-2.52,2.4c-.36.44-.94,1.13-1.75,2.08s-1.42,1.57-1.86,2.08a12.66,12.66,0,0,0,1.32-.11,9.57,9.57,0,0,1,1.2-.11h.55a7.76,7.76,0,0,1,4.81,1.75,6.06,6.06,0,0,1,2.08,4.7v.33A6.5,6.5,0,0,1,436.92,62a9.85,9.85,0,0,1-5.47,1.64H431q-5-.44-5.36-3.72v-.44q.33-2.84,3.72-3.17h.55q2.73,0,5.36,3.5A4.74,4.74,0,0,0,437,56.45v-.54q-.33-3.07-4-3.4h-.55a9.36,9.36,0,0,0-7.33,3.83.28.28,0,0,1-.11.22,1.85,1.85,0,0,1-.54.55l-2.63-2v-.33a41,41,0,0,0,9.3-10.17,15.13,15.13,0,0,0-6,1.31c-.07,0-.14.08-.22.22a.84.84,0,0,1-.76.22l-1.42-3.61ZM430,61.26h.54a4.6,4.6,0,0,0,1.42-.21,1.52,1.52,0,0,0-.76-1.21A2.58,2.58,0,0,0,428.6,59c-.65.36-.84.84-.54,1.42S429,61.19,430,61.26Z"/><path d="M458.13,58.86h2.3a35,35,0,0,0,8.1-1v3.5a45.21,45.21,0,0,1-8.43.66h-1.64a12.39,12.39,0,0,1-5.14-.87,13.3,13.3,0,0,1-3.83-2.85V58l1.86-1.64c.08-.14.11-.14.11,0a8.66,8.66,0,0,0,3.17,2.08A10.22,10.22,0,0,0,458.13,58.86Zm.55-15.31h.88a25.7,25.7,0,0,0,5.14-.77c-.08,0,0,0,.33-.11v3.17c-1.54.15-3,.22-4.49.22H458a43.21,43.21,0,0,1-4.49-.44l-.22-.11-.65-3.06.11-.11a5.41,5.41,0,0,0,.87.22A19,19,0,0,0,458.68,43.55Z"/><path d="M493.24,44.64l2.41,2.73v.22A40,40,0,0,0,485,52.08a13.2,13.2,0,0,0-3.39,3.28,3.8,3.8,0,0,0-.66,1.86v.44a3.4,3.4,0,0,0,2.08,3,8.5,8.5,0,0,0,3.72.65h.77a23.11,23.11,0,0,0,6.34-.87l.22,3.28c-1.9.15-3.72.22-5.47.22H487a10.06,10.06,0,0,1-5.8-1.2,5.44,5.44,0,0,1-2.84-4.93v-.54c.07-2.48,1.57-4.74,4.48-6.78a1.06,1.06,0,0,1,.55-.44,43.79,43.79,0,0,0-3.5-9.19l3-.55a62.6,62.6,0,0,1,3.28,8.21l3.94-2A12.89,12.89,0,0,0,493.24,44.64Z"/><path d="M512.06,39.39h.43l3.18.87v.22a1.63,1.63,0,0,0-.55.88l-.33.65c-.29,1-.55,1.94-.76,3a1,1,0,0,1-.11.33c-.08.21-.15.4-.22.54h2.08a10.75,10.75,0,0,0,1.85-.22,3.26,3.26,0,0,1,.66-.11l-.55,2.74a.44.44,0,0,1-.32.11h-4.27c-.07.51-.15,1.2-.22,2.08s-.25,1.82-.33,2.4a18.31,18.31,0,0,0,5.25.11v.44l-.43,2.19a.49.49,0,0,1-.33.11h-2.3c-.8,0-1.64,0-2.51-.11v.76a2.91,2.91,0,0,0-.11.77V58.2a4.1,4.1,0,0,0,1.09,2.85,4,4,0,0,0,2.52,1h.65a4.69,4.69,0,0,0,3.17-1.09,4.51,4.51,0,0,0,1.1-3v-.43c0-1.24-.7-3-2.08-5.14a2.55,2.55,0,0,0-.33-.55l3.17-.22a9.47,9.47,0,0,1,2.41,6.12v.55a6.33,6.33,0,0,1-2.3,4.81,6.71,6.71,0,0,1-4.81,1.64h-.66a6.88,6.88,0,0,1-4.7-1.85q-1.75-1.42-1.75-4.93V56.89a14.68,14.68,0,0,1,.11-1.75,17.5,17.5,0,0,0-1.75-.55,11,11,0,0,0-1.86-.54l.22-2.74a15.7,15.7,0,0,0,3.72,1.1v-.55a15.79,15.79,0,0,0,.44-2c.14-.8.25-1.42.32-1.86q-1.31-.33-2.4-.66c-.59-.07-.88-.18-.88-.32l.22-2.74a22,22,0,0,0,3.39,1c.07-.22.18-.62.33-1.21a6.93,6.93,0,0,1,.22-1.09,4,4,0,0,1,.11-.77,14,14,0,0,0,.22-2.07Z"/><path d="M535.13,44.86h1.65c.36,0,.94,0,1.75-.11h.87a1.9,1.9,0,0,1,.11-.55,25.38,25.38,0,0,0,.22-2.84,7.37,7.37,0,0,0-.11-1.1h.55c.36,0,.87,0,1.53.11a10.1,10.1,0,0,0,1.31.11,1.65,1.65,0,0,1-.22,1.1,1,1,0,0,0-.22.54,4.46,4.46,0,0,1-.22,1.1,6.34,6.34,0,0,1-.22,1.2,3.75,3.75,0,0,0,1.21-.22,29.08,29.08,0,0,0,4.92-1.09v2.73q-3,.66-6,1.21h-.54c-.08.73-.15,1.6-.22,2.62a19.22,19.22,0,0,1,3.39-.66,2,2,0,0,1,.11-.43v-.66c-.07-.14,0-.29.22-.44l2.62.44.11.22-.11.11q-.11.22-.33.87a7.24,7.24,0,0,1,4.38,1.64,8.17,8.17,0,0,1,2.51,5.36v.77q-.11,3.93-4.26,6.56a5.27,5.27,0,0,1-2.63,1.1h-.11a11.38,11.38,0,0,0-2.4-2.08,8.62,8.62,0,0,0,4.7-1.75,5.68,5.68,0,0,0,2.08-4v-.33a5.37,5.37,0,0,0-2.3-4.26,4.25,4.25,0,0,0-1.2-.44H548a3.79,3.79,0,0,0-1.2-.33,25.46,25.46,0,0,1-4.71,8,16.7,16.7,0,0,0,.77,2c-.22.08-.58.22-1.09.44a3.34,3.34,0,0,1-1.21.33q-.33,0-.54-.66a2.2,2.2,0,0,1-1.21.66,6.59,6.59,0,0,1-4,1.64h-.44q-2.52-.11-2.74-3.72v-.44c.08-2.11,1.13-4.26,3.18-6.45a14.26,14.26,0,0,1,4-2.51c0-.44,0-1.13.11-2.08a6.66,6.66,0,0,1,.11-1.1h-1.64c-.8.08-1.42.11-1.86.11h-1.64c-.22,0-.33,0-.33-.11a3,3,0,0,1-.65-1.53v-.11c-.22-.43-.26-.76-.11-1C533.64,44.82,534.41,44.86,535.13,44.86Zm4.16,14-.11-.33a45.62,45.62,0,0,1-.33-5.47,9.73,9.73,0,0,0-4,4.16,3.82,3.82,0,0,0-.66,2.19c.07,1.09.55,1.64,1.42,1.64a4.29,4.29,0,0,0,2.74-1.21A6.49,6.49,0,0,1,539.29,58.86Zm2.19-7v2.62a6.4,6.4,0,0,0,.11,2,18.78,18.78,0,0,0,2.84-5.25c-1.24.22-2.11.4-2.62.55A.49.49,0,0,1,541.48,51.86Z"/><path d="M566.31,48.47V49a6.62,6.62,0,0,0,.43,2.63H567l1.1-1.75h.32L569.59,51c-.15.3-.33.7-.55,1.21a10.93,10.93,0,0,0-1.2,4.26v.44a15.56,15.56,0,0,1-2.63.22,9,9,0,0,1-1.09-2.85,17.73,17.73,0,0,1-.66-4.92v-.87a28.72,28.72,0,0,1,.44-4,22.44,22.44,0,0,0,.44-3.61c1.09.07,2.15.18,3.17.33a21.51,21.51,0,0,0-.55,2.3A26.78,26.78,0,0,0,566.31,48.47ZM574,40.81l3.61-.33.22.11a11.48,11.48,0,0,0,.22,3.72,4.45,4.45,0,0,0,.22,1.2,37.8,37.8,0,0,1,.33,4.16v1.75a15.88,15.88,0,0,1-1.21,6.67,16.31,16.31,0,0,1-4.59,6.67q-.1.22-.33,0l-2.51-1.2-.11-.22a17.45,17.45,0,0,0,3.93-4.7,16.18,16.18,0,0,0,1.75-7.55V49A19.87,19.87,0,0,0,574,40.81Z"/><path d="M597.15,62.25,595,64.44,589.06,58l2.07-1.86Z"/><path d="M220.13,109.86h2.3a35,35,0,0,0,8.1-1v3.5a45.21,45.21,0,0,1-8.43.66h-1.64a12.39,12.39,0,0,1-5.14-.87,13.3,13.3,0,0,1-3.83-2.85V109l1.86-1.64c.08-.14.11-.14.11,0a8.66,8.66,0,0,0,3.17,2.08A10.22,10.22,0,0,0,220.13,109.86Zm.55-15.31h.88a25.7,25.7,0,0,0,5.14-.77c-.08,0,0,0,.33-.11v3.17c-1.54.15-3,.22-4.49.22H220a43.21,43.21,0,0,1-4.49-.44l-.22-.11-.65-3.06.11-.11a5.41,5.41,0,0,0,.87.22A19,19,0,0,0,220.68,94.55Z"/><path d="M242.78,93.34V92.8a6.85,6.85,0,0,0-.22-1.54,29.08,29.08,0,0,0,3.72.22v.33a3.53,3.53,0,0,0-.66,1.2,1,1,0,0,0-.11.33c-.29,1.17-.51,2.26-.66,3.28.08,0,.11,0,.11-.11l2,1.54c.07.14,0,.32-.22.54a.35.35,0,0,0-.22.11,4.09,4.09,0,0,0-.54.88q-.44.54-.66.87c.37-.29.91-.76,1.64-1.42,2.33-2.33,4.38-3.46,6.13-3.39h.43a4.11,4.11,0,0,1,1.86.44,2.64,2.64,0,0,1,1.21,2v.43a53.57,53.57,0,0,1-.55,6.24c-.22,1.38-.37,2.4-.44,3.06a4.41,4.41,0,0,0,.11,2.3c.29.65.88.84,1.75.54A6.13,6.13,0,0,0,260,109l.43-.43.11-.11c.37-.59.73-.88,1.1-.88l.87,3a21,21,0,0,1-2.84,2.52,6,6,0,0,1-3.06,1.09h-.44a4.25,4.25,0,0,1-2.52-1.2,6.06,6.06,0,0,1-.76-3.28v-.44a40.27,40.27,0,0,1,.54-5.36c.08-.65.15-1.13.22-1.42a5,5,0,0,1,.11-.76,7.36,7.36,0,0,0,.22-1.54v-.43c-.15-.88-.87-1.24-2.19-1.1a9.73,9.73,0,0,0-2.73,1.75l-.22.22a32.43,32.43,0,0,0-3.61,3.28,4.1,4.1,0,0,0-.55.77l-.65.65v.88c0,1.17.11,3,.33,5.36.14,1.68.22,3,.22,3.83h-3.18v-4.16c0-1,0-1.86.11-2.73a38,38,0,0,0-3.28,4.59H238l-2.4-1.42v-.22q5.69-6.12,6.67-10.83l-1.53.66a11.23,11.23,0,0,0-3.39,1.64l-1.53-3.28.1-.22a16.87,16.87,0,0,0,6.46-1.31c.07-.37.14-.92.22-1.64s.11-1.17.11-1.54a3.93,3.93,0,0,1,.11-.76Z"/><path d="M276.35,98.26H278a2.39,2.39,0,0,1,2.19.88,3.36,3.36,0,0,1,.66,2.08v.44a23.85,23.85,0,0,1-1,6.45q-.87,3.83-3.06,4.92a7.42,7.42,0,0,1-3.72.77h-.54c-.22,0-.33,0-.33-.11-.15-.3-.33-.7-.55-1.21a15.22,15.22,0,0,0-.77-1.53v-.11a9.54,9.54,0,0,1,1.21.11,7.61,7.61,0,0,0,1.09.11h.44a2.33,2.33,0,0,0,2.08-1,7.22,7.22,0,0,0,1.09-2,.33.33,0,0,0,.11-.22,14.22,14.22,0,0,0,1-5.25V102c-.07-.8-.43-1.24-1.09-1.31a19.7,19.7,0,0,0-2.41.22,9.57,9.57,0,0,1-1.2.11,41.89,41.89,0,0,1-4.15,9,19.43,19.43,0,0,1-2.3,3.06,2.85,2.85,0,0,1-1.31-.55c-.22-.14-.41-.25-.55-.32a.33.33,0,0,1-.22-.11c-.44-.08-.69-.22-.77-.44a18.07,18.07,0,0,0,4.27-5.91q1.1-2.19,2.08-4.26a8.17,8.17,0,0,0-3.17.87l-.11.11a1.34,1.34,0,0,1-.77.22l-1.53-3.17.11-.22a10.14,10.14,0,0,0,3.06,0,9.59,9.59,0,0,1,1.1-.11,7.13,7.13,0,0,1,2.07-.33c.15-.44.26-.8.33-1.09a13.7,13.7,0,0,0,.66-4.38v-.76a1,1,0,0,1-.11-.44c.29.07.69.15,1.2.22,1,.15,1.82.29,2.41.44a1.65,1.65,0,0,1-.44,1,.33.33,0,0,0-.11.22,4.9,4.9,0,0,0-.33,1.53,1.9,1.9,0,0,0-.11.55,6.18,6.18,0,0,1-.21,1.2c-.08.51-.15.91-.22,1.2A13.31,13.31,0,0,1,276.35,98.26Zm5.36-1.42v-.33a7.25,7.25,0,0,1,1-.76,11.59,11.59,0,0,1,1-.77q.33-.21,1,.66a16,16,0,0,1,2.07,2.3,48.37,48.37,0,0,1,3.39,4.48v.33l-2.62,1.64A45.05,45.05,0,0,0,281.71,96.84Z"/><path d="M296.48,96.19l3.06.65a43.89,43.89,0,0,0-1,8.21c2.69-2.19,5.32-3.29,7.87-3.29h.77a9.29,9.29,0,0,1,4.92,1.21,5.54,5.54,0,0,1,2.3,4.15v.55a6.54,6.54,0,0,1-2.3,4.81,15.9,15.9,0,0,1-5,2.41,5.4,5.4,0,0,1-2.63.66L303,113.14V113a39,39,0,0,0,4.38-1c2.47-1,3.71-2.34,3.71-3.94v-.44q-.21-3-4-3.28h-.44a12,12,0,0,0-4.37,1.09,7.39,7.39,0,0,0-3.5,3.5l-3.18-1.09c.08-.58.18-1.49.33-2.73q.56-5.14.55-7.77Zm2.3-3.83,1.85-2.08a4.71,4.71,0,0,1,.88.44,36.66,36.66,0,0,1,4.81,2.4v.22l-1.86,2A30.16,30.16,0,0,0,298.78,92.36Z"/><path d="M346,102.75v.76a10,10,0,0,1-3,6.9,13.47,13.47,0,0,1-5.47,3.93c0,.15-.07.15-.22,0a10,10,0,0,0-2.51-1.64v-.22c5.25-2.47,7.91-5.65,8-9.51v-.55a7.11,7.11,0,0,0-2.4-5,8.79,8.79,0,0,0-4.6-2,60.88,60.88,0,0,1-2.4,8,50.76,50.76,0,0,1-3.39,7.1q-1.43,2.63-3.5,2.63-3.29-.11-5.47-3.72a7.69,7.69,0,0,1-1.1-3.72v-.54a10.09,10.09,0,0,1,.88-3.61,13,13,0,0,1,2-3.29,12.43,12.43,0,0,1,5.9-4.48,15.65,15.65,0,0,1,5-1.09H335a11,11,0,0,1,8,3A10.38,10.38,0,0,1,346,102.75ZM323,104.61v.55a6.05,6.05,0,0,0,1.09,3.39,2.51,2.51,0,0,0,2.08,1.31,2.79,2.79,0,0,0,1.86-1.31,21.49,21.49,0,0,0,1.09-2c.15-.37.26-.62.33-.77a36.69,36.69,0,0,0,3.72-10.39A17.94,17.94,0,0,0,329,96.51a14.9,14.9,0,0,0-4.48,4A8.56,8.56,0,0,0,323,104.61Z"/><path d="M350.29,102.42V92.58h2.95v7h6.13V90.17h3.17v9.41h6.13v-7h3.06v9.84h-9.19v9.84h7.11v-7.1h3v10.71h-3v-1.09H349.31v-9.62h2.95v7.1h7.11v-9.84Z"/><path d="M376.87,104.28a8,8,0,0,0-1-2q6.24-.77,7.55-2.4h-6.12l.87-4.82h6.24V93.67h-7V91.81h7V90.06h2.73v1.75h4.05V90.06h2.73v1.75h6.56v4.92h-6.56v1.53h7.55a9.54,9.54,0,0,1-.11,1.21,3.92,3.92,0,0,1-.11,1.09,1.91,1.91,0,0,1-2.19,2v9.84h-20V104Zm.11,12c-.07-.22-.22-.58-.44-1.09l-.55-1.1,2-.32c2.19-.37,4.89-.73,8.1-1.1l1,1.64Q380.92,115.66,377,116.31Zm3.61-19.58-.33,1.53h3.94a4.24,4.24,0,0,0,.22-1.31v-.22Zm1.31,7.11v1.32h14.33v-1.32Zm0,2.74v1.31h14.33v-1.31Zm0,2.73v1.42h14.33v-1.42Zm9.3-7.65V99.91h-4.6a4.4,4.4,0,0,1-2.29,2.29h11.81a1.62,1.62,0,0,0-.22-.65,4.47,4.47,0,0,0-.22-.55h2.08c.58,0,.91-.22,1-.66v-.43h-4.81v1.75Zm-4.05-4.6a3.16,3.16,0,0,1-.11.66v.54h4.16V96.73h-4.05Zm0-3.39v1.42h4.05V93.67Zm14,22.53q-5.81-1.2-10.06-1.86l.76-1.64c3.28.29,6.64.77,10.07,1.42Zm-3.28-22.53h-3.94v1.42h3.94Z"/><path d="M413.73,90.39l3.5.87v.22l-.77.88c-.07.22-.22.58-.43,1.09a4.55,4.55,0,0,1-.44,1.21,19.27,19.27,0,0,0,4.37-1.1v3a30.6,30.6,0,0,1-5.36.88,18,18,0,0,1-1.64,3.17,8.38,8.38,0,0,1,3.07-.87h.43a4.46,4.46,0,0,1,1.1.22l.22.1a4.67,4.67,0,0,1,2.18,3.4c.66-.3,1.28-.55,1.86-.77l1-.33a18.13,18.13,0,0,0,2-.76,2.06,2.06,0,0,0,.43-.33q.44-.43.66-.33l2.3,2.62v.33a65.47,65.47,0,0,0-7.77,2.08,7.47,7.47,0,0,1,.22,1.86v.77a12.72,12.72,0,0,1-.22,1.86,6.84,6.84,0,0,0-.11,1h-2.73a8,8,0,0,1,.11-1.2V107a11,11,0,0,0-2.41,1.43c-1.39.94-1.86,2-1.42,3.06s1.53,1.53,3.72,1.53H418a25.05,25.05,0,0,0,5.47-.77l.33,3.18a29.31,29.31,0,0,1-4.37.32h-1.64a9.45,9.45,0,0,1-4.49-1,4.05,4.05,0,0,1-2.3-3.17v-.44a7,7,0,0,1,3.18-5,14,14,0,0,1,2.18-1.2c.51-.29.91-.51,1.21-.66a2.85,2.85,0,0,0-1.21-2.19,3.71,3.71,0,0,0-2.07.22c-1.61.8-3.36,2.74-5.25,5.8a4.92,4.92,0,0,0-.44.65l-2.74-1.2a50,50,0,0,0,5.91-10h-3.17L407.82,95v-.22a13.81,13.81,0,0,0,2.3.22h2.73a1.51,1.51,0,0,0,.11-.43,8.72,8.72,0,0,0,.77-3.5Z"/><path d="M442.06,115.66c-.15-.81-.33-1.68-.55-2.63h6.23c1.68.07,2.56-.44,2.63-1.53a12.13,12.13,0,0,0,.22-2.3h-12.8l.66-3.28c-1.83,1-3.72,1.86-5.69,2.74-.37-1-.77-1.86-1.2-2.74a78.59,78.59,0,0,0,11.59-5.47h-11v-2.4h9.08V95.2h-7V92.8h7V90.06H444V92.8h6v2.4h-6v2.85h2.84a82.94,82.94,0,0,0,7.44-6.57l2.29,1.75c-1.82,1.68-3.68,3.28-5.57,4.82h7v2.4h-10.4c-.94.66-2,1.31-3.06,2h11.71v2.41H441.51l-.44,2.08h12.8c-.07.51-.15,1.27-.22,2.29-.15,1.31-.26,2.23-.33,2.74-.14,2.47-1.68,3.68-4.59,3.61Q447.41,115.66,442.06,115.66Z"/><path d="M464,99.36h.55a30.07,30.07,0,0,0,5.79-.55,11.7,11.7,0,0,0,3.72-.76c.37-.15.59-.29.66-.44H475l2.51,1.53c.15.07.19.22.11.44v.11a17.65,17.65,0,0,0-3.5,3.72l-1.31,1.64h.77a3.32,3.32,0,0,1,2.07.65,4.46,4.46,0,0,1,.77,2.19,7.15,7.15,0,0,1,.22,1,12.28,12.28,0,0,0,.44,2,1.64,1.64,0,0,0,1.53,1.42h1.31a16.61,16.61,0,0,0,3.94-.54v3a29.21,29.21,0,0,1-3.5.22H478a3.48,3.48,0,0,1-3.06-1.42,9.55,9.55,0,0,1-1.1-3.28,1.84,1.84,0,0,0-.1-.55,8,8,0,0,0-.22-1.09,1.63,1.63,0,0,0-1.43-1,3.06,3.06,0,0,0-2.29,1.31,59.66,59.66,0,0,0-4.71,6h-.21a21.5,21.5,0,0,0-2.74-1.75V113a87.5,87.5,0,0,0,7.66-8.42,19.83,19.83,0,0,0,2.62-3.72l-.11-.22a11.32,11.32,0,0,1-3.28.88,12.59,12.59,0,0,0-2.51.65,1.12,1.12,0,0,0-.55.22c-.22.22-.4.29-.55.22Zm7-8.75h.22a34.56,34.56,0,0,0,5.36,2.51,1,1,0,0,0,.33.22.81.81,0,0,1,.54.33l-.87,2.3-.33.11A34.05,34.05,0,0,1,469.84,93V92.8Z"/><path d="M492.7,93.56h1.53a25.82,25.82,0,0,0,8.09-1.09,1,1,0,0,0,.44-.11,1.6,1.6,0,0,1,.66-.22h.11l2.84,2.3v.11a11.23,11.23,0,0,0-2.52,2.4c-.36.44-.94,1.13-1.75,2.08s-1.42,1.57-1.86,2.08a12.66,12.66,0,0,0,1.32-.11,9.57,9.57,0,0,1,1.2-.11h.55a7.76,7.76,0,0,1,4.81,1.75,6.06,6.06,0,0,1,2.08,4.7v.33a6.5,6.5,0,0,1-3.28,5.36,9.85,9.85,0,0,1-5.47,1.64H501q-5-.44-5.36-3.72v-.44q.33-2.83,3.72-3.17h.55q2.73,0,5.36,3.5a4.74,4.74,0,0,0,1.75-3.39v-.54q-.33-3.07-4-3.4h-.55a9.36,9.36,0,0,0-7.33,3.83.28.28,0,0,1-.11.22,1.85,1.85,0,0,1-.54.55l-2.63-2v-.33a41,41,0,0,0,9.3-10.17,15.13,15.13,0,0,0-6,1.31c-.07,0-.14.08-.22.22a.84.84,0,0,1-.76.22l-1.42-3.61Zm7.33,18.7h.54a4.6,4.6,0,0,0,1.42-.21,1.52,1.52,0,0,0-.76-1.21,2.58,2.58,0,0,0-2.63-.87c-.65.36-.84.84-.54,1.42S499,112.19,500,112.26Z"/><path d="M535.24,95.64l2.41,2.73v.22A40,40,0,0,0,527,103.08a13.2,13.2,0,0,0-3.39,3.28,3.8,3.8,0,0,0-.66,1.86v.44a3.4,3.4,0,0,0,2.08,3,8.5,8.5,0,0,0,3.72.65h.77a23.11,23.11,0,0,0,6.34-.87l.22,3.28c-1.9.15-3.72.22-5.47.22H529a10.06,10.06,0,0,1-5.8-1.2,5.44,5.44,0,0,1-2.84-4.93v-.54c.07-2.48,1.57-4.74,4.48-6.78a1.06,1.06,0,0,1,.55-.44,43.79,43.79,0,0,0-3.5-9.19l3-.55a62.6,62.6,0,0,1,3.28,8.21l3.94-2A12.89,12.89,0,0,0,535.24,95.64Z"/><path d="M555.15,113.25,553,115.44l-5.9-6.46,2.07-1.86Z"/><path d="M141.93,150.25c-1.31-.95-2.7-1.86-4.15-2.74l1.31-2c1.24.65,2.66,1.46,4.26,2.4Zm-1.75,11.37v-2.18h9.3v-1.53h3v1.53H162v2.18h-9.52v2.3h11.7v2.3H137.88v-2.3h11.6v-2.3Zm.66-3.39-2.41-1.31q1.86-3.06,3.5-6.23a15.49,15.49,0,0,0,1.53.76,4.71,4.71,0,0,0,.88.44C143.39,153.49,142.22,155.61,140.84,158.23ZM144,145.76c-.66-.43-1.6-1-2.84-1.75a12.47,12.47,0,0,1-1.43-.87l1.43-2.08q2.07,1.09,4.37,2.52Zm.55,12c-.37-.66-.77-1.32-1.21-2a32.86,32.86,0,0,0,5.69-3l1.42,1.64C148.28,155.83,146.31,156.92,144.56,157.8Zm4.26-9.41V147c-.29.14-.76.36-1.42.65a20.12,20.12,0,0,1-1.86.77c-.51-.8-1-1.57-1.42-2.3a22.71,22.71,0,0,0,9.19-5.36l2.95.33-.66.66a27.34,27.34,0,0,0,8.53,4.15,5.27,5.27,0,0,1-.32.55,16.13,16.13,0,0,0-1,1.86,1.17,1.17,0,0,0-.44-.22,21,21,0,0,1-2.95-1.31v1.64h-3.94v1.86h7.11v2.19h-7.11v2.29q.12,3.18-2.84,3.07c-1,.07-2,.11-3.06.11a12.31,12.31,0,0,0-.44-2.08c.88.07,1.68.11,2.41.11a1.16,1.16,0,0,0,1.31-1.32v-2.18h-7.55v-2.19h7.55v-1.86Zm5.25-5.14a19.78,19.78,0,0,1-4.48,3.17h9.29A24,24,0,0,1,154.07,143.25Zm8.31,14.55a28.13,28.13,0,0,0-3.28-1.75c-.94-.44-1.67-.81-2.18-1.1l1.2-1.75a1,1,0,0,0,.44.22,52.55,52.55,0,0,1,5.14,2.41Z"/><path d="M174.31,150.47V151a6.62,6.62,0,0,0,.43,2.63H175l1.1-1.75h.32l1.21,1.09c-.15.3-.33.7-.55,1.21a10.93,10.93,0,0,0-1.2,4.26v.44a15.56,15.56,0,0,1-2.63.22,9,9,0,0,1-1.09-2.85,17.73,17.73,0,0,1-.66-4.92v-.87a28.72,28.72,0,0,1,.44-4.05,22.44,22.44,0,0,0,.44-3.61c1.09.07,2.15.18,3.17.33a21.51,21.51,0,0,0-.55,2.3A26.78,26.78,0,0,0,174.31,150.47Zm7.65-7.66,3.61-.33.22.11a11.48,11.48,0,0,0,.22,3.72,4.45,4.45,0,0,0,.22,1.2,37.8,37.8,0,0,1,.33,4.16v1.75a15.88,15.88,0,0,1-1.21,6.67,16.31,16.31,0,0,1-4.59,6.67q-.1.23-.33,0l-2.51-1.2-.11-.22a17.45,17.45,0,0,0,3.93-4.7,16.18,16.18,0,0,0,1.75-7.55V151A19.87,19.87,0,0,0,182,142.81Z"/><path d="M205,154.73c-.44-.36-1.2-.94-2.3-1.75-.8-.65-1.38-1.13-1.75-1.42a9.57,9.57,0,0,1-3.71,3.5h19.57V167.2H214v-1.31H199.9v1.31h-2.84v-12c-.66.29-1.35.62-2.08,1a7.73,7.73,0,0,0-1.1-1.86,3,3,0,0,0-.32-.44c3.2-1.24,5.1-2.63,5.68-4.16H194v-2.19h5.8v-1.85h-5.14v-2.08h5.14l.11-2.52h2.63l-.11,2.52h3.71v2.08h-3.82v1.85h4v2.19H202.2c1.31.81,2.77,1.79,4.37,3q3.83-1.42,4.49-3h-3.61v-2.19h4.15V147a4.25,4.25,0,0,0,.11-.88v-.43h-4v-2.08h4v-2.52h2.63l-.11,2.52h5v2.08h-5l-.11,1.53v.32h5.69v2.19h-5.25c.87,1.68,2.77,2.92,5.68,3.72-.43.73-.87,1.53-1.31,2.41-3.06-1.24-5.07-2.77-6-4.6-.59,1.24-2.23,2.45-4.93,3.61a15.17,15.17,0,0,0-1.42-2.18Zm-5.14,2.52v2.3H214v-2.3Zm0,4.26v2.3H214v-2.3Z"/><path d="M226,150.36h.55a30.07,30.07,0,0,0,5.79-.55,11.7,11.7,0,0,0,3.72-.76c.37-.15.59-.29.66-.44H237l2.51,1.53c.15.07.19.22.11.44v.11a17.65,17.65,0,0,0-3.5,3.72l-1.31,1.64h.77a3.32,3.32,0,0,1,2.07.65,4.46,4.46,0,0,1,.77,2.19,7.15,7.15,0,0,1,.22,1,12.28,12.28,0,0,0,.44,2,1.64,1.64,0,0,0,1.53,1.42h1.31a16.61,16.61,0,0,0,3.94-.54v2.95a29.21,29.21,0,0,1-3.5.22H240a3.48,3.48,0,0,1-3.06-1.42,9.55,9.55,0,0,1-1.1-3.28,1.84,1.84,0,0,0-.1-.55,8,8,0,0,0-.22-1.09,1.63,1.63,0,0,0-1.43-1,3.06,3.06,0,0,0-2.29,1.31,59.66,59.66,0,0,0-4.71,6h-.21a21.5,21.5,0,0,0-2.74-1.75V164a87.5,87.5,0,0,0,7.66-8.42,19.83,19.83,0,0,0,2.62-3.72l-.11-.22a11.32,11.32,0,0,1-3.28.88,12.59,12.59,0,0,0-2.51.65,1.12,1.12,0,0,0-.55.22c-.22.22-.4.29-.55.22Zm7-8.75h.22a34.56,34.56,0,0,0,5.36,2.51,1,1,0,0,0,.33.22.81.81,0,0,1,.54.33l-.87,2.3-.33.11a34.05,34.05,0,0,1-6.45-3.07v-.21Z"/><path d="M266.84,147.19l2.08,2.29v.22c-1.54.44-3,.91-4.38,1.42a42.07,42.07,0,0,0-6.78,3.39,8.63,8.63,0,0,0-2.73,2.63,4.74,4.74,0,0,0-.77,2.3v.32a3.33,3.33,0,0,0,2.3,2.85,8.74,8.74,0,0,0,3.5.65h.43a37.72,37.72,0,0,0,5.25-.54,12.21,12.21,0,0,0,1.32-.22l.22,3.17a43.13,43.13,0,0,1-4.6.22h-2.3a14.16,14.16,0,0,1-4.48-.77,7.4,7.4,0,0,1-3.72-2.62,5.87,5.87,0,0,1-.55-2.63v-.43a7.87,7.87,0,0,1,2.41-5.25,15.36,15.36,0,0,1,2.84-2.41,31.77,31.77,0,0,0-3.6-9l3-.44a49.36,49.36,0,0,1,3.17,8,.45.45,0,0,0,.33-.11,14.76,14.76,0,0,1,3.39-1.31,7.07,7.07,0,0,1,1.09-.55,10.48,10.48,0,0,0,1.75-.77.29.29,0,0,0,.22-.11A1,1,0,0,1,266.84,147.19Zm.44-2.3,1.75-1c.14.21.36.51.65.87a22.21,22.21,0,0,1,2,2.52l-1.75,1.09A27.46,27.46,0,0,0,267.28,144.89Zm3-2,1.53-.87a10.65,10.65,0,0,1,2.62,3.39l-1.53,1c-.29-.44-.73-1-1.31-1.75S270.52,143.29,270.23,142.92Z"/><path d="M290.13,160.86h2.3a35,35,0,0,0,8.1-1v3.5a45.21,45.21,0,0,1-8.43.66h-1.64a12.39,12.39,0,0,1-5.14-.87,13.3,13.3,0,0,1-3.83-2.85V160l1.86-1.64c.08-.14.11-.14.11,0a8.66,8.66,0,0,0,3.17,2.08A10.22,10.22,0,0,0,290.13,160.86Zm.55-15.31h.88a25.7,25.7,0,0,0,5.14-.77c-.08,0,0,0,.33-.11v3.17c-1.54.15-3,.22-4.49.22H290a43.21,43.21,0,0,1-4.49-.44l-.22-.11-.65-3.06.11-.11a5.41,5.41,0,0,0,.87.22A19,19,0,0,0,290.68,145.55Z"/><path d="M311.79,144.56h.66a19.59,19.59,0,0,0,3.5-.44c-1,.22-.92.22.33,0a12.72,12.72,0,0,0,4.92-1.2,1,1,0,0,0,.43-.22,1.12,1.12,0,0,1,.55-.22h.33l2.41,1.86v.33a8.08,8.08,0,0,0-2.3,2.41,4,4,0,0,1-.55.76c-1.31,1.61-2.7,3.25-4.15,4.92l1.2-.32a12.28,12.28,0,0,1,3.17-.55h.44a10.19,10.19,0,0,1,4.92,1.31,6,6,0,0,1,2.73,4.92v.44a7.15,7.15,0,0,1-3.6,6.24,12.7,12.7,0,0,1-6.57,2l-1.2-2.62h.44a11,11,0,0,0,4.7-.88,5,5,0,0,0,3.06-4.37v-.44a3.93,3.93,0,0,0-1.31-2.84,4.3,4.3,0,0,0-3.17-1.1h-.55a11.87,11.87,0,0,0-6.78,2.19,34.44,34.44,0,0,0-5.14,5.14l-2.63-2.29a69.12,69.12,0,0,0,5.15-4.93l1.2-1.2a29.74,29.74,0,0,0,5.69-7.44c-.51.15-1.24.33-2.19.55-1.39.37-2.41.66-3.06.88a1.12,1.12,0,0,0-.44.21l-.44.22-1.86-3.06Z"/><path d="M333.45,147.51h.65a15,15,0,0,0,3.28-.54l1.32-.33c1.38-.36,2.73-.69,4-1q3.61-.89,7.11-1.54a21.79,21.79,0,0,0,4.38-1,3.3,3.3,0,0,0,.33,1.2,3.75,3.75,0,0,1,.22,1.64l-1.54.33a7.6,7.6,0,0,0-3.71,1.2,8.68,8.68,0,0,0-3.18,4.71,15.72,15.72,0,0,0-.65,3.83v.65a5.77,5.77,0,0,0,1.64,4.27,6.38,6.38,0,0,0,4.26,1.64h.55a7,7,0,0,0,1.75-.22v3.28H353a12.8,12.8,0,0,1-6.9-1.86,8.64,8.64,0,0,1-3.28-6.89v-.55q0-4.26,3.39-9c-2.91.72-5.83,1.53-8.75,2.4a3.29,3.29,0,0,1-.76.22,3,3,0,0,0-1.53.88l-1.75-3.07Zm20.12,1.54,1.53-1.43c.22.22.51.55.88,1a17.62,17.62,0,0,1,1.75,2l-1.53,1.31A17.33,17.33,0,0,0,353.57,149.05Zm3-2.19,1.53-1.31a18.7,18.7,0,0,1,2.51,2.84l-1.64,1.31A22.66,22.66,0,0,0,356.53,146.86Z"/><path d="M365.49,142.26h.33l3,1.1a7.17,7.17,0,0,1-.66,1.75l-.33.65a35,35,0,0,0-1.42,4.71,24,24,0,0,0-.66,4.59v1a20,20,0,0,0,.77,5.14h.22c.14-.29.36-.7.65-1.21a7.07,7.07,0,0,1,.55-1.09h.22l.87.87V160c-.43,1.9-.8,3.69-1.09,5.36l-2.41.55a18.46,18.46,0,0,1-2.29-9.63v-1.64a24.46,24.46,0,0,1,.87-5.57c.07-.37.22-.92.44-1.64a16.66,16.66,0,0,0,1-4.71Zm11.71.55,3.83.55c-.15,1.68-.22,3.5-.22,5.47v-.11q2.29-.22,4.59-.66v2.63a43.13,43.13,0,0,1-4.48.65q.1,8.21.11,7.88l2.51,1c.15.15.26.22.33.22a15,15,0,0,1,2.95,2l-1.75,2.08h-.33c-.58-.44-1.2-.88-1.86-1.31l-1.2-.66c-.36-.22-.62-.37-.76-.44a4.52,4.52,0,0,1-1.21,2.19,5.28,5.28,0,0,1-4,1.64h-.55a6.43,6.43,0,0,1-3.28-.88,3.42,3.42,0,0,1-1.64-2.84v-.44a3.49,3.49,0,0,1,1.64-2.62,5.81,5.81,0,0,1,3.28-.88h.55a17.25,17.25,0,0,1,2.73.22c0-.44,0-1.13-.11-2.08-.15-1.82-.22-3.2-.22-4.15v-.66h-2.29c-1.54-.07-3.1-.22-4.71-.44l-.33-2.73a7.36,7.36,0,0,1,1.54.22,40.69,40.69,0,0,0,4.37.33H378c-.07-1.9-.14-3.21-.22-3.94v-.22A3.07,3.07,0,0,0,377.2,142.81Zm-1.75,17.83h-.55c-1.09,0-1.79.18-2.08.55-.51.65-.29,1.31.66,2a4.09,4.09,0,0,0,4-.44,2.26,2.26,0,0,0,.76-1.53A7.19,7.19,0,0,0,375.45,160.64Z"/><path d="M391.09,149.81a3.33,3.33,0,0,1-.55-1l-.87-1.32a19.69,19.69,0,0,0,5.9-6.45l3,.44a2.1,2.1,0,0,1-.33.44,16.45,16.45,0,0,1-1.53,2.18h18.59v2.52H412.2v4.27H415v2.4H412.2v4.49H416v2.4H390v-2.4h4.27v-4.49h-3.39v-2.4h3.39V147A38.14,38.14,0,0,1,391.09,149.81Zm2,17.39-2.85-.65q1.86-3.28,2.74-5.25l2.73.54a7.94,7.94,0,0,1-.44,1Q393.83,165.89,393.06,167.2Zm3.72-20.56v4.27h2.62v-4.27Zm0,6.67v4.49h2.62v-4.49Zm2.29,13.35q-.66-2.19-1.42-4.71l2.73-.33q.89,2.41,1.54,4.6Zm2.85-20v4.27h2.62v-4.27Zm0,6.67v4.49h2.62v-4.49Zm3.82,13.13a29.84,29.84,0,0,0-1.31-3.18c-.22-.58-.4-1-.55-1.42l2.74-.43,2,4.48Zm1.32-19.8v4.27h2.73v-4.27Zm0,6.67v4.49h2.73v-4.49Zm6,13.35c-.36-.73-.91-1.68-1.64-2.85-.51-.87-.91-1.57-1.2-2.08l2.73-.54a2.4,2.4,0,0,0,.44.54,41.43,41.43,0,0,1,2.52,4.16Z"/><path d="M430.35,149.26H432a2.39,2.39,0,0,1,2.19.88,3.36,3.36,0,0,1,.66,2.08v.44a23.85,23.85,0,0,1-1,6.45q-.87,3.82-3.06,4.92a7.42,7.42,0,0,1-3.72.77h-.54c-.22,0-.33,0-.33-.11-.15-.3-.33-.7-.55-1.21a15.22,15.22,0,0,0-.77-1.53v-.11a9.54,9.54,0,0,1,1.21.11,7.61,7.61,0,0,0,1.09.11h.44a2.33,2.33,0,0,0,2.08-1,7.22,7.22,0,0,0,1.09-2,.33.33,0,0,0,.11-.22,14.22,14.22,0,0,0,1-5.25V153c-.07-.8-.43-1.24-1.09-1.31a19.7,19.7,0,0,0-2.41.22,9.57,9.57,0,0,1-1.2.11,41.89,41.89,0,0,1-4.15,9,19.43,19.43,0,0,1-2.3,3.06,2.85,2.85,0,0,1-1.31-.55c-.22-.14-.41-.25-.55-.32a.33.33,0,0,1-.22-.11c-.44-.08-.69-.22-.77-.44a18.07,18.07,0,0,0,4.27-5.91q1.1-2.19,2.08-4.26a8.17,8.17,0,0,0-3.17.87l-.11.11a1.34,1.34,0,0,1-.77.22l-1.53-3.17.11-.22a10.14,10.14,0,0,0,3.06,0,9.59,9.59,0,0,1,1.1-.11,7.13,7.13,0,0,1,2.07-.33c.15-.44.26-.8.33-1.09a13.7,13.7,0,0,0,.66-4.38v-.76a1,1,0,0,1-.11-.44c.29.07.69.15,1.2.22,1,.15,1.82.29,2.41.44a1.65,1.65,0,0,1-.44,1,.33.33,0,0,0-.11.22,4.9,4.9,0,0,0-.33,1.53,1.9,1.9,0,0,0-.11.55,6.18,6.18,0,0,1-.21,1.2c-.08.51-.15.91-.22,1.2A13.31,13.31,0,0,1,430.35,149.26Zm5.36-1.42v-.33a7.25,7.25,0,0,1,1-.76,11.59,11.59,0,0,1,1-.77q.33-.21,1,.66a16,16,0,0,1,2.07,2.3,48.37,48.37,0,0,1,3.39,4.48v.33l-2.62,1.64A45.05,45.05,0,0,0,435.71,147.84Z"/><path d="M462.4,146.86H463a6.71,6.71,0,0,1,4.59,1.64,6.62,6.62,0,0,1,2,4.59v.55a6,6,0,0,1-1,3.28,10,10,0,0,1-3,2.84,13.32,13.32,0,0,1-6.56,2.3L457.26,160a16.1,16.1,0,0,0,6.56-2.07c2.19-1.32,3.28-2.88,3.28-4.71v-.44q-.44-3.16-4.48-3.71h-.44a10.74,10.74,0,0,0-3.39.54c-.87.29-1.75.62-2.62,1-.3.14-.7.33-1.21.54a34.19,34.19,0,0,0-3.17,1.75c-.07,0-.15.08-.22.22a.84.84,0,0,1-.76.22l-2.3-2.62c2-.51,4.05-1.1,6-1.75a2,2,0,0,0,.43-.11C458.1,147.44,460.58,146.79,462.4,146.86Z"/><path d="M483.73,141.94H484l3.28.87v.33a2.61,2.61,0,0,0-1.1,1.75,11.66,11.66,0,0,0-.65,1.86,3.58,3.58,0,0,1-.22.66l3.61-.66a3.29,3.29,0,0,0,.76-.22l.22.11v2.84c-1.75.3-3.5.51-5.25.66a2.69,2.69,0,0,1-.11.55l-.11.22a63.35,63.35,0,0,1-5.79,15l-3-.88-.1-.21a89.37,89.37,0,0,0,6.34-14.55,17.05,17.05,0,0,1-2.19.11c-.95.07-1.68.11-2.19.11l-.21-.11-.44-2.63.11-.22c.29,0,.76,0,1.42.11a10.1,10.1,0,0,0,1.31.11h.88a18.8,18.8,0,0,0,2.07-.11,2.68,2.68,0,0,0,.22-.65,17.08,17.08,0,0,0,.88-4.38Zm14.76,20.12-.32,3.06a28.34,28.34,0,0,1-3.61.22h-1.1a22.94,22.94,0,0,1-4.81-.54,2,2,0,0,1-.44-.11c-.51,0-.84-.11-1-.33l-.11-2.52a5.9,5.9,0,0,0,1,.22,28.65,28.65,0,0,0,4.82.55h.54A23.2,23.2,0,0,0,498.49,162.06Zm-6.34-10.72h1c1.17,0,2.41,0,3.72.11l.11,3-.11.1a24.79,24.79,0,0,0-4.7-.65h-1.09a9,9,0,0,0-2.41.33l.44-2.74h1.42C491.24,151.38,491.78,151.34,492.15,151.34Z"/><path d="M528,153.75v.76a10,10,0,0,1-3,6.9,13.47,13.47,0,0,1-5.47,3.93c0,.15-.07.15-.22,0a10,10,0,0,0-2.51-1.64v-.22c5.25-2.47,7.91-5.65,8-9.51v-.55a7.11,7.11,0,0,0-2.4-5,8.79,8.79,0,0,0-4.6-2,60.88,60.88,0,0,1-2.4,8,50.76,50.76,0,0,1-3.39,7.1q-1.42,2.63-3.5,2.63-3.29-.1-5.47-3.72a7.69,7.69,0,0,1-1.1-3.72v-.54a10.09,10.09,0,0,1,.88-3.61,13,13,0,0,1,2-3.29,12.43,12.43,0,0,1,5.9-4.48,15.65,15.65,0,0,1,5-1.09H517a11,11,0,0,1,8,2.95A10.38,10.38,0,0,1,528,153.75ZM505,155.61v.55a6.05,6.05,0,0,0,1.09,3.39,2.51,2.51,0,0,0,2.08,1.31,2.79,2.79,0,0,0,1.86-1.31,21.49,21.49,0,0,0,1.09-2c.15-.37.26-.62.33-.77a36.69,36.69,0,0,0,3.72-10.39,17.94,17.94,0,0,0-4.16,1.09,14.9,14.9,0,0,0-4.48,4.05A8.56,8.56,0,0,0,505,155.61Z"/><path d="M529.45,147.51h.65a15,15,0,0,0,3.28-.54l1.32-.33c1.38-.36,2.73-.69,4-1q3.62-.89,7.11-1.54a21.79,21.79,0,0,0,4.38-1,3.3,3.3,0,0,0,.33,1.2,3.75,3.75,0,0,1,.22,1.64l-1.54.33a7.6,7.6,0,0,0-3.71,1.2,8.68,8.68,0,0,0-3.18,4.71,15.72,15.72,0,0,0-.65,3.83v.65a5.77,5.77,0,0,0,1.64,4.27,6.38,6.38,0,0,0,4.26,1.64h.55a7,7,0,0,0,1.75-.22v3.28H549a12.8,12.8,0,0,1-6.9-1.86,8.64,8.64,0,0,1-3.28-6.89v-.55q0-4.26,3.39-9c-2.91.72-5.83,1.53-8.75,2.4a3.29,3.29,0,0,1-.76.22,3,3,0,0,0-1.53.88l-1.75-3.07Zm20.12,1.54,1.53-1.43c.22.22.51.55.88,1a17.62,17.62,0,0,1,1.75,2l-1.53,1.31A17.33,17.33,0,0,0,549.57,149.05Zm3-2.19,1.53-1.31a18.7,18.7,0,0,1,2.51,2.84l-1.64,1.31A22.66,22.66,0,0,0,552.53,146.86Z"/><path d="M570.46,140.73l3.83.66a10.13,10.13,0,0,0-.55,3.39v1h9v3.18a43.94,43.94,0,0,0-8.2-.55h-.77v3.39l.11.11a6.08,6.08,0,0,1,1,3.72v1.86a13.59,13.59,0,0,1-1.1,4.59,17.31,17.31,0,0,1-2.4,3.61c-.66.66-1.35,1.31-2.08,2H569a13.79,13.79,0,0,0-3.17-1.53v-.22a10.9,10.9,0,0,0,5.8-5.58,4.43,4.43,0,0,1-4.27,0,5.16,5.16,0,0,1-2.19-4.37v-.55q.56-4.48,4.6-5h1.31v-2h-1.2a41.4,41.4,0,0,0-9.3,1.09l-.22-.11-1.09-3.17.11-.22c.21,0,.61,0,1.2.11a10.1,10.1,0,0,0,1.31.11h1.31c.29,0,.92,0,1.86-.11q3.39-.1,6-.22c-.15-1.67-.33-3.13-.55-4.37A5,5,0,0,1,570.46,140.73Zm.66,14.66V154c-.07-.73-.37-1.13-.88-1.21a1.49,1.49,0,0,0-1.09.44,2.8,2.8,0,0,0-1,2.19v.66c.07,1.46.54,2.22,1.42,2.29.51,0,.94-.4,1.31-1.2A3.43,3.43,0,0,0,571.12,155.39Z"/><path d="M592.56,143.14l3.72.87c-.08.22-.19.52-.33.88a4.16,4.16,0,0,0-.33.55,7.29,7.29,0,0,0-.22,1.2,1.9,1.9,0,0,0-.11.55,11.94,11.94,0,0,0-.22,1.31,5,5,0,0,0-.22,1.09,3,3,0,0,1,.88-.11,7.51,7.51,0,0,1,.87-.11,2.6,2.6,0,0,0,.66-.11h1.09a5.07,5.07,0,0,1,2.08.44,2.7,2.7,0,0,1,1.1,2.19v1.31a28.72,28.72,0,0,1-1,6.89q-.76,3.72-2.95,4.27a8,8,0,0,1-3.39.76h-.77q-.33-.76-.87-1.86a7.34,7.34,0,0,1-.44-1l.11-.22a5,5,0,0,1,.76.11,7.36,7.36,0,0,0,1.54.22H595a2.46,2.46,0,0,0,2.3-1.42,17.66,17.66,0,0,0,1-3,26.13,26.13,0,0,0,.66-5,1.26,1.26,0,0,0-1.53-1.31c-.37.07-.91.15-1.64.22l-1.64.33a35.83,35.83,0,0,1-6,12.14l-.22.11a10.11,10.11,0,0,0-1.75-.77,5,5,0,0,0-.87-.44v-.21a28.29,28.29,0,0,0,3.94-5.58,26.47,26.47,0,0,0,1.64-3.72,7.53,7.53,0,0,0,.43-1,30.81,30.81,0,0,0-3.28,1.1,1.59,1.59,0,0,1-1,.33l-1.2-3.07.21-.21a3,3,0,0,1,.66.1,1.62,1.62,0,0,0,.88,0c.5-.07,1.27-.21,2.29-.43s1.64-.37,2.08-.44a2.17,2.17,0,0,1,.11-.66,24.37,24.37,0,0,0,.55-5.14Zm16.73,10.61-.11.22-2.3,1.31a35.46,35.46,0,0,0-5.35-7.44v-.33l2.07-1.2A31.34,31.34,0,0,1,609.29,153.75Zm.77-7.33v.22l-1.43,1.2h-.21a8.45,8.45,0,0,0-2.63-2.84v-.22l1.31-1.09h.22A23.72,23.72,0,0,1,610.06,146.42Zm-1.53-3.72v-.22l1.31-1.09h.22a1.26,1.26,0,0,0,.32.22c.51.44,1.1,1,1.75,1.64a1.79,1.79,0,0,1,.66,1.09l-1.31,1.21h-.22A11.36,11.36,0,0,0,608.53,142.7Z"/><path d="M625.15,164.25,623,166.44l-5.9-6.46,2.07-1.86Z"/><path d="M128.7,196.44v-2.63h8.42v2.63h-2.74v6.34H137v2.63h-2.63v6.45c.44-.07,1.17-.22,2.19-.44a5.88,5.88,0,0,0,.88-.22v2.85c-.44.07-1.13.21-2.08.43-2.77.51-5,1-6.67,1.43l-.44-2.74,1.75-.33,1.64-.33v-7.1h-2.84v-2.63h2.84v-6.34Zm20.78,21.22q-3.28.1-3.17-3V210h-2.19l-.11.87q0,5.15-6.67,7.33a6.21,6.21,0,0,0-.44-.65,17.64,17.64,0,0,0-1.31-1.75q5.68-1.43,5.69-4.93V210H138.1V193.16H153V210H149v4.16q-.1,1,1.2.87H151c.73.07,1.13-.29,1.2-1.09a20.2,20.2,0,0,0,.22-2.08c.07-.58.11-1,.11-1.2l2.3.87a22.45,22.45,0,0,1-.55,3.5,2.81,2.81,0,0,1-3.06,2.63ZM141,195.45v2.63h9.18v-2.63Zm0,4.81v2.63h9.18v-2.63Zm0,4.82v2.62h9.18v-2.62Z"/><path d="M181.31,202.67c-1.32-.58-2.52-1.13-3.61-1.64v2.08h-6.57v2.95h9.3v2.63h-9.3v6.12h10.94v2.41H157.13v-2.41h10.94v-6.12h-9.29v-2.63h9.29v-2.95h-6.78v-1.86c-1,.51-2.15,1.06-3.39,1.64-.15-.22-.33-.51-.55-.88-.51-.8-.87-1.38-1.09-1.75q9.08-3.49,12.47-8.53l3.39.33-.66.88a22.69,22.69,0,0,0,11.38,6.89c-.15.29-.4.76-.77,1.42S181.45,202.38,181.31,202.67Zm-18.05,11.81c-.58-.72-1.68-2-3.28-3.93l2.19-1.43q1.2,1.32,3.06,3.5c-.15-.14,0,0,.33.44ZM169.82,195a28,28,0,0,1-7.11,5.58h14A26,26,0,0,1,169.82,195Zm5.8,19.47-2.19-1.42a1.17,1.17,0,0,0,.22-.33q2.19-2.4,3.17-3.61l2.41,1.32Q177.81,212.08,175.62,214.48Z"/><path d="M186.56,201.25l-2-2.08a31.27,31.27,0,0,0,8-7.44l3.39.33a11.63,11.63,0,0,1-1.53,1.86h10.28v2.19l-2.51,2.51h5.68v14.44H187.54V200.48Zm-.44,17.06-1.31-2.62a87.17,87.17,0,0,0,9.51-2.3l1.21,2.08Q191.36,216.88,186.12,218.31Zm15-22.09h-8.75a25.67,25.67,0,0,1-2.51,2.4h9Zm-10.72,4.7V203H205v-2.08Zm0,3.94v2.08H205v-2.08Zm0,3.83v2.07H205v-2.07ZM209,218.2q-4.71-1.53-9.3-2.84l1-2c3.71.8,6.85,1.53,9.4,2.19Z"/><path d="M212.59,199.5v-2.63h3.17v-4.7h3v4.7h2.74v2.63h-2.74v5c.88-.22,1.82-.44,2.85-.66v2.74l-2.85.76v7.33c.07,2-1,3-3.17,3.17a20,20,0,0,0-2.3.11,12.46,12.46,0,0,1-.21-1.31q-.22-1.09-.33-1.53h1.64c1,.07,1.49-.33,1.42-1.2v-5.69l-3.17.76-.22-3.06c.22-.07.51-.14.87-.22s1.28-.25,2.52-.54V199.5Zm8,17.5v-2.52h18.16V217Zm2.19-6.13V193.48H237.2v17.39Zm3-14.65v4.59h8.64v-4.59Zm0,7.22v4.81h8.64v-4.81Z"/><path d="M249,193.59q7.88.12,8,11.6t-8,11.48q-8-.1-8.09-11.48Q241.13,193.93,249,193.59Zm0,20.67q4.49.12,4.48-9,.12-9.3-4.48-9.08-4.48-.1-4.48,9.08T249,214.26Z"/><path d="M260.6,217.87v-24.5h23.63v20.35q.11,3.83-3.94,3.94c-1,.07-2.44.11-4.26.11a11.85,11.85,0,0,0-.66-2.74h3.83c1.46.07,2.11-.58,2-2v-5.8H263.56v10.61Zm3-21.76v8.31h7.32v-8.31Zm17.61,0h-7.33v8.31h7.33Z"/><path d="M286.85,198.51h.66a15.13,15.13,0,0,0,3.28-.54l1.31-.33c1.39-.36,2.74-.69,4-1q3.62-.89,7.11-1.54a21.49,21.49,0,0,0,4.37-1,3.3,3.3,0,0,0,.33,1.2,3.75,3.75,0,0,1,.22,1.64l-1.53.33a7.68,7.68,0,0,0-3.72,1.2,8.72,8.72,0,0,0-3.17,4.71,15.34,15.34,0,0,0-.66,3.83v.65a5.8,5.8,0,0,0,1.64,4.27,6.43,6.43,0,0,0,4.27,1.64h.55a7.05,7.05,0,0,0,1.75-.22v3.28h-.88a12.79,12.79,0,0,1-6.89-1.86,8.61,8.61,0,0,1-3.28-6.89v-.55q0-4.26,3.39-9c-2.92.72-5.83,1.53-8.75,2.4a3.41,3.41,0,0,1-.77.22,3,3,0,0,0-1.53.88l-1.75-3.07ZM307,200.05l1.53-1.43q.33.33.87,1a15.77,15.77,0,0,1,1.75,2l-1.53,1.31A17.36,17.36,0,0,0,307,200.05Zm2.95-2.19,1.53-1.31a18.24,18.24,0,0,1,2.52,2.84l-1.64,1.31A21.91,21.91,0,0,0,309.93,197.86Z"/><path d="M314.85,198.51h.66a15.13,15.13,0,0,0,3.28-.54l1.31-.33c1.39-.36,2.74-.69,4-1q3.62-.89,7.11-1.54a21.49,21.49,0,0,0,4.37-1,3.3,3.3,0,0,0,.33,1.2,3.75,3.75,0,0,1,.22,1.64l-1.53.33a7.68,7.68,0,0,0-3.72,1.2,8.72,8.72,0,0,0-3.17,4.71,15.34,15.34,0,0,0-.66,3.83v.65a5.8,5.8,0,0,0,1.64,4.27,6.43,6.43,0,0,0,4.27,1.64h.55a7.05,7.05,0,0,0,1.75-.22v3.28h-.88a12.79,12.79,0,0,1-6.89-1.86,8.61,8.61,0,0,1-3.28-6.89v-.55q0-4.26,3.39-9c-2.92.72-5.83,1.53-8.75,2.4a3.41,3.41,0,0,1-.77.22,3,3,0,0,0-1.53.88l-1.75-3.07ZM335,200.05l1.53-1.43q.33.33.87,1a15.77,15.77,0,0,1,1.75,2l-1.53,1.31A17.36,17.36,0,0,0,335,200.05Zm2.95-2.19,1.53-1.31a18.24,18.24,0,0,1,2.52,2.84l-1.64,1.31A21.91,21.91,0,0,0,337.93,197.86Z"/><path d="M360.79,194.69H361a7.45,7.45,0,0,1,1,2.29,11.79,11.79,0,0,1-2.62,1.1l-.88.33a11.2,11.2,0,0,1,.88,1.53,13.12,13.12,0,0,1,.76,1.53c.44-.15,1.1-.4,2-.77l2-.65h.33l1,2-.1.33-1.21.33a12.39,12.39,0,0,1-1.31.44,4.8,4.8,0,0,1-1.42.44,3.06,3.06,0,0,1,.33.65,45.29,45.29,0,0,0,3.06,4.27.31.31,0,0,0,.11.22,1.6,1.6,0,0,1,.44.87l-2.41,2.3a15.65,15.65,0,0,0-8.75-2.3h-.66a5.13,5.13,0,0,0-2.29.44,2,2,0,0,0-1,2.41c.07.29.48.69,1.2,1.2a5.52,5.52,0,0,0,2.52.87,16.59,16.59,0,0,0,3.28.33h.55a7.24,7.24,0,0,0,1.31-.11l-.22,3.07h-.76q-10.17-.56-10.61-5.91v-.55a4.3,4.3,0,0,1,2.18-3.17,10.08,10.08,0,0,1,4.38-1h1.09a18.75,18.75,0,0,1,5.47,1h.11c-.15-.22-.36-.58-.65-1.09s-.7-1.43-1.43-2.74a11.32,11.32,0,0,1-2.29.44,56.56,56.56,0,0,1-6,.55l-.22-.11-1.31-2.08.11-.22h.76a34.89,34.89,0,0,0,6.24-.55,4.75,4.75,0,0,0,1.53-.22L356,199.06a33.52,33.52,0,0,1-4.7,1,6.5,6.5,0,0,0-.66-1,4.92,4.92,0,0,1-.44-.65,1.71,1.71,0,0,1-.44-.77h.33c1.46-.22,3-.51,4.71-.88a8.39,8.39,0,0,0-.55-1.31l-.66-1.31a.62.62,0,0,0-.22-.44,3.19,3.19,0,0,1-.11-.65l3-.55c.43,1.24.87,2.41,1.31,3.5A32,32,0,0,0,360.79,194.69Z"/><path d="M376.1,195.56h1.53a25.89,25.89,0,0,0,8.1-1.09,1.06,1.06,0,0,0,.44-.11,1.62,1.62,0,0,1,.65-.22h.11l2.85,2.3v.11a11.23,11.23,0,0,0-2.52,2.4L385.51,201c-.8.88-1.42,1.57-1.86,2.08A12.31,12.31,0,0,0,385,203a9.54,9.54,0,0,1,1.21-.11h.54a7.79,7.79,0,0,1,4.82,1.75,6.05,6.05,0,0,1,2.07,4.7v.33a6.46,6.46,0,0,1-3.28,5.36,9.85,9.85,0,0,1-5.47,1.64h-.43c-3.36-.29-5.14-1.53-5.36-3.72v-.44c.22-1.89,1.45-2.95,3.72-3.17h.54q2.73,0,5.36,3.5a4.67,4.67,0,0,0,1.75-3.39v-.54q-.33-3.07-4.05-3.4h-.54a9.36,9.36,0,0,0-7.33,3.83.31.31,0,0,1-.11.22,1.85,1.85,0,0,1-.55.55l-2.62-2v-.33a41.41,41.41,0,0,0,9.3-10.17,15.09,15.09,0,0,0-6,1.31c-.07,0-.15.08-.22.22a.85.85,0,0,1-.76.22l-1.43-3.61Zm7.33,18.7H384a4.64,4.64,0,0,0,1.42-.21,1.54,1.54,0,0,0-.77-1.21A2.56,2.56,0,0,0,382,212c-.66.36-.84.84-.55,1.42A2.29,2.29,0,0,0,383.43,214.26Z"/><path d="M418.65,197.64l2.41,2.73v.22a39.84,39.84,0,0,0-10.61,4.49,12.89,12.89,0,0,0-3.39,3.28,3.8,3.8,0,0,0-.66,1.86v.44a3.39,3.39,0,0,0,2.08,3,8.44,8.44,0,0,0,3.72.65H413a23.18,23.18,0,0,0,6.35-.87l.22,3.28c-1.9.15-3.72.22-5.47.22h-1.64a10,10,0,0,1-5.8-1.2,5.44,5.44,0,0,1-2.84-4.93v-.54q.11-3.72,4.48-6.78a1.06,1.06,0,0,1,.55-.44,44.36,44.36,0,0,0-3.5-9.19l2.95-.55a64,64,0,0,1,3.28,8.21l3.94-2A13.07,13.07,0,0,0,418.65,197.64Z"/><path d="M428.28,196.76l.1-.1c1.32.21,2.56.47,3.72.76a2.43,2.43,0,0,1-.22.77,4.86,4.86,0,0,0-.21,1.2,6.28,6.28,0,0,0-.11,1.31v.77a20.56,20.56,0,0,0,.43,4.59,38.26,38.26,0,0,0,1.54,4.38c.5,1.16,1.13,1.75,1.85,1.75a2.63,2.63,0,0,0,1.65-.77,9.53,9.53,0,0,0,1.75-2.08H439l1.32,2q.21.1,0,.33a5,5,0,0,1-1.53,2,5.2,5.2,0,0,1-3.61,1.53q-2.62,0-4.16-3.39a22,22,0,0,1-.77-2.19,6.84,6.84,0,0,0-.43-1.42,58.79,58.79,0,0,1-1-6.13,9.69,9.69,0,0,0-.11-1.09,5.67,5.67,0,0,0-.22-1,15.72,15.72,0,0,0-.11-1.64A8.8,8.8,0,0,0,428.28,196.76Zm16.29,2.85,2.52-.77h.22a38.13,38.13,0,0,1,4.26,7.11,7.27,7.27,0,0,1,1,2.41l-2.63,1.2h-.44a30.23,30.23,0,0,0-5-9.62Z"/><path d="M460.87,202h.76a10.44,10.44,0,0,0,3.07-.65c.94-.22,1.89-.48,2.84-.77a11.11,11.11,0,0,1,3.5-.54h.33a4.09,4.09,0,0,1,3.61,2,6.27,6.27,0,0,1,1,3.61v1q-.1,6.78-6,11.81a.84.84,0,0,0-.33.11,1,1,0,0,1-.33.11h-.11l-.11-.11a20.06,20.06,0,0,0-2.19-1.64v-.22A12.71,12.71,0,0,0,473,206.06v-.55c-.07-1.89-.88-2.88-2.41-2.95h-.43a7.38,7.38,0,0,0-2.85.88.84.84,0,0,1-.33.11,10.21,10.21,0,0,0-2.95,1.53c-.07.07-.15.14-.22.22-.29.21-.51.29-.65.21l-2.3-3.17Zm4.59-7,1.1-2.62h.11a35.42,35.42,0,0,0,7.65,2.3l.11.11a6.5,6.5,0,0,0-.22,1,18.26,18.26,0,0,0-.43,1.86l-.11.11a8.08,8.08,0,0,1-2.08-.44.35.35,0,0,0-.22-.11c-1-.29-2.48-.73-4.38-1.31l-1.42-.55Z"/><path d="M495.54,211.86h2.3a34.87,34.87,0,0,0,8.09-1v3.5a45.09,45.09,0,0,1-8.42.66h-1.64a12.36,12.36,0,0,1-5.14-.87,13,13,0,0,1-3.83-2.85V211l1.86-1.64c.07-.14.11-.14.11,0a8.51,8.51,0,0,0,3.17,2.08A10.22,10.22,0,0,0,495.54,211.86Zm.55-15.31H497a25.6,25.6,0,0,0,5.14-.77c-.07,0,0,0,.33-.11v3.17c-1.53.15-3,.22-4.48.22h-2.52a43.29,43.29,0,0,1-4.48-.44l-.22-.11-.66-3.06.11-.11a5.88,5.88,0,0,0,.88.22A18.93,18.93,0,0,0,496.09,196.55Z"/><path d="M530.65,197.64l2.41,2.73v.22a39.84,39.84,0,0,0-10.61,4.49,12.89,12.89,0,0,0-3.39,3.28,3.8,3.8,0,0,0-.66,1.86v.44a3.39,3.39,0,0,0,2.08,3,8.44,8.44,0,0,0,3.72.65H525a23.18,23.18,0,0,0,6.35-.87l.22,3.28c-1.9.15-3.72.22-5.47.22h-1.64a10,10,0,0,1-5.8-1.2,5.44,5.44,0,0,1-2.84-4.93v-.54q.11-3.72,4.48-6.78a1.06,1.06,0,0,1,.55-.44,44.36,44.36,0,0,0-3.5-9.19l3-.55a64,64,0,0,1,3.28,8.21l3.94-2A13.07,13.07,0,0,0,530.65,197.64Z"/><path d="M558.65,197.64l2.41,2.73v.22a39.84,39.84,0,0,0-10.61,4.49,12.89,12.89,0,0,0-3.39,3.28,3.8,3.8,0,0,0-.66,1.86v.44a3.39,3.39,0,0,0,2.08,3,8.44,8.44,0,0,0,3.72.65H553a23.18,23.18,0,0,0,6.35-.87l.22,3.28c-1.9.15-3.72.22-5.47.22h-1.64a10,10,0,0,1-5.8-1.2,5.44,5.44,0,0,1-2.84-4.93v-.54q.11-3.72,4.48-6.78a1.06,1.06,0,0,1,.55-.44,44.36,44.36,0,0,0-3.5-9.19l3-.55a64,64,0,0,1,3.28,8.21l3.94-2A13.07,13.07,0,0,0,558.65,197.64Z"/><path d="M572.54,197.86h1.64c.37,0,1,0,1.75-.11h.88a1.61,1.61,0,0,1,.11-.55,27.45,27.45,0,0,0,.21-2.84,7.17,7.17,0,0,0-.1-1.1h.54c.37,0,.88,0,1.53.11a10.23,10.23,0,0,0,1.32.11,1.65,1.65,0,0,1-.22,1.1,1,1,0,0,0-.22.54,4.46,4.46,0,0,1-.22,1.1,7.29,7.29,0,0,1-.22,1.2,3.64,3.64,0,0,0,1.2-.22,29.45,29.45,0,0,0,4.93-1.09v2.73q-3,.66-6,1.21h-.55c-.07.73-.14,1.6-.22,2.62a19.17,19.17,0,0,1,3.4-.66,1.76,1.76,0,0,1,.1-.43v-.66c-.07-.14,0-.29.22-.44l2.63.44.11.22-.11.11q-.11.23-.33.87a7.26,7.26,0,0,1,4.38,1.64,8.17,8.17,0,0,1,2.51,5.36v.77q-.1,3.93-4.26,6.56a5.3,5.3,0,0,1-2.63,1.1h-.11a11.4,11.4,0,0,0-2.41-2.08,8.62,8.62,0,0,0,4.71-1.75,5.72,5.72,0,0,0,2.08-4.05v-.33a5.4,5.4,0,0,0-2.3-4.26,4.25,4.25,0,0,0-1.2-.44h-.22a3.86,3.86,0,0,0-1.21-.33,25.42,25.42,0,0,1-4.7,8,15.09,15.09,0,0,0,.77,2c-.22.08-.59.22-1.1.44a3.3,3.3,0,0,1-1.2.33c-.22,0-.4-.22-.55-.66a2.18,2.18,0,0,1-1.2.66,6.61,6.61,0,0,1-4,1.64h-.43q-2.52-.1-2.74-3.72v-.44q.11-3.16,3.17-6.45a14.19,14.19,0,0,1,4-2.51c0-.44,0-1.13.11-2.08a6.66,6.66,0,0,1,.11-1.1h-1.64c-.81.08-1.42.11-1.86.11h-1.64c-.22,0-.33,0-.33-.11a3,3,0,0,1-.66-1.53v-.11a1,1,0,0,1-.11-1C571.05,197.82,571.81,197.86,572.54,197.86Zm4.16,14-.11-.33a45.62,45.62,0,0,1-.33-5.47,9.7,9.7,0,0,0-4,4.16,3.89,3.89,0,0,0-.65,2.19c.07,1.09.54,1.64,1.42,1.64a4.29,4.29,0,0,0,2.73-1.21A6.12,6.12,0,0,1,576.7,211.86Zm2.18-7v2.62a6.83,6.83,0,0,0,.11,2,18.58,18.58,0,0,0,2.85-5.25c-1.24.22-2.12.4-2.63.55A.45.45,0,0,1,578.88,204.86Z"/><path d="M603.71,201.47V202a6.6,6.6,0,0,0,.44,2.63h.22l1.09-1.75h.33L607,204c-.14.3-.32.7-.54,1.21a10.8,10.8,0,0,0-1.21,4.26v.44a15.44,15.44,0,0,1-2.62.22,8.78,8.78,0,0,1-1.09-2.85,17.73,17.73,0,0,1-.66-4.92v-.87a27.27,27.27,0,0,1,.44-4.05,22.16,22.16,0,0,0,.43-3.61c1.1.07,2.15.18,3.18.33a19.35,19.35,0,0,0-.55,2.3A26.13,26.13,0,0,0,603.71,201.47Zm7.66-7.66,3.61-.33.22.11a11.21,11.21,0,0,0,.22,3.72,4.79,4.79,0,0,0,.21,1.2,37.8,37.8,0,0,1,.33,4.16v1.75a16,16,0,0,1-1.2,6.67,16.42,16.42,0,0,1-4.59,6.68q-.12.21-.33,0l-2.52-1.21-.11-.22a17.5,17.5,0,0,0,3.94-4.7,16.18,16.18,0,0,0,1.75-7.55V202A19.87,19.87,0,0,0,611.37,193.81Z"/><path d="M634.56,215.25l-2.19,2.19L626.46,211l2.08-1.86Z"/><path d="M110.1,250.83V248.2h3.5v-5.14h2.74v5.14h3.28v2.63h-3.28v3.94l.76-.77a44.08,44.08,0,0,1,3.39,3.28l-1.75,2a1.18,1.18,0,0,0-.43-.44c-.81-.95-1.46-1.68-2-2.19V269.2H113.6V256.52a28.7,28.7,0,0,1-3.17,6.34,26.31,26.31,0,0,0-.55-2.74,7.22,7.22,0,0,0-.21-1.09,27.11,27.11,0,0,0,3.82-8.2Zm10.72,18.37V244.59H135V269.2h-2.73v-1.75h-8.75v1.75Zm2.74-22v4.26h8.75v-4.26Zm0,6.78v4.27h8.75V254Zm0,6.78v4.27h8.75v-4.27Z"/><path d="M137.78,248.64v-2.52h4.15l-1.09-2.73,2.62-.44c.22.59.62,1.57,1.21,3a.31.31,0,0,1,.11.21h2.95v2.52Zm.76,4.16v-2.3h8.53v2.3Zm0,4.26v-2.29h8.53v2.29Zm.11,11.92V258.92H147v9.95h-2.4v-1.42h-3.39V269Zm2.52-7.65v3.94h3.39v-3.94Zm7.76,7.87c-.07-.14-.22-.4-.44-.76a19.93,19.93,0,0,0-1.2-1.75q6.45-2.62,7-6.89c.15-1.1.29-2.74.44-4.93h2.62a27.58,27.58,0,0,1-.22,3.72,10.67,10.67,0,0,0,7.22,7.77c-.73,1.16-1.24,2-1.53,2.62q-5.25-2.62-6.78-6.67Q155.05,266.36,148.93,269.2Zm13.56-13.34q-3.83-2.73-6.56-4.38c-.87,1.54-3,3.1-6.45,4.71a22,22,0,0,0-1.53-2.41q6.23-2.52,6.56-5.91a26.11,26.11,0,0,0,.33-4.81h2.73a27.75,27.75,0,0,1-.44,5l-.21,1.1c.51.29,1.24.73,2.18,1.31q3.39,2,5,3.06ZM151,262a42.26,42.26,0,0,0-2.73-3.93l2.07-1.21a1.26,1.26,0,0,1,.22.33,34.64,34.64,0,0,1,2.63,3.39Zm.33-12.14c-.37-.51-1-1.38-2-2.62l-1-1.31,2-1.32a3.45,3.45,0,0,1,.33.44,42.37,42.37,0,0,1,2.74,3.39Zm9,0-2.08-1.53a35.58,35.58,0,0,0,3.28-3.72l2.08,1.43c-.66.87-1.64,2-3,3.5Zm0,12.14-2-1.53a1.43,1.43,0,0,0,.22-.33,35.71,35.71,0,0,0,2.95-3.39l2.08,1.54c-.51.65-1.31,1.56-2.41,2.73A7.64,7.64,0,0,0,160.31,262Z"/><path d="M171,244.27h.21l3.5.65a13.34,13.34,0,0,1-.32,1.42v15.1a5,5,0,0,0,.65,2.95,3,3,0,0,0,2.3,1.09H178a4.09,4.09,0,0,0,1.85-.43,11.23,11.23,0,0,0,2.52-1.21,12.06,12.06,0,0,0,3.06-2.73h.22l1.31,2.51c.15.15.15.22,0,.22a13.42,13.42,0,0,1-4.59,3.28,9.74,9.74,0,0,1-4.81,1.21h-.33a6.37,6.37,0,0,1-3.61-1.1,4.3,4.3,0,0,1-2.19-3.17c-.07-1-.11-2.08-.11-3.17V246.56a5.73,5.73,0,0,0-.22-1.31A6.77,6.77,0,0,1,171,244.27Z"/><path d="M195.63,249.52H196l9.52-2c4.15-.88,7.29-1.5,9.4-1.86,1.1-.22,2.19-.4,3.29-.55l.21,3.17h-.65c-3.36,0-5.87.91-7.55,2.74a10.36,10.36,0,0,0-2.84,7.32v.44a5.78,5.78,0,0,0,1.53,4.27q1.53,1.64,4.81,1.53h1.86v3.28H213.9a10.17,10.17,0,0,1-6.89-2.41,8.57,8.57,0,0,1-2.3-6.34v-1.09q0-4.28,3.5-8.53c-1,.21-2.4.58-4.37,1.09-1,.22-1.68.4-2.19.55l-1,.32a12.7,12.7,0,0,0-3.29,1.21Z"/><path d="M222,262.64v-.44a8.52,8.52,0,0,1,1.1-3.5,8.93,8.93,0,0,1,2-2.29,9.64,9.64,0,0,1,6.23-2.3h.22a4.39,4.39,0,0,0,.77-1.31c.87-1.53,1.78-3.07,2.73-4.6l-.22-.22a10.69,10.69,0,0,0-5.25,1.86l-.55-1.09c-.21-.44-.65-1.2-1.31-2.3l.11-.11h1.31a16.68,16.68,0,0,0,3.07-.43,3.83,3.83,0,0,1,.76-.11,17.84,17.84,0,0,0,3.39-1h.22l2.84,2.74c.08.29-.1.54-.54.76l-.11.11a12.19,12.19,0,0,0-1.86,1.53c-.22.29-.51.73-.88,1.32a5.74,5.74,0,0,0-.43.65,5.23,5.23,0,0,1-.44.66,19.15,19.15,0,0,1-1,1.86c.81.14,1.61.33,2.41.54a22.33,22.33,0,0,1,3,1.21l1.43.65a24.79,24.79,0,0,0,.65-4.7v-.87h.22l3,.87v.22a20,20,0,0,0-1.31,4.48.31.31,0,0,1-.11.22,2.53,2.53,0,0,1-.33,1,29.17,29.17,0,0,1,5,3.5l-1.32,2.51h-.22q-1.86-1.63-3.82-3.17a1.33,1.33,0,0,0-.55-.33c-.44.95-.91,1.86-1.42,2.74a15.46,15.46,0,0,1-5.36,5h-.22a11.06,11.06,0,0,0-2.3-1.75v-.11a15.45,15.45,0,0,0,5.14-3.72,9.47,9.47,0,0,0,2.08-3.39.1.1,0,0,0-.11-.11,21.93,21.93,0,0,0-7-2.63c-.36.73-.91,1.75-1.64,3.07-.51.87-.87,1.53-1.09,2q-2.62,4.59-5.58,4A3.24,3.24,0,0,1,222,262.64Zm3.39-3.17c-.07.14-.18.33-.32.55a2.9,2.9,0,0,0-.66,1.09c-.29,1.31,0,2,1,2.08a2.2,2.2,0,0,0,1.32-.66.29.29,0,0,1,.11-.22,7,7,0,0,0,1.09-1.42,30.78,30.78,0,0,0,2.3-4.37A7.88,7.88,0,0,0,225.38,259.47Z"/><path d="M262.35,244.05l3.39.32.11.11a4.82,4.82,0,0,0-.43.88,1.46,1.46,0,0,1-.22.44v.43c-.08.59-.15,1.24-.22,2,.8-.07,1.93-.22,3.39-.43a14.19,14.19,0,0,0,1.42-.22l-.22,2.51a28,28,0,0,1-4.59.55,10.17,10.17,0,0,1,.11,1.75c.07.73.11,1.31.11,1.75h.22a21.81,21.81,0,0,0,4.81-.77l-.44,2.52a18.14,18.14,0,0,1-4.37.76c.07,1.68.18,3.43.32,5.25a19.32,19.32,0,0,1,6.13,3.4l-1.31,2a17.86,17.86,0,0,0-4.71-2.51,3.51,3.51,0,0,1-2.18,3.17,7.18,7.18,0,0,1-3.39.66h-1a5.48,5.48,0,0,1-4.05-1.43,3,3,0,0,1-.87-3.6,4.34,4.34,0,0,1,2.08-1.75,11.06,11.06,0,0,1,3.72-.66h1.09a8.91,8.91,0,0,1,1.64.22c-.44-.15-.37-.15.22,0a28.36,28.36,0,0,0-.22-3c-.07-.65-.11-1.16-.11-1.53h-2.3a34.51,34.51,0,0,1-3.93-.22l-.22-.1-.55-2.41v-.22c.29.07.66.15,1.09.22a20,20,0,0,0,3.07.33h2.73c0-1.1,0-2.37-.11-3.83h-.65c-1.9,0-3.72-.07-5.47-.22l-.22-.11-.66-2.51a16.2,16.2,0,0,1,2.19.21,25.06,25.06,0,0,0,2.73.22h2.08V247A23.57,23.57,0,0,0,262.35,244.05ZM260,263.19h-.66c-1.68.14-2.55.76-2.62,1.86.07.43.43.76,1.09,1a13.82,13.82,0,0,0,1.64.11h.66a4.66,4.66,0,0,0,2.4-.44,2.18,2.18,0,0,0,.77-1.75v-.43a9.59,9.59,0,0,1-1.1-.11A17,17,0,0,0,260,263.19Z"/><path d="M283,244.27h.21l3.5.65a13.34,13.34,0,0,1-.32,1.42v15.1a5,5,0,0,0,.65,2.95,3,3,0,0,0,2.3,1.09H290a4.09,4.09,0,0,0,1.85-.43,11.23,11.23,0,0,0,2.52-1.21,12.06,12.06,0,0,0,3.06-2.73h.22l1.31,2.51c.15.15.15.22,0,.22a13.42,13.42,0,0,1-4.59,3.28,9.74,9.74,0,0,1-4.81,1.21h-.33a6.37,6.37,0,0,1-3.61-1.1,4.3,4.3,0,0,1-2.19-3.17c-.07-1-.11-2.08-.11-3.17V246.56a5.73,5.73,0,0,0-.22-1.31A6.77,6.77,0,0,1,283,244.27Z"/><path d="M315.73,243.94H316l3.28.87v.33a2.64,2.64,0,0,0-1.1,1.75,11.66,11.66,0,0,0-.65,1.86,3.58,3.58,0,0,1-.22.66l3.61-.66a3.29,3.29,0,0,0,.76-.22l.22.11v2.84c-1.75.3-3.5.51-5.25.66a2.69,2.69,0,0,1-.11.55l-.11.22a63.35,63.35,0,0,1-5.79,15l-3-.87-.1-.22a89.37,89.37,0,0,0,6.34-14.55,17.05,17.05,0,0,1-2.19.11c-.95.07-1.68.11-2.19.11l-.21-.11-.44-2.63.11-.21c.29,0,.76,0,1.42.1a10.1,10.1,0,0,0,1.31.11h.88a18.8,18.8,0,0,0,2.07-.11,2.68,2.68,0,0,0,.22-.65,17.08,17.08,0,0,0,.88-4.38Zm14.76,20.12-.32,3.06a28.34,28.34,0,0,1-3.61.22h-1.1a22.94,22.94,0,0,1-4.81-.54,2,2,0,0,1-.44-.11c-.51,0-.84-.11-1-.33l-.11-2.52a5.9,5.9,0,0,0,1,.22,28.65,28.65,0,0,0,4.82.55h.54A23.2,23.2,0,0,0,330.49,264.06Zm-6.34-10.72h1c1.17,0,2.41,0,3.72.11l.11,3-.11.11a24.17,24.17,0,0,0-4.7-.66h-1.09a9,9,0,0,0-2.41.33l.44-2.74h1.42C323.24,253.38,323.78,253.34,324.15,253.34Z"/><path d="M337.06,264.39c.22-2.77,1.71-4.27,4.48-4.48,2.7.21,4.16,1.71,4.38,4.48-.3,2.48-1.75,3.86-4.38,4.16Q337.49,268.22,337.06,264.39Zm1.75,0c.14,1.46,1.05,2.26,2.73,2.41a2.54,2.54,0,0,0,2.63-2.41,2.66,2.66,0,0,0-2.63-2.73A2.69,2.69,0,0,0,338.81,264.39Z"/><path d="M368.88,244.81h.77c.36,0,.91,0,1.64.11a8.91,8.91,0,0,0,1.64.22l.11.22a17.2,17.2,0,0,0-.76,4.48,3.72,3.72,0,0,1,1.09-.32c1.09-.37,1.93-.66,2.51-.88l.11,2.73a38.46,38.46,0,0,1-3.93,1.1,16.15,16.15,0,0,0-.11,2v1.86a14.15,14.15,0,0,1,5.9-1.53h.44a8.13,8.13,0,0,1,4.38,1.09,5,5,0,0,1,2.18,3.94v.54a5.48,5.48,0,0,1-.65,2.63,7.06,7.06,0,0,1-2,2.19,11.63,11.63,0,0,1-5.8,2,27.67,27.67,0,0,0-1.75-2.51,12.13,12.13,0,0,0,3.61-.77,5.74,5.74,0,0,0,3.06-2.18,3,3,0,0,0,0-2.74,3.93,3.93,0,0,0-3.28-1.53h-.54a12.31,12.31,0,0,0-5.36,1.53,4.25,4.25,0,0,0,.11.88c0,.36,0,.94.1,1.75.15,1.53.22,2.69.22,3.5v.54a2.75,2.75,0,0,1-1.64,2.63,5.8,5.8,0,0,1-3.17-.55c-2.62-.95-3.94-2.19-3.94-3.72a5.26,5.26,0,0,1,1.53-3.39,16.72,16.72,0,0,1,3.83-2.95c-.07-1.6-.07-3.14,0-4.59a11.72,11.72,0,0,0-1.31.1,22.36,22.36,0,0,1-2.62.22h-.77l-.33-2.73.11-.22a13,13,0,0,0,2.41.22,12.22,12.22,0,0,0,2.62-.22A45.94,45.94,0,0,0,368.88,244.81Zm.55,15.75a.33.33,0,0,0-.22.11,4.78,4.78,0,0,0-2.29,2.3,1.67,1.67,0,0,0,.43,1.64c.88.73,1.57.87,2.08.44q.33-.23.33-1a8.39,8.39,0,0,0-.22-1.86v-.87A5,5,0,0,1,369.43,260.56Zm16.63-9.62.11.11-1.32,2.29h-.22a59.62,59.62,0,0,0-5.35-3.17V250l1.31-1.86.22-.11A51.92,51.92,0,0,1,386.06,250.94Z"/><path d="M394.48,252.58v-2.19h17.06v2.19h-6.45a18,18,0,0,1-2.63,1.64,29,29,0,0,1,2.19,3.06q4.92-2.29,7.88-3.94l1.53,2.3c-.88.44-2.23,1.09-4.05,2,.15-.07,0,0-.55.22a11.94,11.94,0,0,0,6.67,7.33,15,15,0,0,0-1.85,2.29,14.48,14.48,0,0,1-7.11-8.53l-1.54.66a13.3,13.3,0,0,1,.66,4.26c.07,3.36-1.35,5-4.26,5h-3.72a2.85,2.85,0,0,1-.22-.76,15.15,15.15,0,0,0-.44-1.75h3.17c1.9.14,2.77-.69,2.63-2.52a12.09,12.09,0,0,0-.11-1.64,38.41,38.41,0,0,1-12.25,6.13,5.44,5.44,0,0,0-.44-.88,6.75,6.75,0,0,0-.87-1.42,33.43,33.43,0,0,0,12.9-6.23,10.56,10.56,0,0,0-.55-1.32,40,40,0,0,1-10.82,5.14q-.22-.44-.66-1.2a11.77,11.77,0,0,0-.66-1.2,34.67,34.67,0,0,0,11.05-4.6,2.4,2.4,0,0,0-.44-.54,1.18,1.18,0,0,0-.43-.55,44.21,44.21,0,0,1-8.86,3.28c-.37-.8-.77-1.6-1.21-2.4a31.86,31.86,0,0,0,11-3.83Zm-3.94-1.31V245.8h11.38l-.33-.88c-.29-.8-.51-1.38-.66-1.75l3.28-.44c.07.22.22.62.44,1.21q.44,1.2.66,1.86h10.06v5.47h-2.84V248.2h-19v3.07Z"/><path d="M428.06,243.39h.43l3.18.88v.21a1.63,1.63,0,0,0-.55.88q-.22.44-.33.66c-.29.94-.55,1.93-.76,2.95a1,1,0,0,1-.11.33,5.37,5.37,0,0,1-.22.54h2.08a10.75,10.75,0,0,0,1.85-.22,3.09,3.09,0,0,1,.66-.1l-.55,2.73a.44.44,0,0,1-.32.11h-4.27c-.07.51-.15,1.2-.22,2.08s-.25,1.82-.33,2.4a18.31,18.31,0,0,0,5.25.11v.44l-.43,2.19a.49.49,0,0,1-.33.11h-2.3c-.8,0-1.64,0-2.51-.11v.76a2.91,2.91,0,0,0-.11.77v1.09a4.1,4.1,0,0,0,1.09,2.85,4,4,0,0,0,2.52,1h.65a4.69,4.69,0,0,0,3.17-1.09,4.51,4.51,0,0,0,1.1-3v-.43c0-1.24-.7-3-2.08-5.14a2.55,2.55,0,0,0-.33-.55l3.17-.22a9.48,9.48,0,0,1,2.41,6.13v.54a6.33,6.33,0,0,1-2.3,4.81,6.72,6.72,0,0,1-4.81,1.65h-.66a6.89,6.89,0,0,1-4.7-1.86q-1.75-1.43-1.75-4.93v-1.09a14.68,14.68,0,0,1,.11-1.75,17.5,17.5,0,0,0-1.75-.55,11,11,0,0,0-1.86-.54l.22-2.74a15.7,15.7,0,0,0,3.72,1.1v-.55a15.38,15.38,0,0,0,.44-2c.14-.8.25-1.42.32-1.86q-1.31-.33-2.4-.66c-.59-.07-.88-.18-.88-.32l.22-2.74a22,22,0,0,0,3.39,1c.07-.22.18-.62.33-1.21a6.93,6.93,0,0,1,.22-1.09,4,4,0,0,1,.11-.77,14,14,0,0,0,.22-2.07Z"/><path d="M446.43,253.12l-.76-2.18a6.73,6.73,0,0,0,1.53-1.75,62.43,62.43,0,0,0,3.5-6.13l2.62.88q-3.06,4.69-4.59,6.89l2.84-.22c.66-1,1.31-2,2-3.06l2.41,1.09q-3.18,4.59-6.78,9c.58,0,1.75-.07,3.5-.22a10.31,10.31,0,0,0-.88-2.08l1.86-.65c.8,1.67,1.57,3.39,2.3,5.14l-2.08.65a3.65,3.65,0,0,0-.33-1q-2.73.11-4.59.33a8.22,8.22,0,0,0-2.19.22l-.88-2.3a9.12,9.12,0,0,0,2-1.86c.15-.22.37-.51.66-.88l1.64-2.18A28.38,28.38,0,0,0,446.43,253.12Zm1.42,15.1-2.18-.33a54.65,54.65,0,0,0,1.2-6.34l2.08.22C448.58,264.32,448.22,266.47,447.85,268.22Zm2.52-.55c-.15-2.19-.29-4.15-.44-5.9l1.86-.22c.07.43.15,1.09.22,2,.22,1.75.36,3.06.44,3.93Zm4.05-.76c-.15-.59-.44-1.61-.88-3.07-.29-1-.51-1.78-.66-2.29l1.86-.44c.15.66.4,1.57.77,2.73s.62,2.12.77,2.63Zm1.2-10.94v-2.3h16.62V256h-2.07v9.4q.1,3.28-3.29,3.5h-3.06c-.07-.21-.18-.69-.33-1.42-.14-.58-.25-1-.32-1.2,1.16.07,2.11.11,2.84.11,1.17.07,1.71-.4,1.64-1.42v-9Zm.76-8.1v-2.29h6.13c.07-.73.11-1.57.11-2.52h2.62c0,.88,0,1.72-.11,2.52h6.24v2.29h-6.56l-.22.66c.29.15.69.33,1.2.55,2.19.87,3.94,1.64,5.25,2.29L470,253.56q-4.05-2.07-6.46-3.17c-1,1.17-3.06,2.22-6.12,3.17q-.56-1-1.2-2.19,5.35-1.31,5.9-3.5Zm.66,17.5v-7.65h8.09v7.65Zm2.3-5.35v3.17h3.5V260Z"/><path d="M480.67,269.2l-1.21-1.75a2.28,2.28,0,0,0,.88-2v-4h-2.08a15.89,15.89,0,0,1-2.52,7.87,15.18,15.18,0,0,0-2.29-1.64c1.67-2,2.44-5.07,2.29-9.08v-5.9h10.5a1.09,1.09,0,0,0-.21-.55,1.61,1.61,0,0,0-.22-.55h-2.3v-3h-5.14v3.06h-2.52v-4.48H486v3.83l2.18-.33v-3.5H498.6v4.37h-2.51v-3h-5.36v2.84h-2.19a4.47,4.47,0,0,1,.22.55,1.6,1.6,0,0,1,.22.66h10.61v1.86h-7.44v1.64h6.67v5.25h-7v2.08c1-.22,2.44-.55,4.27-1,.87-.22,1.53-.4,2-.55l.87,1.75q-3.82,1-7.11,1.64v.33c0,.8.48,1.17,1.42,1.1H496c.87.07,1.35-.19,1.42-.77a3.38,3.38,0,0,0,.33-1.53,20,20,0,0,1,2.3.77,6.5,6.5,0,0,1-.44,1.75c-.22,1.23-1.24,1.82-3.06,1.75h-4.16q-3.18.11-3.06-2.74v-4.59H483V263h4.92v1.64H483v2l5-.66a9.09,9.09,0,0,0-.11,1.75q-3.93.66-5.46,1l-1.32.32Zm-5.58-23.29v-1.75h11.26v1.75Zm3.17,8.64v1.64h4.48v-1.64Zm0,4.26v.88h4.48v-1.75h-4.48Zm2.3-6.89c-.37-.73-.81-1.49-1.32-2.3l1.86-.54a13.38,13.38,0,0,1,.88,1.42,4.47,4.47,0,0,0,.55.77Zm4.7,2.63v1.64h4.37v-1.64Zm0,3.39v1.75h4.37v-1.75Zm2.52-12v-1.75h11.59v1.75Zm5.35,6a25.71,25.71,0,0,0-1.31-2.3l1.86-.65c.07.14.22.4.44.76.44.73.73,1.24.87,1.54Zm3.29,6h-4.27v1.75h4.27Z"/><path d="M505.17,245.14l3.82,1.2a6,6,0,0,1-.54,1.43q-.22.54-.33.87a22,22,0,0,0-1.75,8.64v.88a10.3,10.3,0,0,0,1.09,5h.11c.15-.29.33-.7.55-1.21a8.34,8.34,0,0,0,.55-1.09l1.2.22q-.11.54-.33,1.53a18.3,18.3,0,0,0-.55,3.5v.66l-2.62.54a10.07,10.07,0,0,1-2-4.26,23.3,23.3,0,0,1-.55-5.58v-1.2a28.39,28.39,0,0,1,.88-7,15.89,15.89,0,0,0,.44-3.61ZM519,262.64h1a23.19,23.19,0,0,0,6.13-.87l.11,3a15.26,15.26,0,0,1-5,.76h-1.2c-3.43,0-6-.8-7.76-2.4a2.91,2.91,0,0,1-.88-1.31l2-1.21A7.45,7.45,0,0,0,519,262.64Zm.11-15.09h1.2a39.75,39.75,0,0,1,4.27.22v2.84c-.52,0-1.21,0-2.08-.11s-1.53-.11-2-.11h-1.2a21.86,21.86,0,0,0-3.07.33,17.56,17.56,0,0,1-2.84.33l-.22-3a20,20,0,0,0,2.52-.22A28,28,0,0,1,519.06,247.55Z"/><path d="M544.87,247.66v2.84a33.16,33.16,0,0,1-4.81,1.2,46.1,46.1,0,0,1-5.69,12.14H534l-2.51-1-.11-.22a37.46,37.46,0,0,0,5.68-10.72,28.23,28.23,0,0,1-3.61.22l-.32-2.95H534a21.31,21.31,0,0,0,2.41-.11,4.87,4.87,0,0,0,.87-.11H538a16.24,16.24,0,0,0,.76-4.7v-.66a10.38,10.38,0,0,0,1.64.44,10.75,10.75,0,0,1,1.54.43,4.31,4.31,0,0,1-.33,1.43,3.27,3.27,0,0,0-.22,1,5.07,5.07,0,0,1-.11.88,7.73,7.73,0,0,1-.22.87A23.64,23.64,0,0,0,544.87,247.66Zm.22,4.7h.22l2.51.55a8.37,8.37,0,0,1-.11,1.31c0,.95.07,2.44.22,4.48.07,1.24.11,2.19.11,2.85a24.25,24.25,0,0,1,5.8,2.51v.33l-1.1,2.41a1.94,1.94,0,0,1-1.09-.55c-.15-.15-.26-.22-.33-.22a23.7,23.7,0,0,0-3.28-1.42,4.69,4.69,0,0,1-.33,1.86,2.07,2.07,0,0,1-.54.76,1.43,1.43,0,0,1-.22.33,4.7,4.7,0,0,1-3.61,1.21h-.66a4.82,4.82,0,0,1-3.72-1.43,3.3,3.3,0,0,1-.76-3.17,3.86,3.86,0,0,1,1.53-2.08,8.36,8.36,0,0,1,3.94-1h.76a4.28,4.28,0,0,1,1,.11Q545.3,256.74,545.09,252.36Zm-1.64,11.16H543a2.48,2.48,0,0,0-2.19,1.09c-.29,1,.18,1.64,1.42,1.86h1c1.38-.08,2.11-1,2.19-2.63A6.2,6.2,0,0,0,543.45,263.52Zm9.62-8.75h-.22a27.19,27.19,0,0,0-4.81-4.38l1.53-2.08h.22q2,1.42,3.83,3.06a2.29,2.29,0,0,1,1,1.21Z"/><path d="M574.4,248.86H575a6.71,6.71,0,0,1,4.59,1.64,6.62,6.62,0,0,1,2,4.59v.55a6,6,0,0,1-1,3.28,10.14,10.14,0,0,1-3,2.85,13.41,13.41,0,0,1-6.56,2.29L569.26,262a16.1,16.1,0,0,0,6.56-2.07c2.19-1.32,3.28-2.88,3.28-4.71v-.43q-.44-3.18-4.48-3.72h-.44a10.74,10.74,0,0,0-3.39.54c-.87.29-1.75.62-2.62,1-.3.14-.7.33-1.21.54a34.19,34.19,0,0,0-3.17,1.75c-.07,0-.15.08-.22.22a.84.84,0,0,1-.76.22l-2.3-2.62c2-.51,4-1.1,6-1.75a2,2,0,0,0,.43-.11C570.1,249.44,572.58,248.79,574.4,248.86Z"/><path d="M595.73,243.94H596l3.28.87v.33a2.64,2.64,0,0,0-1.1,1.75,11.66,11.66,0,0,0-.65,1.86,3.58,3.58,0,0,1-.22.66l3.61-.66a3.29,3.29,0,0,0,.76-.22l.22.11v2.84c-1.75.3-3.5.51-5.25.66a2.69,2.69,0,0,1-.11.55c.08-.15,0-.08-.11.22a63.35,63.35,0,0,1-5.79,15l-3-.87-.1-.22a89.37,89.37,0,0,0,6.34-14.55,17.05,17.05,0,0,1-2.19.11c-.95.07-1.68.11-2.19.11l-.21-.11-.44-2.63.11-.21c.29,0,.76,0,1.42.1a10.1,10.1,0,0,0,1.31.11h.88a18.8,18.8,0,0,0,2.07-.11,2.68,2.68,0,0,0,.22-.65,17.08,17.08,0,0,0,.88-4.38Zm14.76,20.12-.32,3.06a28.34,28.34,0,0,1-3.61.22h-1.1a22.94,22.94,0,0,1-4.81-.54,2,2,0,0,1-.44-.11c-.51,0-.84-.11-1-.33l-.11-2.52a5.9,5.9,0,0,0,1,.22,28.65,28.65,0,0,0,4.82.55h.54A23.2,23.2,0,0,0,610.49,264.06Zm-6.34-10.72h1c1.17,0,2.41,0,3.72.11l.11,3-.11.11a24.17,24.17,0,0,0-4.7-.66h-1.09a9,9,0,0,0-2.41.33l.44-2.74h1.42C603.24,253.38,603.78,253.34,604.15,253.34Z"/><path d="M619,244.27h.21l3.5.65a13.34,13.34,0,0,1-.32,1.42v15.1a5,5,0,0,0,.65,2.95,3,3,0,0,0,2.3,1.09H626a4.09,4.09,0,0,0,1.85-.43,11.23,11.23,0,0,0,2.52-1.21,12.06,12.06,0,0,0,3.06-2.73h.22l1.31,2.51c.15.15.15.22,0,.22a13.42,13.42,0,0,1-4.59,3.28,9.74,9.74,0,0,1-4.81,1.21h-.33a6.37,6.37,0,0,1-3.61-1.1,4.3,4.3,0,0,1-2.19-3.17c-.07-1-.11-2.08-.11-3.17V246.56a5.73,5.73,0,0,0-.22-1.31A6.77,6.77,0,0,1,619,244.27Z"/><path d="M653.15,266.25,651,268.44l-5.9-6.46,2.07-1.86Z"/><path d="M137.78,309.59v-2.4h3.71l1-6.24h18.7l-.33,6.24h3.39v2.4h-3.5l-.21,3.94h2.84v2.41h-3.06q-.12,3.93-4.6,3.93a18.63,18.63,0,0,1-3.06,0H150.9l-.55-2.29h4.49c1.53,0,2.37-.55,2.51-1.64H140.07l1-6.35Zm1.85-5.9a20.24,20.24,0,0,0-1.53-2.52,19.69,19.69,0,0,0,5.8-7.33l3.17.22a15.14,15.14,0,0,1-1.2,2.19h17.72v2.52H144.34A48.24,48.24,0,0,1,139.63,303.69Zm4.27,5.9-.55,3.94h5.58l.44-3.94Zm1.09-6.23-.65,3.83h5.36l.43-3.83Zm12.58,10.17.22-3.94h-5.58l-.43,3.94Zm.66-10.17H153l-.44,3.83H158a12.46,12.46,0,0,0,.11-1.86C158.19,304.45,158.23,303.8,158.23,303.36Z"/><path d="M169,320.31l-1.21-1.2c-.58-.51-1-.91-1.31-1.2a10.56,10.56,0,0,0,2.95-5,31.82,31.82,0,0,0,.77-8.2v-9.4H189v19.9c.07,2.85-1.35,4.34-4.26,4.49-.95.07-2.48.11-4.6.11-.07-.44-.22-1.17-.43-2.19a4,4,0,0,0-.22-.77c1.09.07,2.48.11,4.15.11s2.37-.65,2.3-2.19v-2.84H172.78A17.28,17.28,0,0,1,169,320.31Zm4.15-15.42c0,1.6,0,3.06-.11,4.38H185.9v-4.38Zm0-6.89v4.27h12.8V298Z"/><path d="M220,306.75v.77a10,10,0,0,1-3,6.89,13.47,13.47,0,0,1-5.47,3.93c0,.15-.07.15-.22,0a10,10,0,0,0-2.51-1.64v-.22c5.25-2.47,7.91-5.65,8-9.51v-.55a7.11,7.11,0,0,0-2.4-5,8.79,8.79,0,0,0-4.6-2,60.42,60.42,0,0,1-2.4,8,51.54,51.54,0,0,1-3.39,7.11q-1.42,2.63-3.5,2.62-3.28-.11-5.47-3.72a7.69,7.69,0,0,1-1.1-3.72v-.54a10.09,10.09,0,0,1,.88-3.61,12.68,12.68,0,0,1,2-3.28,12.39,12.39,0,0,1,5.9-4.49,15.65,15.65,0,0,1,5-1.09H209a11,11,0,0,1,8,2.95A10.38,10.38,0,0,1,220,306.75ZM197,308.61v.55a6.05,6.05,0,0,0,1.09,3.39,2.51,2.51,0,0,0,2.08,1.31,2.79,2.79,0,0,0,1.86-1.31,21.49,21.49,0,0,0,1.09-2c.15-.37.26-.62.33-.77a36.69,36.69,0,0,0,3.72-10.39,17.45,17.45,0,0,0-4.16,1.1,14.74,14.74,0,0,0-4.48,4A8.56,8.56,0,0,0,197,308.61Z"/><path d="M246.6,319.87q-8.08-1.64-11.48-3.5a58.71,58.71,0,0,1-11.81,3.94c-.37-.8-.84-1.75-1.43-2.84a37.13,37.13,0,0,0,10.5-3,20.51,20.51,0,0,1-6-8h-2.19v-2.62h9.41v-3.72H222.21v-2.63h11.38V294h3.06v3.61h11v2.63h-11v3.72h7.66v2.73a22.13,22.13,0,0,1-6.57,7.88,31,31,0,0,0,10.39,2.62,8.37,8.37,0,0,0-.54,1.09A7.75,7.75,0,0,0,246.6,319.87ZM241,306.53h-11.6a17,17,0,0,0,5.69,6.45A17.59,17.59,0,0,0,241,306.53Z"/><path d="M250.1,301.72v-2.63h3.72v-5h3v5h3.6v2.63h-3.6v4.81l3.28-.76v3l-3.28.76v6.89c.07,2.05-1,3.14-3.29,3.29a26.85,26.85,0,0,1-2.73.11c-.15-.88-.33-1.79-.55-2.74h2.08q1.64,0,1.53-1.53v-5.36L250,311l-.32-3.07,4.15-.87v-5.36Zm10,16.51-1.43-2.29a8.39,8.39,0,0,0,2-3.07,163,163,0,0,0,5.8-18.59l3.17.55a189.72,189.72,0,0,1-6.89,20.34c.95-.07,2.41-.14,4.38-.22l4.59-.33q-1.63-4.69-3.39-9l2.84-.88q3.51,9,5.14,14l-2.84.88-.87-2.52q-5.14.11-9.85.66A9.78,9.78,0,0,0,260.06,318.23Z"/><path d="M278.87,298.77l.11-.11c1.31.21,2.55.47,3.72.76a2.74,2.74,0,0,1-.22.77,4.52,4.52,0,0,0-.22,1.2,7,7,0,0,0-.11,1.31v.77a20.5,20.5,0,0,0,.44,4.59,38.24,38.24,0,0,0,1.53,4.38c.51,1.16,1.13,1.75,1.86,1.75a2.6,2.6,0,0,0,1.64-.77,9,9,0,0,0,1.75-2.08h.22l1.31,2q.23.1,0,.33a4.79,4.79,0,0,1-1.53,2,5.19,5.19,0,0,1-3.61,1.53q-2.62,0-4.16-3.39a22.48,22.48,0,0,1-.76-2.19,6.73,6.73,0,0,0-.44-1.42,56.42,56.42,0,0,1-1-6.12,9.59,9.59,0,0,0-.11-1.1,8.53,8.53,0,0,0-.22-1c0-.37,0-.91-.11-1.64A8.43,8.43,0,0,0,278.87,298.77Zm16.3,2.84,2.51-.77h.22a38.63,38.63,0,0,1,4.27,7.11,7.2,7.2,0,0,1,1,2.41l-2.62,1.2h-.44a30.43,30.43,0,0,0-5-9.62Z"/><path d="M318.35,295.05l3.39.32.11.11a4.82,4.82,0,0,0-.43.88,1.46,1.46,0,0,1-.22.44v.43c-.08.59-.15,1.24-.22,2,.8-.07,1.93-.22,3.39-.43a14.19,14.19,0,0,0,1.42-.22l-.22,2.51a28,28,0,0,1-4.59.55,10.17,10.17,0,0,1,.11,1.75c.07.73.11,1.31.11,1.75h.22a21.81,21.81,0,0,0,4.81-.77l-.44,2.52a18.14,18.14,0,0,1-4.37.76c.07,1.68.18,3.43.32,5.25a19.32,19.32,0,0,1,6.13,3.4l-1.31,2a17.86,17.86,0,0,0-4.71-2.51,3.51,3.51,0,0,1-2.18,3.17,7.18,7.18,0,0,1-3.39.66h-1a5.48,5.48,0,0,1-4.05-1.43,3,3,0,0,1-.87-3.6,4.34,4.34,0,0,1,2.08-1.75,11.06,11.06,0,0,1,3.72-.66h1.09a8.91,8.91,0,0,1,1.64.22c-.44-.15-.37-.15.22,0a28.36,28.36,0,0,0-.22-3c-.07-.65-.11-1.16-.11-1.53h-2.3a34.51,34.51,0,0,1-3.93-.22l-.22-.1-.55-2.41v-.22c.29.07.66.15,1.09.22a20,20,0,0,0,3.07.33h2.73c0-1.1,0-2.37-.11-3.83h-.65c-1.9,0-3.72-.07-5.47-.22l-.22-.11-.66-2.51a16.2,16.2,0,0,1,2.19.21,25.06,25.06,0,0,0,2.73.22h2.08V298A23.57,23.57,0,0,0,318.35,295.05ZM316,314.19h-.66c-1.68.14-2.55.76-2.62,1.86.07.43.43.76,1.09,1a13.82,13.82,0,0,0,1.64.11h.66a4.66,4.66,0,0,0,2.4-.44,2.18,2.18,0,0,0,.77-1.75v-.43a9.59,9.59,0,0,1-1.1-.11A17,17,0,0,0,316,314.19Z"/><path d="M333.45,300.52h.65a15.2,15.2,0,0,0,3.28-.55l1.32-.33c1.38-.36,2.73-.69,4-1q3.61-.89,7.11-1.54a21.79,21.79,0,0,0,4.38-1,3.3,3.3,0,0,0,.33,1.2,3.75,3.75,0,0,1,.22,1.64l-1.54.33a7.49,7.49,0,0,0-3.71,1.21,8.62,8.62,0,0,0-3.18,4.7,15.72,15.72,0,0,0-.65,3.83v.65a5.77,5.77,0,0,0,1.64,4.27,6.38,6.38,0,0,0,4.26,1.64h.55a7,7,0,0,0,1.75-.22v3.28H353a12.8,12.8,0,0,1-6.9-1.86,8.64,8.64,0,0,1-3.28-6.89v-.55q0-4.26,3.39-9c-2.91.72-5.83,1.53-8.75,2.4a3.29,3.29,0,0,1-.76.22,3,3,0,0,0-1.53.88l-1.75-3.07Zm20.12,1.53,1.53-1.43c.22.22.51.55.88,1a17.62,17.62,0,0,1,1.75,2l-1.53,1.31A17.33,17.33,0,0,0,353.57,302.05Zm3-2.19,1.53-1.31a18.7,18.7,0,0,1,2.51,2.84l-1.64,1.31A22.66,22.66,0,0,0,356.53,299.86Z"/><path d="M365.17,307q-1.76-2-3.39-3.72l2.07-1.64,1.32,1.31a32.05,32.05,0,0,1,2.29,2.3Zm-.66,12.9-2.63-.87c.66-2,1.5-5,2.52-9.08a7.73,7.73,0,0,1,.22-.87c.29.07.73.22,1.31.43a8.1,8.1,0,0,1,1.2.44c-.21.88-.58,2.26-1.09,4.16Q365,317.8,364.51,319.87Zm1.64-19.79c-.58-.66-1.39-1.57-2.41-2.74l-1.2-1.2,2.19-1.64,1.86,1.86c.8.87,1.42,1.53,1.86,2Zm11.92,20c-.29-.29-.84-.76-1.64-1.42.58.44.48.33-.33-.33a26.6,26.6,0,0,0,2.52-2.4h-6v-8.75h6.24v8.53a28.64,28.64,0,0,0,2.08-2.85,73.56,73.56,0,0,1-1.1-11v-1.21h-8.31v5.15a37.93,37.93,0,0,1-.66,8.09,19.53,19.53,0,0,1-2.62,6.23,22.36,22.36,0,0,1-2.19-1.75,18.52,18.52,0,0,0,2.3-5.57,35.92,35.92,0,0,0,.54-7.11v-7.44h10.83v-4.16h2.63v4.16h3.06c-.37-.51-1.13-1.42-2.3-2.74l1.64-1a24.79,24.79,0,0,1,2.41,2.52l-1.64,1.2h2.62v2.4h-5.68v1q.1,2.29.33,5.8c.07.87.1,1.53.1,2a46.6,46.6,0,0,0,2.52-6.45l2.3,1a45.47,45.47,0,0,1-4.16,9.4c.22.73.44,1.5.66,2.3s.73,1.31,1.09,1.31.58-.18.66-.76a7.71,7.71,0,0,1,.11-1.1c.14-1.31.25-2.26.32-2.84a15,15,0,0,0,2,.76c-.14,1.46-.32,2.88-.54,4.27-.37,1.75-1.17,2.62-2.41,2.62q-2.52,0-3.61-3.71a.1.1,0,0,1-.11-.11A42.92,42.92,0,0,1,378.07,320.09ZM372.38,305v-2.3h6.68V305Zm2.3,4.37v4.38h2.19v-4.38Z"/><path d="M406.4,299.86H407a6.71,6.71,0,0,1,4.59,1.64,6.62,6.62,0,0,1,2,4.59v.55a6,6,0,0,1-1,3.28,10.14,10.14,0,0,1-3,2.85,13.41,13.41,0,0,1-6.56,2.29L401.26,313a16.1,16.1,0,0,0,6.56-2.07c2.19-1.32,3.28-2.88,3.28-4.71v-.43q-.44-3.18-4.48-3.72h-.44a10.74,10.74,0,0,0-3.39.54c-.87.29-1.75.62-2.62,1-.3.14-.7.33-1.21.54a34.19,34.19,0,0,0-3.17,1.75c-.07,0-.15.08-.22.22a.84.84,0,0,1-.76.22l-2.3-2.62c2-.51,4.05-1.1,6-1.75a2,2,0,0,0,.43-.11C402.1,300.44,404.58,299.79,406.4,299.86Z"/><path d="M419.63,300.52H420l9.52-2c4.15-.88,7.29-1.5,9.4-1.86,1.1-.22,2.19-.4,3.29-.55l.21,3.17h-.65c-3.36,0-5.87.91-7.55,2.74a10.36,10.36,0,0,0-2.84,7.32v.44a5.78,5.78,0,0,0,1.53,4.27q1.53,1.64,4.81,1.53h1.86v3.28H437.9a10.17,10.17,0,0,1-6.89-2.41,8.57,8.57,0,0,1-2.3-6.34v-1.09q0-4.28,3.5-8.53c-.95.21-2.4.58-4.37,1.09-.95.22-1.68.4-2.19.55l-1,.32a12.7,12.7,0,0,0-3.29,1.21Z"/><path d="M461.2,295.81l.22.33a7.43,7.43,0,0,0-.66,3.5v1.75a24.49,24.49,0,0,0,7.66-1.53l.21,3.61a48.62,48.62,0,0,1-7.21.55h-.55a9.57,9.57,0,0,0,.11,1.2v1c-.07-.94.07.91.44,5.58a30.14,30.14,0,0,1,7.54,4.27l-1.86,2.29h-.22a12.05,12.05,0,0,0-1.2-1A1.33,1.33,0,0,0,465,317a38.12,38.12,0,0,0-3.61-2.19,4.68,4.68,0,0,1-1.1,2.41,7.5,7.5,0,0,1-3.06,2.08,17.65,17.65,0,0,1-2.08.11h-.33a5.7,5.7,0,0,1-3.61-1.21c-1.46-1-2.18-2-2.18-3.17v-.44a4.27,4.27,0,0,1,2.07-3.06,6.49,6.49,0,0,1,3.61-.87h1a13,13,0,0,1,2.95.33q-.1-2.62-.33-5.25c-.14-1.9-.22-3.43-.22-4.6V299c0-.36,0-.91-.1-1.64s-.11-1.42-.11-1.86C459,295.56,460.1,295.67,461.2,295.81ZM455,313h-.33c-1.82.15-2.8.81-2.95,2,.15,1.17,1.06,1.86,2.74,2.08H455a3.66,3.66,0,0,0,2.63-.76,2.92,2.92,0,0,0,1.09-2.19v-.44A14.16,14.16,0,0,0,455,313Z"/><path d="M486.35,302.27H488a2.39,2.39,0,0,1,2.19.87,3.36,3.36,0,0,1,.66,2.08v.44a23.85,23.85,0,0,1-1,6.45q-.87,3.83-3.06,4.92a7.42,7.42,0,0,1-3.72.77h-.54c-.22,0-.33,0-.33-.11-.15-.3-.33-.7-.55-1.21a15.22,15.22,0,0,0-.77-1.53v-.11a9.54,9.54,0,0,1,1.21.11,7.61,7.61,0,0,0,1.09.11h.44a2.33,2.33,0,0,0,2.08-1,7.22,7.22,0,0,0,1.09-2,.33.33,0,0,0,.11-.22,14.22,14.22,0,0,0,1-5.25V306c-.07-.8-.43-1.24-1.09-1.31a19.7,19.7,0,0,0-2.41.22,9.57,9.57,0,0,1-1.2.11,41.89,41.89,0,0,1-4.15,9,19.43,19.43,0,0,1-2.3,3.06,2.85,2.85,0,0,1-1.31-.55c-.22-.14-.41-.25-.55-.32a.33.33,0,0,1-.22-.11c-.44-.08-.69-.22-.77-.44a18.07,18.07,0,0,0,4.27-5.91q1.1-2.19,2.08-4.26a8.17,8.17,0,0,0-3.17.87l-.11.11a1.34,1.34,0,0,1-.77.22l-1.53-3.17.11-.22a10.14,10.14,0,0,0,3.06,0,9.59,9.59,0,0,1,1.1-.11,7.13,7.13,0,0,1,2.07-.33c.15-.44.26-.8.33-1.09a13.7,13.7,0,0,0,.66-4.38v-.76a1,1,0,0,1-.11-.44c.29.07.69.15,1.2.22,1,.15,1.82.29,2.41.44a1.65,1.65,0,0,1-.44,1,.33.33,0,0,0-.11.22,4.9,4.9,0,0,0-.33,1.53,1.9,1.9,0,0,0-.11.55,6.18,6.18,0,0,1-.21,1.2c-.08.51-.15.91-.22,1.2A13.27,13.27,0,0,1,486.35,302.27Zm5.36-1.43v-.32a6.47,6.47,0,0,1,1-.77,11.59,11.59,0,0,1,1-.77q.33-.21,1,.66a16,16,0,0,1,2.07,2.3,48.37,48.37,0,0,1,3.39,4.48v.33l-2.62,1.64A45.05,45.05,0,0,0,491.71,300.84Z"/><path d="M518.4,299.86H519a6.71,6.71,0,0,1,4.59,1.64,6.62,6.62,0,0,1,2,4.59v.55a6,6,0,0,1-1,3.28,10.14,10.14,0,0,1-3,2.85,13.41,13.41,0,0,1-6.56,2.29L513.26,313a16.1,16.1,0,0,0,6.56-2.07c2.19-1.32,3.28-2.88,3.28-4.71v-.43q-.44-3.18-4.48-3.72h-.44a10.74,10.74,0,0,0-3.39.54c-.87.29-1.75.62-2.62,1-.3.14-.7.33-1.21.54a34.19,34.19,0,0,0-3.17,1.75c-.07,0-.15.08-.22.22a.84.84,0,0,1-.76.22l-2.3-2.62c2-.51,4.05-1.1,6-1.75a2,2,0,0,0,.43-.11C514.1,300.44,516.58,299.79,518.4,299.86Z"/><path d="M539.73,294.94H540l3.28.87v.33a2.64,2.64,0,0,0-1.1,1.75,11.66,11.66,0,0,0-.65,1.86,3.58,3.58,0,0,1-.22.66l3.61-.66a3.29,3.29,0,0,0,.76-.22l.22.11v2.84c-1.75.3-3.5.51-5.25.66a2.69,2.69,0,0,1-.11.55c.08-.15,0-.08-.11.22a63.35,63.35,0,0,1-5.79,15l-3-.87-.1-.22a89.37,89.37,0,0,0,6.34-14.55,17.05,17.05,0,0,1-2.19.11c-.95.07-1.68.11-2.19.11l-.21-.11-.44-2.63.11-.21c.29,0,.76,0,1.42.1a10.1,10.1,0,0,0,1.31.11h.88a18.8,18.8,0,0,0,2.07-.11,2.68,2.68,0,0,0,.22-.65,17.08,17.08,0,0,0,.88-4.38Zm14.76,20.12-.32,3.06a28.34,28.34,0,0,1-3.61.22h-1.1a22.94,22.94,0,0,1-4.81-.54,2,2,0,0,1-.44-.11c-.51,0-.84-.11-1-.33l-.11-2.52a5.9,5.9,0,0,0,1,.22,28.65,28.65,0,0,0,4.82.55h.54A23.2,23.2,0,0,0,554.49,315.06Zm-6.34-10.72h1c1.17,0,2.41,0,3.72.11l.11,3-.11.11a24.17,24.17,0,0,0-4.7-.66h-1.09a9,9,0,0,0-2.41.33l.44-2.74h1.42C547.24,304.38,547.78,304.34,548.15,304.34Z"/><path d="M557.45,300.52h.65a15.2,15.2,0,0,0,3.28-.55l1.32-.33c1.38-.36,2.73-.69,4-1q3.62-.89,7.11-1.54a21.79,21.79,0,0,0,4.38-1,3.3,3.3,0,0,0,.33,1.2,3.75,3.75,0,0,1,.22,1.64l-1.54.33a7.49,7.49,0,0,0-3.71,1.21,8.62,8.62,0,0,0-3.18,4.7,15.72,15.72,0,0,0-.65,3.83v.65a5.77,5.77,0,0,0,1.64,4.27,6.38,6.38,0,0,0,4.26,1.64h.55a7,7,0,0,0,1.75-.22v3.28H577a12.8,12.8,0,0,1-6.9-1.86,8.64,8.64,0,0,1-3.28-6.89v-.55q0-4.26,3.39-9c-2.91.72-5.83,1.53-8.75,2.4a3.29,3.29,0,0,1-.76.22,3,3,0,0,0-1.53.88l-1.75-3.07Zm20.12,1.53,1.53-1.43c.22.22.51.55.88,1a17.62,17.62,0,0,1,1.75,2l-1.53,1.31A17.33,17.33,0,0,0,577.57,302.05Zm3-2.19,1.53-1.31a18.7,18.7,0,0,1,2.51,2.84l-1.64,1.31A22.66,22.66,0,0,0,580.53,299.86Z"/><path d="M598.46,293.73l3.83.66a10.13,10.13,0,0,0-.55,3.39v1h9v3.17a43.94,43.94,0,0,0-8.2-.55h-.77v3.39l.11.11a6.1,6.1,0,0,1,1,3.72v1.86a13.59,13.59,0,0,1-1.1,4.59,17.31,17.31,0,0,1-2.4,3.61c-.66.66-1.35,1.31-2.08,2H597a13.79,13.79,0,0,0-3.17-1.53v-.22a10.9,10.9,0,0,0,5.8-5.58,4.43,4.43,0,0,1-4.27,0,5.16,5.16,0,0,1-2.19-4.37v-.55q.56-4.49,4.6-5h1.31v-2h-1.2a41.4,41.4,0,0,0-9.3,1.09l-.22-.11-1.09-3.17.11-.22c.21,0,.61,0,1.2.11a10.1,10.1,0,0,0,1.31.11h1.31c.29,0,.92,0,1.86-.11q3.39-.1,6-.22c-.15-1.67-.33-3.13-.55-4.37A5,5,0,0,1,598.46,293.73Zm.66,14.66V307c-.07-.73-.37-1.13-.88-1.2a1.49,1.49,0,0,0-1.09.43,2.81,2.81,0,0,0-1,2.19v.66c.07,1.46.54,2.22,1.42,2.29.51,0,.94-.4,1.31-1.2A3.43,3.43,0,0,0,599.12,308.39Z"/><path d="M617.06,315.39c.22-2.77,1.71-4.27,4.48-4.48,2.7.21,4.16,1.71,4.38,4.48-.3,2.48-1.75,3.86-4.38,4.16Q617.49,319.22,617.06,315.39Zm1.75,0c.14,1.46,1.05,2.26,2.73,2.41a2.54,2.54,0,0,0,2.63-2.41,2.66,2.66,0,0,0-2.63-2.73A2.69,2.69,0,0,0,618.81,315.39Z"/></g></g></svg>