<svg xmlns="http://www.w3.org/2000/svg" viewBox="0 0 759.89 428.94"><defs><style>.cls-1{fill:#fff;}</style></defs><g id="レイヤー_2" data-name="レイヤー 2"><g id="_4" data-name="4"><path class="cls-1" d="M638.78,422.23c-4.9-1.9-12.1-10.7-16.6-14.1-4.3-3.2-9.3-6.3-12.8-10.4a62.77,62.77,0,0,1-8.8-14.1,47.08,47.08,0,0,1-4.6-16,35,35,0,0,1,3.5-16.3,39.23,39.23,0,0,1,10.1-13.1c4-3.4,9.5-5.9,15-8.7,4.8-2.5,10.5-3.9,16.1-6.2,5.1-2.1,10.2-4.9,15.7-7.1,5.2-2.1,10.6-4.3,16-6.5s10.9-3.8,16.1-6.4,9.8-6.1,14.8-9.1a150.6,150.6,0,0,0,14.2-9.9c4.5-3.5,8.3-7.8,12.3-12.1,3.9-4.1,8.1-8,11.3-13,3-4.7,5-10.1,7.3-15.6a107.32,107.32,0,0,0,5.1-16.3c1.3-5.3,3.3-10.8,3.9-16.8a155.72,155.72,0,0,0,1.1-17.3,164.18,164.18,0,0,0-1.7-17.2,158.89,158.89,0,0,0-3-17c-1.3-5.6-3.5-10.9-5.4-16.3s-2.3-11.5-4.8-16.7a150.39,150.39,0,0,0-8.6-15.1c-3-4.8-6.8-9.2-10.4-13.8a170,170,0,0,0-11.1-13.3c-4-4-8.9-7.1-13.4-10.9-4.3-3.6-8.2-8.1-13-11.5-4.6-3.2-10-5.5-15.1-8.4-4.8-2.8-10.2-4.9-15.5-7.5-5-2.5-10-5.3-15.4-7.6-5.2-2.2-10.1-5.3-15.7-7.3-5.3-1.9-11.2-2.4-16.8-4.2-5.4-1.6-11-2.8-16.7-4.3-5.5-1.4-10.6-4.6-16.3-5.8-5.5-1.2-11.3-1.4-17.1-2.5-5.5-1-11.3-1.1-17.1-1.9-5.6-.8-11.1-3.3-16.9-4-5.6-.7-11.4-.9-17.2-1.4-5.6-.5-11.4-.7-17.2-1-5.6-.4-11.4.2-17.3-.1-5.7-.2-11.4-.9-17.2-1s-11.4-.5-17.2-.5-11.4-.3-17.3-.2c-5.7.1-11.4.9-17,1.1s-11.4-.1-17,0-11.4,1.4-17,1.5-11.4-.6-17.1-.4-11.3,1.3-17,1.5-11.4-.1-17,.2-11.4-.3-17.1.1-11.4.7-17,1.1-11.4.8-17,1.3-11.4,1.2-17,1.8-11.4,1.2-16.9,1.9c-5.7.7-11.3,1.9-16.8,2.7-5.7.8-11.3,1.8-16.8,2.7-5.7,1-11.2,2.3-16.7,3.4s-11,3.3-16.4,4.6c-5.6,1.3-11.2,2.4-16.6,3.8-5.6,1.5-10.9,3.3-16.3,5s-11,3.3-16.2,5.2c-5.4,2-11,3.4-16.1,5.6q-8,3.6-15.3,7.5c-5.1,2.7-9.1,7-13.8,10s-10.3,5.2-14.7,8.7a153.81,153.81,0,0,0-12.7,11.4,135,135,0,0,0-11.1,12.9c-3.6,4.4-7.7,8.5-10.7,13.3s-5.2,10.1-7.6,15.3a152.45,152.45,0,0,0-5.7,16.1c-1.7,5.3-2.5,10.9-3.6,16.6a168.88,168.88,0,0,0-2.6,16.8c-.6,5.5-2.5,11.1-2.6,16.9s1.5,11.4,2,16.9c.5,5.8.5,11.5,1.6,16.9a119.54,119.54,0,0,0,4.5,16.4c1.9,5.4,5.3,10,7.9,15s4.7,10.3,7.9,14.9a125.85,125.85,0,0,0,23.2,24.4c4.2,3.7,7.8,8.2,12.4,11.5s9.8,5.5,14.7,8.4,9.7,5.6,14.8,8.1,10.1,4.9,15.4,7.1,10.1,4.9,15.5,6.8,11,2.7,16.4,4.3,10.6,3.9,16.1,5.3,11.2,1.8,16.7,2.9,11,2.7,16.5,3.7,11.1,2.1,16.7,2.9,11.2,1.6,16.8,2.2,11.4-.2,17,.3,11.2,2.5,16.8,2.9,11.4,0,17,.3,11.4,1.1,16.9,1.2c5.7.1,11.4-1.5,17-1.5,5.8,0,11.4,1.1,16.9,1,5.8-.1,11.5,0,17-.2,5.9-.3,11.4-2.2,16.8-2.6,6.3-.4,12.3-.4,18-.7,6.3-.4,12.4-.6,18-.9,6.4-.3,12.4.1,18.1,0,6.5-.2,12.5.3,18,.3,6.6,0,12.6-.3,18-.1,6.8.3,12.6,1.2,17.9,1.9a98.63,98.63,0,0,1,17.5,3.7,59.06,59.06,0,0,1,15.9,7.9c4.7,3.3,9.9,6.1,14.6,10.6a75.74,75.74,0,0,0,14,10.7,145.62,145.62,0,0,0,15.8,8c5.3,2.3,10.6,5,16.4,7,5.6,1.9,11.5,3,17.2,4.5s11.6,3.1,17.3,4.2c6.1,1.2,12,1.9,17.6,2.6,6.5.8,12.4,1.8,17.6,1.8C648,423.73,651.88,427.33,638.78,422.23Z"/><path d="M637.18,426.23c-5.6-2.7-9.6-7.9-14.2-12-5-4.5-11-7.6-15.5-12.8-9-10.3-15.5-25.4-12.8-39.2,2.5-12.6,9.9-24.5,21-31.3a119.26,119.26,0,0,1,21.5-9.8c8.2-2.9,15.9-7,23.9-10.3,7.3-2.9,14.5-5.9,21.9-8.7,8.3-3.1,15.3-7.9,22.7-12.6a103.78,103.78,0,0,0,19.9-15.6c7.4-7.6,15.1-15,19.3-24.9,7.3-17.1,12.6-36.3,11.6-55.1a181,181,0,0,0-2.7-22c-1.7-9.7-5.2-18.4-7.9-27.8-2.1-7.5-3.6-14-7.5-20.9-4.5-8-9.9-15.1-15.6-22.3-5.1-6.4-9.9-12.7-16.4-17.8-7.1-5.6-13.5-12.4-20.9-17.6-13.1-9.2-29.2-15.9-43.7-22.6-7-3.2-13.9-7.3-21.5-9.4-8.3-2.2-16.8-4.1-25.1-6.2-7.6-1.9-14.7-5.7-22.4-7.2a245.72,245.72,0,0,0-25.6-3.4c-8-.8-15.2-3.3-23.1-4.6-8.4-1.4-17.2-1.7-25.7-2.1-16.4-.9-32.8-1.2-49.3-1.7s-32.7.4-49.1.6c-8.9.1-17.5.3-26.4,1.2-7.4.7-14.8-.3-22.2,0-8.2.3-16.1,1.6-24.3,1.6s-16.3-.1-24.3.1c-33.1.8-66.3,5.4-98.9,10.9-32,5.4-63.1,15.2-93.9,25.3a133.18,133.18,0,0,0-22.3,9.7c-6.9,3.7-12.4,9.2-19.1,13a100.08,100.08,0,0,0-20.3,14.5c-6.7,6.3-12.1,13.5-18.1,20.4-12.4,14.2-17.9,32.5-21.4,50.7-1.5,7.5-2.2,15.2-3.6,22.7-1,5.4-2,10.1-1.4,15.5.5,4.4,1.5,8.8,1.8,13.2.7,8.5,1.4,16.4,3.7,24.7,2.5,8.8,7.1,16,11.1,24,3.3,6.6,6.5,12.7,11.3,18.5,6.2,7.5,13.3,13.4,20.3,20,5.5,5.2,10.2,9.9,16.8,13.6,7.8,4.3,15.4,8.8,23.4,12.8a234.39,234.39,0,0,0,45,17.5c7,1.9,13.7,4.9,20.8,6.4,8.7,1.8,17.4,3.3,26.1,5.2,16.6,3.6,33.5,6.1,50.4,6.1,7.9,0,15.2,2.7,23,3.1,9.2.5,18.4.5,27.7,1.2,7.8.6,15.3-1.4,23-1.2,8.5.1,17,.9,25.5.9,8.2,0,15.7-2,23.8-2.7,8.7-.7,17.5-.7,26.2-1.2,17.2-.8,34.4,0,51.7-.2,15.3-.2,31.2.6,46,5,14.5,4.3,25.7,13.9,37.1,23.3,12.2,10,28.8,17.7,43.9,22.3a302.19,302.19,0,0,0,49.6,10.6c11.9,1.5,23.9,1.7,35.8,3.4-1.1,2.6-2.1,5.3-3.2,7.9-1.1-1.3-5.8-2.1-7.4-2.7s1.6-8.5,3.2-7.9c1.8.7,6.3,1.3,7.6,2.7s-1.3,8.2-3.2,7.9c-12.7-1.9-25.5-2.1-38.2-3.7-17.3-2.2-35.7-5.8-52.1-12-14.9-5.6-30.3-12.7-42.2-23.4-11.4-10.3-24.8-18.9-40-22.1-16.4-3.5-32.4-3-49-3.4-17.7-.4-35.3,0-53,.8-17.4.8-34.3,3.9-51.7,3.4-4-.1-8.1-.8-12.1-.9-4.8-.1-9.4.7-14.2,1.2-7.4.7-14.7-.6-22.2-1-9.1-.4-17.6-.1-26.5-1.9s-17.9-.8-27-1.8c-17.6-2-34.6-6.4-52-9.3a129.75,129.75,0,0,1-22.3-5.5c-8-2.8-16.5-4-24.4-7-15.8-6.2-30.8-14.2-45.5-22.3C44.08,304.43,22,278.63,9,249c-6.5-14.8-7.2-32.1-8.8-48-.8-7.8,1.3-14.9,2.4-22.6,1.1-8,2.4-15.8,3.9-23.7,5.9-30.9,22.4-57.3,45.5-78.4a93.06,93.06,0,0,1,18.3-12.9c6.5-3.6,11.7-8.8,18.1-12.5,14.8-8.5,31.4-13.2,47.6-18.4,63.1-20,129.7-28.9,195.8-28.7,8.2,0,16.2-1.5,24.3-1.6,9.3-.2,18.3.2,27.6-.8,7.4-.7,14.8-.2,22.3-.4,9-.2,17.9-1.2,26.9-1,16.8.3,33.7,1.8,50.5,1.6,7.8-.1,15.6.4,23.4.9,9,.7,18.2.9,26.9,3.2,16.6,4.4,34.8,2.9,50.9,9.2,7.8,3,15.5,4.9,23.6,7.1,7.9,2.2,16.2,3.3,23.7,6.8,15.7,7.1,31.2,14.8,46.4,22.9a91.56,91.56,0,0,1,19.9,14.2c6.7,6.1,14.4,10.9,20.4,17.8,10.1,11.6,20.7,24.5,27,38.7,3.3,7.5,4.6,15.9,7.3,23.6a120,120,0,0,1,5.6,24.4c4.1,30.1-.6,62.5-16,89.2-3.6,6.2-8.6,11.1-13.5,16.3a123.35,123.35,0,0,1-18.6,16.8,216.51,216.51,0,0,1-20.8,13.4c-7.6,4.1-16.1,6.6-24.1,9.9-7.3,3-14.4,6-21.6,9.3-8.3,3.8-17.1,6.3-25.2,10.6-11.2,5.8-21.4,14.8-20.8,28.6.4,9,5.2,18.5,10.3,25.8,4.9,6.9,11.8,10.6,18,16.1,4.6,4.1,8.5,9.3,14.2,12C642,419,638.58,426.93,637.18,426.23Z"/><path d="M240.82,47.83V45.09h4.49v-3.5c-.44,0-1.1,0-2,.11a13.39,13.39,0,0,0-2,.11,16,16,0,0,0-.44-2.73q4.48-.11,10.83-.77l.55,2.63a42,42,0,0,1-4.27.44v3.71h4.49v2.74H248v1.75q1.1.77,3.39,2.73c.44.37.77.62,1,.77l-1.53,2.41-1.43-1.43A17.27,17.27,0,0,0,248,52.75V63.36h-2.73v-11a37.32,37.32,0,0,1-3.72,6.46l-1.09-3.18A26.23,26.23,0,0,0,245,47.83Zm23.41,15.31-.66-2.4c-3.42.14-6.45.36-9.07.65a9.33,9.33,0,0,0-2.19.44l-1.42-2.3a8.1,8.1,0,0,0,2-3.06,160.27,160.27,0,0,0,5.25-18.7l3.28.54q-3.72,13.35-6.46,20.46c.59,0,1.5,0,2.74-.11,2.11-.15,3.79-.26,5-.33q-.88-2.62-2.74-8c-.21-.5-.36-.87-.43-1.09l2.73-.87q3,7.88,4.92,13.89Z"/><path d="M294.86,50v.76a9.93,9.93,0,0,1-3,6.89,13.49,13.49,0,0,1-5.47,3.94c0,.15-.07.15-.22,0A9.72,9.72,0,0,0,283.7,60v-.22q7.88-3.72,8-9.51v-.55a7.11,7.11,0,0,0-2.4-5,8.72,8.72,0,0,0-4.6-2,60.27,60.27,0,0,1-2.4,8,50.42,50.42,0,0,1-3.39,7.11q-1.42,2.63-3.5,2.63-3.28-.12-5.47-3.72a7.69,7.69,0,0,1-1.1-3.72v-.55a10.14,10.14,0,0,1,.88-3.61,13,13,0,0,1,2-3.28,12.37,12.37,0,0,1,5.9-4.48,15.71,15.71,0,0,1,5-1.1h1.2a11,11,0,0,1,8,3A10.38,10.38,0,0,1,294.86,50Zm-23.08,1.86v.54a6,6,0,0,0,1.09,3.39A2.5,2.5,0,0,0,275,57.13a2.81,2.81,0,0,0,1.86-1.32,19.05,19.05,0,0,0,1.09-2c.15-.36.26-.61.33-.76A36.69,36.69,0,0,0,282,42.69a17.46,17.46,0,0,0-4.16,1.09,14.77,14.77,0,0,0-4.48,4A8.56,8.56,0,0,0,271.78,51.88Z"/><path d="M301.31,46.84V44.66h17.06v2.18h-6.45a17.26,17.26,0,0,1-2.63,1.65,29,29,0,0,1,2.19,3.06c3.28-1.53,5.91-2.85,7.88-3.94l1.53,2.3-4.05,2c.15-.08,0,0-.55.21A11.92,11.92,0,0,0,323,59.42a15.11,15.11,0,0,0-1.85,2.3A14.5,14.5,0,0,1,314,53.19l-1.54.65a13.41,13.41,0,0,1,.66,4.27q.11,5-4.26,5h-3.72a3,3,0,0,1-.22-.76,14.63,14.63,0,0,0-.44-1.75h3.17c1.9.14,2.77-.7,2.63-2.52a12.09,12.09,0,0,0-.11-1.64,38.6,38.6,0,0,1-12.25,6.12,5.42,5.42,0,0,0-.44-.87,6.75,6.75,0,0,0-.87-1.42,33.31,33.31,0,0,0,12.9-6.24,11.1,11.1,0,0,0-.55-1.31,40,40,0,0,1-10.82,5.14q-.22-.44-.66-1.2a10.73,10.73,0,0,0-.66-1.2,34.67,34.67,0,0,0,11.05-4.6,2.41,2.41,0,0,0-.44-.55,1.15,1.15,0,0,0-.43-.54,44.83,44.83,0,0,1-8.86,3.28c-.37-.8-.77-1.6-1.21-2.41A31.45,31.45,0,0,0,308,46.84Zm-3.94-1.31V40.06h11.38l-.33-.87c-.29-.8-.51-1.39-.66-1.75L311,37c.07.22.22.62.44,1.2l.66,1.86H322.2v5.47h-2.84V42.47h-19v3.06Z"/><path d="M328.32,38.53h.33l3,1.1a7.33,7.33,0,0,1-.66,1.75l-.33.65a34.56,34.56,0,0,0-1.42,4.71,24,24,0,0,0-.66,4.59v1a20,20,0,0,0,.77,5.14h.22c.14-.29.36-.69.65-1.2a7.07,7.07,0,0,1,.55-1.09H331l.87.87v.22c-.43,1.9-.8,3.68-1.09,5.36l-2.41.55A18.46,18.46,0,0,1,326,52.53V50.89a24.61,24.61,0,0,1,.87-5.58c.07-.36.22-.91.44-1.64a16.61,16.61,0,0,0,1-4.7Zm11.71.55,3.83.55c-.15,1.67-.22,3.5-.22,5.46V45q2.3-.23,4.59-.66V47a40.6,40.6,0,0,1-4.48.66c.07,5.47.11,8.09.11,7.88l2.51,1c.15.15.26.22.33.22a15,15,0,0,1,2.95,2l-1.75,2.08h-.33q-.87-.66-1.86-1.32c-.29-.14-.69-.36-1.2-.65s-.62-.37-.76-.44a4.52,4.52,0,0,1-1.21,2.19,5.28,5.28,0,0,1-4,1.64H338a6.43,6.43,0,0,1-3.28-.88A3.42,3.42,0,0,1,333,58.44V58a3.49,3.49,0,0,1,1.64-2.62A5.73,5.73,0,0,1,338,54.5h.55a16.14,16.14,0,0,1,2.73.22c0-.44,0-1.13-.11-2.08-.15-1.82-.22-3.21-.22-4.15v-.66h-2.29c-1.54-.07-3.1-.22-4.71-.44l-.33-2.73a7.36,7.36,0,0,1,1.54.22,42.89,42.89,0,0,0,4.37.32h1.31c-.07-1.89-.14-3.2-.22-3.93v-.22A3,3,0,0,0,340,39.08Zm-1.75,17.83h-.55c-1.09,0-1.79.18-2.08.54-.51.66-.29,1.32.66,2a4.06,4.06,0,0,0,4.05-.43,2.26,2.26,0,0,0,.76-1.54A7.37,7.37,0,0,0,338.28,56.91Z"/><path d="M362.89,37.66h.43l3.18.87v.22a1.63,1.63,0,0,0-.55.88l-.33.65c-.29.95-.55,1.94-.76,3a.85.85,0,0,1-.11.32,5.67,5.67,0,0,1-.22.55h2.08a10.75,10.75,0,0,0,1.85-.22,3.26,3.26,0,0,1,.66-.11l-.55,2.74a.44.44,0,0,1-.32.11H364c-.07.51-.15,1.2-.22,2.07-.15,1-.25,1.83-.33,2.41a18.31,18.31,0,0,0,5.25.11v.44l-.43,2.18a.44.44,0,0,1-.33.11h-2.3c-.8,0-1.64,0-2.51-.11v.77a2.91,2.91,0,0,0-.11.77v1.09a4.07,4.07,0,0,0,1.09,2.84,3.91,3.91,0,0,0,2.52,1h.65a4.65,4.65,0,0,0,3.17-1.1,4.48,4.48,0,0,0,1.1-3v-.44c0-1.24-.7-3-2.08-5.14a2.67,2.67,0,0,0-.33-.54l3.17-.22A9.47,9.47,0,0,1,374.7,56v.55a6.33,6.33,0,0,1-2.3,4.81A6.71,6.71,0,0,1,367.59,63h-.66a6.85,6.85,0,0,1-4.7-1.86q-1.75-1.41-1.75-4.92V55.16a14.55,14.55,0,0,1,.11-1.75,17.5,17.5,0,0,0-1.75-.55,12.34,12.34,0,0,0-1.86-.55l.22-2.73a15.69,15.69,0,0,0,3.72,1.09v-.54a15.79,15.79,0,0,0,.44-2c.14-.8.25-1.42.32-1.86q-1.31-.33-2.4-.66c-.59-.07-.88-.18-.88-.33l.22-2.73a22,22,0,0,0,3.39,1c.07-.22.18-.61.33-1.2a6.93,6.93,0,0,1,.22-1.09,4,4,0,0,1,.11-.77,14.15,14.15,0,0,0,.22-2.08Z"/><path d="M386.29,47.28h.77a10.66,10.66,0,0,0,3.06-.65c.95-.22,1.9-.48,2.84-.77a11.16,11.16,0,0,1,3.5-.55h.33a4.09,4.09,0,0,1,3.61,2,6.18,6.18,0,0,1,1,3.61v1q-.12,6.78-6,11.81a.77.77,0,0,0-.33.11.84.84,0,0,1-.33.11h-.1l-.11-.11a22.22,22.22,0,0,0-2.19-1.64v-.22a12.69,12.69,0,0,0,6.12-10.61v-.55c-.07-1.89-.87-2.88-2.4-3h-.44a7.47,7.47,0,0,0-2.84.87.77.77,0,0,1-.33.11,10.64,10.64,0,0,0-3,1.53l-.21.22c-.3.22-.51.3-.66.22l-2.3-3.17Zm4.6-7L392,37.66h.11A35.41,35.41,0,0,0,399.75,40l.11.11a5.83,5.83,0,0,0-.22,1,18.87,18.87,0,0,0-.44,1.86l-.11.11a8.16,8.16,0,0,1-2.08-.44.33.33,0,0,0-.22-.11c-1-.29-2.48-.73-4.37-1.31-.59-.22-1.06-.4-1.42-.55Z"/><path d="M430.48,42.91V54.28c0,2.12.07,4.12.22,6h-3.39V58.66H416.48V60.3H413q.22-3.06.22-6.35v-11Zm-14,12.9h10.83V45.75H416.48Z"/><path d="M459.22,52.65c-.17,0-1.6-.11-4.31-.28-3.25-.16-5.18-.28-5.83-.28a31.93,31.93,0,0,0-4.14.26,2.91,2.91,0,0,1-1.15.39,6.52,6.52,0,0,1-1.54.14A1.66,1.66,0,0,1,441,52.4a1.32,1.32,0,0,1-.53-1c0-.45.67-.79,2-1.07a31.42,31.42,0,0,1,5.72-.42c2.74,0,5.51.14,8.31.39a7,7,0,0,1,.84-.11,3.45,3.45,0,0,1,1.82.51A1.43,1.43,0,0,1,460,51.9C460,52.35,459.72,52.6,459.22,52.65Z"/><path d="M488.41,44.66l1.32,3v.11q-5.58,5.69-17.5,12.14l-.66.33c-.73.22-1.17.51-1.31.87h-.33a19.5,19.5,0,0,1-1.75-2.62,9.16,9.16,0,0,0-.55-1v-.21a11.74,11.74,0,0,0,3.61-1A47.69,47.69,0,0,0,488.41,44.66Zm-15.09,3.06h-.22a40.65,40.65,0,0,0-5.25-4.81l2.08-1.75h.33q2,1.53,5,4.37v.22Z"/><path d="M500.23,39.41l3.72.87-.33.88a5,5,0,0,0-.33.54,7.26,7.26,0,0,0-.22,1.21,1.9,1.9,0,0,0-.11.54,12.21,12.21,0,0,0-.22,1.32,5,5,0,0,0-.22,1.09,3,3,0,0,1,.88-.11,7.51,7.51,0,0,1,.87-.11,2.6,2.6,0,0,0,.66-.11H506a5.07,5.07,0,0,1,2.08.44,2.69,2.69,0,0,1,1.1,2.19v1.31a28.72,28.72,0,0,1-1,6.89q-.76,3.72-2.95,4.27a8,8,0,0,1-3.39.76h-.77q-.33-.77-.87-1.86a8,8,0,0,1-.44-1l.11-.22a5,5,0,0,1,.76.11,7.36,7.36,0,0,0,1.54.22h.43a2.48,2.48,0,0,0,2.3-1.42,18,18,0,0,0,1-3,26.13,26.13,0,0,0,.66-5A1.26,1.26,0,0,0,505,47.94c-.37.07-.91.15-1.64.22l-1.64.33a35.83,35.83,0,0,1-6,12.14l-.22.11a10.48,10.48,0,0,0-1.75-.77,5,5,0,0,0-.87-.44v-.22a28.37,28.37,0,0,0,3.94-5.57A26.47,26.47,0,0,0,498.48,50a7.53,7.53,0,0,0,.43-1,28.72,28.72,0,0,0-3.28,1.1,1.64,1.64,0,0,1-1,.32l-1.2-3.06.21-.22a3.16,3.16,0,0,1,.66.11,1.62,1.62,0,0,0,.88,0c.5-.07,1.27-.22,2.29-.44s1.64-.36,2.08-.43a2.17,2.17,0,0,1,.11-.66,24.44,24.44,0,0,0,.55-5.14ZM517,50l-.11.22-2.3,1.31a35.46,35.46,0,0,0-5.35-7.44v-.33l2.07-1.2A31.14,31.14,0,0,1,517,50Zm.77-7.33v.22l-1.43,1.2h-.21a8.35,8.35,0,0,0-2.63-2.84v-.22l1.31-1.1H515A24.83,24.83,0,0,1,517.73,42.69ZM516.2,39v-.22l1.31-1.09h.22a1.58,1.58,0,0,0,.32.22c.51.43,1.1,1,1.75,1.64a1.77,1.77,0,0,1,.66,1.09l-1.31,1.2h-.22A11.32,11.32,0,0,0,516.2,39Z"/><path d="M190.38,94.13H192c.36,0,.94,0,1.75-.11h.87a1.9,1.9,0,0,1,.11-.55,25.38,25.38,0,0,0,.22-2.84,7.37,7.37,0,0,0-.11-1.1h.55c.36,0,.87,0,1.53.11a10.1,10.1,0,0,0,1.31.11,1.63,1.63,0,0,1-.22,1.09,1.06,1.06,0,0,0-.22.55,4.46,4.46,0,0,1-.22,1.1,6.34,6.34,0,0,1-.22,1.2,3.75,3.75,0,0,0,1.21-.22,30.09,30.09,0,0,0,4.92-1.09v2.73q-3,.66-6,1.2H197c-.08.73-.15,1.61-.22,2.63a19.22,19.22,0,0,1,3.39-.66,2,2,0,0,1,.11-.44v-.65c-.07-.15,0-.29.22-.44l2.62.44.11.22-.11.11a8.57,8.57,0,0,0-.33.87,7.24,7.24,0,0,1,4.38,1.64,8.17,8.17,0,0,1,2.51,5.36v.77q-.1,3.93-4.26,6.56a5.23,5.23,0,0,1-2.63,1.09h-.11a11.29,11.29,0,0,0-2.4-2.07,8.62,8.62,0,0,0,4.7-1.75,5.68,5.68,0,0,0,2.08-4v-.33a5.4,5.4,0,0,0-2.3-4.27,4.31,4.31,0,0,0-1.2-.43h-.22a3.79,3.79,0,0,0-1.2-.33,25.41,25.41,0,0,1-4.71,8,17,17,0,0,0,.77,2c-.22.08-.58.22-1.09.44a3.34,3.34,0,0,1-1.21.33q-.33,0-.54-.66a2.2,2.2,0,0,1-1.21.66,6.59,6.59,0,0,1-4,1.64h-.44q-2.52-.1-2.74-3.72v-.44c.08-2.11,1.13-4.26,3.18-6.45a14.27,14.27,0,0,1,4-2.52c0-.43,0-1.13.11-2.07a6.66,6.66,0,0,1,.11-1.1h-1.64c-.8.08-1.42.11-1.86.11h-1.64c-.22,0-.33,0-.33-.11a3,3,0,0,1-.65-1.53V95c-.22-.44-.26-.76-.11-1C188.89,94.09,189.66,94.13,190.38,94.13Zm4.16,14-.11-.33a45.62,45.62,0,0,1-.33-5.47,9.68,9.68,0,0,0-4,4.16,3.81,3.81,0,0,0-.66,2.18c.07,1.1.55,1.64,1.42,1.64a4.33,4.33,0,0,0,2.74-1.2A6.49,6.49,0,0,1,194.54,108.13Zm2.19-7v2.62a6.45,6.45,0,0,0,.11,2,19.06,19.06,0,0,0,2.84-5.25c-1.24.22-2.11.4-2.62.55A.49.49,0,0,1,196.73,101.13Z"/><path d="M225.6,89.31l3.39.33.11.11a4.82,4.82,0,0,0-.43.88,1.37,1.37,0,0,1-.22.43v.44c-.08.59-.15,1.24-.22,2,.8-.07,1.93-.22,3.39-.44a10,10,0,0,0,1.42-.22l-.22,2.52a29.16,29.16,0,0,1-4.59.55,10.09,10.09,0,0,1,.11,1.75c.07.73.11,1.31.11,1.75h.22a22.41,22.41,0,0,0,4.81-.77l-.44,2.52a18.64,18.64,0,0,1-4.37.76c.07,1.68.18,3.43.32,5.25a19.3,19.3,0,0,1,6.13,3.39l-1.31,2A17.86,17.86,0,0,0,229.1,110a3.52,3.52,0,0,1-2.18,3.17,7.32,7.32,0,0,1-3.39.65h-1a5.48,5.48,0,0,1-4-1.42,3.06,3.06,0,0,1-.87-3.61A4.45,4.45,0,0,1,219.7,107a11,11,0,0,1,3.72-.65h1.09a9.63,9.63,0,0,1,1.64.21c-.44-.14-.37-.14.22,0a28.21,28.21,0,0,0-.22-3c-.07-.65-.11-1.16-.11-1.53h-2.3a34.51,34.51,0,0,1-3.93-.22l-.22-.11-.55-2.4v-.22c.29.07.66.14,1.09.22a21.06,21.06,0,0,0,3.07.32h2.73c0-1.09,0-2.36-.11-3.82h-.65c-1.9,0-3.72-.08-5.47-.22l-.22-.11L218.82,93a16.56,16.56,0,0,1,2.19.22,25.06,25.06,0,0,0,2.73.22h2.08v-1.2A23.84,23.84,0,0,0,225.6,89.31Zm-2.4,19.14h-.66c-1.68.15-2.55.77-2.62,1.86.07.44.43.77,1.09,1a13.82,13.82,0,0,0,1.64.11h.66a4.77,4.77,0,0,0,2.4-.44,2.2,2.2,0,0,0,.77-1.75v-.44a7.71,7.71,0,0,1-1.1-.11A19.16,19.16,0,0,0,223.2,108.45Z"/><path d="M249.56,97.74v.54a6.62,6.62,0,0,0,.43,2.63h.22l1.1-1.75h.32l1.21,1.09c-.15.29-.33.7-.55,1.2a11,11,0,0,0-1.2,4.27v.44a16.67,16.67,0,0,1-2.63.22,9.11,9.11,0,0,1-1.09-2.85,17.73,17.73,0,0,1-.66-4.92v-.87a28.72,28.72,0,0,1,.44-4,22.44,22.44,0,0,0,.44-3.61c1.09.07,2.15.18,3.17.33a21.91,21.91,0,0,0-.55,2.29A27,27,0,0,0,249.56,97.74Zm7.65-7.66,3.61-.33.22.11a11.48,11.48,0,0,0,.22,3.72,4.52,4.52,0,0,0,.22,1.2,37.8,37.8,0,0,1,.33,4.16v1.75a15.91,15.91,0,0,1-1.21,6.67A16.38,16.38,0,0,1,256,114q-.1.23-.33,0l-2.51-1.2-.11-.22a17.45,17.45,0,0,0,3.93-4.7,16.18,16.18,0,0,0,1.75-7.55V98.28A19.84,19.84,0,0,0,257.21,90.08Z"/><path d="M269.35,92.38V90h10.83v2.41H275c-.22,1.31-.47,2.51-.76,3.61h5v2.4q-1.21,10.29-8.1,16c-.95-1-1.64-1.6-2.08-2a17.19,17.19,0,0,0,5.58-6.78,30.2,30.2,0,0,0-2.84-2.08,1,1,0,0,1-.33-.22c-.44.66-.87,1.39-1.31,2.19-.37-.73-.84-1.6-1.42-2.62a26.21,26.21,0,0,0,3.61-10.5Zm7.44,6h-3.17a28.37,28.37,0,0,1-1.64,4l.65-1.2a27,27,0,0,1,3.07,2A40,40,0,0,0,276.79,98.39ZM280.51,97l-.33-2.41,3.39-.43c-.14-1.9-.22-3.83-.22-5.8h2.85c0,.66,0,1.64.11,3v2.63l7.87-1,.33,2.41-8.09,1a15.56,15.56,0,0,0,.11,1.64,9.49,9.49,0,0,0,.1,1.64l8.21-1.2.33,2.52-8.21,1.2a36.32,36.32,0,0,0,.77,3.83,48.18,48.18,0,0,0,4.59-3.5l1.86,1.64a43.19,43.19,0,0,1-5.58,4.37,3.3,3.3,0,0,1,.22.55q.23.44.33.66c.66,1.09,1.38,1.64,2.19,1.64a1.17,1.17,0,0,0,1.2-1.1,20.77,20.77,0,0,0,.66-3.39c.51.3,1.31.7,2.4,1.21a11.88,11.88,0,0,1-.87,3.39,3.46,3.46,0,0,1-3.5,2.73q-3,.1-4.81-3.61l-.22-.54a47,47,0,0,1-6.89,2.84,13.53,13.53,0,0,0-.77-1.53c-.22-.37-.4-.66-.55-.88a42.22,42.22,0,0,0,7.22-3,1.65,1.65,0,0,0-.22-.66c-.36-1.75-.62-3.2-.76-4.37l-4.05.55-.33-2.52,4.16-.55c-.07-1.09-.18-2.18-.33-3.28ZM291,93.25a1.43,1.43,0,0,0-.33-.22c-1.38-1.09-2.44-1.89-3.17-2.4l1.75-1.86a4.7,4.7,0,0,0,.77.54,26.91,26.91,0,0,1,2.73,2Z"/><path d="M313.65,94.13h.55a6.17,6.17,0,0,1,6.56,6.23v.55a6,6,0,0,1-1,3.28,10,10,0,0,1-3,2.84,13.42,13.42,0,0,1-6.56,2.3l-1.75-2.08a15.94,15.94,0,0,0,6.56-2.08q3.29-2,3.28-4.7V100q-.44-3.16-4.48-3.72h-.44a10.75,10.75,0,0,0-3.39.55c-.87.29-1.75.62-2.62,1-.3.15-.7.33-1.21.55a32,32,0,0,0-3.17,1.75c-.07,0-.15.08-.22.22a.84.84,0,0,1-.76.22L299.76,98c2-.5,4.05-1.09,6-1.75a1.51,1.51,0,0,0,.43-.11C309.35,94.71,311.83,94.05,313.65,94.13Z"/><path d="M326.88,94.78h.33l9.52-2c4.15-.87,7.29-1.49,9.4-1.86,1.1-.21,2.19-.4,3.29-.54l.21,3.17H349c-3.36,0-5.87.91-7.55,2.73a10.4,10.4,0,0,0-2.84,7.33v.44a5.76,5.76,0,0,0,1.53,4.26q1.53,1.65,4.81,1.54h1.86v3.28h-1.64a10.27,10.27,0,0,1-6.89-2.41,8.57,8.57,0,0,1-2.3-6.34v-1.1q0-4.26,3.5-8.53c-.95.22-2.4.59-4.37,1.1-.95.21-1.68.4-2.19.54l-1,.33a13.13,13.13,0,0,0-3.29,1.2Z"/><path d="M354.12,93l.11-.11c1.31.22,2.55.48,3.72.77a2.62,2.62,0,0,1-.22.76,4.64,4.64,0,0,0-.22,1.21A7,7,0,0,0,357.4,97v.77a20.5,20.5,0,0,0,.44,4.59,37.41,37.41,0,0,0,1.53,4.37c.51,1.17,1.13,1.75,1.86,1.75a2.58,2.58,0,0,0,1.64-.76,9.26,9.26,0,0,0,1.75-2.08h.22l1.31,2q.23.11,0,.33a4.86,4.86,0,0,1-1.53,2,5.19,5.19,0,0,1-3.61,1.53q-2.62,0-4.16-3.39a22.48,22.48,0,0,1-.76-2.19,6.53,6.53,0,0,0-.44-1.42,56.6,56.6,0,0,1-1-6.13,9.48,9.48,0,0,0-.11-1.09,8.81,8.81,0,0,0-.22-1c0-.36,0-.91-.11-1.64A8.59,8.59,0,0,0,354.12,93Zm16.3,2.85,2.51-.77h.22a38.63,38.63,0,0,1,4.27,7.11,7.12,7.12,0,0,1,1,2.41l-2.62,1.2h-.44a30.59,30.59,0,0,0-5-9.63Z"/><path d="M396.12,92.92v2.85a33.16,33.16,0,0,1-4.81,1.2,46.1,46.1,0,0,1-5.69,12.14h-.33l-2.51-1-.11-.22a37.59,37.59,0,0,0,5.68-10.72,28.23,28.23,0,0,1-3.61.22l-.32-3h.87a19.17,19.17,0,0,0,2.41-.11,4.71,4.71,0,0,0,.87-.1h.66a16.25,16.25,0,0,0,.76-4.71v-.65a10.57,10.57,0,0,0,1.64.43,12,12,0,0,1,1.54.44,4.21,4.21,0,0,1-.33,1.42,3.38,3.38,0,0,0-.22,1,4.87,4.87,0,0,1-.11.87,7.44,7.44,0,0,1-.22.88A22.67,22.67,0,0,0,396.12,92.92Zm.22,4.71h.22l2.51.54a8.4,8.4,0,0,1-.11,1.32c0,.94.07,2.44.22,4.48.07,1.24.11,2.19.11,2.84a24.68,24.68,0,0,1,5.8,2.52v.33l-1.1,2.4a1.91,1.91,0,0,1-1.09-.54c-.15-.15-.26-.22-.33-.22a22.56,22.56,0,0,0-3.28-1.42,4.69,4.69,0,0,1-.33,1.86,2.15,2.15,0,0,1-.54.76,1.43,1.43,0,0,1-.22.33,4.7,4.7,0,0,1-3.61,1.2h-.66a4.82,4.82,0,0,1-3.72-1.42,3.3,3.3,0,0,1-.76-3.17,3.86,3.86,0,0,1,1.53-2.08,8.25,8.25,0,0,1,3.94-1h.76a3.8,3.8,0,0,1,1,.11C396.59,103.5,396.48,100.54,396.34,97.63Zm-1.64,11.15h-.44a2.51,2.51,0,0,0-2.19,1.1c-.29,1,.18,1.64,1.42,1.86h1c1.38-.08,2.11-.95,2.19-2.63A6.21,6.21,0,0,0,394.7,108.78Zm9.62-8.75h-.22a27.52,27.52,0,0,0-4.81-4.37l1.53-2.08H401q2,1.42,3.83,3.06a2.31,2.31,0,0,1,1,1.2Z"/><path d="M421.6,96.53h1.64a2.37,2.37,0,0,1,2.19.88,3.34,3.34,0,0,1,.66,2.08v.43a23.92,23.92,0,0,1-1,6.46q-.87,3.83-3.06,4.92a7.43,7.43,0,0,1-3.72.76h-.54c-.22,0-.33,0-.33-.11-.15-.29-.33-.69-.55-1.2a14.2,14.2,0,0,0-.77-1.53v-.11a9.54,9.54,0,0,1,1.21.11,9.48,9.48,0,0,0,1.09.11h.44a2.32,2.32,0,0,0,2.08-1,7.12,7.12,0,0,0,1.09-2,.35.35,0,0,0,.11-.22,14.22,14.22,0,0,0,1-5.25v-.66c-.07-.8-.43-1.24-1.09-1.31a19.7,19.7,0,0,0-2.41.22,9.57,9.57,0,0,1-1.2.11,41.89,41.89,0,0,1-4.15,9,19.43,19.43,0,0,1-2.3,3.06,2.85,2.85,0,0,1-1.31-.55l-.55-.33a.29.29,0,0,1-.22-.11c-.44-.07-.69-.22-.77-.43A18.18,18.18,0,0,0,413.4,104q1.1-2.19,2.08-4.27a8.36,8.36,0,0,0-3.17.88l-.11.11a1.34,1.34,0,0,1-.77.22l-1.53-3.17.11-.22a10.86,10.86,0,0,0,3.06,0,9.59,9.59,0,0,1,1.1-.11,7.13,7.13,0,0,1,2.07-.33c.15-.44.26-.8.33-1.09a13.74,13.74,0,0,0,.66-4.38v-.77a1,1,0,0,1-.11-.43c.29.07.69.14,1.2.22,1,.14,1.82.29,2.41.43a1.67,1.67,0,0,1-.44,1,.33.33,0,0,0-.11.22,4.9,4.9,0,0,0-.33,1.53,1.9,1.9,0,0,0-.11.54,6.25,6.25,0,0,1-.21,1.21c-.08.51-.15.91-.22,1.2A13.31,13.31,0,0,1,421.6,96.53ZM427,95.11v-.33a6.52,6.52,0,0,1,1-.76,11.59,11.59,0,0,1,1-.77c.22-.14.55.07,1,.66A16,16,0,0,1,432,96.2a48.49,48.49,0,0,1,3.39,4.49V101l-2.62,1.64A44.64,44.64,0,0,0,427,95.11Z"/><path d="M453.65,94.13h.55a6.17,6.17,0,0,1,6.56,6.23v.55a6,6,0,0,1-1,3.28,10,10,0,0,1-3,2.84,13.42,13.42,0,0,1-6.56,2.3l-1.75-2.08a15.94,15.94,0,0,0,6.56-2.08q3.29-2,3.28-4.7V100q-.44-3.16-4.48-3.72h-.44a10.75,10.75,0,0,0-3.39.55c-.87.29-1.75.62-2.62,1-.3.15-.7.33-1.21.55a32,32,0,0,0-3.17,1.75c-.07,0-.15.08-.22.22a.84.84,0,0,1-.76.22L439.76,98c2-.5,4.05-1.09,6-1.75a1.51,1.51,0,0,0,.43-.11C449.35,94.71,451.83,94.05,453.65,94.13Z"/><path d="M475,89.2h.22l3.28.88v.33a2.61,2.61,0,0,0-1.1,1.75,11.3,11.3,0,0,0-.65,1.86,3.19,3.19,0,0,1-.22.65l3.61-.65a3.29,3.29,0,0,0,.76-.22l.22.11v2.84q-2.62.44-5.25.66a2.65,2.65,0,0,1-.11.54c.08-.14,0-.07-.11.22a63.27,63.27,0,0,1-5.79,15l-3-.88-.1-.22a88.89,88.89,0,0,0,6.34-14.54,17.05,17.05,0,0,1-2.19.11c-.95.07-1.68.11-2.19.11l-.21-.11L468.09,95l.11-.22c.29,0,.76,0,1.42.11a10.1,10.1,0,0,0,1.31.11h.88a18.8,18.8,0,0,0,2.07-.11,2.68,2.68,0,0,0,.22-.65,17.08,17.08,0,0,0,.88-4.38Zm14.76,20.13-.32,3.06a28.34,28.34,0,0,1-3.61.22h-1.1a22.33,22.33,0,0,1-4.81-.55,1.55,1.55,0,0,1-.44-.11c-.51,0-.84-.11-1-.32l-.11-2.52a7.15,7.15,0,0,0,1,.22,28.65,28.65,0,0,0,4.82.55h.54A23.2,23.2,0,0,0,489.74,109.33ZM483.4,98.61h1c1.17,0,2.41,0,3.72.11l.11,3-.11.11a24,24,0,0,0-4.7-.65h-1.09a9.44,9.44,0,0,0-2.41.32l.44-2.73h1.42C482.49,98.65,483,98.61,483.4,98.61Z"/><path d="M519.28,101v.76a9.93,9.93,0,0,1-3,6.89,13.49,13.49,0,0,1-5.47,3.94c0,.15-.07.15-.22,0a9.72,9.72,0,0,0-2.51-1.64v-.22q7.88-3.72,8-9.51v-.55a7.11,7.11,0,0,0-2.4-5,8.72,8.72,0,0,0-4.6-2,60.27,60.27,0,0,1-2.4,8,50.42,50.42,0,0,1-3.39,7.11q-1.43,2.63-3.5,2.63-3.29-.12-5.47-3.72a7.69,7.69,0,0,1-1.1-3.72v-.55a10.14,10.14,0,0,1,.88-3.61,13,13,0,0,1,2-3.28,12.37,12.37,0,0,1,5.9-4.48,15.71,15.71,0,0,1,5-1.1h1.2a11,11,0,0,1,8,3A10.38,10.38,0,0,1,519.28,101Zm-23.08,1.86v.54a6,6,0,0,0,1.09,3.39,2.5,2.5,0,0,0,2.08,1.32,2.81,2.81,0,0,0,1.86-1.32,19.05,19.05,0,0,0,1.09-2c.15-.36.26-.61.33-.76a36.69,36.69,0,0,0,3.72-10.39,17.46,17.46,0,0,0-4.16,1.09,14.77,14.77,0,0,0-4.48,4A8.56,8.56,0,0,0,496.2,102.88Z"/><path d="M520.7,94.78h.65a15,15,0,0,0,3.28-.54l1.32-.33c1.38-.37,2.73-.69,4-1q3.62-.87,7.11-1.53a22.51,22.51,0,0,0,4.38-1,3.3,3.3,0,0,0,.33,1.2,3.75,3.75,0,0,1,.22,1.64l-1.54.33a7.6,7.6,0,0,0-3.71,1.2,8.64,8.64,0,0,0-3.18,4.71,15.73,15.73,0,0,0-.65,3.82V104a5.77,5.77,0,0,0,1.64,4.27,6.43,6.43,0,0,0,4.26,1.64h.55a7.49,7.49,0,0,0,1.75-.22v3.28h-.87a12.89,12.89,0,0,1-6.9-1.86,8.64,8.64,0,0,1-3.28-6.89v-.55q0-4.26,3.39-9-4.37,1.1-8.75,2.41a3.29,3.29,0,0,1-.76.22,3.06,3.06,0,0,0-1.53.87l-1.75-3.06Zm20.12,1.53,1.53-1.42c.22.22.51.55.88,1a18.65,18.65,0,0,1,1.75,2l-1.53,1.32A17.48,17.48,0,0,0,540.82,96.31Zm3-2.18,1.53-1.32a19.27,19.27,0,0,1,2.51,2.85L546.18,97A22.66,22.66,0,0,0,543.78,94.13Z"/><path d="M560.4,111.52l-2.19,2.18-5.9-6.45,2.07-1.86Z"/><path d="M111.31,139.66h.43l3.18.87v.22a1.63,1.63,0,0,0-.55.88l-.33.65c-.29.95-.55,1.94-.76,3a.85.85,0,0,1-.11.32,5.67,5.67,0,0,1-.22.55H115a10.75,10.75,0,0,0,1.85-.22,3.26,3.26,0,0,1,.66-.11l-.55,2.74a.44.44,0,0,1-.32.11H112.4c-.07.51-.15,1.2-.22,2.07-.15,1-.25,1.83-.33,2.41a18.31,18.31,0,0,0,5.25.11v.44l-.43,2.18a.44.44,0,0,1-.33.11H114c-.8,0-1.64,0-2.51-.11v.77a2.91,2.91,0,0,0-.11.77v1.09a4.07,4.07,0,0,0,1.09,2.84,3.91,3.91,0,0,0,2.52,1h.65a4.65,4.65,0,0,0,3.17-1.1,4.48,4.48,0,0,0,1.1-2.95v-.44c0-1.24-.7-2.95-2.08-5.14a2.67,2.67,0,0,0-.33-.54l3.17-.22a9.47,9.47,0,0,1,2.41,6.12v.55a6.33,6.33,0,0,1-2.3,4.81A6.71,6.71,0,0,1,116,165h-.66a6.85,6.85,0,0,1-4.7-1.86q-1.75-1.41-1.75-4.92v-1.09a14.55,14.55,0,0,1,.11-1.75,17.5,17.5,0,0,0-1.75-.55,12.34,12.34,0,0,0-1.86-.55l.22-2.73a15.69,15.69,0,0,0,3.72,1.09v-.54a15.79,15.79,0,0,0,.44-2c.14-.8.25-1.42.32-1.86q-1.3-.33-2.4-.66c-.59-.07-.88-.18-.88-.33l.22-2.73a22,22,0,0,0,3.39,1c.07-.22.18-.61.33-1.2a6.93,6.93,0,0,1,.22-1.09,4,4,0,0,1,.11-.77,14.15,14.15,0,0,0,.22-2.08Z"/><path d="M134.28,140.53h.21l3.5.66a13.34,13.34,0,0,1-.32,1.42V157.7a5.06,5.06,0,0,0,.65,3,3,3,0,0,0,2.3,1.09h.66a4,4,0,0,0,1.85-.44,11.19,11.19,0,0,0,2.52-1.2,12.06,12.06,0,0,0,3.06-2.73h.22l1.31,2.51c.15.15.15.22,0,.22a13.42,13.42,0,0,1-4.59,3.28,9.84,9.84,0,0,1-4.81,1.2h-.33a6.36,6.36,0,0,1-3.61-1.09,4.3,4.3,0,0,1-2.19-3.17c-.07-1-.11-2.08-.11-3.17V142.83a5.73,5.73,0,0,0-.22-1.31A6.75,6.75,0,0,1,134.28,140.53Z"/><path d="M169.6,147.53h1.64a2.37,2.37,0,0,1,2.19.88,3.34,3.34,0,0,1,.66,2.08v.43a23.92,23.92,0,0,1-1,6.46q-.87,3.83-3.06,4.92a7.43,7.43,0,0,1-3.72.76h-.54c-.22,0-.33,0-.33-.11-.15-.29-.33-.69-.55-1.2a14.2,14.2,0,0,0-.77-1.53v-.11a9.54,9.54,0,0,1,1.21.11,9.48,9.48,0,0,0,1.09.11h.44a2.32,2.32,0,0,0,2.08-1,7.12,7.12,0,0,0,1.09-2,.35.35,0,0,0,.11-.22,14.22,14.22,0,0,0,1-5.25v-.66c-.07-.8-.43-1.24-1.09-1.31a19.7,19.7,0,0,0-2.41.22,9.57,9.57,0,0,1-1.2.11,41.89,41.89,0,0,1-4.15,9,19.43,19.43,0,0,1-2.3,3.06,2.85,2.85,0,0,1-1.31-.55l-.55-.33a.29.29,0,0,1-.22-.11c-.44-.07-.69-.22-.77-.43A18.18,18.18,0,0,0,161.4,155q1.09-2.19,2.08-4.27a8.36,8.36,0,0,0-3.17.88l-.11.11a1.34,1.34,0,0,1-.77.22l-1.53-3.17.11-.22a10.86,10.86,0,0,0,3.06,0,9.59,9.59,0,0,1,1.1-.11,7.13,7.13,0,0,1,2.07-.33c.15-.44.26-.8.33-1.09a13.74,13.74,0,0,0,.66-4.38v-.77a1,1,0,0,1-.11-.43c.29.07.69.14,1.2.22,1,.14,1.82.29,2.41.43a1.67,1.67,0,0,1-.44,1,.33.33,0,0,0-.11.22,4.9,4.9,0,0,0-.33,1.53,1.9,1.9,0,0,0-.11.54,6.25,6.25,0,0,1-.21,1.21c-.08.51-.15.91-.22,1.2A13.31,13.31,0,0,1,169.6,147.53Zm5.36-1.42v-.33a6.52,6.52,0,0,1,1-.76,11.59,11.59,0,0,1,1-.77c.22-.14.55.07,1,.66A16,16,0,0,1,180,147.2a48.49,48.49,0,0,1,3.39,4.49V152l-2.62,1.64A44.64,44.64,0,0,0,175,146.11Z"/><path d="M190.28,140.53h.21l3.5.66a13.34,13.34,0,0,1-.32,1.42V157.7a5.06,5.06,0,0,0,.65,3,3,3,0,0,0,2.3,1.09h.66a4,4,0,0,0,1.85-.44,11.19,11.19,0,0,0,2.52-1.2,12.06,12.06,0,0,0,3.06-2.73h.22l1.31,2.51c.15.15.15.22,0,.22a13.42,13.42,0,0,1-4.59,3.28,9.84,9.84,0,0,1-4.81,1.2h-.33a6.36,6.36,0,0,1-3.61-1.09,4.3,4.3,0,0,1-2.19-3.17c-.07-1-.11-2.08-.11-3.17V142.83a5.73,5.73,0,0,0-.22-1.31A6.75,6.75,0,0,1,190.28,140.53Z"/><path d="M214.88,145.78h.33l9.52-2c4.15-.87,7.29-1.49,9.4-1.86,1.1-.21,2.19-.4,3.29-.54l.21,3.17H237c-3.36,0-5.87.91-7.55,2.73a10.4,10.4,0,0,0-2.84,7.33v.44a5.76,5.76,0,0,0,1.53,4.26q1.53,1.65,4.81,1.54h1.86v3.28h-1.64a10.27,10.27,0,0,1-6.89-2.41,8.57,8.57,0,0,1-2.3-6.34v-1.1q0-4.26,3.5-8.53c-1,.22-2.4.59-4.37,1.1-1,.21-1.68.4-2.19.54l-1,.33a13.13,13.13,0,0,0-3.29,1.2Z"/><path d="M260.49,144.91l2.41,2.73v.22a40,40,0,0,0-10.61,4.48,13.24,13.24,0,0,0-3.39,3.29,3.8,3.8,0,0,0-.66,1.86v.43a3.4,3.4,0,0,0,2.08,3,8.65,8.65,0,0,0,3.72.65h.77a23.11,23.11,0,0,0,6.34-.87l.22,3.28c-1.9.14-3.72.22-5.47.22h-1.64a10,10,0,0,1-5.8-1.21,5.43,5.43,0,0,1-2.84-4.92v-.54c.07-2.48,1.57-4.74,4.48-6.79a1.09,1.09,0,0,1,.55-.43,43.79,43.79,0,0,0-3.5-9.19l2.95-.55a62,62,0,0,1,3.28,8.21l3.94-2A12.89,12.89,0,0,0,260.49,144.91Z"/><path d="M271.65,163.61a10.07,10.07,0,0,0-2.62-1.09,41,41,0,0,0,2.51-6.57l2.74.88C273.69,158.65,272.82,160.91,271.65,163.61Zm-.11-9.41V140.53H293V154.2Zm2.84-11.26v3.28h6.46v-3.28Zm0,5.58v3.28h6.46v-3.28Zm5,16.18q-3.94.12-3.83-3.5v-5h2.84v4.16c-.07,1.31.62,2,2.08,2h4.05a2,2,0,0,0,2.29-1.64,19.78,19.78,0,0,0,.33-2.41c.29.07.77.22,1.42.44a11.88,11.88,0,0,1,1.43.55q-.33,1.86-.66,3.06c-.44,1.67-1.79,2.48-4.05,2.4Zm3.5-4.81-1-1.64c-.73-1.24-1.27-2.15-1.64-2.73l2.3-1.1q1.53,2,2.84,4.05Zm7.21-16.95h-6.45v3.28h6.45Zm-6.45,5.58v3.28h6.45v-3.28Zm9.41,14.32q-1.75-2.84-3.83-5.9l2.41-1.31c1.45,2,2.77,4,3.93,6Z"/><path d="M298.12,144l.11-.11c1.31.22,2.55.48,3.72.77a2.62,2.62,0,0,1-.22.76,4.64,4.64,0,0,0-.22,1.21,7,7,0,0,0-.11,1.31v.77a20.5,20.5,0,0,0,.44,4.59,37.41,37.41,0,0,0,1.53,4.37c.51,1.17,1.13,1.75,1.86,1.75a2.58,2.58,0,0,0,1.64-.76,9.26,9.26,0,0,0,1.75-2.08h.22l1.31,2q.23.1,0,.33a4.86,4.86,0,0,1-1.53,2,5.19,5.19,0,0,1-3.61,1.53q-2.62,0-4.16-3.39a22.48,22.48,0,0,1-.76-2.19,6.53,6.53,0,0,0-.44-1.42,56.6,56.6,0,0,1-1-6.13,9.48,9.48,0,0,0-.11-1.09,8.81,8.81,0,0,0-.22-1c0-.36,0-.91-.11-1.64A8.59,8.59,0,0,0,298.12,144Zm16.3,2.85,2.51-.77h.22a38.63,38.63,0,0,1,4.27,7.11,7.12,7.12,0,0,1,1,2.41l-2.62,1.2h-.44a30.59,30.59,0,0,0-5-9.63Z"/><path d="M336.4,162.52l-2.19,2.18-5.9-6.45,2.07-1.86Z"/><path d="M361.34,163a14.29,14.29,0,0,0-1.21-1l-1.31-1.31a33.66,33.66,0,0,1-4.26,4.7c-.15-.22-.44-.58-.88-1.09a9.1,9.1,0,0,0-.87-1.1,18,18,0,0,0,4.15-4.48q-1.63-1.65-3.5-3.28c.59-2.48,1.13-5.25,1.64-8.32H353v-2.62h2.4q.33-2.52.66-5.25l2.62.33c-.22,1.6-.43,3.24-.65,4.92h4.37v2.73q-.44,7.23-2.3,11.05c1,.88,2,1.75,2.85,2.63Zm-1.42-15.86h-2.3c-.22,1.39-.59,3.32-1.09,5.8q-.22,1.32-.33,1.86c.29.29.83.77,1.64,1.42-.51-.43-.4-.33.33.33C359,154.53,359.62,151.4,359.92,147.09ZM378,165q-7.54-3.17-9.51-10.5h-2.08V162l4.48-1.75a15.14,15.14,0,0,0,0,2.52c-1.82.65-3.32,1.23-4.48,1.75a10.79,10.79,0,0,0-2.19,1l-1.42-2.19a2,2,0,0,0,.87-2V142h5.69l-.33-1c-.14-.66-.25-1.13-.32-1.42l2.95-.33c.07.22.18.58.33,1.09.22.73.36,1.28.43,1.64h5.25v12.58h-6.56a13.53,13.53,0,0,0,1.64,3.39,47.73,47.73,0,0,0,4.38-2.84,4.81,4.81,0,0,0,.44-.33l1.64,2.08c-.59.29-1.61.87-3.07,1.75-.87.51-1.53.87-2,1.09a14.87,14.87,0,0,0,5.36,2.85Zm-11.59-20.67v2.73H375v-2.73Zm0,7.77H375v-2.85h-8.64Z"/><path d="M384.42,141.41l3.82,1.2a5.79,5.79,0,0,1-.54,1.42c-.15.37-.26.66-.33.88a22,22,0,0,0-1.75,8.64v.87a10.24,10.24,0,0,0,1.09,5h.11c.15-.29.33-.69.55-1.2a8.34,8.34,0,0,0,.55-1.09l1.2.22q-.11.54-.33,1.53a18.3,18.3,0,0,0-.55,3.5v.65l-2.62.55a10.12,10.12,0,0,1-2-4.27,23.16,23.16,0,0,1-.55-5.57v-1.21a28.51,28.51,0,0,1,.88-7,15.82,15.82,0,0,0,.44-3.61Zm13.78,17.5h1a22.81,22.81,0,0,0,6.13-.88l.11,3a15.26,15.26,0,0,1-5,.76h-1.2c-3.43,0-6-.8-7.76-2.41a2.81,2.81,0,0,1-.88-1.31l2-1.2A7.45,7.45,0,0,0,398.2,158.91Zm.11-15.1h1.2a42.51,42.51,0,0,1,4.27.22v2.85c-.52,0-1.21,0-2.08-.11s-1.53-.11-2-.11h-1.2a21.86,21.86,0,0,0-3.07.33,18.5,18.5,0,0,1-2.84.32l-.22-2.95a20,20,0,0,0,2.52-.22A26.48,26.48,0,0,1,398.31,143.81Z"/><path d="M417.45,156.94l-.33-1.1c-.51,0-1.35,0-2.52.11s-1.93.15-2.51.22-1.31.19-2,.33l-.88-2.3a8,8,0,0,0,1.86-1.75,26.15,26.15,0,0,0,2.63-3.5h-1.2a10.36,10.36,0,0,1-1.32.11,5,5,0,0,0-.76.11,2.55,2.55,0,0,0-.77.11l-.76-2.19a13.1,13.1,0,0,0,1.42-1.64,40.9,40.9,0,0,0,3.61-6.23l2.62.87q-2.07,3.41-4.59,6.79c1.31,0,2.37,0,3.17-.11a5.5,5.5,0,0,1,.55-.77c.36-.51.87-1.31,1.53-2.41l2.3,1.21c-3,4.23-5.29,7.29-6.9,9.19l3.72-.22a7.34,7.34,0,0,0-.65-1.64,4,4,0,0,0-.22-.77l2-.66c.65,1.46,1.38,3.29,2.18,5.47Zm-6.35,7.76-2.18-.21q.65-3.18,1.2-6.57l2.08.22A66.22,66.22,0,0,1,411.1,164.7Zm2.52-.54c0-.22,0-.62-.11-1.21-.07-2-.18-3.64-.33-4.81l2-.11q.44,3,.66,5.91Zm4.37-.66q-.54-2.4-1.53-5.58l1.75-.43a15.92,15.92,0,0,1,.55,1.75c.22.58.62,1.82,1.2,3.71Zm2.85-10.83a8.54,8.54,0,0,0-1.21-1.42c-.29-.36-.51-.62-.65-.76q4.69-2.62,4.59-7.33H420v-2.63H434.4q0,3.28-.22,6.78c-.07,2.85-1.46,4.23-4.15,4.16-.66.07-1.79.11-3.4.11-.07-.29-.18-.77-.32-1.42s-.15-1-.22-1.32c.94.08,2,.11,3.17.11,1.46,0,2.19-.76,2.19-2.29,0-.44,0-1.06.11-1.86v-1.64h-5.25Q426.52,149.28,420.84,152.67Zm0,12.69V153.44h13.34v11.92h-2.84v-1.53h-7.77v1.53Zm2.73-9.3v5.36h7.77v-5.36Z"/><path d="M461.74,152.56a31.77,31.77,0,0,1-11.37-9.51,41.21,41.21,0,0,1-11.7,9.84,20.92,20.92,0,0,1-1.43-2.19,5.29,5.29,0,0,1-.32-.54,31.3,31.3,0,0,0,12.25-10.83l3.5.22a6.94,6.94,0,0,1-.66,1.09,28,28,0,0,0,11.59,9.08C463.17,150.3,462.55,151.25,461.74,152.56Zm-20.56,13.13-1.09-1.1c-.59-.51-1-.91-1.31-1.2q5.13-2.73,4.81-9.51c.07-.66.11-1.79.11-3.39h3.06v1.31c-.07.95-.11,1.64-.11,2.08Q447,161.86,441.18,165.69Zm12.36-.44V150.38h3.06v14.87Z"/><path d="M470.28,140.53h.21l3.5.66a13.34,13.34,0,0,1-.32,1.42V157.7a5.06,5.06,0,0,0,.65,3,3,3,0,0,0,2.3,1.09h.66a4,4,0,0,0,1.85-.44,11.19,11.19,0,0,0,2.52-1.2,12.06,12.06,0,0,0,3.06-2.73h.22l1.31,2.51c.15.15.15.22,0,.22a13.42,13.42,0,0,1-4.59,3.28,9.84,9.84,0,0,1-4.81,1.2h-.33a6.36,6.36,0,0,1-3.61-1.09,4.3,4.3,0,0,1-2.19-3.17c-.07-1-.11-2.08-.11-3.17V142.83a5.73,5.73,0,0,0-.22-1.31A6.75,6.75,0,0,1,470.28,140.53Z"/><path d="M494.88,145.78h.33l9.52-2c4.15-.87,7.29-1.49,9.4-1.86,1.1-.21,2.19-.4,3.29-.54l.21,3.17H517c-3.36,0-5.87.91-7.55,2.73a10.4,10.4,0,0,0-2.84,7.33v.44a5.76,5.76,0,0,0,1.53,4.26q1.53,1.65,4.81,1.54h1.86v3.28h-1.64a10.27,10.27,0,0,1-6.89-2.41,8.57,8.57,0,0,1-2.3-6.34v-1.1q0-4.26,3.5-8.53c-.95.22-2.4.59-4.37,1.1-.95.21-1.68.4-2.19.54l-1,.33a13.13,13.13,0,0,0-3.29,1.2Z"/><path d="M521.24,158.91v-.44a8.48,8.48,0,0,1,1.1-3.5,9,9,0,0,1,2-2.3,9.68,9.68,0,0,1,6.23-2.29h.22a4.31,4.31,0,0,0,.77-1.32q1.31-2.3,2.73-4.59l-.22-.22a10.69,10.69,0,0,0-5.25,1.86l-.55-1.09c-.21-.44-.65-1.21-1.31-2.3l.11-.11h1.31a16,16,0,0,0,3.07-.44,4.8,4.8,0,0,1,.76-.11,17.82,17.82,0,0,0,3.39-1h.22l2.84,2.73c.08.3-.1.55-.54.77l-.11.11a12.19,12.19,0,0,0-1.86,1.53c-.22.29-.51.73-.88,1.31a4.9,4.9,0,0,0-.43.66,5.3,5.3,0,0,1-.44.65,17,17,0,0,1-1,1.86c.81.15,1.61.33,2.41.55a23.46,23.46,0,0,1,3,1.2l1.43.66a24.79,24.79,0,0,0,.65-4.7v-.88H541l3,.88v.22a20,20,0,0,0-1.31,4.48.33.33,0,0,1-.11.22,2.45,2.45,0,0,1-.33,1,29.73,29.73,0,0,1,5,3.5L546,160.33h-.22q-1.86-1.64-3.82-3.17a1.33,1.33,0,0,0-.55-.33c-.44.95-.91,1.86-1.42,2.73a15.37,15.37,0,0,1-5.36,5h-.22a11.42,11.42,0,0,0-2.3-1.75v-.1a15.45,15.45,0,0,0,5.14-3.72,9.47,9.47,0,0,0,2.08-3.39.1.1,0,0,0-.11-.11,21.93,21.93,0,0,0-7-2.63c-.36.73-.91,1.75-1.64,3.06-.51.88-.87,1.54-1.09,2-1.75,3.07-3.61,4.41-5.58,4.05A3.24,3.24,0,0,1,521.24,158.91Zm3.39-3.17c-.07.14-.18.32-.32.54a3,3,0,0,0-.66,1.1c-.29,1.31,0,2,1,2.07a2.18,2.18,0,0,0,1.32-.65.29.29,0,0,1,.11-.22,7,7,0,0,0,1.09-1.42,31.44,31.44,0,0,0,2.3-4.38A7.94,7.94,0,0,0,524.63,155.74Z"/><path d="M561.6,140.31l3.39.33.11.11a4.82,4.82,0,0,0-.43.88,1.37,1.37,0,0,1-.22.43v.44c-.08.59-.15,1.24-.22,2,.8-.07,1.93-.22,3.39-.44a10,10,0,0,0,1.42-.22l-.22,2.52a29.16,29.16,0,0,1-4.59.55,10.09,10.09,0,0,1,.11,1.75c.07.73.11,1.31.11,1.75h.22a22.41,22.41,0,0,0,4.81-.77l-.44,2.52a18.64,18.64,0,0,1-4.37.76c.07,1.68.18,3.43.32,5.25a19.3,19.3,0,0,1,6.13,3.39l-1.31,2A17.86,17.86,0,0,0,565.1,161a3.52,3.52,0,0,1-2.18,3.17,7.32,7.32,0,0,1-3.39.65h-1a5.48,5.48,0,0,1-4-1.42,3.06,3.06,0,0,1-.87-3.61A4.45,4.45,0,0,1,555.7,158a11,11,0,0,1,3.72-.65h1.09a9.63,9.63,0,0,1,1.64.21c-.44-.14-.37-.14.22,0a28.21,28.21,0,0,0-.22-3c-.07-.65-.11-1.16-.11-1.53h-2.3a34.51,34.51,0,0,1-3.93-.22l-.22-.11-.55-2.4v-.22c.29.07.66.14,1.09.22a21.06,21.06,0,0,0,3.07.32h2.73c0-1.09,0-2.36-.11-3.82h-.65c-1.9,0-3.72-.08-5.47-.22l-.22-.11-.66-2.52a16.56,16.56,0,0,1,2.19.22,25.06,25.06,0,0,0,2.73.22h2.08v-1.2A23.84,23.84,0,0,0,561.6,140.31Zm-2.4,19.14h-.66c-1.68.15-2.55.77-2.62,1.86.07.44.43.77,1.09,1a13.82,13.82,0,0,0,1.64.11h.66a4.77,4.77,0,0,0,2.4-.44,2.2,2.2,0,0,0,.77-1.75v-.44a7.71,7.71,0,0,1-1.1-.11A19.16,19.16,0,0,0,559.2,159.45Z"/><path d="M582.28,140.53h.21l3.5.66a13.34,13.34,0,0,1-.32,1.42V157.7a5.06,5.06,0,0,0,.65,3,3,3,0,0,0,2.3,1.09h.66a4,4,0,0,0,1.85-.44,11.19,11.19,0,0,0,2.52-1.2,12.06,12.06,0,0,0,3.06-2.73h.22l1.31,2.51c.15.15.15.22,0,.22a13.42,13.42,0,0,1-4.59,3.28,9.84,9.84,0,0,1-4.81,1.2h-.33a6.36,6.36,0,0,1-3.61-1.09,4.3,4.3,0,0,1-2.19-3.17c-.07-1-.11-2.08-.11-3.17V142.83a5.73,5.73,0,0,0-.22-1.31A6.75,6.75,0,0,1,582.28,140.53Z"/><path d="M615,140.2h.22l3.28.88v.33a2.61,2.61,0,0,0-1.1,1.75,11.3,11.3,0,0,0-.65,1.86,3.19,3.19,0,0,1-.22.65l3.61-.65a3.29,3.29,0,0,0,.76-.22l.22.11v2.84q-2.62.44-5.25.66a2.65,2.65,0,0,1-.11.54c.08-.14,0-.07-.11.22a63.27,63.27,0,0,1-5.79,15l-3-.88-.1-.22a88.89,88.89,0,0,0,6.34-14.54,17.05,17.05,0,0,1-2.19.11c-.95.07-1.68.11-2.19.11l-.21-.11-.44-2.63.11-.22c.29,0,.76,0,1.42.11a10.1,10.1,0,0,0,1.31.11h.88a18.8,18.8,0,0,0,2.07-.11,2.68,2.68,0,0,0,.22-.65,17.08,17.08,0,0,0,.88-4.38Zm14.76,20.13-.32,3.06a28.34,28.34,0,0,1-3.61.22h-1.1a22.33,22.33,0,0,1-4.81-.55,1.55,1.55,0,0,1-.44-.11c-.51,0-.84-.11-1-.32l-.11-2.52a7.15,7.15,0,0,0,1,.22,28.65,28.65,0,0,0,4.82.55h.54A23.2,23.2,0,0,0,629.74,160.33Zm-6.34-10.72h1c1.17,0,2.41,0,3.72.11l.11,2.95-.11.11a24,24,0,0,0-4.7-.65h-1.09a9.44,9.44,0,0,0-2.41.32l.44-2.73h1.42C622.49,149.65,623,149.61,623.4,149.61Z"/><path d="M636.31,160.66a4.39,4.39,0,0,1,4.48-4.49q4.05.33,4.38,4.49c-.3,2.48-1.75,3.86-4.38,4.15Q636.74,164.48,636.31,160.66Zm1.75,0q.21,2.19,2.73,2.4a2.53,2.53,0,0,0,2.63-2.4,2.68,2.68,0,1,0-5.36,0Z"/><path d="M99.93,214a15.47,15.47,0,0,0-1.2-1l-1.31-1.31a33.9,33.9,0,0,1-4.27,4.7c-.15-.22-.44-.58-.87-1.09a10,10,0,0,0-.88-1.1,18.06,18.06,0,0,0,4.16-4.48c-1.1-1.1-2.26-2.19-3.5-3.28q.87-3.72,1.64-8.32H91.62v-2.62H94c.21-1.68.43-3.43.65-5.25l2.63.33q-.33,2.4-.66,4.92H101v2.73q-.45,7.23-2.3,11.05c1,.88,2,1.75,2.84,2.63Zm-1.42-15.86h-2.3q-.33,2.08-1.09,5.8-.23,1.32-.33,1.86c.29.29.84.77,1.64,1.42-.51-.43-.4-.33.33.33C97.63,205.53,98.22,202.4,98.51,198.09Zm18,17.94q-7.55-3.17-9.52-10.5H105V213l4.49-1.75a13.26,13.26,0,0,0,0,2.52c-1.83.65-3.32,1.23-4.49,1.75a10.39,10.39,0,0,0-2.18,1l-1.43-2.19a2,2,0,0,0,.88-2V193h5.69c-.08-.21-.19-.54-.33-1-.15-.66-.26-1.13-.33-1.42l2.95-.33c.07.22.18.58.33,1.09.22.73.37,1.28.44,1.64h5.25v12.58h-6.56a12.88,12.88,0,0,0,1.64,3.39,49.39,49.39,0,0,0,4.37-2.84,3.68,3.68,0,0,0,.44-.33l1.64,2.08c-.58.29-1.6.87-3.06,1.75-.88.51-1.53.87-2,1.09a14.79,14.79,0,0,0,5.36,2.85ZM105,195.36v2.73h8.64v-2.73Zm0,7.77h8.64v-2.85H105Z"/><path d="M145.87,203v.76a10,10,0,0,1-3,6.89,13.56,13.56,0,0,1-5.47,3.94c0,.15-.08.15-.22,0a10,10,0,0,0-2.52-1.64v-.22q7.88-3.72,8-9.51v-.55a7.12,7.12,0,0,0-2.41-5,8.65,8.65,0,0,0-4.59-2,60.26,60.26,0,0,1-2.41,8,50.42,50.42,0,0,1-3.39,7.11q-1.43,2.63-3.5,2.63-3.29-.12-5.47-3.72a7.67,7.67,0,0,1-1.09-3.72v-.55a10.31,10.31,0,0,1,.87-3.61,13.34,13.34,0,0,1,2-3.28,12.35,12.35,0,0,1,5.91-4.48,15.71,15.71,0,0,1,5-1.1h1.2a11,11,0,0,1,8,3A10.33,10.33,0,0,1,145.87,203Zm-23.08,1.86v.54a6.08,6.08,0,0,0,1.09,3.39,2.51,2.51,0,0,0,2.08,1.32,2.79,2.79,0,0,0,1.86-1.32,18.75,18.75,0,0,0,1.1-2c.14-.36.25-.61.32-.76A36.69,36.69,0,0,0,133,195.69a17.37,17.37,0,0,0-4.15,1.09,14.81,14.81,0,0,0-4.49,4.05A8.56,8.56,0,0,0,122.79,204.88Z"/><path d="M148.38,206.41c-.29-1.32-.62-2.55-1-3.72a45.66,45.66,0,0,0,6.13-12.36l3.06.66c-.81,2-1.64,4-2.52,5.9v19.58h-2.84V202.25C150.35,203.56,149.41,205,148.38,206.41Zm8.1-8.53v-2.74H164c-.08-.22-.22-.65-.44-1.31-.44-1.38-.77-2.41-1-3.06l3.07-.44a11.8,11.8,0,0,0,.43,1.31c.51,1.39.84,2.37,1,3l-2.74.55h9.08v2.74h-6.89v5.57h6.24v2.74h-6.24v6.34h7.55v2.52H155.82v-2.52h7.66v-6.34h-6.24v-2.74h6.24v-5.57Z"/><path d="M181.42,191.31l3.5.44a25,25,0,0,0-.66,4.38,43.27,43.27,0,0,0,4.48-.88l-.32,3.06a16.28,16.28,0,0,0-2.08.22c-1,.08-1.79.15-2.3.22v2.41a4.52,4.52,0,0,0,.22,1.2,1.9,1.9,0,0,1,.11.55,8.54,8.54,0,0,1,.22,2.73v1a6.49,6.49,0,0,1-.66,3,1,1,0,0,1-.11.33.84.84,0,0,0-.11.33v.43a2.46,2.46,0,0,0,1,1.86,2.38,2.38,0,0,0,2.08.55h2.29a12.6,12.6,0,0,0,2.85-.33,2.41,2.41,0,0,0,1.75-1,7.65,7.65,0,0,0,1.2-4.16V207l2.84,1.43v.43a8,8,0,0,1-1.31,4.49,5.44,5.44,0,0,1-4.16,2,27.78,27.78,0,0,1-4.37.33h-2.19a4.53,4.53,0,0,1-3.17-1.1,3.82,3.82,0,0,1-1.42-3.06v-.33q-3.94-.21-4.38-4.7V206a5.58,5.58,0,0,1,1.1-3.5,5.35,5.35,0,0,1,3.82-1.64,17.23,17.23,0,0,0,.11-2c-1,.07-2.07.11-3.17.11h-.87a.84.84,0,0,1-.33-.11l-.66-2.73a18.73,18.73,0,0,0,2,.11h3.06v-1.32c-.07-.58-.11-1-.11-1.2v-.66a4.71,4.71,0,0,0-.1-.87A5.67,5.67,0,0,1,181.42,191.31ZM182,205.2v-.76a1.34,1.34,0,0,1-.22-.44c-.14-.58-.36-.87-.65-.87a1.22,1.22,0,0,0-.88.32,3.44,3.44,0,0,0-.87,2.52v.44c.07,1.09.44,1.68,1.09,1.75a1.64,1.64,0,0,0,1.31-1.1A5.39,5.39,0,0,0,182,205.2Zm12.25-8.09v-.33l1.1-1.86a25.27,25.27,0,0,1,5.68,3.39l-1.53,2.3h-.22A28.86,28.86,0,0,0,194.21,197.11Z"/><path d="M208.32,199.84v-2.18h17.06v2.18h-6.45a17.19,17.19,0,0,1-2.62,1.65,30.3,30.3,0,0,1,2.18,3.06c3.29-1.53,5.91-2.85,7.88-3.94l1.53,2.3q-1.31.65-4.05,2c.15-.08,0,0-.54.21a11.89,11.89,0,0,0,6.67,7.33,14.57,14.57,0,0,0-1.86,2.3,14.5,14.5,0,0,1-7.11-8.53l-1.53.65a13.41,13.41,0,0,1,.65,4.27c.08,3.35-1.35,5-4.26,5h-3.72a3.45,3.45,0,0,1-.22-.76,14.63,14.63,0,0,0-.44-1.75h3.18c1.89.14,2.77-.7,2.62-2.52a12.09,12.09,0,0,0-.11-1.64,38.71,38.71,0,0,1-12.25,6.13,4.43,4.43,0,0,0-.44-.88,6,6,0,0,0-.87-1.42,33.28,33.28,0,0,0,12.91-6.24,11.1,11.1,0,0,0-.55-1.31,40,40,0,0,1-10.83,5.14q-.22-.44-.66-1.2a13.35,13.35,0,0,0-.65-1.2,34.7,34.7,0,0,0,11-4.6,2.31,2.31,0,0,0-.43-.55,1.15,1.15,0,0,0-.44-.54,44.6,44.6,0,0,1-8.86,3.28c-.37-.8-.77-1.6-1.2-2.41a31.47,31.47,0,0,0,11-3.83Zm-3.94-1.31v-5.47h11.38q-.1-.33-.33-.87c-.29-.8-.51-1.39-.65-1.75l3.28-.44c.07.22.22.62.43,1.2l.66,1.86h10.06v5.47h-2.84v-3.06h-19v3.06Z"/><path d="M235.34,191.53h.33l3,1.1a6.54,6.54,0,0,1-.66,1.75c-.14.29-.25.51-.33.65a36,36,0,0,0-1.42,4.71,24.63,24.63,0,0,0-.65,4.59v1a19.92,19.92,0,0,0,.76,5.14h.22q.22-.44.66-1.2a8.37,8.37,0,0,1,.54-1.09H238l.88.87v.22c-.44,1.9-.81,3.68-1.1,5.36l-2.4.55a18.46,18.46,0,0,1-2.3-9.63v-1.64a24.17,24.17,0,0,1,.88-5.58c.07-.36.21-.91.43-1.64a16.7,16.7,0,0,0,1-4.7Zm11.7.55,3.83.55c-.15,1.67-.22,3.5-.22,5.46V198q2.29-.23,4.59-.66V200a40.6,40.6,0,0,1-4.48.66c.07,5.47.11,8.09.11,7.88l2.51,1c.15.15.26.22.33.22a15.09,15.09,0,0,1,3,2l-1.75,2.08h-.33q-.89-.66-1.86-1.32c-.29-.14-.7-.36-1.2-.65s-.62-.37-.77-.44a4.43,4.43,0,0,1-1.2,2.19,5.3,5.3,0,0,1-4.05,1.64H245a6.56,6.56,0,0,1-3.28-.88,3.42,3.42,0,0,1-1.64-2.84V211a3.49,3.49,0,0,1,1.64-2.62,5.75,5.75,0,0,1,3.28-.88h.55a16.06,16.06,0,0,1,2.73.22c0-.44,0-1.13-.11-2.08-.14-1.82-.21-3.21-.21-4.15v-.66h-2.3c-1.53-.07-3.1-.22-4.7-.44l-.33-2.73a7.37,7.37,0,0,1,1.53.22,42.89,42.89,0,0,0,4.37.32h1.32c-.08-1.89-.15-3.2-.22-3.93v-.22A3,3,0,0,0,247,192.08Zm-1.75,17.83h-.55q-1.63,0-2.07.54c-.51.66-.3,1.32.65,2a4.06,4.06,0,0,0,4.05-.43,2.22,2.22,0,0,0,.76-1.54A7.37,7.37,0,0,0,245.29,209.91Z"/><path d="M260,194.7v-2.62h8.42v2.62h-2.74v6.35h2.63v2.62h-2.63v6.46c.44-.08,1.17-.22,2.19-.44a7.44,7.44,0,0,0,.88-.22v2.84c-.44.08-1.13.22-2.08.44-2.77.51-5,1-6.67,1.42l-.44-2.73,1.75-.33,1.64-.33v-7.11h-2.84v-2.62h2.84V194.7Zm20.78,21.22q-3.28.11-3.17-2.95v-4.7h-2.19l-.11.87q0,5.15-6.67,7.33a5.23,5.23,0,0,0-.44-.66,18.92,18.92,0,0,0-1.31-1.75q5.69-1.41,5.69-4.92v-.87h-3.18V191.42h14.88v16.85h-3.94v4.15c-.07.66.33,1,1.2.88h.77c.73.07,1.13-.29,1.2-1.1a19.56,19.56,0,0,0,.22-2.07c.07-.59.11-1,.11-1.21l2.3.88a22.45,22.45,0,0,1-.55,3.5,2.8,2.8,0,0,1-3.06,2.62Zm-8.53-22.2v2.62h9.18v-2.62Zm0,4.81v2.63h9.18v-2.63Zm0,4.81V206h9.18v-2.63Z"/><path d="M312.56,200.94c-1.32-.58-2.52-1.13-3.61-1.64v2.08h-6.57v3h9.3V207h-9.3v6.13h10.94v2.41H288.38v-2.41h10.94V207H290v-2.62h9.29v-3h-6.78v-1.86c-1,.51-2.15,1-3.39,1.64-.15-.22-.33-.51-.55-.88-.51-.8-.87-1.38-1.09-1.75Q296.59,195,300,190l3.39.33-.66.87a22.55,22.55,0,0,0,11.38,6.89c-.15.3-.4.77-.77,1.43S312.7,200.65,312.56,200.94Zm-18.05,11.81c-.58-.73-1.68-2-3.28-3.94l2.19-1.42c.8.88,1.82,2,3.06,3.5-.15-.14,0,0,.33.44Zm6.56-19.47a28.4,28.4,0,0,1-7.11,5.58h14A26,26,0,0,1,301.07,193.28Zm5.8,19.47-2.19-1.42a1.17,1.17,0,0,0,.22-.33q2.19-2.4,3.17-3.61l2.41,1.31Q309.05,210.35,306.87,212.75Z"/><path d="M317.81,199.52l-2-2.08a31.45,31.45,0,0,0,8-7.44l3.39.33a11.63,11.63,0,0,1-1.53,1.86H336v2.19l-2.51,2.51h5.68v14.44H318.79V198.75Zm-.44,17.06L316.06,214a84.87,84.87,0,0,0,9.51-2.29l1.21,2.08Q322.61,215.15,317.37,216.58Zm15-22.09H323.6a26.9,26.9,0,0,1-2.51,2.4h9Zm-10.72,4.7v2.08h14.66v-2.08Zm0,3.94v2.07h14.66v-2.07Zm0,3.82V209h14.66V207Zm18.6,9.52q-4.71-1.53-9.3-2.84l1-2c3.71.8,6.85,1.53,9.4,2.18Z"/><path d="M343.84,197.77v-2.63H347v-4.7H350v4.7h2.74v2.63H350v5c.88-.22,1.82-.44,2.85-.66v2.74l-2.85.76V213c.07,2-1,3-3.17,3.17a20,20,0,0,0-2.3.11,12.46,12.46,0,0,1-.21-1.31q-.22-1.09-.33-1.53h1.64c1,.07,1.49-.33,1.42-1.21v-5.68l-3.17.76-.22-3.06a7.73,7.73,0,0,1,.87-.22c.44-.07,1.28-.25,2.52-.55v-5.68Zm8,17.5v-2.52H370v2.52Zm2.19-6.13V191.75h14.44v17.39ZM357,194.49v4.59h8.64v-4.59Zm0,7.21v4.82h8.64V201.7Z"/><path d="M380.26,191.86q7.88.1,8,11.59t-8,11.49q-8-.12-8.09-11.49Q372.38,192.2,380.26,191.86Zm0,20.67q4.49.12,4.48-9,.12-9.28-4.48-9.07-4.49-.12-4.48,9.07T380.26,212.53Z"/><path d="M391.85,216.14v-24.5h23.63V212q.11,3.82-3.94,3.93c-1,.07-2.44.11-4.26.11a11.9,11.9,0,0,0-.66-2.73h3.83c1.46.07,2.11-.58,2-2v-5.8H394.81v10.61Zm3-21.76v8.31h7.32v-8.31Zm17.61,0h-7.33v8.31h7.33Z"/><path d="M444.68,203v.76a9.92,9.92,0,0,1-2.95,6.89,13.49,13.49,0,0,1-5.47,3.94c0,.15-.07.15-.22,0a10.07,10.07,0,0,0-2.51-1.64v-.22q7.88-3.72,8-9.51v-.55a7.09,7.09,0,0,0-2.41-5,8.65,8.65,0,0,0-4.59-2,60.26,60.26,0,0,1-2.41,8,50.42,50.42,0,0,1-3.39,7.11c-.95,1.75-2.11,2.63-3.5,2.63-2.18-.08-4-1.32-5.47-3.72a7.67,7.67,0,0,1-1.09-3.72v-.55a10.14,10.14,0,0,1,.88-3.61,13.05,13.05,0,0,1,2-3.28,12.39,12.39,0,0,1,5.91-4.48,15.71,15.71,0,0,1,5-1.1h1.2a11,11,0,0,1,8,3A10.33,10.33,0,0,1,444.68,203Zm-23.08,1.86v.54a6,6,0,0,0,1.1,3.39,2.48,2.48,0,0,0,2.08,1.32,2.79,2.79,0,0,0,1.85-1.32,17.08,17.08,0,0,0,1.1-2,7.7,7.7,0,0,1,.33-.76,37,37,0,0,0,3.72-10.39,17.33,17.33,0,0,0-4.16,1.09,14.81,14.81,0,0,0-4.49,4.05A8.56,8.56,0,0,0,421.6,204.88Z"/><path d="M446.54,197.22v-2.73h5.69c-.15-.51-.4-1.28-.77-2.3q-.33-1-.54-1.53l3.06-.44c.14.44.4,1.13.76,2.08s.51,1.68.66,2.19h4.05v2.73h-1.64a40.42,40.42,0,0,1-2.52,9.84q1,1.55,2.95,4.27a17.11,17.11,0,0,1,1.21,1.64L457,214.61l-1.64-2.3c-.73-1-1.28-1.82-1.64-2.4a28.83,28.83,0,0,1-5.58,6.34L446.1,214a23.78,23.78,0,0,0,5.91-6.67c-.66-.94-1.64-2.37-2.95-4.26-.95-1.32-1.61-2.26-2-2.85l2.19-1.53,4,5.69a31.9,31.9,0,0,0,1.75-7.11ZM463,208.05c-1.24-2.63-2.34-4.74-3.28-6.35l2.4-1q1.53,2.52,3.39,6.23Zm-2.85-9.74v-2.73h7.22v-5.25h3v5.25h2.62v2.73h-2.62v14.11q.21,3.62-3.83,3.61h-1.86c-.95.07-1.68.11-2.19.11a6.81,6.81,0,0,1-.22-1c-.22-.81-.36-1.42-.44-1.86h3.61c1.39.07,2-.48,2-1.64V198.31Z"/><path d="M476.18,198.75l-1.86-1.86a27.31,27.31,0,0,0,8.31-6.67l3.29.33a8.87,8.87,0,0,1-1.54,1.75H495.1v2l-2.29,2.07h6.34v6.24h-1.86l1.53,2-4.15,2a10.82,10.82,0,0,0,6.34,6.67,10.5,10.5,0,0,0-1.42,1.53,2.21,2.21,0,0,0-.44.55,13,13,0,0,1-6.67-7.66c-.51.22-1.06.44-1.64.66a13.13,13.13,0,0,1,.44,3.39c0,3-1.43,4.48-4.27,4.48-1.24.07-2.52.11-3.83.11-.07-.29-.15-.69-.22-1.2l-.33-1.21a26.63,26.63,0,0,0,3.29.11q2.83.12,2.73-2.4a3.39,3.39,0,0,0-.11-.77v-.65q-4.16,3.39-12.91,6c-.36-.73-.76-1.49-1.2-2.3a32.05,32.05,0,0,0,13.45-5.9,9.24,9.24,0,0,0-.54-.88.28.28,0,0,1-.11-.22,34.22,34.22,0,0,1-11.27,5,7.43,7.43,0,0,0-1.09-1.64,1.17,1.17,0,0,0-.22-.44,34.43,34.43,0,0,0,11.48-4.49,2.3,2.3,0,0,0-.43-.54,1.22,1.22,0,0,0-.44-.44q-3.06,1.86-9.84,3.39a10.41,10.41,0,0,0-1.1-2.19q7.21-1.09,9.74-2.95h-7.44v-4.05Zm3.28-.44v2.3h6.46a14.41,14.41,0,0,0,.76-2.3Zm12-3.93h-9.07c-.73.65-1.54,1.31-2.41,2h9.3Zm-4.15,8.53a27.31,27.31,0,0,1,2.62,3.17,71.65,71.65,0,0,0,7.11-3.5h-9.4Zm9.08-4.6h-6.79c-.21.88-.43,1.64-.65,2.3h7.44Z"/><path d="M517.53,194.92v2.85a33.3,33.3,0,0,1-4.82,1.2A45.72,45.72,0,0,1,507,211.11h-.33l-2.52-1-.11-.22a37.36,37.36,0,0,0,5.69-10.72,28.34,28.34,0,0,1-3.61.22l-.33-3h.88a18.89,18.89,0,0,0,2.4-.11,4.89,4.89,0,0,0,.88-.1h.65a16.28,16.28,0,0,0,.77-4.71v-.65a10,10,0,0,0,1.64.43,11.32,11.32,0,0,1,1.53.44,4.21,4.21,0,0,1-.33,1.42,3.63,3.63,0,0,0-.21,1,4.87,4.87,0,0,1-.11.87c-.08.37-.15.66-.22.88A22.92,22.92,0,0,0,517.53,194.92Zm.21,4.71H518l2.52.54a8.4,8.4,0,0,1-.11,1.32c0,.94.07,2.44.22,4.48.07,1.24.11,2.19.11,2.84a24.43,24.43,0,0,1,5.79,2.52v.33l-1.09,2.4a1.89,1.89,0,0,1-1.09-.54c-.15-.15-.26-.22-.33-.22a22.56,22.56,0,0,0-3.28-1.42,4.69,4.69,0,0,1-.33,1.86,2.21,2.21,0,0,1-.55.76,1,1,0,0,1-.22.33A4.69,4.69,0,0,1,516,216h-.65a4.79,4.79,0,0,1-3.72-1.42,3.31,3.31,0,0,1-.77-3.17,3.86,3.86,0,0,1,1.53-2.08,8.28,8.28,0,0,1,3.94-1h.77a3.72,3.72,0,0,1,1,.11C518,205.5,517.89,202.54,517.74,199.63Zm-1.64,11.15h-.43a2.48,2.48,0,0,0-2.19,1.1c-.29,1,.18,1.64,1.42,1.86h1c1.39-.08,2.12-1,2.19-2.63A6.12,6.12,0,0,0,516.1,210.78Zm9.63-8.75h-.22a27.52,27.52,0,0,0-4.81-4.37l1.53-2.08h.22c1.31.95,2.58,2,3.83,3.06a2.31,2.31,0,0,1,1,1.2Z"/><path d="M531.53,195l.1-.11c1.32.22,2.56.48,3.72.77a2.32,2.32,0,0,1-.22.76,5,5,0,0,0-.21,1.21,6.22,6.22,0,0,0-.11,1.31v.77a20.56,20.56,0,0,0,.43,4.59,37.43,37.43,0,0,0,1.54,4.37c.5,1.17,1.13,1.75,1.85,1.75a2.61,2.61,0,0,0,1.65-.76,9.53,9.53,0,0,0,1.75-2.08h.21l1.32,2q.21.1,0,.33a5,5,0,0,1-1.53,2,5.2,5.2,0,0,1-3.61,1.53q-2.62,0-4.16-3.39a22,22,0,0,1-.77-2.19,6.64,6.64,0,0,0-.43-1.42,59.22,59.22,0,0,1-1-6.13,9.48,9.48,0,0,0-.11-1.09,5.83,5.83,0,0,0-.22-1,15.89,15.89,0,0,0-.11-1.64A8.75,8.75,0,0,0,531.53,195Zm16.29,2.85,2.52-.77h.22a38.13,38.13,0,0,1,4.26,7.11,7.19,7.19,0,0,1,1,2.41l-2.63,1.2h-.44a30.38,30.38,0,0,0-5-9.63Z"/><path d="M584.68,203v.76a9.92,9.92,0,0,1-2.95,6.89,13.49,13.49,0,0,1-5.47,3.94c0,.15-.07.15-.22,0a10.07,10.07,0,0,0-2.51-1.64v-.22q7.88-3.72,8-9.51v-.55a7.09,7.09,0,0,0-2.41-5,8.65,8.65,0,0,0-4.59-2,60.26,60.26,0,0,1-2.41,8,50.42,50.42,0,0,1-3.39,7.11c-1,1.75-2.11,2.63-3.5,2.63-2.18-.08-4-1.32-5.47-3.72a7.67,7.67,0,0,1-1.09-3.72v-.55a10.14,10.14,0,0,1,.88-3.61,13.05,13.05,0,0,1,2-3.28,12.39,12.39,0,0,1,5.91-4.48,15.71,15.71,0,0,1,5-1.1h1.2a11,11,0,0,1,8,3A10.33,10.33,0,0,1,584.68,203Zm-23.08,1.86v.54a6,6,0,0,0,1.1,3.39,2.48,2.48,0,0,0,2.08,1.32,2.79,2.79,0,0,0,1.85-1.32,17.08,17.08,0,0,0,1.1-2,7.7,7.7,0,0,1,.33-.76,37,37,0,0,0,3.72-10.39,17.33,17.33,0,0,0-4.16,1.09,14.81,14.81,0,0,0-4.49,4.05A8.56,8.56,0,0,0,561.6,204.88Z"/><path d="M596.38,191.2h.22l3.28.88v.33a2.61,2.61,0,0,0-1.09,1.75,10.33,10.33,0,0,0-.66,1.86,3.3,3.3,0,0,1-.21.65l3.61-.65a3.45,3.45,0,0,0,.76-.22l.22.11v2.84q-2.62.44-5.25.66a3.71,3.71,0,0,1-.11.54c.07-.14,0-.07-.11.22a63.67,63.67,0,0,1-5.8,15l-3-.88-.11-.22a88.94,88.94,0,0,0,6.35-14.54,17.28,17.28,0,0,1-2.19.11c-1,.07-1.68.11-2.19.11l-.22-.11-.44-2.63.11-.22c.29,0,.77,0,1.43.11a10.1,10.1,0,0,0,1.31.11h.87a19,19,0,0,0,2.08-.11,3.19,3.19,0,0,0,.22-.65,17.4,17.4,0,0,0,.87-4.38Zm14.77,20.13-.33,3.06a28.23,28.23,0,0,1-3.61.22h-1.09a22.26,22.26,0,0,1-4.81-.55,1.48,1.48,0,0,1-.44-.11,1.18,1.18,0,0,1-1-.32l-.1-2.52a6.5,6.5,0,0,0,1,.22,28.66,28.66,0,0,0,4.81.55h.55A23.27,23.27,0,0,0,611.15,211.33Zm-6.34-10.72h1c1.17,0,2.41,0,3.72.11l.11,2.95-.11.11a24,24,0,0,0-4.7-.65h-1.1a9.43,9.43,0,0,0-2.4.32l.43-2.73h1.43C603.89,200.65,604.44,200.61,604.81,200.61Z"/><path d="M628.65,191.75h.77l2.73.66c-.07.43-.15,1.09-.22,2s-.25,1.64-.33,2.07a10,10,0,0,1,5.69,1.86,9.09,9.09,0,0,1,2.74,6.35v.65a9.06,9.06,0,0,1-1.43,5.25,9.84,9.84,0,0,1-3.72,3.28,9.61,9.61,0,0,1-3.17,1.43c-.07,0-.29-.19-.65-.55a1.43,1.43,0,0,0-.22-.33,4.82,4.82,0,0,0-1.21-1,.27.27,0,0,0-.21-.11c4.66-1.1,7.14-3.68,7.43-7.77v-.33a6.12,6.12,0,0,0-2-4.59,6.48,6.48,0,0,0-3.93-1.53,25.3,25.3,0,0,1-3.61,8.2,14.84,14.84,0,0,0,2.08,1.75l-2.3,2.08H627l-1-1-.44-.44-.55.55a7.84,7.84,0,0,1-1.09,1.09,7.42,7.42,0,0,1-5,2.41h-.33c-2-.15-3.14-1.57-3.28-4.27v-.55a10.23,10.23,0,0,1,1.42-4.81,3.68,3.68,0,0,0,.33-.44,14.53,14.53,0,0,1,2.18-2.73l-1.64-3.28a17.52,17.52,0,0,0-.87-1.75l3.06-1.53v.76a17.61,17.61,0,0,0,1.53,4.27,16.3,16.3,0,0,1,7.44-2.85,10.25,10.25,0,0,0,.33-2.51v-.44A4.14,4.14,0,0,0,628.65,191.75Zm-10.72,17.06v.44c0,.88.26,1.42.77,1.64.36.22.91.15,1.64-.22a11.94,11.94,0,0,0,2.95-2.29l.33-.33a1,1,0,0,1,.22-.33,13.08,13.08,0,0,1-1.53-2.08,24,24,0,0,1-1.43-2,1.12,1.12,0,0,0-.21-.43c-.51.65-1.06,1.35-1.64,2.07A8.52,8.52,0,0,0,617.93,208.81Zm10.28-9.62a13.1,13.1,0,0,0-5.58,2.3,6.21,6.21,0,0,0,.44.65,10.18,10.18,0,0,1,.55.88,1.58,1.58,0,0,1,.22.32,10.67,10.67,0,0,0,1.75,2.08c.44-.72.87-1.53,1.31-2.4l.33-1A14.15,14.15,0,0,0,628.21,199.19Z"/><path d="M653.81,213.52l-2.19,2.18-5.91-6.45,2.08-1.86Z"/><path d="M179.34,265a14.29,14.29,0,0,0-1.21-1l-1.31-1.31a33.66,33.66,0,0,1-4.26,4.7c-.15-.22-.44-.58-.88-1.09a9.1,9.1,0,0,0-.87-1.1,18.18,18.18,0,0,0,4.15-4.48c-1.09-1.09-2.26-2.19-3.5-3.28.59-2.48,1.13-5.25,1.64-8.31H171v-2.63h2.4q.33-2.52.66-5.25l2.62.33c-.22,1.6-.43,3.24-.65,4.92h4.37v2.73q-.44,7.23-2.3,11.05c1,.88,2,1.75,2.85,2.63Zm-1.42-15.85h-2.3c-.22,1.38-.59,3.31-1.09,5.79q-.22,1.32-.33,1.86c.29.29.83.77,1.64,1.42q-.76-.65.33.33Q177.48,255.54,177.92,249.1ZM196,267q-7.54-3.16-9.51-10.5h-2.08V264l4.48-1.75a15.14,15.14,0,0,0,0,2.52c-1.82.65-3.32,1.23-4.48,1.75a10.79,10.79,0,0,0-2.19,1l-1.42-2.19a2,2,0,0,0,.87-2V244h5.69l-.33-1c-.14-.66-.25-1.13-.32-1.42l3-.33c.07.22.18.58.33,1.09.22.73.36,1.28.43,1.64h5.25v12.58h-6.56a13.37,13.37,0,0,0,1.64,3.39,50,50,0,0,0,4.38-2.84,4.81,4.81,0,0,0,.44-.33l1.64,2.08c-.59.29-1.61.87-3.07,1.75-.87.51-1.53.87-2,1.09a14.87,14.87,0,0,0,5.36,2.85Zm-11.59-20.67v2.74H193v-2.74Zm0,7.77H193v-2.85h-8.64Z"/><path d="M202.42,243.41l3.82,1.2a5.79,5.79,0,0,1-.54,1.42c-.15.37-.26.66-.33.88a22,22,0,0,0-1.75,8.64v.87a10.27,10.27,0,0,0,1.09,5h.11c.15-.29.33-.69.55-1.2a8.34,8.34,0,0,0,.55-1.09l1.2.22q-.1.54-.33,1.53a18.3,18.3,0,0,0-.55,3.5v.65l-2.62.55a10.13,10.13,0,0,1-2-4.26,23.3,23.3,0,0,1-.55-5.58v-1.21a28.51,28.51,0,0,1,.88-7,15.82,15.82,0,0,0,.44-3.61Zm13.78,17.5h1a22.81,22.81,0,0,0,6.13-.88l.11,3a15.26,15.26,0,0,1-5,.76h-1.2c-3.43,0-6-.8-7.76-2.4a2.88,2.88,0,0,1-.88-1.32l2-1.2A7.48,7.48,0,0,0,216.2,260.91Zm.11-15.1h1.2a42.51,42.51,0,0,1,4.27.22v2.85c-.52,0-1.21,0-2.08-.11s-1.53-.11-2-.11h-1.2a21.86,21.86,0,0,0-3.07.33,18.5,18.5,0,0,1-2.84.32l-.22-2.95a20,20,0,0,0,2.52-.22A26.48,26.48,0,0,1,216.31,245.81Z"/><path d="M246.49,246.91l2.41,2.73v.22a39.65,39.65,0,0,0-10.61,4.49,13,13,0,0,0-3.39,3.28,3.8,3.8,0,0,0-.66,1.86v.43a3.4,3.4,0,0,0,2.08,3,8.65,8.65,0,0,0,3.72.65h.77a23.11,23.11,0,0,0,6.34-.87l.22,3.28c-1.9.14-3.72.22-5.47.22h-1.64a10,10,0,0,1-5.8-1.21,5.43,5.43,0,0,1-2.84-4.92v-.54c.07-2.48,1.57-4.74,4.48-6.79a1.09,1.09,0,0,1,.55-.43,43.59,43.59,0,0,0-3.5-9.19l2.95-.55a62,62,0,0,1,3.28,8.21l3.94-2A12.89,12.89,0,0,0,246.49,246.91Z"/><path d="M256.88,247.78h.33l9.52-2c4.15-.87,7.29-1.49,9.4-1.86,1.1-.21,2.19-.4,3.29-.54l.21,3.17H279c-3.36,0-5.87.91-7.55,2.73a10.4,10.4,0,0,0-2.84,7.33v.44a5.8,5.8,0,0,0,1.53,4.27q1.53,1.63,4.81,1.53h1.86v3.28h-1.64a10.27,10.27,0,0,1-6.89-2.41,8.57,8.57,0,0,1-2.3-6.34v-1.1q0-4.26,3.5-8.53c-.95.22-2.4.59-4.37,1.1q-1.43.33-2.19.54l-1,.33a13.13,13.13,0,0,0-3.29,1.2Z"/><path d="M293.31,241.66h.43l3.18.87v.22a1.63,1.63,0,0,0-.55.88l-.33.65c-.29.95-.55,1.93-.76,3a.85.85,0,0,1-.11.32c-.08.22-.15.4-.22.55H297a10.75,10.75,0,0,0,1.85-.22,3.26,3.26,0,0,1,.66-.11l-.55,2.74a.44.44,0,0,1-.32.11H294.4c-.07.51-.15,1.2-.22,2.07-.15,1-.25,1.83-.33,2.41a18.31,18.31,0,0,0,5.25.11v.44l-.43,2.19a.48.48,0,0,1-.33.1H296c-.8,0-1.64,0-2.51-.1v.76a2.91,2.91,0,0,0-.11.77v1.09a4.07,4.07,0,0,0,1.09,2.84,3.91,3.91,0,0,0,2.52,1h.65a4.65,4.65,0,0,0,3.17-1.1,4.47,4.47,0,0,0,1.1-2.95v-.44c0-1.24-.7-2.95-2.08-5.14a2.67,2.67,0,0,0-.33-.54l3.17-.22a9.47,9.47,0,0,1,2.41,6.12v.55a6.33,6.33,0,0,1-2.3,4.81A6.71,6.71,0,0,1,298,267h-.66a6.85,6.85,0,0,1-4.7-1.86q-1.75-1.41-1.75-4.92v-1.09a14.55,14.55,0,0,1,.11-1.75,17.5,17.5,0,0,0-1.75-.55,12.34,12.34,0,0,0-1.86-.55l.22-2.73a15.69,15.69,0,0,0,3.72,1.09v-.54a15.79,15.79,0,0,0,.44-2c.14-.8.25-1.42.32-1.86q-1.31-.33-2.4-.66c-.59-.07-.88-.18-.88-.33l.22-2.73a20.9,20.9,0,0,0,3.39,1q.1-.31.33-1.2a6.93,6.93,0,0,1,.22-1.09,4,4,0,0,1,.11-.77,14.15,14.15,0,0,0,.22-2.08Z"/><path d="M311.13,259.7v-2h7.66c-.36-.37-.91-.95-1.64-1.75.51.51.44.4-.22-.33l1.42-.22H314.2v-5.36h20.12v5.36h-4.15l1.42.22a14.42,14.42,0,0,1-1.75,2.08h7.54v2Zm.44-14.54v-2h11.16v-1.86h2.95v1.86h11.16v2H325.68v1.64h9.52v1.75h-22V246.8h9.52v-1.64Zm2.19,22.31v-6.23h21v6.23h-2.84v-.87H316.6v.87ZM316.6,263v1.75h15.32V263Zm.33-11.16v1.75h14.55v-1.75Zm5.14,5.8-.54.11h4.92c.14-.15.36-.4.65-.77q1-1.1,1.32-1.53H320.1A19.39,19.39,0,0,1,322.07,257.63Z"/><path d="M363.53,258.28l1.31,2.74q.21.21,0,.33l-.77.76q-4.05,4.59-7.33,4.49h-.43a3.78,3.78,0,0,1-3.07-1.86,7.76,7.76,0,0,1-.87-3.61c-.07-.51-.18-1.28-.33-2.3s-.15-1.68-.22-2.19-.29-.91-.65-1a4,4,0,0,0-2.08.76,7.18,7.18,0,0,0-2.08,1.75,18.15,18.15,0,0,0-3.61,6.13l-.44.87a4.36,4.36,0,0,1-.43,1l-2.85-.77a66.27,66.27,0,0,1,5-10.39c1-1.82,1.79-3.21,2.3-4.15l1.31-2.3c.37-.66.66-1.17.88-1.53.07-.15.14-.33.22-.55a12.74,12.74,0,0,0,1.53-3.94h.43l3.72,1.75v.33a25.07,25.07,0,0,0-3.61,4.27,36.3,36.3,0,0,0-2.29,3.93,13,13,0,0,0-1.32,2.08,2.08,2.08,0,0,1,.33-.22c.66-.36,1.13-.62,1.42-.76,2.26-.95,3.8-.73,4.6.65a5.35,5.35,0,0,1,.65,2.08v.22a12.47,12.47,0,0,0,.11,1.42c.08,1.32.15,2.3.22,3a2.84,2.84,0,0,0,1.1,2.18,1.89,1.89,0,0,0,2.29,0,16,16,0,0,0,4.27-4.37A9,9,0,0,1,363.53,258.28Z"/><path d="M366.7,247.78h.65a15,15,0,0,0,3.28-.54l1.32-.33c1.38-.37,2.73-.7,4-1q3.61-.87,7.11-1.53a22.51,22.51,0,0,0,4.38-1,3.3,3.3,0,0,0,.33,1.2,3.75,3.75,0,0,1,.22,1.64l-1.54.33a7.6,7.6,0,0,0-3.71,1.2,8.64,8.64,0,0,0-3.18,4.71,15.73,15.73,0,0,0-.65,3.82V257a5.77,5.77,0,0,0,1.64,4.27,6.43,6.43,0,0,0,4.26,1.64h.55a7.49,7.49,0,0,0,1.75-.22v3.28h-.87a13,13,0,0,1-6.9-1.86,8.64,8.64,0,0,1-3.28-6.89v-.55q0-4.26,3.39-9-4.37,1.1-8.75,2.41a3.29,3.29,0,0,1-.76.22,3.06,3.06,0,0,0-1.53.87l-1.75-3.06Zm20.12,1.53,1.53-1.42c.22.22.51.55.88,1a17.62,17.62,0,0,1,1.75,2l-1.53,1.31A17.91,17.91,0,0,0,386.82,249.31Zm3-2.18,1.53-1.32a19.27,19.27,0,0,1,2.51,2.85L392.18,250A22.66,22.66,0,0,0,389.78,247.13Z"/><path d="M405.31,241.66h.43l3.18.87v.22a1.63,1.63,0,0,0-.55.88l-.33.65c-.29.95-.55,1.93-.76,3a.85.85,0,0,1-.11.32c-.08.22-.15.4-.22.55H409a10.75,10.75,0,0,0,1.85-.22,3.26,3.26,0,0,1,.66-.11l-.55,2.74a.44.44,0,0,1-.32.11H406.4c-.07.51-.15,1.2-.22,2.07-.15,1-.25,1.83-.33,2.41a18.31,18.31,0,0,0,5.25.11v.44l-.43,2.19a.48.48,0,0,1-.33.1H408c-.8,0-1.64,0-2.51-.1v.76a2.91,2.91,0,0,0-.11.77v1.09a4.07,4.07,0,0,0,1.09,2.84,3.91,3.91,0,0,0,2.52,1h.65a4.65,4.65,0,0,0,3.17-1.1,4.47,4.47,0,0,0,1.1-2.95v-.44c0-1.24-.7-2.95-2.08-5.14a2.67,2.67,0,0,0-.33-.54l3.17-.22a9.47,9.47,0,0,1,2.41,6.12v.55a6.33,6.33,0,0,1-2.3,4.81A6.71,6.71,0,0,1,410,267h-.66a6.85,6.85,0,0,1-4.7-1.86q-1.75-1.41-1.75-4.92v-1.09a14.55,14.55,0,0,1,.11-1.75,17.5,17.5,0,0,0-1.75-.55,12.34,12.34,0,0,0-1.86-.55l.22-2.73a15.69,15.69,0,0,0,3.72,1.09v-.54a15.79,15.79,0,0,0,.44-2c.14-.8.25-1.42.32-1.86q-1.31-.33-2.4-.66c-.59-.07-.88-.18-.88-.33l.22-2.73a20.9,20.9,0,0,0,3.39,1q.1-.31.33-1.2a6.93,6.93,0,0,1,.22-1.09,4,4,0,0,1,.11-.77,14.15,14.15,0,0,0,.22-2.08Z"/><path d="M427.73,247.45l3.06.66a43.88,43.88,0,0,0-1,8.2c2.69-2.18,5.32-3.28,7.87-3.28h.77a9.2,9.2,0,0,1,4.92,1.21,5.54,5.54,0,0,1,2.3,4.15v.55a6.56,6.56,0,0,1-2.3,4.81,15.9,15.9,0,0,1-5,2.41,5.4,5.4,0,0,1-2.63.65l-1.42-2.4v-.11a37,37,0,0,0,4.38-1q3.7-1.53,3.71-3.93v-.44q-.21-3-4-3.28h-.44a11.84,11.84,0,0,0-4.37,1.09,7.39,7.39,0,0,0-3.5,3.5l-3.18-1.09c.08-.59.18-1.5.33-2.74q.56-5.13.55-7.76Zm2.3-3.82,1.85-2.08a4.71,4.71,0,0,1,.88.44,36.66,36.66,0,0,1,4.81,2.4v.22l-1.86,2A30.16,30.16,0,0,0,430,243.63Z"/><path d="M455.29,250.63h.55a30.07,30.07,0,0,0,5.79-.55,11.43,11.43,0,0,0,3.72-.77,1.22,1.22,0,0,0,.66-.43h.22l2.51,1.53c.15.07.19.22.11.44v.1a18.17,18.17,0,0,0-3.5,3.72L464,256.31h.77a3.33,3.33,0,0,1,2.07.66,4.46,4.46,0,0,1,.77,2.19,6.81,6.81,0,0,1,.22,1,12.55,12.55,0,0,0,.44,2,1.64,1.64,0,0,0,1.53,1.42h1.31a16.61,16.61,0,0,0,3.94-.54v2.95a31.45,31.45,0,0,1-3.5.22h-2.3a3.48,3.48,0,0,1-3.06-1.42,9.54,9.54,0,0,1-1.1-3.29,1.83,1.83,0,0,0-.1-.54,8.59,8.59,0,0,0-.22-1.1,1.63,1.63,0,0,0-1.43-1,3.06,3.06,0,0,0-2.29,1.31,59.66,59.66,0,0,0-4.71,6h-.21a21.5,21.5,0,0,0-2.74-1.75v-.11a88.73,88.73,0,0,0,7.66-8.42,19.83,19.83,0,0,0,2.62-3.72l-.11-.22a11.37,11.37,0,0,1-3.28.87,13.17,13.17,0,0,0-2.51.66,1,1,0,0,0-.55.22c-.22.22-.4.29-.55.22Zm7-8.75h.22a35.53,35.53,0,0,0,5.36,2.51,1.17,1.17,0,0,0,.33.22.74.74,0,0,1,.54.33l-.87,2.3-.33.11a35.32,35.32,0,0,1-6.45-3.07v-.22Z"/><path d="M491.6,242.31l3.39.33.11.11a4.82,4.82,0,0,0-.43.88,1.26,1.26,0,0,1-.22.43v.44c-.08.59-.15,1.24-.22,2,.8-.07,1.93-.22,3.39-.44a10,10,0,0,0,1.42-.22l-.22,2.52a29.16,29.16,0,0,1-4.59.55,10.09,10.09,0,0,1,.11,1.75c.07.73.11,1.31.11,1.75h.22a22.41,22.41,0,0,0,4.81-.77l-.44,2.52a18.64,18.64,0,0,1-4.37.76c.07,1.68.18,3.43.32,5.25a19.3,19.3,0,0,1,6.13,3.39l-1.31,2A17.86,17.86,0,0,0,495.1,263a3.52,3.52,0,0,1-2.18,3.17,7.19,7.19,0,0,1-3.39.65h-1a5.48,5.48,0,0,1-4.05-1.42,3.06,3.06,0,0,1-.87-3.61A4.45,4.45,0,0,1,485.7,260a11.3,11.3,0,0,1,3.72-.65h1.09a8.91,8.91,0,0,1,1.64.22c-.44-.15-.37-.15.22,0a28.17,28.17,0,0,0-.22-3c-.07-.65-.11-1.16-.11-1.53h-2.3a34.51,34.51,0,0,1-3.93-.22l-.22-.11-.55-2.4v-.22c.29.07.66.14,1.09.22a19.73,19.73,0,0,0,3.07.32h2.73c0-1.09,0-2.36-.11-3.82h-.65c-1.9,0-3.72-.08-5.47-.22l-.22-.11-.66-2.52a16.56,16.56,0,0,1,2.19.22,25.06,25.06,0,0,0,2.73.22h2.08v-1.2A23.71,23.71,0,0,0,491.6,242.31Zm-2.4,19.14h-.66c-1.68.15-2.55.77-2.62,1.86.07.44.43.77,1.09,1a13.82,13.82,0,0,0,1.64.11h.66a4.77,4.77,0,0,0,2.4-.44,2.2,2.2,0,0,0,.77-1.75v-.44a7.71,7.71,0,0,1-1.1-.11A19.16,19.16,0,0,0,489.2,261.45Z"/><path d="M512.28,242.53h.21l3.5.66a13.34,13.34,0,0,1-.32,1.42V259.7a5.06,5.06,0,0,0,.65,3,3,3,0,0,0,2.3,1.09h.66a4,4,0,0,0,1.85-.44,11.19,11.19,0,0,0,2.52-1.2,12.06,12.06,0,0,0,3.06-2.73h.22l1.31,2.51c.15.15.15.22,0,.22a13.42,13.42,0,0,1-4.59,3.28,9.84,9.84,0,0,1-4.81,1.21h-.33a6.37,6.37,0,0,1-3.61-1.1,4.32,4.32,0,0,1-2.19-3.17c-.07-1-.11-2.08-.11-3.17V244.83a5.73,5.73,0,0,0-.22-1.31A6.75,6.75,0,0,1,512.28,242.53Z"/><path d="M545,242.2h.22l3.28.88v.33a2.61,2.61,0,0,0-1.1,1.75,11.3,11.3,0,0,0-.65,1.86,3.19,3.19,0,0,1-.22.65l3.61-.65a3.29,3.29,0,0,0,.76-.22l.22.11v2.84q-2.62.44-5.25.66a2.65,2.65,0,0,1-.11.54c.08-.14,0-.07-.11.22a63.27,63.27,0,0,1-5.79,15l-3-.88-.1-.22a88.89,88.89,0,0,0,6.34-14.54,17.05,17.05,0,0,1-2.19.11c-.95.07-1.68.11-2.19.11l-.21-.11-.44-2.63.11-.22c.29,0,.76,0,1.42.11a12.31,12.31,0,0,0,1.31.11h.88c.65,0,1.35,0,2.07-.11a2.68,2.68,0,0,0,.22-.65,17.08,17.08,0,0,0,.88-4.38Zm14.76,20.13-.32,3.06a28.34,28.34,0,0,1-3.61.22h-1.1a22.33,22.33,0,0,1-4.81-.55,1.55,1.55,0,0,1-.44-.11c-.51,0-.84-.1-1-.32l-.11-2.52a7.15,7.15,0,0,0,1,.22,28.65,28.65,0,0,0,4.82.55h.54A23.2,23.2,0,0,0,559.74,262.33Zm-6.34-10.72h1c1.17,0,2.41,0,3.72.11l.11,2.95-.11.11a24.79,24.79,0,0,0-4.7-.65h-1.09a9.44,9.44,0,0,0-2.41.32l.44-2.73h1.42C552.49,251.65,553,251.61,553.4,251.61Z"/><path d="M566.31,262.66a4.39,4.39,0,0,1,4.48-4.49q4.05.33,4.38,4.49c-.3,2.48-1.75,3.86-4.38,4.15C568.09,266.6,566.6,265.21,566.31,262.66Zm1.75,0q.21,2.19,2.73,2.4a2.53,2.53,0,0,0,2.63-2.4,2.68,2.68,0,1,0-5.36,0Z"/><path d="M109.45,309.94l-.33-1.09c-.51,0-1.35,0-2.52.1s-1.93.15-2.51.22-1.31.19-2,.33l-.88-2.3a8,8,0,0,0,1.86-1.75,26.15,26.15,0,0,0,2.63-3.5h-1.2a10.36,10.36,0,0,1-1.32.11,5,5,0,0,0-.76.11,2.55,2.55,0,0,0-.77.11l-.76-2.18a14.72,14.72,0,0,0,1.42-1.65,40.9,40.9,0,0,0,3.61-6.23l2.62.88q-2.07,3.39-4.59,6.78c1.31,0,2.37,0,3.17-.11a5.5,5.5,0,0,1,.55-.77q.54-.76,1.53-2.4l2.3,1.2c-3,4.23-5.29,7.29-6.9,9.19l3.72-.22a7.34,7.34,0,0,0-.65-1.64,4,4,0,0,0-.22-.77l2-.66c.65,1.46,1.38,3.29,2.18,5.47Zm-6.35,7.76-2.18-.21q.64-3.18,1.2-6.57l2.08.22A66.22,66.22,0,0,1,103.1,317.7Zm2.52-.54c0-.22,0-.62-.11-1.21-.07-2-.18-3.64-.33-4.81l2-.11q.43,3,.66,5.91Zm4.37-.66q-.54-2.4-1.53-5.58l1.75-.43a15.92,15.92,0,0,1,.55,1.75c.22.58.62,1.82,1.2,3.71Zm2.85-10.83a8.54,8.54,0,0,0-1.21-1.42c-.29-.36-.51-.62-.65-.76q4.69-2.62,4.59-7.33H112v-2.63H126.4q0,3.29-.22,6.78c-.07,2.85-1.46,4.23-4.15,4.16-.66.07-1.79.11-3.4.11-.07-.29-.18-.77-.32-1.42s-.15-1-.22-1.31c.94.07,2,.1,3.17.1,1.46,0,2.19-.76,2.19-2.29,0-.44,0-1.06.11-1.86v-1.64h-5.25Q118.52,302.28,112.84,305.67Zm0,12.69V306.44h13.34v11.92h-2.84v-1.53h-7.77v1.53Zm2.73-9.3v5.36h7.77v-5.36Z"/><path d="M153.74,305.56a31.77,31.77,0,0,1-11.37-9.51,41.21,41.21,0,0,1-11.7,9.84,20.92,20.92,0,0,1-1.43-2.19,5.29,5.29,0,0,1-.32-.54,31.3,31.3,0,0,0,12.25-10.83l3.5.22a6.94,6.94,0,0,1-.66,1.09,28,28,0,0,0,11.59,9.08C155.17,303.3,154.55,304.25,153.74,305.56Zm-20.56,13.13-1.09-1.09c-.59-.52-1-.92-1.31-1.21q5.13-2.73,4.81-9.51c.07-.66.11-1.79.11-3.39h3.06v1.31c-.07.95-.11,1.64-.11,2.08Q139,314.86,133.18,318.69Zm12.36-.44V303.38h3.06v14.87Z"/><path d="M158.78,304.58l-2-.66a44.12,44.12,0,0,0,1.42-9.18l2.08.21c-.08.44-.15,1.06-.22,1.86a7.36,7.36,0,0,0-.22,1.54h1.75v-6h2.73v6h2.41v2.51h-2.41v5.25l2.41-.66c0,1.1,0,2,.11,2.74l-2.52.76v9.52h-2.73v-8.86c-1.39.44-2.84.88-4.38,1.31l-.21-3.06a6.5,6.5,0,0,1,1-.22c.8-.14,2-.44,3.61-.87v-5.91h-2.08C159.32,302.17,159.07,303.41,158.78,304.58Zm9.51-6.45v-2.52h5.47v-3.28h2.84v3.28h5.69v2.52H176.6v3.17h6.78v2.51H167.2V301.3h6.56v-3.17Zm-.87,11.15v-2.51h9.84v-2.08h2.84v2.08h3.18v2.51H180.1v5.47q.12,3.39-3.39,3.39c-1.31.07-2.59.11-3.83.11-.07-.44-.18-1.06-.32-1.86a8.53,8.53,0,0,0-.22-1c.65.07,1.67.11,3.06.11s1.93-.44,1.86-1.53v-4.71Zm4,5.69a26.49,26.49,0,0,0-3.28-3.72l1.86-1.53a42.4,42.4,0,0,1,3.61,3.61Z"/><path d="M185.35,312.13v-2.52h2.19V295.5h6.24v-3.17h2.73v3.17H200v-3.17h2.73v3.17H209v14.11h2.19v2.52Zm1.32,6.34-.33-.66a9.59,9.59,0,0,0-.77-1.86,65.18,65.18,0,0,0,9.08-3.28l1.31,2.41Q190.71,317,186.67,318.47ZM190.28,298v4.59h3.5V298Zm0,7v4.59h3.5V305Zm6.23-7v4.59H200V298Zm0,7v4.59H200V305Zm13.34,13.45a76.06,76.06,0,0,0-9.51-3.39l1.09-2.3c1.46.51,3.46,1.17,6,2,1.53.44,2.69.8,3.5,1.1ZM206.24,298h-3.5v4.59h3.5Zm-3.5,7v4.59h3.5V305Z"/><path d="M216.74,293.53h.33l3,1.1a7.33,7.33,0,0,1-.66,1.75L219,297a34.56,34.56,0,0,0-1.42,4.71,24,24,0,0,0-.66,4.59v1a19.91,19.91,0,0,0,.77,5.14H218c.14-.29.36-.69.65-1.2a7.07,7.07,0,0,1,.55-1.09h.22l.87.87v.22c-.43,1.9-.8,3.68-1.09,5.36l-2.41.55a18.46,18.46,0,0,1-2.29-9.63v-1.64a24.61,24.61,0,0,1,.87-5.58c.07-.36.22-.91.44-1.64a16.61,16.61,0,0,0,1-4.7Zm11.71.55,3.83.55c-.15,1.67-.22,3.5-.22,5.47V300q2.3-.23,4.59-.66V302a43.12,43.12,0,0,1-4.48.66c.07,5.47.11,8.09.11,7.88l2.51,1c.15.15.26.22.33.22a15,15,0,0,1,2.95,2l-1.75,2.08H236q-.87-.66-1.86-1.32c-.29-.14-.69-.36-1.2-.65s-.62-.37-.76-.44a4.52,4.52,0,0,1-1.21,2.19,5.28,5.28,0,0,1-4,1.64h-.55a6.53,6.53,0,0,1-3.28-.88,3.42,3.42,0,0,1-1.64-2.84V313a3.49,3.49,0,0,1,1.64-2.62,5.73,5.73,0,0,1,3.28-.88h.55a16.14,16.14,0,0,1,2.73.22c0-.44,0-1.13-.11-2.08-.15-1.82-.22-3.21-.22-4.15v-.66H227c-1.54-.07-3.1-.22-4.71-.44l-.33-2.73a7.36,7.36,0,0,1,1.54.22,40.15,40.15,0,0,0,4.37.32h1.31c-.07-1.89-.14-3.2-.22-3.93v-.22A3,3,0,0,0,228.45,294.08Zm-1.75,17.83h-.55c-1.09,0-1.79.18-2.08.54-.51.66-.29,1.32.66,2a4.06,4.06,0,0,0,4.05-.43,2.26,2.26,0,0,0,.76-1.54A7.37,7.37,0,0,0,226.7,311.91Z"/><path d="M241.57,302.28v-2.95h11.05q.1-2.4.11-6.89H256l-.22,6.89h11v2.95H255.9q1.43,9.41,11.48,13a14.33,14.33,0,0,0-2.07,2.73q-9.09-3.93-11.05-11.59-1.75,7.44-11,11.92c-.22-.29-.62-.84-1.2-1.64-.44-.51-.73-.87-.88-1.09q10.5-4.38,11.16-13.35Z"/><path d="M270.78,318.25a27.66,27.66,0,0,1-2-2.19,22.14,22.14,0,0,0,4.92-4.7q-1.2-1-3.5-3.06l-.33-.33q.54-2.3,1.64-7.77h-2.3v-2.73H272c.22-1.75.44-3.46.65-5.14l3,.22c-.08.58-.22,1.49-.44,2.73q-.22,1.53-.33,2.19h4.6v2.73q-.45,7-2.3,10.5c1.46,1.25,2.84,2.41,4.16,3.5l-2.19,2c-.37-.36-1-.91-1.86-1.64-.66-.58-1.17-1-1.53-1.31A28.19,28.19,0,0,1,270.78,318.25Zm2.07-11.05L275,309a26.31,26.31,0,0,0,1.75-8.75h-2.41c-.21.95-.51,2.3-.87,4.05C273.22,305.56,273,306.55,272.85,307.2Zm7.55-.32v-2.74h6.34v-3.28l4.38-4.37h-9.74v-2.74h13.35v2.95l-4.92,5v2.4h5.68v2.74h-5.68v7.54q.1,3.61-3.72,3.61h-3.61a5,5,0,0,0-.11-.76c-.22-1-.37-1.68-.44-2H285c1.24,0,1.83-.59,1.75-1.75v-6.67Z"/><path d="M314.63,295h.22a7.68,7.68,0,0,1,1,2.3,11.91,11.91,0,0,1-2.63,1.1c-.36.14-.65.25-.87.32a11,11,0,0,1,.87,1.53,14.39,14.39,0,0,1,.77,1.54c.44-.15,1.09-.4,2-.77l2-.66h.32l1,2-.11.33-1.2.33c-.59.22-1,.36-1.32.44a4.43,4.43,0,0,1-1.42.43,2.55,2.55,0,0,1,.33.66,47.17,47.17,0,0,0,3.06,4.27.31.31,0,0,0,.11.21,1.65,1.65,0,0,1,.44.88l-2.41,2.3a15.63,15.63,0,0,0-8.75-2.3h-.65a5.18,5.18,0,0,0-2.3.44,2,2,0,0,0-1,2.4c.07.29.47.7,1.2,1.21a5.44,5.44,0,0,0,2.51.87,16.69,16.69,0,0,0,3.29.33h.54a8.17,8.17,0,0,0,1.31-.11l-.21,3.06h-.77q-10.17-.54-10.61-5.9v-.55a4.27,4.27,0,0,1,2.19-3.17,10,10,0,0,1,4.37-1H309a18.86,18.86,0,0,1,5.47,1h.11c-.15-.22-.37-.59-.66-1.1s-.69-1.42-1.42-2.73a11.42,11.42,0,0,1-2.3.44,53.86,53.86,0,0,1-6,.54l-.21-.11-1.32-2.07.11-.22h.77a34.86,34.86,0,0,0,6.23-.55,4.66,4.66,0,0,0,1.53-.22c-.43-.94-.91-2-1.42-3.06a32.13,32.13,0,0,1-4.7,1,6.47,6.47,0,0,0-.66-1,4.06,4.06,0,0,1-.43-.66,1.59,1.59,0,0,1-.44-.76h.33c1.45-.22,3-.51,4.7-.88a7.19,7.19,0,0,0-.55-1.31l-.65-1.31a.66.66,0,0,0-.22-.44,2.6,2.6,0,0,1-.11-.66l3-.54c.44,1.24.88,2.4,1.31,3.5A31.21,31.21,0,0,0,314.63,295Z"/><path d="M340.12,296.92v2.85a33.16,33.16,0,0,1-4.81,1.2,46.1,46.1,0,0,1-5.69,12.14h-.33l-2.51-1-.11-.22a37.46,37.46,0,0,0,5.68-10.72,28.23,28.23,0,0,1-3.61.22l-.32-3h.87a21.72,21.72,0,0,0,2.41-.1,4.87,4.87,0,0,0,.87-.11h.66a16.25,16.25,0,0,0,.76-4.71v-.65a10.57,10.57,0,0,0,1.64.43,12,12,0,0,1,1.54.44,4.21,4.21,0,0,1-.33,1.42,3.38,3.38,0,0,0-.22,1,4.87,4.87,0,0,1-.11.87,7.44,7.44,0,0,1-.22.88A22.67,22.67,0,0,0,340.12,296.92Zm.22,4.71h.22l2.51.54a8.4,8.4,0,0,1-.11,1.32c0,.94.07,2.44.22,4.48.07,1.24.11,2.19.11,2.84a24.68,24.68,0,0,1,5.8,2.52v.33l-1.1,2.4a1.91,1.91,0,0,1-1.09-.54c-.15-.15-.26-.22-.33-.22a22.56,22.56,0,0,0-3.28-1.42,4.69,4.69,0,0,1-.33,1.86,2.15,2.15,0,0,1-.54.76,1.43,1.43,0,0,1-.22.33,4.7,4.7,0,0,1-3.61,1.2h-.66a4.82,4.82,0,0,1-3.72-1.42,3.3,3.3,0,0,1-.76-3.17,3.86,3.86,0,0,1,1.53-2.08,8.25,8.25,0,0,1,3.94-1h.76a3.8,3.8,0,0,1,1,.11C340.59,307.5,340.48,304.54,340.34,301.63Zm-1.64,11.15h-.44a2.51,2.51,0,0,0-2.19,1.1c-.29,1,.18,1.64,1.42,1.86h1c1.38-.08,2.11-.95,2.19-2.63A6.21,6.21,0,0,0,338.7,312.78Zm9.62-8.75h-.22a27.52,27.52,0,0,0-4.81-4.37l1.53-2.08H345q2,1.43,3.83,3.06a2.29,2.29,0,0,1,1,1.21Z"/><path d="M363.09,301.63l-1.64-2v.11h-2.52v2.62a4.16,4.16,0,0,1,.55.33q1.09.76,2.4,1.86l-1.2,2.41-1.75-1.54v13h-2.62V306a34.65,34.65,0,0,1-2.85,6,8.81,8.81,0,0,1-.22-1c-.21-1.38-.4-2.37-.54-2.95a30.18,30.18,0,0,0,3.61-8.31h-3v-2.52h3v-4.92h2.62v4.92h2.52v2.3a28.54,28.54,0,0,0,4.26-7.33l2.74.44a11.7,11.7,0,0,1-.88,2H379V297H366.37a4.16,4.16,0,0,1-.33.55c-.22.29-.58.8-1.09,1.53h12.58l-.11,6.45h2.07v2.3h-2.18c0,.51,0,1.24-.11,2.19v2h1.86v2.29h-2c-.08,2.48-1.42,3.76-4,3.83H369a2.65,2.65,0,0,0-.11-.54c-.14-.3-.36-.84-.65-1.65h4c1.31.08,2-.47,2.18-1.64h-12l.66-6.45h-1.53v-2.3h1.86l.54-5a2.28,2.28,0,0,1-.22.22A3.32,3.32,0,0,1,363.09,301.63ZM374.57,312v-1.86c.07-1,.11-1.79.11-2.3h-8.86l-.44,4.16h5.15q-1.21-1.32-2.52-2.52l1.42-1.42a28,28,0,0,1,2.74,2.41L370.63,312Zm.22-6.46v-4.15h-8.31l-.44,4.15Zm-4.05-.11a29,29,0,0,0-2.18-2.18c.07.14,0,.07-.33-.22l1.53-1.42a19.74,19.74,0,0,1,2.08,1.86l.54.54Z"/><path d="M384.85,305.45c-1.6-1.67-2.91-2.95-3.93-3.82l2-1.86c.44.36,1.13.94,2.08,1.75s1.53,1.42,2,1.86Zm-.65,12.69-2.85-.87c.66-1.68,1.53-4.56,2.63-8.64.14-.51.25-.88.33-1.1a2.68,2.68,0,0,0,.65.22,12.53,12.53,0,0,0,2.08.77c-.29.94-.69,2.33-1.2,4.15Q384.75,316.39,384.2,318.14Zm1.64-19.79c-.29-.3-.73-.7-1.31-1.21-1.17-1.09-2.08-1.93-2.74-2.51l2-2c.58.44,1.42,1.16,2.52,2.19.72.58,1.27,1,1.64,1.42Zm2-2.41v-2.41h19.57v2.41h-6v3.17h5v19.36h-2.62v-1.31H391.09v1.31h-2.74V299.11h5.14v-3.17Zm5.36,13-.88-.87c-.44-.37-.76-.62-1-.77a6.55,6.55,0,0,0,2.4-5.9h-2.62v8.53h12.69v-2.08h-1.86q-3.29.11-3.18-3.06v-3.39h-2.62C396.19,304.76,395.21,307.28,393.17,309Zm-2.08,3.29V315h12.69v-2.73Zm5-16.3v3.17h2.62v-3.17Zm7.66,5.47H401v2.95c-.07.95.44,1.39,1.53,1.31h1.21Z"/><path d="M419,292.66l3.5.87v.22l-.77.88c-.07.22-.22.58-.43,1.09a4.59,4.59,0,0,1-.44,1.2,19.28,19.28,0,0,0,4.37-1.09v2.95a30.6,30.6,0,0,1-5.36.88,18,18,0,0,1-1.64,3.17,8.44,8.44,0,0,1,3.07-.88h.43a5,5,0,0,1,1.1.22l.22.11a4.68,4.68,0,0,1,2.18,3.39c.66-.29,1.28-.54,1.86-.76l1-.33a16,16,0,0,0,2-.77,1.71,1.71,0,0,0,.43-.32q.44-.44.66-.33l2.3,2.62v.33a63.61,63.61,0,0,0-7.77,2.08,7.41,7.41,0,0,1,.22,1.86v.76a12.43,12.43,0,0,1-.22,1.86,7.1,7.1,0,0,0-.11,1h-2.73a8.09,8.09,0,0,1,.11-1.21v-3.17a10.88,10.88,0,0,0-2.41,1.42c-1.39.95-1.86,2-1.42,3.07s1.53,1.53,3.72,1.53h.43a25.05,25.05,0,0,0,5.47-.77l.33,3.17a29.32,29.32,0,0,1-4.37.33H423a9.57,9.57,0,0,1-4.49-1,4.06,4.06,0,0,1-2.3-3.17v-.44a7,7,0,0,1,3.18-5,13.87,13.87,0,0,1,2.18-1.21c.51-.29.91-.5,1.21-.65a2.85,2.85,0,0,0-1.21-2.19,3.62,3.62,0,0,0-2.07.22q-2.41,1.2-5.25,5.8a4.92,4.92,0,0,0-.44.65l-2.74-1.2a50,50,0,0,0,5.91-9.95h-3.17l-.77-2.63V297a13.81,13.81,0,0,0,2.3.22h2.73a1.48,1.48,0,0,0,.11-.44,8.65,8.65,0,0,0,.77-3.5Z"/><path d="M438.12,297l.11-.11c1.31.22,2.55.48,3.72.77a2.62,2.62,0,0,1-.22.76,4.58,4.58,0,0,0-.22,1.21,7,7,0,0,0-.11,1.31v.77a20.5,20.5,0,0,0,.44,4.59,37.41,37.41,0,0,0,1.53,4.37c.51,1.17,1.13,1.75,1.86,1.75a2.58,2.58,0,0,0,1.64-.76,9.26,9.26,0,0,0,1.75-2.08h.22l1.31,2q.23.1,0,.33a4.86,4.86,0,0,1-1.53,2,5.19,5.19,0,0,1-3.61,1.53q-2.62,0-4.16-3.39a22.48,22.48,0,0,1-.76-2.19,6.53,6.53,0,0,0-.44-1.42,56.6,56.6,0,0,1-1-6.13,9.48,9.48,0,0,0-.11-1.09,8.81,8.81,0,0,0-.22-1c0-.36,0-.91-.11-1.64A8.59,8.59,0,0,0,438.12,297Zm16.3,2.85,2.51-.77h.22a38.29,38.29,0,0,1,4.27,7.11,7.12,7.12,0,0,1,1,2.41l-2.62,1.2h-.44a30.59,30.59,0,0,0-5-9.63Z"/><path d="M475,293.2h.22l3.28.88v.33a2.61,2.61,0,0,0-1.1,1.75,11.3,11.3,0,0,0-.65,1.86,3.19,3.19,0,0,1-.22.65l3.61-.65a3.29,3.29,0,0,0,.76-.22l.22.11v2.84q-2.62.44-5.25.66a2.65,2.65,0,0,1-.11.54c.08-.14,0-.07-.11.22a63.27,63.27,0,0,1-5.79,15l-3-.88-.1-.22a88.89,88.89,0,0,0,6.34-14.54,17.05,17.05,0,0,1-2.19.11c-.95.07-1.68.11-2.19.11l-.21-.11-.44-2.63.11-.22c.29,0,.76,0,1.42.11a12.31,12.31,0,0,0,1.31.11h.88c.65,0,1.35,0,2.07-.11a2.68,2.68,0,0,0,.22-.65,17.08,17.08,0,0,0,.88-4.38Zm14.76,20.13-.32,3.06a28.34,28.34,0,0,1-3.61.22h-1.1a22.33,22.33,0,0,1-4.81-.55,1.55,1.55,0,0,1-.44-.11c-.51,0-.84-.1-1-.32l-.11-2.52a7.15,7.15,0,0,0,1,.22,28.65,28.65,0,0,0,4.82.55h.54A23.2,23.2,0,0,0,489.74,313.33Zm-6.34-10.72h1c1.17,0,2.41,0,3.72.11l.11,2.95-.11.11a24.79,24.79,0,0,0-4.7-.65h-1.09a9.44,9.44,0,0,0-2.41.32l.44-2.73h1.42C482.49,302.65,483,302.61,483.4,302.61Z"/><path d="M501.34,293.53h.44l3.5.88v.22a2.3,2.3,0,0,0-.88,1.53c-.07.22-.18.54-.33,1-.29.81-.51,1.46-.65,2,1.45-.36,2.88-.69,4.26-1l.22.11-.33,2.84q-2.4.44-4.92.66a88.63,88.63,0,0,1-2.84,8.42,45,45,0,0,1-3.28,7.33l-.11.11-3.29-1.21a35.55,35.55,0,0,0,4.71-9.19c.36-.8.8-2,1.31-3.5.29-.8.51-1.38.66-1.75h-3.94a.66.66,0,0,1-.44-.1l-.44-2.74c.37,0,.92,0,1.64.11s1.28.11,1.65.11h2.29a17.59,17.59,0,0,0,.77-5.14Zm9.29,20.78h1.1a11.81,11.81,0,0,0,4.48-.65l-.22,2.95a23,23,0,0,1-3.82.33h-.77a22.53,22.53,0,0,1-6.56-1.2l.44-2.41a3.29,3.29,0,0,0,.76.22A20.85,20.85,0,0,0,510.63,314.31Zm.11-11.48h1a15,15,0,0,1,2.19.22,9.48,9.48,0,0,0,1.09.11l-.11,2.95a18.17,18.17,0,0,0-4.16-.66h-.87a19.05,19.05,0,0,0-2.3.22,4.09,4.09,0,0,1-.87.11l.22-2.62a12.52,12.52,0,0,0,1.31-.11A22,22,0,0,1,510.74,302.83Zm1.43-4.59V298l1.42-1.32c0-.14.07-.14.22,0a12.55,12.55,0,0,1,2.51,2l.55.55-.22.22-.11.11a3.27,3.27,0,0,1-1.31,1.09c0,.07-.07.07-.22,0C514.06,299.91,513.11,299.11,512.17,298.24Zm2.62-2.63L516.1,294a3.9,3.9,0,0,1,1.43.77,2.37,2.37,0,0,0,.54.43,17.52,17.52,0,0,0,1.31,1.21v.32L517.85,298c0,.07-.07.07-.22,0a15.55,15.55,0,0,0-1.42-1.21,10.26,10.26,0,0,0-1.42-1.09Z"/><path d="M538.63,295h.22a7.68,7.68,0,0,1,1,2.3,11.91,11.91,0,0,1-2.63,1.1c-.36.14-.65.25-.87.32a11,11,0,0,1,.87,1.53,14.39,14.39,0,0,1,.77,1.54c.44-.15,1.09-.4,2-.77l2-.66h.32l1,2-.11.33-1.2.33c-.59.22-1,.36-1.32.44a4.43,4.43,0,0,1-1.42.43,2.55,2.55,0,0,1,.33.66,47.17,47.17,0,0,0,3.06,4.27.31.31,0,0,0,.11.21,1.65,1.65,0,0,1,.44.88l-2.41,2.3a15.63,15.63,0,0,0-8.75-2.3h-.65a5.18,5.18,0,0,0-2.3.44,2,2,0,0,0-1,2.4c.07.29.47.7,1.2,1.21a5.44,5.44,0,0,0,2.51.87,16.69,16.69,0,0,0,3.29.33h.54a8.17,8.17,0,0,0,1.31-.11l-.21,3.06h-.77q-10.17-.54-10.61-5.9v-.55a4.27,4.27,0,0,1,2.19-3.17,10,10,0,0,1,4.37-1H533a18.86,18.86,0,0,1,5.47,1h.11c-.15-.22-.37-.59-.66-1.1s-.69-1.42-1.42-2.73a11.42,11.42,0,0,1-2.3.44,53.86,53.86,0,0,1-6,.54l-.21-.11-1.32-2.07.11-.22h.77a34.86,34.86,0,0,0,6.23-.55,4.66,4.66,0,0,0,1.53-.22c-.43-.94-.91-2-1.42-3.06a32.13,32.13,0,0,1-4.7,1,6.47,6.47,0,0,0-.66-1,4.06,4.06,0,0,1-.43-.66,1.59,1.59,0,0,1-.44-.76h.33c1.45-.22,3-.51,4.7-.88a7.19,7.19,0,0,0-.55-1.31l-.65-1.31a.66.66,0,0,0-.22-.44,2.6,2.6,0,0,1-.11-.66l2.95-.54c.44,1.24.88,2.4,1.31,3.5A31.21,31.21,0,0,0,538.63,295Z"/><path d="M561.6,293.31l3.39.33.11.11a4.82,4.82,0,0,0-.43.88,1.26,1.26,0,0,1-.22.43v.44c-.08.59-.15,1.24-.22,2,.8-.07,1.93-.22,3.39-.44a10,10,0,0,0,1.42-.22l-.22,2.52a29.16,29.16,0,0,1-4.59.55,10.09,10.09,0,0,1,.11,1.75c.07.73.11,1.31.11,1.75h.22a22.41,22.41,0,0,0,4.81-.77l-.44,2.52a18.64,18.64,0,0,1-4.37.76c.07,1.68.18,3.43.32,5.25a19.3,19.3,0,0,1,6.13,3.39l-1.31,2A17.86,17.86,0,0,0,565.1,314a3.52,3.52,0,0,1-2.18,3.17,7.19,7.19,0,0,1-3.39.65h-1a5.48,5.48,0,0,1-4-1.42,3.06,3.06,0,0,1-.87-3.61A4.45,4.45,0,0,1,555.7,311a11.3,11.3,0,0,1,3.72-.65h1.09a8.91,8.91,0,0,1,1.64.22c-.44-.15-.37-.15.22,0a28.17,28.17,0,0,0-.22-3c-.07-.65-.11-1.16-.11-1.53h-2.3a34.51,34.51,0,0,1-3.93-.22l-.22-.11-.55-2.4v-.22c.29.07.66.14,1.09.22a19.73,19.73,0,0,0,3.07.32h2.73c0-1.09,0-2.36-.11-3.82h-.65c-1.9,0-3.72-.08-5.47-.22l-.22-.11-.66-2.52a16.56,16.56,0,0,1,2.19.22,25.06,25.06,0,0,0,2.73.22h2.08v-1.2A23.71,23.71,0,0,0,561.6,293.31Zm-2.4,19.14h-.66c-1.68.15-2.55.77-2.62,1.86.07.44.43.77,1.09,1a13.82,13.82,0,0,0,1.64.11h.66a4.77,4.77,0,0,0,2.4-.44,2.2,2.2,0,0,0,.77-1.75v-.44a7.71,7.71,0,0,1-1.1-.11A19.16,19.16,0,0,0,559.2,312.45Z"/><path d="M582.28,293.53h.21l3.5.66a13.34,13.34,0,0,1-.32,1.42V310.7a5.06,5.06,0,0,0,.65,3,3,3,0,0,0,2.3,1.09h.66a4,4,0,0,0,1.85-.44,11.19,11.19,0,0,0,2.52-1.2,12.06,12.06,0,0,0,3.06-2.73h.22l1.31,2.51c.15.15.15.22,0,.22a13.42,13.42,0,0,1-4.59,3.28,9.84,9.84,0,0,1-4.81,1.21h-.33a6.37,6.37,0,0,1-3.61-1.1,4.32,4.32,0,0,1-2.19-3.17c-.07-1-.11-2.08-.11-3.17V295.83a5.73,5.73,0,0,0-.22-1.31A6.75,6.75,0,0,1,582.28,293.53Z"/><path d="M615,293.2h.22l3.28.88v.33a2.61,2.61,0,0,0-1.1,1.75,11.3,11.3,0,0,0-.65,1.86,3.19,3.19,0,0,1-.22.65l3.61-.65a3.29,3.29,0,0,0,.76-.22l.22.11v2.84q-2.62.44-5.25.66a2.65,2.65,0,0,1-.11.54c.08-.14,0-.07-.11.22a63.27,63.27,0,0,1-5.79,15l-3-.88-.1-.22a88.89,88.89,0,0,0,6.34-14.54,17.05,17.05,0,0,1-2.19.11c-.95.07-1.68.11-2.19.11l-.21-.11-.44-2.63.11-.22c.29,0,.76,0,1.42.11a12.31,12.31,0,0,0,1.31.11h.88c.65,0,1.35,0,2.07-.11a2.68,2.68,0,0,0,.22-.65,17.08,17.08,0,0,0,.88-4.38Zm14.76,20.13-.32,3.06a28.34,28.34,0,0,1-3.61.22h-1.1a22.33,22.33,0,0,1-4.81-.55,1.55,1.55,0,0,1-.44-.11c-.51,0-.84-.1-1-.32l-.11-2.52a7.15,7.15,0,0,0,1,.22,28.65,28.65,0,0,0,4.82.55h.54A23.2,23.2,0,0,0,629.74,313.33Zm-6.34-10.72h1c1.17,0,2.41,0,3.72.11l.11,2.95-.11.11a24.79,24.79,0,0,0-4.7-.65h-1.09a9.44,9.44,0,0,0-2.41.32l.44-2.73h1.42C622.49,302.65,623,302.61,623.4,302.61Z"/><path d="M636.31,313.66a4.39,4.39,0,0,1,4.48-4.49q4.05.33,4.38,4.49c-.3,2.48-1.75,3.86-4.38,4.15C638.09,317.6,636.6,316.21,636.31,313.66Zm1.75,0q.21,2.19,2.73,2.4a2.53,2.53,0,0,0,2.63-2.4,2.68,2.68,0,1,0-5.36,0Z"/></g></g></svg>