<svg xmlns="http://www.w3.org/2000/svg" viewBox="0 0 759.89 428.94"><defs><style>.cls-1{fill:#fff;}</style></defs><g id="レイヤー_2" data-name="レイヤー 2"><g id="_4" data-name="4"><path class="cls-1" d="M121.11,422.23c4.9-1.9,12.1-10.7,16.6-14.1,4.3-3.2,9.3-6.3,12.8-10.4a62.77,62.77,0,0,0,8.8-14.1,47.08,47.08,0,0,0,4.6-16,35,35,0,0,0-3.5-16.3,39.23,39.23,0,0,0-10.1-13.1c-4-3.4-9.5-5.9-15-8.7-4.8-2.5-10.5-3.9-16.1-6.2-5.1-2.1-10.2-4.9-15.7-7.1-5.2-2.1-10.6-4.3-16-6.5s-10.9-3.8-16.1-6.4-9.8-6.1-14.8-9.1a150.6,150.6,0,0,1-14.2-9.9c-4.5-3.5-8.3-7.8-12.3-12.1-3.9-4.1-8.1-8-11.3-13-3-4.7-5-10.1-7.3-15.6a107.32,107.32,0,0,1-5.1-16.3c-1.3-5.3-3.3-10.8-3.9-16.8a155.72,155.72,0,0,1-1.1-17.3A164.18,164.18,0,0,1,3.11,176a158.89,158.89,0,0,1,3-17c1.3-5.6,3.5-10.9,5.4-16.3s2.3-11.5,4.8-16.7a150.39,150.39,0,0,1,8.6-15.1c3-4.8,6.8-9.2,10.4-13.8a170,170,0,0,1,11.1-13.3c4-4,8.9-7.1,13.4-10.9,4.3-3.6,8.2-8.1,13-11.5,4.6-3.2,10-5.5,15.1-8.4,4.8-2.8,10.2-4.9,15.5-7.5,5-2.5,10-5.3,15.4-7.6,5.2-2.2,10.1-5.3,15.7-7.3,5.3-1.9,11.2-2.4,16.8-4.2,5.4-1.6,11-2.8,16.7-4.3,5.5-1.4,10.6-4.6,16.3-5.8,5.5-1.2,11.3-1.4,17.1-2.5,5.5-1,11.3-1.1,17.1-1.9,5.6-.8,11.1-3.3,16.9-4,5.6-.7,11.4-.9,17.2-1.4,5.6-.5,11.4-.7,17.2-1,5.6-.4,11.4.2,17.3-.1,5.7-.2,11.4-.9,17.2-1s11.4-.5,17.2-.5,11.4-.3,17.3-.2c5.7.1,11.4.9,17,1.1s11.4-.1,17,0,11.4,1.4,17,1.5,11.4-.6,17.1-.4,11.3,1.3,17,1.5,11.4-.1,17,.2,11.4-.3,17.1.1,11.4.7,17,1.1,11.4.8,17,1.3,11.4,1.2,17,1.8,11.4,1.2,16.9,1.9c5.7.7,11.3,1.9,16.8,2.7,5.7.8,11.3,1.8,16.8,2.7,5.7,1,11.2,2.3,16.7,3.4s11,3.3,16.4,4.6c5.6,1.3,11.2,2.4,16.6,3.8,5.6,1.5,10.9,3.3,16.3,5s11,3.3,16.2,5.2c5.4,2,11,3.4,16.1,5.6q8,3.6,15.3,7.5c5.1,2.7,9.1,7,13.8,10s10.3,5.2,14.7,8.7a153.81,153.81,0,0,1,12.7,11.4,135,135,0,0,1,11.1,12.9c3.6,4.4,7.7,8.5,10.7,13.3s5.2,10.1,7.6,15.3a152.45,152.45,0,0,1,5.7,16.1c1.7,5.3,2.5,10.9,3.6,16.6a168.88,168.88,0,0,1,2.6,16.8c.6,5.5,2.5,11.1,2.6,16.9s-1.5,11.4-2,16.9c-.5,5.8-.5,11.5-1.6,16.9a119.54,119.54,0,0,1-4.5,16.4c-1.9,5.4-5.3,10-7.9,15s-4.7,10.3-7.9,14.9a125.85,125.85,0,0,1-23.2,24.4c-4.2,3.7-7.8,8.2-12.4,11.5s-9.8,5.5-14.7,8.4-9.7,5.6-14.8,8.1-10.1,4.9-15.4,7.1-10.1,4.9-15.5,6.8-11,2.7-16.4,4.3-10.6,3.9-16.1,5.3-11.2,1.8-16.7,2.9-11,2.7-16.5,3.7-11.1,2.1-16.7,2.9-11.2,1.6-16.8,2.2-11.4-.2-17,.3-11.2,2.5-16.8,2.9-11.4,0-17,.3-11.4,1.1-16.9,1.2c-5.7.1-11.4-1.5-17-1.5-5.8,0-11.4,1.1-16.9,1-5.8-.1-11.5,0-17-.2-5.9-.3-11.4-2.2-16.8-2.6-6.3-.4-12.3-.4-18-.7-6.3-.4-12.4-.6-18-.9-6.4-.3-12.4.1-18.1,0-6.5-.2-12.5.3-18,.3-6.6,0-12.6-.3-18-.1-6.8.3-12.6,1.2-17.9,1.9a98.63,98.63,0,0,0-17.5,3.7,59.06,59.06,0,0,0-15.9,7.9c-4.7,3.3-9.9,6.1-14.6,10.6a75.74,75.74,0,0,1-14,10.7,145.62,145.62,0,0,1-15.8,8c-5.3,2.3-10.6,5-16.4,7-5.6,1.9-11.5,3-17.2,4.5s-11.6,3.1-17.3,4.2c-6.1,1.2-12,1.9-17.6,2.6-6.5.8-12.4,1.8-17.6,1.8C111.91,423.73,108,427.33,121.11,422.23Z"/><path d="M122.71,426.23c5.6-2.7,9.6-7.9,14.2-12,5-4.5,11-7.6,15.5-12.8,9-10.3,15.5-25.4,12.8-39.2-2.5-12.6-9.9-24.5-21-31.3a119.26,119.26,0,0,0-21.5-9.8c-8.2-2.9-15.9-7-23.9-10.3-7.3-2.9-14.5-5.9-21.9-8.7-8.3-3.1-15.3-7.9-22.7-12.6a103.78,103.78,0,0,1-19.9-15.6c-7.4-7.6-15.1-15-19.3-24.9-7.3-17.1-12.6-36.3-11.6-55.1a181,181,0,0,1,2.7-22c1.7-9.7,5.2-18.4,7.9-27.8,2.1-7.5,3.6-14,7.5-20.9,4.5-8,9.9-15.1,15.6-22.3,5.1-6.4,9.9-12.7,16.4-17.8,7.1-5.6,13.5-12.4,20.9-17.6,13.1-9.2,29.2-15.9,43.7-22.6,7-3.2,13.9-7.3,21.5-9.4,8.3-2.2,16.8-4.1,25.1-6.2,7.6-1.9,14.7-5.7,22.4-7.2a245.72,245.72,0,0,1,25.6-3.4c8-.8,15.2-3.3,23.1-4.6,8.4-1.4,17.2-1.7,25.7-2.1,16.4-.9,32.8-1.2,49.3-1.7s32.7.4,49.1.6c8.9.1,17.5.3,26.4,1.2,7.4.7,14.8-.3,22.2,0,8.2.3,16.1,1.6,24.3,1.6s16.3-.1,24.3.1c33.1.8,66.3,5.4,98.9,10.9,32,5.4,63.1,15.2,93.9,25.3a133.18,133.18,0,0,1,22.3,9.7c6.9,3.7,12.4,9.2,19.1,13a100.08,100.08,0,0,1,20.3,14.5c6.7,6.3,12.1,13.5,18.1,20.4,12.4,14.2,17.9,32.5,21.4,50.7,1.5,7.5,2.2,15.2,3.6,22.7,1,5.4,2,10.1,1.4,15.5-.5,4.4-1.5,8.8-1.8,13.2-.7,8.5-1.4,16.4-3.7,24.7-2.5,8.8-7.1,16-11.1,24-3.3,6.6-6.5,12.7-11.3,18.5-6.2,7.5-13.3,13.4-20.3,20-5.5,5.2-10.2,9.9-16.8,13.6-7.8,4.3-15.4,8.8-23.4,12.8a234.39,234.39,0,0,1-45,17.5c-7,1.9-13.7,4.9-20.8,6.4-8.7,1.8-17.4,3.3-26.1,5.2-16.6,3.6-33.5,6.1-50.4,6.1-7.9,0-15.2,2.7-23,3.1-9.2.5-18.4.5-27.7,1.2-7.8.6-15.3-1.4-23-1.2-8.5.1-17,.9-25.5.9-8.2,0-15.7-2-23.8-2.7-8.7-.7-17.5-.7-26.2-1.2-17.2-.8-34.4,0-51.7-.2-15.3-.2-31.2.6-46,5-14.5,4.3-25.7,13.9-37.1,23.3-12.2,10-28.8,17.7-43.9,22.3a302.19,302.19,0,0,1-49.6,10.6c-11.9,1.5-23.9,1.7-35.8,3.4,1.1,2.6,2.1,5.3,3.2,7.9,1.1-1.3,5.8-2.1,7.4-2.7s-1.6-8.5-3.2-7.9c-1.8.7-6.3,1.3-7.6,2.7s1.3,8.2,3.2,7.9c12.7-1.9,25.5-2.1,38.2-3.7,17.3-2.2,35.7-5.8,52.1-12,14.9-5.6,30.3-12.7,42.2-23.4,11.4-10.3,24.8-18.9,40-22.1,16.4-3.5,32.4-3,49-3.4,17.7-.4,35.3,0,53,.8,17.4.8,34.3,3.9,51.7,3.4,4-.1,8.1-.8,12.1-.9,4.8-.1,9.4.7,14.2,1.2,7.4.7,14.7-.6,22.2-1,9.1-.4,17.6-.1,26.5-1.9s17.9-.8,27-1.8c17.6-2,34.6-6.4,52-9.3a129.75,129.75,0,0,0,22.3-5.5c8-2.8,16.5-4,24.4-7,15.8-6.2,30.8-14.2,45.5-22.3,28.3-15.6,50.4-41.4,63.4-71,6.5-14.8,7.2-32.1,8.8-48,.8-7.8-1.3-14.9-2.4-22.6-1.1-8-2.4-15.8-3.9-23.7-5.9-30.9-22.4-57.3-45.5-78.4a93.06,93.06,0,0,0-18.3-12.9c-6.5-3.6-11.7-8.8-18.1-12.5-14.8-8.5-31.4-13.2-47.6-18.4-63.1-20-129.7-28.9-195.8-28.7-8.2,0-16.2-1.5-24.3-1.6-9.3-.2-18.3.2-27.6-.8-7.4-.7-14.8-.2-22.3-.4-9-.2-17.9-1.2-26.9-1-16.8.3-33.7,1.8-50.5,1.6-7.8-.1-15.6.4-23.4.9-9,.7-18.2.9-26.9,3.2-16.6,4.4-34.8,2.9-50.9,9.2-7.8,3-15.5,4.9-23.6,7.1-7.9,2.2-16.2,3.3-23.7,6.8-15.7,7.1-31.2,14.8-46.4,22.9a91.56,91.56,0,0,0-19.9,14.2c-6.7,6.1-14.4,10.9-20.4,17.8-10.1,11.6-20.7,24.5-27,38.7-3.3,7.5-4.6,15.9-7.3,23.6a120,120,0,0,0-5.6,24.4c-4.1,30.1.6,62.5,16,89.2,3.6,6.2,8.6,11.1,13.5,16.3a123.35,123.35,0,0,0,18.6,16.8,216.51,216.51,0,0,0,20.8,13.4c7.6,4.1,16.1,6.6,24.1,9.9,7.3,3,14.4,6,21.6,9.3,8.3,3.8,17.1,6.3,25.2,10.6,11.2,5.8,21.4,14.8,20.8,28.6-.4,9-5.2,18.5-10.3,25.8-4.9,6.9-11.8,10.6-18,16.1-4.6,4.1-8.5,9.3-14.2,12C117.91,419,121.31,426.93,122.71,426.23Z"/><path d="M147.84,58.86c-.66-.73-1.31-1.42-2-2.08q-11.49.22-16.41.44a30.5,30.5,0,0,0-3.72.54l-1.42-2.95a9.58,9.58,0,0,0,3-1.75,61.85,61.85,0,0,0,7.32-7.22l3.28,1.42a5.46,5.46,0,0,1-.65.55q-4.81,4.48-7.66,6.78l13.89-.43-3.28-3.29,2.19-1.64Q147,53.51,150.24,57ZM127,72.2V60h20.12V72.2H144V70.45H129.9V72.2Zm3-9.62v5.47H144V62.58Z"/><path d="M153.63,72.2q-1.2-1.2-2.07-2.19a14.82,14.82,0,0,0,1.86-4.92,54.41,54.41,0,0,0,.43-8.09V47.37h20.78V59.19a52.49,52.49,0,0,0,.44,8.86c.15.51.37.76.66.76s.47-.29.55-1.09a23.45,23.45,0,0,0,.32-4.27,14.84,14.84,0,0,0,1.75.77,28.41,28.41,0,0,1-.43,4.92c-.44,2-1.32,3-2.63,3S173,71,172.67,69c-.44-1.31-.66-4.56-.66-9.73V49.78H156.37V58a46.77,46.77,0,0,1-.55,8.32A20.65,20.65,0,0,1,153.63,72.2Zm4.6-8.09V56.56H163V54.05c-.58,0-1.42,0-2.51.11a21.24,21.24,0,0,0-2.52.1,11.32,11.32,0,0,0-.44-2.29q7.44,0,12.58-.44l.44,2.19c-1.53.07-3.25.18-5.14.33v2.51h4.81v7.55h-4.81v3.17l2.62-.22-.65-1.86,2-.44c.3.73.7,1.86,1.21,3.4q.54,1.64.87,2.4l-2.18.55L168.73,69l-3.72.33c-3.65.29-6.23.47-7.77.55l-.32-2.3q1.74,0,5.79-.22-3,.23.33,0V64.11Zm2.19-5.58v3.39h2.73V58.53Zm7.65,0h-2.84v3.39h2.84Z"/><path d="M183.06,72.09V61.7c-.88.88-1.83,1.79-2.85,2.74-.22-1.17-.43-2.23-.65-3.18a23.67,23.67,0,0,0,6.12-7.54h-5.47V51.2h8.42v2.19a32.9,32.9,0,0,1-2.95,5v1a1.75,1.75,0,0,1,.44.32,4.81,4.81,0,0,1,.44.33c.36-.44.87-1.13,1.53-2.08a4.52,4.52,0,0,1,.54-.76l1.54,1.09a15,15,0,0,1-2.41,2.95L190,63.34,188.2,65l-2.52-2.73v9.84ZM184.48,51q-1.32-2.4-2.19-3.93L184.7,46q.33.55.87,1.53a19.84,19.84,0,0,1,1.42,2.3Zm8.2,21.22a4.15,4.15,0,0,0-.33-.54,7.75,7.75,0,0,0-1.2-2,19.11,19.11,0,0,0,5.91-3.18,19.84,19.84,0,0,1-3.5-6.56l1.42-.76h-1.75q.11,8-3.72,13A25.34,25.34,0,0,0,187,70.67q3.72-4.26,3.5-12v-9h6.68V46.06h2.62v3.61h6l-.55,5.58a21.18,21.18,0,0,0-2.41-.11l.33-3h-3.39v4.48h4.92V59.3A20.85,20.85,0,0,1,201,66.41a17.8,17.8,0,0,0,5.36,2.73l-1.42,2.73a34.53,34.53,0,0,1-5.9-3.5A31.43,31.43,0,0,1,192.68,72.2Zm.55-20v4.48h3.94V52.19Zm8.64,7H196A14.2,14.2,0,0,0,199,64.55,20.07,20.07,0,0,0,201.87,59.19Z"/><path d="M208.43,53.28v-5h11.16a3,3,0,0,1-.22-.77c-.22-.72-.37-1.24-.44-1.53l3.5-.22a19.19,19.19,0,0,1,.55,2.52h10.5v5h-2.41v1.53h-8.64v1.75h8.75v2h-8.75v1.75h11.16v2.3H222.43v1.75h8.42V72.2H227.9V71.11H214V72.2h-2.84V64.33h8.31V62.58H208.32v-2.3h11.16V58.53h-8.64v-2h8.64V54.81h-8.64V53.28Zm2.95-2.73v2.18h8.1V51.31h3v1.42h8.2V50.55Zm2.63,16V69H227.9V66.51Z"/><path d="M235.45,52.51h.65a15,15,0,0,0,3.28-.54l1.32-.33c1.38-.36,2.73-.69,4-1q3.62-.88,7.11-1.54a21.79,21.79,0,0,0,4.38-1,3.3,3.3,0,0,0,.33,1.2,3.75,3.75,0,0,1,.22,1.64l-1.54.33a7.6,7.6,0,0,0-3.71,1.2,8.68,8.68,0,0,0-3.18,4.71,15.72,15.72,0,0,0-.65,3.83v.65A5.77,5.77,0,0,0,249.34,66a6.38,6.38,0,0,0,4.26,1.64h.55a7,7,0,0,0,1.75-.22v3.28H255a12.8,12.8,0,0,1-6.9-1.86,8.64,8.64,0,0,1-3.28-6.89v-.55q0-4.26,3.39-9c-2.91.72-5.83,1.53-8.75,2.4a3.29,3.29,0,0,1-.76.22,3,3,0,0,0-1.53.88l-1.75-3.07Zm20.12,1.54,1.53-1.43c.22.22.51.55.88,1a17.62,17.62,0,0,1,1.75,2l-1.53,1.31A17.33,17.33,0,0,0,255.57,54.05Zm3-2.19,1.53-1.31a18.7,18.7,0,0,1,2.51,2.84l-1.64,1.31A22.66,22.66,0,0,0,258.53,51.86Z"/><path d="M263.78,58.75V56.34h4a4.15,4.15,0,0,0-.33-.54c-.8-1.24-1.46-2.19-2-2.85l2.29-1.2q.23.33.66.87a21.7,21.7,0,0,1,1.75,2.52L268,56.34H272q.43-.77.33-.54c.94-1.75,1.64-3.1,2.07-4l2.52,1c-.66,1.17-1.35,2.37-2.08,3.61h3.94v2.41Zm.76-7.11V49.23h5.69a16.64,16.64,0,0,0-.88-2.18l-.32-.66,3-.44c.29.66.65,1.57,1.09,2.74a3.73,3.73,0,0,0,.22.54h4.81v2.41ZM265.31,72V61.26h12V71.87H274.6V70.23H268V72ZM268,63.56v4.49h6.56V63.56ZM280,72.2V47.59h9.74v2.63l-2.63,7.22q3.29,3.06,3.17,6.67c.08,3.06-1.2,4.67-3.82,4.81a23.42,23.42,0,0,1-2.74.11c-.15-1-.33-2-.55-3,.81.07,1.57.11,2.3.11,1.39,0,2.08-.81,2.08-2.41,0-1.9-1.06-3.9-3.17-6l2.51-7.65h-4.26V72.2Z"/><path d="M294.07,72.31c-.73-1-1.35-1.86-1.86-2.51q6.68-2.42,7.33-7.77a9.84,9.84,0,0,0,.22-2.19H295.6v-2.4c-.73.65-1.53,1.31-2.4,2a5.23,5.23,0,0,0-.44-.66,23.43,23.43,0,0,0-1.2-2.19,26.24,26.24,0,0,0,9.07-10.28l2.74,1.2A31,31,0,0,1,296,57.11h17.61c-.07,1-.15,2.73-.22,5.14-.15,2.11-.22,3.61-.22,4.48q-.1,4.92-5.25,4.82H303.7a18.27,18.27,0,0,0-.55-2.74h2c1.09.07,1.89.11,2.41.11q2.63.1,2.73-2.73c.15-2.34.22-4.45.22-6.35h-7.66a9.7,9.7,0,0,1-.11,1.21,9.91,9.91,0,0,1-.22,1.31Q302.05,68.92,294.07,72.31Zm22.53-13a24.48,24.48,0,0,1-10-12.25l2.63-1.1a19.41,19.41,0,0,0,9.07,10.39C318.06,56.93,317.48,57.91,316.6,59.3Z"/><path d="M336.18,71.66V66.41h-3.5v5.68h-2.62V58A24.29,24.29,0,0,0,328,60.5a2.21,2.21,0,0,0-.44.55l2.41,2.4L328.31,65c-.51-.65-1.35-1.6-2.52-2.84a1.17,1.17,0,0,0-.22-.33V72.09h-2.51V61.48c-.88,1-1.79,1.86-2.74,2.74q-.1-.55-.33-1.53c-.21-.73-.36-1.24-.43-1.53a20.45,20.45,0,0,0,5.79-7.55h-5.14V51.09h8v2.3a29.87,29.87,0,0,1-2.63,4.7v1.1l.66.54c.8-1,1.57-2,2.3-2.95l1.53,1.2V54.26h6.12v-2.4H329.4V49.45h6.78V46.06h2.74v3.39H342c-.15-.22-.4-.58-.77-1.09a16.38,16.38,0,0,1-.87-1.42l2.19-.66c.21.29.54.77,1,1.42s.66,1.06.87,1.42l-.87.33h2.73v2.41h-7.32v2.4h6.23V69c.07,1.9-.8,2.84-2.62,2.84H339.9a2,2,0,0,0-.11-.43,10.31,10.31,0,0,0-.33-2c.73.07,1.35.11,1.86.11.88,0,1.28-.33,1.21-1V66.41h-3.61v5.25ZM324.59,50.87a41.39,41.39,0,0,0-2.19-3.82l2.3-1.21A30.82,30.82,0,0,1,327,49.56Zm8.09,5.8v2.74h3.5V56.67Zm0,4.81v2.74h3.5V61.48Zm9.85-4.81h-3.61v2.74h3.61Zm-3.61,4.81v2.74h3.61V61.48Z"/><path d="M350.4,72.09V58.2c-.66,1.31-1.31,2.52-2,3.61-.29-1.31-.55-2.55-.76-3.72a49.1,49.1,0,0,0,4.48-12l2.73.44A32.44,32.44,0,0,1,353,52.41V72.09Zm4.48-4.26V50.44h2.52V67.83Zm3.61,4.37a16.79,16.79,0,0,0-.87-1.75,1.29,1.29,0,0,0-.22-.54,38.44,38.44,0,0,0,15.09-6l1.54,2A46.28,46.28,0,0,1,358.49,72.2Zm15-13.23a34.51,34.51,0,0,1-7.22-2.52,44.17,44.17,0,0,1-7.33,3c-.51-1-.91-1.79-1.2-2.3A32.29,32.29,0,0,0,364,54.92a25.79,25.79,0,0,1-2.51-2.41l-2.08,2.3a5.46,5.46,0,0,1-.55-.65c-.44-.51-.8-.95-1.09-1.32a20.6,20.6,0,0,0,4.81-6.78l2.84.33c-.29.66-.62,1.31-1,2h8.2v2.3a18.71,18.71,0,0,1-4,4.26,24.09,24.09,0,0,0,5.79,1.53A22.3,22.3,0,0,0,373.48,59ZM360,63.34a20.18,20.18,0,0,0-1.21-2.08,29.93,29.93,0,0,0,9-3.82l1.53,1.64A55.18,55.18,0,0,1,360,63.34Zm0,4.38c-.52-1-.92-1.75-1.21-2.19a42,42,0,0,0,11.71-5.14L372,62.14A51.44,51.44,0,0,1,360,67.72Zm9.51-17.06h-6.67a21.9,21.9,0,0,0,3.28,3.06A15.56,15.56,0,0,0,369.54,50.66Z"/><path d="M379.49,47.26h.33l3,1.1a7.17,7.17,0,0,1-.66,1.75l-.33.65a35,35,0,0,0-1.42,4.71,24,24,0,0,0-.66,4.59v1a20,20,0,0,0,.77,5.14h.22c.14-.29.36-.7.65-1.21a7.07,7.07,0,0,1,.55-1.09h.22l.87.87V65c-.43,1.9-.8,3.69-1.09,5.36l-2.41.55a18.46,18.46,0,0,1-2.29-9.63V59.62a24.46,24.46,0,0,1,.87-5.57c.07-.37.22-.92.44-1.64a16.66,16.66,0,0,0,1-4.71Zm11.71.55,3.83.55c-.15,1.68-.22,3.5-.22,5.47v-.11q2.29-.22,4.59-.66v2.63a43.13,43.13,0,0,1-4.48.65q.1,8.2.11,7.88l2.51,1c.15.15.26.22.33.22a15,15,0,0,1,2.95,2l-1.75,2.08h-.33c-.58-.44-1.2-.88-1.86-1.31l-1.2-.66c-.36-.22-.62-.37-.76-.44a4.52,4.52,0,0,1-1.21,2.19,5.28,5.28,0,0,1-4,1.64h-.55a6.43,6.43,0,0,1-3.28-.88,3.42,3.42,0,0,1-1.64-2.84v-.44a3.49,3.49,0,0,1,1.64-2.62,5.81,5.81,0,0,1,3.28-.88h.55a17.25,17.25,0,0,1,2.73.22c0-.44,0-1.13-.11-2.08-.15-1.82-.22-3.2-.22-4.15v-.66h-2.29c-1.54-.07-3.1-.22-4.71-.44l-.33-2.73a7.36,7.36,0,0,1,1.54.22,40.69,40.69,0,0,0,4.37.33H392c-.07-1.9-.14-3.21-.22-3.94v-.22A3.07,3.07,0,0,0,391.2,47.81Zm-1.75,17.83h-.55c-1.09,0-1.79.18-2.08.55-.51.65-.29,1.31.66,2a4.09,4.09,0,0,0,4-.44,2.26,2.26,0,0,0,.76-1.53A7.19,7.19,0,0,0,389.45,65.64Z"/><path d="M409,47.26h.21l3.5.66a13.34,13.34,0,0,1-.32,1.42v15.1a5,5,0,0,0,.65,3,3,3,0,0,0,2.3,1.09H416a4.09,4.09,0,0,0,1.85-.43,11.23,11.23,0,0,0,2.52-1.21,12.06,12.06,0,0,0,3.06-2.73h.22L425,66.62c.15.15.15.22,0,.22a13.42,13.42,0,0,1-4.59,3.28,9.74,9.74,0,0,1-4.81,1.21h-.33a6.37,6.37,0,0,1-3.61-1.1,4.3,4.3,0,0,1-2.19-3.17c-.07-1-.11-2.08-.11-3.17V49.56a5.73,5.73,0,0,0-.22-1.31A6.75,6.75,0,0,1,409,47.26Z"/><path d="M433.63,52.51H434l9.52-2c4.15-.88,7.29-1.5,9.4-1.86,1.1-.22,2.19-.4,3.29-.55l.21,3.17h-.65c-3.36,0-5.87.91-7.55,2.74a10.36,10.36,0,0,0-2.84,7.32v.44a5.78,5.78,0,0,0,1.53,4.27q1.53,1.64,4.81,1.53h1.86v3.28H451.9A10.22,10.22,0,0,1,445,68.48a8.57,8.57,0,0,1-2.3-6.34V61.05q0-4.27,3.5-8.54c-.95.22-2.4.59-4.37,1.1-.95.22-1.68.4-2.19.55l-1,.32a12.7,12.7,0,0,0-3.29,1.21Z"/><path d="M460.87,50.76l.11-.1c1.31.21,2.55.47,3.72.76a2.74,2.74,0,0,1-.22.77,4.52,4.52,0,0,0-.22,1.2,7,7,0,0,0-.11,1.31v.77a20.5,20.5,0,0,0,.44,4.59,38.24,38.24,0,0,0,1.53,4.38c.51,1.16,1.13,1.75,1.86,1.75a2.6,2.6,0,0,0,1.64-.77,9.26,9.26,0,0,0,1.75-2.08h.22l1.31,2q.23.1,0,.33a4.79,4.79,0,0,1-1.53,2,5.19,5.19,0,0,1-3.61,1.53q-2.62,0-4.16-3.39a22.48,22.48,0,0,1-.76-2.19,6.73,6.73,0,0,0-.44-1.42,56.21,56.21,0,0,1-1-6.13,9.69,9.69,0,0,0-.11-1.09,8.53,8.53,0,0,0-.22-1c0-.37,0-.91-.11-1.64A8.63,8.63,0,0,0,460.87,50.76Zm16.3,2.85,2.51-.77h.22A38.63,38.63,0,0,1,484.17,60a7.2,7.2,0,0,1,1,2.41l-2.62,1.2h-.44a30.43,30.43,0,0,0-5-9.62Z"/><path d="M497.73,46.94H498l3.28.87v.33a2.61,2.61,0,0,0-1.1,1.75,11.66,11.66,0,0,0-.65,1.86,3.58,3.58,0,0,1-.22.66l3.61-.66a3.29,3.29,0,0,0,.76-.22l.22.11v2.84c-1.75.3-3.5.51-5.25.66a2.69,2.69,0,0,1-.11.55l-.11.22a63.35,63.35,0,0,1-5.79,15l-3-.88-.1-.21a89.37,89.37,0,0,0,6.34-14.55,17.05,17.05,0,0,1-2.19.11c-.95.07-1.68.11-2.19.11l-.21-.11-.44-2.63.11-.22c.29,0,.76,0,1.42.11a10.1,10.1,0,0,0,1.31.11h.88a18.8,18.8,0,0,0,2.07-.11,2.68,2.68,0,0,0,.22-.65,17.08,17.08,0,0,0,.88-4.38Zm14.76,20.12-.32,3.06a28.34,28.34,0,0,1-3.61.22h-1.1a22.94,22.94,0,0,1-4.81-.54,2,2,0,0,1-.44-.11c-.51,0-.84-.11-1-.33l-.11-2.52a5.9,5.9,0,0,0,1,.22,28.65,28.65,0,0,0,4.82.55h.54A23.2,23.2,0,0,0,512.49,67.06Zm-6.34-10.72h1c1.17,0,2.41,0,3.72.11l.11,3-.11.1a24.79,24.79,0,0,0-4.7-.65h-1.09a9,9,0,0,0-2.41.33l.44-2.74h1.42C505.24,56.38,505.78,56.34,506.15,56.34Z"/><path d="M542,58.75v.76a10,10,0,0,1-3,6.9,13.47,13.47,0,0,1-5.47,3.93c0,.15-.07.15-.22,0a10,10,0,0,0-2.51-1.64v-.22c5.25-2.47,7.91-5.65,8-9.51v-.55a7.11,7.11,0,0,0-2.4-5,8.79,8.79,0,0,0-4.6-2,60.88,60.88,0,0,1-2.4,8,50.76,50.76,0,0,1-3.39,7.1q-1.42,2.63-3.5,2.63-3.28-.11-5.47-3.72A7.69,7.69,0,0,1,516,61.7v-.54a10.09,10.09,0,0,1,.88-3.61,13,13,0,0,1,2-3.29,12.43,12.43,0,0,1,5.9-4.48,15.65,15.65,0,0,1,5-1.09H531a11,11,0,0,1,8,3A10.38,10.38,0,0,1,542,58.75ZM519,60.61v.55A6.05,6.05,0,0,0,520,64.55a2.51,2.51,0,0,0,2.08,1.31A2.79,2.79,0,0,0,524,64.55a21.49,21.49,0,0,0,1.09-2c.15-.37.26-.62.33-.77a36.69,36.69,0,0,0,3.72-10.39A17.94,17.94,0,0,0,525,52.51a14.9,14.9,0,0,0-4.48,4.05A8.56,8.56,0,0,0,519,60.61Z"/><path d="M543.45,52.51h.65a15,15,0,0,0,3.28-.54l1.32-.33c1.38-.36,2.73-.69,4-1q3.62-.88,7.11-1.54a21.79,21.79,0,0,0,4.38-1,3.3,3.3,0,0,0,.33,1.2,3.75,3.75,0,0,1,.22,1.64l-1.54.33a7.6,7.6,0,0,0-3.71,1.2,8.68,8.68,0,0,0-3.18,4.71,15.72,15.72,0,0,0-.65,3.83v.65A5.77,5.77,0,0,0,557.34,66a6.38,6.38,0,0,0,4.26,1.64h.55a7,7,0,0,0,1.75-.22v3.28H563a12.8,12.8,0,0,1-6.9-1.86,8.64,8.64,0,0,1-3.28-6.89v-.55q0-4.26,3.39-9c-2.91.72-5.83,1.53-8.75,2.4a3.29,3.29,0,0,1-.76.22,3,3,0,0,0-1.53.88l-1.75-3.07Zm20.12,1.54,1.53-1.43c.22.22.51.55.88,1a17.62,17.62,0,0,1,1.75,2l-1.53,1.31A17.33,17.33,0,0,0,563.57,54.05Zm3-2.19,1.53-1.31a18.7,18.7,0,0,1,2.51,2.84l-1.64,1.31A22.66,22.66,0,0,0,566.53,51.86Z"/><path d="M584.46,45.73l3.83.66a10.13,10.13,0,0,0-.55,3.39v1h9v3.18a43.94,43.94,0,0,0-8.2-.55h-.77v3.39l.11.11a6.08,6.08,0,0,1,1,3.72v1.86a13.59,13.59,0,0,1-1.1,4.59,17.31,17.31,0,0,1-2.4,3.61c-.66.66-1.35,1.31-2.08,2H583a13.79,13.79,0,0,0-3.17-1.53v-.22a10.9,10.9,0,0,0,5.8-5.58,4.43,4.43,0,0,1-4.27,0,5.16,5.16,0,0,1-2.19-4.37v-.55q.56-4.48,4.6-5h1.31v-2h-1.2a41.4,41.4,0,0,0-9.3,1.09l-.22-.11-1.09-3.17.11-.22c.21,0,.61,0,1.2.11a10.1,10.1,0,0,0,1.31.11h1.31c.29,0,.92,0,1.86-.11q3.39-.11,6-.22c-.15-1.67-.33-3.13-.55-4.37A5,5,0,0,1,584.46,45.73Zm.66,14.66V59c-.07-.73-.37-1.13-.88-1.21a1.49,1.49,0,0,0-1.09.44,2.8,2.8,0,0,0-1,2.19v.66c.07,1.46.54,2.22,1.42,2.29.51,0,.94-.4,1.31-1.2A3.43,3.43,0,0,0,585.12,60.39Z"/><path d="M606.56,48.14l3.72.87c-.08.22-.19.52-.33.88a4.16,4.16,0,0,0-.33.55,7.29,7.29,0,0,0-.22,1.2,1.9,1.9,0,0,0-.11.55,11.94,11.94,0,0,0-.22,1.31,5,5,0,0,0-.22,1.09,3,3,0,0,1,.88-.11,7.51,7.51,0,0,1,.87-.11,2.6,2.6,0,0,0,.66-.11h1.09a5.07,5.07,0,0,1,2.08.44,2.7,2.7,0,0,1,1.1,2.19V58.2a28.72,28.72,0,0,1-1,6.89q-.76,3.72-2.95,4.27a8,8,0,0,1-3.39.76h-.77q-.33-.77-.87-1.86a7.34,7.34,0,0,1-.44-1l.11-.22a5,5,0,0,1,.76.11,7.36,7.36,0,0,0,1.54.22H609a2.46,2.46,0,0,0,2.3-1.42,17.66,17.66,0,0,0,1-3,26.13,26.13,0,0,0,.66-5,1.26,1.26,0,0,0-1.53-1.31c-.37.07-.91.15-1.64.22l-1.64.33a35.83,35.83,0,0,1-6,12.14l-.22.11a10.11,10.11,0,0,0-1.75-.77,5,5,0,0,0-.87-.44v-.21a28.29,28.29,0,0,0,3.94-5.58,26.47,26.47,0,0,0,1.64-3.72,7.53,7.53,0,0,0,.43-1,30.81,30.81,0,0,0-3.28,1.1,1.59,1.59,0,0,1-1,.33l-1.2-3.07.21-.21a3,3,0,0,1,.66.1,1.62,1.62,0,0,0,.88,0c.5-.07,1.27-.21,2.29-.43s1.64-.37,2.08-.44a2.17,2.17,0,0,1,.11-.66,24.37,24.37,0,0,0,.55-5.14Zm16.73,10.61-.11.22-2.3,1.31a35.46,35.46,0,0,0-5.35-7.44v-.33l2.07-1.2A31.34,31.34,0,0,1,623.29,58.75Zm.77-7.33v.22l-1.43,1.2h-.21A8.45,8.45,0,0,0,619.79,50v-.22l1.31-1.09h.22A23.72,23.72,0,0,1,624.06,51.42Zm-1.53-3.72v-.22l1.31-1.09h.22a1.26,1.26,0,0,0,.32.22c.51.44,1.1,1,1.75,1.64a1.79,1.79,0,0,1,.66,1.09l-1.31,1.21h-.22A11.36,11.36,0,0,0,622.53,47.7Z"/><path d="M639.15,69.25,637,71.44,631.06,65l2.07-1.86Z"/><path d="M196.18,116.66v-5.25h-3.5v5.68h-2.62V103A24.29,24.29,0,0,0,188,105.5a2.21,2.21,0,0,0-.44.55l2.41,2.4L188.31,110c-.51-.65-1.35-1.6-2.52-2.84a1.17,1.17,0,0,0-.22-.33v10.28h-2.51V106.48c-.88,1-1.79,1.86-2.74,2.74q-.1-.56-.33-1.53c-.21-.73-.36-1.24-.43-1.53a20.45,20.45,0,0,0,5.79-7.55h-5.14V96.09h8v2.3a29.87,29.87,0,0,1-2.63,4.7v1.1l.66.54c.8-1,1.57-2,2.3-3l1.53,1.2V99.26h6.12v-2.4H189.4V94.45h6.78V91.06h2.74v3.39H202c-.15-.22-.4-.58-.77-1.09a16.38,16.38,0,0,1-.87-1.42l2.19-.66c.21.29.54.77,1,1.42s.66,1.06.87,1.42l-.87.33h2.73v2.41h-7.32v2.4h6.23V114c.07,1.9-.8,2.84-2.62,2.84H199.9a2,2,0,0,0-.11-.43,10.31,10.31,0,0,0-.33-2c.73.07,1.35.11,1.86.11.88,0,1.28-.33,1.21-1v-2.18h-3.61v5.25ZM184.59,95.87a41.39,41.39,0,0,0-2.19-3.82l2.3-1.21A30.82,30.82,0,0,1,187,94.56Zm8.09,5.8v2.74h3.5v-2.74Zm0,4.81v2.74h3.5v-2.74Zm9.85-4.81h-3.61v2.74h3.61Zm-3.61,4.81v2.74h3.61v-2.74Z"/><path d="M210.4,117.09V103.2c-.66,1.31-1.31,2.52-2,3.61-.29-1.31-.55-2.55-.76-3.72a49.1,49.1,0,0,0,4.48-12l2.73.44A32.44,32.44,0,0,1,213,97.41v19.68Zm4.48-4.26V95.44h2.52v17.39Zm3.61,4.37a16.79,16.79,0,0,0-.87-1.75,1.29,1.29,0,0,0-.22-.54,38.44,38.44,0,0,0,15.09-6l1.54,2A46.28,46.28,0,0,1,218.49,117.2Zm15-13.23a34.51,34.51,0,0,1-7.22-2.52,44.17,44.17,0,0,1-7.33,3c-.51-1-.91-1.79-1.2-2.3A32.29,32.29,0,0,0,224,99.92a25.79,25.79,0,0,1-2.51-2.41l-2.08,2.3a5.46,5.46,0,0,1-.55-.65c-.44-.51-.8-1-1.09-1.32a20.6,20.6,0,0,0,4.81-6.78l2.84.33c-.29.66-.62,1.31-1,2h8.2v2.3a18.71,18.71,0,0,1-4,4.26,24.09,24.09,0,0,0,5.79,1.53A22.3,22.3,0,0,0,233.48,104ZM220,108.34a20.18,20.18,0,0,0-1.21-2.08,29.93,29.93,0,0,0,9-3.82l1.53,1.64A55.18,55.18,0,0,1,220,108.34Zm0,4.38c-.52-1-.92-1.75-1.21-2.19a42,42,0,0,0,11.71-5.14l1.42,1.75A51.44,51.44,0,0,1,220,112.72Zm9.51-17.06h-6.67a21.9,21.9,0,0,0,3.28,3.06A15.56,15.56,0,0,0,229.54,95.66Z"/><path d="M235.78,103.75v-2.41h4a4.15,4.15,0,0,0-.33-.54c-.8-1.24-1.46-2.19-2-2.85l2.29-1.2q.23.33.66.87a21.7,21.7,0,0,1,1.75,2.52l-2.19,1.2H244q.44-.77.33-.54c.94-1.75,1.64-3.1,2.07-4l2.52,1c-.66,1.17-1.35,2.37-2.08,3.61h3.94v2.41Zm.76-7.11V94.23h5.69a16.64,16.64,0,0,0-.88-2.18l-.32-.66L244,91c.29.66.65,1.57,1.09,2.74a3.73,3.73,0,0,0,.22.54h4.81v2.41Zm.77,20.34V106.26h12v10.61H246.6v-1.64H240V117Zm2.73-8.42v4.49h6.56v-4.49ZM252,117.2V92.59h9.74v2.63l-2.63,7.22q3.29,3.06,3.17,6.67c.08,3.06-1.2,4.67-3.82,4.81a23.42,23.42,0,0,1-2.74.11c-.15-1-.33-2-.55-3,.81.07,1.57.11,2.3.11,1.39,0,2.08-.81,2.08-2.41,0-1.9-1.06-3.9-3.17-6l2.51-7.65h-4.26V117.2Z"/><path d="M266.07,117.31c-.73-1-1.35-1.86-1.86-2.51q6.68-2.42,7.33-7.77a9.84,9.84,0,0,0,.22-2.19H267.6v-2.4c-.73.65-1.53,1.31-2.4,2a5.23,5.23,0,0,0-.44-.66,23.43,23.43,0,0,0-1.2-2.19,26.24,26.24,0,0,0,9.07-10.28l2.74,1.2a31,31,0,0,1-7.33,9.63h17.61c-.07,1-.15,2.73-.22,5.14-.15,2.11-.22,3.61-.22,4.48q-.1,4.92-5.25,4.82H275.7a18.27,18.27,0,0,0-.55-2.74h2c1.09.07,1.89.11,2.41.11q2.63.1,2.73-2.73c.15-2.34.22-4.45.22-6.35h-7.66a9.7,9.7,0,0,1-.11,1.21,9.91,9.91,0,0,1-.22,1.31Q274.05,113.92,266.07,117.31Zm22.53-13a24.48,24.48,0,0,1-10-12.25l2.63-1.1a19.41,19.41,0,0,0,9.07,10.39C290.06,101.93,289.48,102.91,288.6,104.3Z"/><path d="M298.56,93.14l3.72.87c-.08.22-.19.52-.33.88a4.16,4.16,0,0,0-.33.55,7.29,7.29,0,0,0-.22,1.2,1.9,1.9,0,0,0-.11.55,11.94,11.94,0,0,0-.22,1.31,5,5,0,0,0-.22,1.09,3,3,0,0,1,.88-.11,7.51,7.51,0,0,1,.87-.11,2.6,2.6,0,0,0,.66-.11h1.09a5.07,5.07,0,0,1,2.08.44,2.7,2.7,0,0,1,1.1,2.19v1.31a28.72,28.72,0,0,1-1,6.89q-.77,3.72-3,4.27a8,8,0,0,1-3.39.76h-.77q-.33-.77-.87-1.86a7.34,7.34,0,0,1-.44-1l.11-.22a5,5,0,0,1,.76.11,7.36,7.36,0,0,0,1.54.22H301a2.46,2.46,0,0,0,2.3-1.42,17.66,17.66,0,0,0,1-3,26.13,26.13,0,0,0,.66-5,1.26,1.26,0,0,0-1.53-1.31c-.37.07-.91.15-1.64.22l-1.64.33a35.83,35.83,0,0,1-6,12.14l-.22.11a10.11,10.11,0,0,0-1.75-.77,5,5,0,0,0-.87-.44v-.21a28.29,28.29,0,0,0,3.94-5.58,26.47,26.47,0,0,0,1.64-3.72,7.53,7.53,0,0,0,.43-1,30.81,30.81,0,0,0-3.28,1.1,1.59,1.59,0,0,1-1,.33l-1.2-3.07.21-.21a3,3,0,0,1,.66.1,1.62,1.62,0,0,0,.88,0c.5-.07,1.27-.21,2.29-.43s1.64-.37,2.08-.44a2.17,2.17,0,0,1,.11-.66,24.37,24.37,0,0,0,.55-5.14Zm16.73,10.61-.11.22-2.3,1.31a35.46,35.46,0,0,0-5.35-7.44v-.33l2.07-1.2A31.34,31.34,0,0,1,315.29,103.75Zm.77-7.33v.22l-1.43,1.2h-.21A8.45,8.45,0,0,0,311.79,95v-.22l1.31-1.09h.22A23.72,23.72,0,0,1,316.06,96.42Zm-1.53-3.72v-.22l1.31-1.09h.22a1.26,1.26,0,0,0,.32.22c.51.44,1.1,1,1.75,1.64a1.79,1.79,0,0,1,.66,1.09l-1.31,1.21h-.22A11.36,11.36,0,0,0,314.53,92.7Z"/><path d="M321.63,101.56a10,10,0,0,0-1-1.09l-1.09-1.1a23.59,23.59,0,0,0,6.12-8.53l3.06.33-1,2h17.39v2.41h-18.7A33.63,33.63,0,0,1,321.63,101.56ZM322.4,117l-.66-1c-.43-.59-.76-1.06-1-1.42a31.65,31.65,0,0,0,7.11-3.72q-3-2.19-5.8-3.94l1.53-2c.81.51,2.26,1.46,4.38,2.85.95.58,1.68,1,2.19,1.42a58.25,58.25,0,0,0,4.92-4.6l2,1.64a45.39,45.39,0,0,1-4.6,4.6l5.8,3.72c-.73.87-1.35,1.64-1.86,2.29a69.58,69.58,0,0,0-6.23-4.37A51.56,51.56,0,0,1,322.4,117Zm20.89.11a3.14,3.14,0,0,1-3.17-2.62q-1-2.19-.88-8.1v-1.86H321.42v-2.4h20.67v4.26c-.08,3.94.14,6.39.65,7.33.15.37.37.55.66.55s.58-.29.66-.88a32.7,32.7,0,0,0,.32-4.15c.66.22,1.35.47,2.08.76-.14,1.53-.33,3-.54,4.49C345.55,116.22,344.68,117.09,343.29,117.09ZM325.46,99.92v-2.3H343.4v2.3Z"/><path d="M351.17,93.14l3.82,1.2a5.79,5.79,0,0,1-.54,1.42c-.15.37-.26.66-.33.88a22,22,0,0,0-1.75,8.64v.88a10.3,10.3,0,0,0,1.09,5h.11c.15-.29.33-.7.55-1.21a8.34,8.34,0,0,0,.55-1.09l1.2.22q-.11.54-.33,1.53a18.3,18.3,0,0,0-.55,3.5v.66l-2.62.54a10.07,10.07,0,0,1-2-4.26,23.3,23.3,0,0,1-.55-5.58v-1.2a28.39,28.39,0,0,1,.88-7,15.89,15.89,0,0,0,.44-3.61ZM365,110.64h1a22.81,22.81,0,0,0,6.13-.88l.11,3a15.26,15.26,0,0,1-5,.76h-1.2c-3.43,0-6-.8-7.76-2.4a2.88,2.88,0,0,1-.88-1.32l2-1.2A7.45,7.45,0,0,0,365,110.64Zm.11-15.09h1.2a42.55,42.55,0,0,1,4.27.21v2.85c-.52,0-1.21,0-2.08-.11s-1.53-.11-2-.11h-1.2a21.86,21.86,0,0,0-3.07.33,17.56,17.56,0,0,1-2.84.33l-.22-3a20,20,0,0,0,2.52-.22A28,28,0,0,1,365.06,95.55Z"/><path d="M390.87,95.66V98.5a33.16,33.16,0,0,1-4.81,1.2,46.1,46.1,0,0,1-5.69,12.14H380l-2.51-1-.11-.22a37.46,37.46,0,0,0,5.68-10.72,28.23,28.23,0,0,1-3.61.22l-.32-3H380a21.31,21.31,0,0,0,2.41-.11,4.87,4.87,0,0,0,.87-.11H384a16.25,16.25,0,0,0,.76-4.71v-.65a10.38,10.38,0,0,0,1.64.44,10.75,10.75,0,0,1,1.54.43,4.31,4.31,0,0,1-.33,1.43,3.27,3.27,0,0,0-.22,1,4.87,4.87,0,0,1-.11.87,7.44,7.44,0,0,1-.22.88A23.64,23.64,0,0,0,390.87,95.66Zm.22,4.7h.22l2.51.55a8.37,8.37,0,0,1-.11,1.31c0,1,.07,2.44.22,4.48.07,1.24.11,2.19.11,2.85a24.25,24.25,0,0,1,5.8,2.51v.33l-1.1,2.41a1.94,1.94,0,0,1-1.09-.55c-.15-.15-.26-.22-.33-.22a23.7,23.7,0,0,0-3.28-1.42,4.69,4.69,0,0,1-.33,1.86,2.07,2.07,0,0,1-.54.76,1.43,1.43,0,0,1-.22.33,4.7,4.7,0,0,1-3.61,1.2h-.66a4.82,4.82,0,0,1-3.72-1.42,3.3,3.3,0,0,1-.76-3.17,3.86,3.86,0,0,1,1.53-2.08,8.36,8.36,0,0,1,3.94-1h.76a4.28,4.28,0,0,1,1,.11Q391.3,104.74,391.09,100.36Zm-1.64,11.15H389a2.51,2.51,0,0,0-2.19,1.1c-.29,1,.18,1.64,1.42,1.86h1c1.38-.08,2.11-1,2.19-2.63A6.21,6.21,0,0,0,389.45,111.51Zm9.62-8.75h-.22A27.52,27.52,0,0,0,394,98.39l1.53-2.08h.22q2,1.43,3.83,3.06a2.29,2.29,0,0,1,1,1.21Z"/><path d="M420.4,96.86H421a6.71,6.71,0,0,1,4.59,1.64,6.62,6.62,0,0,1,2,4.59v.55a6,6,0,0,1-1,3.28,10,10,0,0,1-3,2.84,13.32,13.32,0,0,1-6.56,2.3L415.26,110a16.1,16.1,0,0,0,6.56-2.07c2.19-1.32,3.28-2.88,3.28-4.71v-.44q-.44-3.17-4.48-3.71h-.44a10.74,10.74,0,0,0-3.39.54c-.87.29-1.75.62-2.62,1-.3.14-.7.33-1.21.54a34.19,34.19,0,0,0-3.17,1.75c-.07,0-.15.08-.22.22a.84.84,0,0,1-.76.22l-2.3-2.62c2-.51,4.05-1.1,6-1.75a2,2,0,0,0,.43-.11C416.1,97.44,418.58,96.79,420.4,96.86Z"/><path d="M433.63,97.51H434l9.52-2c4.15-.88,7.29-1.5,9.4-1.86,1.1-.22,2.19-.4,3.29-.55l.21,3.17h-.65c-3.36,0-5.87.91-7.55,2.74a10.36,10.36,0,0,0-2.84,7.32v.44a5.78,5.78,0,0,0,1.53,4.27q1.53,1.64,4.81,1.53h1.86v3.28H451.9a10.22,10.22,0,0,1-6.89-2.41,8.57,8.57,0,0,1-2.3-6.34v-1.09q0-4.27,3.5-8.54c-.95.22-2.4.59-4.37,1.1-.95.22-1.68.4-2.19.55l-1,.32a12.7,12.7,0,0,0-3.29,1.21Z"/><path d="M460.87,95.76l.11-.1c1.31.21,2.55.47,3.72.76a2.74,2.74,0,0,1-.22.77,4.52,4.52,0,0,0-.22,1.2,7,7,0,0,0-.11,1.31v.77a20.5,20.5,0,0,0,.44,4.59,38.24,38.24,0,0,0,1.53,4.38c.51,1.16,1.13,1.75,1.86,1.75a2.6,2.6,0,0,0,1.64-.77,9.26,9.26,0,0,0,1.75-2.08h.22l1.31,2q.23.1,0,.33a4.79,4.79,0,0,1-1.53,2,5.19,5.19,0,0,1-3.61,1.53q-2.62,0-4.16-3.39a22.48,22.48,0,0,1-.76-2.19,6.73,6.73,0,0,0-.44-1.42,56.21,56.21,0,0,1-1-6.13,9.69,9.69,0,0,0-.11-1.09,8.53,8.53,0,0,0-.22-1c0-.37,0-.91-.11-1.64A8.63,8.63,0,0,0,460.87,95.76Zm16.3,2.85,2.51-.77h.22a38.63,38.63,0,0,1,4.27,7.11,7.2,7.2,0,0,1,1,2.41l-2.62,1.2h-.44a30.43,30.43,0,0,0-5-9.62Z"/><path d="M497.73,91.94H498l3.28.87v.33a2.61,2.61,0,0,0-1.1,1.75,11.66,11.66,0,0,0-.65,1.86,3.58,3.58,0,0,1-.22.66l3.61-.66a3.29,3.29,0,0,0,.76-.22l.22.11v2.84c-1.75.3-3.5.51-5.25.66a2.69,2.69,0,0,1-.11.55l-.11.22a63.35,63.35,0,0,1-5.79,15l-3-.88-.1-.21a89.37,89.37,0,0,0,6.34-14.55,17.05,17.05,0,0,1-2.19.11c-.95.07-1.68.11-2.19.11l-.21-.11-.44-2.63.11-.22c.29,0,.76,0,1.42.11a10.1,10.1,0,0,0,1.31.11h.88a18.8,18.8,0,0,0,2.07-.11,2.68,2.68,0,0,0,.22-.65,17.08,17.08,0,0,0,.88-4.38Zm14.76,20.12-.32,3.06a28.34,28.34,0,0,1-3.61.22h-1.1a22.94,22.94,0,0,1-4.81-.54,2,2,0,0,1-.44-.11c-.51,0-.84-.11-1-.33l-.11-2.52a5.9,5.9,0,0,0,1,.22,28.65,28.65,0,0,0,4.82.55h.54A23.2,23.2,0,0,0,512.49,112.06Zm-6.34-10.72h1c1.17,0,2.41,0,3.72.11l.11,3-.11.1a24.79,24.79,0,0,0-4.7-.65h-1.09a9,9,0,0,0-2.41.33l.44-2.74h1.42C505.24,101.38,505.78,101.34,506.15,101.34Z"/><path d="M542,103.75v.76a10,10,0,0,1-3,6.9,13.47,13.47,0,0,1-5.47,3.93c0,.15-.07.15-.22,0a10,10,0,0,0-2.51-1.64v-.22c5.25-2.47,7.91-5.65,8-9.51v-.55a7.11,7.11,0,0,0-2.4-5,8.79,8.79,0,0,0-4.6-2,60.88,60.88,0,0,1-2.4,8,50.76,50.76,0,0,1-3.39,7.1q-1.42,2.63-3.5,2.63-3.28-.11-5.47-3.72a7.69,7.69,0,0,1-1.1-3.72v-.54a10.09,10.09,0,0,1,.88-3.61,13,13,0,0,1,2-3.29,12.43,12.43,0,0,1,5.9-4.48,15.65,15.65,0,0,1,5-1.09H531a11,11,0,0,1,8,3A10.38,10.38,0,0,1,542,103.75ZM519,105.61v.55a6.05,6.05,0,0,0,1.09,3.39,2.51,2.51,0,0,0,2.08,1.31,2.79,2.79,0,0,0,1.86-1.31,21.49,21.49,0,0,0,1.09-2c.15-.37.26-.62.33-.77a36.69,36.69,0,0,0,3.72-10.39A17.94,17.94,0,0,0,525,97.51a14.9,14.9,0,0,0-4.48,4A8.56,8.56,0,0,0,519,105.61Z"/><path d="M543.45,97.51h.65a15,15,0,0,0,3.28-.54l1.32-.33c1.38-.36,2.73-.69,4-1q3.62-.89,7.11-1.54a21.79,21.79,0,0,0,4.38-1,3.3,3.3,0,0,0,.33,1.2,3.75,3.75,0,0,1,.22,1.64l-1.54.33a7.6,7.6,0,0,0-3.71,1.2,8.68,8.68,0,0,0-3.18,4.71,15.72,15.72,0,0,0-.65,3.83v.65a5.77,5.77,0,0,0,1.64,4.27,6.38,6.38,0,0,0,4.26,1.64h.55a7,7,0,0,0,1.75-.22v3.28H563a12.8,12.8,0,0,1-6.9-1.86,8.64,8.64,0,0,1-3.28-6.89v-.55q0-4.26,3.39-9c-2.91.72-5.83,1.53-8.75,2.4a3.29,3.29,0,0,1-.76.22,3,3,0,0,0-1.53.88l-1.75-3.07Zm20.12,1.54,1.53-1.43c.22.22.51.55.88,1a17.62,17.62,0,0,1,1.75,2l-1.53,1.31A17.33,17.33,0,0,0,563.57,99.05Zm3-2.19,1.53-1.31a18.7,18.7,0,0,1,2.51,2.84l-1.64,1.31A22.66,22.66,0,0,0,566.53,96.86Z"/><path d="M583.15,114.25,581,116.44l-5.9-6.46,2.07-1.86Z"/><path d="M201,155.42c-.21-.29-.58-.8-1.09-1.53l-.22-.22v8.42H197v-14c-.81,1.24-1.64,2.48-2.52,3.72-.07-.44-.22-1.16-.44-2.19-.14-.65-.25-1.13-.32-1.42a41.05,41.05,0,0,0,5.46-12.14l2.85.88a59.93,59.93,0,0,1-2.3,6v10a26.94,26.94,0,0,0,8.31-9.74h-6.56v-2.62h8.1c-.3-.73-.81-1.86-1.54-3.39.08.14,0,0-.21-.55l2.84-.66a22,22,0,0,1,1,2c.44,1,.73,1.71.88,2.08l-1.64.55H220v2.62h-8.54a40.64,40.64,0,0,0,1.64,6.34q2.75-2.17,4.6-3.71l1.75,2.07q-2.19,1.75-5.25,3.83a19,19,0,0,0,6.12,6.78,13.87,13.87,0,0,0-2,2.3q-7-4.69-8.85-15.09a21.05,21.05,0,0,1-2.08,3.28,2.08,2.08,0,0,1-.22.33h.33v8.86a42.15,42.15,0,0,0,4-2.08q.22,1.63.33,2.73a23.52,23.52,0,0,0-3.06,1.42l-1.75.88a6.89,6.89,0,0,0-1.75,1.09l-1.64-2.29a3.37,3.37,0,0,0,1.09-2.63V152A28.61,28.61,0,0,1,201,155.42Z"/><path d="M226.92,162.09V155.2a20.46,20.46,0,0,1-4.38,5.47L222,159a3.81,3.81,0,0,1-.43-1,20.55,20.55,0,0,0,4.7-5.69h-3.5V143.5h4.16v-2.41H222.1v-2.4h4.82V136h2.51v2.74h4.38v2.4h-4.38v2.41h4v8.86h-4v2.3l1.31-1.21q1,.77,3.72,3.5l-1.86,1.75q-1.41-1.53-3.17-3.39v6.78Zm-2-16.4v4.48h2.18v-4.48Zm6.45,0h-2.19v4.48h2.19Zm3.72,16.62c-.51-.73-1.06-1.46-1.64-2.19a44.72,44.72,0,0,0,5.36-2.84l1.64,1.75c-.73.51-1.86,1.2-3.39,2.08C236.21,161.62,235.56,162,235.12,162.31Zm-.44-22.64v-2.3H248v2.3h-5.58l-.55,2.3h5.25v15H235.34V142h3.83l.43-2.3Zm3.17,4.49v2.18h6.78v-2.18Zm0,4.15v2.19h6.78v-2.19Zm0,4.16v2.19h6.78v-2.19Zm9.08,9.73c-.8-.58-2-1.35-3.5-2.29a9.47,9.47,0,0,0-1.53-.88l1.53-1.75q3,1.53,5,2.84Z"/><path d="M255,137.26h.21l3.5.66a13.34,13.34,0,0,1-.32,1.42v15.1a5,5,0,0,0,.65,2.95,3,3,0,0,0,2.3,1.09H262a4.09,4.09,0,0,0,1.85-.43,11.23,11.23,0,0,0,2.52-1.21,12.06,12.06,0,0,0,3.06-2.73h.22l1.31,2.51c.15.15.15.22,0,.22a13.42,13.42,0,0,1-4.59,3.28,9.74,9.74,0,0,1-4.81,1.21h-.33a6.37,6.37,0,0,1-3.61-1.1,4.3,4.3,0,0,1-2.19-3.17c-.07-1-.11-2.08-.11-3.17V139.56a5.73,5.73,0,0,0-.22-1.31A6.75,6.75,0,0,1,255,137.26Z"/><path d="M279.63,142.51H280l9.52-2c4.15-.88,7.29-1.5,9.4-1.86,1.1-.22,2.19-.4,3.29-.55l.21,3.17h-.65c-3.36,0-5.87.91-7.55,2.74a10.36,10.36,0,0,0-2.84,7.32v.44a5.78,5.78,0,0,0,1.53,4.27q1.53,1.63,4.81,1.53h1.86v3.28H297.9a10.22,10.22,0,0,1-6.89-2.41,8.57,8.57,0,0,1-2.3-6.34v-1.09q0-4.28,3.5-8.54c-.95.22-2.4.59-4.37,1.1-.95.22-1.68.4-2.19.55l-1,.32a12.7,12.7,0,0,0-3.29,1.21Z"/><path d="M306,155.64v-.44a8.52,8.52,0,0,1,1.1-3.5,8.93,8.93,0,0,1,2-2.29,9.64,9.64,0,0,1,6.23-2.3h.22a4.39,4.39,0,0,0,.77-1.31q1.31-2.31,2.73-4.6l-.22-.22a10.69,10.69,0,0,0-5.25,1.86l-.55-1.09c-.21-.44-.65-1.2-1.31-2.3l.11-.11h1.31a16.68,16.68,0,0,0,3.07-.43,3.83,3.83,0,0,1,.76-.11,17.84,17.84,0,0,0,3.39-1h.22l2.84,2.74c.08.29-.1.54-.54.76l-.11.11a12.19,12.19,0,0,0-1.86,1.53c-.22.29-.51.73-.88,1.31a6.63,6.63,0,0,0-.43.66,5.23,5.23,0,0,1-.44.66,19.15,19.15,0,0,1-1,1.86c.81.14,1.61.32,2.41.54a22.33,22.33,0,0,1,2.95,1.21l1.43.65a24.79,24.79,0,0,0,.65-4.7v-.88h.22l2.95.88v.22a20,20,0,0,0-1.31,4.48.31.31,0,0,1-.11.22,2.53,2.53,0,0,1-.33,1,29.17,29.17,0,0,1,5,3.5l-1.32,2.51h-.22q-1.86-1.63-3.82-3.17a1.33,1.33,0,0,0-.55-.33c-.44.95-.91,1.86-1.42,2.74a15.46,15.46,0,0,1-5.36,5h-.22a11.06,11.06,0,0,0-2.3-1.75v-.11a15.45,15.45,0,0,0,5.14-3.72,9.47,9.47,0,0,0,2.08-3.39.1.1,0,0,0-.11-.11,21.93,21.93,0,0,0-7-2.63c-.36.73-.91,1.75-1.64,3.07-.51.87-.87,1.53-1.09,2q-2.62,4.59-5.58,4A3.24,3.24,0,0,1,306,155.64Zm3.39-3.17a5.29,5.29,0,0,1-.32.54,3,3,0,0,0-.66,1.1c-.29,1.31,0,2,1,2.08a2.2,2.2,0,0,0,1.32-.66.29.29,0,0,1,.11-.22,7,7,0,0,0,1.09-1.42,30.36,30.36,0,0,0,2.3-4.38A7.94,7.94,0,0,0,309.38,152.47Z"/><path d="M343.73,136.94H344l3.28.87v.33a2.61,2.61,0,0,0-1.1,1.75,11.66,11.66,0,0,0-.65,1.86,3.58,3.58,0,0,1-.22.66l3.61-.66a3.29,3.29,0,0,0,.76-.22l.22.11v2.84c-1.75.3-3.5.51-5.25.66a2.69,2.69,0,0,1-.11.55l-.11.22a63.35,63.35,0,0,1-5.79,15l-3-.88-.1-.21a89.37,89.37,0,0,0,6.34-14.55,17.05,17.05,0,0,1-2.19.11c-.95.07-1.68.11-2.19.11l-.21-.11-.44-2.63.11-.22c.29,0,.76,0,1.42.11a10.1,10.1,0,0,0,1.31.11h.88a18.8,18.8,0,0,0,2.07-.11,2.68,2.68,0,0,0,.22-.65,17.08,17.08,0,0,0,.88-4.38Zm14.76,20.12-.32,3.06a28.34,28.34,0,0,1-3.61.22h-1.1a22.94,22.94,0,0,1-4.81-.54,2,2,0,0,1-.44-.11c-.51,0-.84-.11-1-.33l-.11-2.52a5.9,5.9,0,0,0,1,.22,28.65,28.65,0,0,0,4.82.55h.54A23.2,23.2,0,0,0,358.49,157.06Zm-6.34-10.72h1c1.17,0,2.41,0,3.72.11l.11,3-.11.1a24.79,24.79,0,0,0-4.7-.65h-1.09a9,9,0,0,0-2.41.33l.44-2.74h1.42C351.24,146.38,351.78,146.34,352.15,146.34Z"/><path d="M381.24,141.64l2.41,2.73v.22A40,40,0,0,0,373,149.08a13.2,13.2,0,0,0-3.39,3.28,3.8,3.8,0,0,0-.66,1.86v.44a3.4,3.4,0,0,0,2.08,3,8.5,8.5,0,0,0,3.72.65h.77a23.11,23.11,0,0,0,6.34-.87l.22,3.28c-1.9.15-3.72.22-5.47.22H375a10.06,10.06,0,0,1-5.8-1.2,5.44,5.44,0,0,1-2.84-4.93v-.54c.07-2.48,1.57-4.74,4.48-6.78a1.06,1.06,0,0,1,.55-.44,43.79,43.79,0,0,0-3.5-9.19l3-.55a62.6,62.6,0,0,1,3.28,8.21l3.94-2A12.89,12.89,0,0,0,381.24,141.64Z"/><path d="M402.13,155.86h2.3a35,35,0,0,0,8.1-1v3.5a45.21,45.21,0,0,1-8.43.66h-1.64a12.39,12.39,0,0,1-5.14-.87,13.3,13.3,0,0,1-3.83-2.85V155l1.86-1.64c.08-.14.11-.14.11,0a8.66,8.66,0,0,0,3.17,2.08A10.22,10.22,0,0,0,402.13,155.86Zm.55-15.31h.88a25.7,25.7,0,0,0,5.14-.77c-.08,0,0,0,.33-.11v3.17c-1.54.15-3,.22-4.49.22H402a43.21,43.21,0,0,1-4.49-.44l-.22-.11-.65-3.06.11-.11a5.41,5.41,0,0,0,.87.22A19,19,0,0,0,402.68,140.55Z"/><path d="M423.79,139.56h.66a19.59,19.59,0,0,0,3.5-.44c-1,.22-.92.22.33,0a12.72,12.72,0,0,0,4.92-1.2,1,1,0,0,0,.43-.22,1.12,1.12,0,0,1,.55-.22h.33l2.41,1.86v.33a8.08,8.08,0,0,0-2.3,2.41,4,4,0,0,1-.55.76c-1.31,1.61-2.7,3.25-4.15,4.92l1.2-.32a12.28,12.28,0,0,1,3.17-.55h.44a10.19,10.19,0,0,1,4.92,1.31,6,6,0,0,1,2.73,4.92v.44a7.15,7.15,0,0,1-3.6,6.24,12.7,12.7,0,0,1-6.57,2l-1.2-2.62h.44a11,11,0,0,0,4.7-.88,5,5,0,0,0,3.06-4.37v-.44a3.93,3.93,0,0,0-1.31-2.84,4.3,4.3,0,0,0-3.17-1.1h-.55a11.87,11.87,0,0,0-6.78,2.19,34.44,34.44,0,0,0-5.14,5.14l-2.63-2.29a69.12,69.12,0,0,0,5.15-4.93l1.2-1.2a29.74,29.74,0,0,0,5.69-7.44c-.51.15-1.24.33-2.19.55-1.39.37-2.41.66-3.06.88a1.12,1.12,0,0,0-.44.21l-.44.22-1.86-3.06Z"/><path d="M457.15,159.25,455,161.44l-5.9-6.46,2.07-1.86Z"/><path d="M483.73,136.94H484l3.28.87v.33a2.61,2.61,0,0,0-1.1,1.75,11.66,11.66,0,0,0-.65,1.86,3.58,3.58,0,0,1-.22.66l3.61-.66a3.29,3.29,0,0,0,.76-.22l.22.11v2.84c-1.75.3-3.5.51-5.25.66a2.69,2.69,0,0,1-.11.55l-.11.22a63.35,63.35,0,0,1-5.79,15l-3-.88-.1-.21a89.37,89.37,0,0,0,6.34-14.55,17.05,17.05,0,0,1-2.19.11c-.95.07-1.68.11-2.19.11l-.21-.11-.44-2.63.11-.22c.29,0,.76,0,1.42.11a10.1,10.1,0,0,0,1.31.11h.88a18.8,18.8,0,0,0,2.07-.11,2.68,2.68,0,0,0,.22-.65,17.08,17.08,0,0,0,.88-4.38Zm14.76,20.12-.32,3.06a28.34,28.34,0,0,1-3.61.22h-1.1a22.94,22.94,0,0,1-4.81-.54,2,2,0,0,1-.44-.11c-.51,0-.84-.11-1-.33l-.11-2.52a5.9,5.9,0,0,0,1,.22,28.65,28.65,0,0,0,4.82.55h.54A23.2,23.2,0,0,0,498.49,157.06Zm-6.34-10.72h1c1.17,0,2.41,0,3.72.11l.11,3-.11.1a24.79,24.79,0,0,0-4.7-.65h-1.09a9,9,0,0,0-2.41.33l.44-2.74h1.42C491.24,146.38,491.78,146.34,492.15,146.34Z"/><path d="M514.35,137.05l3.39.32.11.11a4.82,4.82,0,0,0-.43.88,1.46,1.46,0,0,1-.22.44v.43c-.08.59-.15,1.24-.22,2,.8-.07,1.93-.22,3.39-.44a12.24,12.24,0,0,0,1.42-.21l-.22,2.51a28,28,0,0,1-4.59.55,10.17,10.17,0,0,1,.11,1.75c.07.73.11,1.31.11,1.75h.22a21.81,21.81,0,0,0,4.81-.77l-.44,2.52a18.14,18.14,0,0,1-4.37.76c.07,1.68.18,3.43.32,5.25a19.49,19.49,0,0,1,6.13,3.39l-1.31,2a17.86,17.86,0,0,0-4.71-2.51,3.51,3.51,0,0,1-2.18,3.17,7.18,7.18,0,0,1-3.39.66h-1a5.48,5.48,0,0,1-4.05-1.43,3.05,3.05,0,0,1-.87-3.61,4.45,4.45,0,0,1,2.08-1.75,11.3,11.3,0,0,1,3.72-.65h1.09a8.91,8.91,0,0,1,1.64.22c-.44-.15-.37-.15.22,0a28.36,28.36,0,0,0-.22-3c-.07-.65-.11-1.16-.11-1.53h-2.3a34.51,34.51,0,0,1-3.93-.22l-.22-.11-.55-2.4v-.22c.29.07.66.15,1.09.22a20,20,0,0,0,3.07.33h2.73c0-1.1,0-2.37-.11-3.83h-.65c-1.9,0-3.72-.07-5.47-.22l-.22-.11-.66-2.52a16.56,16.56,0,0,1,2.19.22,25.06,25.06,0,0,0,2.73.22h2.08V140A23.57,23.57,0,0,0,514.35,137.05ZM512,156.19h-.66c-1.68.14-2.55.76-2.62,1.86.07.43.43.76,1.09,1a13.82,13.82,0,0,0,1.64.11h.66a4.66,4.66,0,0,0,2.4-.44,2.2,2.2,0,0,0,.77-1.75v-.44a9,9,0,0,1-1.1-.1A17,17,0,0,0,512,156.19Z"/><path d="M539.73,136.94H540l3.28.87v.33a2.61,2.61,0,0,0-1.1,1.75,11.66,11.66,0,0,0-.65,1.86,3.58,3.58,0,0,1-.22.66l3.61-.66a3.29,3.29,0,0,0,.76-.22l.22.11v2.84c-1.75.3-3.5.51-5.25.66a2.69,2.69,0,0,1-.11.55c.08-.15,0-.08-.11.22a63.35,63.35,0,0,1-5.79,15l-3-.88-.1-.21a89.37,89.37,0,0,0,6.34-14.55,17.05,17.05,0,0,1-2.19.11c-.95.07-1.68.11-2.19.11l-.21-.11-.44-2.63.11-.22c.29,0,.76,0,1.42.11a10.1,10.1,0,0,0,1.31.11h.88a18.8,18.8,0,0,0,2.07-.11,2.68,2.68,0,0,0,.22-.65,17.08,17.08,0,0,0,.88-4.38Zm14.76,20.12-.32,3.06a28.34,28.34,0,0,1-3.61.22h-1.1a22.94,22.94,0,0,1-4.81-.54,2,2,0,0,1-.44-.11c-.51,0-.84-.11-1-.33l-.11-2.52a5.9,5.9,0,0,0,1,.22,28.65,28.65,0,0,0,4.82.55h.54A23.2,23.2,0,0,0,554.49,157.06Zm-6.34-10.72h1c1.17,0,2.41,0,3.72.11l.11,3-.11.1a24.79,24.79,0,0,0-4.7-.65h-1.09a9,9,0,0,0-2.41.33l.44-2.74h1.42C547.24,146.38,547.78,146.34,548.15,146.34Z"/><path d="M570.35,137.05l3.39.32.11.11a4.82,4.82,0,0,0-.43.88,1.46,1.46,0,0,1-.22.44v.43c-.08.59-.15,1.24-.22,2,.8-.07,1.93-.22,3.39-.44a12.24,12.24,0,0,0,1.42-.21l-.22,2.51a28,28,0,0,1-4.59.55,10.17,10.17,0,0,1,.11,1.75c.07.73.11,1.31.11,1.75h.22a21.81,21.81,0,0,0,4.81-.77l-.44,2.52a18.14,18.14,0,0,1-4.37.76c.07,1.68.18,3.43.32,5.25a19.49,19.49,0,0,1,6.13,3.39l-1.31,2a17.86,17.86,0,0,0-4.71-2.51,3.51,3.51,0,0,1-2.18,3.17,7.18,7.18,0,0,1-3.39.66h-1a5.48,5.48,0,0,1-4-1.43,3.05,3.05,0,0,1-.87-3.61,4.45,4.45,0,0,1,2.08-1.75,11.3,11.3,0,0,1,3.72-.65h1.09a8.91,8.91,0,0,1,1.64.22c-.44-.15-.37-.15.22,0a28.36,28.36,0,0,0-.22-3c-.07-.65-.11-1.16-.11-1.53h-2.3a34.51,34.51,0,0,1-3.93-.22l-.22-.11-.55-2.4v-.22c.29.07.66.15,1.09.22a20,20,0,0,0,3.07.33h2.73c0-1.1,0-2.37-.11-3.83h-.65c-1.9,0-3.72-.07-5.47-.22l-.22-.11-.66-2.52a16.56,16.56,0,0,1,2.19.22,25.06,25.06,0,0,0,2.73.22h2.08V140A23.57,23.57,0,0,0,570.35,137.05ZM568,156.19h-.66c-1.68.14-2.55.76-2.62,1.86.07.43.43.76,1.09,1a13.82,13.82,0,0,0,1.64.11h.66a4.66,4.66,0,0,0,2.4-.44,2.2,2.2,0,0,0,.77-1.75v-.44a9,9,0,0,1-1.1-.1A17,17,0,0,0,568,156.19Z"/><path d="M157.35,184.67l2.52,1.64a.89.89,0,0,1,.11.55,4.65,4.65,0,0,1-1,.76,1.67,1.67,0,0,0-.54.77,1.43,1.43,0,0,1-.22.33,47.76,47.76,0,0,1-2.95,4.7,10.62,10.62,0,0,0-.66,1c1.16.94,2.3,1.93,3.39,3a51.59,51.59,0,0,1,4.81,5v.22a2.2,2.2,0,0,0-.54.44,8.43,8.43,0,0,0-1.86,1.75h-.22a27.51,27.51,0,0,1-2.74-3.07c-2-2.26-3.61-3.93-4.7-5a11.2,11.2,0,0,0-1.53,1.64,32.87,32.87,0,0,1-9.3,6.24c0,.14-.07.14-.22,0l-2.51-1.86v-.11q11-4.92,14.76-13.13a4.44,4.44,0,0,0,.44-1.42H148c-.51,0-1.32,0-2.41.11s-1.93.11-2.51.11v-3.39q3.06.23,6.34.22h5.14a4.93,4.93,0,0,0,1.75-.33h.11C156.81,184.56,157.13,184.53,157.35,184.67Z"/><path d="M191.37,188.39v.22a7.68,7.68,0,0,0-2.08,1.75l-.55.55a66.4,66.4,0,0,1-8.09,7.87,28.35,28.35,0,0,1,2.84,3.06l-2.62,2h-.22a36.64,36.64,0,0,0-8.2-7.33l-.11-.11,2.29-2.07h.22a18.23,18.23,0,0,1,2.85,2.07c.29.22.54.41.76.55a50.21,50.21,0,0,0,6.89-7.22H173.1c-.65,0-1.71,0-3.17.11s-2.55.11-3.28.11v-3.28c1.09.07,2.7.11,4.81.11h8.32c2.4,0,4.81,0,7.21-.11l.66-.66h.22A28.89,28.89,0,0,1,191.37,188.39Z"/><path d="M201.1,193.64h6.57a65.64,65.64,0,0,0,6.56-.33,10.1,10.1,0,0,0,1.31-.11,6.51,6.51,0,0,1,3.39,0c.58.29.88.59.88.88a.51.51,0,0,1-.44.54,3.86,3.86,0,0,1-2,.44h-.87c-.66,0-1.65,0-3-.11s-2.29-.11-2.95-.11h-8.31a11.48,11.48,0,0,0-4.71.77.7.7,0,0,1-.54-.22,5.8,5.8,0,0,1-1-1.75,5.23,5.23,0,0,1-.44-.66.79.79,0,0,0-.1-.32.74.74,0,0,1-.22-.55.35.35,0,0,0,.22-.11h.1c.15,0,.3.11.44.33a2.3,2.3,0,0,1,.44.33C197.38,193.38,198.92,193.71,201.1,193.64Z"/><path d="M229.43,182.26l3.94.22a14,14,0,0,1-.55,1.86v7.11l1.42-1.53a25.84,25.84,0,0,1,6.24,4.27l.11.22-2,2.73h-.22a36.37,36.37,0,0,0-5.58-4.59v2.51q0,2.3.33,6.78c.15,2.12.22,3.68.22,4.71h-3.72q.22-3.95.22-8.86,0-4.16-.11-12.25A15.11,15.11,0,0,0,229.43,182.26Z"/><path d="M259.18,185.22v7.33c0,.58,0,1.46.11,2.62s.11,2.19.11,2.84h-3.17c0-.5,0-1.27.11-2.29V185.44c-.08-.88-.11-1.57-.11-2.08,1.09.07,2.26.11,3.5.11a1.83,1.83,0,0,1-.33.87A2.48,2.48,0,0,0,259.18,185.22Zm10.28-.55v4.81a42.94,42.94,0,0,1-.76,8,14.12,14.12,0,0,1-2.85,6.56c-1,1.17-2.07,2.3-3.17,3.39,0,.15-.07.15-.22,0a1.17,1.17,0,0,0-.33-.22,9.17,9.17,0,0,0-1.64-.87h-.11c-.43-.15-.69-.37-.76-.66a21.35,21.35,0,0,0,3.83-3.28q2.73-3.28,2.73-9.19v-7c0-.73-.07-1.86-.22-3.39q.23,1.65,0-.33c1.32.08,2.59.19,3.83.33a5.07,5.07,0,0,1-.11.88A3.27,3.27,0,0,0,269.46,184.67Z"/><path d="M286.53,186h7.21a18,18,0,0,0,4.71-.43h.11l2.84,1.53a.45.45,0,0,1,.11.33,1,1,0,0,1-.44.87,3.41,3.41,0,0,0-.87,1.31,4.55,4.55,0,0,1-.22.66,29.78,29.78,0,0,1-6.89,9.73,28.9,28.9,0,0,1-8.21,5.36c-.14.15-.25.15-.32,0l-2.63-1.86v-.22Q293,198.57,297,188.61H283c-1.1.07-1.94.11-2.52.11v-2.85C282.55,186,284.56,186,286.53,186Z"/><path d="M322.62,188.61h1.64a39.75,39.75,0,0,0,4.27-.22v3a12.68,12.68,0,0,1-1.43-.11,27.87,27.87,0,0,0-2.84-.22h-1.53v.88c.14,3.28.22,5.72.22,7.33v1.09a3.42,3.42,0,0,1-1.21,2.63,6.83,6.83,0,0,1-3.06.65H318a.7.7,0,0,1-.33-.11l-.66-2.29.11-.22h1.2c1.32-.15,2-.73,2.08-1.75v-3.94c0-.8,0-1.93-.11-3.39l-.44.87a6.89,6.89,0,0,1-1,1.54,3.64,3.64,0,0,0-.55.65,14,14,0,0,1-3.28,3,20.79,20.79,0,0,1-3.5,2.07c-.07.08-.14.08-.22,0l-1.86-1.64V198a17.06,17.06,0,0,0,8.86-7H315c-.65,0-1.68.08-3.06.22a13.17,13.17,0,0,1-1.53.11v-3a42.63,42.63,0,0,0,4.37.22h5.36a20.69,20.69,0,0,1-.11-2.52c-.07-1-.11-1.82-.11-2.4a13.17,13.17,0,0,1,1.54.11A13,13,0,0,1,323,184a1,1,0,0,1-.11.77,1.6,1.6,0,0,0-.22.66Z"/><path d="M341.1,193.64h6.57a65.64,65.64,0,0,0,6.56-.33,10.1,10.1,0,0,0,1.31-.11,6.51,6.51,0,0,1,3.39,0c.58.29.88.59.88.88a.51.51,0,0,1-.44.54,3.86,3.86,0,0,1-2,.44h-.87c-.66,0-1.65,0-3-.11s-2.29-.11-2.95-.11h-8.31a11.48,11.48,0,0,0-4.71.77.7.7,0,0,1-.54-.22,5.8,5.8,0,0,1-1-1.75,5.23,5.23,0,0,1-.44-.66.79.79,0,0,0-.1-.32.74.74,0,0,1-.22-.55.35.35,0,0,0,.22-.11h.1c.15,0,.3.11.44.33a2.3,2.3,0,0,1,.44.33C337.38,193.38,338.92,193.71,341.1,193.64Z"/><path d="M372.71,184H373a21,21,0,0,1,4,1.54v.32l-.66.55a2.76,2.76,0,0,0-1.09,1.75c-.15.44-.26.73-.33.88a73.14,73.14,0,0,1-5,10.82h.11a2.63,2.63,0,0,0,.87-.11A74.12,74.12,0,0,0,381,198.45a5.46,5.46,0,0,1-.55-.65,17.94,17.94,0,0,0-2.63-3.29v-.21l2.08-1.64h.22a53.24,53.24,0,0,1,7.44,8.53v.22l-2,2c-.07,0-.15.08-.22.22a1.91,1.91,0,0,1-.77.33c-.21-.36-.58-.91-1.09-1.64a9.82,9.82,0,0,0-.76-1.31h-.11q-4.6.87-13.79,2.19l-2.62.32a3.73,3.73,0,0,0-.55.11,5.37,5.37,0,0,0-.54.22,1.25,1.25,0,0,1-.44.22,1,1,0,0,0-.44.11l-.11.11a.45.45,0,0,1-.55.22l-1.2-3.83.11-.33h.55c1.16,0,2.29,0,3.39-.11h.11Q371.72,190.47,372.71,184Z"/><path d="M389.88,188v-2.73h5.69c-.14-.51-.4-1.28-.76-2.3-.22-.66-.4-1.16-.55-1.53l3.06-.44c.15.44.4,1.13.77,2.08s.51,1.68.65,2.19h4.05V188h-1.64a39.73,39.73,0,0,1-2.52,9.85q1,1.53,3,4.26a18.44,18.44,0,0,1,1.2,1.64l-2.41,1.64-1.64-2.29c-.73-1-1.27-1.83-1.64-2.41a28.8,28.8,0,0,1-5.57,6.34l-2.08-2.29a23.77,23.77,0,0,0,5.9-6.68l-3-4.26c-.95-1.31-1.6-2.26-2-2.84l2.19-1.54,4.05,5.69a32.47,32.47,0,0,0,1.75-7.11Zm16.41,10.83c-1.24-2.62-2.33-4.74-3.28-6.34l2.41-1q1.53,2.52,3.39,6.24Zm-2.84-9.73v-2.74h7.22v-5.25h2.95v5.25h2.62v2.74h-2.62v14.11c.14,2.4-1.13,3.6-3.83,3.6h-1.86c-.95.08-1.68.11-2.19.11a6.76,6.76,0,0,1-.21-1,18.87,18.87,0,0,1-.44-1.86h3.61c1.38.07,2-.47,2-1.64V189.05Z"/><path d="M419.53,189.48q-.88-.87-1.86-1.86A27.56,27.56,0,0,0,426,181l3.28.33a8.86,8.86,0,0,1-1.53,1.75h10.72v2l-2.3,2.08h6.34v6.23h-1.86l1.54,2-4.16,2a10.84,10.84,0,0,0,6.34,6.67,11.1,11.1,0,0,0-1.42,1.53,2.48,2.48,0,0,0-.44.55,13.06,13.06,0,0,1-6.67-7.66c-.51.22-1.06.44-1.64.66a13.13,13.13,0,0,1,.44,3.39q0,4.49-4.27,4.48c-1.24.08-2.51.11-3.82.11a9.86,9.86,0,0,1-.22-1.2q-.22-.76-.33-1.2a28.74,28.74,0,0,0,3.28.11c1.9.07,2.81-.73,2.73-2.41a3,3,0,0,0-.11-.77v-.65q-4.15,3.39-12.9,6c-.37-.73-.77-1.49-1.2-2.29a32.24,32.24,0,0,0,13.45-5.91c-.07-.14-.26-.44-.55-.87a.35.35,0,0,1-.11-.22,34.37,34.37,0,0,1-11.26,5,7.58,7.58,0,0,0-1.1-1.64,1,1,0,0,0-.22-.44,34.78,34.78,0,0,0,11.49-4.48,2.21,2.21,0,0,0-.44-.55,1.22,1.22,0,0,0-.44-.44q-3.06,1.86-9.84,3.39a10.55,10.55,0,0,0-1.09-2.19q7.21-1.08,9.73-2.95H420v-4.05Zm3.28-.43v2.29h6.45a14.24,14.24,0,0,0,.77-2.29Zm12-3.94h-9.08c-.73.65-1.53,1.31-2.41,2h9.3Zm-4.16,8.53a28.39,28.39,0,0,1,2.63,3.17,71.63,71.63,0,0,0,7.11-3.5H431Zm9.08-4.59H433c-.22.87-.44,1.64-.66,2.29h7.44Z"/><path d="M453,201.08a26.27,26.27,0,0,0-2.07-2.41q7-3.49,6.67-10.17H450.7v18.37h-3V185.66h9.85v-4.49h3.17c0,1.68,0,3.17-.11,4.49h9.63V202.5c.07,2.7-1.25,4.08-3.94,4.16h-4.71a10.12,10.12,0,0,0-.65-2.85c1.38.07,2.73.11,4,.11,1.53.07,2.25-.66,2.18-2.19V188.5h-6.67a13.45,13.45,0,0,1-.55,4.05c.29.21.7.54,1.21,1,2.69,2.12,4.63,3.72,5.79,4.81l-2.29,2.3q-2.08-2.07-5.8-5.36Q457.6,197.91,453,201.08Z"/><path d="M482.09,182.26h.44l3.5.88v.22a2.34,2.34,0,0,0-.88,1.53c-.07.22-.18.55-.33,1-.29.81-.51,1.46-.65,2,1.45-.36,2.88-.69,4.26-1l.22.11-.33,2.84q-2.4.44-4.92.66a88.63,88.63,0,0,1-2.84,8.42,45,45,0,0,1-3.28,7.33l-.11.11-3.29-1.21a35.47,35.47,0,0,0,4.71-9.18c.36-.81.8-2,1.31-3.5.29-.81.51-1.39.66-1.75h-3.94a.65.65,0,0,1-.44-.11l-.44-2.74c.37,0,.92,0,1.64.11a15.88,15.88,0,0,0,1.65.11h2.29a17.59,17.59,0,0,0,.77-5.14Zm9.29,20.79h1.1a11.77,11.77,0,0,0,4.48-.66l-.22,3a23,23,0,0,1-3.82.33h-.77a22.53,22.53,0,0,1-6.56-1.2l.44-2.41a3.29,3.29,0,0,0,.76.22A21,21,0,0,0,491.38,203.05Zm.11-11.49h1a15,15,0,0,1,2.19.22,9.48,9.48,0,0,0,1.09.11l-.11,3a18.62,18.62,0,0,0-4.16-.65h-.87a17.17,17.17,0,0,0-2.3.22,4.71,4.71,0,0,1-.87.1l.22-2.62a12.52,12.52,0,0,0,1.31-.11A22,22,0,0,1,491.49,191.56Zm1.43-4.59v-.22l1.42-1.31c0-.15.07-.15.22,0a12.2,12.2,0,0,1,2.51,2l.55.54c-.07.08-.15.15-.22.22l-.11.11a3.27,3.27,0,0,1-1.31,1.09c0,.08-.07.08-.22,0C494.81,188.65,493.86,187.84,492.92,187Zm2.62-2.63,1.31-1.64a4.06,4.06,0,0,1,1.43.77,2.47,2.47,0,0,0,.54.44,17.08,17.08,0,0,0,1.31,1.2v.33l-1.53,1.31c0,.07-.07.07-.22,0a15.81,15.81,0,0,0-1.42-1.2,10.48,10.48,0,0,0-1.42-1.1Z"/><path d="M518.4,186.86H519a6.71,6.71,0,0,1,4.59,1.64,6.62,6.62,0,0,1,2,4.59v.55a6,6,0,0,1-1,3.28,10,10,0,0,1-3,2.84,13.32,13.32,0,0,1-6.56,2.3L513.26,200a16.1,16.1,0,0,0,6.56-2.07c2.19-1.32,3.28-2.88,3.28-4.71v-.44q-.44-3.16-4.48-3.71h-.44a10.74,10.74,0,0,0-3.39.54c-.87.29-1.75.62-2.62,1-.3.14-.7.33-1.21.54a34.19,34.19,0,0,0-3.17,1.75c-.07,0-.15.08-.22.22a.84.84,0,0,1-.76.22l-2.3-2.62c2-.51,4.05-1.1,6-1.75a2,2,0,0,0,.43-.11C514.1,187.44,516.58,186.79,518.4,186.86Z"/><path d="M539.73,181.94H540l3.28.87v.33a2.61,2.61,0,0,0-1.1,1.75,11.66,11.66,0,0,0-.65,1.86,3.58,3.58,0,0,1-.22.66l3.61-.66a3.29,3.29,0,0,0,.76-.22l.22.11v2.84c-1.75.3-3.5.51-5.25.66a2.69,2.69,0,0,1-.11.55c.08-.15,0-.08-.11.22a63.35,63.35,0,0,1-5.79,15l-3-.88-.1-.21a89.37,89.37,0,0,0,6.34-14.55,17.05,17.05,0,0,1-2.19.11c-.95.07-1.68.11-2.19.11l-.21-.11-.44-2.63.11-.22c.29,0,.76,0,1.42.11a10.1,10.1,0,0,0,1.31.11h.88a18.8,18.8,0,0,0,2.07-.11,2.68,2.68,0,0,0,.22-.65,17.08,17.08,0,0,0,.88-4.38Zm14.76,20.12-.32,3.06a28.34,28.34,0,0,1-3.61.22h-1.1a22.94,22.94,0,0,1-4.81-.54,2,2,0,0,1-.44-.11c-.51,0-.84-.11-1-.33l-.11-2.52a5.9,5.9,0,0,0,1,.22,28.65,28.65,0,0,0,4.82.55h.54A23.2,23.2,0,0,0,554.49,202.06Zm-6.34-10.72h1c1.17,0,2.41,0,3.72.11l.11,3-.11.1a24.79,24.79,0,0,0-4.7-.65h-1.09a9,9,0,0,0-2.41.33l.44-2.74h1.42C547.24,191.38,547.78,191.34,548.15,191.34Z"/><path d="M584,193.75v.76a10,10,0,0,1-3,6.9,13.47,13.47,0,0,1-5.47,3.93c0,.15-.07.15-.22,0a10,10,0,0,0-2.51-1.64v-.22c5.25-2.47,7.91-5.65,8-9.51v-.55a7.11,7.11,0,0,0-2.4-5,8.79,8.79,0,0,0-4.6-2,60.88,60.88,0,0,1-2.4,8,50.76,50.76,0,0,1-3.39,7.1q-1.42,2.63-3.5,2.63-3.28-.1-5.47-3.72a7.69,7.69,0,0,1-1.1-3.72v-.54a10.09,10.09,0,0,1,.88-3.61,13,13,0,0,1,2-3.29,12.43,12.43,0,0,1,5.9-4.48,15.65,15.65,0,0,1,5-1.09H573a11,11,0,0,1,8,2.95A10.38,10.38,0,0,1,584,193.75ZM561,195.61v.55a6.05,6.05,0,0,0,1.09,3.39,2.51,2.51,0,0,0,2.08,1.31,2.79,2.79,0,0,0,1.86-1.31,21.49,21.49,0,0,0,1.09-2c.15-.37.26-.62.33-.77a36.69,36.69,0,0,0,3.72-10.39,17.94,17.94,0,0,0-4.16,1.09,14.9,14.9,0,0,0-4.48,4.05A8.56,8.56,0,0,0,561,195.61Z"/><path d="M585.45,187.51h.65a15,15,0,0,0,3.28-.54l1.32-.33c1.38-.36,2.73-.69,4-1q3.62-.89,7.11-1.54a21.79,21.79,0,0,0,4.38-1,3.3,3.3,0,0,0,.33,1.2,3.75,3.75,0,0,1,.22,1.64l-1.54.33a7.6,7.6,0,0,0-3.71,1.2,8.68,8.68,0,0,0-3.18,4.71,15.72,15.72,0,0,0-.65,3.83v.65a5.77,5.77,0,0,0,1.64,4.27,6.38,6.38,0,0,0,4.26,1.64h.55a7,7,0,0,0,1.75-.22v3.28H605a12.8,12.8,0,0,1-6.9-1.86,8.64,8.64,0,0,1-3.28-6.89v-.55q0-4.26,3.39-9c-2.91.72-5.83,1.53-8.75,2.4a3.29,3.29,0,0,1-.76.22,3,3,0,0,0-1.53.88l-1.75-3.07Zm20.12,1.54,1.53-1.43c.22.22.51.55.88,1a17.62,17.62,0,0,1,1.75,2l-1.53,1.31A17.33,17.33,0,0,0,605.57,189.05Zm3-2.19,1.53-1.31a18.7,18.7,0,0,1,2.51,2.84l-1.64,1.31A22.66,22.66,0,0,0,608.53,186.86Z"/><path d="M625.15,204.25,623,206.44l-5.9-6.46,2.07-1.86Z"/><path d="M125.09,234.81a3.33,3.33,0,0,1-.55-1l-.87-1.31a19.82,19.82,0,0,0,5.9-6.46l3,.44a2.1,2.1,0,0,1-.33.44,16.45,16.45,0,0,1-1.53,2.18h18.59v2.52H146.2v4.27H149v2.4H146.2v4.49H150v2.4H124v-2.4h4.27v-4.49h-3.39v-2.4h3.39V232A38.14,38.14,0,0,1,125.09,234.81Zm2,17.39-2.85-.65q1.86-3.28,2.74-5.25l2.73.54a7.94,7.94,0,0,1-.44,1Q127.83,250.89,127.06,252.2Zm3.72-20.56v4.27h2.62v-4.27Zm0,6.67v4.49h2.62v-4.49Zm2.29,13.35q-.66-2.19-1.42-4.71l2.73-.33q.88,2.41,1.54,4.6Zm2.85-20v4.27h2.62v-4.27Zm0,6.67v4.49h2.62v-4.49Zm3.82,13.13a29,29,0,0,0-1.31-3.17c-.22-.59-.4-1.06-.55-1.43l2.74-.43,2,4.48Zm1.32-19.8v4.27h2.73v-4.27Zm0,6.67v4.49h2.73v-4.49Zm6,13.35c-.36-.73-.91-1.68-1.64-2.85-.51-.87-.91-1.57-1.2-2.08l2.73-.54a2.2,2.2,0,0,0,.44.54,41.43,41.43,0,0,1,2.52,4.16Z"/><path d="M152,238.53V236h4.27v-10H159v10h4v2.51h-4v2.74l1-1,.87.88c1.17,1.16,2,2.07,2.63,2.73l-1.75,2a20.06,20.06,0,0,0-1.86-2.08c-.37-.44-.66-.76-.88-1v9.29h-2.73V242.8a26.32,26.32,0,0,1-3.72,6,23.49,23.49,0,0,0-.87-3.17,25.9,25.9,0,0,0,4.37-7.11Zm1.75-3.94q-1.2-3.5-1.86-5.47l2-.65q.66,2,1.86,5.47Zm7.44.11-1.86-.76c.88-2,1.64-3.79,2.3-5.47l2,.76A57,57,0,0,1,161.18,234.7Zm2.74,11.05-.33-2.73,8.2-.77V226.06h2.84v15.86l3.5-.33.11,2.74-3.61.33v7.43h-2.84V245Zm4.48-5a51.25,51.25,0,0,0-4.37-3.5l1.64-2q2.4,1.75,4.48,3.39Zm.77-6.56a50.7,50.7,0,0,0-4.27-3.72l1.75-1.86a5.32,5.32,0,0,0,1.09.76c1.39,1.1,2.48,2,3.29,2.74Z"/><path d="M180.1,233.83V231.2h3.5v-5.14h2.74v5.14h3.28v2.63h-3.28v3.94l.76-.77a44.08,44.08,0,0,1,3.39,3.28l-1.75,2a1.18,1.18,0,0,0-.43-.44c-.81-.95-1.46-1.68-2-2.19V252.2H183.6V239.52a28.7,28.7,0,0,1-3.17,6.34,26.31,26.31,0,0,0-.55-2.74,7.22,7.22,0,0,0-.21-1.09,27.11,27.11,0,0,0,3.82-8.2Zm10.72,18.37V227.59H205V252.2h-2.73v-1.75h-8.75v1.75Zm2.74-22v4.26h8.75v-4.26Zm0,6.78v4.27h8.75V237Zm0,6.78v4.27h8.75v-4.27Z"/><path d="M207.78,231.64v-2.52h4.15l-1.09-2.73,2.62-.44c.22.59.62,1.57,1.21,3a.31.31,0,0,1,.11.21h2.95v2.52Zm.76,4.16v-2.3h8.53v2.3Zm0,4.26v-2.29h8.53v2.29Zm.11,11.92V241.92H217v10h-2.4v-1.42h-3.39V252Zm2.52-7.65v3.94h3.39v-3.94Zm7.76,7.87c-.07-.14-.22-.4-.44-.76a19.93,19.93,0,0,0-1.2-1.75q6.45-2.62,7-6.89c.15-1.1.29-2.74.44-4.93h2.62a27.58,27.58,0,0,1-.22,3.72,10.67,10.67,0,0,0,7.22,7.77c-.73,1.16-1.24,2-1.53,2.62q-5.25-2.62-6.78-6.67Q225.05,249.36,218.93,252.2Zm13.56-13.34q-3.83-2.73-6.56-4.38c-.87,1.54-3,3.1-6.45,4.71a22,22,0,0,0-1.53-2.41q6.23-2.52,6.56-5.91a26.11,26.11,0,0,0,.33-4.81h2.73a27.75,27.75,0,0,1-.44,5l-.21,1.1c.51.29,1.24.73,2.18,1.31q3.39,2,5,3.06ZM221,245a42.26,42.26,0,0,0-2.73-3.93l2.07-1.21a1.26,1.26,0,0,1,.22.33,34.64,34.64,0,0,1,2.63,3.39Zm.33-12.14c-.37-.51-1-1.38-2-2.62l-1-1.31,2-1.32a3.45,3.45,0,0,1,.33.44,42.37,42.37,0,0,1,2.74,3.39Zm9,0-2.08-1.53a35.58,35.58,0,0,0,3.28-3.72l2.08,1.43c-.66.87-1.64,2-3,3.5Zm0,12.14-2-1.53a1.43,1.43,0,0,0,.22-.33,35.71,35.71,0,0,0,2.95-3.39l2.08,1.54c-.51.65-1.31,1.56-2.41,2.73A7.64,7.64,0,0,0,230.31,245Z"/><path d="M241,227.27h.21l3.5.65a13.34,13.34,0,0,1-.32,1.42v15.1a5,5,0,0,0,.65,2.95,3,3,0,0,0,2.3,1.09H248a4.09,4.09,0,0,0,1.85-.43,11.23,11.23,0,0,0,2.52-1.21,12.06,12.06,0,0,0,3.06-2.73h.22l1.31,2.51c.15.15.15.22,0,.22a13.42,13.42,0,0,1-4.59,3.28,9.74,9.74,0,0,1-4.81,1.21h-.33a6.37,6.37,0,0,1-3.61-1.1,4.3,4.3,0,0,1-2.19-3.17c-.07-1-.11-2.08-.11-3.17V229.56a5.73,5.73,0,0,0-.22-1.31A6.77,6.77,0,0,1,241,227.27Z"/><path d="M265.63,232.52H266l9.52-2c4.15-.88,7.29-1.5,9.4-1.86,1.1-.22,2.19-.4,3.29-.55l.21,3.17h-.65c-3.36,0-5.87.91-7.55,2.74a10.36,10.36,0,0,0-2.84,7.32v.44a5.78,5.78,0,0,0,1.53,4.27q1.53,1.63,4.81,1.53h1.86v3.28H283.9a10.17,10.17,0,0,1-6.89-2.41,8.57,8.57,0,0,1-2.3-6.34v-1.09q0-4.28,3.5-8.53c-.95.21-2.4.58-4.37,1.09-.95.22-1.68.4-2.19.55l-1,.32a12.7,12.7,0,0,0-3.29,1.21Z"/><path d="M292,245.64v-.44a8.52,8.52,0,0,1,1.1-3.5,8.93,8.93,0,0,1,2-2.29,9.64,9.64,0,0,1,6.23-2.3h.22a4.39,4.39,0,0,0,.77-1.31c.87-1.53,1.78-3.07,2.73-4.6l-.22-.22a10.69,10.69,0,0,0-5.25,1.86l-.55-1.09c-.21-.44-.65-1.2-1.31-2.3l.11-.11h1.31a16.68,16.68,0,0,0,3.07-.43,3.83,3.83,0,0,1,.76-.11,17.84,17.84,0,0,0,3.39-1h.22l2.84,2.74c.08.29-.1.54-.54.76l-.11.11a12.19,12.19,0,0,0-1.86,1.53c-.22.29-.51.73-.88,1.32a5.74,5.74,0,0,0-.43.65,5.23,5.23,0,0,1-.44.66,19.15,19.15,0,0,1-1,1.86c.81.14,1.61.33,2.41.54a22.33,22.33,0,0,1,2.95,1.21l1.43.65a24.79,24.79,0,0,0,.65-4.7v-.87h.22l2.95.87v.22a20,20,0,0,0-1.31,4.48.31.31,0,0,1-.11.22,2.53,2.53,0,0,1-.33,1,29.17,29.17,0,0,1,5,3.5l-1.32,2.51h-.22q-1.86-1.63-3.82-3.17a1.33,1.33,0,0,0-.55-.33c-.44.95-.91,1.86-1.42,2.74a15.46,15.46,0,0,1-5.36,5h-.22a11.06,11.06,0,0,0-2.3-1.75v-.11a15.45,15.45,0,0,0,5.14-3.72,9.47,9.47,0,0,0,2.08-3.39.1.1,0,0,0-.11-.11,21.93,21.93,0,0,0-7-2.63c-.36.73-.91,1.75-1.64,3.07-.51.87-.87,1.53-1.09,2q-2.62,4.59-5.58,4A3.24,3.24,0,0,1,292,245.64Zm3.39-3.17c-.07.14-.18.33-.32.55a2.9,2.9,0,0,0-.66,1.09c-.29,1.31,0,2,1,2.08a2.2,2.2,0,0,0,1.32-.66.29.29,0,0,1,.11-.22,7,7,0,0,0,1.09-1.42,30.78,30.78,0,0,0,2.3-4.37A7.88,7.88,0,0,0,295.38,242.47Z"/><path d="M329.73,226.94H330l3.28.87v.33a2.64,2.64,0,0,0-1.1,1.75,11.66,11.66,0,0,0-.65,1.86,3.58,3.58,0,0,1-.22.66l3.61-.66a3.29,3.29,0,0,0,.76-.22l.22.11v2.84c-1.75.3-3.5.51-5.25.66a2.69,2.69,0,0,1-.11.55l-.11.22a63.35,63.35,0,0,1-5.79,15l-3-.87-.1-.22a89.37,89.37,0,0,0,6.34-14.55,17.05,17.05,0,0,1-2.19.11c-.95.07-1.68.11-2.19.11l-.21-.11-.44-2.63.11-.21c.29,0,.76,0,1.42.1a10.1,10.1,0,0,0,1.31.11h.88a18.8,18.8,0,0,0,2.07-.11,2.68,2.68,0,0,0,.22-.65,17.08,17.08,0,0,0,.88-4.38Zm14.76,20.12-.32,3.06a28.34,28.34,0,0,1-3.61.22h-1.1a22.94,22.94,0,0,1-4.81-.54,2,2,0,0,1-.44-.11c-.51,0-.84-.11-1-.33l-.11-2.52a5.9,5.9,0,0,0,1,.22,28.65,28.65,0,0,0,4.82.55h.54A23.2,23.2,0,0,0,344.49,247.06Zm-6.34-10.72h1c1.17,0,2.41,0,3.72.11l.11,3-.11.11a24.17,24.17,0,0,0-4.7-.66h-1.09a9,9,0,0,0-2.41.33l.44-2.74h1.42C337.24,236.38,337.78,236.34,338.15,236.34Z"/><path d="M367.24,231.64l2.41,2.73v.22A40,40,0,0,0,359,239.08a13.2,13.2,0,0,0-3.39,3.28,3.8,3.8,0,0,0-.66,1.86v.44a3.4,3.4,0,0,0,2.08,3,8.49,8.49,0,0,0,3.72.66h.77a23.11,23.11,0,0,0,6.34-.88l.22,3.28c-1.9.15-3.72.22-5.47.22H361a10.06,10.06,0,0,1-5.8-1.2,5.43,5.43,0,0,1-2.84-4.92v-.55c.07-2.48,1.57-4.74,4.48-6.78a1.06,1.06,0,0,1,.55-.44,43.79,43.79,0,0,0-3.5-9.19l3-.54a61.84,61.84,0,0,1,3.28,8.2l3.94-2A12.89,12.89,0,0,0,367.24,231.64Z"/><path d="M388.13,245.86h2.3a35,35,0,0,0,8.1-1v3.5a45.21,45.21,0,0,1-8.43.66h-1.64a12.39,12.39,0,0,1-5.14-.87,13.3,13.3,0,0,1-3.83-2.85V245l1.86-1.64c.08-.14.11-.14.11,0a8.66,8.66,0,0,0,3.17,2.08A10.22,10.22,0,0,0,388.13,245.86Zm.55-15.31h.88a25.7,25.7,0,0,0,5.14-.77c-.08,0,0,0,.33-.11v3.17c-1.54.15-3,.22-4.49.22H388a43.21,43.21,0,0,1-4.49-.44l-.22-.1-.65-3.07.11-.11a5.41,5.41,0,0,0,.87.22A19,19,0,0,0,388.68,230.55Z"/><path d="M409.79,229.56h.66a19.59,19.59,0,0,0,3.5-.44c-1,.22-.92.22.33,0a12.72,12.72,0,0,0,4.92-1.2,1,1,0,0,0,.43-.22,1.12,1.12,0,0,1,.55-.22h.33l2.41,1.86v.33a8.08,8.08,0,0,0-2.3,2.41,4,4,0,0,1-.55.76c-1.31,1.61-2.7,3.25-4.15,4.93l1.2-.33a12.28,12.28,0,0,1,3.17-.55h.44a10.19,10.19,0,0,1,4.92,1.31,6,6,0,0,1,2.73,4.92v.44a7.15,7.15,0,0,1-3.6,6.24,12.71,12.71,0,0,1-6.57,2l-1.2-2.63h.44a11.11,11.11,0,0,0,4.7-.87,5,5,0,0,0,3.06-4.38v-.44a3.93,3.93,0,0,0-1.31-2.84,4.3,4.3,0,0,0-3.17-1.09h-.55a11.79,11.79,0,0,0-6.78,2.18,34.44,34.44,0,0,0-5.14,5.14l-2.63-2.29a69.12,69.12,0,0,0,5.15-4.93l1.2-1.2a29.74,29.74,0,0,0,5.69-7.44c-.51.15-1.24.33-2.19.55-1.39.37-2.41.66-3.06.88a1.12,1.12,0,0,0-.44.21l-.44.22-1.86-3.06Z"/><path d="M443.15,249.25,441,251.44l-5.9-6.46,2.07-1.86Z"/><path d="M460.1,230.44v-2.63h8.43v2.63h-2.74v6.34h2.63v2.63h-2.63v6.45c.44-.07,1.17-.22,2.19-.44a6,6,0,0,0,.87-.22v2.85c-.43.07-1.13.22-2.07.43-2.78.51-5,1-6.68,1.43l-.43-2.74,1.75-.33,1.64-.32v-7.11h-2.85v-2.63h2.85v-6.34Zm20.78,21.22q-3.27.1-3.17-3V244h-2.18l-.11.87q0,5.15-6.68,7.33a4.6,4.6,0,0,0-.43-.65A16.61,16.61,0,0,0,467,249.8q5.68-1.43,5.69-4.93V244h-3.17V227.16h14.87V244h-3.93v4.16c-.08.65.33.94,1.2.87h.77c.72.07,1.13-.29,1.2-1.09.07-.37.14-1.06.22-2.08.07-.58.11-1,.11-1.2l2.29.87a21.5,21.5,0,0,1-.54,3.5,2.82,2.82,0,0,1-3.07,2.63Zm-8.53-22.21v2.63h9.19v-2.63Zm0,4.82v2.62h9.19v-2.62Zm0,4.81v2.62h9.19v-2.62Z"/><path d="M512.71,236.67c-1.31-.58-2.51-1.13-3.61-1.64v2.08h-6.56v2.95h9.3v2.63h-9.3v6.12h10.94v2.41H488.54v-2.41h10.94v-6.12h-9.3v-2.63h9.3v-2.95H492.7v-1.86c-1,.51-2.15,1.06-3.39,1.64-.15-.22-.33-.51-.55-.87-.51-.81-.88-1.39-1.09-1.75q9.07-3.51,12.46-8.54l3.4.33-.66.88a22.55,22.55,0,0,0,11.37,6.89c-.14.29-.4.76-.76,1.42S512.86,236.38,512.71,236.67Zm-18,11.81c-.59-.72-1.68-2-3.29-3.93l2.19-1.43q1.2,1.32,3.06,3.5c-.14-.14,0,0,.33.44ZM501.23,229a28.33,28.33,0,0,1-7.11,5.57h14A26,26,0,0,1,501.23,229Zm5.8,19.46-2.19-1.42a1.43,1.43,0,0,0,.22-.33q2.18-2.4,3.17-3.61l2.4,1.32C509.69,245.53,508.48,246.88,507,248.48Z"/><path d="M518,235.25l-2-2.08a31.16,31.16,0,0,0,8-7.44l3.39.33a12.19,12.19,0,0,1-1.53,1.86h10.28v2.19l-2.52,2.51h5.69v14.44H519V234.48Zm-.43,17.06-1.32-2.62a87.34,87.34,0,0,0,9.52-2.3l1.2,2.08Q522.78,250.88,517.53,252.31Zm15-22.09h-8.75a24.67,24.67,0,0,1-2.52,2.4h9Zm-10.72,4.7V237h14.66v-2.08Zm0,3.94v2.08h14.66v-2.08Zm0,3.83v2.08h14.66v-2.08Zm18.59,9.51q-4.7-1.53-9.29-2.84l1-2q5.58,1.2,9.41,2.19Z"/><path d="M544,233.5v-2.63h3.18v-4.7h3v4.7h2.73v2.63h-2.73v5c.87-.22,1.82-.44,2.84-.66v2.74l-2.84.76v7.33q.11,3-3.17,3.17a19.91,19.91,0,0,0-2.3.11,11.94,11.94,0,0,1-.22-1.31c-.15-.73-.25-1.24-.33-1.53h1.64c1,.07,1.5-.33,1.43-1.2v-5.69L544,243l-.21-3.07a8.94,8.94,0,0,1,.87-.22q.66-.1,2.52-.54V233.5Zm8,17.5v-2.52h18.15V251Zm2.19-6.13V227.48H568.6v17.39Zm3-14.65v4.59h8.64v-4.59Zm0,7.22v4.81h8.64v-4.81Z"/><path d="M573.09,234.81a3.33,3.33,0,0,1-.55-1l-.87-1.31a19.82,19.82,0,0,0,5.9-6.46l3,.44a2.1,2.1,0,0,1-.33.44,16.45,16.45,0,0,1-1.53,2.18h18.59v2.52H594.2v4.27H597v2.4H594.2v4.49H598v2.4H572v-2.4h4.27v-4.49h-3.39v-2.4h3.39V232A38.14,38.14,0,0,1,573.09,234.81Zm2,17.39-2.85-.65q1.86-3.28,2.74-5.25l2.73.54a7.94,7.94,0,0,1-.44,1Q575.83,250.89,575.06,252.2Zm3.72-20.56v4.27h2.62v-4.27Zm0,6.67v4.49h2.62v-4.49Zm2.29,13.35q-.66-2.19-1.42-4.71l2.73-.33q.89,2.41,1.54,4.6Zm2.85-20v4.27h2.62v-4.27Zm0,6.67v4.49h2.62v-4.49Zm3.82,13.13a29,29,0,0,0-1.31-3.17c-.22-.59-.4-1.06-.55-1.43l2.74-.43,2,4.48Zm1.32-19.8v4.27h2.73v-4.27Zm0,6.67v4.49h2.73v-4.49Zm6,13.35c-.36-.73-.91-1.68-1.64-2.85-.51-.87-.91-1.57-1.2-2.08l2.73-.54a2.2,2.2,0,0,0,.44.54,41.43,41.43,0,0,1,2.52,4.16Z"/><path d="M605,227.27h.21l3.5.65a13.34,13.34,0,0,1-.32,1.42v15.1a5,5,0,0,0,.65,2.95,3,3,0,0,0,2.3,1.09H612a4.09,4.09,0,0,0,1.85-.43,11.23,11.23,0,0,0,2.52-1.21,12.06,12.06,0,0,0,3.06-2.73h.22l1.31,2.51c.15.15.15.22,0,.22a13.42,13.42,0,0,1-4.59,3.28,9.74,9.74,0,0,1-4.81,1.21h-.33a6.37,6.37,0,0,1-3.61-1.1,4.3,4.3,0,0,1-2.19-3.17c-.07-1-.11-2.08-.11-3.17V229.56a5.73,5.73,0,0,0-.22-1.31A6.77,6.77,0,0,1,605,227.27Z"/><path d="M627.45,232.52h.65a15.2,15.2,0,0,0,3.28-.55l1.32-.33c1.38-.36,2.73-.69,4-1q3.62-.89,7.11-1.54a21.79,21.79,0,0,0,4.38-1,3.3,3.3,0,0,0,.33,1.2,3.75,3.75,0,0,1,.22,1.64l-1.54.33a7.49,7.49,0,0,0-3.71,1.21,8.62,8.62,0,0,0-3.18,4.7,15.72,15.72,0,0,0-.65,3.83v.65a5.77,5.77,0,0,0,1.64,4.27,6.38,6.38,0,0,0,4.26,1.64h.55a7,7,0,0,0,1.75-.22v3.28H647a12.8,12.8,0,0,1-6.9-1.86,8.64,8.64,0,0,1-3.28-6.89v-.55q0-4.26,3.39-9c-2.91.72-5.83,1.53-8.75,2.4a3.29,3.29,0,0,1-.76.22,3,3,0,0,0-1.53.88l-1.75-3.07Zm20.12,1.53,1.53-1.43c.22.22.51.55.88,1a17.62,17.62,0,0,1,1.75,2l-1.53,1.31A17.33,17.33,0,0,0,647.57,234.05Zm3-2.19,1.53-1.31a18.7,18.7,0,0,1,2.51,2.84l-1.64,1.31A22.66,22.66,0,0,0,650.53,231.86Z"/><path d="M111.31,286.37q-.23-.31-1-1.2t-.87-1.2a40.43,40.43,0,0,0,5.9-12.91l3,.44c-.44,1.38-.92,2.73-1.43,4.05h6.79v2.73a24.51,24.51,0,0,1-11.49,18.81c-.15-.22-.55-.69-1.2-1.42a8.07,8.07,0,0,1-.88-1,23.06,23.06,0,0,0,7.44-7c-.29-.22-.73-.59-1.31-1.1-1.1-.94-2-1.67-2.63-2.18l1.75-2.19,3.61,2.84a25.23,25.23,0,0,0,1.86-6.78h-5A48.7,48.7,0,0,1,111.31,286.37ZM126,297.09v-26h3v9.19l1.31-1.09q3,2.73,6.23,6.12l-2.18,2a67.45,67.45,0,0,0-5.36-5.58v15.42Z"/><path d="M139,287.25l-1.53-2.63c1.67-2,2.44-4.77,2.29-8.42v-3.93h10.5v6.45h-8.09a6.84,6.84,0,0,1-.11,1,3.45,3.45,0,0,1-.11,1h8.42v6.45H141.6v-6A15.48,15.48,0,0,1,139,287.25Zm1.2,4.37v-2.18h9.41v-2.08h2.95v2.08h9.3v2.18h-9.3V294h11.59v2.3H138V294h11.6v-2.41Zm2.08-17.28v2.41h5.47v-2.41Zm1.75,8.32v2.51H148v-2.51Zm7.11-1.54v-2.18h3.06a3.69,3.69,0,0,0-.65-1c-.52-.94-.88-1.6-1.1-2l1.53-.21h-2.51v-2.19h4.81l-1-2.3,2.84-.44a16.81,16.81,0,0,1,.87,2.74h4.38v2.19h-2.63l1.54.21c-.3.44-.7,1.1-1.21,2l-.65,1h3.5v2.18h-5.25v2.19h4.48v2.19h-4.48v2.41h-2.74V285.5h-4.26v-2.19h4.26v-2.19Zm5.58-2.51-1.75.33h3l1.75-3.17H155q.54.76.33.54C156,277.41,156.48,278.17,156.7,278.61Z"/><path d="M178.35,279.27H180a2.39,2.39,0,0,1,2.19.87,3.36,3.36,0,0,1,.66,2.08v.44a23.85,23.85,0,0,1-1,6.45q-.87,3.83-3.06,4.92a7.42,7.42,0,0,1-3.72.77h-.54c-.22,0-.33,0-.33-.11-.15-.3-.33-.7-.55-1.21a15.22,15.22,0,0,0-.77-1.53v-.11a9.54,9.54,0,0,1,1.21.11,7.61,7.61,0,0,0,1.09.11h.44a2.33,2.33,0,0,0,2.08-1,7.22,7.22,0,0,0,1.09-2,.33.33,0,0,0,.11-.22,14.22,14.22,0,0,0,1-5.25V283c-.07-.8-.43-1.24-1.09-1.31a19.7,19.7,0,0,0-2.41.22,9.57,9.57,0,0,1-1.2.11,41.89,41.89,0,0,1-4.15,9,19.43,19.43,0,0,1-2.3,3.06,2.85,2.85,0,0,1-1.31-.55c-.22-.14-.41-.25-.55-.32a.33.33,0,0,1-.22-.11c-.44-.08-.69-.22-.77-.44a18.07,18.07,0,0,0,4.27-5.91q1.09-2.19,2.08-4.26a8.17,8.17,0,0,0-3.17.87l-.11.11a1.34,1.34,0,0,1-.77.22l-1.53-3.17.11-.22a10.14,10.14,0,0,0,3.06,0,9.59,9.59,0,0,1,1.1-.11,7.13,7.13,0,0,1,2.07-.33c.15-.44.26-.8.33-1.09a13.7,13.7,0,0,0,.66-4.38v-.76a1,1,0,0,1-.11-.44c.29.07.69.15,1.2.22,1,.15,1.82.29,2.41.44a1.65,1.65,0,0,1-.44,1,.33.33,0,0,0-.11.22,4.9,4.9,0,0,0-.33,1.53,1.9,1.9,0,0,0-.11.55,6.18,6.18,0,0,1-.21,1.2c-.08.51-.15.91-.22,1.2A13.27,13.27,0,0,1,178.35,279.27Zm5.36-1.43v-.32a6.47,6.47,0,0,1,1-.77,11.59,11.59,0,0,1,1-.77q.33-.21,1,.66a16,16,0,0,1,2.07,2.3,48.37,48.37,0,0,1,3.39,4.48v.33l-2.62,1.64A45.05,45.05,0,0,0,183.71,277.84Z"/><path d="M198.48,277.19l3.06.65a43.89,43.89,0,0,0-1,8.21c2.69-2.19,5.32-3.28,7.87-3.28h.77a9.29,9.29,0,0,1,4.92,1.2,5.54,5.54,0,0,1,2.3,4.15v.55a6.54,6.54,0,0,1-2.3,4.81,15.9,15.9,0,0,1-5,2.41,5.4,5.4,0,0,1-2.63.66L205,294.14V294a39,39,0,0,0,4.38-1c2.47-1,3.71-2.34,3.71-3.94v-.44q-.21-3-4-3.28h-.44a12,12,0,0,0-4.37,1.09,7.39,7.39,0,0,0-3.5,3.5l-3.18-1.09c.08-.58.18-1.49.33-2.73q.56-5.15.55-7.77Zm2.3-3.83,1.85-2.08a4.71,4.71,0,0,1,.88.44,36.66,36.66,0,0,1,4.81,2.4v.22l-1.86,2A30.76,30.76,0,0,0,200.78,273.36Z"/><path d="M224,297.09l-.76-.76a12.9,12.9,0,0,1-1.42-1.42,15.42,15.42,0,0,0,2-5.25,54,54,0,0,0,.44-8.21v-9.29h22.53v6.56H227v3.61a41.69,41.69,0,0,1-.66,8.53A20.29,20.29,0,0,1,224,297.09Zm4.38-14.54v-2.19h18.59v2.19h-9.84c-.37.29-.91.69-1.64,1.2-1.1.87-1.9,1.49-2.41,1.86,1-.07,2.37-.11,4.27-.11s3.28-.11,4.15-.11l-.87-.87c-.44-.37-.77-.62-1-.77l2-1.2,3.5,2.84c1,.8,1.64,1.39,2.08,1.75l-2,1.64-.76-.76c-.37-.3-.66-.51-.88-.66h-4.7v2.3h7.65v2.18h-7.65V294h9.29v2.08H226.59V294H236v-2.19h-7.65v-2.18H236v-2.19h-2.07c-.88.07-1.57.11-2.08.11a8.09,8.09,0,0,0-1.21.11,4.12,4.12,0,0,0-1.2.11l-.87-2.08a6.72,6.72,0,0,0,1.42-.66l.44-.22a21.49,21.49,0,0,0,3-2.29Zm-1.31-8.1v2.19h16.84v-2.19Z"/><path d="M250.1,278.72V276.2h3.18v-5.14H256v5.14H259v2.52H256v2.95q2.3,1.75,3.83,3.17l-1.64,2.3-1.53-1.53L256,285V297.2h-2.73V284.52a26,26,0,0,1-3.07,6.23,9.06,9.06,0,0,1-.22-1c-.21-1.39-.4-2.37-.54-3a24.77,24.77,0,0,0,3.72-8.09Zm24.72,17.94q-7.87-3.29-9.84-10.94h-2v7.87c.44-.14,1.09-.4,2-.76,1.16-.44,2.08-.77,2.73-1,0,1,0,1.9.11,2.63q-2.29.76-4.92,1.75l-2,1-1.53-2.29a2.52,2.52,0,0,0,.88-2.19V272.16h14.1v13.56h-6.67a22.93,22.93,0,0,0,1.75,3.72c.22-.15.51-.33.88-.55q1.64-1.09,3.72-2.62l1.75,2.07q-2.19,1.43-4.82,2.85a15.59,15.59,0,0,0,5.36,2.84c-.22.36-.51.88-.87,1.53S275,296.44,274.82,296.66Zm-11.81-22v3.06h8.64v-3.06Zm0,8.53h8.64v-3.06H263Z"/><path d="M290.35,272.05l3.39.32.11.11a4.82,4.82,0,0,0-.43.88,1.46,1.46,0,0,1-.22.44v.43c-.08.59-.15,1.24-.22,2,.8-.07,1.93-.22,3.39-.43a14.19,14.19,0,0,0,1.42-.22l-.22,2.51a28,28,0,0,1-4.59.55,10.17,10.17,0,0,1,.11,1.75c.07.73.11,1.31.11,1.75h.22a21.81,21.81,0,0,0,4.81-.77l-.44,2.52a18.14,18.14,0,0,1-4.37.76c.07,1.68.18,3.43.32,5.25a19.32,19.32,0,0,1,6.13,3.4l-1.31,2a17.86,17.86,0,0,0-4.71-2.51,3.51,3.51,0,0,1-2.18,3.17,7.18,7.18,0,0,1-3.39.66h-1a5.48,5.48,0,0,1-4.05-1.43,3,3,0,0,1-.87-3.6,4.34,4.34,0,0,1,2.08-1.75,11.06,11.06,0,0,1,3.72-.66h1.09a8.91,8.91,0,0,1,1.64.22c-.44-.15-.37-.15.22,0a28.36,28.36,0,0,0-.22-3c-.07-.65-.11-1.16-.11-1.53h-2.3a34.51,34.51,0,0,1-3.93-.22l-.22-.1-.55-2.41v-.22c.29.07.66.15,1.09.22a20,20,0,0,0,3.07.33h2.73c0-1.1,0-2.37-.11-3.83h-.65c-1.9,0-3.72-.07-5.47-.22l-.22-.11-.66-2.51a16.2,16.2,0,0,1,2.19.21,25.06,25.06,0,0,0,2.73.22h2.08V275A23.57,23.57,0,0,0,290.35,272.05ZM288,291.19h-.66c-1.68.14-2.55.76-2.62,1.86.07.43.43.76,1.09,1a13.82,13.82,0,0,0,1.64.11h.66a4.66,4.66,0,0,0,2.4-.44,2.18,2.18,0,0,0,.77-1.75v-.43a9.59,9.59,0,0,1-1.1-.11A17,17,0,0,0,288,291.19Z"/><path d="M305.45,277.52h.65a15.2,15.2,0,0,0,3.28-.55l1.32-.33c1.38-.36,2.73-.69,4-1q3.61-.89,7.11-1.54a21.79,21.79,0,0,0,4.38-1,3.3,3.3,0,0,0,.33,1.2,3.75,3.75,0,0,1,.22,1.64l-1.54.33a7.49,7.49,0,0,0-3.71,1.21,8.62,8.62,0,0,0-3.18,4.7,15.72,15.72,0,0,0-.65,3.83v.65a5.77,5.77,0,0,0,1.64,4.27,6.38,6.38,0,0,0,4.26,1.64h.55a7,7,0,0,0,1.75-.22v3.28H325a12.8,12.8,0,0,1-6.9-1.86,8.64,8.64,0,0,1-3.28-6.89v-.55q0-4.26,3.39-9c-2.91.72-5.83,1.53-8.75,2.4a3.29,3.29,0,0,1-.76.22,3,3,0,0,0-1.53.88l-1.75-3.07Zm20.12,1.53,1.53-1.43c.22.22.51.55.88,1a17.62,17.62,0,0,1,1.75,2l-1.53,1.31A17.33,17.33,0,0,0,325.57,279.05Zm3-2.19,1.53-1.31a18.7,18.7,0,0,1,2.51,2.84l-1.64,1.31A22.66,22.66,0,0,0,328.53,276.86Z"/><path d="M337.93,280.25c-1.31-.95-2.7-1.86-4.15-2.73l1.31-2c1.24.65,2.66,1.46,4.26,2.4Zm-1.75,11.37v-2.18h9.3v-1.53h2.95v1.53H358v2.18h-9.52v2.3h11.7v2.3H333.88v-2.3h11.6v-2.3Zm.66-3.39-2.41-1.31q1.86-3.06,3.5-6.23a15.49,15.49,0,0,0,1.53.76,4.71,4.71,0,0,0,.88.44C339.39,283.49,338.22,285.61,336.84,288.23ZM340,275.77c-.66-.44-1.6-1-2.84-1.75a13.78,13.78,0,0,1-1.43-.88l1.43-2.08q2.07,1.1,4.37,2.52Zm.55,12c-.37-.66-.77-1.32-1.21-2a32.86,32.86,0,0,0,5.69-3l1.42,1.65Q343.19,286.49,340.56,287.8Zm4.26-9.41V277c-.29.14-.76.36-1.42.65a20.12,20.12,0,0,1-1.86.77c-.51-.8-1-1.57-1.42-2.3a22.71,22.71,0,0,0,9.19-5.36l2.95.33-.66.66a27.34,27.34,0,0,0,8.53,4.15,5.27,5.27,0,0,1-.32.55,16.13,16.13,0,0,0-1,1.86,1.17,1.17,0,0,0-.44-.22,21,21,0,0,1-2.95-1.31v1.64h-3.94v1.86h7.11v2.19h-7.11v2.29q.12,3.18-2.84,3.07c-.95.07-2,.11-3.06.11a12.31,12.31,0,0,0-.44-2.08c.88.07,1.68.11,2.41.11a1.16,1.16,0,0,0,1.31-1.32v-2.18h-7.55v-2.19h7.55v-1.86Zm5.25-5.14a19.78,19.78,0,0,1-4.48,3.17h9.29A24,24,0,0,1,350.07,273.25Zm8.31,14.55a28.13,28.13,0,0,0-3.28-1.75c-.94-.44-1.67-.81-2.18-1.1l1.2-1.75a1,1,0,0,0,.44.22,52.55,52.55,0,0,1,5.14,2.41Z"/><path d="M370.31,280.47V281a6.6,6.6,0,0,0,.43,2.62H371l1.1-1.75h.32l1.21,1.09c-.15.3-.33.7-.55,1.21a10.93,10.93,0,0,0-1.2,4.26v.44a15.56,15.56,0,0,1-2.63.22,9,9,0,0,1-1.09-2.84,17.85,17.85,0,0,1-.66-4.93v-.87a28.72,28.72,0,0,1,.44-4.05,22.44,22.44,0,0,0,.44-3.61c1.09.07,2.15.18,3.17.33a21.51,21.51,0,0,0-.55,2.3A26.78,26.78,0,0,0,370.31,280.47Zm7.65-7.66,3.61-.33.22.11a11.48,11.48,0,0,0,.22,3.72,4.58,4.58,0,0,0,.22,1.21,37.48,37.48,0,0,1,.33,4.15v1.75a15.88,15.88,0,0,1-1.21,6.67,16.42,16.42,0,0,1-4.59,6.68q-.11.21-.33,0l-2.51-1.21-.11-.22a17.45,17.45,0,0,0,3.93-4.7,16.18,16.18,0,0,0,1.75-7.55V281A19.89,19.89,0,0,0,378,272.81Z"/><path d="M401,284.73c-.44-.36-1.2-.94-2.3-1.75-.8-.65-1.38-1.13-1.75-1.42a9.57,9.57,0,0,1-3.71,3.5h19.57V297.2H410v-1.31H395.9v1.31h-2.84v-12c-.66.29-1.35.62-2.08,1a7.73,7.73,0,0,0-1.1-1.86,3,3,0,0,0-.32-.44c3.2-1.24,5.1-2.63,5.68-4.16H390v-2.18h5.8v-1.86h-5.14v-2.08h5.14l.11-2.52h2.63l-.11,2.52h3.71v2.08h-3.82v1.86h4v2.18H398.2c1.31.81,2.77,1.79,4.37,3q3.82-1.43,4.49-3h-3.61v-2.18h4.15V277a4.25,4.25,0,0,0,.11-.88v-.43h-4v-2.08h4v-2.52h2.63l-.11,2.52h5v2.08h-5l-.11,1.53v.33h5.69v2.18h-5.25c.87,1.68,2.77,2.92,5.68,3.72-.43.73-.87,1.53-1.31,2.41-3.06-1.24-5.07-2.77-6-4.6-.59,1.24-2.23,2.45-4.93,3.61a15.17,15.17,0,0,0-1.42-2.18Zm-5.14,2.52v2.3H410v-2.3Zm0,4.27v2.29H410v-2.29Z"/><path d="M422,280.36h.55a30.07,30.07,0,0,0,5.79-.55,11.7,11.7,0,0,0,3.72-.76c.37-.15.59-.29.66-.44H433l2.51,1.53c.15.07.19.22.11.44v.11a17.65,17.65,0,0,0-3.5,3.72l-1.31,1.64h.77a3.38,3.38,0,0,1,2.07.65,4.46,4.46,0,0,1,.77,2.19,7.15,7.15,0,0,1,.22,1,12.28,12.28,0,0,0,.44,2,1.66,1.66,0,0,0,1.53,1.43h1.31a16.66,16.66,0,0,0,3.94-.55v2.95a29.21,29.21,0,0,1-3.5.22H436a3.45,3.45,0,0,1-3.06-1.42,9.55,9.55,0,0,1-1.1-3.28,1.84,1.84,0,0,0-.1-.55,8.35,8.35,0,0,0-.22-1.09,1.63,1.63,0,0,0-1.43-1,3.06,3.06,0,0,0-2.29,1.31,59.66,59.66,0,0,0-4.71,6h-.21a21.5,21.5,0,0,0-2.74-1.75V294a87.5,87.5,0,0,0,7.66-8.42,19.83,19.83,0,0,0,2.62-3.72l-.11-.22a11.32,11.32,0,0,1-3.28.88,13.33,13.33,0,0,0-2.51.65,1.12,1.12,0,0,0-.55.22c-.22.22-.4.29-.55.22Zm7-8.75h.22a34.56,34.56,0,0,0,5.36,2.51,1,1,0,0,0,.33.22.81.81,0,0,1,.54.33l-.87,2.3-.33.11a34.63,34.63,0,0,1-6.45-3.06v-.22Z"/><path d="M458.46,270.73l3.83.66a10.13,10.13,0,0,0-.55,3.39v1h9v3.17a43.94,43.94,0,0,0-8.2-.55h-.77v3.39l.11.11a6.1,6.1,0,0,1,1,3.72v1.86a13.59,13.59,0,0,1-1.1,4.59,17.31,17.31,0,0,1-2.4,3.61c-.66.66-1.35,1.31-2.08,2H457a13.79,13.79,0,0,0-3.17-1.53v-.22a10.9,10.9,0,0,0,5.8-5.58,4.43,4.43,0,0,1-4.27,0,5.16,5.16,0,0,1-2.19-4.37v-.55q.56-4.49,4.6-5h1.31v-2h-1.2a41.4,41.4,0,0,0-9.3,1.09l-.22-.11-1.09-3.17.11-.22c.21,0,.61,0,1.2.11a10.1,10.1,0,0,0,1.31.11h1.31c.29,0,.92,0,1.86-.11q3.39-.1,6-.22c-.15-1.67-.33-3.13-.55-4.37A5,5,0,0,1,458.46,270.73Zm.66,14.66V284c-.07-.73-.37-1.13-.88-1.2a1.49,1.49,0,0,0-1.09.43,2.81,2.81,0,0,0-1,2.19v.66c.07,1.46.54,2.22,1.42,2.29.51,0,.94-.4,1.31-1.2A3.43,3.43,0,0,0,459.12,285.39Z"/><path d="M478.7,274.56h1.53a25.82,25.82,0,0,0,8.09-1.09,1,1,0,0,0,.44-.11,1.6,1.6,0,0,1,.66-.22h.11l2.84,2.3v.11a11.23,11.23,0,0,0-2.52,2.4c-.36.44-.94,1.13-1.75,2.08s-1.42,1.57-1.86,2.08a12.66,12.66,0,0,0,1.32-.11,9.57,9.57,0,0,1,1.2-.11h.55a7.76,7.76,0,0,1,4.81,1.75,6.06,6.06,0,0,1,2.08,4.7v.33a6.5,6.5,0,0,1-3.28,5.36,9.85,9.85,0,0,1-5.47,1.64H487q-5-.44-5.36-3.72v-.43q.33-2.85,3.72-3.18h.55q2.73,0,5.36,3.5a4.73,4.73,0,0,0,1.75-3.39v-.54q-.33-3.07-4-3.39h-.55a9.32,9.32,0,0,0-7.33,3.82.28.28,0,0,1-.11.22,1.85,1.85,0,0,1-.54.55l-2.63-2v-.33a41,41,0,0,0,9.3-10.17,15.13,15.13,0,0,0-6,1.31c-.07,0-.14.08-.22.22a.84.84,0,0,1-.76.22l-1.42-3.61ZM486,293.27h.54a4.59,4.59,0,0,0,1.42-.22,1.52,1.52,0,0,0-.76-1.21,2.58,2.58,0,0,0-2.63-.87c-.65.36-.84.84-.54,1.42S485,293.19,486,293.27Z"/><path d="M514.13,290.86h2.3a35,35,0,0,0,8.1-1v3.5a45.21,45.21,0,0,1-8.43.66h-1.64a12.39,12.39,0,0,1-5.14-.87,13.3,13.3,0,0,1-3.83-2.85V290l1.86-1.64c.08-.14.11-.14.11,0a8.66,8.66,0,0,0,3.17,2.08A10.22,10.22,0,0,0,514.13,290.86Zm.55-15.31h.88a25.7,25.7,0,0,0,5.14-.77c-.08,0,0,0,.33-.11v3.17c-1.54.15-3,.22-4.49.22H514a43.21,43.21,0,0,1-4.49-.44l-.22-.1-.65-3.07.11-.11a5.41,5.41,0,0,0,.87.22A19,19,0,0,0,514.68,275.55Z"/><path d="M549.24,276.64l2.41,2.73v.22A40,40,0,0,0,541,284.08a13.2,13.2,0,0,0-3.39,3.28,3.8,3.8,0,0,0-.66,1.86v.44a3.4,3.4,0,0,0,2.08,2.95,8.49,8.49,0,0,0,3.72.66h.77a23.11,23.11,0,0,0,6.34-.88l.22,3.28c-1.9.15-3.72.22-5.47.22H543a10.06,10.06,0,0,1-5.8-1.2,5.43,5.43,0,0,1-2.84-4.92v-.55c.07-2.48,1.57-4.74,4.48-6.78a1.06,1.06,0,0,1,.55-.44,43.79,43.79,0,0,0-3.5-9.19l3-.54a61.84,61.84,0,0,1,3.28,8.2l3.94-2A12.89,12.89,0,0,0,549.24,276.64Z"/><path d="M564.56,273.14l3.72.88-.33.87a4.16,4.16,0,0,0-.33.55,7.29,7.29,0,0,0-.22,1.2,1.9,1.9,0,0,0-.11.55,11.94,11.94,0,0,0-.22,1.31,5,5,0,0,0-.22,1.09,3,3,0,0,1,.88-.11,7.51,7.51,0,0,1,.87-.11,3,3,0,0,0,.66-.1h1.09a5.07,5.07,0,0,1,2.08.43,2.72,2.72,0,0,1,1.1,2.19v1.31a28.72,28.72,0,0,1-1,6.89q-.76,3.72-2.95,4.27a8,8,0,0,1-3.39.76h-.77c-.22-.51-.51-1.13-.87-1.85a7.94,7.94,0,0,1-.44-1l.11-.22a5,5,0,0,1,.76.11,7.36,7.36,0,0,0,1.54.22H567a2.46,2.46,0,0,0,2.3-1.42,17.83,17.83,0,0,0,1-3,26.3,26.3,0,0,0,.66-5,1.26,1.26,0,0,0-1.53-1.31c-.37.07-.91.15-1.64.22l-1.64.33a35.83,35.83,0,0,1-6,12.14l-.22.11a10.11,10.11,0,0,0-1.75-.77,4.25,4.25,0,0,0-.87-.43v-.22a28.29,28.29,0,0,0,3.94-5.58,26.47,26.47,0,0,0,1.64-3.72,8.2,8.2,0,0,0,.43-1,28.63,28.63,0,0,0-3.28,1.09,1.59,1.59,0,0,1-1,.33l-1.2-3.07.21-.21a2.6,2.6,0,0,1,.66.11,1.84,1.84,0,0,0,.88,0c.5-.08,1.27-.22,2.29-.44s1.64-.37,2.08-.44a2.17,2.17,0,0,1,.11-.66,24.37,24.37,0,0,0,.55-5.14Zm16.73,10.61-.11.22-2.3,1.31a35.46,35.46,0,0,0-5.35-7.44v-.32l2.07-1.21A31.34,31.34,0,0,1,581.29,283.75Zm.77-7.33v.22l-1.43,1.2h-.21a8.45,8.45,0,0,0-2.63-2.84v-.22l1.31-1.09h.22A23.72,23.72,0,0,1,582.06,276.42Zm-1.53-3.72v-.22l1.31-1.09h.22a1.26,1.26,0,0,0,.32.22c.51.44,1.1,1,1.75,1.64a1.79,1.79,0,0,1,.66,1.09l-1.31,1.21h-.22A11.36,11.36,0,0,0,580.53,272.7Z"/><path d="M585.45,277.52h.65a15.2,15.2,0,0,0,3.28-.55l1.32-.33c1.38-.36,2.73-.69,4-1q3.62-.89,7.11-1.54a21.79,21.79,0,0,0,4.38-1,3.3,3.3,0,0,0,.33,1.2,3.75,3.75,0,0,1,.22,1.64l-1.54.33a7.49,7.49,0,0,0-3.71,1.21,8.62,8.62,0,0,0-3.18,4.7,15.72,15.72,0,0,0-.65,3.83v.65a5.77,5.77,0,0,0,1.64,4.27,6.38,6.38,0,0,0,4.26,1.64h.55a7,7,0,0,0,1.75-.22v3.28H605a12.8,12.8,0,0,1-6.9-1.86,8.64,8.64,0,0,1-3.28-6.89v-.55q0-4.26,3.39-9c-2.91.72-5.83,1.53-8.75,2.4a3.29,3.29,0,0,1-.76.22,3,3,0,0,0-1.53.88l-1.75-3.07Zm20.12,1.53,1.53-1.43c.22.22.51.55.88,1a17.62,17.62,0,0,1,1.75,2l-1.53,1.31A17.33,17.33,0,0,0,605.57,279.05Zm3-2.19,1.53-1.31a18.7,18.7,0,0,1,2.51,2.84l-1.64,1.31A22.66,22.66,0,0,0,608.53,276.86Z"/><path d="M631.38,273.69h.22a7.54,7.54,0,0,1,1,2.29,11.91,11.91,0,0,1-2.63,1.1l-.87.33a10.4,10.4,0,0,1,.87,1.53,13.53,13.53,0,0,1,.77,1.53c.44-.15,1.09-.4,2-.77l2-.65H635l1,2-.11.32-1.2.33a13.18,13.18,0,0,1-1.32.44,4.71,4.71,0,0,1-1.42.44,2.49,2.49,0,0,1,.33.65,47.17,47.17,0,0,0,3.06,4.27.35.35,0,0,0,.11.22,1.6,1.6,0,0,1,.44.87l-2.41,2.3a15.63,15.63,0,0,0-8.75-2.3h-.65a5.18,5.18,0,0,0-2.3.44,2,2,0,0,0-1,2.41q.11.43,1.2,1.2a5.44,5.44,0,0,0,2.51.87,16.69,16.69,0,0,0,3.29.33h.54a7.17,7.17,0,0,0,1.31-.11l-.21,3.07h-.77q-10.17-.56-10.61-5.91v-.55a4.28,4.28,0,0,1,2.19-3.17,10,10,0,0,1,4.37-1h1.1a18.8,18.8,0,0,1,5.47,1h.11c-.15-.22-.37-.58-.66-1.09s-.69-1.43-1.42-2.74a11.42,11.42,0,0,1-2.3.44,56.32,56.32,0,0,1-6,.55l-.21-.11-1.32-2.08.11-.22h.77a34.86,34.86,0,0,0,6.23-.55,4.66,4.66,0,0,0,1.53-.22c-.43-.94-.91-2-1.42-3.06a33.52,33.52,0,0,1-4.7,1,6.5,6.5,0,0,0-.66-1,4.6,4.6,0,0,1-.43-.65,1.62,1.62,0,0,1-.44-.77h.33c1.45-.22,3-.51,4.7-.87a7.21,7.21,0,0,0-.55-1.32l-.65-1.31a.66.66,0,0,0-.22-.44,2.61,2.61,0,0,1-.11-.65l2.95-.55c.44,1.24.88,2.41,1.31,3.5A31.12,31.12,0,0,0,631.38,273.69Z"/><path d="M643.63,277.52H644l9.52-2c4.15-.88,7.29-1.5,9.4-1.86,1.1-.22,2.19-.4,3.29-.55l.21,3.17h-.65c-3.36,0-5.87.91-7.55,2.74a10.36,10.36,0,0,0-2.84,7.32v.44a5.78,5.78,0,0,0,1.53,4.27q1.53,1.64,4.81,1.53h1.86v3.28H661.9a10.17,10.17,0,0,1-6.89-2.41,8.57,8.57,0,0,1-2.3-6.34v-1.09q0-4.28,3.5-8.53c-1,.21-2.4.58-4.37,1.09-1,.22-1.68.4-2.19.55l-1,.32a12.7,12.7,0,0,0-3.29,1.21Z"/><path d="M255.24,321.64l2.41,2.73v.22A40,40,0,0,0,247,329.08a13.2,13.2,0,0,0-3.39,3.28,3.8,3.8,0,0,0-.66,1.86v.44a3.4,3.4,0,0,0,2.08,2.95,8.49,8.49,0,0,0,3.72.66h.77a23.11,23.11,0,0,0,6.34-.88l.22,3.28c-1.9.15-3.72.22-5.47.22H249a10.06,10.06,0,0,1-5.8-1.2,5.43,5.43,0,0,1-2.84-4.92v-.55c.07-2.48,1.57-4.74,4.48-6.78a1.06,1.06,0,0,1,.55-.44,43.79,43.79,0,0,0-3.5-9.19l2.95-.54a61.84,61.84,0,0,1,3.28,8.2l3.94-2A12.89,12.89,0,0,0,255.24,321.64Z"/><path d="M265.63,322.52H266l9.52-2c4.15-.88,7.29-1.5,9.4-1.86,1.1-.22,2.19-.4,3.29-.55l.21,3.17h-.65c-3.36,0-5.87.91-7.55,2.74a10.36,10.36,0,0,0-2.84,7.32v.44a5.78,5.78,0,0,0,1.53,4.27q1.53,1.64,4.81,1.53h1.86v3.28H283.9a10.17,10.17,0,0,1-6.89-2.41,8.57,8.57,0,0,1-2.3-6.34v-1.09q0-4.28,3.5-8.53c-.95.21-2.4.58-4.37,1.09-.95.22-1.68.4-2.19.55l-1,.32a12.7,12.7,0,0,0-3.29,1.21Z"/><path d="M302.06,316.39h.43l3.18.88v.21a1.63,1.63,0,0,0-.55.88l-.33.66c-.29.94-.55,1.93-.76,3a1,1,0,0,1-.11.33,5.37,5.37,0,0,1-.22.54h2.08a10.75,10.75,0,0,0,1.85-.22,3.09,3.09,0,0,1,.66-.1l-.55,2.73a.44.44,0,0,1-.32.11h-4.27c-.07.51-.15,1.2-.22,2.08s-.25,1.82-.33,2.4a18.31,18.31,0,0,0,5.25.11v.44l-.43,2.19a.49.49,0,0,1-.33.11h-2.3c-.8,0-1.64,0-2.51-.11v.76a2.91,2.91,0,0,0-.11.77v1.09a4.1,4.1,0,0,0,1.09,2.85,4,4,0,0,0,2.52,1h.65a4.69,4.69,0,0,0,3.17-1.09,4.51,4.51,0,0,0,1.1-3v-.43c0-1.24-.7-3-2.08-5.14a2.55,2.55,0,0,0-.33-.55l3.17-.22a9.48,9.48,0,0,1,2.41,6.13v.54a6.33,6.33,0,0,1-2.3,4.81,6.72,6.72,0,0,1-4.81,1.65h-.66a6.89,6.89,0,0,1-4.7-1.86q-1.75-1.43-1.75-4.93v-1.09a14.68,14.68,0,0,1,.11-1.75,17.5,17.5,0,0,0-1.75-.55,11,11,0,0,0-1.86-.54l.22-2.74a15.7,15.7,0,0,0,3.72,1.1v-.55a15.38,15.38,0,0,0,.44-2c.14-.8.25-1.42.32-1.86q-1.31-.33-2.4-.66c-.59-.07-.88-.18-.88-.32l.22-2.74a22,22,0,0,0,3.39,1c.07-.22.18-.62.33-1.21a6.93,6.93,0,0,1,.22-1.09,4,4,0,0,1,.11-.77,14,14,0,0,0,.22-2.07Z"/><path d="M323.6,329.19c-.43-.44-1.16-1.1-2.18-2-.81-.66-1.39-1.17-1.75-1.53l1.75-2c1.38,1.09,2.77,2.22,4.15,3.39Zm.55-7.33q-2.4-2.19-4-3.5l1.86-2c1.39,1.09,2.77,2.22,4.16,3.39ZM322.84,342l-2.74-.76a3.5,3.5,0,0,1,.11-.55c1-3.79,1.68-6.93,2.19-9.4l1.31.32A12.38,12.38,0,0,0,325,332Q324.37,335.32,322.84,342Zm8-4v-6.46h1.86v4.6h2v-5.8h-5.36V342h-2.51V328h7.76v-2.29h-8.09v-2.3h4.26v-2.52h-4.48v-2.29h4.48v-2.52h2.74v2.52h5v-2.52h2.73v2.52H346v2.29h-4.82v2.52h4.49v2.3h-8.42V328h7.87v10.94c.07,1.9-1,2.88-3.17,2.95h-3.61a4.52,4.52,0,0,0-.22-1.2c-.07-.51-.15-.91-.22-1.2.73.07,1.75.11,3.06.11,1.1,0,1.61-.44,1.54-1.31v-8h-5.36v5.8h2v-4.6H341v6.46Zm2.63-17.07v2.52h5v-2.52Z"/><path d="M351.06,327.33V317.27h20.45v10.06H363v4.15h9.73v2.63H363v4.59c2,.08,5.8.11,11.26.11a11.62,11.62,0,0,0-.87,2.52c-5.62,0-9.44,0-11.49-.11q-6.12-.12-8.53-3.94a21.44,21.44,0,0,1-3.61,5.14c-.73-.87-1.42-1.64-2.07-2.3q4.15-3.6,4.48-10.71l2.84.43q-.21,2.3-.54,4.05,1.86,4,5.47,4.59V327.33Zm3.06-7.55v4.92h14.33v-4.92Z"/><path d="M381,317.27h.21l3.5.65a13.34,13.34,0,0,1-.32,1.42v15.1a5,5,0,0,0,.65,2.95,3,3,0,0,0,2.3,1.09H388a4.09,4.09,0,0,0,1.85-.43,11.23,11.23,0,0,0,2.52-1.21,12.06,12.06,0,0,0,3.06-2.73h.22l1.31,2.51c.15.15.15.22,0,.22a13.42,13.42,0,0,1-4.59,3.28,9.74,9.74,0,0,1-4.81,1.21h-.33a6.37,6.37,0,0,1-3.61-1.1,4.3,4.3,0,0,1-2.19-3.17c-.07-1-.11-2.08-.11-3.17V319.56a5.73,5.73,0,0,0-.22-1.31A6.77,6.77,0,0,1,381,317.27Z"/><path d="M405.63,322.52H406l9.52-2c4.15-.88,7.29-1.5,9.4-1.86,1.1-.22,2.19-.4,3.29-.55l.21,3.17h-.65c-3.36,0-5.87.91-7.55,2.74a10.36,10.36,0,0,0-2.84,7.32v.44a5.78,5.78,0,0,0,1.53,4.27q1.53,1.64,4.81,1.53h1.86v3.28H423.9a10.17,10.17,0,0,1-6.89-2.41,8.57,8.57,0,0,1-2.3-6.34v-1.09q0-4.28,3.5-8.53c-.95.21-2.4.58-4.37,1.09-.95.22-1.68.4-2.19.55l-1,.32a12.7,12.7,0,0,0-3.29,1.21Z"/><path d="M432.87,320.77l.11-.11c1.31.21,2.55.47,3.72.76a2.74,2.74,0,0,1-.22.77,4.52,4.52,0,0,0-.22,1.2,7,7,0,0,0-.11,1.31v.77a20.5,20.5,0,0,0,.44,4.59,38.24,38.24,0,0,0,1.53,4.38c.51,1.16,1.13,1.75,1.86,1.75a2.6,2.6,0,0,0,1.64-.77,9,9,0,0,0,1.75-2.08h.22l1.31,2q.23.1,0,.33a4.79,4.79,0,0,1-1.53,2,5.19,5.19,0,0,1-3.61,1.53q-2.62,0-4.16-3.39a22.48,22.48,0,0,1-.76-2.19,6.73,6.73,0,0,0-.44-1.42,56.42,56.42,0,0,1-1-6.12,9.59,9.59,0,0,0-.11-1.1,8.53,8.53,0,0,0-.22-1c0-.37,0-.91-.11-1.64A8.43,8.43,0,0,0,432.87,320.77Zm16.3,2.84,2.51-.77h.22a38.63,38.63,0,0,1,4.27,7.11,7.2,7.2,0,0,1,1,2.41l-2.62,1.2h-.44a30.43,30.43,0,0,0-5-9.62Z"/><path d="M472.35,317.05l3.39.32.11.11a4.82,4.82,0,0,0-.43.88,1.46,1.46,0,0,1-.22.44v.43c-.08.59-.15,1.24-.22,2,.8-.07,1.93-.22,3.39-.43a14.19,14.19,0,0,0,1.42-.22l-.22,2.51a28,28,0,0,1-4.59.55,10.17,10.17,0,0,1,.11,1.75c.07.73.11,1.31.11,1.75h.22a21.81,21.81,0,0,0,4.81-.77l-.44,2.52a18.14,18.14,0,0,1-4.37.76c.07,1.68.18,3.43.32,5.25a19.32,19.32,0,0,1,6.13,3.4l-1.31,2a17.86,17.86,0,0,0-4.71-2.51,3.51,3.51,0,0,1-2.18,3.17,7.18,7.18,0,0,1-3.39.66h-1a5.48,5.48,0,0,1-4.05-1.43,3,3,0,0,1-.87-3.6,4.34,4.34,0,0,1,2.08-1.75,11.06,11.06,0,0,1,3.72-.66h1.09a8.91,8.91,0,0,1,1.64.22c-.44-.15-.37-.15.22,0a28.36,28.36,0,0,0-.22-3c-.07-.65-.11-1.16-.11-1.53h-2.3a34.51,34.51,0,0,1-3.93-.22l-.22-.1-.55-2.41v-.22c.29.07.66.15,1.09.22a20,20,0,0,0,3.07.33h2.73c0-1.1,0-2.37-.11-3.83h-.65c-1.9,0-3.72-.07-5.47-.22l-.22-.11-.66-2.51a16.2,16.2,0,0,1,2.19.21,25.06,25.06,0,0,0,2.73.22h2.08V320A23.57,23.57,0,0,0,472.35,317.05ZM470,336.19h-.66c-1.68.14-2.55.76-2.62,1.86.07.43.43.76,1.09,1a13.82,13.82,0,0,0,1.64.11h.66a4.66,4.66,0,0,0,2.4-.44,2.18,2.18,0,0,0,.77-1.75v-.43a9.59,9.59,0,0,1-1.1-.11A17,17,0,0,0,470,336.19Z"/><path d="M500.46,315.73l3.83.66a10.13,10.13,0,0,0-.55,3.39v1h9v3.17a43.94,43.94,0,0,0-8.2-.55h-.77v3.39l.11.11a6.1,6.1,0,0,1,1,3.72v1.86a13.59,13.59,0,0,1-1.1,4.59,17.31,17.31,0,0,1-2.4,3.61c-.66.66-1.35,1.31-2.08,2H499a13.79,13.79,0,0,0-3.17-1.53v-.22a10.9,10.9,0,0,0,5.8-5.58,4.43,4.43,0,0,1-4.27,0,5.16,5.16,0,0,1-2.19-4.37v-.55q.56-4.49,4.6-5h1.31v-2h-1.2a41.4,41.4,0,0,0-9.3,1.09l-.22-.11-1.09-3.17.11-.22c.21,0,.61,0,1.2.11a10.1,10.1,0,0,0,1.31.11h1.31c.29,0,.92,0,1.86-.11q3.39-.1,6-.22c-.15-1.67-.33-3.13-.55-4.37A5,5,0,0,1,500.46,315.73Zm.66,14.66V329c-.07-.73-.37-1.13-.88-1.2a1.49,1.49,0,0,0-1.09.43,2.81,2.81,0,0,0-1,2.19v.66c.07,1.46.54,2.22,1.42,2.29.51,0,.94-.4,1.31-1.2A3.43,3.43,0,0,0,501.12,330.39Z"/><path d="M519.06,337.39c.22-2.77,1.71-4.27,4.48-4.48,2.7.21,4.16,1.71,4.38,4.48-.3,2.48-1.75,3.86-4.38,4.16Q519.49,341.22,519.06,337.39Zm1.75,0c.14,1.46,1.05,2.26,2.73,2.41a2.54,2.54,0,0,0,2.63-2.41,2.66,2.66,0,0,0-2.63-2.73A2.69,2.69,0,0,0,520.81,337.39Z"/></g></g></svg>