<svg xmlns="http://www.w3.org/2000/svg" viewBox="0 0 760 730.7"><defs><style>.cls-1{fill:#fff;}</style></defs><g id="レイヤー_2" data-name="レイヤー 2"><g id="_4" data-name="4"><path d="M376.5,730.7h0c-10.4,0-23.8-11.9-29-17a110.3,110.3,0,0,1-27.4-43.4c-10.2-25-9.1-56.8,1.8-84-84.8-3.6-163.4-33.2-222.8-84.3C35.5,447.2.3,373.6,0,294.7-.3,213.6,35.4,139.5,100.4,85.9,168.1,30.1,261.3.4,370,0h3c67.2,0,127.4,8.6,178.9,25.6C599.3,41.2,639.8,64,672.2,93.3c56.3,51,87.5,121.5,87.8,198.5.2,42-11.9,85.1-35,124.7-24.9,42.7-61.7,79.4-106.6,106.1-39.3,23.4-73.7,34.7-104,44.7-40.7,13.4-75.9,25-113,62.3-13.2,13.2-26.8,53.2-11.6,75.3A16.49,16.49,0,0,1,391,722a16.14,16.14,0,0,1-14.5,8.7Z"/><path class="cls-1" d="M370,16C150.8,16.9,15.4,141.5,16,294.6s142.1,276.7,324.9,276h2.8s3-.5,3,3.2c-17.5,25.2-23,63.4-11.5,90.9,12.3,37.2,44.5,53.7,41.5,49.3-21.2-30.7-3.2-79,13.4-95.7,68.4-68.7,129.8-55.8,220.1-109.5C700.8,455,744.2,367.2,744,291.9,743.5,161.4,647.3,15,370,16Z"/><path d="M264.32,97.75V95h11.92V92.17l7.66-4.92H266.72V84.52h21.66v3.39l-9,5.69V95h11.38v2.73H279.41v7c.07,2.63-1.2,3.94-3.83,3.94-1.46.07-3,.11-4.7.11a27,27,0,0,0-.55-3c.66.07,1.9.1,3.72.1,1.53.08,2.26-.65,2.19-2.18v-6Z"/><path d="M292.86,98.74l-.32-2c-.15-1-.26-1.61-.33-2a40.17,40.17,0,0,0,5.36-11.7l2.95.76a45.48,45.48,0,0,1-2.3,5.8v19.58h-2.84V95.13C294.58,96.29,293.74,97.5,292.86,98.74Zm8.75,10.5a16.79,16.79,0,0,0-2.29-2.08,37.09,37.09,0,0,0,6-5.69l2.41,1.64Q304.78,106.17,301.61,109.24Zm-1.2-18V88.56h3.28V83.2h2.85v5.36h5.14V83.2h2.84v5.36h3.28v2.63h-3.28v6.89h4.16v2.62H299.54V98.08h4.15V91.19Zm6.13,0v6.89h5.14V91.19Zm9.84,17.94c-1.9-2-3.9-3.94-6-5.91l2.19-1.75c.73.66,1.75,1.61,3.06,2.84l3.07,2.74Z"/><path d="M327.1,85.17l3.72.88-.33.87a4.92,4.92,0,0,0-.33.55,7.29,7.29,0,0,0-.22,1.2,2,2,0,0,0-.11.55c-.07.29-.14.73-.22,1.31a4.83,4.83,0,0,0-.21,1.1,2.83,2.83,0,0,1,.87-.11,7.34,7.34,0,0,1,.88-.11,3.19,3.19,0,0,0,.65-.11h1.1a5.06,5.06,0,0,1,2.07.44,2.69,2.69,0,0,1,1.1,2.18v1.32a28.86,28.86,0,0,1-1,6.89q-.76,3.72-2.95,4.26a8,8,0,0,1-3.39.77H328q-.33-.76-.87-1.86a7.94,7.94,0,0,1-.44-1l.11-.21a4.66,4.66,0,0,1,.77.1,7.2,7.2,0,0,0,1.53.22h.43a2.45,2.45,0,0,0,2.3-1.42,17.46,17.46,0,0,0,1-3,26.88,26.88,0,0,0,.65-5,1.26,1.26,0,0,0-1.53-1.32,15,15,0,0,1-1.64.22l-1.64.33a35.56,35.56,0,0,1-6,12.14l-.21.11a11,11,0,0,0-1.75-.76,4.71,4.71,0,0,0-.88-.44v-.22a28,28,0,0,0,3.94-5.58,25.33,25.33,0,0,0,1.64-3.72,9,9,0,0,0,.44-1,28.14,28.14,0,0,0-3.29,1.09,1.59,1.59,0,0,1-1,.33l-1.2-3.06.22-.22a3.19,3.19,0,0,1,.65.11,1.84,1.84,0,0,0,.88,0c.51-.07,1.27-.22,2.29-.44s1.64-.36,2.08-.44a2.11,2.11,0,0,1,.11-.65,23.8,23.8,0,0,0,.55-5.14Zm16.73,10.61-.11.22-2.29,1.31a36.07,36.07,0,0,0-5.36-7.43v-.33l2.08-1.2A31,31,0,0,1,343.83,95.78Zm.77-7.33v.22l-1.42,1.21H343A8.5,8.5,0,0,0,340.33,87v-.22l1.32-1.09h.21A25.48,25.48,0,0,1,344.6,88.45Zm-1.53-3.71v-.22l1.31-1.1h.22a1,1,0,0,0,.33.22c.51.44,1.09,1,1.75,1.64a1.83,1.83,0,0,1,.65,1.1L346,87.58h-.22A11.32,11.32,0,0,0,343.07,84.74Z"/><path d="M351.27,103.33a24,24,0,0,0-3.06-1.2,68.13,68.13,0,0,0,5-13.13l3.17.88Q354.22,96.56,351.27,103.33Zm3.94,5.36a9.25,9.25,0,0,0-.66-3c.88.07,2,.11,3.5.11s2.33-.59,2.19-2.19V83.31h3.17v21.33q.22,4-4.05,4ZM371.72,103q-2.19-5.91-5.36-13l3-1L374,99.94a16.83,16.83,0,0,1,.88,2Z"/><path d="M376.65,102.35V99.61h12.14v-.76l4.48-2.74h-12V93.49h16.4v2.62L392,99.61h10.61v2.74H391.85v3.17q.11,3.49-3.72,3.5h-4.27c-.22-1-.43-2-.65-2.85H385c.8.08,1.42.11,1.86.11,1.45.15,2.11-.43,2-1.75v-2.18Zm.65-7.88v-6h16.41l-.44-.21c1.46-2,2.62-3.65,3.5-5l3.17,1c-.29.37-.69.91-1.2,1.64l-2,2.62h5v6H399V91.08H380.15v3.39Zm4.38-6.23c-.3-.44-.73-1.13-1.32-2.08s-1.13-1.53-1.42-2l2.95-.88c1,1.32,2,2.59,2.85,3.83Zm7.11-.55a11.77,11.77,0,0,1-.66-1.2,33,33,0,0,1-1.75-3l2.95-.54c.88,1.31,1.75,2.66,2.63,4Z"/><path d="M404.54,90.86V88.24h3.17V83h2.73v5.25h2.63v2.62h-2.63v2.52l.33.32c.8.66,1.79,1.5,3,2.52l-1.53,2.3-1.75-2v12.69h-2.73V96.66a37.52,37.52,0,0,1-2.85,6.23c-.07-.36-.22-1-.43-1.86a11.38,11.38,0,0,0-.44-2,32.05,32.05,0,0,0,3.61-8.2Zm24.6,17.94a36.47,36.47,0,0,1-7.32-3.83,31.77,31.77,0,0,1-7.88,4.27,17.17,17.17,0,0,0-1.64-2.63,22.13,22.13,0,0,0,7.55-3.61,21.75,21.75,0,0,1-3.61-6.23l2.4-1a22,22,0,0,0,3.18,5.25,15.76,15.76,0,0,0,2.95-5.47l2.62.88a18.56,18.56,0,0,1-3.6,6.56,19.51,19.51,0,0,0,7.1,3.17,9.39,9.39,0,0,1-.87,1.32C429.65,108.07,429.36,108.51,429.14,108.8ZM414.82,97.31a23.66,23.66,0,0,0-1.64-2.07A41,41,0,0,0,418.75,90l2,1.75A56.07,56.07,0,0,1,414.82,97.31Zm-.66-7.87V86.81h6.78c-.29-1.09-.65-2.22-1.09-3.39l2.84-.43,1.2,3.82h6.46v2.63ZM429,97q-3-2.85-5.91-5.25L424.88,90c1.38,1.09,3.21,2.62,5.47,4.59q.21.23.33.33Z"/><path d="M435.71,85.17l3.83,1.21A6.54,6.54,0,0,1,439,87.8q-.23.54-.33.87a22.06,22.06,0,0,0-1.75,8.64v.88a10.27,10.27,0,0,0,1.09,5h.11c.15-.29.33-.69.55-1.2a8.28,8.28,0,0,0,.55-1.1l1.2.22q-.11.56-.33,1.53a18.3,18.3,0,0,0-.54,3.5v.66l-2.63.55a10.18,10.18,0,0,1-2-4.27,23.83,23.83,0,0,1-.55-5.58v-1.2a28.94,28.94,0,0,1,.88-7,15.82,15.82,0,0,0,.44-3.61Zm13.78,17.5h1a23.19,23.19,0,0,0,6.13-.87l.11,3a15.23,15.23,0,0,1-5,.77h-1.21q-5.13,0-7.76-2.41a2.91,2.91,0,0,1-.88-1.31l2-1.2A7.48,7.48,0,0,0,449.49,102.67Zm.11-15.09h1.2a39.75,39.75,0,0,1,4.27.22v2.84c-.51,0-1.21,0-2.08-.11s-1.53-.11-2-.11h-1.2a21.86,21.86,0,0,0-3.07.33,17.56,17.56,0,0,1-2.84.33l-.22-3a20,20,0,0,0,2.52-.22A26.48,26.48,0,0,1,449.6,87.58Z"/><path d="M89.81,169.9v-2.74H99.87V145.51h3.39v7.87h10.5v3h-10.5v10.82h12.58v2.74Z"/><path d="M124.37,147.37l3.72.87c-.07.22-.18.51-.33.88l-.33.54a7.57,7.57,0,0,0-.21,1.21,1.61,1.61,0,0,0-.11.54,10.12,10.12,0,0,0-.22,1.32,4.41,4.41,0,0,0-.22,1.09,2.93,2.93,0,0,1,.87-.11,7.34,7.34,0,0,1,.88-.11,2.61,2.61,0,0,0,.65-.11h1.1a5.11,5.11,0,0,1,2.08.44,2.71,2.71,0,0,1,1.09,2.19v1.31a29.17,29.17,0,0,1-1,6.89q-.77,3.72-3,4.27a7.91,7.91,0,0,1-3.39.76h-.76c-.22-.51-.51-1.13-.88-1.86a9.9,9.9,0,0,1-.44-1l.11-.22a5,5,0,0,1,.77.11,7.28,7.28,0,0,0,1.53.22h.44a2.47,2.47,0,0,0,2.29-1.42,17,17,0,0,0,1-3,26.13,26.13,0,0,0,.66-5,1.27,1.27,0,0,0-1.54-1.31c-.36.07-.91.15-1.64.22l-1.64.33a35.82,35.82,0,0,1-6,12.14l-.22.11a10.88,10.88,0,0,0-1.75-.77,5.44,5.44,0,0,0-.88-.44v-.22A28,28,0,0,0,121,161.7a24.28,24.28,0,0,0,1.64-3.72,7.94,7.94,0,0,0,.44-1,28.08,28.08,0,0,0-3.28,1.1,1.65,1.65,0,0,1-1,.32l-1.2-3.06.22-.22a3.37,3.37,0,0,1,.66.11,1.58,1.58,0,0,0,.87,0c.51-.07,1.28-.22,2.3-.44s1.64-.36,2.08-.43a2.16,2.16,0,0,1,.1-.66,23.8,23.8,0,0,0,.55-5.14ZM141.11,158l-.11.22-2.3,1.31a35.87,35.87,0,0,0-5.36-7.44v-.33l2.08-1.2A31.14,31.14,0,0,1,141.11,158Zm.76-7.33v.22l-1.42,1.2h-.22a8.34,8.34,0,0,0-2.62-2.84V149l1.31-1.1h.22A24,24,0,0,1,141.87,150.65Zm-1.53-3.72v-.22l1.31-1.09h.22a1.43,1.43,0,0,0,.33.22c.51.43,1.09,1,1.75,1.64a1.77,1.77,0,0,1,.66,1.09l-1.32,1.2h-.22A11.15,11.15,0,0,0,140.34,146.93Z"/><path d="M150.51,148.79H152a26.18,26.18,0,0,0,8.1-1.09,1,1,0,0,0,.43-.11,1.65,1.65,0,0,1,.66-.22h.11l2.84,2.29v.11a11.45,11.45,0,0,0-2.51,2.41l-1.75,2.08c-.8.87-1.42,1.57-1.86,2.08a12.31,12.31,0,0,0,1.31-.11,8,8,0,0,1,1.2-.11h.55a7.68,7.68,0,0,1,4.81,1.75,6,6,0,0,1,2.08,4.7v.33a6.47,6.47,0,0,1-3.28,5.36,9.85,9.85,0,0,1-5.47,1.64h-.44c-3.35-.29-5.14-1.53-5.35-3.72v-.44q.32-2.84,3.71-3.17h.55q2.73,0,5.36,3.5a4.73,4.73,0,0,0,1.75-3.39v-.55q-.33-3.06-4.05-3.39h-.54a9.36,9.36,0,0,0-7.33,3.83.33.33,0,0,1-.11.22,2,2,0,0,1-.55.55l-2.62-2V161a41.36,41.36,0,0,0,9.29-10.17,14.9,14.9,0,0,0-6,1.31c-.07,0-.15.07-.22.22a.86.86,0,0,1-.77.22L150.51,149Zm7.33,18.7h.55a4.36,4.36,0,0,0,1.42-.22,1.54,1.54,0,0,0-.77-1.2,2.55,2.55,0,0,0-2.62-.87c-.66.36-.84.83-.55,1.42A2.29,2.29,0,0,0,157.84,167.49Z"/><path d="M186,165.09h2.3a34.87,34.87,0,0,0,8.09-1v3.5a45.09,45.09,0,0,1-8.42.66h-1.64a12.19,12.19,0,0,1-5.14-.88,13.16,13.16,0,0,1-3.83-2.84v-.33l1.86-1.64c.07-.15.11-.15.11,0a8.63,8.63,0,0,0,3.17,2.08A10.22,10.22,0,0,0,186,165.09Zm.55-15.32h.87a25.42,25.42,0,0,0,5.14-.76c-.07,0,0,0,.33-.11v3.17c-1.53.15-3,.22-4.48.22h-2.52a43,43,0,0,1-4.48-.44l-.22-.11-.66-3.06.11-.11a7.44,7.44,0,0,0,.88.22A18.83,18.83,0,0,0,186.5,149.77Z"/><path d="M221.06,150.87l2.41,2.73v.22a39.86,39.86,0,0,0-10.61,4.48,12.93,12.93,0,0,0-3.39,3.29,3.8,3.8,0,0,0-.66,1.86v.43a3.37,3.37,0,0,0,2.08,3,8.59,8.59,0,0,0,3.72.65h.76a23.18,23.18,0,0,0,6.35-.87l.21,3.28c-1.89.14-3.71.22-5.46.22h-1.65a9.92,9.92,0,0,1-5.79-1.21,5.44,5.44,0,0,1-2.85-4.92v-.54c.08-2.48,1.57-4.74,4.49-6.79a1,1,0,0,1,.55-.43,44.15,44.15,0,0,0-3.5-9.19l2.95-.55A63.44,63.44,0,0,1,214,154.7l3.94-2A13.07,13.07,0,0,0,221.06,150.87Z"/><path d="M239.87,145.62h.44l3.17.87v.22a1.69,1.69,0,0,0-.55.88l-.32.65c-.3.95-.55,1.93-.77,3a.85.85,0,0,1-.11.32,4.47,4.47,0,0,1-.22.55h2.08a10.74,10.74,0,0,0,1.86-.22,3.16,3.16,0,0,1,.66-.11l-.55,2.74a.45.45,0,0,1-.33.11H241c-.08.51-.15,1.2-.22,2.07-.15,1-.26,1.83-.33,2.41a18.3,18.3,0,0,0,5.25.11v.44l-.44,2.18a.41.41,0,0,1-.33.11h-2.29c-.81,0-1.64,0-2.52-.11v.77a3.39,3.39,0,0,0-.11.77v1.09a4.12,4.12,0,0,0,1.09,2.84,4,4,0,0,0,2.52,1h.66a4.68,4.68,0,0,0,3.17-1.1,4.47,4.47,0,0,0,1.09-2.95v-.44q0-1.86-2.08-5.14a2.36,2.36,0,0,0-.32-.54l3.17-.22a9.46,9.46,0,0,1,2.4,6.12v.55a6.32,6.32,0,0,1-2.29,4.81,6.74,6.74,0,0,1-4.82,1.64h-.65a6.85,6.85,0,0,1-4.7-1.86q-1.75-1.41-1.75-4.92v-1.09a14.55,14.55,0,0,1,.1-1.75,15.92,15.92,0,0,0-1.75-.55,12.64,12.64,0,0,0-1.85-.55l.21-2.73a15.83,15.83,0,0,0,3.72,1.09v-.54a14.16,14.16,0,0,0,.44-2q.22-1.2.33-1.86c-.88-.22-1.68-.44-2.41-.66q-.87-.1-.87-.33l.22-2.73a21.34,21.34,0,0,0,3.39,1c.07-.22.18-.62.32-1.2a8.35,8.35,0,0,1,.22-1.09,5,5,0,0,1,.11-.77,12.89,12.89,0,0,0,.22-2.08Z"/><path d="M263,151.09h1.64c.36,0,1,0,1.75-.11h.88a1.84,1.84,0,0,1,.1-.55,25.38,25.38,0,0,0,.22-2.84,6.24,6.24,0,0,0-.11-1.1H268c.37,0,.88,0,1.53.11a12.52,12.52,0,0,0,1.31.11,1.61,1.61,0,0,1-.21,1.09,1.06,1.06,0,0,0-.22.55,5,5,0,0,1-.22,1.1,7.29,7.29,0,0,1-.22,1.2,3.69,3.69,0,0,0,1.2-.22,30.09,30.09,0,0,0,4.92-1.09v2.73c-2,.44-4,.84-6,1.2h-.55c-.07.73-.14,1.61-.22,2.63a19.22,19.22,0,0,1,3.39-.66,2,2,0,0,1,.11-.44v-.65c-.07-.15,0-.29.22-.44l2.63.44.11.22-.11.11a5.41,5.41,0,0,0-.33.87,7.15,7.15,0,0,1,4.37,1.64,8.14,8.14,0,0,1,2.52,5.36v.77c-.07,2.62-1.5,4.81-4.27,6.56a5.21,5.21,0,0,1-2.62,1.09h-.11a11.56,11.56,0,0,0-2.41-2.07A8.65,8.65,0,0,0,277.5,167a5.67,5.67,0,0,0,2.07-4v-.33a5.39,5.39,0,0,0-2.29-4.27,4.28,4.28,0,0,0-1.21-.43h-.21a3.94,3.94,0,0,0-1.21-.33,25.57,25.57,0,0,1-4.7,8,15.35,15.35,0,0,0,.77,2c-.22.08-.59.22-1.1.44a3.3,3.3,0,0,1-1.2.33c-.22,0-.4-.22-.55-.66a2.18,2.18,0,0,1-1.2.66,6.63,6.63,0,0,1-4.05,1.64h-.44q-2.51-.1-2.73-3.72v-.44q.1-3.17,3.17-6.45a14.2,14.2,0,0,1,4.05-2.52c0-.43,0-1.13.11-2.07a6.66,6.66,0,0,1,.11-1.1h-1.64c-.81.07-1.43.11-1.86.11h-1.64c-.22,0-.33,0-.33-.11a3,3,0,0,1-.66-1.53V152c-.22-.44-.25-.76-.11-1C261.45,151.05,262.22,151.09,263,151.09Zm4.16,14-.11-.33a45.62,45.62,0,0,1-.33-5.47,9.64,9.64,0,0,0-4.05,4.16,3.8,3.8,0,0,0-.65,2.18c.07,1.1.54,1.64,1.42,1.64a4.33,4.33,0,0,0,2.73-1.2A6.12,6.12,0,0,1,267.11,165.09Zm2.18-7v2.62a6.89,6.89,0,0,0,.11,2,18.85,18.85,0,0,0,2.85-5.25c-1.24.22-2.12.4-2.63.55A.45.45,0,0,1,269.29,158.09Z"/><path d="M294.12,154.7v.54a6.6,6.6,0,0,0,.44,2.63h.22l1.09-1.75h.33l1.2,1.09c-.14.29-.33.69-.54,1.2a10.84,10.84,0,0,0-1.21,4.27v.44a16.54,16.54,0,0,1-2.62.22,8.86,8.86,0,0,1-1.1-2.85,18.11,18.11,0,0,1-.65-4.92v-.87a27.27,27.27,0,0,1,.44-4,22.16,22.16,0,0,0,.43-3.61c1.1.07,2.15.18,3.17.33a21.93,21.93,0,0,0-.54,2.29A26.3,26.3,0,0,0,294.12,154.7Zm7.66-7.66,3.61-.33.22.11a11.42,11.42,0,0,0,.21,3.72,5,5,0,0,0,.22,1.2,37.8,37.8,0,0,1,.33,4.16v1.75a16.06,16.06,0,0,1-1.2,6.67,16.3,16.3,0,0,1-4.6,6.67c-.07.15-.18.15-.32,0l-2.52-1.2-.11-.22a17.68,17.68,0,0,0,3.94-4.7,16.3,16.3,0,0,0,1.75-7.55v-2.08A19.84,19.84,0,0,0,301.78,147Z"/><path d="M326,165.09h2.3a34.87,34.87,0,0,0,8.09-1v3.5a45.09,45.09,0,0,1-8.42.66h-1.64a12.19,12.19,0,0,1-5.14-.88,13.16,13.16,0,0,1-3.83-2.84v-.33l1.86-1.64c.07-.15.11-.15.11,0a8.63,8.63,0,0,0,3.17,2.08A10.22,10.22,0,0,0,326,165.09Zm.55-15.32h.87a25.42,25.42,0,0,0,5.14-.76c-.07,0,0,0,.33-.11v3.17c-1.53.15-3,.22-4.48.22h-2.52a43,43,0,0,1-4.48-.44l-.22-.11-.66-3.06.11-.11a7.44,7.44,0,0,0,.88.22A18.83,18.83,0,0,0,326.5,149.77Z"/><path d="M348.59,148.57V148a6.31,6.31,0,0,0-.22-1.53,29.31,29.31,0,0,0,3.72.22V147a3.53,3.53,0,0,0-.66,1.2,1,1,0,0,0-.11.33,31.56,31.56,0,0,0-.65,3.28.1.1,0,0,0,.11-.11l2,1.53c.07.15,0,.33-.22.55a.31.31,0,0,0-.22.11,3.77,3.77,0,0,0-.55.87c-.29.37-.51.66-.65.88.36-.29.91-.77,1.64-1.42,2.33-2.34,4.37-3.46,6.12-3.39h.44a4.13,4.13,0,0,1,1.86.43,2.68,2.68,0,0,1,1.2,2v.44a51.58,51.58,0,0,1-.55,6.24c-.21,1.38-.36,2.4-.43,3.06a4.26,4.26,0,0,0,.11,2.29c.29.66.87.84,1.75.55a6.17,6.17,0,0,0,2.51-1.64l.44-.44.11-.11c.36-.58.73-.87,1.09-.87l.88,3a21.66,21.66,0,0,1-2.85,2.52,6,6,0,0,1-3.06,1.09h-.44a4.23,4.23,0,0,1-2.51-1.2,6.08,6.08,0,0,1-.77-3.28v-.44a38.87,38.87,0,0,1,.55-5.36,11.72,11.72,0,0,1,.22-1.42,4,4,0,0,1,.11-.77,7.92,7.92,0,0,0,.22-1.53v-.44c-.15-.87-.88-1.24-2.19-1.09a9.92,9.92,0,0,0-2.74,1.75l-.21.22a29.89,29.89,0,0,0-3.61,3.28,4.1,4.1,0,0,0-.55.77l-.66.65v.88c0,1.16.11,2.95.33,5.36.15,1.67.22,3,.22,3.82h-3.17V166.4c0-1,0-1.86.11-2.74a39.07,39.07,0,0,0-3.28,4.6h-.22l-2.41-1.42v-.22q5.69-6.13,6.67-10.83c-.36.15-.87.36-1.53.66a11.12,11.12,0,0,0-3.39,1.64l-1.53-3.29.11-.21a16.62,16.62,0,0,0,6.45-1.32c.07-.36.15-.91.22-1.64s.11-1.16.11-1.53a5,5,0,0,1,.11-.76Z"/><path d="M382.17,153.49h1.64a2.39,2.39,0,0,1,2.19.88,3.39,3.39,0,0,1,.65,2.08v.43a24.28,24.28,0,0,1-1,6.46q-.89,3.82-3.06,4.92a7.48,7.48,0,0,1-3.72.76h-.55c-.22,0-.33,0-.33-.11-.14-.29-.33-.69-.54-1.2a16.34,16.34,0,0,0-.77-1.53v-.11a9.57,9.57,0,0,1,1.2.11,9.59,9.59,0,0,0,1.1.11h.43a2.32,2.32,0,0,0,2.08-1,7.07,7.07,0,0,0,1.1-2,.35.35,0,0,0,.11-.22,14.43,14.43,0,0,0,1-5.25v-.66c-.07-.8-.44-1.24-1.09-1.31a19.54,19.54,0,0,0-2.41.22,9.57,9.57,0,0,1-1.2.11,41.92,41.92,0,0,1-4.16,9,18.84,18.84,0,0,1-2.3,3.06,2.85,2.85,0,0,1-1.31-.55l-.55-.33a.27.27,0,0,1-.21-.11c-.44-.07-.7-.22-.77-.43a18.33,18.33,0,0,0,4.27-5.91c.72-1.46,1.42-2.88,2.07-4.27a8.41,8.41,0,0,0-3.17.88l-.11.11a1.31,1.31,0,0,1-.76.22l-1.53-3.17.1-.22a10.92,10.92,0,0,0,3.07,0,7.61,7.61,0,0,1,1.09-.11,7.19,7.19,0,0,1,2.08-.33c.14-.44.25-.8.33-1.09a14.08,14.08,0,0,0,.65-4.38v-.77a1,1,0,0,1-.11-.43c.3.07.7.14,1.21.22,1,.14,1.82.29,2.4.43a1.65,1.65,0,0,1-.43,1,.28.28,0,0,0-.11.22,4.62,4.62,0,0,0-.33,1.53,1.9,1.9,0,0,0-.11.54,5.86,5.86,0,0,1-.22,1.21c-.07.51-.15.91-.22,1.2A13.43,13.43,0,0,1,382.17,153.49Zm5.36-1.42v-.33a6.35,6.35,0,0,1,1-.76c.44-.37.77-.62,1-.77s.54.07,1,.66a16,16,0,0,1,2.08,2.29,48.49,48.49,0,0,1,3.39,4.49V158l-2.63,1.64A44.65,44.65,0,0,0,387.53,152.07Z"/><path d="M402.29,151.41l3.07.66a44.63,44.63,0,0,0-1,8.2c2.7-2.18,5.32-3.28,7.88-3.28H413a9.2,9.2,0,0,1,4.92,1.21,5.51,5.51,0,0,1,2.3,4.15v.55a6.52,6.52,0,0,1-2.3,4.81,16,16,0,0,1-5,2.41,5.44,5.44,0,0,1-2.62.65l-1.42-2.4v-.11a36.88,36.88,0,0,0,4.37-1q3.72-1.53,3.72-3.93v-.44q-.22-3-4.05-3.28h-.43a11.88,11.88,0,0,0-4.38,1.09,7.39,7.39,0,0,0-3.5,3.5l-3.17-1.09.33-2.74q.54-5.13.54-7.76Zm2.3-3.82,1.86-2.08a4.4,4.4,0,0,1,.87.44,36.69,36.69,0,0,1,4.82,2.4v.22l-1.86,2A30.22,30.22,0,0,0,404.59,147.59Z"/><path d="M451.84,158v.76a9.92,9.92,0,0,1-2.95,6.89,13.49,13.49,0,0,1-5.47,3.94c0,.15-.07.15-.22,0a10,10,0,0,0-2.52-1.64v-.22q7.88-3.72,8-9.51v-.55a7.09,7.09,0,0,0-2.41-5,8.65,8.65,0,0,0-4.59-2,60.72,60.72,0,0,1-2.41,8,50.42,50.42,0,0,1-3.39,7.11c-.95,1.75-2.11,2.63-3.5,2.63q-3.28-.12-5.47-3.72a7.67,7.67,0,0,1-1.09-3.72v-.55a10.31,10.31,0,0,1,.87-3.61,13.34,13.34,0,0,1,2-3.28,12.35,12.35,0,0,1,5.91-4.48,15.71,15.71,0,0,1,5-1.1h1.2a11,11,0,0,1,8,3A10.33,10.33,0,0,1,451.84,158Zm-23.08,1.86v.54a6,6,0,0,0,1.1,3.39,2.48,2.48,0,0,0,2.07,1.32,2.79,2.79,0,0,0,1.86-1.32,18.75,18.75,0,0,0,1.1-2,7.7,7.7,0,0,1,.33-.76,37.05,37.05,0,0,0,3.71-10.39,17.37,17.37,0,0,0-4.15,1.09,14.81,14.81,0,0,0-4.49,4A8.56,8.56,0,0,0,428.76,159.84Z"/><path d="M456.11,157.65V147.8h2.95v7h6.12v-9.4h3.18v9.4h6.12v-7h3.06v9.85h-9.18v9.84h7.11v-7.11h2.95V171.1h-2.95V170H455.12v-9.63h2.95v7.11h7.11v-9.84Z"/><path d="M482.68,159.51a8.4,8.4,0,0,0-1-2c4.16-.51,6.67-1.31,7.55-2.41h-6.13l.88-4.81h6.23V148.9h-7V147h7v-1.75H493V147h4v-1.75h2.74V147h6.56V152h-6.56v1.53h7.54a8.09,8.09,0,0,1-.11,1.21,3.57,3.57,0,0,1-.11,1.09,1.9,1.9,0,0,1-2.18,2v9.84h-20v-8.42Zm.11,12c-.07-.22-.22-.59-.43-1.09s-.41-.81-.55-1.1l2-.33c2.19-.36,4.88-.73,8.09-1.09l1,1.64Q486.73,170.89,482.79,171.54ZM486.4,152l-.33,1.53H490a4,4,0,0,0,.22-1.31V152Zm1.32,7.11v1.31H502v-1.31Zm0,2.73v1.32H502V161.8Zm0,2.74V166H502v-1.42Zm9.29-7.66v-1.75h-4.59a4.4,4.4,0,0,1-2.3,2.3h11.81a1.76,1.76,0,0,0-.21-.66,5.37,5.37,0,0,0-.22-.54h2.07q.89,0,1-.66v-.44h-4.81v1.75Zm-4-4.59a3.26,3.26,0,0,1-.11.66v.54H497V152h-4Zm0-3.39v1.42h4V148.9Zm14,22.53c-3.87-.8-7.22-1.42-10.07-1.86l.77-1.64c3.28.29,6.63.77,10.06,1.42Zm-3.29-22.53h-3.93v1.42h3.93Z"/><path d="M519.54,145.62l3.5.87v.22l-.76.88c-.08.21-.22.58-.44,1.09a4.25,4.25,0,0,1-.44,1.2,19.23,19.23,0,0,0,4.38-1.09v3a30.76,30.76,0,0,1-5.36.88,19.46,19.46,0,0,1-1.64,3.17,8.35,8.35,0,0,1,3.06-.88h.44a5,5,0,0,1,1.09.22l.22.11a3.82,3.82,0,0,1,1.31,1.21,4.14,4.14,0,0,1,.88,2.18c.65-.29,1.27-.54,1.86-.76l1-.33a15.35,15.35,0,0,0,2-.77,1.75,1.75,0,0,0,.44-.32c.29-.3.51-.4.65-.33l2.3,2.62v.33a63.47,63.47,0,0,0-7.76,2.08,7.91,7.91,0,0,1,.21,1.86v.76a13.49,13.49,0,0,1-.21,1.86,5.83,5.83,0,0,0-.11,1h-2.74a9.7,9.7,0,0,1,.11-1.21v-3.17a11.11,11.11,0,0,0-2.41,1.42c-1.38,1-1.85,2-1.42,3.07s1.53,1.53,3.72,1.53h.44a25.05,25.05,0,0,0,5.47-.77l.33,3.17a29.36,29.36,0,0,1-4.38.33h-1.64a9.53,9.53,0,0,1-4.48-1,4,4,0,0,1-2.3-3.17v-.44a6.91,6.91,0,0,1,3.17-5,13.58,13.58,0,0,1,2.19-1.21c.51-.29.91-.51,1.2-.65a2.87,2.87,0,0,0-1.2-2.19,3.66,3.66,0,0,0-2.08.22q-2.4,1.2-5.25,5.8a6.21,6.21,0,0,0-.44.65l-2.73-1.2a49.92,49.92,0,0,0,5.9-9.95H514.4l-.76-2.63V150a13.7,13.7,0,0,0,2.29.22h2.74a1.9,1.9,0,0,0,.11-.44,8.63,8.63,0,0,0,.76-3.5Z"/><path d="M547.87,170.88c-.14-.8-.33-1.68-.55-2.62h6.24c1.68.07,2.55-.44,2.62-1.53a11.43,11.43,0,0,0,.22-2.3H543.61l.65-3.28q-2.73,1.42-5.69,2.73a29.25,29.25,0,0,0-1.2-2.73,78.75,78.75,0,0,0,11.6-5.47H537.92v-2.41H547v-2.84h-7V148h7v-2.73h2.84V148h6v2.41h-6v2.84h2.84a81.33,81.33,0,0,0,7.44-6.56l2.3,1.75q-2.73,2.52-5.58,4.81h7v2.41H553.45c-1,.66-2,1.31-3.06,2h11.7v2.4H547.32l-.43,2.08h12.79c-.07.51-.14,1.28-.21,2.3q-.22,2-.33,2.73c-.15,2.48-1.68,3.69-4.6,3.61C553.67,170.85,551.44,170.88,547.87,170.88Z"/><path d="M569.86,154.59h.54a31.07,31.07,0,0,0,5.8-.55,11.54,11.54,0,0,0,3.72-.77,1.23,1.23,0,0,0,.65-.43h.22l2.52,1.53c.14.07.18.22.11.43v.11a17.64,17.64,0,0,0-3.5,3.72l-1.31,1.64h.76a3.36,3.36,0,0,1,2.08.66,4.57,4.57,0,0,1,.77,2.19,7.08,7.08,0,0,1,.21,1,15.38,15.38,0,0,0,.44,2,1.65,1.65,0,0,0,1.53,1.42h1.32a16.6,16.6,0,0,0,3.93-.54v3a31.3,31.3,0,0,1-3.5.22h-2.29a3.5,3.5,0,0,1-3.07-1.42,9.57,9.57,0,0,1-1.09-3.29,1.9,1.9,0,0,0-.11-.54,7.12,7.12,0,0,0-.22-1.1,1.62,1.62,0,0,0-1.42-1,3.07,3.07,0,0,0-2.3,1.31,58.13,58.13,0,0,0-4.7,6h-.22a21.4,21.4,0,0,0-2.73-1.75v-.11a90.22,90.22,0,0,0,7.65-8.42,20,20,0,0,0,2.63-3.72l-.11-.22a11.71,11.71,0,0,1-3.28.87,13.1,13.1,0,0,0-2.52.66,1.06,1.06,0,0,0-.55.22c-.21.22-.4.29-.54.22Zm7-8.75h.21a35.53,35.53,0,0,0,5.36,2.51,1.57,1.57,0,0,0,.33.22.77.77,0,0,1,.55.33l-.88,2.3-.32.1a34.72,34.72,0,0,1-6.46-3.06V148C576,147.37,576.42,146.64,576.86,145.84Z"/><path d="M598.51,148.79H600a26.18,26.18,0,0,0,8.1-1.09,1,1,0,0,0,.43-.11,1.65,1.65,0,0,1,.66-.22h.11l2.84,2.29v.11a11.45,11.45,0,0,0-2.51,2.41l-1.75,2.08c-.8.87-1.42,1.57-1.86,2.08a12.31,12.31,0,0,0,1.31-.11,8,8,0,0,1,1.2-.11h.55a7.68,7.68,0,0,1,4.81,1.75,6,6,0,0,1,2.08,4.7v.33a6.47,6.47,0,0,1-3.28,5.36,9.85,9.85,0,0,1-5.47,1.64h-.44c-3.35-.29-5.14-1.53-5.35-3.72v-.44q.31-2.84,3.71-3.17h.55q2.73,0,5.36,3.5a4.73,4.73,0,0,0,1.75-3.39v-.55q-.33-3.06-4.05-3.39h-.54a9.36,9.36,0,0,0-7.33,3.83.33.33,0,0,1-.11.22,2,2,0,0,1-.55.55l-2.62-2V161a41.36,41.36,0,0,0,9.29-10.17,14.9,14.9,0,0,0-6,1.31c-.07,0-.15.07-.22.22a.86.86,0,0,1-.77.22L598.51,149Zm7.33,18.7h.55a4.36,4.36,0,0,0,1.42-.22,1.54,1.54,0,0,0-.77-1.2,2.55,2.55,0,0,0-2.62-.87c-.66.36-.84.83-.55,1.42A2.29,2.29,0,0,0,605.84,167.49Z"/><path d="M641.06,150.87l2.41,2.73v.22a39.86,39.86,0,0,0-10.61,4.48,12.93,12.93,0,0,0-3.39,3.29,3.8,3.8,0,0,0-.66,1.86v.43a3.37,3.37,0,0,0,2.08,3,8.59,8.59,0,0,0,3.72.65h.76a23.18,23.18,0,0,0,6.35-.87l.21,3.28c-1.89.14-3.71.22-5.46.22h-1.65a9.92,9.92,0,0,1-5.79-1.21,5.44,5.44,0,0,1-2.85-4.92v-.54c.08-2.48,1.57-4.74,4.49-6.79a1,1,0,0,1,.55-.43,44.15,44.15,0,0,0-3.5-9.19l2.95-.55A63.44,63.44,0,0,1,634,154.7l3.94-2A13.07,13.07,0,0,0,641.06,150.87Z"/><path d="M661,168.48l-2.19,2.18-5.91-6.45,2.08-1.86Z"/><path d="M131.62,218.64q-2-1.42-4.16-2.73l1.32-2c1.24.65,2.66,1.46,4.26,2.4ZM129.87,230v-2.18h9.3V226.3h3v1.53h9.52V230h-9.52v2.3h11.7v2.3H127.57v-2.3h11.6V230Zm.66-3.39-2.41-1.31q1.86-3.06,3.5-6.23a15.49,15.49,0,0,0,1.53.76,4.71,4.71,0,0,0,.88.44C133.08,221.88,131.91,224,130.53,226.62Zm3.17-12.46c-.66-.44-1.61-1-2.84-1.75a13.78,13.78,0,0,1-1.43-.88l1.43-2.08q2.07,1.1,4.37,2.52Zm.55,12c-.37-.66-.77-1.32-1.21-2a33.23,33.23,0,0,0,5.69-3l1.42,1.65C138,224.22,136,225.31,134.25,226.19Zm4.26-9.41v-1.42c-.29.14-.76.36-1.42.65a20.12,20.12,0,0,1-1.86.77c-.51-.8-1-1.57-1.42-2.3a22.71,22.71,0,0,0,9.19-5.36l2.95.33-.66.66a27.34,27.34,0,0,0,8.53,4.15,5.27,5.27,0,0,1-.32.55,16.13,16.13,0,0,0-1,1.86,1.34,1.34,0,0,0-.44-.22,21,21,0,0,1-2.95-1.31v1.64h-3.94v1.86h7.11v2.19h-7.11v2.29q.12,3.18-2.84,3.07c-1,.07-2,.11-3.06.11a12.31,12.31,0,0,0-.44-2.08c.87.07,1.68.11,2.41.11a1.16,1.16,0,0,0,1.31-1.32v-2.18H135v-2.19h7.55v-1.86Zm5.25-5.14a19.78,19.78,0,0,1-4.48,3.17h9.29A23.6,23.6,0,0,1,143.76,211.64Zm8.31,14.55a28.13,28.13,0,0,0-3.28-1.75c-.95-.44-1.68-.81-2.18-1.1l1.2-1.75a1,1,0,0,0,.44.22,52.55,52.55,0,0,1,5.14,2.41Z"/><path d="M164,218.86v.55a6.6,6.6,0,0,0,.43,2.62h.22l1.1-1.75h.32l1.21,1.09c-.15.3-.33.7-.55,1.21a10.93,10.93,0,0,0-1.2,4.26v.44a15.56,15.56,0,0,1-2.63.22,8.81,8.81,0,0,1-1.09-2.84,17.85,17.85,0,0,1-.66-4.93v-.87a28.72,28.72,0,0,1,.44-4.05,22.44,22.44,0,0,0,.44-3.61c1.09.08,2.15.18,3.17.33a22.11,22.11,0,0,0-.55,2.3A26,26,0,0,0,164,218.86Zm7.65-7.66,3.61-.33.22.11a11.48,11.48,0,0,0,.22,3.72,4.58,4.58,0,0,0,.22,1.21,37.48,37.48,0,0,1,.33,4.15v1.75a15.88,15.88,0,0,1-1.21,6.67,16.42,16.42,0,0,1-4.59,6.68q-.1.21-.33,0L167.61,234l-.11-.22a17.45,17.45,0,0,0,3.93-4.7,16.18,16.18,0,0,0,1.75-7.55v-2.07A19.89,19.89,0,0,0,171.65,211.2Z"/><path d="M194.73,223.12c-.44-.36-1.2-.94-2.3-1.75-.8-.65-1.38-1.13-1.75-1.42a9.53,9.53,0,0,1-3.72,3.5h19.58v12.14H203.7v-1.31H189.59v1.31h-2.84v-12c-.66.29-1.35.62-2.08,1a7.73,7.73,0,0,0-1.1-1.86,3,3,0,0,0-.32-.44c3.2-1.24,5.1-2.63,5.68-4.16h-5.25v-2.18h5.8v-1.86h-5.14V212h5.14l.11-2.52h2.62l-.1,2.52h3.71v2.08H192v1.86h4v2.18h-4.15c1.31.81,2.77,1.79,4.37,3q3.83-1.43,4.49-3h-3.61v-2.18h4.15v-.55a5.07,5.07,0,0,0,.11-.88v-.43h-4V212h4v-2.52H204l-.11,2.52h5v2.08h-5l-.11,1.53v.33h5.69v2.18h-5.25c.87,1.68,2.77,2.92,5.68,3.72-.43.73-.87,1.53-1.31,2.41-3.06-1.24-5.07-2.77-6-4.6-.59,1.24-2.23,2.45-4.93,3.61a15.17,15.17,0,0,0-1.42-2.18Zm-5.14,2.52v2.3H203.7v-2.3Zm0,4.27v2.29H203.7v-2.29Z"/><path d="M215.73,218.75h.55a30.07,30.07,0,0,0,5.79-.55,11.7,11.7,0,0,0,3.72-.76c.37-.15.59-.29.66-.44h.22l2.51,1.53c.15.07.18.22.11.44v.11a17.39,17.39,0,0,0-3.5,3.72l-1.31,1.64h.77a3.38,3.38,0,0,1,2.07.65,4.46,4.46,0,0,1,.77,2.19,7.15,7.15,0,0,1,.22,1,12.28,12.28,0,0,0,.44,2,1.66,1.66,0,0,0,1.53,1.43h1.31a16.66,16.66,0,0,0,3.94-.55v2.95a29.21,29.21,0,0,1-3.5.22h-2.3a3.44,3.44,0,0,1-3.06-1.42,9.34,9.34,0,0,1-1.1-3.28,1.61,1.61,0,0,0-.11-.55,7.22,7.22,0,0,0-.21-1.09,1.63,1.63,0,0,0-1.43-1,3.06,3.06,0,0,0-2.29,1.31,59.66,59.66,0,0,0-4.71,6h-.21a21.5,21.5,0,0,0-2.74-1.75v-.11a87.5,87.5,0,0,0,7.66-8.42,19.83,19.83,0,0,0,2.62-3.72l-.11-.22a11.32,11.32,0,0,1-3.28.88,13.11,13.11,0,0,0-2.51.65,1.12,1.12,0,0,0-.55.22c-.22.22-.4.29-.55.22Zm7-8.75H223a34.56,34.56,0,0,0,5.36,2.51,1,1,0,0,0,.33.22.81.81,0,0,1,.54.33l-.87,2.3-.33.11a34.63,34.63,0,0,1-6.45-3.06v-.22Z"/><path d="M256.53,215.58l2.08,2.29v.22c-1.54.44-3,.91-4.38,1.42a41.3,41.3,0,0,0-6.78,3.4,8.65,8.65,0,0,0-2.74,2.62,4.83,4.83,0,0,0-.76,2.3v.33a3.33,3.33,0,0,0,2.3,2.84,8.74,8.74,0,0,0,3.5.66h.43a38.09,38.09,0,0,0,5.25-.55,12.21,12.21,0,0,0,1.32-.22l.21,3.17a42.8,42.8,0,0,1-4.59.22h-2.3a14.12,14.12,0,0,1-4.48-.77,7.4,7.4,0,0,1-3.72-2.62,5.87,5.87,0,0,1-.55-2.63v-.43a7.87,7.87,0,0,1,2.41-5.25,15.36,15.36,0,0,1,2.84-2.41,31.79,31.79,0,0,0-3.61-9l3-.44a49.36,49.36,0,0,1,3.17,8,.47.47,0,0,0,.33-.11,14.76,14.76,0,0,1,3.39-1.31,7.07,7.07,0,0,1,1.09-.55,10.48,10.48,0,0,0,1.75-.77.32.32,0,0,0,.22-.1A1,1,0,0,1,256.53,215.58Zm.43-2.3,1.75-1c.15.21.37.51.66.87a22.21,22.21,0,0,1,2,2.52l-1.75,1.09A26.66,26.66,0,0,0,257,213.28Zm3-2,1.53-.87a10.65,10.65,0,0,1,2.62,3.39l-1.53,1c-.29-.44-.73-1-1.31-1.75S260.21,211.68,259.92,211.31Z"/><path d="M279.82,229.25h2.3a34.81,34.81,0,0,0,8.09-1v3.5a45,45,0,0,1-8.42.66h-1.64a12.36,12.36,0,0,1-5.14-.87,13.17,13.17,0,0,1-3.83-2.85v-.33l1.86-1.64c.07-.14.11-.14.11,0a8.66,8.66,0,0,0,3.17,2.08A10.22,10.22,0,0,0,279.82,229.25Zm.55-15.31h.88a25.7,25.7,0,0,0,5.14-.77c-.08,0,0,0,.32-.11v3.17c-1.53.15-3,.22-4.48.22h-2.52a43.29,43.29,0,0,1-4.48-.44l-.22-.1-.65-3.07.1-.11a5.88,5.88,0,0,0,.88.22A19,19,0,0,0,280.37,213.94Z"/><path d="M301.48,213h.66a19.59,19.59,0,0,0,3.5-.44c-1,.22-.92.22.32,0a12.78,12.78,0,0,0,4.93-1.2,1,1,0,0,0,.43-.22,1.12,1.12,0,0,1,.55-.22h.33l2.41,1.86v.33a8.08,8.08,0,0,0-2.3,2.41,4,4,0,0,1-.55.76c-1.31,1.61-2.7,3.25-4.15,4.93l1.2-.33a12.28,12.28,0,0,1,3.17-.55h.44a10.22,10.22,0,0,1,4.92,1.31,6,6,0,0,1,2.73,4.92V227a7.14,7.14,0,0,1-3.61,6.24,12.65,12.65,0,0,1-6.56,2l-1.2-2.63h.44a11.11,11.11,0,0,0,4.7-.87,5,5,0,0,0,3.06-4.38v-.44a4,4,0,0,0-1.31-2.84,4.3,4.3,0,0,0-3.17-1.09h-.55a11.79,11.79,0,0,0-6.78,2.18,34.44,34.44,0,0,0-5.14,5.14l-2.63-2.29a65.52,65.52,0,0,0,5.14-4.93l1.21-1.2a29.74,29.74,0,0,0,5.69-7.44c-.52.15-1.25.33-2.19.55-1.39.37-2.41.66-3.06.88a1.12,1.12,0,0,0-.44.21l-.44.22-1.86-3.06Z"/><path d="M323.14,215.91h.65a15.3,15.3,0,0,0,3.28-.55l1.32-.33c1.38-.36,2.73-.69,4-1q3.61-.88,7.11-1.54a21.79,21.79,0,0,0,4.38-1,3.3,3.3,0,0,0,.33,1.2,3.71,3.71,0,0,1,.21,1.64l-1.53.33a7.57,7.57,0,0,0-3.72,1.21,8.66,8.66,0,0,0-3.17,4.7,15.72,15.72,0,0,0-.65,3.83v.65a5.77,5.77,0,0,0,1.64,4.27,6.38,6.38,0,0,0,4.26,1.64h.55a7,7,0,0,0,1.75-.22v3.28h-.88a12.79,12.79,0,0,1-6.89-1.86,8.6,8.6,0,0,1-3.28-6.89v-.55q0-4.26,3.39-9-4.37,1.09-8.75,2.4a2.85,2.85,0,0,1-.76.22,3,3,0,0,0-1.53.88l-1.75-3.07Zm20.12,1.53,1.53-1.43c.22.22.51.55.88,1a17.62,17.62,0,0,1,1.75,2l-1.53,1.31A17.78,17.78,0,0,0,343.26,217.44Zm2.95-2.19,1.54-1.31a18.7,18.7,0,0,1,2.51,2.84l-1.64,1.31A21.91,21.91,0,0,0,346.21,215.25Z"/><path d="M355.18,210.66h.33l2.95,1.09a6.68,6.68,0,0,1-.65,1.75q-.22.44-.33.66a34.42,34.42,0,0,0-1.42,4.7,24,24,0,0,0-.66,4.59v1a20,20,0,0,0,.77,5.14h.22c.14-.29.36-.7.65-1.21a7.07,7.07,0,0,1,.55-1.09h.22l.87.88v.21c-.43,1.9-.8,3.69-1.09,5.36l-2.41.55a18.44,18.44,0,0,1-2.29-9.62V223a24.46,24.46,0,0,1,.87-5.57c.07-.37.22-.91.44-1.64a16.66,16.66,0,0,0,1-4.71Zm11.71.54,3.82.55c-.14,1.68-.21,3.5-.21,5.47v-.11q2.29-.23,4.59-.66v2.63a43.13,43.13,0,0,1-4.48.65q.11,8.21.1,7.88l2.52,1c.15.15.26.22.33.22a15,15,0,0,1,2.95,2l-1.75,2.08h-.33c-.58-.44-1.2-.88-1.86-1.31l-1.2-.66-.76-.44a4.52,4.52,0,0,1-1.21,2.19,5.28,5.28,0,0,1-4,1.64h-.55a6.52,6.52,0,0,1-3.28-.87,3.45,3.45,0,0,1-1.64-2.85v-.44a3.49,3.49,0,0,1,1.64-2.62,5.81,5.81,0,0,1,3.28-.88h.55a17.34,17.34,0,0,1,2.73.22c0-.43,0-1.13-.11-2.08-.15-1.82-.22-3.2-.22-4.15V220h-2.3c-1.53-.07-3.1-.22-4.7-.44l-.33-2.73A7.2,7.2,0,0,1,362,217a41,41,0,0,0,4.38.33h1.31c-.07-1.9-.14-3.21-.22-3.94v-.22A3.07,3.07,0,0,0,366.89,211.2ZM365.14,229h-.55c-1.09,0-1.79.18-2.08.55-.51.65-.29,1.31.66,2a4.07,4.07,0,0,0,4-.44,2.23,2.23,0,0,0,.77-1.53A7.19,7.19,0,0,0,365.14,229Z"/><path d="M380.78,218.2a3.33,3.33,0,0,1-.55-1l-.87-1.31a19.82,19.82,0,0,0,5.9-6.46l2.95.44a1.75,1.75,0,0,1-.32.44,16.45,16.45,0,0,1-1.53,2.18H405V215h-3.06v4.27h2.84v2.4h-2.84v4.49h3.82v2.4h-26v-2.4H384V221.7h-3.39v-2.4H384v-3.94A38.14,38.14,0,0,1,380.78,218.2Zm2,17.39-2.85-.65q1.86-3.28,2.74-5.25l2.73.54a7.94,7.94,0,0,1-.44,1C384,233.26,383.25,234.72,382.75,235.59ZM386.46,215v4.27h2.63V215Zm0,6.67v4.49h2.63V221.7Zm2.3,13.35q-.66-2.19-1.42-4.71l2.73-.33q.89,2.42,1.54,4.6Zm2.85-20v4.27h2.62V215Zm0,6.67v4.49h2.62V221.7Zm3.82,13.13a29,29,0,0,0-1.31-3.17c-.22-.59-.4-1.06-.55-1.43l2.74-.43,2,4.48Zm1.32-19.8v4.27h2.73V215Zm0,6.67v4.49h2.73V221.7Zm6,13.35c-.36-.73-.91-1.68-1.64-2.85-.51-.87-.91-1.57-1.2-2.08l2.73-.54a2.2,2.2,0,0,0,.44.54,45.63,45.63,0,0,1,2.52,4.16Z"/><path d="M420,217.66h1.64a2.4,2.4,0,0,1,2.19.87,3.36,3.36,0,0,1,.66,2.08v.44a23.85,23.85,0,0,1-1,6.45q-.87,3.83-3.06,4.92a7.45,7.45,0,0,1-3.72.77h-.55c-.21,0-.32,0-.32-.11-.15-.29-.33-.7-.55-1.21a15.22,15.22,0,0,0-.77-1.53v-.11a9.7,9.7,0,0,1,1.21.11,7.61,7.61,0,0,0,1.09.11h.44a2.34,2.34,0,0,0,2.08-1,7.22,7.22,0,0,0,1.09-2,.33.33,0,0,0,.11-.22,14.22,14.22,0,0,0,1-5.25v-.66c-.07-.8-.43-1.24-1.09-1.31a19.7,19.7,0,0,0-2.41.22,9.57,9.57,0,0,1-1.2.11,41.7,41.7,0,0,1-4.16,9,18.77,18.77,0,0,1-2.29,3.06,2.85,2.85,0,0,1-1.31-.55c-.22-.14-.41-.25-.55-.32a.33.33,0,0,1-.22-.11c-.44-.08-.69-.22-.77-.44a18.07,18.07,0,0,0,4.27-5.91q1.1-2.19,2.08-4.26a8.17,8.17,0,0,0-3.17.87l-.11.11a1.34,1.34,0,0,1-.77.22l-1.53-3.17.11-.22a10.14,10.14,0,0,0,3.06,0,9.59,9.59,0,0,1,1.1-.11,7.13,7.13,0,0,1,2.07-.33c.15-.44.26-.8.33-1.09a13.7,13.7,0,0,0,.66-4.38V212a.9.9,0,0,1-.11-.44c.29.07.69.15,1.2.22,1,.15,1.82.29,2.41.44a1.65,1.65,0,0,1-.44,1,.33.33,0,0,0-.11.22,4.62,4.62,0,0,0-.33,1.53,1.9,1.9,0,0,0-.11.55,5.69,5.69,0,0,1-.22,1.2q-.1.77-.21,1.2A13.27,13.27,0,0,1,420,217.66Zm5.36-1.43v-.32a6.47,6.47,0,0,1,1-.77c.43-.36.76-.62,1-.77s.55.08,1,.66a16,16,0,0,1,2.07,2.3,48.37,48.37,0,0,1,3.39,4.48v.33l-2.62,1.64A45.05,45.05,0,0,0,425.4,216.23Z"/><path d="M452.09,215.25h.55a6.71,6.71,0,0,1,4.59,1.64,6.62,6.62,0,0,1,2,4.59V222a5.92,5.92,0,0,1-1,3.28,10,10,0,0,1-2.95,2.85,13.41,13.41,0,0,1-6.56,2.29L447,228.37a16.1,16.1,0,0,0,6.56-2.07c2.19-1.32,3.28-2.88,3.28-4.71v-.43c-.29-2.12-1.79-3.36-4.48-3.72h-.44a10.74,10.74,0,0,0-3.39.54c-.87.3-1.75.62-2.62,1-.3.14-.7.33-1.21.54a34.19,34.19,0,0,0-3.17,1.75c-.07,0-.15.08-.22.22a.82.82,0,0,1-.76.22l-2.3-2.62c2-.51,4.05-1.1,6-1.75a1.9,1.9,0,0,0,.44-.11C447.79,215.83,450.27,215.18,452.09,215.25Z"/><path d="M473.42,210.33h.22l3.28.87v.33a2.64,2.64,0,0,0-1.1,1.75,11.66,11.66,0,0,0-.65,1.86,4.55,4.55,0,0,1-.22.66l3.61-.66a3.29,3.29,0,0,0,.76-.22l.22.11v2.84c-1.75.3-3.5.51-5.25.66a3.73,3.73,0,0,1-.11.55c.07-.15,0-.08-.11.22a63.78,63.78,0,0,1-5.79,15l-3-.87-.11-.22a88.56,88.56,0,0,0,6.35-14.55,17.05,17.05,0,0,1-2.19.11c-.95.07-1.68.11-2.19.11l-.22-.11-.43-2.63.11-.21c.29,0,.76,0,1.42.1a10.1,10.1,0,0,0,1.31.11h.88a18.93,18.93,0,0,0,2.07-.11,2.68,2.68,0,0,0,.22-.65,17.08,17.08,0,0,0,.88-4.38Zm14.76,20.12-.32,3.06a28.34,28.34,0,0,1-3.61.22h-1.1a22.94,22.94,0,0,1-4.81-.54,2,2,0,0,1-.44-.11c-.51,0-.84-.11-1-.33l-.11-2.52a5.9,5.9,0,0,0,1,.22,28.65,28.65,0,0,0,4.82.55h.54A23.27,23.27,0,0,0,488.18,230.45Zm-6.34-10.72h1c1.17,0,2.41,0,3.72.11l.11,3-.11.11a24.17,24.17,0,0,0-4.7-.66h-1.09a9,9,0,0,0-2.41.33l.44-2.74h1.42C480.93,219.77,481.47,219.73,481.84,219.73Z"/><path d="M517.71,222.14v.77a10,10,0,0,1-3,6.89,13.47,13.47,0,0,1-5.47,3.93c0,.15-.07.15-.22,0a10.36,10.36,0,0,0-2.51-1.64v-.22c5.25-2.47,7.91-5.65,8-9.51v-.55a7.11,7.11,0,0,0-2.4-5,8.79,8.79,0,0,0-4.6-2,60.42,60.42,0,0,1-2.4,8,51.54,51.54,0,0,1-3.39,7.11q-1.42,2.63-3.5,2.62-3.28-.1-5.47-3.72a7.69,7.69,0,0,1-1.1-3.72v-.54a10.09,10.09,0,0,1,.88-3.61,14.93,14.93,0,0,1,7.87-7.77,15.66,15.66,0,0,1,5-1.09h1.21a11,11,0,0,1,8,2.95A10.33,10.33,0,0,1,517.71,222.14ZM494.64,224v.55a6.05,6.05,0,0,0,1.09,3.39,2.49,2.49,0,0,0,2.08,1.31,2.81,2.81,0,0,0,1.86-1.31,21.49,21.49,0,0,0,1.09-2c.15-.37.26-.62.33-.77a36.69,36.69,0,0,0,3.72-10.39,17.45,17.45,0,0,0-4.16,1.1,14.87,14.87,0,0,0-4.48,4A8.56,8.56,0,0,0,494.64,224Z"/><path d="M519.14,215.91h.65a15.3,15.3,0,0,0,3.28-.55l1.32-.33c1.38-.36,2.73-.69,4-1q3.62-.88,7.11-1.54a21.79,21.79,0,0,0,4.38-1,3.3,3.3,0,0,0,.33,1.2,3.71,3.71,0,0,1,.21,1.64l-1.53.33a7.57,7.57,0,0,0-3.72,1.21,8.66,8.66,0,0,0-3.17,4.7,15.72,15.72,0,0,0-.65,3.83v.65a5.77,5.77,0,0,0,1.64,4.27,6.38,6.38,0,0,0,4.26,1.64h.55a7.05,7.05,0,0,0,1.75-.22v3.28h-.88a12.79,12.79,0,0,1-6.89-1.86,8.6,8.6,0,0,1-3.28-6.89v-.55q0-4.26,3.39-9-4.36,1.09-8.75,2.4a2.85,2.85,0,0,1-.76.22,3,3,0,0,0-1.53.88l-1.75-3.07Zm20.12,1.53,1.53-1.43c.22.22.51.55.88,1a17.62,17.62,0,0,1,1.75,2l-1.53,1.31A17.78,17.78,0,0,0,539.26,217.44Zm3-2.19,1.54-1.31a18.7,18.7,0,0,1,2.51,2.84l-1.64,1.31A21.91,21.91,0,0,0,542.21,215.25Z"/><path d="M560.15,209.12l3.83.66a9.88,9.88,0,0,0-.55,3.39v1h9v3.17a43.94,43.94,0,0,0-8.2-.55h-.77v3.39l.11.11a6.1,6.1,0,0,1,1,3.72v1.86a13.54,13.54,0,0,1-1.1,4.59,17.31,17.31,0,0,1-2.4,3.61c-.66.66-1.35,1.31-2.08,2h-.22a13.79,13.79,0,0,0-3.17-1.53v-.22a10.9,10.9,0,0,0,5.8-5.58,4.43,4.43,0,0,1-4.27,0,5.16,5.16,0,0,1-2.19-4.37v-.55q.55-4.49,4.6-5h1.31v-2h-1.2a41.4,41.4,0,0,0-9.3,1.09l-.22-.11L549,214.59l.11-.22c.21,0,.61,0,1.2.11a10.1,10.1,0,0,0,1.31.11h1.31c.29,0,.91,0,1.86-.11q3.39-.1,6-.22c-.15-1.67-.33-3.13-.55-4.37A4.88,4.88,0,0,1,560.15,209.12Zm.66,14.66v-1.42c-.07-.73-.37-1.13-.88-1.2a1.49,1.49,0,0,0-1.09.43,2.81,2.81,0,0,0-1,2.19v.66c.07,1.46.54,2.22,1.42,2.29.51,0,.94-.4,1.31-1.2A3.43,3.43,0,0,0,560.81,223.78Z"/><path d="M582.25,211.53l3.71.88c-.07.21-.18.51-.32.87a4.16,4.16,0,0,0-.33.55,7.29,7.29,0,0,0-.22,1.2,1.9,1.9,0,0,0-.11.55,11.94,11.94,0,0,0-.22,1.31,4.41,4.41,0,0,0-.22,1.09,3,3,0,0,1,.88-.11,7.51,7.51,0,0,1,.87-.11,3,3,0,0,0,.66-.1H588a5.1,5.1,0,0,1,2.08.43,2.71,2.71,0,0,1,1.09,2.19v1.31a28.66,28.66,0,0,1-1,6.89q-.76,3.72-3,4.27a8,8,0,0,1-3.39.76h-.77c-.22-.51-.51-1.13-.87-1.85a7.94,7.94,0,0,1-.44-1l.11-.22a5,5,0,0,1,.76.11,7.37,7.37,0,0,0,1.53.22h.44a2.46,2.46,0,0,0,2.3-1.42,17.83,17.83,0,0,0,1-3,26.3,26.3,0,0,0,.66-5,1.26,1.26,0,0,0-1.53-1.31c-.37.07-.91.15-1.64.22l-1.64.33a35.83,35.83,0,0,1-6,12.14l-.22.11a10.48,10.48,0,0,0-1.75-.77,4.25,4.25,0,0,0-.87-.43v-.22a28.72,28.72,0,0,0,3.94-5.58,26.47,26.47,0,0,0,1.64-3.72,10.3,10.3,0,0,0,.43-1,28.63,28.63,0,0,0-3.28,1.09,1.59,1.59,0,0,1-1,.33l-1.21-3.07.22-.21a2.6,2.6,0,0,1,.66.11,1.8,1.8,0,0,0,.87,0c.51-.08,1.28-.22,2.3-.44s1.64-.37,2.08-.44a2.17,2.17,0,0,1,.11-.66,24.37,24.37,0,0,0,.55-5.14ZM599,222.14l-.11.22-2.3,1.31a35.51,35.51,0,0,0-5.36-7.44v-.32l2.08-1.21A31.34,31.34,0,0,1,599,222.14Zm.77-7.33V215l-1.43,1.2h-.21a8.55,8.55,0,0,0-2.63-2.84v-.22l1.31-1.09H597A23.72,23.72,0,0,1,599.75,214.81Zm-1.54-3.72v-.22l1.32-1.09h.22a1.26,1.26,0,0,0,.32.22c.51.44,1.1,1,1.75,1.64a1.79,1.79,0,0,1,.66,1.09l-1.31,1.21H601A11.23,11.23,0,0,0,598.21,211.09Z"/><path d="M614.84,232.64l-2.19,2.19-5.9-6.46,2.07-1.86Z"/><path d="M26,278.32v-2.63h8.42v2.63H31.7v6.34h2.62v2.63H31.7v6.45c.44-.07,1.16-.22,2.19-.44a6,6,0,0,0,.87-.22v2.85c-.44.07-1.13.22-2.08.44q-4.16.76-6.67,1.42l-.44-2.74,1.75-.33L29,294.4v-7.11H26.12v-2.63H29v-6.34Zm20.78,21.22q-3.27.1-3.17-3v-4.7H41.43l-.11.88q0,5.13-6.67,7.32a4.92,4.92,0,0,0-.44-.65,14.86,14.86,0,0,0-1.31-1.75q5.68-1.43,5.69-4.92v-.88H35.42V275H50.29v16.84H46.36V296q-.12,1,1.2.87h.76c.73.07,1.13-.29,1.21-1.09.07-.37.14-1.06.22-2.08.07-.58.11-1,.11-1.2l2.29.87a22.67,22.67,0,0,1-.54,3.5,2.82,2.82,0,0,1-3.07,2.63Zm-8.53-22.21V280h9.19v-2.63Zm0,4.82v2.62h9.19v-2.62Zm0,4.81v2.62h9.19V287Z"/><path d="M78.62,284.55c-1.31-.58-2.51-1.13-3.61-1.64V285H68.45v2.95h9.3v2.63h-9.3v6.12H79.39v2.41H54.45v-2.41H65.39v-6.12h-9.3v-2.63h9.3V285H58.61v-1.86c-1,.51-2.16,1.06-3.4,1.64l-.54-.87-1.1-1.75q9.09-3.51,12.47-8.53l3.39.32-.65.88a22.55,22.55,0,0,0,11.37,6.89c-.14.29-.4.76-.76,1.42S78.77,284.26,78.62,284.55ZM60.57,296.37c-.58-.73-1.67-2.05-3.28-3.94L59.48,291q1.2,1.31,3.06,3.5c-.14-.15,0,0,.33.43Zm6.57-19.47A28.51,28.51,0,0,1,60,282.47H74A26,26,0,0,1,67.14,276.9Zm5.79,19.47-2.18-1.43a1.26,1.26,0,0,0,.21-.32q2.19-2.42,3.18-3.61l2.4,1.31Q75.12,294,72.93,296.37Z"/><path d="M83.87,283.13l-2-2.08a31.46,31.46,0,0,0,8-7.43l3.39.32a12.19,12.19,0,0,1-1.53,1.86H102V278l-2.52,2.52h5.69v14.43H84.86V282.37Zm-.44,17.06-1.31-2.62a87.34,87.34,0,0,0,9.52-2.3l1.2,2.08Q88.68,298.77,83.43,300.19Zm15-22.09H89.67a27.12,27.12,0,0,1-2.52,2.41h9ZM87.7,282.8v2.08h14.66V282.8Zm0,3.94v2.08h14.66v-2.08Zm0,3.83v2.08h14.66v-2.08Zm18.59,9.51q-4.7-1.53-9.29-2.84l1-2c3.72.8,6.85,1.53,9.41,2.19Z"/><path d="M109.9,281.38v-2.62h3.17v-4.71h3v4.71h2.73v2.62H116v5c.87-.22,1.82-.44,2.84-.65v2.73l-2.84.77v7.32q.1,3-3.17,3.18a17.87,17.87,0,0,0-2.3.11,12.21,12.21,0,0,1-.22-1.32q-.23-1.1-.33-1.53h1.64c1,.07,1.5-.33,1.42-1.2v-5.69l-3.17.77-.22-3.07a7.73,7.73,0,0,1,.88-.21c.44-.08,1.27-.26,2.51-.55v-5.69Zm8,17.5v-2.51H136v2.51Zm2.18-6.12V275.37h14.44v17.39Zm3-14.66v4.59h8.64V278.1Zm0,7.22v4.81h8.64v-4.81Z"/><path d="M150.92,275.47q7.88.12,8,11.6t-8,11.48q-7.87-.1-8-11.48Q143.16,275.81,150.92,275.47Zm0,20.68q4.49.11,4.48-9,.1-9.3-4.48-9.08-4.48,0-4.49,9.08T150.92,296.15Z"/><path d="M167.11,299.76v-24.5h23.62V295.6q.11,3.82-3.94,3.94c-1,.07-2.44.11-4.26.11a11.36,11.36,0,0,0-.66-2.74h3.83c1.46.07,2.11-.58,2-2v-5.79H170.06v10.61ZM170.06,278v8.31h7.33V278Zm17.61,0h-7.33v8.31h7.33Z"/><path d="M193.36,280.4H194a15.3,15.3,0,0,0,3.28-.55l1.32-.33c1.38-.36,2.73-.69,4-1q3.61-.89,7.11-1.53a22.37,22.37,0,0,0,4.38-1,3.45,3.45,0,0,0,.32,1.2,3.63,3.63,0,0,1,.22,1.65l-1.53.32a7.57,7.57,0,0,0-3.72,1.21,8.66,8.66,0,0,0-3.17,4.7,15.25,15.25,0,0,0-.65,3.83v.65a5.75,5.75,0,0,0,1.64,4.27,6.38,6.38,0,0,0,4.26,1.64h.55a7.05,7.05,0,0,0,1.75-.22v3.28h-.88a12.79,12.79,0,0,1-6.89-1.86,8.6,8.6,0,0,1-3.28-6.89v-.54q0-4.27,3.39-9-4.36,1.09-8.75,2.4a2.85,2.85,0,0,1-.76.22,3,3,0,0,0-1.53.88l-1.75-3.07Zm20.12,1.53,1.53-1.42c.22.21.51.54.88,1a17.62,17.62,0,0,1,1.75,2l-1.53,1.31A17.78,17.78,0,0,0,213.48,281.93Zm3-2.19,1.53-1.31a18.24,18.24,0,0,1,2.52,2.84l-1.64,1.31A22.6,22.6,0,0,0,216.43,279.74Z"/><path d="M221.36,280.4H222a15.3,15.3,0,0,0,3.28-.55l1.32-.33c1.38-.36,2.73-.69,4-1q3.61-.89,7.11-1.53a22.37,22.37,0,0,0,4.38-1,3.45,3.45,0,0,0,.32,1.2,3.63,3.63,0,0,1,.22,1.65l-1.53.32a7.57,7.57,0,0,0-3.72,1.21,8.66,8.66,0,0,0-3.17,4.7,15.25,15.25,0,0,0-.65,3.83v.65a5.75,5.75,0,0,0,1.64,4.27,6.38,6.38,0,0,0,4.26,1.64h.55a7.05,7.05,0,0,0,1.75-.22v3.28h-.88a12.79,12.79,0,0,1-6.89-1.86,8.6,8.6,0,0,1-3.28-6.89v-.54q0-4.27,3.39-9-4.36,1.09-8.75,2.4a2.85,2.85,0,0,1-.76.22,3,3,0,0,0-1.53.88l-1.75-3.07Zm20.12,1.53,1.53-1.42c.22.21.51.54.88,1a17.62,17.62,0,0,1,1.75,2l-1.53,1.31A17.78,17.78,0,0,0,241.48,281.93Zm3-2.19,1.53-1.31a18.24,18.24,0,0,1,2.52,2.84l-1.64,1.31A22.6,22.6,0,0,0,244.43,279.74Z"/><path d="M267.29,276.57h.22a7.84,7.84,0,0,1,1,2.3,12.48,12.48,0,0,1-2.63,1.09c-.36.15-.66.25-.87.33a11.42,11.42,0,0,1,.87,1.53,14.43,14.43,0,0,1,.77,1.53c.43-.15,1.09-.4,2-.77l2-.65h.33l1,2-.11.32-1.21.33a12.39,12.39,0,0,1-1.31.44,4.52,4.52,0,0,1-1.42.44,3.07,3.07,0,0,1,.33.65,45.29,45.29,0,0,0,3.06,4.27.33.33,0,0,0,.11.22,1.6,1.6,0,0,1,.44.87l-2.41,2.3a15.63,15.63,0,0,0-8.75-2.3H260a5.16,5.16,0,0,0-2.29.44,2,2,0,0,0-1,2.41c.08.29.48.69,1.21,1.2a5.58,5.58,0,0,0,2.51.88,17.44,17.44,0,0,0,3.28.32h.55a7.17,7.17,0,0,0,1.31-.11l-.22,3.07h-.76q-10.17-.56-10.61-5.91v-.55a4.28,4.28,0,0,1,2.19-3.17,10.15,10.15,0,0,1,4.37-1h1.1a19,19,0,0,1,5.46,1h.11c-.14-.22-.36-.58-.65-1.09s-.7-1.42-1.42-2.74a11.42,11.42,0,0,1-2.3.44,54.07,54.07,0,0,1-6,.55l-.22-.11L255.26,285l.11-.22h.77a34.86,34.86,0,0,0,6.23-.55,5.05,5.05,0,0,0,1.53-.21l-1.42-3.07a33.52,33.52,0,0,1-4.7,1,6.5,6.5,0,0,0-.66-1,6.21,6.21,0,0,1-.44-.65,1.6,1.6,0,0,1-.43-.77h.32q2.19-.33,4.71-.87a8.4,8.4,0,0,0-.55-1.32l-.66-1.31a.67.67,0,0,0-.21-.44,2.61,2.61,0,0,1-.11-.65l2.95-.55c.44,1.24.87,2.41,1.31,3.5A29.1,29.1,0,0,0,267.29,276.57Z"/><path d="M282.61,277.44h1.53a25.86,25.86,0,0,0,8.09-1.09,1,1,0,0,0,.44-.11,1.62,1.62,0,0,1,.65-.22h.11l2.85,2.3v.11a11.23,11.23,0,0,0-2.52,2.4c-.36.44-.95,1.13-1.75,2.08s-1.42,1.57-1.86,2.08a12.31,12.31,0,0,0,1.31-.11,9.7,9.7,0,0,1,1.21-.11h.54a7.79,7.79,0,0,1,4.82,1.75,6.06,6.06,0,0,1,2.08,4.7v.33a6.49,6.49,0,0,1-3.29,5.36,9.74,9.74,0,0,1-5.46,1.64h-.44c-3.36-.29-5.14-1.53-5.36-3.72v-.43q.33-2.85,3.72-3.18h.54c1.83,0,3.61,1.17,5.36,3.5a4.65,4.65,0,0,0,1.75-3.39v-.54q-.33-3.06-4-3.39h-.55a9.35,9.35,0,0,0-7.33,3.82.31.31,0,0,1-.11.22,1.84,1.84,0,0,1-.54.55l-2.63-2v-.33a41.22,41.22,0,0,0,9.3-10.17,15.31,15.31,0,0,0-6,1.31c-.07,0-.15.08-.22.22a.84.84,0,0,1-.76.22l-1.42-3.61Zm7.32,18.71h.55a4.64,4.64,0,0,0,1.42-.22,1.52,1.52,0,0,0-.76-1.21,2.59,2.59,0,0,0-2.63-.87c-.65.36-.84.84-.55,1.42A2.33,2.33,0,0,0,289.93,296.15Z"/><path d="M325.15,279.52l2.41,2.74v.21A40,40,0,0,0,317,287a13.2,13.2,0,0,0-3.39,3.28,3.8,3.8,0,0,0-.66,1.86v.44a3.39,3.39,0,0,0,2.08,2.95,8.46,8.46,0,0,0,3.72.66h.76a22.75,22.75,0,0,0,6.35-.88l.22,3.28c-1.9.15-3.72.22-5.47.22h-1.64a10,10,0,0,1-5.8-1.2,5.43,5.43,0,0,1-2.84-4.92v-.55q.11-3.72,4.48-6.78a1.06,1.06,0,0,1,.55-.44,44.57,44.57,0,0,0-3.5-9.19l2.95-.54a61.84,61.84,0,0,1,3.28,8.2l3.94-2A13.07,13.07,0,0,0,325.15,279.52Z"/><path d="M333.9,279.63v-2.51h11.81c-.29-.88-.65-1.83-1.09-2.85l3.39-.44,1.1,3.29h10.82v2.51Zm2.63,20.45v-9.84H357.2v9.84h-2.84v-1.53h-15v1.53Zm.11-16.18v-2.19h20.67v2.19Zm0,4.37V286h20.67v2.3Zm2.73,4.38v3.61h15v-3.61Z"/><path d="M367.37,283.9h.77a10.47,10.47,0,0,0,3.06-.66c.95-.22,1.89-.47,2.84-.77a11.15,11.15,0,0,1,3.5-.54h.33a4.07,4.07,0,0,1,3.61,2,6.15,6.15,0,0,1,1,3.61v1q-.1,6.78-6,11.81a1,1,0,0,0-.33.11,1,1,0,0,1-.33.11h-.11l-.11-.11a20.86,20.86,0,0,0-2.18-1.64v-.22a12.72,12.72,0,0,0,6.12-10.61v-.54c-.07-1.9-.87-2.88-2.4-3h-.44a7.56,7.56,0,0,0-2.85.88.85.85,0,0,1-.32.11,10.14,10.14,0,0,0-3,1.53l-.22.22c-.29.22-.51.29-.65.22l-2.3-3.18Zm4.59-7,1.1-2.63h.11a35.42,35.42,0,0,0,7.65,2.3l.11.11a8.53,8.53,0,0,0-.22,1c-.21.8-.36,1.42-.43,1.86l-.11.11a7.74,7.74,0,0,1-2.08-.44.33.33,0,0,0-.22-.11c-1-.29-2.48-.72-4.37-1.31l-1.43-.55Z"/><path d="M389.79,278v-2h11.6v-2.19h2.95V276H416v2h-11.7v1.53h8.75v5.25h-8.75v1.53h9.3v3.5h2.51v2h-2.51v5H410.9v-1.42h-6.56v.55c.15,2.48-1.06,3.72-3.61,3.72-.8.07-2.22.11-4.27.11a14.31,14.31,0,0,0-.54-2.41h3.61c1.38.15,2-.44,1.86-1.75v-.22H391.32v-1.75h10.07v-1.86h-11.6v-2h11.6v-1.75h-10V286.3h10v-1.53h-8.75v-5.25h8.75V278Zm5.69,3.28V283h5.91v-1.75Zm14.88,0h-6V283h6Zm.54,6.78h-6.56v1.75h6.56Zm-6.56,3.72v1.86h6.56v-1.86Z"/><path d="M428,274.27h.44l3.17.88v.22a1.61,1.61,0,0,0-.54.87l-.33.66c-.29.94-.55,1.93-.77,3a.77.77,0,0,1-.11.33,3.83,3.83,0,0,1-.21.54h2.07a11.58,11.58,0,0,0,1.86-.21,2.6,2.6,0,0,1,.66-.11l-.55,2.73a.45.45,0,0,1-.33.11h-4.26c-.07.51-.15,1.2-.22,2.08s-.26,1.82-.33,2.4a18,18,0,0,0,5.25.11v.44l-.44,2.19a.44.44,0,0,1-.32.11h-2.3c-.8,0-1.64,0-2.52-.11v.76a3.46,3.46,0,0,0-.11.77v1.09a4.09,4.09,0,0,0,1.1,2.85,4,4,0,0,0,2.51,1h.66a4.69,4.69,0,0,0,3.17-1.09,4.5,4.5,0,0,0,1.1-2.95v-.44c0-1.24-.7-3-2.08-5.14a2.86,2.86,0,0,0-.33-.55l3.17-.22a9.53,9.53,0,0,1,2.41,6.13v.54a6.39,6.39,0,0,1-2.3,4.82,6.78,6.78,0,0,1-4.81,1.64H432a6.85,6.85,0,0,1-4.7-1.86q-1.76-1.43-1.75-4.92v-1.1a13,13,0,0,1,.11-1.75c-.37-.14-.95-.33-1.75-.55a11.29,11.29,0,0,0-1.86-.54l.22-2.74a15.57,15.57,0,0,0,3.72,1.1v-.55a14.09,14.09,0,0,0,.43-2q.22-1.2.33-1.86c-.87-.22-1.68-.44-2.4-.65s-.88-.19-.88-.33l.22-2.74a21.72,21.72,0,0,0,3.39,1c.07-.22.18-.62.33-1.21a5.93,5.93,0,0,1,.22-1.09,3.93,3.93,0,0,1,.11-.76A14,14,0,0,0,428,275Z"/><path d="M451,279.74h1.64c.37,0,.95,0,1.75-.11h.88a1.66,1.66,0,0,1,.11-.55,27.87,27.87,0,0,0,.22-2.84,7.14,7.14,0,0,0-.11-1.09h.54a13.17,13.17,0,0,1,1.54.11,12.31,12.31,0,0,0,1.31.11,1.64,1.64,0,0,1-.22,1.09,1,1,0,0,0-.22.55,4.49,4.49,0,0,1-.22,1.09,7.29,7.29,0,0,1-.22,1.2,3.75,3.75,0,0,0,1.21-.22,29.31,29.31,0,0,0,4.92-1.09v2.73q-3,.66-6,1.21h-.54c-.08.73-.15,1.6-.22,2.62a18.08,18.08,0,0,1,3.39-.65,1.48,1.48,0,0,1,.11-.44v-.66c-.08-.14,0-.29.22-.43l2.62.43.11.22-.11.11c-.07.15-.18.44-.33.88a7.18,7.18,0,0,1,4.38,1.64,8.13,8.13,0,0,1,2.51,5.36v.76c-.07,2.63-1.49,4.81-4.26,6.56a5.3,5.3,0,0,1-2.63,1.1h-.11a11.63,11.63,0,0,0-2.4-2.08,8.62,8.62,0,0,0,4.7-1.75,5.72,5.72,0,0,0,2.08-4.05v-.33a5.4,5.4,0,0,0-2.3-4.26,4.25,4.25,0,0,0-1.2-.44H464a4.4,4.4,0,0,0-1.2-.33,25.65,25.65,0,0,1-4.71,8,16,16,0,0,0,.77,2c-.22.07-.59.22-1.1.43a3.3,3.3,0,0,1-1.2.33c-.22,0-.4-.22-.55-.65a2.22,2.22,0,0,1-1.2.65,6.53,6.53,0,0,1-4.05,1.64h-.43q-2.52-.1-2.74-3.72v-.43q.1-3.18,3.17-6.46a14.56,14.56,0,0,1,4.05-2.51c0-.44,0-1.13.11-2.08a6,6,0,0,1,.11-1.09h-1.64c-.8.07-1.42.11-1.86.11h-1.64c-.22,0-.33,0-.33-.11a3,3,0,0,1-.65-1.54v-.1c-.22-.44-.26-.77-.11-1C449.55,279.7,450.31,279.74,451,279.74Zm4.16,14-.11-.33a45.5,45.5,0,0,1-.33-5.47,9.75,9.75,0,0,0-4.05,4.16,3.93,3.93,0,0,0-.65,2.19c.07,1.09.55,1.64,1.42,1.64a4.25,4.25,0,0,0,2.73-1.21A6.55,6.55,0,0,1,455.2,293.74Zm2.19-7v2.63a6.35,6.35,0,0,0,.11,2,18.78,18.78,0,0,0,2.84-5.25c-1.24.22-2.12.41-2.63.55A.44.44,0,0,1,457.39,286.74Z"/><path d="M482.21,283.35v.55a6.55,6.55,0,0,0,.44,2.62h.22l1.09-1.75h.33l1.21,1.1c-.15.29-.33.69-.55,1.2a10.93,10.93,0,0,0-1.2,4.26v.44a15.56,15.56,0,0,1-2.63.22,8.81,8.81,0,0,1-1.09-2.84,17.8,17.8,0,0,1-.66-4.93v-.87a28.87,28.87,0,0,1,.44-4.05,22.31,22.31,0,0,0,.44-3.61c1.09.08,2.15.19,3.17.33a22.11,22.11,0,0,0-.55,2.3A26.13,26.13,0,0,0,482.21,283.35Zm7.66-7.66,3.61-.32.22.1a11.48,11.48,0,0,0,.22,3.72,4.51,4.51,0,0,0,.22,1.21,37.11,37.11,0,0,1,.32,4.15v1.75a15.72,15.72,0,0,1-1.2,6.67,16.42,16.42,0,0,1-4.59,6.68c-.08.14-.18.14-.33,0l-2.52-1.21-.11-.22a17.35,17.35,0,0,0,3.94-4.7A16.15,16.15,0,0,0,491.4,286V283.9A19.89,19.89,0,0,0,489.87,275.69Z"/><path d="M502,281.71v-2.63h3.5v-5.14h2.74v5.14h3.28v2.63h-3.28v3.94l.76-.77a44.08,44.08,0,0,1,3.39,3.28l-1.75,2a1.3,1.3,0,0,0-.44-.44c-.8-.94-1.45-1.67-2-2.18v12.57h-2.74V287.4a28.7,28.7,0,0,1-3.17,6.34c-.07-.58-.26-1.49-.55-2.73a6.08,6.08,0,0,0-.22-1.1,27,27,0,0,0,3.83-8.2Zm10.72,18.37V275.47H527v24.61h-2.74v-1.75h-8.75v1.75Zm2.73-22v4.27h8.75V278.1Zm0,6.78v4.27h8.75v-4.27Zm0,6.78v4.27h8.75v-4.27Z"/><path d="M529.68,279.52V277h4.16l-1.09-2.74,2.62-.44c.22.59.62,1.57,1.2,3a.28.28,0,0,1,.11.22h3v2.51Zm.77,4.16v-2.3H539v2.3Zm0,4.26v-2.29H539v2.29Zm.11,11.93V289.8h8.31v10h-2.41v-1.43h-3.39v1.54Zm2.51-7.66v3.94h3.39v-3.94Zm7.77,7.87c-.07-.14-.22-.4-.44-.76-.51-.8-.91-1.39-1.2-1.75q6.45-2.62,7-6.89c.14-1.1.29-2.74.44-4.92h2.62a27.53,27.53,0,0,1-.22,3.71,10.65,10.65,0,0,0,7.22,7.77c-.73,1.17-1.24,2-1.53,2.63q-5.25-2.62-6.78-6.68Q547,297.24,540.84,300.08Zm13.56-13.34q-3.82-2.73-6.56-4.37c-.88,1.53-3,3.09-6.45,4.7a23,23,0,0,0-1.53-2.41q6.23-2.51,6.56-5.9a26.31,26.31,0,0,0,.33-4.82h2.73a27.75,27.75,0,0,1-.44,5l-.22,1.1c.51.29,1.24.73,2.19,1.31q3.39,2,5,3.06Zm-11.48,6.13a43.12,43.12,0,0,0-2.74-3.94l2.08-1.21a1.57,1.57,0,0,1,.22.33,36.32,36.32,0,0,1,2.63,3.39Zm.33-12.15c-.37-.51-1-1.38-2-2.62l-1-1.31,2-1.32a4.81,4.81,0,0,1,.33.44,43.41,43.41,0,0,1,2.73,3.39Zm9,0-2.07-1.53a35.58,35.58,0,0,0,3.28-3.72l2.08,1.43c-.66.87-1.64,2-3,3.5Zm0,12.15-2-1.54a1.26,1.26,0,0,0,.21-.32,38.93,38.93,0,0,0,3-3.39l2.08,1.53c-.51.65-1.32,1.56-2.41,2.73A8,8,0,0,0,552.21,292.87Z"/><path d="M562.93,275.15h.22l3.5.65a11.4,11.4,0,0,1-.33,1.42v15.1a5,5,0,0,0,.66,2.95,3,3,0,0,0,2.3,1.1h.65a4.11,4.11,0,0,0,1.86-.44,10.81,10.81,0,0,0,2.52-1.21,12,12,0,0,0,3.06-2.73h.22l1.31,2.52q.23.21,0,.21a13.45,13.45,0,0,1-4.59,3.29,9.84,9.84,0,0,1-4.81,1.2h-.33a6.44,6.44,0,0,1-3.61-1.09,4.32,4.32,0,0,1-2.19-3.18c-.07-1-.11-2.07-.11-3.17V277.44a5.73,5.73,0,0,0-.22-1.31A7,7,0,0,1,562.93,275.15Z"/><path d="M587.54,280.4h.33l9.52-2c4.15-.88,7.29-1.5,9.4-1.86,1.1-.22,2.19-.4,3.28-.55l.22,3.17h-.65c-3.36,0-5.87.92-7.55,2.74a10.36,10.36,0,0,0-2.84,7.33v.43a5.77,5.77,0,0,0,1.53,4.27q1.53,1.64,4.81,1.53h1.86v3.28h-1.64a10.2,10.2,0,0,1-6.89-2.4,8.61,8.61,0,0,1-2.3-6.35v-1.09q0-4.28,3.5-8.53c-1,.22-2.41.58-4.37,1.09-1,.22-1.68.4-2.19.55l-1,.33a12.29,12.29,0,0,0-3.28,1.2Z"/><path d="M613.9,293.52v-.44a8.52,8.52,0,0,1,1.1-3.5,9.11,9.11,0,0,1,2-2.29,9.74,9.74,0,0,1,6.24-2.3h.22a4,4,0,0,0,.76-1.31q1.32-2.3,2.74-4.6l-.22-.21a10.6,10.6,0,0,0-5.25,1.85l-.55-1.09c-.22-.44-.65-1.2-1.31-2.3l.11-.11H621a16.49,16.49,0,0,0,3.06-.43,4,4,0,0,1,.77-.11,17.84,17.84,0,0,0,3.39-1h.22l2.84,2.74c.07.29-.11.54-.54.76l-.11.11a12.19,12.19,0,0,0-1.86,1.53c-.22.3-.51.73-.88,1.32a6.21,6.21,0,0,0-.44.65,4.06,4.06,0,0,1-.43.66,19.15,19.15,0,0,1-1,1.86c.8.14,1.61.33,2.41.55a22,22,0,0,1,2.95,1.2c.66.29,1.13.51,1.42.65a24.07,24.07,0,0,0,.66-4.7v-.87h.22l2.95.87v.22a19.51,19.51,0,0,0-1.31,4.48.31.31,0,0,1-.11.22,2.53,2.53,0,0,1-.33,1,28.63,28.63,0,0,1,5,3.5l-1.31,2.51h-.22c-1.24-1.09-2.51-2.15-3.83-3.17a1.45,1.45,0,0,0-.54-.33c-.44.95-.92,1.86-1.42,2.74a15.55,15.55,0,0,1-5.36,5H627a11.06,11.06,0,0,0-2.3-1.75v-.11a15.27,15.27,0,0,0,5.14-3.72,9.47,9.47,0,0,0,2.08-3.39.1.1,0,0,0-.11-.11,21.89,21.89,0,0,0-7-2.62c-.37.73-.91,1.75-1.64,3.06-.51.87-.88,1.53-1.09,2q-2.62,4.59-5.58,4A3.23,3.23,0,0,1,613.9,293.52Zm3.39-3.17a4.16,4.16,0,0,1-.33.55,3,3,0,0,0-.65,1.09c-.29,1.31,0,2,1,2.08a2.23,2.23,0,0,0,1.32-.66.33.33,0,0,1,.1-.22,6.45,6.45,0,0,0,1.1-1.42,31.84,31.84,0,0,0,2.3-4.37A7.9,7.9,0,0,0,617.29,290.35Z"/><path d="M654.26,274.93l3.39.33.11.11a4.64,4.64,0,0,0-.44.87,1.19,1.19,0,0,1-.21.44v.44c-.08.58-.15,1.24-.22,2,.8-.07,1.93-.21,3.39-.43.65-.08,1.13-.15,1.42-.22l-.22,2.51a27.1,27.1,0,0,1-4.59.55,10.25,10.25,0,0,1,.11,1.75c.07.73.11,1.31.11,1.75h.21a21.8,21.8,0,0,0,4.82-.77l-.44,2.52a18.66,18.66,0,0,1-4.38.77q.12,2.5.33,5.25a19.1,19.1,0,0,1,6.13,3.39l-1.32,2a17.29,17.29,0,0,0-4.7-2.52,3.49,3.49,0,0,1-2.19,3.17,7.13,7.13,0,0,1-3.39.66h-1a5.52,5.52,0,0,1-4.05-1.42,3.06,3.06,0,0,1-.87-3.61,4.34,4.34,0,0,1,2.08-1.75,11,11,0,0,1,3.71-.66h1.1a8.91,8.91,0,0,1,1.64.22c-.44-.15-.37-.15.22,0,0-.66-.08-1.64-.22-2.95-.07-.66-.11-1.17-.11-1.54h-2.3a37.29,37.29,0,0,1-3.94-.21l-.21-.11L647.7,285v-.22c.29.07.66.15,1.09.22a20,20,0,0,0,3.07.33h2.73c0-1.1,0-2.37-.11-3.83h-.66c-1.89,0-3.71-.07-5.46-.22l-.22-.11-.66-2.51a15,15,0,0,1,2.19.22,27.16,27.16,0,0,0,2.73.21h2.08v-1.2A23.57,23.57,0,0,0,654.26,274.93Zm-2.4,19.14h-.66c-1.68.14-2.55.76-2.63,1.86.08.44.44.76,1.1,1a13.82,13.82,0,0,0,1.64.11H652a4.68,4.68,0,0,0,2.41-.44,2.18,2.18,0,0,0,.77-1.75v-.43a9.59,9.59,0,0,1-1.1-.11A17,17,0,0,0,651.86,294.07Z"/><path d="M674.93,275.15h.22l3.5.65a11.4,11.4,0,0,1-.33,1.42v15.1a5,5,0,0,0,.66,2.95,3,3,0,0,0,2.3,1.1h.65a4.11,4.11,0,0,0,1.86-.44,10.81,10.81,0,0,0,2.52-1.21,12,12,0,0,0,3.06-2.73h.22l1.31,2.52q.23.21,0,.21a13.45,13.45,0,0,1-4.59,3.29,9.84,9.84,0,0,1-4.81,1.2h-.33a6.44,6.44,0,0,1-3.61-1.09,4.32,4.32,0,0,1-2.19-3.18c-.07-1-.11-2.07-.11-3.17V277.44a5.73,5.73,0,0,0-.22-1.31A7,7,0,0,1,674.93,275.15Z"/><path d="M707.64,274.82h.22l3.28.87V276a2.64,2.64,0,0,0-1.1,1.75,10.74,10.74,0,0,0-.65,1.86,4.55,4.55,0,0,1-.22.66l3.61-.66a2.85,2.85,0,0,0,.76-.22l.22.11v2.85c-1.75.29-3.5.51-5.25.65a3.73,3.73,0,0,1-.11.55c.07-.15,0-.07-.11.22a64,64,0,0,1-5.79,15l-3-.87-.11-.22a88.56,88.56,0,0,0,6.35-14.55,17.05,17.05,0,0,1-2.19.11c-1,.07-1.68.11-2.19.11l-.22-.11-.43-2.62.11-.22a12.71,12.71,0,0,1,1.42.11,12.31,12.31,0,0,0,1.31.11h.87c.66,0,1.35,0,2.08-.11a3.58,3.58,0,0,0,.22-.66,17.53,17.53,0,0,0,.88-4.38Zm14.76,20.12-.33,3.07a30.2,30.2,0,0,1-3.61.21h-1.09a22.94,22.94,0,0,1-4.81-.54,2,2,0,0,1-.44-.11c-.51,0-.84-.11-1-.33l-.11-2.52a5.67,5.67,0,0,0,1,.22,28.66,28.66,0,0,0,4.81.55h.55A23.27,23.27,0,0,0,722.4,294.94Zm-6.34-10.72h1c1.17,0,2.41,0,3.72.11l.11,3-.11.11a24.17,24.17,0,0,0-4.7-.66H715a9,9,0,0,0-2.4.33l.44-2.74h1.42C715.15,284.26,715.69,284.22,716.06,284.22Z"/><path d="M729,295.27a4.39,4.39,0,0,1,4.49-4.48q4,.33,4.37,4.48-.44,3.72-4.37,4.16C730.75,299.21,729.26,297.82,729,295.27Zm1.75,0c.15,1.46,1.06,2.26,2.74,2.41a2.53,2.53,0,0,0,2.62-2.41,2.65,2.65,0,0,0-2.62-2.73A2.7,2.7,0,0,0,730.71,295.27Z"/><path d="M151.66,344.45l3.39,1.65v.21a5.08,5.08,0,0,0-1.53,1.54.31.31,0,0,0-.11.21,5.27,5.27,0,0,1-.32.55c-1,1.39-1.72,2.44-2.3,3.17a3.53,3.53,0,0,1-.88,1,6.79,6.79,0,0,1-.54.65l2.29-.32c1-.08,1.79-.15,2.3-.22a9.48,9.48,0,0,0,1.09-.11,15,15,0,0,1,2.19-.22h.55v2.95h-1a13.44,13.44,0,0,0-4.92,1.31,9.86,9.86,0,0,0-3.28,2.63c-1,1.31-1.35,2.44-1,3.39a4.66,4.66,0,0,0,3.28,2.62,18.82,18.82,0,0,0,3.72.55c-.08.22-.19.58-.33,1.1a15.27,15.27,0,0,1-.55,1.85h-.44a10.58,10.58,0,0,1-2.51-.43,2.6,2.6,0,0,0-.66-.11l-.65-.33c-.44-.22-1.14-.58-2.08-1.09a5.55,5.55,0,0,1-2.74-4.6v-.54a5.77,5.77,0,0,1,2-4.05,10.17,10.17,0,0,1,2.41-2,35.87,35.87,0,0,0-9.08,2.62,1,1,0,0,1-.44.22,3.72,3.72,0,0,1-1.75.66c-.22,0-.51-.29-.87-.88a.27.27,0,0,1-.11-.21,1.25,1.25,0,0,1-.22-.44,10.31,10.31,0,0,1-.66-2,7.54,7.54,0,0,0,3.94-.22,2,2,0,0,1,.44-.11c.36-.07,1-.22,1.75-.44l2.3-.65h.21a1,1,0,0,1,.33-.11,16.21,16.21,0,0,0,2.3-2.3,21.29,21.29,0,0,0,4.16-7.55Zm-6.45,5.91-.11.22-2.51,1.2-.22-.11a2.86,2.86,0,0,1-.22-.54,34.26,34.26,0,0,0-2.41-4.38c.15-.07.4-.22.77-.44a6.66,6.66,0,0,1,1.86-.76A32,32,0,0,1,145.21,350.36Z"/><path d="M168.62,346.53V346a6.85,6.85,0,0,0-.22-1.54,29.08,29.08,0,0,0,3.72.22V345a3.53,3.53,0,0,0-.66,1.2,1,1,0,0,0-.11.33c-.29,1.17-.51,2.26-.66,3.28.08,0,.11,0,.11-.11l2,1.54c.07.14,0,.32-.22.54a.31.31,0,0,0-.21.11,3.67,3.67,0,0,0-.55.88q-.43.54-.66.87c.37-.29.91-.76,1.64-1.42q3.51-3.5,6.13-3.39h.44a4.1,4.1,0,0,1,1.85.44,2.64,2.64,0,0,1,1.21,2v.43a51.42,51.42,0,0,1-.55,6.24c-.22,1.38-.36,2.4-.44,3.06a4.41,4.41,0,0,0,.11,2.3c.29.65.88.84,1.75.54a6.13,6.13,0,0,0,2.52-1.64l.44-.43.11-.11c.36-.59.72-.88,1.09-.88l.87,2.95a21.74,21.74,0,0,1-2.84,2.52,6,6,0,0,1-3.06,1.09H182a4.28,4.28,0,0,1-2.52-1.2,6.06,6.06,0,0,1-.76-3.28v-.44a39,39,0,0,1,.55-5.36,12.6,12.6,0,0,1,.21-1.42,5,5,0,0,1,.11-.76,7.36,7.36,0,0,0,.22-1.54v-.43c-.14-.88-.87-1.24-2.18-1.1a9.64,9.64,0,0,0-2.74,1.75c-.07.08-.15.15-.22.22A32.43,32.43,0,0,0,171,357a4.15,4.15,0,0,0-.54.77l-.66.65v.88c0,1.17.11,2.95.33,5.36.14,1.68.22,2.95.22,3.83h-3.18v-4.16c0-.95,0-1.86.11-2.73a39.15,39.15,0,0,0-3.28,4.59h-.22l-2.4-1.42v-.22q5.68-6.12,6.67-10.83l-1.53.66a11.35,11.35,0,0,0-3.39,1.64l-1.53-3.28.11-.22a16.86,16.86,0,0,0,6.45-1.31c.07-.37.14-.92.22-1.64s.11-1.17.11-1.54a3.93,3.93,0,0,1,.11-.76Z"/><path d="M193,345.33l3.83,1.2a6.35,6.35,0,0,1-.55,1.42c-.15.37-.26.66-.33.88a22,22,0,0,0-1.75,8.64v.88a10.3,10.3,0,0,0,1.09,5h.11c.15-.29.33-.7.55-1.21a8.34,8.34,0,0,0,.55-1.09l1.2.22q-.11.54-.33,1.53a18.08,18.08,0,0,0-.54,3.5V367l-2.63.54a10.07,10.07,0,0,1-2-4.26,23.83,23.83,0,0,1-.55-5.58v-1.2a28.88,28.88,0,0,1,.88-7,15.89,15.89,0,0,0,.44-3.61Zm13.78,17.5h1a22.81,22.81,0,0,0,6.13-.88l.11,3a15.24,15.24,0,0,1-5,.76h-1.21c-3.43,0-6-.8-7.76-2.4a2.88,2.88,0,0,1-.88-1.32l2-1.2A7.45,7.45,0,0,0,206.79,362.83Zm.11-15.09h1.2a42.55,42.55,0,0,1,4.27.21v2.85c-.51,0-1.21,0-2.08-.11s-1.53-.11-2-.11h-1.2a21.86,21.86,0,0,0-3.07.33,17.56,17.56,0,0,1-2.84.33l-.22-3a20,20,0,0,0,2.52-.22A28,28,0,0,1,206.9,347.74Z"/><path d="M219.26,369.39c-.88-1-1.57-1.78-2.08-2.29q4.15-4.82,4.16-15.86v-.55h-3.29V348h3.39v-4.7h2.85V348h6q0,10.73-.32,16.85,0,3.82-3.5,3.83c-.66.07-1.75.11-3.29.11a26.32,26.32,0,0,0-.54-2.85h2.51a1.73,1.73,0,0,0,2.08-2q.22-6.35.22-13.23h-3.28v.66Q224.08,364.25,219.26,369.39Zm13.45-.65V346.1H243v22.64h-2.84v-2.52h-4.71v2.52Zm2.73-19.91V363.6h4.71V348.83Z"/><path d="M249.88,352.55h.55a30.24,30.24,0,0,0,5.8-.55,11.69,11.69,0,0,0,3.71-.76,1.28,1.28,0,0,0,.66-.44h.22l2.52,1.53c.14.07.18.22.1.44v.11a17.65,17.65,0,0,0-3.5,3.72l-1.31,1.64h.77a3.37,3.37,0,0,1,2.08.65,4.58,4.58,0,0,1,.76,2.19,7.15,7.15,0,0,1,.22,1,13.5,13.5,0,0,0,.44,2,1.65,1.65,0,0,0,1.53,1.42h1.31a16.61,16.61,0,0,0,3.94-.54v2.95a29.21,29.21,0,0,1-3.5.22h-2.3a3.47,3.47,0,0,1-3.06-1.42,9.37,9.37,0,0,1-1.09-3.28,1.9,1.9,0,0,0-.11-.55,8,8,0,0,0-.22-1.09,1.62,1.62,0,0,0-1.42-1,3.06,3.06,0,0,0-2.3,1.31,58.13,58.13,0,0,0-4.7,6h-.22a21.5,21.5,0,0,0-2.74-1.75v-.11a88.73,88.73,0,0,0,7.66-8.42,19.83,19.83,0,0,0,2.62-3.72l-.11-.22a11.23,11.23,0,0,1-3.28.88,12.59,12.59,0,0,0-2.51.65,1.12,1.12,0,0,0-.55.22c-.22.22-.4.29-.55.22Zm7-8.75h.22a34.56,34.56,0,0,0,5.36,2.51,1,1,0,0,0,.33.22.87.87,0,0,1,.55.33l-.88,2.3-.33.11a34.67,34.67,0,0,1-6.45-3.07V346Z"/><path d="M273.62,358.78v-2.4h3.72l1-6.24H297l-.33,6.24h3.4v2.4h-3.5l-.22,3.94h2.84v2.41h-3.06q-.12,3.93-4.6,3.93a18.63,18.63,0,0,1-3.06,0h-1.75l-.55-2.29h4.49c1.53,0,2.37-.55,2.51-1.64H275.91l1-6.35Zm1.86-5.9a21.77,21.77,0,0,0-1.54-2.52,19.69,19.69,0,0,0,5.8-7.33l3.17.22a15.14,15.14,0,0,1-1.2,2.19h17.72V348H280.18A48.17,48.17,0,0,1,275.48,352.88Zm4.26,5.9-.55,3.94h5.58l.44-3.94Zm1.1-6.23-.66,3.83h5.36l.44-3.83Zm12.57,10.17.22-3.94h-5.58l-.43,3.94Zm.66-10.17h-5.25l-.44,3.83h5.47a12.46,12.46,0,0,0,.11-1.86C294,353.64,294.07,353,294.07,352.55Z"/><path d="M304.79,369.5l-1.2-1.2q-.88-.76-1.32-1.2a10.67,10.67,0,0,0,3-5,31.92,31.92,0,0,0,.76-8.2v-9.41H324.8v19.91c.08,2.84-1.35,4.34-4.26,4.49-1,.07-2.48.1-4.6.1-.07-.43-.21-1.16-.43-2.18a4,4,0,0,0-.22-.77c1.09.07,2.48.11,4.15.11s2.37-.66,2.3-2.19v-2.84H308.62A17.19,17.19,0,0,1,304.79,369.5Zm4.15-15.42c0,1.6,0,3.06-.1,4.37h12.9v-4.37Zm0-6.89v4.26h12.8v-4.26Z"/><path d="M355.87,355.94v.76a10,10,0,0,1-3,6.9,13.47,13.47,0,0,1-5.47,3.93q0,.23-.21,0a10.23,10.23,0,0,0-2.52-1.64v-.22q7.88-3.72,8-9.51v-.55a7.11,7.11,0,0,0-2.4-5,8.76,8.76,0,0,0-4.6-2,59.39,59.39,0,0,1-2.4,8,50.76,50.76,0,0,1-3.39,7.1q-1.42,2.63-3.5,2.63-3.28-.1-5.47-3.72a7.67,7.67,0,0,1-1.09-3.72v-.54a10.21,10.21,0,0,1,.87-3.61,13,13,0,0,1,2-3.29,12.41,12.41,0,0,1,5.91-4.48,15.6,15.6,0,0,1,5-1.09h1.2a11,11,0,0,1,8,2.95A10.38,10.38,0,0,1,355.87,355.94Zm-23.08,1.86v.55a6.05,6.05,0,0,0,1.09,3.39,2.52,2.52,0,0,0,2.08,1.31,2.77,2.77,0,0,0,1.86-1.31,19.31,19.31,0,0,0,1.09-2c.15-.37.26-.62.33-.77A36.69,36.69,0,0,0,343,348.61a17.46,17.46,0,0,0-4.16,1.09,14.9,14.9,0,0,0-4.48,4.05A8.56,8.56,0,0,0,332.79,357.8Z"/><path d="M382.44,369.06q-8.08-1.63-11.48-3.5a58.71,58.71,0,0,1-11.81,3.94c-.37-.8-.84-1.75-1.42-2.84a37,37,0,0,0,10.5-3,20.31,20.31,0,0,1-6-8H360V353.1h9.41v-3.72H358.05v-2.63h11.38v-3.61h3.06v3.61h11.05v2.63H372.49v3.72h7.66v2.73a22.09,22.09,0,0,1-6.56,7.87A30.82,30.82,0,0,0,384,366.33a7.07,7.07,0,0,0-.55,1.09A7.75,7.75,0,0,0,382.44,369.06Zm-5.57-13.34h-11.6a17,17,0,0,0,5.69,6.45A17.59,17.59,0,0,0,376.87,355.72Z"/><path d="M385.94,350.91v-2.63h3.72v-5h3v5h3.61v2.63h-3.61v4.81l3.28-.77v3l-3.28.76v6.89c.07,2.05-1,3.14-3.28,3.29-.66.07-1.57.1-2.74.1-.15-.87-.33-1.78-.55-2.73h2.08q1.65,0,1.53-1.53v-5.36l-3.82.87-.33-3.06,4.15-.87v-5.36Zm10,16.51-1.42-2.29a8.49,8.49,0,0,0,2-3.07,163,163,0,0,0,5.8-18.59l3.17.55a189.72,189.72,0,0,1-6.89,20.34c1-.07,2.41-.14,4.38-.22l4.59-.33q-1.64-4.69-3.39-9l2.84-.88q3.51,9,5.14,14l-2.84.88-.87-2.52q-5.14.1-9.85.66A9.78,9.78,0,0,0,395.9,367.42Z"/><path d="M414.71,348l.11-.1c1.31.21,2.55.47,3.72.76a2.74,2.74,0,0,1-.22.77,4.52,4.52,0,0,0-.22,1.2,7,7,0,0,0-.11,1.31v.77a20.5,20.5,0,0,0,.44,4.59,40.26,40.26,0,0,0,1.53,4.38c.51,1.16,1.13,1.75,1.86,1.75a2.58,2.58,0,0,0,1.64-.77,9.26,9.26,0,0,0,1.75-2.08h.22l1.31,2q.22.11,0,.33a4.79,4.79,0,0,1-1.53,2,5.19,5.19,0,0,1-3.61,1.53q-2.62,0-4.16-3.39c-.21-.51-.47-1.24-.76-2.19a6.73,6.73,0,0,0-.44-1.42,58.75,58.75,0,0,1-1-6.13,9.69,9.69,0,0,0-.11-1.09,8.53,8.53,0,0,0-.22-1c0-.37,0-.91-.11-1.64A8.63,8.63,0,0,0,414.71,348ZM431,350.8l2.51-.77h.22a38.08,38.08,0,0,1,4.27,7.11,7.2,7.2,0,0,1,1,2.41l-2.62,1.2h-.44a30.43,30.43,0,0,0-5-9.62Z"/><path d="M451.9,343.58h.43l3.18.87v.22a1.69,1.69,0,0,0-.55.88l-.33.65c-.29.95-.55,1.94-.76,3a1,1,0,0,1-.11.33c-.08.21-.15.4-.22.54h2.08a11,11,0,0,0,1.86-.22,3.19,3.19,0,0,1,.65-.11l-.55,2.74a.44.44,0,0,1-.32.11H453c-.07.51-.15,1.2-.22,2.08l-.33,2.4a18.31,18.31,0,0,0,5.25.11v.44l-.43,2.19a.49.49,0,0,1-.33.11h-2.3c-.8,0-1.64,0-2.51-.11v.76a2.91,2.91,0,0,0-.11.77v1.09a4.1,4.1,0,0,0,1.09,2.85,4,4,0,0,0,2.52,1h.65a4.69,4.69,0,0,0,3.17-1.09,4.51,4.51,0,0,0,1.1-3v-.43c0-1.24-.7-3-2.08-5.14a2.55,2.55,0,0,0-.33-.55l3.17-.22a9.47,9.47,0,0,1,2.41,6.12v.55a6.33,6.33,0,0,1-2.3,4.81A6.71,6.71,0,0,1,456.6,369h-.66a6.9,6.9,0,0,1-4.7-1.85q-1.75-1.43-1.75-4.93v-1.09a14.68,14.68,0,0,1,.11-1.75,16.67,16.67,0,0,0-1.75-.55,11,11,0,0,0-1.86-.54l.22-2.74a15.84,15.84,0,0,0,3.72,1.1v-.55a15.79,15.79,0,0,0,.44-2c.14-.8.25-1.42.32-1.86q-1.31-.33-2.4-.66c-.59-.07-.88-.18-.88-.32l.22-2.74a22,22,0,0,0,3.39,1c.07-.22.18-.62.33-1.21a6.93,6.93,0,0,1,.22-1.09,5,5,0,0,1,.11-.77,14,14,0,0,0,.22-2.07Z"/><path d="M473,356.16q-1.75-2-3.39-3.72l2.07-1.64,1.32,1.31a32.05,32.05,0,0,1,2.29,2.3Zm-.66,12.9-2.62-.87q1-3,2.51-9.08a7.2,7.2,0,0,1,.22-.87,11.8,11.8,0,0,1,1.31.43,8.75,8.75,0,0,1,1.21.44c-.22.88-.59,2.26-1.1,4.16C473.23,365.75,472.71,367.68,472.35,369.06ZM474,349.27l-2.41-2.74-1.2-1.2,2.19-1.64,1.86,1.86c.8.87,1.42,1.53,1.86,2Zm11.92,20c-.29-.29-.84-.76-1.64-1.42q.89.66-.33-.33a26.6,26.6,0,0,0,2.52-2.4h-6v-8.75h6.24v8.53a28.64,28.64,0,0,0,2.08-2.85,73.56,73.56,0,0,1-1.1-11v-1.21h-8.31V355a38,38,0,0,1-.66,8.1,19.53,19.53,0,0,1-2.62,6.23,22.36,22.36,0,0,1-2.19-1.75,18.57,18.57,0,0,0,2.3-5.58,35.6,35.6,0,0,0,.55-7.1v-7.44h10.82v-4.16h2.63v4.16h3.06c-.36-.51-1.13-1.42-2.3-2.74l1.64-1A25.79,25.79,0,0,1,495,346.2l-1.64,1.21H496v2.4h-5.69v1q.1,2.29.33,5.8c.07.87.11,1.53.11,2a48.42,48.42,0,0,0,2.51-6.45l2.3,1a45.47,45.47,0,0,1-4.16,9.4c.22.73.44,1.5.66,2.3s.73,1.31,1.09,1.31.58-.18.66-.76a7.71,7.71,0,0,1,.11-1.1c.14-1.31.25-2.26.33-2.84a14.48,14.48,0,0,0,2,.76c-.14,1.46-.32,2.88-.54,4.27-.37,1.75-1.17,2.62-2.41,2.62q-2.52,0-3.61-3.71a.1.1,0,0,1-.11-.11A41.71,41.71,0,0,1,485.91,369.28Zm-5.68-15.09v-2.3h6.67v2.3Zm2.29,4.37v4.38h2.19v-4.38Z"/><path d="M514.24,349.05h.55a6.71,6.71,0,0,1,4.59,1.64,6.62,6.62,0,0,1,2,4.59v.55a6,6,0,0,1-1,3.28,10,10,0,0,1-3,2.84,13.32,13.32,0,0,1-6.56,2.3l-1.75-2.08a16.1,16.1,0,0,0,6.56-2.07c2.19-1.32,3.28-2.88,3.28-4.71V355q-.44-3.17-4.48-3.71H514a10.83,10.83,0,0,0-3.39.54c-.87.29-1.75.62-2.62,1-.3.14-.7.33-1.21.54a34.19,34.19,0,0,0-3.17,1.75c-.07,0-.14.08-.22.22a.84.84,0,0,1-.76.22l-2.3-2.62c2-.51,4-1.1,6-1.75a2,2,0,0,0,.43-.11C509.94,349.63,512.42,349,514.24,349.05Z"/><path d="M535.57,344.13h.22l3.28.87v.33a2.57,2.57,0,0,0-1.09,1.75,10.63,10.63,0,0,0-.66,1.86,3.58,3.58,0,0,1-.22.66l3.61-.66a3.58,3.58,0,0,0,.77-.22l.21.11v2.84c-1.75.3-3.5.51-5.25.66a2.69,2.69,0,0,1-.11.55c.08-.15,0-.08-.1.22a63.75,63.75,0,0,1-5.8,15l-2.95-.88-.11-.21a89.37,89.37,0,0,0,6.34-14.55,17.05,17.05,0,0,1-2.19.11c-.95.07-1.68.11-2.19.11l-.21-.11-.44-2.63.11-.22c.29,0,.76,0,1.42.11a10.1,10.1,0,0,0,1.31.11h.88a19.11,19.11,0,0,0,2.08-.11,3.3,3.3,0,0,0,.21-.65,17.08,17.08,0,0,0,.88-4.38Zm14.76,20.12-.32,3.06a28.34,28.34,0,0,1-3.61.22h-1.1a22.94,22.94,0,0,1-4.81-.54,2,2,0,0,1-.44-.11c-.51,0-.84-.11-1-.33L539,364a5.9,5.9,0,0,0,1,.22,28.75,28.75,0,0,0,4.82.55h.54A23.2,23.2,0,0,0,550.33,364.25ZM544,353.53h1c1.16,0,2.4,0,3.71.11l.11,3-.11.1a24.79,24.79,0,0,0-4.7-.65H542.9a9,9,0,0,0-2.41.33l.44-2.74h1.42C543.08,353.57,543.63,353.53,544,353.53Z"/><path d="M579.87,355.94v.76a10,10,0,0,1-3,6.9,13.47,13.47,0,0,1-5.47,3.93q0,.23-.21,0a10.23,10.23,0,0,0-2.52-1.64v-.22q7.88-3.72,8-9.51v-.55a7.11,7.11,0,0,0-2.4-5,8.76,8.76,0,0,0-4.6-2,59.39,59.39,0,0,1-2.4,8,50.76,50.76,0,0,1-3.39,7.1q-1.42,2.63-3.5,2.63-3.28-.1-5.47-3.72a7.69,7.69,0,0,1-1.1-3.72v-.54a10.26,10.26,0,0,1,.88-3.61,13,13,0,0,1,2-3.29,12.43,12.43,0,0,1,5.9-4.48,15.71,15.71,0,0,1,5-1.09h1.2a11,11,0,0,1,8,2.95A10.38,10.38,0,0,1,579.87,355.94Zm-23.08,1.86v.55a6.05,6.05,0,0,0,1.09,3.39,2.51,2.51,0,0,0,2.08,1.31,2.77,2.77,0,0,0,1.86-1.31,19.31,19.31,0,0,0,1.09-2c.15-.37.26-.62.33-.77A36.69,36.69,0,0,0,567,348.61a17.46,17.46,0,0,0-4.16,1.09,14.9,14.9,0,0,0-4.48,4.05A8.56,8.56,0,0,0,556.79,357.8Z"/><path d="M581.29,349.7h.65a15.2,15.2,0,0,0,3.29-.54l1.31-.33c1.38-.36,2.73-.69,4-1q3.61-.89,7.11-1.54a22.51,22.51,0,0,0,4.38-1,3.3,3.3,0,0,0,.33,1.2,3.75,3.75,0,0,1,.22,1.64l-1.54.33a7.6,7.6,0,0,0-3.71,1.2,8.64,8.64,0,0,0-3.18,4.71,15.72,15.72,0,0,0-.65,3.83v.65a5.77,5.77,0,0,0,1.64,4.27,6.38,6.38,0,0,0,4.26,1.64H600a7,7,0,0,0,1.75-.22v3.28h-.87A12.76,12.76,0,0,1,594,366a8.62,8.62,0,0,1-3.29-6.89v-.55q0-4.26,3.39-9c-2.91.72-5.83,1.53-8.75,2.4a3.29,3.29,0,0,1-.76.22,3,3,0,0,0-1.53.88L581.29,350Zm20.12,1.54,1.53-1.43c.22.22.51.55.88,1a17.62,17.62,0,0,1,1.75,2L604,354.08A17.33,17.33,0,0,0,601.41,351.24Zm3-2.19,1.53-1.31a18.7,18.7,0,0,1,2.51,2.84l-1.64,1.31A22.66,22.66,0,0,0,604.37,349.05Z"/><path d="M253.43,417.48l2.41,2.74v.21a40,40,0,0,0-10.61,4.49,13.2,13.2,0,0,0-3.39,3.28,3.8,3.8,0,0,0-.66,1.86v.44a3.4,3.4,0,0,0,2.08,2.95,8.49,8.49,0,0,0,3.72.66h.77a22.74,22.74,0,0,0,6.34-.88l.22,3.28c-1.9.15-3.72.22-5.47.22H247.2a10.06,10.06,0,0,1-5.8-1.2,5.43,5.43,0,0,1-2.84-4.92v-.55c.07-2.48,1.57-4.74,4.48-6.78a1.06,1.06,0,0,1,.55-.44,44,44,0,0,0-3.5-9.19l2.95-.54a63.13,63.13,0,0,1,3.29,8.2l3.93-2A12.89,12.89,0,0,0,253.43,417.48Z"/><path d="M263.83,418.36h.32l9.52-2c4.16-.88,7.29-1.5,9.41-1.86,1.09-.22,2.18-.4,3.28-.55l.22,3.17h-.66c-3.36,0-5.87.92-7.55,2.74a10.41,10.41,0,0,0-2.84,7.33v.43a5.77,5.77,0,0,0,1.53,4.27q1.53,1.63,4.81,1.53h1.86v3.28h-1.64a10.22,10.22,0,0,1-6.89-2.4,8.61,8.61,0,0,1-2.3-6.35v-1.09q0-4.27,3.5-8.53c-.94.22-2.4.58-4.37,1.09-.95.22-1.68.4-2.19.55l-1,.33a12.16,12.16,0,0,0-3.28,1.2Z"/><path d="M300.25,412.23h.43l3.18.88v.22a1.61,1.61,0,0,0-.55.87q-.22.44-.33.66c-.29.95-.55,1.93-.76,2.95a1,1,0,0,1-.11.33,5.37,5.37,0,0,1-.22.54H304a11.82,11.82,0,0,0,1.86-.21,2.54,2.54,0,0,1,.65-.11l-.55,2.73a.44.44,0,0,1-.32.11h-4.27c-.07.51-.15,1.2-.22,2.08l-.33,2.4a18,18,0,0,0,5.25.11v.44l-.43,2.19a.49.49,0,0,1-.33.11H303c-.8,0-1.64,0-2.51-.11v.76a3,3,0,0,0-.11.77V431a4.08,4.08,0,0,0,1.09,2.85,4,4,0,0,0,2.52,1h.65a4.69,4.69,0,0,0,3.17-1.09,4.5,4.5,0,0,0,1.1-2.95v-.44c0-1.24-.7-3-2.08-5.14a2.86,2.86,0,0,0-.33-.55l3.17-.22a9.48,9.48,0,0,1,2.41,6.13v.54a6.35,6.35,0,0,1-2.3,4.82,6.76,6.76,0,0,1-4.81,1.64h-.66a6.86,6.86,0,0,1-4.7-1.86q-1.75-1.42-1.75-4.92v-1.1A14.82,14.82,0,0,1,298,428c-.37-.14-.95-.33-1.75-.55a11,11,0,0,0-1.86-.54l.22-2.74a15.84,15.84,0,0,0,3.72,1.1v-.55a15.38,15.38,0,0,0,.44-2c.14-.8.25-1.42.32-1.86-.87-.22-1.67-.44-2.4-.65s-.88-.19-.88-.33l.22-2.74a22,22,0,0,0,3.39,1c.07-.22.18-.62.33-1.21a7.2,7.2,0,0,1,.22-1.09,5,5,0,0,1,.11-.76,14.28,14.28,0,0,0,.22-2.08Z"/><path d="M318.18,436.08l-.32-2.74h.87a7.1,7.1,0,0,1,1-.11v-19.9h10.06v18.92l1.42-.22v1.31q2.4-3.39,2.63-12.14a3.17,3.17,0,0,1,.1-.66V420h-2.84v-2.74h2.84L334,412h2.85c-.08,1.24-.11,3-.11,5.25h6.45q-.23,12.48-.44,16.52-.1,3.5-3.5,3.61c-.58.07-1.82.11-3.71.11-.15-.88-.33-1.79-.55-2.74,1.16.08,2.19.11,3.06.11a1.75,1.75,0,0,0,2-1.86v-.87q.33-8,.33-12.14h-3.72v.65a3.26,3.26,0,0,0-.11.66q.1,11.93-5.47,16.73c-.15-.14-.36-.4-.66-.76l-1.31-1.53,1-.88Q325.4,435.1,318.18,436.08Zm4.16-20.35v4.16H327v-4.16Zm0,6.45v4.05H327v-4.05Zm0,10.72h.33c1.38-.07,2.84-.22,4.37-.43v-3.94h-4.7Z"/><path d="M358.54,420.11h1.64a2.39,2.39,0,0,1,2.19.87,3.38,3.38,0,0,1,.66,2.08v.44a23.79,23.79,0,0,1-1,6.45q-.87,3.82-3.06,4.92a7.42,7.42,0,0,1-3.72.77h-.54c-.22,0-.33,0-.33-.11-.15-.29-.33-.69-.55-1.2a17.09,17.09,0,0,0-.76-1.54v-.11a9.57,9.57,0,0,1,1.2.11,7.61,7.61,0,0,0,1.09.11h.44a2.31,2.31,0,0,0,2.08-1,7.22,7.22,0,0,0,1.09-2,.31.31,0,0,0,.11-.22,14.16,14.16,0,0,0,1-5.25v-.65c-.08-.81-.44-1.24-1.1-1.32a21.65,21.65,0,0,0-2.4.22,8.2,8.2,0,0,1-1.21.11,41.44,41.44,0,0,1-4.15,9,19,19,0,0,1-2.3,3.06,2.92,2.92,0,0,1-1.31-.54,4.16,4.16,0,0,0-.55-.33.33.33,0,0,1-.22-.11c-.44-.07-.69-.22-.76-.44a18.1,18.1,0,0,0,4.26-5.91c.73-1.45,1.42-2.88,2.08-4.26a8.22,8.22,0,0,0-3.17.87l-.11.11a1.34,1.34,0,0,1-.77.22l-1.53-3.17.11-.22a10.14,10.14,0,0,0,3.06,0,9.59,9.59,0,0,1,1.1-.11,7.13,7.13,0,0,1,2.07-.33c.15-.43.26-.8.33-1.09a13.7,13.7,0,0,0,.66-4.38v-.76a1,1,0,0,1-.11-.44,9.86,9.86,0,0,0,1.2.22c1,.15,1.82.29,2.41.44a1.65,1.65,0,0,1-.44,1,.35.35,0,0,0-.11.22,5.21,5.21,0,0,0-.33,1.53,1.9,1.9,0,0,0-.11.55,6.18,6.18,0,0,1-.21,1.2c-.08.51-.15.91-.22,1.21A12.39,12.39,0,0,1,358.54,420.11Zm5.36-1.43v-.32a6.47,6.47,0,0,1,1-.77c.44-.36.76-.62,1-.76s.55.07,1,.65a16,16,0,0,1,2.07,2.3,50.34,50.34,0,0,1,3.4,4.48v.33l-2.63,1.64A44.53,44.53,0,0,0,363.9,418.68Z"/><path d="M382.5,421.31v.55a6.56,6.56,0,0,0,.43,2.62h.22l1.1-1.75h.33l1.2,1.1c-.15.29-.33.69-.55,1.2a10.93,10.93,0,0,0-1.2,4.26v.44a15.56,15.56,0,0,1-2.63.22,9,9,0,0,1-1.09-2.84,17.8,17.8,0,0,1-.66-4.93v-.87a28.87,28.87,0,0,1,.44-4.05,22.31,22.31,0,0,0,.44-3.61c1.09.08,2.15.19,3.17.33a22.11,22.11,0,0,0-.55,2.3A26.78,26.78,0,0,0,382.5,421.31Zm7.65-7.66,3.61-.32.22.1a11.48,11.48,0,0,0,.22,3.72,4.51,4.51,0,0,0,.22,1.21,37.66,37.66,0,0,1,.33,4.15v1.75a15.88,15.88,0,0,1-1.21,6.67,16.35,16.35,0,0,1-4.59,6.68q-.1.21-.33,0l-2.51-1.21-.11-.22a17.3,17.3,0,0,0,3.93-4.7,16.15,16.15,0,0,0,1.75-7.55v-2.07A19.89,19.89,0,0,0,390.15,413.65Z"/><path d="M414.54,412.89l3.39.33.11.11a4.69,4.69,0,0,0-.43.87,1.34,1.34,0,0,1-.22.44v.44c-.08.58-.15,1.24-.22,2,.8-.07,1.93-.21,3.39-.43a14.19,14.19,0,0,0,1.42-.22l-.22,2.51a27,27,0,0,1-4.59.55,10.25,10.25,0,0,1,.11,1.75c.07.73.11,1.31.11,1.75h.22a21.81,21.81,0,0,0,4.81-.77L422,424.7a18.67,18.67,0,0,1-4.37.77c.07,1.67.18,3.42.32,5.25a19.1,19.1,0,0,1,6.13,3.39l-1.31,2a17.54,17.54,0,0,0-4.71-2.52,3.5,3.5,0,0,1-2.18,3.17,7.18,7.18,0,0,1-3.39.66h-1a5.52,5.52,0,0,1-4.05-1.42,3.06,3.06,0,0,1-.87-3.61,4.39,4.39,0,0,1,2.08-1.75,11.06,11.06,0,0,1,3.72-.66h1.09a8.91,8.91,0,0,1,1.64.22c-.44-.15-.36-.15.22,0a28,28,0,0,0-.22-2.95c-.07-.66-.11-1.17-.11-1.54h-2.3a37,37,0,0,1-3.93-.21l-.22-.11L408,423v-.22a10.6,10.6,0,0,0,1.1.22,19.77,19.77,0,0,0,3.06.33h2.73c0-1.1,0-2.37-.11-3.83h-.65c-1.9,0-3.72-.07-5.47-.22l-.22-.11-.66-2.51a15,15,0,0,1,2.19.22,27.16,27.16,0,0,0,2.73.21h2.08v-1.2A23.7,23.7,0,0,0,414.54,412.89ZM412.14,432h-.66c-1.68.15-2.55.76-2.62,1.86.07.44.43.76,1.09,1a13.82,13.82,0,0,0,1.64.11h.66a4.66,4.66,0,0,0,2.4-.44,2.18,2.18,0,0,0,.77-1.75v-.43a9.27,9.27,0,0,1-1.09-.11A17.15,17.15,0,0,0,412.14,432Z"/><path d="M435.22,413.11h.21l3.5.65a12.81,12.81,0,0,1-.32,1.42v15.1a5.1,5.1,0,0,0,.65,3,3,3,0,0,0,2.3,1.1h.66a4.17,4.17,0,0,0,1.86-.44,10.94,10.94,0,0,0,2.51-1.21,11.87,11.87,0,0,0,3.06-2.73h.22l1.31,2.52q.22.21,0,.21a13.36,13.36,0,0,1-4.59,3.29,9.84,9.84,0,0,1-4.81,1.2h-.33a6.44,6.44,0,0,1-3.61-1.09,4.32,4.32,0,0,1-2.19-3.18c-.07-1-.11-2.07-.11-3.17V415.4a6.27,6.27,0,0,0-.21-1.31A5.73,5.73,0,0,1,435.22,413.11Z"/><path d="M467.92,412.78h.22l3.28.87V414a2.6,2.6,0,0,0-1.09,1.75,10.63,10.63,0,0,0-.66,1.86,3.58,3.58,0,0,1-.22.66l3.61-.66a3.08,3.08,0,0,0,.77-.22l.21.11v2.85c-1.75.29-3.5.51-5.25.65a2.58,2.58,0,0,1-.11.55c.08-.15,0-.07-.1.22a63.58,63.58,0,0,1-5.8,15l-2.95-.87-.11-.22a89.37,89.37,0,0,0,6.34-14.55,17.05,17.05,0,0,1-2.19.11c-.95.07-1.68.11-2.19.11l-.21-.11-.44-2.62.11-.22a12.71,12.71,0,0,1,1.42.11,12.31,12.31,0,0,0,1.31.11h.88c.65,0,1.35,0,2.08-.11a3.7,3.7,0,0,0,.21-.66,17.08,17.08,0,0,0,.88-4.38Zm14.76,20.12-.32,3.07a30.33,30.33,0,0,1-3.61.21h-1.1a22.94,22.94,0,0,1-4.81-.54,2,2,0,0,1-.44-.11c-.51,0-.84-.11-1-.33l-.11-2.52a5.9,5.9,0,0,0,1,.22,28.65,28.65,0,0,0,4.82.55h.54A23.2,23.2,0,0,0,482.68,432.9Zm-6.34-10.72h1c1.16,0,2.4,0,3.71.11l.11,3-.11.11a24.17,24.17,0,0,0-4.7-.66h-1.09a9,9,0,0,0-2.41.33l.44-2.74h1.42C475.43,422.22,476,422.18,476.34,422.18Z"/><path d="M494.17,414.42l-.66,16.08h-2.73l-.55-16.08ZM494,436.84h-3.5v-3.5H494Z"/></g></g></svg>