<svg xmlns="http://www.w3.org/2000/svg" viewBox="0 0 759.89 428.94"><defs><style>.cls-1{fill:#fff;}</style></defs><g id="レイヤー_2" data-name="レイヤー 2"><g id="_4" data-name="4"><path class="cls-1" d="M638.78,422.23c-4.9-1.9-12.1-10.7-16.6-14.1-4.3-3.2-9.3-6.3-12.8-10.4a62.77,62.77,0,0,1-8.8-14.1,47.08,47.08,0,0,1-4.6-16,35,35,0,0,1,3.5-16.3,39.23,39.23,0,0,1,10.1-13.1c4-3.4,9.5-5.9,15-8.7,4.8-2.5,10.5-3.9,16.1-6.2,5.1-2.1,10.2-4.9,15.7-7.1,5.2-2.1,10.6-4.3,16-6.5s10.9-3.8,16.1-6.4,9.8-6.1,14.8-9.1a150.6,150.6,0,0,0,14.2-9.9c4.5-3.5,8.3-7.8,12.3-12.1,3.9-4.1,8.1-8,11.3-13,3-4.7,5-10.1,7.3-15.6a107.32,107.32,0,0,0,5.1-16.3c1.3-5.3,3.3-10.8,3.9-16.8a155.72,155.72,0,0,0,1.1-17.3,164.18,164.18,0,0,0-1.7-17.2,158.89,158.89,0,0,0-3-17c-1.3-5.6-3.5-10.9-5.4-16.3s-2.3-11.5-4.8-16.7a150.39,150.39,0,0,0-8.6-15.1c-3-4.8-6.8-9.2-10.4-13.8a170,170,0,0,0-11.1-13.3c-4-4-8.9-7.1-13.4-10.9-4.3-3.6-8.2-8.1-13-11.5-4.6-3.2-10-5.5-15.1-8.4-4.8-2.8-10.2-4.9-15.5-7.5-5-2.5-10-5.3-15.4-7.6-5.2-2.2-10.1-5.3-15.7-7.3-5.3-1.9-11.2-2.4-16.8-4.2-5.4-1.6-11-2.8-16.7-4.3-5.5-1.4-10.6-4.6-16.3-5.8-5.5-1.2-11.3-1.4-17.1-2.5-5.5-1-11.3-1.1-17.1-1.9-5.6-.8-11.1-3.3-16.9-4-5.6-.7-11.4-.9-17.2-1.4-5.6-.5-11.4-.7-17.2-1-5.6-.4-11.4.2-17.3-.1-5.7-.2-11.4-.9-17.2-1s-11.4-.5-17.2-.5-11.4-.3-17.3-.2c-5.7.1-11.4.9-17,1.1s-11.4-.1-17,0-11.4,1.4-17,1.5-11.4-.6-17.1-.4-11.3,1.3-17,1.5-11.4-.1-17,.2-11.4-.3-17.1.1-11.4.7-17,1.1-11.4.8-17,1.3-11.4,1.2-17,1.8-11.4,1.2-16.9,1.9c-5.7.7-11.3,1.9-16.8,2.7-5.7.8-11.3,1.8-16.8,2.7-5.7,1-11.2,2.3-16.7,3.4s-11,3.3-16.4,4.6c-5.6,1.3-11.2,2.4-16.6,3.8-5.6,1.5-10.9,3.3-16.3,5s-11,3.3-16.2,5.2c-5.4,2-11,3.4-16.1,5.6q-8,3.6-15.3,7.5c-5.1,2.7-9.1,7-13.8,10s-10.3,5.2-14.7,8.7a153.81,153.81,0,0,0-12.7,11.4,135,135,0,0,0-11.1,12.9c-3.6,4.4-7.7,8.5-10.7,13.3s-5.2,10.1-7.6,15.3a152.45,152.45,0,0,0-5.7,16.1c-1.7,5.3-2.5,10.9-3.6,16.6a168.88,168.88,0,0,0-2.6,16.8c-.6,5.5-2.5,11.1-2.6,16.9s1.5,11.4,2,16.9c.5,5.8.5,11.5,1.6,16.9a119.54,119.54,0,0,0,4.5,16.4c1.9,5.4,5.3,10,7.9,15s4.7,10.3,7.9,14.9a125.85,125.85,0,0,0,23.2,24.4c4.2,3.7,7.8,8.2,12.4,11.5s9.8,5.5,14.7,8.4,9.7,5.6,14.8,8.1,10.1,4.9,15.4,7.1,10.1,4.9,15.5,6.8,11,2.7,16.4,4.3,10.6,3.9,16.1,5.3,11.2,1.8,16.7,2.9,11,2.7,16.5,3.7,11.1,2.1,16.7,2.9,11.2,1.6,16.8,2.2,11.4-.2,17,.3,11.2,2.5,16.8,2.9,11.4,0,17,.3,11.4,1.1,16.9,1.2c5.7.1,11.4-1.5,17-1.5,5.8,0,11.4,1.1,16.9,1,5.8-.1,11.5,0,17-.2,5.9-.3,11.4-2.2,16.8-2.6,6.3-.4,12.3-.4,18-.7,6.3-.4,12.4-.6,18-.9,6.4-.3,12.4.1,18.1,0,6.5-.2,12.5.3,18,.3,6.6,0,12.6-.3,18-.1,6.8.3,12.6,1.2,17.9,1.9a98.63,98.63,0,0,1,17.5,3.7,59.06,59.06,0,0,1,15.9,7.9c4.7,3.3,9.9,6.1,14.6,10.6a75.74,75.74,0,0,0,14,10.7,145.62,145.62,0,0,0,15.8,8c5.3,2.3,10.6,5,16.4,7,5.6,1.9,11.5,3,17.2,4.5s11.6,3.1,17.3,4.2c6.1,1.2,12,1.9,17.6,2.6,6.5.8,12.4,1.8,17.6,1.8C648,423.73,651.88,427.33,638.78,422.23Z"/><path d="M637.18,426.23c-5.6-2.7-9.6-7.9-14.2-12-5-4.5-11-7.6-15.5-12.8-9-10.3-15.5-25.4-12.8-39.2,2.5-12.6,9.9-24.5,21-31.3a119.26,119.26,0,0,1,21.5-9.8c8.2-2.9,15.9-7,23.9-10.3,7.3-2.9,14.5-5.9,21.9-8.7,8.3-3.1,15.3-7.9,22.7-12.6a103.78,103.78,0,0,0,19.9-15.6c7.4-7.6,15.1-15,19.3-24.9,7.3-17.1,12.6-36.3,11.6-55.1a181,181,0,0,0-2.7-22c-1.7-9.7-5.2-18.4-7.9-27.8-2.1-7.5-3.6-14-7.5-20.9-4.5-8-9.9-15.1-15.6-22.3-5.1-6.4-9.9-12.7-16.4-17.8-7.1-5.6-13.5-12.4-20.9-17.6-13.1-9.2-29.2-15.9-43.7-22.6-7-3.2-13.9-7.3-21.5-9.4-8.3-2.2-16.8-4.1-25.1-6.2-7.6-1.9-14.7-5.7-22.4-7.2a245.72,245.72,0,0,0-25.6-3.4c-8-.8-15.2-3.3-23.1-4.6-8.4-1.4-17.2-1.7-25.7-2.1-16.4-.9-32.8-1.2-49.3-1.7s-32.7.4-49.1.6c-8.9.1-17.5.3-26.4,1.2-7.4.7-14.8-.3-22.2,0-8.2.3-16.1,1.6-24.3,1.6s-16.3-.1-24.3.1c-33.1.8-66.3,5.4-98.9,10.9-32,5.4-63.1,15.2-93.9,25.3a133.18,133.18,0,0,0-22.3,9.7c-6.9,3.7-12.4,9.2-19.1,13a100.08,100.08,0,0,0-20.3,14.5c-6.7,6.3-12.1,13.5-18.1,20.4-12.4,14.2-17.9,32.5-21.4,50.7-1.5,7.5-2.2,15.2-3.6,22.7-1,5.4-2,10.1-1.4,15.5.5,4.4,1.5,8.8,1.8,13.2.7,8.5,1.4,16.4,3.7,24.7,2.5,8.8,7.1,16,11.1,24,3.3,6.6,6.5,12.7,11.3,18.5,6.2,7.5,13.3,13.4,20.3,20,5.5,5.2,10.2,9.9,16.8,13.6,7.8,4.3,15.4,8.8,23.4,12.8a234.39,234.39,0,0,0,45,17.5c7,1.9,13.7,4.9,20.8,6.4,8.7,1.8,17.4,3.3,26.1,5.2,16.6,3.6,33.5,6.1,50.4,6.1,7.9,0,15.2,2.7,23,3.1,9.2.5,18.4.5,27.7,1.2,7.8.6,15.3-1.4,23-1.2,8.5.1,17,.9,25.5.9,8.2,0,15.7-2,23.8-2.7,8.7-.7,17.5-.7,26.2-1.2,17.2-.8,34.4,0,51.7-.2,15.3-.2,31.2.6,46,5,14.5,4.3,25.7,13.9,37.1,23.3,12.2,10,28.8,17.7,43.9,22.3a302.19,302.19,0,0,0,49.6,10.6c11.9,1.5,23.9,1.7,35.8,3.4-1.1,2.6-2.1,5.3-3.2,7.9-1.1-1.3-5.8-2.1-7.4-2.7s1.6-8.5,3.2-7.9c1.8.7,6.3,1.3,7.6,2.7s-1.3,8.2-3.2,7.9c-12.7-1.9-25.5-2.1-38.2-3.7-17.3-2.2-35.7-5.8-52.1-12-14.9-5.6-30.3-12.7-42.2-23.4-11.4-10.3-24.8-18.9-40-22.1-16.4-3.5-32.4-3-49-3.4-17.7-.4-35.3,0-53,.8-17.4.8-34.3,3.9-51.7,3.4-4-.1-8.1-.8-12.1-.9-4.8-.1-9.4.7-14.2,1.2-7.4.7-14.7-.6-22.2-1-9.1-.4-17.6-.1-26.5-1.9s-17.9-.8-27-1.8c-17.6-2-34.6-6.4-52-9.3a129.75,129.75,0,0,1-22.3-5.5c-8-2.8-16.5-4-24.4-7-15.8-6.2-30.8-14.2-45.5-22.3C44.08,304.43,22,278.63,9,249c-6.5-14.8-7.2-32.1-8.8-48-.8-7.8,1.3-14.9,2.4-22.6,1.1-8,2.4-15.8,3.9-23.7,5.9-30.9,22.4-57.3,45.5-78.4a93.06,93.06,0,0,1,18.3-12.9c6.5-3.6,11.7-8.8,18.1-12.5,14.8-8.5,31.4-13.2,47.6-18.4,63.1-20,129.7-28.9,195.8-28.7,8.2,0,16.2-1.5,24.3-1.6,9.3-.2,18.3.2,27.6-.8,7.4-.7,14.8-.2,22.3-.4,9-.2,17.9-1.2,26.9-1,16.8.3,33.7,1.8,50.5,1.6,7.8-.1,15.6.4,23.4.9,9,.7,18.2.9,26.9,3.2,16.6,4.4,34.8,2.9,50.9,9.2,7.8,3,15.5,4.9,23.6,7.1,7.9,2.2,16.2,3.3,23.7,6.8,15.7,7.1,31.2,14.8,46.4,22.9a91.56,91.56,0,0,1,19.9,14.2c6.7,6.1,14.4,10.9,20.4,17.8,10.1,11.6,20.7,24.5,27,38.7,3.3,7.5,4.6,15.9,7.3,23.6a120,120,0,0,1,5.6,24.4c4.1,30.1-.6,62.5-16,89.2-3.6,6.2-8.6,11.1-13.5,16.3a123.35,123.35,0,0,1-18.6,16.8,216.51,216.51,0,0,1-20.8,13.4c-7.6,4.1-16.1,6.6-24.1,9.9-7.3,3-14.4,6-21.6,9.3-8.3,3.8-17.1,6.3-25.2,10.6-11.2,5.8-21.4,14.8-20.8,28.6.4,9,5.2,18.5,10.3,25.8,4.9,6.9,11.8,10.6,18,16.1,4.6,4.1,8.5,9.3,14.2,12C642,419,638.58,426.93,637.18,426.23Z"/><path d="M235.07,50.55V47.81h4.49v-3.5c-.44,0-1.1,0-2,.11a13.39,13.39,0,0,0-2,.11,15.88,15.88,0,0,0-.44-2.73q4.48-.11,10.83-.77l.55,2.63a39.31,39.31,0,0,1-4.27.43v3.72h4.49v2.74h-4.49V52.3q1.1.77,3.39,2.73c.44.37.77.62,1,.77l-1.53,2.4-1.43-1.42a17.27,17.27,0,0,0-1.42-1.31V66.08h-2.73V55a36.85,36.85,0,0,1-3.72,6.45l-1.09-3.17a26.48,26.48,0,0,0,4.48-7.76Zm23.41,15.31-.66-2.41c-3.42.15-6.45.37-9.07.66a9.33,9.33,0,0,0-2.19.44l-1.42-2.3a8.1,8.1,0,0,0,2-3.06,159.86,159.86,0,0,0,5.25-18.71l3.28.55q-3.72,13.35-6.46,20.45c.59,0,1.5,0,2.74-.1,2.11-.15,3.79-.26,5-.33q-.88-2.62-2.74-8c-.21-.51-.36-.87-.43-1.09l2.73-.88q3,7.88,4.92,13.89Z"/><path d="M289.11,52.73v.77a9.93,9.93,0,0,1-3,6.89,13.59,13.59,0,0,1-5.47,3.94c0,.14-.07.14-.22,0A9.72,9.72,0,0,0,278,62.69v-.22q7.88-3.72,8-9.52v-.54a7.11,7.11,0,0,0-2.4-5,8.72,8.72,0,0,0-4.6-2,60.73,60.73,0,0,1-2.4,8,51.54,51.54,0,0,1-3.39,7.11q-1.42,2.63-3.5,2.63-3.28-.12-5.47-3.72a7.75,7.75,0,0,1-1.1-3.72v-.55a10.09,10.09,0,0,1,.88-3.61,12.86,12.86,0,0,1,2-3.28,12.37,12.37,0,0,1,5.9-4.48,15.71,15.71,0,0,1,5-1.1h1.2a11,11,0,0,1,8,3A10.38,10.38,0,0,1,289.11,52.73ZM266,54.59v.55a6,6,0,0,0,1.09,3.39,2.48,2.48,0,0,0,2.08,1.31,2.79,2.79,0,0,0,1.86-1.31,20.2,20.2,0,0,0,1.09-2c.15-.36.26-.62.33-.76a36.8,36.8,0,0,0,3.72-10.39A17.46,17.46,0,0,0,272,46.5a14.77,14.77,0,0,0-4.48,4A8.53,8.53,0,0,0,266,54.59Z"/><path d="M295.56,49.56V47.38h17.06v2.18h-6.45a16.43,16.43,0,0,1-2.63,1.64,30.1,30.1,0,0,1,2.19,3.07q4.92-2.31,7.88-3.94l1.53,2.3c-.88.43-2.23,1.09-4.05,2,.15-.07,0,0-.55.22a11.92,11.92,0,0,0,6.67,7.33,15.11,15.11,0,0,0-1.85,2.3,14.5,14.5,0,0,1-7.11-8.53l-1.54.65a13.41,13.41,0,0,1,.66,4.27q.11,5-4.26,5h-3.72a3,3,0,0,1-.22-.77,15.15,15.15,0,0,0-.44-1.75h3.17c1.9.15,2.77-.69,2.63-2.51a12.09,12.09,0,0,0-.11-1.64,38.6,38.6,0,0,1-12.25,6.12,5,5,0,0,0-.44-.87,6.48,6.48,0,0,0-.87-1.42,33.31,33.31,0,0,0,12.9-6.24,10.44,10.44,0,0,0-.55-1.31,40.34,40.34,0,0,1-10.82,5.14q-.22-.44-.66-1.2a11.15,11.15,0,0,0-.66-1.21,34.44,34.44,0,0,0,11.05-4.59,2.21,2.21,0,0,0-.44-.55,1.15,1.15,0,0,0-.43-.54,44.83,44.83,0,0,1-8.86,3.28c-.37-.8-.77-1.61-1.21-2.41a31.66,31.66,0,0,0,11.05-3.83Zm-3.94-1.31V42.78H303l-.33-.87c-.29-.81-.51-1.39-.66-1.75l3.28-.44c.07.22.22.62.44,1.2.29.81.51,1.42.66,1.86h10.06v5.47h-2.84V45.19h-19v3.06Z"/><path d="M322.57,41.25h.33l3,1.09a7,7,0,0,1-.66,1.75c-.15.3-.26.51-.33.66a34.85,34.85,0,0,0-1.42,4.7,24.19,24.19,0,0,0-.66,4.6v1a20,20,0,0,0,.77,5.14h.22c.14-.29.36-.69.65-1.2a6.62,6.62,0,0,1,.55-1.09h.22l.87.87V59c-.43,1.9-.8,3.68-1.09,5.36l-2.41.55a18.48,18.48,0,0,1-2.29-9.63V53.61a24.61,24.61,0,0,1,.87-5.58c.07-.36.22-.91.44-1.64a16.61,16.61,0,0,0,1-4.7Zm11.71.55,3.83.54c-.15,1.68-.22,3.5-.22,5.47V47.7c1.53-.14,3.06-.36,4.59-.65v2.62c-1.46.29-3,.51-4.48.66q.11,8.2.11,7.87l2.51,1c.15.14.26.22.33.22a14.59,14.59,0,0,1,2.95,2l-1.75,2.07h-.33c-.58-.43-1.2-.87-1.86-1.31q-.43-.21-1.2-.66l-.76-.43a4.43,4.43,0,0,1-1.21,2.18,5.25,5.25,0,0,1-4,1.65h-.55a6.53,6.53,0,0,1-3.28-.88,3.43,3.43,0,0,1-1.64-2.84v-.44a3.51,3.51,0,0,1,1.64-2.63,5.81,5.81,0,0,1,3.28-.87h.55a16.14,16.14,0,0,1,2.73.22c0-.44,0-1.13-.11-2.08-.15-1.82-.22-3.21-.22-4.16v-.65h-2.29c-1.54-.07-3.1-.22-4.71-.44l-.33-2.73a7.93,7.93,0,0,1,1.54.21,40.69,40.69,0,0,0,4.37.33H335c-.07-1.89-.14-3.21-.22-3.94v-.21A3,3,0,0,0,334.28,41.8Zm-1.75,17.83H332c-1.09,0-1.79.18-2.08.54-.51.66-.29,1.31.66,2a4,4,0,0,0,4.05-.44,2.21,2.21,0,0,0,.76-1.53A7.37,7.37,0,0,0,332.53,59.63Z"/><path d="M357.14,40.38h.43l3.18.87v.22a1.64,1.64,0,0,0-.55.87c-.15.3-.26.51-.33.66-.29,1-.55,1.93-.76,3a.84.84,0,0,1-.11.33c-.08.22-.15.4-.22.55h2.08a10.75,10.75,0,0,0,1.85-.22,3.26,3.26,0,0,1,.66-.11l-.55,2.73a.4.4,0,0,1-.32.11h-4.27c-.07.51-.15,1.21-.22,2.08s-.25,1.83-.33,2.41a18.31,18.31,0,0,0,5.25.11v.44l-.43,2.18a.44.44,0,0,1-.33.11h-2.3c-.8,0-1.64,0-2.51-.11v.77a2.89,2.89,0,0,0-.11.76v1.1A4.07,4.07,0,0,0,358.34,62a3.91,3.91,0,0,0,2.52,1h.65a4.69,4.69,0,0,0,3.17-1.1,4.48,4.48,0,0,0,1.1-3v-.44c0-1.24-.7-3-2.08-5.14a3.25,3.25,0,0,0-.33-.55l3.17-.21A9.47,9.47,0,0,1,369,58.75v.55a6.33,6.33,0,0,1-2.3,4.81,6.76,6.76,0,0,1-4.81,1.64h-.66a6.85,6.85,0,0,1-4.7-1.86q-1.75-1.43-1.75-4.92V57.88a14.55,14.55,0,0,1,.11-1.75,17.5,17.5,0,0,0-1.75-.55,11.25,11.25,0,0,0-1.86-.55l.22-2.73a15.69,15.69,0,0,0,3.72,1.09v-.55a15.14,15.14,0,0,0,.44-2c.14-.81.25-1.43.32-1.86q-1.31-.33-2.4-.66c-.59-.07-.88-.18-.88-.33l.22-2.73a23.14,23.14,0,0,0,3.39,1q.11-.33.33-1.2a7.12,7.12,0,0,1,.22-1.1,3.93,3.93,0,0,1,.11-.76,14.28,14.28,0,0,0,.22-2.08Z"/><path d="M380.54,50h.77a10.41,10.41,0,0,0,3.06-.66c.95-.21,1.9-.47,2.84-.76a10.87,10.87,0,0,1,3.5-.55H391a4.07,4.07,0,0,1,3.61,2,6.18,6.18,0,0,1,1,3.61v1c-.08,4.53-2.08,8.46-6,11.82a.77.77,0,0,0-.33.11.84.84,0,0,1-.33.11h-.1l-.11-.11a22.22,22.22,0,0,0-2.19-1.64v-.22a12.69,12.69,0,0,0,6.12-10.61V53.5c-.07-1.9-.87-2.88-2.4-3h-.44a7.47,7.47,0,0,0-2.84.87.77.77,0,0,1-.33.11,10.64,10.64,0,0,0-3,1.53l-.21.22c-.3.22-.51.29-.66.22l-2.3-3.17Zm4.6-7,1.09-2.62h.11A35.41,35.41,0,0,0,394,42.67l.11.11a5.83,5.83,0,0,0-.22,1,18.87,18.87,0,0,0-.44,1.86l-.11.1a8,8,0,0,1-2.08-.43.33.33,0,0,0-.22-.11c-1-.29-2.48-.73-4.37-1.31-.59-.22-1.06-.4-1.42-.55Z"/><path d="M424.73,45.63V57c0,2.12.07,4.12.22,6h-3.39V61.38H410.73V63h-3.5q.22-3.06.22-6.35v-11Zm-14,12.9h10.83V48.47H410.73Z"/><path d="M453.67,55.12,451.93,55c-.59,0-1.46-.09-2.58-.14-3.36-.2-5.37-.31-6-.31a41.88,41.88,0,0,0-4.37.28,5.59,5.59,0,0,1-2.66.53,1.59,1.59,0,0,1-1-.36,1.13,1.13,0,0,1-.5-.93c0-.84,2.55-1.26,7.67-1.26,2.27,0,4.7.12,7.28.31l1.29.09a3.19,3.19,0,0,0,.45,0,2.49,2.49,0,0,1,.42-.06,3.63,3.63,0,0,1,1.48.37c.62.3.92.67.92,1.12S454.06,55.12,453.67,55.12Z"/><path d="M482.66,47.38,484,50.33v.11q-5.58,5.69-17.5,12.14l-.66.33c-.73.22-1.17.51-1.31.87h-.33a19.5,19.5,0,0,1-1.75-2.62,9.16,9.16,0,0,0-.55-1V60a11.69,11.69,0,0,0,3.61-1A47.81,47.81,0,0,0,482.66,47.38Zm-15.09,3.06h-.22a40,40,0,0,0-5.25-4.81l2.08-1.75h.33c1.31,1,3,2.47,5,4.37v.22Z"/><path d="M494.48,42.13l3.72.87-.33.88a4.15,4.15,0,0,0-.33.54,7.26,7.26,0,0,0-.22,1.21,1.84,1.84,0,0,0-.11.54,11.94,11.94,0,0,0-.22,1.31,5.12,5.12,0,0,0-.22,1.1,3,3,0,0,1,.88-.11,7.51,7.51,0,0,1,.87-.11,3.16,3.16,0,0,0,.66-.11h1.09a5.07,5.07,0,0,1,2.08.44,2.69,2.69,0,0,1,1.1,2.19v1.31a28.79,28.79,0,0,1-1,6.89q-.76,3.72-2.95,4.26a8,8,0,0,1-3.39.77h-.77q-.33-.77-.87-1.86a8.71,8.71,0,0,1-.44-1l.11-.22a3.93,3.93,0,0,1,.76.11,8.1,8.1,0,0,0,1.54.22h.43a2.47,2.47,0,0,0,2.3-1.43,17.52,17.52,0,0,0,1-3,26.13,26.13,0,0,0,.66-5,1.25,1.25,0,0,0-1.53-1.31c-.37.07-.91.14-1.64.22L496,51.2a35.65,35.65,0,0,1-6,12.14l-.22.11a10.63,10.63,0,0,0-1.75-.76,4.4,4.4,0,0,0-.87-.44V62a28.13,28.13,0,0,0,3.94-5.58,25.93,25.93,0,0,0,1.64-3.72,7,7,0,0,0,.43-1,30.72,30.72,0,0,0-3.28,1.09,1.59,1.59,0,0,1-1,.33l-1.2-3.06.21-.22a3.16,3.16,0,0,1,.66.11,1.84,1.84,0,0,0,.88,0c.5-.07,1.27-.22,2.29-.44s1.64-.36,2.08-.43a2.17,2.17,0,0,1,.11-.66,24.44,24.44,0,0,0,.55-5.14Zm16.73,10.6-.11.22-2.3,1.32a35.46,35.46,0,0,0-5.35-7.44V46.5l2.07-1.2A31.07,31.07,0,0,1,511.21,52.73Zm.77-7.32v.22l-1.43,1.2h-.21A8.5,8.5,0,0,0,507.71,44v-.21l1.31-1.1h.22A24.83,24.83,0,0,1,512,45.41Zm-1.53-3.72v-.22l1.31-1.09H512a1.26,1.26,0,0,0,.32.21c.51.44,1.1,1,1.75,1.64a1.81,1.81,0,0,1,.66,1.1l-1.31,1.2h-.22A11.32,11.32,0,0,0,510.45,41.69Z"/><path d="M184.63,93.84h1.65c.36,0,.94,0,1.75-.11h.87a1.9,1.9,0,0,1,.11-.54,25.36,25.36,0,0,0,.22-2.85,7.26,7.26,0,0,0-.11-1.09h.55c.36,0,.87,0,1.53.11a12.31,12.31,0,0,0,1.31.11,1.63,1.63,0,0,1-.22,1.09,1,1,0,0,0-.22.55,4.41,4.41,0,0,1-.22,1.09,6.32,6.32,0,0,1-.22,1.21,4,4,0,0,0,1.21-.22,29,29,0,0,0,4.92-1.1v2.74q-3,.66-6,1.2h-.54c-.08.73-.15,1.61-.22,2.63a19.22,19.22,0,0,1,3.39-.66,2,2,0,0,1,.11-.44v-.65c-.07-.15,0-.29.22-.44l2.62.44.11.22-.11.1c-.07.15-.18.44-.33.88a7.18,7.18,0,0,1,4.38,1.64,8.15,8.15,0,0,1,2.51,5.36v.77q-.1,3.93-4.26,6.56a5.23,5.23,0,0,1-2.63,1.09h-.11a11.38,11.38,0,0,0-2.4-2.08,8.47,8.47,0,0,0,4.7-1.75,5.64,5.64,0,0,0,2.08-4v-.33a5.4,5.4,0,0,0-2.3-4.27,4.31,4.31,0,0,0-1.2-.43h-.22a3.79,3.79,0,0,0-1.2-.33,25.52,25.52,0,0,1-4.71,8,17,17,0,0,0,.77,2c-.22.07-.58.22-1.09.44a3.34,3.34,0,0,1-1.21.33q-.33,0-.54-.66a2.2,2.2,0,0,1-1.21.66,6.59,6.59,0,0,1-4,1.64h-.44q-2.52-.12-2.74-3.72v-.44c.08-2.11,1.13-4.27,3.18-6.45a14.27,14.27,0,0,1,4-2.52c0-.44,0-1.13.11-2.08a6.25,6.25,0,0,1,.11-1.09h-1.64c-.8.07-1.42.11-1.86.11h-1.64c-.22,0-.33,0-.33-.11a3,3,0,0,1-.65-1.53v-.11c-.22-.44-.26-.77-.11-1C183.14,93.81,183.91,93.84,184.63,93.84Zm4.16,14-.11-.32a45.75,45.75,0,0,1-.33-5.47,9.71,9.71,0,0,0-4,4.15,3.86,3.86,0,0,0-.66,2.19c.07,1.09.55,1.64,1.42,1.64a4.33,4.33,0,0,0,2.74-1.2A6.55,6.55,0,0,1,188.79,107.84Zm2.19-7v2.63a6.45,6.45,0,0,0,.11,2,19.06,19.06,0,0,0,2.84-5.25c-1.24.22-2.11.4-2.62.54A.44.44,0,0,1,191,100.84Z"/><path d="M219.85,89l3.39.33.11.11a5,5,0,0,0-.43.87,1.34,1.34,0,0,1-.22.44v.44c-.08.58-.15,1.24-.22,2,.8-.07,1.93-.22,3.39-.44a11.72,11.72,0,0,0,1.42-.22l-.22,2.52a28.07,28.07,0,0,1-4.59.54,10.25,10.25,0,0,1,.11,1.75c.07.73.11,1.32.11,1.75h.22a21.79,21.79,0,0,0,4.81-.76l-.44,2.51a18.16,18.16,0,0,1-4.37.77c.07,1.68.18,3.43.32,5.25a19.1,19.1,0,0,1,6.13,3.39l-1.31,2a18.12,18.12,0,0,0-4.71-2.52,3.52,3.52,0,0,1-2.18,3.18,7.32,7.32,0,0,1-3.39.65h-1a5.48,5.48,0,0,1-4-1.42,3.06,3.06,0,0,1-.87-3.61,4.45,4.45,0,0,1,2.08-1.75,11.06,11.06,0,0,1,3.72-.66h1.09a9.9,9.9,0,0,1,1.64.22c-.44-.14-.37-.14.22,0a28.21,28.21,0,0,0-.22-3c-.07-.66-.11-1.17-.11-1.53H218a34.51,34.51,0,0,1-3.93-.22l-.22-.11-.55-2.41v-.21c.29.07.66.14,1.09.21a20,20,0,0,0,3.07.33h2.73c0-1.09,0-2.37-.11-3.83h-.65c-1.9,0-3.72-.07-5.47-.21l-.22-.11-.66-2.52a15,15,0,0,1,2.19.22,25.06,25.06,0,0,0,2.73.22h2.08V92A23.7,23.7,0,0,0,219.85,89Zm-2.4,19.14h-.66c-1.68.15-2.55.77-2.62,1.86.07.44.43.77,1.09,1a13.82,13.82,0,0,0,1.64.11h.66a4.77,4.77,0,0,0,2.4-.44,2.2,2.2,0,0,0,.77-1.75v-.44a9.59,9.59,0,0,1-1.1-.11A19.16,19.16,0,0,0,217.45,108.17Z"/><path d="M243.81,97.45V98a6.65,6.65,0,0,0,.43,2.63h.22l1.1-1.75h.32l1.21,1.09c-.15.29-.33.69-.55,1.2a10.93,10.93,0,0,0-1.2,4.27v.44a16.65,16.65,0,0,1-2.63.21,8.94,8.94,0,0,1-1.09-2.84,17.73,17.73,0,0,1-.66-4.92v-.88a28.76,28.76,0,0,1,.44-4,22.56,22.56,0,0,0,.44-3.61c1.09.07,2.15.18,3.17.33a21.32,21.32,0,0,0-.55,2.29A26.88,26.88,0,0,0,243.81,97.45Zm7.65-7.65,3.61-.33.22.11a11.5,11.5,0,0,0,.22,3.72,4.52,4.52,0,0,0,.22,1.2,37.62,37.62,0,0,1,.33,4.16v1.75a15.94,15.94,0,0,1-1.21,6.67,16.38,16.38,0,0,1-4.59,6.67q-.1.23-.33,0l-2.51-1.2-.11-.22a17.45,17.45,0,0,0,3.93-4.7,16.18,16.18,0,0,0,1.75-7.55V98A19.84,19.84,0,0,0,251.46,89.8Z"/><path d="M263.6,92.09v-2.4h10.83v2.4h-5.14c-.22,1.32-.47,2.52-.76,3.61h5v2.41q-1.21,10.27-8.1,16c-.95-1-1.64-1.61-2.08-2a17.26,17.26,0,0,0,5.58-6.78,30.2,30.2,0,0,0-2.84-2.08,1.17,1.17,0,0,1-.33-.22c-.44.66-.87,1.39-1.31,2.19-.37-.73-.84-1.6-1.42-2.63a26.11,26.11,0,0,0,3.61-10.5Zm7.44,6h-3.17a28.85,28.85,0,0,1-1.64,4l.65-1.21a27.14,27.14,0,0,1,3.07,2A40.39,40.39,0,0,0,271,98.11Zm3.72-1.42-.33-2.41,3.39-.44c-.14-1.89-.22-3.82-.22-5.79h2.85c0,.65,0,1.64.11,3v2.63l7.87-1,.33,2.41-8.09,1a15.72,15.72,0,0,0,.11,1.64,9.49,9.49,0,0,0,.1,1.64l8.21-1.2.33,2.52-8.21,1.2a36.32,36.32,0,0,0,.77,3.83,48.18,48.18,0,0,0,4.59-3.5l1.86,1.64a44.1,44.1,0,0,1-5.58,4.37,3.3,3.3,0,0,1,.22.55q.23.44.33.66c.66,1.09,1.38,1.64,2.19,1.64a1.17,1.17,0,0,0,1.2-1.1,20.77,20.77,0,0,0,.66-3.39c.51.29,1.31.7,2.4,1.2a12,12,0,0,1-.87,3.4,3.46,3.46,0,0,1-3.5,2.73q-3,.11-4.81-3.61l-.22-.55a45.79,45.79,0,0,1-6.89,2.85,13.53,13.53,0,0,0-.77-1.53c-.22-.37-.4-.66-.55-.88a42.22,42.22,0,0,0,7.22-3,1.6,1.6,0,0,0-.22-.66c-.36-1.75-.62-3.21-.76-4.37l-4.05.54-.33-2.51,4.16-.55c-.07-1.09-.18-2.19-.33-3.28ZM285.26,93a1.17,1.17,0,0,0-.33-.22c-1.38-1.09-2.44-1.9-3.17-2.41l1.75-1.86a4.1,4.1,0,0,0,.77.55A25.42,25.42,0,0,1,287,91Z"/><path d="M307.9,93.84h.55a6.17,6.17,0,0,1,6.56,6.24v.55a6,6,0,0,1-1,3.28,10.25,10.25,0,0,1-3,2.84,13.42,13.42,0,0,1-6.56,2.3L302.76,107a16.24,16.24,0,0,0,6.56-2.08q3.29-2,3.28-4.7v-.44q-.44-3.16-4.48-3.72h-.44a10.47,10.47,0,0,0-3.39.55c-.87.29-1.75.62-2.62,1-.3.15-.7.33-1.21.55a32,32,0,0,0-3.17,1.75c-.07,0-.15.07-.22.22a.84.84,0,0,1-.76.22L294,97.67q3.06-.77,6-1.75a1.51,1.51,0,0,0,.43-.11Q305.17,93.74,307.9,93.84Z"/><path d="M321.13,94.5h.33l9.52-2c4.15-.87,7.29-1.49,9.4-1.86,1.1-.22,2.19-.4,3.29-.54l.21,3.17h-.65c-3.36,0-5.87.91-7.55,2.73a10.38,10.38,0,0,0-2.84,7.33v.44a5.76,5.76,0,0,0,1.53,4.26q1.53,1.65,4.81,1.53H341v3.29H339.4a10.27,10.27,0,0,1-6.89-2.41,8.58,8.58,0,0,1-2.3-6.34V103q0-4.26,3.5-8.53c-.95.22-2.4.58-4.37,1.09-.95.22-1.68.41-2.19.55l-1,.33a12.38,12.38,0,0,0-3.29,1.2Z"/><path d="M348.37,92.75l.11-.11c1.31.22,2.55.48,3.72.77a2.7,2.7,0,0,1-.22.76,4.51,4.51,0,0,0-.22,1.21,7,7,0,0,0-.11,1.31v.76a20.54,20.54,0,0,0,.44,4.6,37.41,37.41,0,0,0,1.53,4.37c.51,1.17,1.13,1.75,1.86,1.75a2.58,2.58,0,0,0,1.64-.76,9.26,9.26,0,0,0,1.75-2.08h.22l1.31,2q.23.11,0,.33a4.83,4.83,0,0,1-1.53,2,5.15,5.15,0,0,1-3.61,1.54q-2.62,0-4.16-3.4a21.21,21.21,0,0,1-.76-2.18,6.53,6.53,0,0,0-.44-1.42,57,57,0,0,1-1-6.13,9.48,9.48,0,0,0-.11-1.09,8.81,8.81,0,0,0-.22-1c0-.36,0-.91-.11-1.64A8.59,8.59,0,0,0,348.37,92.75Zm16.3,2.84,2.51-.76h.22a38,38,0,0,1,4.27,7.11,7.17,7.17,0,0,1,1,2.4L370,105.55h-.44a30.59,30.59,0,0,0-5-9.63Z"/><path d="M390.37,92.64v2.84a31.93,31.93,0,0,1-4.81,1.21,46.24,46.24,0,0,1-5.69,12.14h-.33l-2.51-1-.11-.21a37.59,37.59,0,0,0,5.68-10.72,30.17,30.17,0,0,1-3.61.22l-.32-3h.87a19.17,19.17,0,0,0,2.41-.11,4.09,4.09,0,0,0,.87-.11h.66a16.13,16.13,0,0,0,.76-4.7v-.66a9.39,9.39,0,0,0,1.64.44,10.57,10.57,0,0,1,1.54.44,4.26,4.26,0,0,1-.33,1.42,3.38,3.38,0,0,0-.22,1,5,5,0,0,1-.11.87,7.44,7.44,0,0,1-.22.88A22.67,22.67,0,0,0,390.37,92.64Zm.22,4.7h.22l2.51.55a8.17,8.17,0,0,1-.11,1.31c0,1,.07,2.45.22,4.49.07,1.24.11,2.19.11,2.84a24.28,24.28,0,0,1,5.8,2.52v.33l-1.1,2.4a1.88,1.88,0,0,1-1.09-.55q-.22-.21-.33-.21a23.68,23.68,0,0,0-3.28-1.43,4.69,4.69,0,0,1-.33,1.86,28.34,28.34,0,0,0-.76,1.1,4.7,4.7,0,0,1-3.61,1.2h-.66a4.82,4.82,0,0,1-3.72-1.42,3.31,3.31,0,0,1-.76-3.17,3.79,3.79,0,0,1,1.53-2.08,8.26,8.26,0,0,1,3.94-1h.76a4.28,4.28,0,0,1,1,.11Q390.8,101.71,390.59,97.34ZM389,108.5h-.44a2.5,2.5,0,0,0-2.19,1.09c-.29,1,.18,1.64,1.42,1.86h1c1.38-.07,2.11-.94,2.19-2.62A6.21,6.21,0,0,0,389,108.5Zm9.62-8.75h-.22a27.13,27.13,0,0,0-4.81-4.37l1.53-2.08h.22q2,1.42,3.83,3.06a2.31,2.31,0,0,1,1,1.2Z"/><path d="M415.85,96.25h1.64a2.37,2.37,0,0,1,2.19.88,3.33,3.33,0,0,1,.66,2.07v.44a23.79,23.79,0,0,1-1,6.45q-.87,3.84-3.06,4.93a7.43,7.43,0,0,1-3.72.76H412c-.22,0-.33,0-.33-.11-.15-.29-.33-.69-.55-1.2a13.3,13.3,0,0,0-.77-1.53v-.11a9.54,9.54,0,0,1,1.21.11,9.48,9.48,0,0,0,1.09.11h.44a2.32,2.32,0,0,0,2.08-1,7.06,7.06,0,0,0,1.09-2,.31.31,0,0,0,.11-.21,14.22,14.22,0,0,0,1-5.25V100c-.07-.8-.43-1.24-1.09-1.31a19.7,19.7,0,0,0-2.41.22,9.21,9.21,0,0,1-1.2.1,41.44,41.44,0,0,1-4.15,9,19.06,19.06,0,0,1-2.3,3.07,3,3,0,0,1-1.31-.55,4.92,4.92,0,0,0-.55-.33.33.33,0,0,1-.22-.11c-.44-.07-.69-.22-.77-.44a18,18,0,0,0,4.27-5.9q1.1-2.19,2.08-4.27a8.36,8.36,0,0,0-3.17.88l-.11.11a1.42,1.42,0,0,1-.77.22l-1.53-3.18.11-.22a10.14,10.14,0,0,0,3.06,0,9,9,0,0,1,1.1-.1,7.13,7.13,0,0,1,2.07-.33c.15-.44.26-.8.33-1.1a13.68,13.68,0,0,0,.66-4.37v-.77a1,1,0,0,1-.11-.43q.44.11,1.2.21c1,.15,1.82.3,2.41.44a1.7,1.7,0,0,1-.44,1,.31.31,0,0,0-.11.21,5.05,5.05,0,0,0-.33,1.54,1.84,1.84,0,0,0-.11.54,6.37,6.37,0,0,1-.21,1.21c-.08.51-.15.91-.22,1.2A12.39,12.39,0,0,1,415.85,96.25Zm5.36-1.42V94.5a7.18,7.18,0,0,1,1-.77c.43-.36.76-.61,1-.76s.55.07,1,.66a16,16,0,0,1,2.07,2.29,48.49,48.49,0,0,1,3.39,4.49v.32L427,102.38A44.64,44.64,0,0,0,421.21,94.83Z"/><path d="M447.9,93.84h.55a6.17,6.17,0,0,1,6.56,6.24v.55a6,6,0,0,1-1,3.28,10.25,10.25,0,0,1-3,2.84,13.42,13.42,0,0,1-6.56,2.3L442.76,107a16.24,16.24,0,0,0,6.56-2.08q3.29-2,3.28-4.7v-.44q-.44-3.16-4.48-3.72h-.44a10.47,10.47,0,0,0-3.39.55c-.87.29-1.75.62-2.62,1-.3.15-.7.33-1.21.55a32,32,0,0,0-3.17,1.75c-.07,0-.15.07-.22.22a.84.84,0,0,1-.76.22L434,97.67q3.06-.77,6-1.75a1.51,1.51,0,0,0,.43-.11Q445.17,93.74,447.9,93.84Z"/><path d="M469.23,88.92h.22l3.28.88v.33a2.61,2.61,0,0,0-1.1,1.75,11.14,11.14,0,0,0-.65,1.85,3.11,3.11,0,0,1-.22.66l3.61-.66a3.4,3.4,0,0,0,.76-.21l.22.11v2.84q-2.62.44-5.25.66a2.65,2.65,0,0,1-.11.54c.08-.14,0-.07-.11.22a63.44,63.44,0,0,1-5.79,15l-3-.88-.1-.22a88.62,88.62,0,0,0,6.34-14.55,15.39,15.39,0,0,1-2.19.11c-.95.08-1.68.11-2.19.11l-.21-.11-.44-2.62.11-.22c.29,0,.76,0,1.42.11a12.31,12.31,0,0,0,1.31.11h.88c.65,0,1.35,0,2.07-.11a2.78,2.78,0,0,0,.22-.66,17,17,0,0,0,.88-4.37ZM484,109.05l-.32,3.06a28.34,28.34,0,0,1-3.61.22H479a22.33,22.33,0,0,1-4.81-.55,2,2,0,0,1-.44-.11c-.51,0-.84-.11-1-.33l-.11-2.51a7.15,7.15,0,0,0,1,.22,29.52,29.52,0,0,0,4.82.54H479A23.83,23.83,0,0,0,484,109.05Zm-6.34-10.72h1c1.17,0,2.41,0,3.72.11l.11,3-.11.11a24.17,24.17,0,0,0-4.7-.66h-1.09a9,9,0,0,0-2.41.33l.44-2.73H476C476.74,98.37,477.28,98.33,477.65,98.33Z"/><path d="M513.53,100.73v.77a9.93,9.93,0,0,1-3,6.89,13.59,13.59,0,0,1-5.47,3.94c0,.14-.07.14-.22,0a9.72,9.72,0,0,0-2.51-1.64v-.22q7.88-3.72,8-9.52v-.54a7.11,7.11,0,0,0-2.4-5,8.72,8.72,0,0,0-4.6-2,60.73,60.73,0,0,1-2.4,8,51.54,51.54,0,0,1-3.39,7.11q-1.43,2.63-3.5,2.63-3.29-.12-5.47-3.72a7.75,7.75,0,0,1-1.1-3.72v-.55a10.09,10.09,0,0,1,.88-3.61,12.86,12.86,0,0,1,2-3.28,12.37,12.37,0,0,1,5.9-4.48,15.71,15.71,0,0,1,5-1.1h1.2a11,11,0,0,1,8,3A10.38,10.38,0,0,1,513.53,100.73Zm-23.08,1.86v.55a6,6,0,0,0,1.09,3.39,2.48,2.48,0,0,0,2.08,1.31,2.79,2.79,0,0,0,1.86-1.31,20.2,20.2,0,0,0,1.09-2c.15-.36.26-.62.33-.76a36.8,36.8,0,0,0,3.72-10.39,17.46,17.46,0,0,0-4.16,1.09,14.77,14.77,0,0,0-4.48,4A8.53,8.53,0,0,0,490.45,102.59Z"/><path d="M515,94.5h.65a14.59,14.59,0,0,0,3.28-.55l1.32-.32c1.38-.37,2.73-.7,4-1q3.62-.87,7.11-1.53a22.51,22.51,0,0,0,4.38-1,3.3,3.3,0,0,0,.33,1.2,3.74,3.74,0,0,1,.22,1.64l-1.54.33A7.6,7.6,0,0,0,531,94.5a8.66,8.66,0,0,0-3.18,4.7,15.79,15.79,0,0,0-.65,3.83v.66a5.73,5.73,0,0,0,1.64,4.26,6.33,6.33,0,0,0,4.26,1.64h.55a7.48,7.48,0,0,0,1.75-.21v3.28h-.87a13,13,0,0,1-6.9-1.86,8.66,8.66,0,0,1-3.28-6.89v-.55q0-4.26,3.39-9-4.37,1.1-8.75,2.41a3.89,3.89,0,0,1-.76.22,3,3,0,0,0-1.53.87L515,94.83ZM535.07,96l1.53-1.42c.22.22.51.55.88,1a18.56,18.56,0,0,1,1.75,2l-1.53,1.32A17.48,17.48,0,0,0,535.07,96Zm3-2.19,1.53-1.31a18.77,18.77,0,0,1,2.51,2.85l-1.64,1.31A23.49,23.49,0,0,0,538,93.84Z"/><path d="M554.65,111.23l-2.19,2.19-5.9-6.45,2.07-1.86Z"/><path d="M105.56,136.38H106l3.18.87v.22a1.64,1.64,0,0,0-.55.87c-.15.3-.26.51-.33.66-.29.95-.55,1.93-.76,2.95a.84.84,0,0,1-.11.33c-.08.22-.15.4-.22.55h2.08a10.75,10.75,0,0,0,1.85-.22,3.26,3.26,0,0,1,.66-.11l-.55,2.73a.4.4,0,0,1-.32.11h-4.27c-.07.51-.15,1.21-.22,2.08-.15,1-.25,1.83-.33,2.41a18.31,18.31,0,0,0,5.25.11v.44l-.43,2.18a.44.44,0,0,1-.33.11h-2.3c-.8,0-1.64,0-2.51-.11v.77a2.89,2.89,0,0,0-.11.76v1.1a4.07,4.07,0,0,0,1.09,2.84,3.91,3.91,0,0,0,2.52,1h.65a4.69,4.69,0,0,0,3.17-1.1,4.48,4.48,0,0,0,1.1-2.95v-.44c0-1.24-.7-2.95-2.08-5.14a3.25,3.25,0,0,0-.33-.55l3.17-.21a9.47,9.47,0,0,1,2.41,6.12v.55a6.33,6.33,0,0,1-2.3,4.81,6.76,6.76,0,0,1-4.81,1.64h-.66a6.85,6.85,0,0,1-4.7-1.86q-1.75-1.42-1.75-4.92v-1.09a14.55,14.55,0,0,1,.11-1.75,17.5,17.5,0,0,0-1.75-.55,11.25,11.25,0,0,0-1.86-.55l.22-2.73a15.69,15.69,0,0,0,3.72,1.09v-.55a15.14,15.14,0,0,0,.44-2c.14-.81.25-1.43.32-1.86q-1.3-.33-2.4-.66c-.59-.07-.88-.18-.88-.33l.22-2.73a23.14,23.14,0,0,0,3.39,1q.1-.33.33-1.2a7.12,7.12,0,0,1,.22-1.1,3.93,3.93,0,0,1,.11-.76,14.28,14.28,0,0,0,.22-2.08Z"/><path d="M128.53,137.25h.21l3.5.66a13.91,13.91,0,0,1-.32,1.42v15.09a5.06,5.06,0,0,0,.65,3,3,3,0,0,0,2.3,1.09h.66a4.1,4.1,0,0,0,1.85-.44,11.19,11.19,0,0,0,2.52-1.2,11.91,11.91,0,0,0,3.06-2.74h.22l1.31,2.52c.15.15.15.22,0,.22a13.55,13.55,0,0,1-4.59,3.28,9.84,9.84,0,0,1-4.81,1.2h-.33a6.36,6.36,0,0,1-3.61-1.09,4.32,4.32,0,0,1-2.19-3.17c-.07-1-.11-2.08-.11-3.17V139.55a5.88,5.88,0,0,0-.22-1.32A6.52,6.52,0,0,1,128.53,137.25Z"/><path d="M163.85,144.25h1.64a2.37,2.37,0,0,1,2.19.88,3.33,3.33,0,0,1,.66,2.07v.44a23.79,23.79,0,0,1-1,6.45q-.87,3.84-3.06,4.93a7.43,7.43,0,0,1-3.72.76H160c-.22,0-.33,0-.33-.11-.15-.29-.33-.69-.55-1.2a13.3,13.3,0,0,0-.77-1.53v-.11a9.54,9.54,0,0,1,1.21.11,9.48,9.48,0,0,0,1.09.11h.44a2.32,2.32,0,0,0,2.08-1,7.06,7.06,0,0,0,1.09-2,.31.31,0,0,0,.11-.21,14.22,14.22,0,0,0,1-5.25V148c-.07-.8-.43-1.24-1.09-1.31a19.7,19.7,0,0,0-2.41.22,9.21,9.21,0,0,1-1.2.1,41.44,41.44,0,0,1-4.15,9,19.06,19.06,0,0,1-2.3,3.07,3,3,0,0,1-1.31-.55,4.92,4.92,0,0,0-.55-.33.33.33,0,0,1-.22-.11c-.44-.07-.69-.22-.77-.44a18,18,0,0,0,4.27-5.9q1.09-2.19,2.08-4.27a8.36,8.36,0,0,0-3.17.88l-.11.11a1.42,1.42,0,0,1-.77.22l-1.53-3.18.11-.22a10.14,10.14,0,0,0,3.06,0,9,9,0,0,1,1.1-.1,7.13,7.13,0,0,1,2.07-.33c.15-.44.26-.8.33-1.1a13.68,13.68,0,0,0,.66-4.37v-.77a1,1,0,0,1-.11-.43q.44.1,1.2.21c1,.15,1.82.3,2.41.44a1.7,1.7,0,0,1-.44,1,.31.31,0,0,0-.11.21,5.05,5.05,0,0,0-.33,1.54,1.84,1.84,0,0,0-.11.54,6.37,6.37,0,0,1-.21,1.21c-.08.51-.15.91-.22,1.2A12.39,12.39,0,0,1,163.85,144.25Zm5.36-1.42v-.33a7.18,7.18,0,0,1,1-.77c.43-.36.76-.61,1-.76s.55.07,1,.66a16,16,0,0,1,2.07,2.29,48.49,48.49,0,0,1,3.39,4.49v.32L175,150.38A44.64,44.64,0,0,0,169.21,142.83Z"/><path d="M184.53,137.25h.21l3.5.66a13.91,13.91,0,0,1-.32,1.42v15.09a5.06,5.06,0,0,0,.65,3,3,3,0,0,0,2.3,1.09h.66a4.1,4.1,0,0,0,1.85-.44,11.19,11.19,0,0,0,2.52-1.2,11.91,11.91,0,0,0,3.06-2.74h.22l1.31,2.52c.15.15.15.22,0,.22a13.55,13.55,0,0,1-4.59,3.28,9.84,9.84,0,0,1-4.81,1.2h-.33a6.36,6.36,0,0,1-3.61-1.09,4.32,4.32,0,0,1-2.19-3.17c-.07-1-.11-2.08-.11-3.17V139.55a5.88,5.88,0,0,0-.22-1.32A6.52,6.52,0,0,1,184.53,137.25Z"/><path d="M209.13,142.5h.33l9.52-2c4.15-.87,7.29-1.49,9.4-1.86,1.1-.22,2.19-.4,3.29-.54l.21,3.17h-.65c-3.36,0-5.87.91-7.55,2.73a10.38,10.38,0,0,0-2.84,7.33v.44a5.76,5.76,0,0,0,1.53,4.26q1.53,1.65,4.81,1.53H229v3.29H227.4a10.27,10.27,0,0,1-6.89-2.41,8.58,8.58,0,0,1-2.3-6.34V151q0-4.26,3.5-8.53c-1,.22-2.4.58-4.37,1.09-1,.22-1.68.41-2.19.55l-1,.33a12.38,12.38,0,0,0-3.29,1.2Z"/><path d="M254.74,141.63l2.41,2.73v.22a40,40,0,0,0-10.61,4.48,13.36,13.36,0,0,0-3.39,3.28,3.8,3.8,0,0,0-.66,1.86v.44a3.39,3.39,0,0,0,2.08,3,8.49,8.49,0,0,0,3.72.66h.77a23.11,23.11,0,0,0,6.34-.87l.22,3.28c-1.9.14-3.72.22-5.47.22h-1.64a10,10,0,0,1-5.8-1.21,5.43,5.43,0,0,1-2.84-4.92v-.55c.07-2.47,1.57-4.74,4.48-6.78a1.11,1.11,0,0,1,.55-.44,43.74,43.74,0,0,0-3.5-9.18l2.95-.55a62.4,62.4,0,0,1,3.28,8.2l3.94-2A12.54,12.54,0,0,0,254.74,141.63Z"/><path d="M265.9,160.33a10.11,10.11,0,0,0-2.62-1.1,40.57,40.57,0,0,0,2.51-6.56l2.74.88C267.94,155.37,267.07,157.63,265.9,160.33Zm-.11-9.41V137.25h21.44v13.67Zm2.84-11.26v3.28h6.46v-3.28Zm0,5.57v3.29h6.46v-3.29Zm5,16.19c-2.63.07-3.91-1.09-3.83-3.5v-5h2.84v4.16c-.07,1.31.62,2,2.08,2h4.05a2,2,0,0,0,2.29-1.64,20.06,20.06,0,0,0,.33-2.41c.29.07.77.22,1.42.44a14.41,14.41,0,0,1,1.43.54c-.22,1.24-.44,2.26-.66,3.07q-.66,2.5-4.05,2.4Zm3.5-4.81-1-1.64c-.73-1.24-1.27-2.15-1.64-2.74l2.3-1.09a48.36,48.36,0,0,1,2.84,4.05Zm7.21-17h-6.45v3.28h6.45Zm-6.45,5.57v3.29h6.45v-3.29Zm9.41,14.33q-1.75-2.84-3.83-5.9l2.41-1.32c1.45,2,2.77,4,3.93,6Z"/><path d="M292.37,140.75l.11-.11c1.31.22,2.55.48,3.72.77a2.7,2.7,0,0,1-.22.76,4.51,4.51,0,0,0-.22,1.21,7,7,0,0,0-.11,1.31v.76a20.54,20.54,0,0,0,.44,4.6,37.41,37.41,0,0,0,1.53,4.37c.51,1.17,1.13,1.75,1.86,1.75a2.58,2.58,0,0,0,1.64-.76,9.26,9.26,0,0,0,1.75-2.08h.22l1.31,2q.23.1,0,.33a4.83,4.83,0,0,1-1.53,2,5.15,5.15,0,0,1-3.61,1.54q-2.62,0-4.16-3.4a21.21,21.21,0,0,1-.76-2.18,6.53,6.53,0,0,0-.44-1.42,57,57,0,0,1-1-6.13,9.48,9.48,0,0,0-.11-1.09,8.81,8.81,0,0,0-.22-1c0-.36,0-.91-.11-1.64A8.59,8.59,0,0,0,292.37,140.75Zm16.3,2.84,2.51-.76h.22a38,38,0,0,1,4.27,7.11,7.17,7.17,0,0,1,1,2.4L314,153.55h-.44a30.59,30.59,0,0,0-5-9.63Z"/><path d="M330.65,159.23l-2.19,2.19-5.9-6.45,2.07-1.86Z"/><path d="M355.59,159.67a12.52,12.52,0,0,0-1.21-1c-.58-.59-1-1-1.31-1.31a33.66,33.66,0,0,1-4.26,4.7,13.93,13.93,0,0,0-.88-1.1,8.82,8.82,0,0,0-.87-1.09,18.18,18.18,0,0,0,4.15-4.48q-1.63-1.65-3.5-3.28c.59-2.48,1.13-5.25,1.64-8.32h-2.07v-2.62h2.4q.33-2.52.66-5.25l2.62.33c-.22,1.6-.43,3.24-.65,4.92h4.37v2.73q-.44,7.22-2.3,11.05c1,.87,2,1.75,2.85,2.62Zm-1.42-15.86h-2.3c-.22,1.39-.59,3.32-1.09,5.8q-.22,1.3-.33,1.86c.29.29.83.76,1.64,1.42q-.76-.66.33.33C353.29,151.25,353.87,148.12,354.17,143.81Zm18,17.94q-7.54-3.18-9.51-10.5h-2.08v7.44l4.48-1.75a15,15,0,0,0,0,2.51c-1.82.66-3.32,1.24-4.48,1.75a11.27,11.27,0,0,0-2.19,1L357,160a2,2,0,0,0,.87-2V138.67h5.69c-.07-.22-.18-.54-.33-1-.14-.66-.25-1.13-.32-1.42l2.95-.33c.07.22.18.58.33,1.09.22.73.36,1.28.43,1.64h5.25v12.58h-6.56a13.71,13.71,0,0,0,1.64,3.39,50,50,0,0,0,4.38-2.84,4.81,4.81,0,0,0,.44-.33l1.64,2.08c-.59.29-1.61.87-3.07,1.75-.87.51-1.53.87-2,1.09a14.71,14.71,0,0,0,5.36,2.84Zm-11.59-20.67v2.73h8.64v-2.73Zm0,7.76h8.64V146h-8.64Z"/><path d="M378.67,138.13l3.82,1.2a5.94,5.94,0,0,1-.54,1.42c-.15.37-.26.66-.33.88a22,22,0,0,0-1.75,8.64v.87a10.27,10.27,0,0,0,1.09,5h.11c.15-.29.33-.69.55-1.2a9,9,0,0,0,.55-1.09l1.2.21c-.07.37-.18.88-.33,1.54a18.3,18.3,0,0,0-.55,3.5v.65l-2.62.55a10.18,10.18,0,0,1-2-4.27,23.25,23.25,0,0,1-.55-5.58v-1.2a28.51,28.51,0,0,1,.88-7,15.82,15.82,0,0,0,.44-3.61Zm13.78,17.5h1a23.21,23.21,0,0,0,6.13-.88l.11,2.95a15.25,15.25,0,0,1-5,.77h-1.2c-3.43,0-6-.8-7.76-2.41a2.86,2.86,0,0,1-.88-1.31l2-1.2A7.48,7.48,0,0,0,392.45,155.63Zm.11-15.1h1.2a39.75,39.75,0,0,1,4.27.22v2.84c-.52,0-1.21,0-2.08-.11s-1.53-.1-2-.1h-1.2a21.48,21.48,0,0,0-3.07.32,17.56,17.56,0,0,1-2.84.33l-.22-2.95a20,20,0,0,0,2.52-.22A26.48,26.48,0,0,1,392.56,140.53Z"/><path d="M411.7,153.66l-.33-1.1c-.51,0-1.35,0-2.52.11s-1.93.15-2.51.22a16.87,16.87,0,0,0-2,.33l-.88-2.3a8.21,8.21,0,0,0,1.86-1.75,26.15,26.15,0,0,0,2.63-3.5h-1.2a10.36,10.36,0,0,1-1.32.11,5,5,0,0,0-.76.11,2.55,2.55,0,0,0-.77.11l-.76-2.19a13.85,13.85,0,0,0,1.42-1.64,41.39,41.39,0,0,0,3.61-6.23l2.62.87q-2.07,3.39-4.59,6.78c1.31,0,2.37,0,3.17-.11a5.61,5.61,0,0,1,.55-.76c.36-.51.87-1.31,1.53-2.41l2.3,1.21c-3,4.23-5.29,7.29-6.9,9.18l3.72-.22a7.53,7.53,0,0,0-.65-1.64,4.13,4.13,0,0,0-.22-.76l2-.66q1,2.19,2.18,5.47Zm-6.35,7.76-2.18-.22q.65-3.16,1.2-6.56l2.08.22C406.16,157.27,405.79,159.45,405.35,161.42Zm2.52-.54c0-.22,0-.62-.11-1.21-.07-2-.18-3.64-.33-4.81l2-.11q.44,3,.66,5.91Zm4.37-.66q-.54-2.4-1.53-5.58l1.75-.44A17.5,17.5,0,0,1,413,156q.33.88,1.2,3.72Zm2.85-10.83a8.15,8.15,0,0,0-1.21-1.42c-.29-.37-.51-.62-.65-.77q4.69-2.62,4.59-7.32h-3.61v-2.63h14.44q0,3.28-.22,6.78c-.07,2.85-1.46,4.23-4.15,4.16-.66.07-1.79.11-3.4.11-.07-.29-.18-.77-.32-1.42s-.15-1-.22-1.32c.94.08,2,.11,3.17.11,1.46,0,2.19-.76,2.19-2.29,0-.44,0-1.06.11-1.86v-1.64h-5.25Q420.77,146,415.09,149.39Zm0,12.69V150.16h13.34v11.92h-2.84v-1.53h-7.77v1.53Zm2.73-9.3v5.36h7.77v-5.36Z"/><path d="M456,149.28a32,32,0,0,1-11.37-9.51,41.21,41.21,0,0,1-11.7,9.84,20.92,20.92,0,0,1-1.43-2.19c-.14-.22-.25-.4-.32-.54a31.37,31.37,0,0,0,12.25-10.83l3.5.22a7.44,7.44,0,0,1-.66,1.09,28,28,0,0,0,11.59,9.08C457.42,147,456.8,148,456,149.28Zm-20.56,13.13-1.09-1.1c-.59-.51-1-.91-1.31-1.2q5.13-2.73,4.81-9.52c.07-.65.11-1.78.11-3.39H441v1.32c-.07.94-.11,1.64-.11,2.07C441.12,155.92,439.3,159.85,435.43,162.41Zm12.36-.44V147.09h3.06V162Z"/><path d="M464.53,137.25h.21l3.5.66a13.91,13.91,0,0,1-.32,1.42v15.09a5.06,5.06,0,0,0,.65,3,3,3,0,0,0,2.3,1.09h.66a4.1,4.1,0,0,0,1.85-.44,11.19,11.19,0,0,0,2.52-1.2,11.91,11.91,0,0,0,3.06-2.74h.22l1.31,2.52c.15.15.15.22,0,.22a13.55,13.55,0,0,1-4.59,3.28,9.84,9.84,0,0,1-4.81,1.2h-.33a6.36,6.36,0,0,1-3.61-1.09,4.32,4.32,0,0,1-2.19-3.17c-.07-1-.11-2.08-.11-3.17V139.55a5.88,5.88,0,0,0-.22-1.32A6.52,6.52,0,0,1,464.53,137.25Z"/><path d="M489.13,142.5h.33l9.52-2c4.15-.87,7.29-1.49,9.4-1.86,1.1-.22,2.19-.4,3.29-.54l.21,3.17h-.65c-3.36,0-5.87.91-7.55,2.73a10.38,10.38,0,0,0-2.84,7.33v.44a5.76,5.76,0,0,0,1.53,4.26q1.53,1.65,4.81,1.53H509v3.29H507.4a10.27,10.27,0,0,1-6.89-2.41,8.58,8.58,0,0,1-2.3-6.34V151q0-4.26,3.5-8.53c-.95.22-2.4.58-4.37,1.09-.95.22-1.68.41-2.19.55l-1,.33a12.38,12.38,0,0,0-3.29,1.2Z"/><path d="M515.49,155.63v-.44a8.48,8.48,0,0,1,1.1-3.5,9,9,0,0,1,2-2.3,9.69,9.69,0,0,1,6.23-2.3H525a4.16,4.16,0,0,0,.77-1.31q1.31-2.29,2.73-4.59l-.22-.22a10.49,10.49,0,0,0-5.25,1.86l-.55-1.1c-.21-.43-.65-1.2-1.31-2.29l.11-.11h1.31a16.91,16.91,0,0,0,3.07-.44,4.8,4.8,0,0,1,.76-.11,18.58,18.58,0,0,0,3.39-1H530l2.84,2.73c.08.29-.1.55-.54.77l-.11.11a11.12,11.12,0,0,0-1.86,1.53c-.22.29-.51.73-.88,1.31a4.9,4.9,0,0,0-.43.66,6.21,6.21,0,0,1-.44.65,17,17,0,0,1-1,1.86c.81.15,1.61.33,2.41.55a23.46,23.46,0,0,1,3,1.2c.66.29,1.13.51,1.43.66a24.79,24.79,0,0,0,.65-4.7v-.88h.22l3,.88v.21a20.13,20.13,0,0,0-1.31,4.49.33.33,0,0,1-.11.22,2.5,2.5,0,0,1-.33,1,29.17,29.17,0,0,1,5,3.5l-1.32,2.52H540c-1.24-1.1-2.51-2.15-3.82-3.17a1.33,1.33,0,0,0-.55-.33c-.44.95-.91,1.86-1.42,2.73a15.37,15.37,0,0,1-5.36,5h-.22a11.42,11.42,0,0,0-2.3-1.75v-.11a15.17,15.17,0,0,0,5.14-3.72,9.29,9.29,0,0,0,2.08-3.39.1.1,0,0,0-.11-.11,22.13,22.13,0,0,0-7-2.62c-.36.73-.91,1.75-1.64,3.06-.51.88-.87,1.53-1.09,2q-2.62,4.59-5.58,4.05A3.24,3.24,0,0,1,515.49,155.63Zm3.39-3.18a5.27,5.27,0,0,1-.32.55,3,3,0,0,0-.66,1.09c-.29,1.32,0,2,1,2.08a2.23,2.23,0,0,0,1.32-.65.28.28,0,0,1,.11-.22,7,7,0,0,0,1.09-1.42,31.44,31.44,0,0,0,2.3-4.38A7.92,7.92,0,0,0,518.88,152.45Z"/><path d="M555.85,137l3.39.33.11.11a5,5,0,0,0-.43.87,1.34,1.34,0,0,1-.22.44v.44c-.08.58-.15,1.24-.22,2,.8-.07,1.93-.22,3.39-.44a11.72,11.72,0,0,0,1.42-.22l-.22,2.52a28.07,28.07,0,0,1-4.59.54,10.25,10.25,0,0,1,.11,1.75c.07.73.11,1.32.11,1.75h.22a21.79,21.79,0,0,0,4.81-.76l-.44,2.51a18.16,18.16,0,0,1-4.37.77c.07,1.68.18,3.43.32,5.25a19.1,19.1,0,0,1,6.13,3.39l-1.31,2a18.12,18.12,0,0,0-4.71-2.52,3.52,3.52,0,0,1-2.18,3.18,7.32,7.32,0,0,1-3.39.65h-1a5.48,5.48,0,0,1-4-1.42,3.06,3.06,0,0,1-.87-3.61,4.45,4.45,0,0,1,2.08-1.75,11.06,11.06,0,0,1,3.72-.66h1.09a9.9,9.9,0,0,1,1.64.22c-.44-.14-.37-.14.22,0a28.21,28.21,0,0,0-.22-2.95c-.07-.66-.11-1.17-.11-1.53H554a34.51,34.51,0,0,1-3.93-.22l-.22-.11-.55-2.41v-.21c.29.07.66.14,1.09.21a20,20,0,0,0,3.07.33h2.73c0-1.09,0-2.37-.11-3.83h-.65c-1.9,0-3.72-.07-5.47-.21l-.22-.11-.66-2.52a15,15,0,0,1,2.19.22,25.06,25.06,0,0,0,2.73.22h2.08V140A23.7,23.7,0,0,0,555.85,137Zm-2.4,19.14h-.66c-1.68.15-2.55.77-2.62,1.86.07.44.43.77,1.09,1a13.82,13.82,0,0,0,1.64.11h.66a4.77,4.77,0,0,0,2.4-.44,2.2,2.2,0,0,0,.77-1.75v-.44a9.59,9.59,0,0,1-1.1-.11A19.16,19.16,0,0,0,553.45,156.17Z"/><path d="M576.53,137.25h.21l3.5.66a13.91,13.91,0,0,1-.32,1.42v15.09a5.06,5.06,0,0,0,.65,3,3,3,0,0,0,2.3,1.09h.66a4.1,4.1,0,0,0,1.85-.44,11.19,11.19,0,0,0,2.52-1.2,11.91,11.91,0,0,0,3.06-2.74h.22l1.31,2.52c.15.15.15.22,0,.22a13.55,13.55,0,0,1-4.59,3.28,9.84,9.84,0,0,1-4.81,1.2h-.33a6.36,6.36,0,0,1-3.61-1.09,4.32,4.32,0,0,1-2.19-3.17c-.07-1-.11-2.08-.11-3.17V139.55a5.88,5.88,0,0,0-.22-1.32A6.52,6.52,0,0,1,576.53,137.25Z"/><path d="M609.23,136.92h.22l3.28.88v.33a2.61,2.61,0,0,0-1.1,1.75,11.14,11.14,0,0,0-.65,1.85,3.11,3.11,0,0,1-.22.66l3.61-.66a3.4,3.4,0,0,0,.76-.21l.22.11v2.84q-2.62.43-5.25.66a2.65,2.65,0,0,1-.11.54c.08-.14,0-.07-.11.22a63.44,63.44,0,0,1-5.79,15l-3-.88-.1-.22a88.62,88.62,0,0,0,6.34-14.55,15.39,15.39,0,0,1-2.19.11c-.95.08-1.68.11-2.19.11l-.21-.11-.44-2.62.11-.22c.29,0,.76,0,1.42.11a12.31,12.31,0,0,0,1.31.11h.88c.65,0,1.35,0,2.07-.11a2.78,2.78,0,0,0,.22-.66,17,17,0,0,0,.88-4.37ZM624,157.05l-.32,3.06a28.34,28.34,0,0,1-3.61.22H619a22.33,22.33,0,0,1-4.81-.55,2,2,0,0,1-.44-.11c-.51,0-.84-.11-1-.33l-.11-2.51a7.15,7.15,0,0,0,1,.22,29.52,29.52,0,0,0,4.82.54H619A23.83,23.83,0,0,0,624,157.05Zm-6.34-10.72h1c1.17,0,2.41,0,3.72.11l.11,2.95-.11.11a24.17,24.17,0,0,0-4.7-.66h-1.09a9,9,0,0,0-2.41.33l.44-2.73H616C616.74,146.37,617.28,146.33,617.65,146.33Z"/><path d="M630.56,157.38a4.39,4.39,0,0,1,4.48-4.49c2.7.22,4.16,1.71,4.38,4.49-.3,2.47-1.75,3.86-4.38,4.15Q631,161.2,630.56,157.38Zm1.75,0q.21,2.18,2.73,2.4a2.54,2.54,0,0,0,2.63-2.4,2.68,2.68,0,1,0-5.36,0Z"/><path d="M108.18,207.67a13.4,13.4,0,0,0-1.2-1l-1.31-1.31a33.9,33.9,0,0,1-4.27,4.7c-.15-.22-.44-.59-.87-1.1a9.71,9.71,0,0,0-.88-1.09,18.23,18.23,0,0,0,4.16-4.48c-1.1-1.1-2.26-2.19-3.5-3.28q.87-3.72,1.64-8.32H99.87v-2.62h2.41c.21-1.68.43-3.43.65-5.25l2.63.33q-.33,2.4-.66,4.92h4.38v2.73q-.45,7.22-2.3,11.05c1,.87,2,1.75,2.84,2.62Zm-1.42-15.86h-2.3q-.33,2.08-1.09,5.8-.23,1.3-.33,1.86c.29.29.84.76,1.64,1.42q-.77-.66.33.33C105.88,199.25,106.47,196.12,106.76,191.81Zm18,17.94q-7.55-3.18-9.52-10.5h-2.08v7.44l4.49-1.75a13.15,13.15,0,0,0,0,2.51c-1.83.66-3.32,1.24-4.49,1.75a10.84,10.84,0,0,0-2.18,1L109.6,208a2,2,0,0,0,.88-2V186.67h5.69c-.08-.22-.19-.54-.33-1-.15-.66-.26-1.13-.33-1.42l2.95-.33c.07.22.18.58.33,1.09.22.73.37,1.28.44,1.64h5.25v12.58h-6.56a13,13,0,0,0,1.64,3.39,51.86,51.86,0,0,0,4.37-2.84,3.68,3.68,0,0,0,.44-.33l1.64,2.08c-.58.29-1.6.87-3.06,1.75-.88.51-1.53.87-2,1.09a14.63,14.63,0,0,0,5.36,2.84Zm-11.6-20.67v2.73h8.64v-2.73Zm0,7.76h8.64V194h-8.64Z"/><path d="M154.12,196.73v.77a10,10,0,0,1-3,6.89,13.65,13.65,0,0,1-5.47,3.94c0,.14-.08.14-.22,0a10,10,0,0,0-2.52-1.64v-.22q7.88-3.72,8-9.52v-.54a7.12,7.12,0,0,0-2.41-5,8.65,8.65,0,0,0-4.59-2,60.72,60.72,0,0,1-2.41,8,51.54,51.54,0,0,1-3.39,7.11q-1.43,2.63-3.5,2.63-3.28-.12-5.47-3.72a7.73,7.73,0,0,1-1.09-3.72v-.55a10.26,10.26,0,0,1,.87-3.61,13.15,13.15,0,0,1,2-3.28,12.35,12.35,0,0,1,5.91-4.48,15.71,15.71,0,0,1,5-1.1h1.2a11,11,0,0,1,8,3A10.33,10.33,0,0,1,154.12,196.73ZM131,198.59v.55a6.08,6.08,0,0,0,1.09,3.39,2.5,2.5,0,0,0,2.08,1.31,2.77,2.77,0,0,0,1.86-1.31,19.86,19.86,0,0,0,1.1-2c.14-.36.25-.62.32-.76a36.8,36.8,0,0,0,3.72-10.39,17.37,17.37,0,0,0-4.15,1.09,14.81,14.81,0,0,0-4.49,4.05A8.53,8.53,0,0,0,131,198.59Z"/><path d="M156.63,200.13c-.29-1.32-.62-2.56-1-3.72a45.66,45.66,0,0,0,6.13-12.36l3.06.65c-.81,2.05-1.64,4-2.52,5.91v19.58h-2.84V196C158.6,197.28,157.66,198.67,156.63,200.13Zm8.1-8.54v-2.73h7.55c-.08-.22-.22-.66-.44-1.31-.44-1.39-.77-2.41-1-3.07l3.07-.43a11.8,11.8,0,0,0,.43,1.31c.51,1.39.84,2.37,1,2.95l-2.74.55h9.08v2.73h-6.89v5.58H181v2.74h-6.24v6.34h7.55v2.52H164.07v-2.52h7.66v-6.34h-6.24v-2.74h6.24v-5.58Z"/><path d="M189.67,185l3.5.44a25,25,0,0,0-.66,4.37A43.26,43.26,0,0,0,197,189l-.32,3.06a14.61,14.61,0,0,0-2.08.22c-1,.07-1.79.15-2.3.22v2.41a4.52,4.52,0,0,0,.22,1.2,1.9,1.9,0,0,1,.11.55,8.52,8.52,0,0,1,.22,2.73v1a6.51,6.51,0,0,1-.66,3,1,1,0,0,1-.11.33.85.85,0,0,0-.11.32v.44a2.47,2.47,0,0,0,1,1.86,2.38,2.38,0,0,0,2.08.55h2.29a12.6,12.6,0,0,0,2.85-.33,2.39,2.39,0,0,0,1.75-1,7.62,7.62,0,0,0,1.2-4.15v-.66l2.84,1.42v.44a8,8,0,0,1-1.31,4.49,5.4,5.4,0,0,1-4.16,2,27.78,27.78,0,0,1-4.37.33h-2.19a4.52,4.52,0,0,1-3.17-1.09,3.82,3.82,0,0,1-1.42-3.06v-.33c-2.63-.15-4.09-1.71-4.38-4.7v-.44a5.56,5.56,0,0,1,1.1-3.5,5.31,5.31,0,0,1,3.82-1.64,17.7,17.7,0,0,0,.11-2c-1,.07-2.07.11-3.17.11H186a.84.84,0,0,1-.33-.11l-.66-2.74a16.37,16.37,0,0,0,2,.11H190v-1.31c-.07-.58-.11-1-.11-1.2v-.66a4.71,4.71,0,0,0-.1-.87A5.67,5.67,0,0,1,189.67,185Zm.54,13.89v-.76a1.46,1.46,0,0,1-.22-.44c-.14-.58-.36-.88-.65-.88a1.18,1.18,0,0,0-.88.33,3.43,3.43,0,0,0-.87,2.52v.44c.07,1.09.44,1.67,1.09,1.75a1.66,1.66,0,0,0,1.31-1.1A5.39,5.39,0,0,0,190.21,198.92Zm12.25-8.09v-.33l1.1-1.86a24.91,24.91,0,0,1,5.68,3.39l-1.53,2.3h-.22A28.31,28.31,0,0,0,202.46,190.83Z"/><path d="M216.57,193.56v-2.18h17.06v2.18h-6.45a16.36,16.36,0,0,1-2.62,1.64,31.51,31.51,0,0,1,2.18,3.07c3.29-1.54,5.91-2.85,7.88-3.94l1.53,2.3c-.87.43-2.22,1.09-4.05,2,.15-.07,0,0-.54.22a11.89,11.89,0,0,0,6.67,7.33,14.57,14.57,0,0,0-1.86,2.3,14.5,14.5,0,0,1-7.11-8.53l-1.53.65a13.41,13.41,0,0,1,.65,4.27c.08,3.35-1.35,5-4.26,5H220.4a3.41,3.41,0,0,1-.22-.77,15.15,15.15,0,0,0-.44-1.75h3.18c1.89.15,2.77-.69,2.62-2.51a12.09,12.09,0,0,0-.11-1.64,38.5,38.5,0,0,1-12.25,6.12,4.4,4.4,0,0,0-.44-.87,5.77,5.77,0,0,0-.87-1.42,33.28,33.28,0,0,0,12.91-6.24,10.44,10.44,0,0,0-.55-1.31,40.27,40.27,0,0,1-10.83,5.14q-.22-.44-.66-1.2c-.29-.59-.51-1-.65-1.21a34.48,34.48,0,0,0,11-4.59,2.13,2.13,0,0,0-.43-.55,1.15,1.15,0,0,0-.44-.54,44.6,44.6,0,0,1-8.86,3.28c-.37-.8-.77-1.61-1.2-2.41a31.67,31.67,0,0,0,11-3.83Zm-3.94-1.31v-5.47H224q-.1-.33-.33-.87c-.29-.81-.51-1.39-.65-1.75l3.28-.44c.07.22.22.62.43,1.2.29.81.51,1.42.66,1.86h10.06v5.47h-2.84v-3.06h-19v3.06Z"/><path d="M243.59,185.25h.33l3,1.09a6.31,6.31,0,0,1-.66,1.75c-.14.3-.25.51-.33.66a36.36,36.36,0,0,0-1.42,4.7,24.82,24.82,0,0,0-.65,4.6v1a19.92,19.92,0,0,0,.76,5.14h.22q.22-.43.66-1.2a7.75,7.75,0,0,1,.54-1.09h.22l.88.87V203c-.44,1.9-.81,3.68-1.1,5.36l-2.4.55a18.48,18.48,0,0,1-2.3-9.63v-1.64a24.17,24.17,0,0,1,.88-5.58c.07-.36.21-.91.43-1.64a16.7,16.7,0,0,0,1-4.7Zm11.7.55,3.83.54c-.15,1.68-.22,3.5-.22,5.47v-.11c1.53-.14,3.06-.36,4.59-.65v2.62c-1.46.29-2.95.51-4.48.66q.11,8.21.11,7.87l2.51,1c.15.14.26.22.33.22a14.65,14.65,0,0,1,3,2l-1.75,2.07h-.33c-.59-.43-1.21-.87-1.86-1.31-.29-.14-.7-.36-1.2-.66s-.62-.36-.77-.43a4.35,4.35,0,0,1-1.2,2.18,5.28,5.28,0,0,1-4.05,1.65h-.55a6.56,6.56,0,0,1-3.28-.88,3.43,3.43,0,0,1-1.64-2.84v-.44a3.51,3.51,0,0,1,1.64-2.63,5.83,5.83,0,0,1,3.28-.87h.55a16.06,16.06,0,0,1,2.73.22c0-.44,0-1.13-.11-2.08-.14-1.82-.21-3.21-.21-4.16v-.65h-2.3c-1.53-.07-3.1-.22-4.7-.44l-.33-2.73a8,8,0,0,1,1.53.21,40.69,40.69,0,0,0,4.37.33h1.32c-.08-1.89-.15-3.21-.22-3.94v-.21A3,3,0,0,0,255.29,185.8Zm-1.75,17.83H253q-1.63,0-2.07.54c-.51.66-.3,1.31.65,2a4,4,0,0,0,4.05-.44,2.18,2.18,0,0,0,.76-1.53A7.37,7.37,0,0,0,253.54,203.63Z"/><path d="M268.2,188.42V185.8h8.42v2.62h-2.74v6.35h2.63v2.62h-2.63v6.45c.44-.07,1.17-.21,2.19-.43.37-.08.66-.15.88-.22V206c-.44.07-1.13.22-2.08.44-2.77.51-5,1-6.67,1.42l-.44-2.73c.36-.08.95-.18,1.75-.33l1.64-.33v-7.11h-2.84v-2.62h2.84v-6.35ZM289,209.64q-3.28.11-3.17-2.95V202h-2.19l-.11.88q0,5.14-6.67,7.33a5.23,5.23,0,0,0-.44-.66,18.92,18.92,0,0,0-1.31-1.75q5.69-1.42,5.69-4.92V202H277.6V185.14h14.88V202h-3.94v4.16c-.07.66.33,1,1.2.88h.77c.73.07,1.13-.29,1.2-1.1a19.53,19.53,0,0,0,.22-2.08c.07-.58.11-1,.11-1.2l2.3.88a22.65,22.65,0,0,1-.55,3.5,2.8,2.8,0,0,1-3.06,2.62Zm-8.53-22.2v2.62h9.18v-2.62Zm0,4.81v2.63h9.18v-2.63Zm0,4.81v2.63h9.18v-2.63Z"/><path d="M320.81,194.66c-1.32-.59-2.52-1.13-3.61-1.64v2.07h-6.57v3h9.3v2.62h-9.3v6.13h10.94v2.4H296.63v-2.4h10.94v-6.13h-9.29v-2.62h9.29v-3h-6.78v-1.86c-1,.52-2.15,1.06-3.39,1.65-.15-.22-.33-.51-.55-.88-.51-.8-.87-1.38-1.09-1.75q9.08-3.5,12.47-8.53l3.39.33-.66.87a22.62,22.62,0,0,0,11.38,6.89c-.15.29-.4.77-.77,1.42S321,194.37,320.81,194.66Zm-18.05,11.81c-.58-.73-1.68-2-3.28-3.94l2.19-1.42q1.2,1.3,3.06,3.5c-.15-.15,0,0,.33.44ZM309.32,187a28.4,28.4,0,0,1-7.11,5.58h14A26,26,0,0,1,309.32,187Zm5.8,19.47-2.19-1.42a1.17,1.17,0,0,0,.22-.33c1.46-1.6,2.52-2.81,3.17-3.61l2.41,1.31Q317.3,204.07,315.12,206.47Z"/><path d="M326.06,193.23l-2-2.07a31.45,31.45,0,0,0,8-7.44l3.39.33a12.58,12.58,0,0,1-1.53,1.86h10.28v2.18l-2.51,2.52h5.68v14.44H327V192.47Zm-.44,17.07-1.31-2.63a87.12,87.12,0,0,0,9.51-2.29l1.21,2.07Q330.86,208.88,325.62,210.3Zm15-22.1h-8.75a25.79,25.79,0,0,1-2.51,2.41h9Zm-10.72,4.71V195h14.66v-2.07Zm0,3.93v2.08h14.66v-2.08Zm0,3.83v2.08h14.66v-2.08Zm18.6,9.52q-4.71-1.53-9.3-2.85l1-2c3.71.8,6.85,1.53,9.4,2.18Z"/><path d="M352.09,191.48v-2.62h3.17v-4.7h2.95v4.7H361v2.62h-2.74v5c.88-.22,1.82-.44,2.85-.66v2.73l-2.85.77v7.33c.07,2-1,3-3.17,3.17a20,20,0,0,0-2.3.11,12.46,12.46,0,0,1-.21-1.31q-.22-1.09-.33-1.53h1.64c1,.07,1.49-.33,1.42-1.21v-5.69l-3.17.77-.22-3.06a7.73,7.73,0,0,1,.87-.22c.44-.07,1.28-.26,2.52-.55v-5.69Zm8,17.5v-2.51h18.16V209Zm2.19-6.12V185.47H376.7v17.39Zm2.95-14.66v4.6h8.64v-4.6Zm0,7.22v4.81h8.64v-4.81Z"/><path d="M388.51,185.58q7.88.1,8,11.59t-8,11.49q-8-.12-8.09-11.49Q380.63,185.91,388.51,185.58Zm0,20.67q4.49.1,4.48-9,.12-9.3-4.48-9.08-4.49-.1-4.48,9.08T388.51,206.25Z"/><path d="M400.1,209.86v-24.5h23.63V205.7q.11,3.84-3.94,3.94c-1,.07-2.44.11-4.26.11a11.9,11.9,0,0,0-.66-2.73h3.83c1.46.07,2.11-.59,2-2v-5.8H403.06v10.61Zm3-21.77v8.32h7.32v-8.32Zm17.61,0h-7.33v8.32h7.33Z"/><path d="M452.93,196.73v.77a9.92,9.92,0,0,1-2.95,6.89,13.59,13.59,0,0,1-5.47,3.94c0,.14-.07.14-.22,0a10.07,10.07,0,0,0-2.51-1.64v-.22q7.88-3.72,8-9.52v-.54a7.09,7.09,0,0,0-2.41-5,8.65,8.65,0,0,0-4.59-2,60.72,60.72,0,0,1-2.41,8A51.54,51.54,0,0,1,437,204.5c-.95,1.75-2.11,2.63-3.5,2.63-2.18-.08-4-1.32-5.47-3.72a7.73,7.73,0,0,1-1.09-3.72v-.55a10.09,10.09,0,0,1,.88-3.61,12.87,12.87,0,0,1,2-3.28,12.39,12.39,0,0,1,5.91-4.48,15.71,15.71,0,0,1,5-1.1h1.2a11,11,0,0,1,8,3A10.33,10.33,0,0,1,452.93,196.73Zm-23.08,1.86v.55a6,6,0,0,0,1.1,3.39,2.47,2.47,0,0,0,2.08,1.31,2.78,2.78,0,0,0,1.85-1.31,18,18,0,0,0,1.1-2,6.74,6.74,0,0,1,.33-.76A37.11,37.11,0,0,0,440,189.41a17.33,17.33,0,0,0-4.16,1.09,14.81,14.81,0,0,0-4.49,4.05A8.53,8.53,0,0,0,429.85,198.59Z"/><path d="M454.79,190.94V188.2h5.69c-.15-.51-.4-1.27-.77-2.29q-.33-1-.54-1.53l3.06-.44c.14.44.4,1.13.76,2.08s.51,1.67.66,2.18h4.05v2.74h-1.64a40.42,40.42,0,0,1-2.52,9.84c.66,1,1.64,2.45,2.95,4.27a15.92,15.92,0,0,1,1.21,1.64l-2.41,1.64-1.64-2.3c-.73-1-1.28-1.82-1.64-2.4a29.06,29.06,0,0,1-5.58,6.34l-2.08-2.3a23.78,23.78,0,0,0,5.91-6.67l-2.95-4.27c-.95-1.31-1.61-2.25-2-2.84l2.19-1.53,4,5.69a31.9,31.9,0,0,0,1.75-7.11Zm16.41,10.83c-1.24-2.63-2.34-4.74-3.28-6.35l2.4-1c1,1.68,2.15,3.75,3.39,6.23ZM468.35,192V189.3h7.22v-5.25h3v5.25h2.62V192h-2.62v14.11q.21,3.62-3.83,3.61h-1.86c-.95.07-1.68.11-2.19.11a7.15,7.15,0,0,1-.22-1c-.22-.81-.36-1.43-.44-1.86h3.61c1.39.07,2-.48,2-1.64V192Z"/><path d="M484.43,192.47l-1.86-1.86a27.46,27.46,0,0,0,8.31-6.67l3.29.33a8.87,8.87,0,0,1-1.54,1.75h10.72v2l-2.29,2.08h6.34v6.24h-1.86l1.53,2-4.15,2a10.83,10.83,0,0,0,6.34,6.68,10,10,0,0,0-1.42,1.53,2.4,2.4,0,0,0-.44.54,13,13,0,0,1-6.67-7.65c-.51.22-1.06.44-1.64.65a13.26,13.26,0,0,1,.44,3.4c0,3-1.43,4.48-4.27,4.48-1.24.07-2.52.11-3.83.11-.07-.29-.15-.69-.22-1.2l-.33-1.21a29,29,0,0,0,3.29.11q2.83.11,2.73-2.4a3.39,3.39,0,0,0-.11-.77v-.66q-4.16,3.39-12.91,6c-.36-.73-.76-1.5-1.2-2.3a32.05,32.05,0,0,0,13.45-5.9,9.24,9.24,0,0,0-.54-.88.28.28,0,0,1-.11-.22,34.22,34.22,0,0,1-11.27,5,7.68,7.68,0,0,0-1.09-1.64,1.1,1.1,0,0,0-.22-.43A34.65,34.65,0,0,0,494.38,199a2.31,2.31,0,0,0-.43-.55,1.26,1.26,0,0,0-.44-.43q-3.06,1.86-9.84,3.39a10.17,10.17,0,0,0-1.1-2.19q7.21-1.09,9.74-2.95h-7.44v-4.05Zm3.28-.44v2.3h6.46a14.41,14.41,0,0,0,.76-2.3Zm12-3.94h-9.07c-.73.66-1.54,1.32-2.41,2h9.3Zm-4.15,8.54a27.31,27.31,0,0,1,2.62,3.17,73.91,73.91,0,0,0,7.11-3.5h-9.4Zm9.08-4.6h-6.79c-.21.88-.43,1.64-.65,2.3h7.44Z"/><path d="M517.9,204.06a29,29,0,0,0-2.08-2.4q7-3.51,6.67-10.18H515.6v18.38h-3V188.64h9.84v-4.48h3.18c0,1.67,0,3.17-.11,4.48h9.62v16.84q.11,4.05-3.94,4.16h-4.7a10,10,0,0,0-.66-2.84c1.39.07,2.74.11,4,.11q2.3.1,2.19-2.19V191.48h-6.67a13.68,13.68,0,0,1-.55,4.05q.44.33,1.2,1,4,3.16,5.8,4.81l-2.3,2.3c-1.38-1.39-3.32-3.18-5.79-5.36Q522.49,200.9,517.9,204.06Z"/><path d="M564.93,196.73v.77a9.92,9.92,0,0,1-2.95,6.89,13.59,13.59,0,0,1-5.47,3.94c0,.14-.07.14-.22,0a10.07,10.07,0,0,0-2.51-1.64v-.22q7.88-3.72,8-9.52v-.54a7.09,7.09,0,0,0-2.41-5,8.65,8.65,0,0,0-4.59-2,60.72,60.72,0,0,1-2.41,8A51.54,51.54,0,0,1,549,204.5c-1,1.75-2.11,2.63-3.5,2.63-2.18-.08-4-1.32-5.47-3.72a7.73,7.73,0,0,1-1.09-3.72v-.55a10.09,10.09,0,0,1,.88-3.61,12.87,12.87,0,0,1,2-3.28,12.39,12.39,0,0,1,5.91-4.48,15.71,15.71,0,0,1,5-1.1h1.2a11,11,0,0,1,8,3A10.33,10.33,0,0,1,564.93,196.73Zm-23.08,1.86v.55a6,6,0,0,0,1.1,3.39,2.47,2.47,0,0,0,2.08,1.31,2.78,2.78,0,0,0,1.85-1.31,18,18,0,0,0,1.1-2,6.74,6.74,0,0,1,.33-.76A37.11,37.11,0,0,0,552,189.41a17.33,17.33,0,0,0-4.16,1.09,14.81,14.81,0,0,0-4.49,4.05A8.53,8.53,0,0,0,541.85,198.59Z"/><path d="M576.63,184.92h.22l3.28.88v.33a2.61,2.61,0,0,0-1.09,1.75,10.19,10.19,0,0,0-.66,1.85,3.22,3.22,0,0,1-.21.66l3.61-.66a3.58,3.58,0,0,0,.76-.21l.22.11v2.84q-2.62.43-5.25.66a3.71,3.71,0,0,1-.11.54c.07-.14,0-.07-.11.22a63.85,63.85,0,0,1-5.8,15l-3-.88-.11-.22a88.67,88.67,0,0,0,6.35-14.55,15.57,15.57,0,0,1-2.19.11c-1,.08-1.68.11-2.19.11l-.22-.11-.44-2.62.11-.22c.29,0,.77,0,1.43.11a12.31,12.31,0,0,0,1.31.11h.87c.66,0,1.35,0,2.08-.11a3.33,3.33,0,0,0,.22-.66,17.35,17.35,0,0,0,.87-4.37Zm14.77,20.13-.33,3.06a28.23,28.23,0,0,1-3.61.22h-1.09a22.26,22.26,0,0,1-4.81-.55,1.9,1.9,0,0,1-.44-.11q-.76,0-1-.33l-.1-2.51a6.5,6.5,0,0,0,1,.22,29.53,29.53,0,0,0,4.81.54h.55A23.9,23.9,0,0,0,591.4,205.05Zm-6.34-10.72h1c1.17,0,2.41,0,3.72.11l.11,2.95-.11.11a24.17,24.17,0,0,0-4.7-.66H584a9,9,0,0,0-2.4.33l.43-2.73h1.43C584.14,194.37,584.69,194.33,585.06,194.33Z"/><path d="M608.9,185.47h.77l2.73.66c-.07.43-.15,1.09-.22,2s-.25,1.64-.33,2.08a10,10,0,0,1,5.69,1.86,9.09,9.09,0,0,1,2.74,6.35V199a9.06,9.06,0,0,1-1.43,5.25,9.93,9.93,0,0,1-3.72,3.28A9.4,9.4,0,0,1,612,209c-.07,0-.29-.18-.65-.54a1.43,1.43,0,0,0-.22-.33,4.82,4.82,0,0,0-1.21-1,.27.27,0,0,0-.21-.11q7-1.65,7.43-7.77v-.33a6.1,6.1,0,0,0-2-4.59,6.36,6.36,0,0,0-3.93-1.53,25.3,25.3,0,0,1-3.61,8.2,14.84,14.84,0,0,0,2.08,1.75l-2.3,2.08h-.11l-1-1-.44-.43-.55.54a8,8,0,0,1-1.09,1.1,7.4,7.4,0,0,1-5,2.4h-.33c-2-.14-3.14-1.56-3.28-4.26v-.55a10.2,10.2,0,0,1,1.42-4.81,3.68,3.68,0,0,0,.33-.44,14.53,14.53,0,0,1,2.18-2.73c-.36-.73-.91-1.83-1.64-3.28a16.46,16.46,0,0,0-.87-1.75l3.06-1.54v.77a17.61,17.61,0,0,0,1.53,4.27,16.3,16.3,0,0,1,7.44-2.85,10.25,10.25,0,0,0,.33-2.51v-.44A4.11,4.11,0,0,0,608.9,185.47Zm-10.72,17.06V203c0,.87.26,1.42.77,1.64.36.22.91.15,1.64-.22a12,12,0,0,0,2.95-2.3l.33-.32a1,1,0,0,1,.22-.33,13.08,13.08,0,0,1-1.53-2.08,24,24,0,0,1-1.43-2,1.28,1.28,0,0,0-.21-.44c-.51.66-1.06,1.35-1.64,2.08A8.52,8.52,0,0,0,598.18,202.53Zm10.28-9.62a13.21,13.21,0,0,0-5.58,2.29,5.23,5.23,0,0,0,.44.66c.29.44.48.73.55.87a2.08,2.08,0,0,1,.22.33,11,11,0,0,0,1.75,2.08c.44-.73.87-1.53,1.31-2.41l.33-1A14.37,14.37,0,0,0,608.46,192.91Z"/><path d="M634.06,207.23l-2.19,2.19L626,203l2.08-1.86Z"/><path d="M173.59,255.67a12.52,12.52,0,0,0-1.21-1l-1.31-1.31a33.66,33.66,0,0,1-4.26,4.7,12.56,12.56,0,0,0-.88-1.09,8.35,8.35,0,0,0-.87-1.1,18.18,18.18,0,0,0,4.15-4.48q-1.64-1.65-3.5-3.28c.59-2.48,1.13-5.25,1.64-8.32h-2.07v-2.62h2.4q.33-2.52.66-5.25l2.62.33c-.22,1.6-.43,3.24-.65,4.92h4.37v2.73q-.44,7.23-2.3,11.05c1,.87,2,1.75,2.85,2.62Zm-1.42-15.86h-2.3c-.22,1.39-.59,3.32-1.09,5.8q-.22,1.32-.33,1.86c.29.29.83.77,1.64,1.42q-.76-.66.33.33C171.29,247.25,171.87,244.12,172.17,239.81Zm18,17.94q-7.54-3.18-9.51-10.5h-2.08v7.44l4.48-1.75a15,15,0,0,0,0,2.51c-1.82.66-3.32,1.24-4.48,1.75a11.27,11.27,0,0,0-2.19,1L175,256a2,2,0,0,0,.87-2V234.67h5.69c-.07-.22-.18-.54-.33-1-.14-.66-.25-1.13-.32-1.42l3-.33c.07.22.18.58.33,1.09.22.73.36,1.28.43,1.64h5.25v12.58h-6.56a13.71,13.71,0,0,0,1.64,3.39,50,50,0,0,0,4.38-2.84,4.81,4.81,0,0,0,.44-.33l1.64,2.08c-.59.29-1.61.87-3.07,1.75-.87.51-1.53.87-2,1.09a14.87,14.87,0,0,0,5.36,2.85Zm-11.59-20.67v2.73h8.64v-2.73Zm0,7.76h8.64V242h-8.64Z"/><path d="M196.67,234.13l3.82,1.2a5.94,5.94,0,0,1-.54,1.42c-.15.37-.26.66-.33.88a22,22,0,0,0-1.75,8.64v.87a10.27,10.27,0,0,0,1.09,5h.11c.15-.29.33-.69.55-1.2a9,9,0,0,0,.55-1.09l1.2.21c-.07.37-.18.88-.33,1.54a18.3,18.3,0,0,0-.55,3.5v.65l-2.62.55a10.18,10.18,0,0,1-2-4.27,23.16,23.16,0,0,1-.55-5.57v-1.21a28.51,28.51,0,0,1,.88-7,15.82,15.82,0,0,0,.44-3.61Zm13.78,17.5h1a23.21,23.21,0,0,0,6.13-.88l.11,2.95a15.25,15.25,0,0,1-5,.77h-1.2c-3.43,0-6-.8-7.76-2.41a2.86,2.86,0,0,1-.88-1.31l2-1.2A7.48,7.48,0,0,0,210.45,251.63Zm.11-15.1h1.2a42.51,42.51,0,0,1,4.27.22v2.84c-.52,0-1.21,0-2.08-.1s-1.53-.11-2-.11h-1.2a23.08,23.08,0,0,0-3.07.32,17.56,17.56,0,0,1-2.84.33l-.22-2.95a20,20,0,0,0,2.52-.22A26.48,26.48,0,0,1,210.56,236.53Z"/><path d="M240.74,237.63l2.41,2.73v.22a40,40,0,0,0-10.61,4.48,13.36,13.36,0,0,0-3.39,3.28,3.8,3.8,0,0,0-.66,1.86v.44a3.39,3.39,0,0,0,2.08,3,8.49,8.49,0,0,0,3.72.66h.77a23.11,23.11,0,0,0,6.34-.87l.22,3.28c-1.9.14-3.72.22-5.47.22h-1.64a10,10,0,0,1-5.8-1.21,5.43,5.43,0,0,1-2.84-4.92v-.55c.07-2.47,1.57-4.74,4.48-6.78a1,1,0,0,1,.55-.43,43.59,43.59,0,0,0-3.5-9.19l2.95-.55a62.4,62.4,0,0,1,3.28,8.2l3.94-2A12.89,12.89,0,0,0,240.74,237.63Z"/><path d="M251.13,238.5h.33l9.52-2c4.15-.87,7.29-1.49,9.4-1.86,1.1-.22,2.19-.4,3.29-.54l.21,3.17h-.65c-3.36,0-5.87.91-7.55,2.73a10.38,10.38,0,0,0-2.84,7.33v.44a5.76,5.76,0,0,0,1.53,4.26q1.53,1.65,4.81,1.53H271v3.29H269.4a10.27,10.27,0,0,1-6.89-2.41,8.58,8.58,0,0,1-2.3-6.34V247q0-4.26,3.5-8.53c-.95.22-2.4.58-4.37,1.09-.95.22-1.68.41-2.19.55l-1,.33a12.74,12.74,0,0,0-3.29,1.2Z"/><path d="M287.56,232.38H288l3.18.87v.22a1.64,1.64,0,0,0-.55.87l-.33.66c-.29.95-.55,1.93-.76,2.95a.84.84,0,0,1-.11.33c-.08.22-.15.4-.22.55h2.08a10.75,10.75,0,0,0,1.85-.22,3.26,3.26,0,0,1,.66-.11l-.55,2.74a.44.44,0,0,1-.32.1h-4.27c-.07.52-.15,1.21-.22,2.08-.15,1-.25,1.83-.33,2.41a18.31,18.31,0,0,0,5.25.11v.44l-.43,2.18a.44.44,0,0,1-.33.11h-2.3c-.8,0-1.64,0-2.51-.11v.77a2.89,2.89,0,0,0-.11.76v1.1a4.07,4.07,0,0,0,1.09,2.84,3.91,3.91,0,0,0,2.52,1h.65a4.69,4.69,0,0,0,3.17-1.1,4.48,4.48,0,0,0,1.1-2.95v-.44c0-1.24-.7-2.95-2.08-5.14a3.25,3.25,0,0,0-.33-.55l3.17-.21a9.47,9.47,0,0,1,2.41,6.12v.55a6.33,6.33,0,0,1-2.3,4.81,6.76,6.76,0,0,1-4.81,1.64h-.66a6.85,6.85,0,0,1-4.7-1.86q-1.75-1.42-1.75-4.92v-1.09a14.55,14.55,0,0,1,.11-1.75,17.5,17.5,0,0,0-1.75-.55,12.34,12.34,0,0,0-1.86-.55l.22-2.73a15.69,15.69,0,0,0,3.72,1.09v-.55a15.14,15.14,0,0,0,.44-2c.14-.81.25-1.43.32-1.86q-1.31-.33-2.4-.66c-.59-.07-.88-.18-.88-.33l.22-2.73a22,22,0,0,0,3.39,1q.1-.33.33-1.2a6.68,6.68,0,0,1,.22-1.09,3.9,3.9,0,0,1,.11-.77,14.28,14.28,0,0,0,.22-2.08Z"/><path d="M305.38,250.42v-2H313c-.36-.36-.91-.94-1.64-1.75.51.51.44.41-.22-.32l1.42-.22h-4.15V240.8h20.12v5.36h-4.15l1.42.22a13.87,13.87,0,0,1-1.75,2.07h7.54v2Zm.44-14.54v-2H317v-1.86h2.95v1.86h11.16v2H319.93v1.64h9.52v1.75h-22v-1.75H317v-1.64ZM308,258.19V252h21v6.24h-2.84v-.88H310.85v.88Zm2.84-4.49v1.75h15.32V253.7Zm.33-11.15v1.75h14.55v-1.75Zm5.14,5.79-.54.11h4.92c.14-.14.36-.4.65-.76q1-1.09,1.32-1.53h-8.32A19.5,19.5,0,0,1,316.32,248.34Z"/><path d="M357.78,249l1.31,2.74c.14.14.14.25,0,.32l-.77.77q-4.05,4.59-7.33,4.48h-.43a3.75,3.75,0,0,1-3.07-1.86,7.69,7.69,0,0,1-.87-3.61c-.07-.51-.18-1.27-.33-2.29s-.15-1.68-.22-2.19-.29-.91-.65-1a4,4,0,0,0-2.08.76,7.18,7.18,0,0,0-2.08,1.75,18,18,0,0,0-3.61,6.13l-.44.87a4.36,4.36,0,0,1-.43,1l-2.85-.77a65.84,65.84,0,0,1,5-10.39q1.53-2.73,2.3-4.16l1.31-2.29c.37-.66.66-1.17.88-1.53.07-.15.14-.33.22-.55a12.83,12.83,0,0,0,1.53-3.94h.43l3.72,1.75v.33a25,25,0,0,0-3.61,4.26,37.4,37.4,0,0,0-2.29,3.94,13,13,0,0,0-1.32,2.08,1.57,1.57,0,0,1,.33-.22c.66-.36,1.13-.62,1.42-.76,2.26-.95,3.8-.73,4.6.65a5.29,5.29,0,0,1,.65,2.08v.22a12.64,12.64,0,0,0,.11,1.42c.08,1.31.15,2.3.22,2.95a2.85,2.85,0,0,0,1.1,2.19,1.89,1.89,0,0,0,2.29,0,16,16,0,0,0,4.27-4.37A9,9,0,0,1,357.78,249Z"/><path d="M361,238.5h.65a14.59,14.59,0,0,0,3.28-.55l1.32-.32c1.38-.37,2.73-.7,4-1q3.61-.87,7.11-1.53a22.51,22.51,0,0,0,4.38-1,3.3,3.3,0,0,0,.33,1.2,3.75,3.75,0,0,1,.22,1.64l-1.54.33a7.6,7.6,0,0,0-3.71,1.2,8.66,8.66,0,0,0-3.18,4.7,15.79,15.79,0,0,0-.65,3.83v.66a5.73,5.73,0,0,0,1.64,4.26,6.33,6.33,0,0,0,4.26,1.64h.55a7.48,7.48,0,0,0,1.75-.21v3.28h-.87a13,13,0,0,1-6.9-1.86,8.66,8.66,0,0,1-3.28-6.89v-.55q0-4.26,3.39-9-4.37,1.1-8.75,2.41a3.89,3.89,0,0,1-.76.22,3.06,3.06,0,0,0-1.53.87L361,238.83ZM381.07,240l1.53-1.42c.22.22.51.55.88,1a18.56,18.56,0,0,1,1.75,2l-1.53,1.32A17.48,17.48,0,0,0,381.07,240Zm3-2.19,1.53-1.31a19.27,19.27,0,0,1,2.51,2.85l-1.64,1.31A23.49,23.49,0,0,0,384,237.84Z"/><path d="M399.56,232.38H400l3.18.87v.22a1.64,1.64,0,0,0-.55.87l-.33.66c-.29.95-.55,1.93-.76,2.95a.84.84,0,0,1-.11.33c-.08.22-.15.4-.22.55h2.08a10.75,10.75,0,0,0,1.85-.22,3.26,3.26,0,0,1,.66-.11l-.55,2.74a.44.44,0,0,1-.32.1h-4.27c-.07.52-.15,1.21-.22,2.08-.15,1-.25,1.83-.33,2.41a18.31,18.31,0,0,0,5.25.11v.44l-.43,2.18a.44.44,0,0,1-.33.11h-2.3c-.8,0-1.64,0-2.51-.11v.77a2.89,2.89,0,0,0-.11.76v1.1a4.07,4.07,0,0,0,1.09,2.84,3.91,3.91,0,0,0,2.52,1h.65a4.69,4.69,0,0,0,3.17-1.1,4.48,4.48,0,0,0,1.1-2.95v-.44c0-1.24-.7-2.95-2.08-5.14a3.25,3.25,0,0,0-.33-.55l3.17-.21a9.47,9.47,0,0,1,2.41,6.12v.55a6.33,6.33,0,0,1-2.3,4.81,6.76,6.76,0,0,1-4.81,1.64h-.66a6.85,6.85,0,0,1-4.7-1.86q-1.75-1.42-1.75-4.92v-1.09a14.55,14.55,0,0,1,.11-1.75,17.5,17.5,0,0,0-1.75-.55,12.34,12.34,0,0,0-1.86-.55l.22-2.73a15.69,15.69,0,0,0,3.72,1.09v-.55a15.14,15.14,0,0,0,.44-2c.14-.81.25-1.43.32-1.86q-1.31-.33-2.4-.66c-.59-.07-.88-.18-.88-.33l.22-2.73a22,22,0,0,0,3.39,1q.1-.33.33-1.2a6.68,6.68,0,0,1,.22-1.09,3.9,3.9,0,0,1,.11-.77,14.28,14.28,0,0,0,.22-2.08Z"/><path d="M422,238.17l3.06.66a43.77,43.77,0,0,0-1,8.2c2.69-2.19,5.32-3.28,7.87-3.28h.77a9.29,9.29,0,0,1,4.92,1.2,5.58,5.58,0,0,1,2.3,4.16v.55a6.56,6.56,0,0,1-2.3,4.81,16.34,16.34,0,0,1-5,2.41,5.51,5.51,0,0,1-2.63.65l-1.42-2.4V255a37,37,0,0,0,4.38-1q3.7-1.53,3.71-3.94v-.43c-.14-2-1.49-3.07-4-3.28h-.44a11.84,11.84,0,0,0-4.37,1.09,7.35,7.35,0,0,0-3.5,3.5l-3.18-1.09c.08-.59.18-1.5.33-2.74.37-3.43.55-6,.55-7.76Zm2.3-3.83,1.85-2.07a5.23,5.23,0,0,1,.88.43,36.9,36.9,0,0,1,4.81,2.41v.22l-1.86,2A30.86,30.86,0,0,0,424.28,234.34Z"/><path d="M449.54,241.34h.55a30.88,30.88,0,0,0,5.79-.54,11.43,11.43,0,0,0,3.72-.77,1.17,1.17,0,0,0,.66-.44h.22l2.51,1.54c.15.07.19.21.11.43v.11a18.17,18.17,0,0,0-3.5,3.72L458.29,247h.77a3.33,3.33,0,0,1,2.07.66,4.46,4.46,0,0,1,.77,2.19,6.5,6.5,0,0,1,.22,1,12.55,12.55,0,0,0,.44,2,1.65,1.65,0,0,0,1.53,1.42h1.31a16.16,16.16,0,0,0,3.94-.55v3a31.45,31.45,0,0,1-3.5.22h-2.3a3.46,3.46,0,0,1-3.06-1.43,9.47,9.47,0,0,1-1.1-3.28,1.78,1.78,0,0,0-.1-.54,8.59,8.59,0,0,0-.22-1.1,1.63,1.63,0,0,0-1.43-1,3.06,3.06,0,0,0-2.29,1.31,58.56,58.56,0,0,0-4.71,6h-.21a20.45,20.45,0,0,0-2.74-1.75V255a87.81,87.81,0,0,0,7.66-8.43,19.49,19.49,0,0,0,2.62-3.71l-.11-.22a11.71,11.71,0,0,1-3.28.87,13.17,13.17,0,0,0-2.51.66,1,1,0,0,0-.55.22c-.22.22-.4.29-.55.22Zm7-8.75h.22a35.79,35.79,0,0,0,5.36,2.52,1.17,1.17,0,0,0,.33.22.74.74,0,0,1,.54.33l-.87,2.29-.33.11a34.63,34.63,0,0,1-6.45-3.06v-.22Z"/><path d="M485.85,233l3.39.33.11.11a5,5,0,0,0-.43.87,1.34,1.34,0,0,1-.22.44v.44c-.08.58-.15,1.24-.22,2,.8-.07,1.93-.22,3.39-.44a10,10,0,0,0,1.42-.22l-.22,2.52a28.07,28.07,0,0,1-4.59.54,10.25,10.25,0,0,1,.11,1.75c.07.73.11,1.32.11,1.75h.22a21.79,21.79,0,0,0,4.81-.76l-.44,2.51a18.16,18.16,0,0,1-4.37.77c.07,1.68.18,3.43.32,5.25a19.1,19.1,0,0,1,6.13,3.39l-1.31,2a18.12,18.12,0,0,0-4.71-2.52,3.52,3.52,0,0,1-2.18,3.18,7.32,7.32,0,0,1-3.39.65h-1a5.48,5.48,0,0,1-4.05-1.42,3.06,3.06,0,0,1-.87-3.61,4.45,4.45,0,0,1,2.08-1.75,11.06,11.06,0,0,1,3.72-.66h1.09a9.9,9.9,0,0,1,1.64.22c-.44-.14-.37-.14.22,0a28.21,28.21,0,0,0-.22-2.95c-.07-.66-.11-1.17-.11-1.53H484a34.51,34.51,0,0,1-3.93-.22l-.22-.11-.55-2.41v-.21c.29.07.66.14,1.09.21a20,20,0,0,0,3.07.33h2.73c0-1.09,0-2.37-.11-3.83h-.65c-1.9,0-3.72-.07-5.47-.21l-.22-.11-.66-2.52a15,15,0,0,1,2.19.22,25.06,25.06,0,0,0,2.73.22h2.08V236A23.71,23.71,0,0,0,485.85,233Zm-2.4,19.14h-.66c-1.68.15-2.55.77-2.62,1.86.07.44.43.77,1.09,1a13.82,13.82,0,0,0,1.64.11h.66a4.77,4.77,0,0,0,2.4-.44,2.2,2.2,0,0,0,.77-1.75v-.44a9.59,9.59,0,0,1-1.1-.11A19.16,19.16,0,0,0,483.45,252.17Z"/><path d="M506.53,233.25h.21l3.5.66a13.91,13.91,0,0,1-.32,1.42v15.09a5.06,5.06,0,0,0,.65,3,3,3,0,0,0,2.3,1.09h.66a4.1,4.1,0,0,0,1.85-.44,11.19,11.19,0,0,0,2.52-1.2,11.91,11.91,0,0,0,3.06-2.74h.22l1.31,2.52c.15.15.15.22,0,.22a13.55,13.55,0,0,1-4.59,3.28,9.84,9.84,0,0,1-4.81,1.2h-.33a6.36,6.36,0,0,1-3.61-1.09,4.32,4.32,0,0,1-2.19-3.17c-.07-1-.11-2.08-.11-3.17V235.55a5.73,5.73,0,0,0-.22-1.31A6.75,6.75,0,0,1,506.53,233.25Z"/><path d="M539.23,232.92h.22l3.28.88v.33a2.61,2.61,0,0,0-1.1,1.75,11,11,0,0,0-.65,1.86,3.19,3.19,0,0,1-.22.65l3.61-.65a3.89,3.89,0,0,0,.76-.22l.22.11v2.84q-2.62.43-5.25.66a2.65,2.65,0,0,1-.11.54c.08-.14,0-.07-.11.22a63.44,63.44,0,0,1-5.79,15l-3-.88-.1-.22a88.89,88.89,0,0,0,6.34-14.54,17.42,17.42,0,0,1-2.19.1c-.95.08-1.68.11-2.19.11l-.21-.11-.44-2.62.11-.22c.29,0,.76,0,1.42.11a12.31,12.31,0,0,0,1.31.11h.88c.65,0,1.35,0,2.07-.11a2.78,2.78,0,0,0,.22-.66,17,17,0,0,0,.88-4.37ZM554,253.05l-.32,3.06a28.34,28.34,0,0,1-3.61.22H549a22.33,22.33,0,0,1-4.81-.55,2,2,0,0,1-.44-.11c-.51,0-.84-.11-1-.33l-.11-2.51a7.15,7.15,0,0,0,1,.22,29.52,29.52,0,0,0,4.82.54H549A23.83,23.83,0,0,0,554,253.05Zm-6.34-10.72h1c1.17,0,2.41,0,3.72.11l.11,2.95-.11.11a24.17,24.17,0,0,0-4.7-.66h-1.09a9,9,0,0,0-2.41.33l.44-2.73H546C546.74,242.37,547.28,242.33,547.65,242.33Z"/><path d="M560.56,253.38a4.39,4.39,0,0,1,4.48-4.49q4.05.33,4.38,4.49c-.3,2.47-1.75,3.86-4.38,4.15Q561,257.2,560.56,253.38Zm1.75,0q.21,2.18,2.73,2.4a2.54,2.54,0,0,0,2.63-2.4,2.68,2.68,0,1,0-5.36,0Z"/><path d="M103.7,297.66l-.33-1.1c-.51,0-1.35,0-2.52.11s-1.93.15-2.51.22a16.87,16.87,0,0,0-2,.33l-.88-2.3a8,8,0,0,0,1.86-1.75,26.15,26.15,0,0,0,2.63-3.5h-1.2a10.36,10.36,0,0,1-1.32.11,5,5,0,0,0-.76.11,2.55,2.55,0,0,0-.77.11l-.76-2.19a13.85,13.85,0,0,0,1.42-1.64,41.39,41.39,0,0,0,3.61-6.23l2.62.87q-2.07,3.39-4.59,6.78c1.31,0,2.37,0,3.17-.1a5,5,0,0,1,.55-.77c.36-.51.87-1.31,1.53-2.41l2.3,1.21c-3,4.23-5.29,7.29-6.9,9.18l3.72-.21a7.37,7.37,0,0,0-.65-1.65,4.13,4.13,0,0,0-.22-.76l2-.66q1,2.19,2.18,5.47Zm-6.35,7.76-2.18-.22q.64-3.17,1.2-6.56l2.08.22C98.16,301.27,97.79,303.45,97.35,305.42Zm2.52-.54c0-.22,0-.62-.11-1.21-.07-2-.18-3.64-.33-4.81l2-.11q.43,3,.66,5.91Zm4.37-.66q-.54-2.4-1.53-5.58l1.75-.44A17.5,17.5,0,0,1,105,300q.33.89,1.2,3.72Zm2.85-10.83a8.15,8.15,0,0,0-1.21-1.42c-.29-.36-.51-.62-.65-.77q4.69-2.62,4.59-7.32h-3.61v-2.63h14.44q0,3.28-.22,6.78c-.07,2.85-1.46,4.23-4.15,4.16-.66.07-1.79.11-3.4.11-.07-.29-.18-.77-.32-1.42s-.15-1-.22-1.32c.94.08,2,.11,3.17.11,1.46,0,2.19-.76,2.19-2.29,0-.44,0-1.06.11-1.86v-1.64h-5.25Q112.77,290,107.09,293.39Zm0,12.69V294.16h13.34v11.92h-2.84v-1.53h-7.77v1.53Zm2.73-9.3v5.36h7.77v-5.36Z"/><path d="M148,293.28a32,32,0,0,1-11.37-9.51,41.21,41.21,0,0,1-11.7,9.84,20.92,20.92,0,0,1-1.43-2.19c-.14-.22-.25-.4-.32-.54a31.3,31.3,0,0,0,12.25-10.83l3.5.22a7.44,7.44,0,0,1-.66,1.09,28,28,0,0,0,11.59,9.08C149.42,291,148.8,292,148,293.28Zm-20.56,13.13-1.09-1.1c-.59-.51-1-.91-1.31-1.2q5.13-2.73,4.81-9.52c.07-.65.11-1.78.11-3.39H133v1.32c-.07.94-.11,1.64-.11,2.07C133.12,299.92,131.3,303.85,127.43,306.41Zm12.36-.44V291.09h3.06V306Z"/><path d="M153,292.3l-2-.66a44.12,44.12,0,0,0,1.42-9.19l2.08.22c-.08.44-.15,1.06-.22,1.86a7.37,7.37,0,0,0-.22,1.53h1.75v-6h2.73v6H161v2.52H158.6v5.25l2.41-.66c0,1.1,0,2,.11,2.74l-2.52.76v9.52h-2.73v-8.86c-1.39.44-2.84.87-4.38,1.31l-.21-3.06a6.5,6.5,0,0,1,1-.22c.8-.15,2-.44,3.61-.87v-5.91h-2.08C153.57,289.89,153.32,291.13,153,292.3Zm9.51-6.46v-2.51H168v-3.28h2.84v3.28h5.69v2.51h-5.69V289h6.78v2.51H161.45V289H168v-3.18ZM161.67,297v-2.51h9.84v-2.08h2.84v2.08h3.18V297h-3.18v5.47q.12,3.39-3.39,3.39c-1.31.07-2.59.11-3.83.11-.07-.44-.18-1.06-.32-1.86a8,8,0,0,0-.22-1c.65.07,1.67.11,3.06.11s1.93-.44,1.86-1.54V297Zm4,5.69a26.49,26.49,0,0,0-3.28-3.72l1.86-1.53a42.4,42.4,0,0,1,3.61,3.61Z"/><path d="M179.6,299.84v-2.51h2.19V283.22H188v-3.17h2.73v3.17h3.5v-3.17H197v3.17h6.24v14.11h2.19v2.51Zm1.32,6.35-.33-.66a9.59,9.59,0,0,0-.77-1.86,66.5,66.5,0,0,0,9.08-3.28l1.31,2.41Q185,304.77,180.92,306.19Zm3.61-20.45v4.59H188v-4.59Zm0,7v4.59H188v-4.59Zm6.23-7v4.59h3.5v-4.59Zm0,7v4.59h3.5v-4.59Zm13.34,13.45a76.06,76.06,0,0,0-9.51-3.39l1.09-2.3c1.46.51,3.46,1.17,6,2,1.53.44,2.69.8,3.5,1.09Zm-3.61-20.45H197v4.59h3.5Zm-3.5,7v4.59h3.5v-4.59Z"/><path d="M211,281.25h.33l3,1.09a7,7,0,0,1-.66,1.75l-.33.66a34.85,34.85,0,0,0-1.42,4.7,24.19,24.19,0,0,0-.66,4.6v1a20,20,0,0,0,.77,5.14h.22c.14-.29.36-.69.65-1.2a6.62,6.62,0,0,1,.55-1.09h.22l.87.87V299c-.43,1.9-.8,3.68-1.09,5.36l-2.41.55a18.48,18.48,0,0,1-2.29-9.63v-1.64a24.61,24.61,0,0,1,.87-5.58c.07-.36.22-.91.44-1.64a16.61,16.61,0,0,0,1-4.7Zm11.71.55,3.83.54c-.15,1.68-.22,3.5-.22,5.47v-.11c1.53-.14,3.06-.36,4.59-.65v2.62c-1.46.29-3,.51-4.48.66q.11,8.21.11,7.87l2.51,1c.15.14.26.22.33.22a14.59,14.59,0,0,1,2.95,2l-1.75,2.07h-.33c-.58-.43-1.2-.87-1.86-1.31-.29-.14-.69-.36-1.2-.65s-.62-.37-.76-.44a4.52,4.52,0,0,1-1.21,2.19,5.28,5.28,0,0,1-4,1.64h-.55a6.53,6.53,0,0,1-3.28-.88,3.43,3.43,0,0,1-1.64-2.84v-.44a3.51,3.51,0,0,1,1.64-2.63,5.81,5.81,0,0,1,3.28-.87h.55a16.14,16.14,0,0,1,2.73.22c0-.44,0-1.13-.11-2.08-.15-1.82-.22-3.21-.22-4.16v-.65h-2.29c-1.54-.07-3.1-.22-4.71-.44l-.33-2.73a7.93,7.93,0,0,1,1.54.21,40.69,40.69,0,0,0,4.37.33h1.31c-.07-1.89-.14-3.21-.22-3.93v-.22A3,3,0,0,0,222.7,281.8ZM221,299.63h-.55c-1.09,0-1.79.18-2.08.54-.51.66-.29,1.32.66,2a4,4,0,0,0,4.05-.44,2.21,2.21,0,0,0,.76-1.53A7.37,7.37,0,0,0,221,299.63Z"/><path d="M235.82,290v-2.95h11.05c.07-1.61.11-3.9.11-6.89h3.28l-.22,6.89h11V290H250.15q1.42,9.4,11.48,13a14,14,0,0,0-2.07,2.73q-9.09-3.93-11.05-11.59-1.75,7.44-11,11.92c-.22-.29-.62-.84-1.2-1.64a13.93,13.93,0,0,1-.88-1.1Q245.88,299,246.54,290Z"/><path d="M265,306a27.66,27.66,0,0,1-2-2.19,22.14,22.14,0,0,0,4.92-4.7q-1.2-1-3.5-3.06l-.33-.33q.54-2.29,1.64-7.77h-2.3v-2.73h2.74c.22-1.75.44-3.46.65-5.14l3,.22c-.08.58-.22,1.49-.44,2.73q-.22,1.53-.33,2.19h4.6v2.73q-.45,7-2.3,10.5c1.46,1.24,2.84,2.41,4.16,3.5l-2.19,2c-.37-.36-1-.91-1.86-1.64-.66-.58-1.17-1-1.53-1.31A28.53,28.53,0,0,1,265,306Zm2.07-11.05,2.19,1.75a26.31,26.31,0,0,0,1.75-8.75h-2.41c-.21.95-.51,2.3-.87,4.05C267.47,293.28,267.25,294.27,267.1,294.92Zm7.55-.33v-2.73H281v-3.28l4.38-4.38h-9.74v-2.73H289v2.95l-4.92,5v2.41h5.68v2.73h-5.68v7.55q.1,3.62-3.72,3.61h-3.61a4.8,4.8,0,0,0-.11-.76c-.22-1-.37-1.68-.44-2h3.06c1.24,0,1.83-.59,1.75-1.75v-6.68Z"/><path d="M308.88,282.67h.22a7.57,7.57,0,0,1,1,2.3,12,12,0,0,1-2.63,1.09q-.54.22-.87.33a10.4,10.4,0,0,1,.87,1.53,15.46,15.46,0,0,1,.77,1.53c.44-.14,1.09-.4,2-.76l2-.66h.32l1,2-.11.33-1.2.33a12.52,12.52,0,0,1-1.32.43,4.44,4.44,0,0,1-1.42.44,2.55,2.55,0,0,1,.33.66,47.09,47.09,0,0,0,3.06,4.26.31.31,0,0,0,.11.22,1.65,1.65,0,0,1,.44.88L311,299.84a15.63,15.63,0,0,0-8.75-2.29h-.65a5,5,0,0,0-2.3.44,2,2,0,0,0-1,2.4q.11.44,1.2,1.2a5.35,5.35,0,0,0,2.51.88,16.69,16.69,0,0,0,3.29.33h.54a8.17,8.17,0,0,0,1.31-.11l-.21,3.06h-.77q-10.17-.54-10.61-5.91v-.54a4.25,4.25,0,0,1,2.19-3.17,10,10,0,0,1,4.37-1h1.1a18.86,18.86,0,0,1,5.47,1h.11c-.15-.22-.37-.59-.66-1.1s-.69-1.42-1.42-2.73a12.16,12.16,0,0,1-2.3.44,53.86,53.86,0,0,1-6,.54l-.21-.11-1.32-2.08.11-.21h.77a35.81,35.81,0,0,0,6.23-.55,4.66,4.66,0,0,0,1.53-.22c-.43-.95-.91-2-1.42-3.06a33.5,33.5,0,0,1-4.7,1,6,6,0,0,0-.66-1,4.06,4.06,0,0,1-.43-.66,1.59,1.59,0,0,1-.44-.76h.33c1.45-.22,3-.51,4.7-.88a7.19,7.19,0,0,0-.55-1.31l-.65-1.31a.64.64,0,0,0-.22-.44,2.6,2.6,0,0,1-.11-.66l3-.54c.44,1.24.88,2.4,1.31,3.5A31.21,31.21,0,0,0,308.88,282.67Z"/><path d="M334.37,284.64v2.85a33.16,33.16,0,0,1-4.81,1.2,46.24,46.24,0,0,1-5.69,12.14h-.33l-2.51-1-.11-.21a37.59,37.59,0,0,0,5.68-10.72,30.17,30.17,0,0,1-3.61.22l-.32-3h.87a19.17,19.17,0,0,0,2.41-.11,4.09,4.09,0,0,0,.87-.11h.66a16.13,16.13,0,0,0,.76-4.7v-.66a9.39,9.39,0,0,0,1.64.44,10.57,10.57,0,0,1,1.54.44,4.26,4.26,0,0,1-.33,1.42,3.38,3.38,0,0,0-.22,1,5,5,0,0,1-.11.87,7.44,7.44,0,0,1-.22.88A22.67,22.67,0,0,0,334.37,284.64Zm.22,4.7h.22l2.51.55a8.17,8.17,0,0,1-.11,1.31c0,.95.07,2.45.22,4.49.07,1.24.11,2.19.11,2.84a24.28,24.28,0,0,1,5.8,2.52v.33l-1.1,2.4a1.91,1.91,0,0,1-1.09-.54c-.15-.15-.26-.22-.33-.22a23.68,23.68,0,0,0-3.28-1.43,4.69,4.69,0,0,1-.33,1.86,28.34,28.34,0,0,0-.76,1.1,4.7,4.7,0,0,1-3.61,1.2h-.66a4.82,4.82,0,0,1-3.72-1.42,3.31,3.31,0,0,1-.76-3.17,3.82,3.82,0,0,1,1.53-2.08,8.26,8.26,0,0,1,3.94-1h.76a4.28,4.28,0,0,1,1,.11Q334.8,293.71,334.59,289.34ZM333,300.5h-.44a2.5,2.5,0,0,0-2.19,1.09c-.29,1,.18,1.65,1.42,1.86h1c1.38-.07,2.11-.94,2.19-2.62A6.21,6.21,0,0,0,333,300.5Zm9.62-8.75h-.22a27.13,27.13,0,0,0-4.81-4.37l1.53-2.08h.22q2,1.43,3.83,3.06a2.31,2.31,0,0,1,1,1.2Z"/><path d="M357.34,289.34l-1.64-2v.11h-2.52v2.62a4.16,4.16,0,0,1,.55.33q1.09.76,2.4,1.86l-1.2,2.4-1.75-1.53v13h-2.62V293.72a34.65,34.65,0,0,1-2.85,6,8.81,8.81,0,0,1-.22-1c-.21-1.38-.4-2.37-.54-2.95a30.18,30.18,0,0,0,3.61-8.31h-3V285h3v-4.92h2.62V285h2.52v2.3a28.54,28.54,0,0,0,4.26-7.33l2.74.44a11.26,11.26,0,0,1-.88,2H373.2v2.41H360.62a4.16,4.16,0,0,1-.33.55c-.22.29-.58.8-1.09,1.53h12.58l-.11,6.45h2.07v2.3h-2.18c0,.51,0,1.24-.11,2.19v2h1.86V302h-2c-.08,2.48-1.42,3.76-4,3.83h-4.05a2.69,2.69,0,0,0-.11-.55c-.14-.29-.36-.84-.65-1.64h4c1.31.07,2-.47,2.18-1.64h-12l.66-6.45h-1.53v-2.3h1.86l.54-5-.22.22A3.28,3.28,0,0,1,357.34,289.34Zm11.48,10.4v-1.86c.07-1,.11-1.79.11-2.3h-8.86l-.44,4.16h5.15q-1.21-1.32-2.52-2.52l1.42-1.42a29.23,29.23,0,0,1,2.74,2.4l-1.54,1.54Zm.22-6.46v-4.15h-8.31l-.44,4.15Zm-4.05-.11a27.16,27.16,0,0,0-2.18-2.18c.07.14,0,.07-.33-.22l1.53-1.43a22.31,22.31,0,0,1,2.08,1.86l.54.55Z"/><path d="M379.1,293.17q-2.4-2.51-3.93-3.83l2-1.85c.44.36,1.13.94,2.08,1.75s1.53,1.42,2,1.85Zm-.65,12.69L375.6,305c.66-1.68,1.53-4.56,2.63-8.65.14-.51.25-.87.33-1.09a3.19,3.19,0,0,0,.65.22,13.5,13.5,0,0,0,2.08.77c-.29.94-.69,2.33-1.2,4.15Q379,304.11,378.45,305.86Zm1.64-19.8c-.29-.29-.73-.69-1.31-1.2-1.17-1.09-2.08-1.93-2.74-2.52l2-2c.58.43,1.42,1.16,2.52,2.18.72.59,1.27,1.06,1.64,1.43Zm2-2.4v-2.41h19.57v2.41h-6v3.17h5v19.36H398v-1.31H385.34v1.31H382.6V286.83h5.14v-3.17Zm5.36,13-.88-.87c-.44-.37-.76-.62-1-.77a6.55,6.55,0,0,0,2.4-5.9h-2.62v8.53H398v-2.08h-1.86q-3.29.1-3.18-3.06v-3.39h-2.62C390.44,292.48,389.46,295,387.42,296.67ZM385.34,300v2.74H398V300Zm5-16.29v3.17H393v-3.17Zm7.66,5.47h-2.74v2.95c-.07.95.44,1.38,1.53,1.31H398Z"/><path d="M413.23,280.38l3.5.87v.22l-.77.87c-.07.22-.22.59-.43,1.1a4.59,4.59,0,0,1-.44,1.2,19.28,19.28,0,0,0,4.37-1.09v2.95a30.6,30.6,0,0,1-5.36.88,18,18,0,0,1-1.64,3.17,8.24,8.24,0,0,1,3.07-.88H416a5,5,0,0,1,1.1.22l.22.11a4.62,4.62,0,0,1,2.18,3.39c.66-.29,1.28-.55,1.86-.76l1-.33a16,16,0,0,0,2-.77,1.55,1.55,0,0,0,.43-.33c.29-.29.51-.4.66-.32l2.3,2.62v.33a63.61,63.61,0,0,0-7.77,2.08,7.41,7.41,0,0,1,.22,1.86v.76a12.43,12.43,0,0,1-.22,1.86,7.1,7.1,0,0,0-.11,1h-2.73a8,8,0,0,1,.11-1.21V297a10.88,10.88,0,0,0-2.41,1.42c-1.39.95-1.86,2-1.42,3.07s1.53,1.53,3.72,1.53h.43a25.67,25.67,0,0,0,5.47-.77l.33,3.17a29.32,29.32,0,0,1-4.37.33h-1.64a9.57,9.57,0,0,1-4.49-1,4.08,4.08,0,0,1-2.3-3.18v-.43a6.94,6.94,0,0,1,3.18-5,13.87,13.87,0,0,1,2.18-1.21c.51-.29.91-.51,1.21-.65a2.85,2.85,0,0,0-1.21-2.19,3.62,3.62,0,0,0-2.07.22q-2.41,1.2-5.25,5.79a5.58,5.58,0,0,0-.44.66l-2.74-1.2a50.05,50.05,0,0,0,5.91-10h-3.17l-.77-2.62v-.22a13.81,13.81,0,0,0,2.3.22h2.73a1.48,1.48,0,0,0,.11-.44,8.65,8.65,0,0,0,.77-3.5Z"/><path d="M432.37,284.75l.11-.11c1.31.22,2.55.48,3.72.77a2.7,2.7,0,0,1-.22.76,4.51,4.51,0,0,0-.22,1.21,7,7,0,0,0-.11,1.31v.76a20.54,20.54,0,0,0,.44,4.6,37.41,37.41,0,0,0,1.53,4.37c.51,1.17,1.13,1.75,1.86,1.75a2.58,2.58,0,0,0,1.64-.76,9.26,9.26,0,0,0,1.75-2.08h.22l1.31,2q.23.1,0,.33a4.77,4.77,0,0,1-1.53,2,5.15,5.15,0,0,1-3.61,1.54q-2.62,0-4.16-3.39a22.48,22.48,0,0,1-.76-2.19,6.53,6.53,0,0,0-.44-1.42,57,57,0,0,1-1-6.13,9.48,9.48,0,0,0-.11-1.09,8.81,8.81,0,0,0-.22-1c0-.36,0-.91-.11-1.64A8.59,8.59,0,0,0,432.37,284.75Zm16.3,2.84,2.51-.76h.22a38,38,0,0,1,4.27,7.11,7.17,7.17,0,0,1,1,2.4L454,297.55h-.44a30.59,30.59,0,0,0-5-9.63Z"/><path d="M469.23,280.92h.22l3.28.88v.33a2.61,2.61,0,0,0-1.1,1.75,11,11,0,0,0-.65,1.86,3.19,3.19,0,0,1-.22.65l3.61-.65a3.89,3.89,0,0,0,.76-.22l.22.11v2.84q-2.62.43-5.25.66a2.65,2.65,0,0,1-.11.54c.08-.14,0-.07-.11.22a63.44,63.44,0,0,1-5.79,15l-3-.88-.1-.22a88.89,88.89,0,0,0,6.34-14.54,17.42,17.42,0,0,1-2.19.1c-.95.08-1.68.11-2.19.11l-.21-.11-.44-2.62.11-.22c.29,0,.76,0,1.42.11a12.31,12.31,0,0,0,1.31.11h.88c.65,0,1.35,0,2.07-.11a2.78,2.78,0,0,0,.22-.66,17,17,0,0,0,.88-4.37ZM484,301.05l-.32,3.06a28.34,28.34,0,0,1-3.61.22H479a22.33,22.33,0,0,1-4.81-.55,2,2,0,0,1-.44-.11c-.51,0-.84-.11-1-.33l-.11-2.51a7.15,7.15,0,0,0,1,.22,29.52,29.52,0,0,0,4.82.54H479A23.83,23.83,0,0,0,484,301.05Zm-6.34-10.72h1c1.17,0,2.41,0,3.72.11l.11,2.95-.11.11a24.17,24.17,0,0,0-4.7-.66h-1.09a9,9,0,0,0-2.41.33l.44-2.73H476C476.74,290.37,477.28,290.33,477.65,290.33Z"/><path d="M495.59,281.25H496l3.5.88v.21a2.34,2.34,0,0,0-.88,1.54l-.33,1c-.29.8-.51,1.46-.65,2,1.45-.37,2.88-.69,4.26-1l.22.11-.33,2.85c-1.6.29-3.24.51-4.92.65a87.87,87.87,0,0,1-2.84,8.43,44.55,44.55,0,0,1-3.28,7.32l-.11.11-3.29-1.2a35.55,35.55,0,0,0,4.71-9.19c.36-.8.8-2,1.31-3.5.29-.8.51-1.38.66-1.75h-3.94a.6.6,0,0,1-.44-.11l-.44-2.73c.37,0,.92,0,1.64.11s1.28.11,1.65.11h2.29a17.59,17.59,0,0,0,.77-5.14ZM504.88,302H506a12,12,0,0,0,4.48-.65l-.22,2.95a23,23,0,0,1-3.82.33h-.77a22.25,22.25,0,0,1-6.56-1.21l.44-2.4a3.89,3.89,0,0,0,.76.22A20.85,20.85,0,0,0,504.88,302Zm.11-11.48h1a15,15,0,0,1,2.19.22,9.48,9.48,0,0,0,1.09.11l-.11,2.95a18.17,18.17,0,0,0-4.16-.66h-.87a19.05,19.05,0,0,0-2.3.22,4.87,4.87,0,0,1-.87.11l.22-2.62a12.52,12.52,0,0,0,1.31-.11A22,22,0,0,1,505,290.55Zm1.43-4.6v-.21l1.42-1.32c0-.14.07-.14.22,0a12.55,12.55,0,0,1,2.51,2l.55.55-.22.22-.11.11a3.35,3.35,0,0,1-1.31,1.09c0,.07-.07.07-.22,0C508.31,287.63,507.36,286.83,506.42,286Zm2.62-2.62,1.31-1.64a4,4,0,0,1,1.43.76,2.2,2.2,0,0,0,.54.44,17.08,17.08,0,0,0,1.31,1.2v.33l-1.53,1.32c0,.07-.07.07-.22,0a14.09,14.09,0,0,0-1.42-1.21,10.26,10.26,0,0,0-1.42-1.09Z"/><path d="M532.88,282.67h.22a7.57,7.57,0,0,1,1,2.3,12,12,0,0,1-2.63,1.09q-.54.22-.87.33a10.4,10.4,0,0,1,.87,1.53,15.46,15.46,0,0,1,.77,1.53c.44-.14,1.09-.4,2-.76l2-.66h.32l1,2-.11.33-1.2.33a12.52,12.52,0,0,1-1.32.43,4.44,4.44,0,0,1-1.42.44,2.55,2.55,0,0,1,.33.66,47.09,47.09,0,0,0,3.06,4.26.31.31,0,0,0,.11.22,1.65,1.65,0,0,1,.44.88L535,299.84a15.63,15.63,0,0,0-8.75-2.29h-.65a5,5,0,0,0-2.3.44,2,2,0,0,0-1,2.4q.11.44,1.2,1.2a5.35,5.35,0,0,0,2.51.88,16.69,16.69,0,0,0,3.29.33h.54a8.17,8.17,0,0,0,1.31-.11l-.21,3.06h-.77q-10.17-.54-10.61-5.91v-.54a4.25,4.25,0,0,1,2.19-3.17,10,10,0,0,1,4.37-1h1.1a18.86,18.86,0,0,1,5.47,1h.11c-.15-.22-.37-.59-.66-1.1s-.69-1.42-1.42-2.73a12.16,12.16,0,0,1-2.3.44,53.86,53.86,0,0,1-6,.54l-.21-.11-1.32-2.08.11-.21h.77a35.81,35.81,0,0,0,6.23-.55,4.66,4.66,0,0,0,1.53-.22c-.43-.95-.91-2-1.42-3.06a33.5,33.5,0,0,1-4.7,1,6,6,0,0,0-.66-1,4.06,4.06,0,0,1-.43-.66,1.59,1.59,0,0,1-.44-.76h.33c1.45-.22,3-.51,4.7-.88a7.19,7.19,0,0,0-.55-1.31l-.65-1.31a.64.64,0,0,0-.22-.44,2.6,2.6,0,0,1-.11-.66l2.95-.54c.44,1.24.88,2.4,1.31,3.5A31.21,31.21,0,0,0,532.88,282.67Z"/><path d="M555.85,281l3.39.33.11.11a5,5,0,0,0-.43.87,1.34,1.34,0,0,1-.22.44v.44c-.08.58-.15,1.24-.22,2,.8-.07,1.93-.22,3.39-.44a10,10,0,0,0,1.42-.22l-.22,2.52a28.07,28.07,0,0,1-4.59.54,10.25,10.25,0,0,1,.11,1.75c.07.73.11,1.32.11,1.75h.22a21.79,21.79,0,0,0,4.81-.76l-.44,2.51a18.16,18.16,0,0,1-4.37.77c.07,1.68.18,3.43.32,5.25a19.1,19.1,0,0,1,6.13,3.39l-1.31,2a18.12,18.12,0,0,0-4.71-2.52,3.52,3.52,0,0,1-2.18,3.18,7.32,7.32,0,0,1-3.39.65h-1a5.48,5.48,0,0,1-4-1.42,3.06,3.06,0,0,1-.87-3.61,4.45,4.45,0,0,1,2.08-1.75,11.06,11.06,0,0,1,3.72-.66h1.09a9.9,9.9,0,0,1,1.64.22c-.44-.14-.37-.14.22,0a28.21,28.21,0,0,0-.22-2.95c-.07-.66-.11-1.17-.11-1.53H554a34.51,34.51,0,0,1-3.93-.22l-.22-.11-.55-2.41v-.21c.29.07.66.14,1.09.21a20,20,0,0,0,3.07.33h2.73c0-1.09,0-2.37-.11-3.83h-.65c-1.9,0-3.72-.07-5.47-.21l-.22-.11-.66-2.52a15,15,0,0,1,2.19.22,25.06,25.06,0,0,0,2.73.22h2.08V284A23.71,23.71,0,0,0,555.85,281Zm-2.4,19.14h-.66c-1.68.15-2.55.77-2.62,1.86.07.44.43.77,1.09,1a13.82,13.82,0,0,0,1.64.11h.66a4.77,4.77,0,0,0,2.4-.44,2.2,2.2,0,0,0,.77-1.75v-.44a9.59,9.59,0,0,1-1.1-.11A19.16,19.16,0,0,0,553.45,300.17Z"/><path d="M576.53,281.25h.21l3.5.66a13.91,13.91,0,0,1-.32,1.42v15.09a5.06,5.06,0,0,0,.65,3,3,3,0,0,0,2.3,1.09h.66a4.1,4.1,0,0,0,1.85-.44,11.19,11.19,0,0,0,2.52-1.2,11.91,11.91,0,0,0,3.06-2.74h.22l1.31,2.52c.15.15.15.22,0,.22a13.55,13.55,0,0,1-4.59,3.28,9.84,9.84,0,0,1-4.81,1.2h-.33a6.36,6.36,0,0,1-3.61-1.09,4.32,4.32,0,0,1-2.19-3.17c-.07-1-.11-2.08-.11-3.17V283.55a5.73,5.73,0,0,0-.22-1.31A6.75,6.75,0,0,1,576.53,281.25Z"/><path d="M609.23,280.92h.22l3.28.88v.33a2.61,2.61,0,0,0-1.1,1.75,11,11,0,0,0-.65,1.86,3.19,3.19,0,0,1-.22.65l3.61-.65a3.89,3.89,0,0,0,.76-.22l.22.11v2.84q-2.62.43-5.25.66a2.65,2.65,0,0,1-.11.54c.08-.14,0-.07-.11.22a63.44,63.44,0,0,1-5.79,15l-3-.88-.1-.22a88.89,88.89,0,0,0,6.34-14.54,17.42,17.42,0,0,1-2.19.1c-.95.08-1.68.11-2.19.11l-.21-.11-.44-2.62.11-.22c.29,0,.76,0,1.42.11a12.31,12.31,0,0,0,1.31.11h.88c.65,0,1.35,0,2.07-.11a2.78,2.78,0,0,0,.22-.66,17,17,0,0,0,.88-4.37ZM624,301.05l-.32,3.06a28.34,28.34,0,0,1-3.61.22H619a22.33,22.33,0,0,1-4.81-.55,2,2,0,0,1-.44-.11c-.51,0-.84-.11-1-.33l-.11-2.51a7.15,7.15,0,0,0,1,.22,29.52,29.52,0,0,0,4.82.54H619A23.83,23.83,0,0,0,624,301.05Zm-6.34-10.72h1c1.17,0,2.41,0,3.72.11l.11,2.95-.11.11a24.17,24.17,0,0,0-4.7-.66h-1.09a9,9,0,0,0-2.41.33l.44-2.73H616C616.74,290.37,617.28,290.33,617.65,290.33Z"/><path d="M630.56,301.38a4.39,4.39,0,0,1,4.48-4.49q4.05.33,4.38,4.49c-.3,2.47-1.75,3.86-4.38,4.15Q631,305.2,630.56,301.38Zm1.75,0c.14,1.45,1.05,2.26,2.73,2.4a2.53,2.53,0,0,0,2.63-2.4,2.68,2.68,0,1,0-5.36,0Z"/></g></g></svg>