<svg xmlns="http://www.w3.org/2000/svg" viewBox="0 0 759.89 428.94"><defs><style>.cls-1{fill:#fff;}</style></defs><g id="レイヤー_2" data-name="レイヤー 2"><g id="_4" data-name="4"><path class="cls-1" d="M638.78,422.23c-4.9-1.9-12.1-10.7-16.6-14.1-4.3-3.2-9.3-6.3-12.8-10.4a62.77,62.77,0,0,1-8.8-14.1,47.08,47.08,0,0,1-4.6-16,35,35,0,0,1,3.5-16.3,39.23,39.23,0,0,1,10.1-13.1c4-3.4,9.5-5.9,15-8.7,4.8-2.5,10.5-3.9,16.1-6.2,5.1-2.1,10.2-4.9,15.7-7.1,5.2-2.1,10.6-4.3,16-6.5s10.9-3.8,16.1-6.4,9.8-6.1,14.8-9.1a150.6,150.6,0,0,0,14.2-9.9c4.5-3.5,8.3-7.8,12.3-12.1,3.9-4.1,8.1-8,11.3-13,3-4.7,5-10.1,7.3-15.6a107.32,107.32,0,0,0,5.1-16.3c1.3-5.3,3.3-10.8,3.9-16.8a155.72,155.72,0,0,0,1.1-17.3,164.18,164.18,0,0,0-1.7-17.2,158.89,158.89,0,0,0-3-17c-1.3-5.6-3.5-10.9-5.4-16.3s-2.3-11.5-4.8-16.7a150.39,150.39,0,0,0-8.6-15.1c-3-4.8-6.8-9.2-10.4-13.8a170,170,0,0,0-11.1-13.3c-4-4-8.9-7.1-13.4-10.9-4.3-3.6-8.2-8.1-13-11.5-4.6-3.2-10-5.5-15.1-8.4-4.8-2.8-10.2-4.9-15.5-7.5-5-2.5-10-5.3-15.4-7.6-5.2-2.2-10.1-5.3-15.7-7.3-5.3-1.9-11.2-2.4-16.8-4.2-5.4-1.6-11-2.8-16.7-4.3-5.5-1.4-10.6-4.6-16.3-5.8-5.5-1.2-11.3-1.4-17.1-2.5-5.5-1-11.3-1.1-17.1-1.9-5.6-.8-11.1-3.3-16.9-4-5.6-.7-11.4-.9-17.2-1.4-5.6-.5-11.4-.7-17.2-1-5.6-.4-11.4.2-17.3-.1-5.7-.2-11.4-.9-17.2-1s-11.4-.5-17.2-.5-11.4-.3-17.3-.2c-5.7.1-11.4.9-17,1.1s-11.4-.1-17,0-11.4,1.4-17,1.5-11.4-.6-17.1-.4-11.3,1.3-17,1.5-11.4-.1-17,.2-11.4-.3-17.1.1-11.4.7-17,1.1-11.4.8-17,1.3-11.4,1.2-17,1.8-11.4,1.2-16.9,1.9c-5.7.7-11.3,1.9-16.8,2.7-5.7.8-11.3,1.8-16.8,2.7-5.7,1-11.2,2.3-16.7,3.4s-11,3.3-16.4,4.6c-5.6,1.3-11.2,2.4-16.6,3.8-5.6,1.5-10.9,3.3-16.3,5s-11,3.3-16.2,5.2c-5.4,2-11,3.4-16.1,5.6q-8,3.6-15.3,7.5c-5.1,2.7-9.1,7-13.8,10s-10.3,5.2-14.7,8.7a153.81,153.81,0,0,0-12.7,11.4,135,135,0,0,0-11.1,12.9c-3.6,4.4-7.7,8.5-10.7,13.3s-5.2,10.1-7.6,15.3a152.45,152.45,0,0,0-5.7,16.1c-1.7,5.3-2.5,10.9-3.6,16.6a168.88,168.88,0,0,0-2.6,16.8c-.6,5.5-2.5,11.1-2.6,16.9s1.5,11.4,2,16.9c.5,5.8.5,11.5,1.6,16.9a119.54,119.54,0,0,0,4.5,16.4c1.9,5.4,5.3,10,7.9,15s4.7,10.3,7.9,14.9a125.85,125.85,0,0,0,23.2,24.4c4.2,3.7,7.8,8.2,12.4,11.5s9.8,5.5,14.7,8.4,9.7,5.6,14.8,8.1,10.1,4.9,15.4,7.1,10.1,4.9,15.5,6.8,11,2.7,16.4,4.3,10.6,3.9,16.1,5.3,11.2,1.8,16.7,2.9,11,2.7,16.5,3.7,11.1,2.1,16.7,2.9,11.2,1.6,16.8,2.2,11.4-.2,17,.3,11.2,2.5,16.8,2.9,11.4,0,17,.3,11.4,1.1,16.9,1.2c5.7.1,11.4-1.5,17-1.5,5.8,0,11.4,1.1,16.9,1,5.8-.1,11.5,0,17-.2,5.9-.3,11.4-2.2,16.8-2.6,6.3-.4,12.3-.4,18-.7,6.3-.4,12.4-.6,18-.9,6.4-.3,12.4.1,18.1,0,6.5-.2,12.5.3,18,.3,6.6,0,12.6-.3,18-.1,6.8.3,12.6,1.2,17.9,1.9a98.63,98.63,0,0,1,17.5,3.7,59.06,59.06,0,0,1,15.9,7.9c4.7,3.3,9.9,6.1,14.6,10.6a75.74,75.74,0,0,0,14,10.7,145.62,145.62,0,0,0,15.8,8c5.3,2.3,10.6,5,16.4,7,5.6,1.9,11.5,3,17.2,4.5s11.6,3.1,17.3,4.2c6.1,1.2,12,1.9,17.6,2.6,6.5.8,12.4,1.8,17.6,1.8C648,423.73,651.88,427.33,638.78,422.23Z"/><path d="M637.18,426.23c-5.6-2.7-9.6-7.9-14.2-12-5-4.5-11-7.6-15.5-12.8-9-10.3-15.5-25.4-12.8-39.2,2.5-12.6,9.9-24.5,21-31.3a119.26,119.26,0,0,1,21.5-9.8c8.2-2.9,15.9-7,23.9-10.3,7.3-2.9,14.5-5.9,21.9-8.7,8.3-3.1,15.3-7.9,22.7-12.6a103.78,103.78,0,0,0,19.9-15.6c7.4-7.6,15.1-15,19.3-24.9,7.3-17.1,12.6-36.3,11.6-55.1a181,181,0,0,0-2.7-22c-1.7-9.7-5.2-18.4-7.9-27.8-2.1-7.5-3.6-14-7.5-20.9-4.5-8-9.9-15.1-15.6-22.3-5.1-6.4-9.9-12.7-16.4-17.8-7.1-5.6-13.5-12.4-20.9-17.6-13.1-9.2-29.2-15.9-43.7-22.6-7-3.2-13.9-7.3-21.5-9.4-8.3-2.2-16.8-4.1-25.1-6.2-7.6-1.9-14.7-5.7-22.4-7.2a245.72,245.72,0,0,0-25.6-3.4c-8-.8-15.2-3.3-23.1-4.6-8.4-1.4-17.2-1.7-25.7-2.1-16.4-.9-32.8-1.2-49.3-1.7s-32.7.4-49.1.6c-8.9.1-17.5.3-26.4,1.2-7.4.7-14.8-.3-22.2,0-8.2.3-16.1,1.6-24.3,1.6s-16.3-.1-24.3.1c-33.1.8-66.3,5.4-98.9,10.9-32,5.4-63.1,15.2-93.9,25.3a133.18,133.18,0,0,0-22.3,9.7c-6.9,3.7-12.4,9.2-19.1,13a100.08,100.08,0,0,0-20.3,14.5c-6.7,6.3-12.1,13.5-18.1,20.4-12.4,14.2-17.9,32.5-21.4,50.7-1.5,7.5-2.2,15.2-3.6,22.7-1,5.4-2,10.1-1.4,15.5.5,4.4,1.5,8.8,1.8,13.2.7,8.5,1.4,16.4,3.7,24.7,2.5,8.8,7.1,16,11.1,24,3.3,6.6,6.5,12.7,11.3,18.5,6.2,7.5,13.3,13.4,20.3,20,5.5,5.2,10.2,9.9,16.8,13.6,7.8,4.3,15.4,8.8,23.4,12.8a234.39,234.39,0,0,0,45,17.5c7,1.9,13.7,4.9,20.8,6.4,8.7,1.8,17.4,3.3,26.1,5.2,16.6,3.6,33.5,6.1,50.4,6.1,7.9,0,15.2,2.7,23,3.1,9.2.5,18.4.5,27.7,1.2,7.8.6,15.3-1.4,23-1.2,8.5.1,17,.9,25.5.9,8.2,0,15.7-2,23.8-2.7,8.7-.7,17.5-.7,26.2-1.2,17.2-.8,34.4,0,51.7-.2,15.3-.2,31.2.6,46,5,14.5,4.3,25.7,13.9,37.1,23.3,12.2,10,28.8,17.7,43.9,22.3a302.19,302.19,0,0,0,49.6,10.6c11.9,1.5,23.9,1.7,35.8,3.4-1.1,2.6-2.1,5.3-3.2,7.9-1.1-1.3-5.8-2.1-7.4-2.7s1.6-8.5,3.2-7.9c1.8.7,6.3,1.3,7.6,2.7s-1.3,8.2-3.2,7.9c-12.7-1.9-25.5-2.1-38.2-3.7-17.3-2.2-35.7-5.8-52.1-12-14.9-5.6-30.3-12.7-42.2-23.4-11.4-10.3-24.8-18.9-40-22.1-16.4-3.5-32.4-3-49-3.4-17.7-.4-35.3,0-53,.8-17.4.8-34.3,3.9-51.7,3.4-4-.1-8.1-.8-12.1-.9-4.8-.1-9.4.7-14.2,1.2-7.4.7-14.7-.6-22.2-1-9.1-.4-17.6-.1-26.5-1.9s-17.9-.8-27-1.8c-17.6-2-34.6-6.4-52-9.3a129.75,129.75,0,0,1-22.3-5.5c-8-2.8-16.5-4-24.4-7-15.8-6.2-30.8-14.2-45.5-22.3C44.08,304.43,22,278.63,9,249c-6.5-14.8-7.2-32.1-8.8-48-.8-7.8,1.3-14.9,2.4-22.6,1.1-8,2.4-15.8,3.9-23.7,5.9-30.9,22.4-57.3,45.5-78.4a93.06,93.06,0,0,1,18.3-12.9c6.5-3.6,11.7-8.8,18.1-12.5,14.8-8.5,31.4-13.2,47.6-18.4,63.1-20,129.7-28.9,195.8-28.7,8.2,0,16.2-1.5,24.3-1.6,9.3-.2,18.3.2,27.6-.8,7.4-.7,14.8-.2,22.3-.4,9-.2,17.9-1.2,26.9-1,16.8.3,33.7,1.8,50.5,1.6,7.8-.1,15.6.4,23.4.9,9,.7,18.2.9,26.9,3.2,16.6,4.4,34.8,2.9,50.9,9.2,7.8,3,15.5,4.9,23.6,7.1,7.9,2.2,16.2,3.3,23.7,6.8,15.7,7.1,31.2,14.8,46.4,22.9a91.56,91.56,0,0,1,19.9,14.2c6.7,6.1,14.4,10.9,20.4,17.8,10.1,11.6,20.7,24.5,27,38.7,3.3,7.5,4.6,15.9,7.3,23.6a120,120,0,0,1,5.6,24.4c4.1,30.1-.6,62.5-16,89.2-3.6,6.2-8.6,11.1-13.5,16.3a123.35,123.35,0,0,1-18.6,16.8,216.51,216.51,0,0,1-20.8,13.4c-7.6,4.1-16.1,6.6-24.1,9.9-7.3,3-14.4,6-21.6,9.3-8.3,3.8-17.1,6.3-25.2,10.6-11.2,5.8-21.4,14.8-20.8,28.6.4,9,5.2,18.5,10.3,25.8,4.9,6.9,11.8,10.6,18,16.1,4.6,4.1,8.5,9.3,14.2,12C642,419,638.58,426.93,637.18,426.23Z"/><path d="M272.42,56.23,271.21,55c-.58-.66-1-1.13-1.31-1.42V65.2h-2.52V54.48c-.87.88-1.82,1.75-2.84,2.63l-1-3a19.3,19.3,0,0,0,6.12-7.44H264.1V44.2h8.43v2.63a20.64,20.64,0,0,1-2.63,4.48v1.53l1.31-1.2c1.1,1,2,1.93,2.85,2.73V43.44h6.23V39.17h2.63v4.27h6.23V60.06h-2.62V58.64h-3.61V65.2h-2.63V58.64h-3.61v1.42h-2.62V54.7Zm-3.83-12.14q-1.21-2.07-2.41-3.93l2.3-1.32A31.47,31.47,0,0,1,271,42.67ZM276.68,46v3.94h3.61V46Zm0,6.24v3.93h3.61V52.19ZM286.53,46h-3.61v3.94h3.61Zm-3.61,6.24v3.93h3.61V52.19Z"/><path d="M292.54,44.42V41.91h9.74a12,12,0,0,0,1.2-2.52l.22-.44,3.17.22q-.11.22-.33.66a11.18,11.18,0,0,1-1,2.08h12v2.51h-8.42a17.42,17.42,0,0,0,9.07,5l-.32.66a16.06,16.06,0,0,0-1,2.08,32.64,32.64,0,0,1-5.9-2.74V51.2H298.88V49.34a51.91,51.91,0,0,1-5.68,3.07q-.66-1.21-1.53-2.52,6-2.4,8.86-5.47Zm1.2,19.8a4.06,4.06,0,0,0-.43-.66A12.82,12.82,0,0,0,292,61.92a46.28,46.28,0,0,0,7.11-4.81L301,59.19A67.68,67.68,0,0,1,293.74,64.22Zm-1-7.66V54.05h24.5v2.51H306.87v4.38c.14,2.62-1,3.9-3.5,3.82-.73.08-2,.11-3.72.11-.22-.87-.47-1.78-.77-2.73h3.4c1.16.07,1.71-.44,1.64-1.53v-4ZM304,44.42a17.23,17.23,0,0,1-4.49,4.38H310A18.51,18.51,0,0,1,306,44.42ZM316.17,64q-3.62-2.3-7-4.38l1.64-2.18q2.29,1.31,6.12,3.93c.37.22.66.41.88.55Z"/><path d="M322.29,65.09a25.2,25.2,0,0,0-2.62-2,14,14,0,0,0,3.17-5.79,37.27,37.27,0,0,0,.76-8.86V39.39h3.18v9.08a43.27,43.27,0,0,1-.88,10.06A16.31,16.31,0,0,1,322.29,65.09ZM332.35,63V40.7h3.07V63ZM341,64.76V39.39h3.07V64.76Z"/><path d="M351.17,41.14l3.82,1.2a5.79,5.79,0,0,1-.54,1.42c-.15.37-.26.66-.33.88a22,22,0,0,0-1.75,8.64v.88a10.3,10.3,0,0,0,1.09,5h.11c.15-.29.33-.7.55-1.21a8.34,8.34,0,0,0,.55-1.09l1.2.22q-.11.54-.33,1.53a18.3,18.3,0,0,0-.55,3.5v.66l-2.62.54a10.07,10.07,0,0,1-2-4.26,23.3,23.3,0,0,1-.55-5.58V52.3a28.39,28.39,0,0,1,.88-7,15.89,15.89,0,0,0,.44-3.61ZM365,58.64h1a22.81,22.81,0,0,0,6.13-.88l.11,3a15.26,15.26,0,0,1-5,.76h-1.2c-3.43,0-6-.8-7.76-2.4a2.88,2.88,0,0,1-.88-1.32l2-1.2A7.45,7.45,0,0,0,365,58.64Zm.11-15.09h1.2a42.55,42.55,0,0,1,4.27.21v2.85c-.52,0-1.21,0-2.08-.11s-1.53-.11-2-.11h-1.2a21.86,21.86,0,0,0-3.07.33,17.56,17.56,0,0,1-2.84.33l-.22-3a20,20,0,0,0,2.52-.22A28,28,0,0,1,365.06,43.55Z"/><path d="M376.76,45V42.56h4.05v-3.5h2.62v3.5h3.5V45h-3.5v3.5h4.05v2.4h-3.17v3.94h2.84v2.41h-2.84v4.37A20.15,20.15,0,0,0,389,62h13.23a9.48,9.48,0,0,0-.76,2.52q-8.53,0-12.8-.11-7.44.11-9.51-3.94a15.27,15.27,0,0,1-1.64,4.7c-.44-.36-1.1-1-2-1.86q2-3.27,1.86-10.93l2.4.21A21,21,0,0,1,379.6,57a10.22,10.22,0,0,0,2.19,3.17v-9.3h-5.91v-2.4h4.93V45Zm12.36,12.9-1.42-2c.51-.37.73-1.13.65-2.3v-10h5.14c-.07-.95-.11-2.48-.11-4.6h2.41c0,1.53,0,3.06.11,4.6h6v2.51H396q.33,3.51.66,5.8a21,21,0,0,0,2.18-4.27l2.19,1a42.46,42.46,0,0,1-3.5,6.34,15.33,15.33,0,0,0,.88,2.08c.29.51.58.76.87.76a1.2,1.2,0,0,0,.55-1,27.91,27.91,0,0,0,.44-3.39v-.22a9.23,9.23,0,0,0,1.85,1,20.3,20.3,0,0,1-.65,4.05c-.29,1.46-1,2.23-2.19,2.3-1.46-.07-2.62-1.13-3.5-3.17v-.11a41,41,0,0,1-4.37,4.37l-1.86-1.64a40,40,0,0,0,5.25-5.36,38.21,38.21,0,0,1-1.21-8.53h-2.73v7l.76-.76c.66-.59,1.1-1,1.32-1.21q.1.77.33,1.86a3,3,0,0,1,.1.66,27.31,27.31,0,0,0-3.17,3.06,4.8,4.8,0,0,0-.87.88Zm10.06-14.43c-.65-.95-1.46-2-2.4-3.18l1.64-1A15.31,15.31,0,0,1,401,42.23Z"/><path d="M409,40.26h.21l3.5.66a13.34,13.34,0,0,1-.32,1.42v15.1a5,5,0,0,0,.65,3,3,3,0,0,0,2.3,1.09H416a4.09,4.09,0,0,0,1.85-.43,11.23,11.23,0,0,0,2.52-1.21,12.06,12.06,0,0,0,3.06-2.73h.22L425,59.62c.15.15.15.22,0,.22a13.42,13.42,0,0,1-4.59,3.28,9.74,9.74,0,0,1-4.81,1.21h-.33a6.37,6.37,0,0,1-3.61-1.1,4.3,4.3,0,0,1-2.19-3.17c-.07-1-.11-2.08-.11-3.17V42.56a5.73,5.73,0,0,0-.22-1.31A6.75,6.75,0,0,1,409,40.26Z"/><path d="M433.63,45.51H434l9.52-2c4.15-.88,7.29-1.5,9.4-1.86,1.1-.22,2.19-.4,3.29-.55l.21,3.17h-.65c-3.36,0-5.87.91-7.55,2.74a10.36,10.36,0,0,0-2.84,7.32v.44a5.78,5.78,0,0,0,1.53,4.27q1.53,1.64,4.81,1.53h1.86v3.28H451.9A10.22,10.22,0,0,1,445,61.48a8.57,8.57,0,0,1-2.3-6.34V54.05q0-4.27,3.5-8.54c-.95.22-2.4.59-4.37,1.1-.95.22-1.68.4-2.19.55l-1,.32a12.7,12.7,0,0,0-3.29,1.21Z"/><path d="M477.38,41.69h.22a7.54,7.54,0,0,1,1,2.29,11.91,11.91,0,0,1-2.63,1.1l-.87.33a10.4,10.4,0,0,1,.87,1.53,13.53,13.53,0,0,1,.77,1.53c.44-.15,1.09-.4,2-.77l2-.65H481l1,2-.11.33-1.2.33a13.18,13.18,0,0,1-1.32.44,4.71,4.71,0,0,1-1.42.44,2.35,2.35,0,0,1,.33.65,47.17,47.17,0,0,0,3.06,4.27.35.35,0,0,0,.11.22,1.6,1.6,0,0,1,.44.87l-2.41,2.3a15.63,15.63,0,0,0-8.75-2.3h-.65a5.18,5.18,0,0,0-2.3.44,2,2,0,0,0-1,2.41q.11.44,1.2,1.2a5.44,5.44,0,0,0,2.51.87,16.69,16.69,0,0,0,3.29.33h.54a7.17,7.17,0,0,0,1.31-.11l-.21,3.06h-.77q-10.17-.54-10.61-5.9v-.55a4.28,4.28,0,0,1,2.19-3.17,10,10,0,0,1,4.37-1h1.1a18.8,18.8,0,0,1,5.47,1h.11c-.15-.22-.37-.58-.66-1.09s-.69-1.43-1.42-2.74a11.42,11.42,0,0,1-2.3.44,56.32,56.32,0,0,1-6,.55l-.21-.11-1.32-2.08.11-.22h.77a34.86,34.86,0,0,0,6.23-.55,4.66,4.66,0,0,0,1.53-.22c-.43-.94-.91-2-1.42-3.06a33.52,33.52,0,0,1-4.7,1,6.5,6.5,0,0,0-.66-1,4.6,4.6,0,0,1-.43-.65,1.62,1.62,0,0,1-.44-.77h.33c1.45-.22,3-.51,4.7-.88a7.49,7.49,0,0,0-.55-1.31l-.65-1.31a.66.66,0,0,0-.22-.44,2.61,2.61,0,0,1-.11-.65l3-.55c.44,1.24.88,2.41,1.31,3.5A31.12,31.12,0,0,0,477.38,41.69Z"/><path d="M489.63,45.51H490l9.52-2c4.15-.88,7.29-1.5,9.4-1.86,1.1-.22,2.19-.4,3.29-.55l.21,3.17h-.65c-3.36,0-5.87.91-7.55,2.74a10.36,10.36,0,0,0-2.84,7.32v.44a5.78,5.78,0,0,0,1.53,4.27q1.53,1.64,4.81,1.53h1.86v3.28H507.9A10.22,10.22,0,0,1,501,61.48a8.57,8.57,0,0,1-2.3-6.34V54.05q0-4.27,3.5-8.54c-.95.22-2.4.59-4.37,1.1-.95.22-1.68.4-2.19.55l-1,.32a12.7,12.7,0,0,0-3.29,1.21Z"/><path d="M204,108.76q-2-1.64-3.72-3.28v10.61h-2.85V105.7c-.87.88-1.85,1.79-2.95,2.74a25.74,25.74,0,0,0-.87-3.07,19.23,19.23,0,0,0,6.34-7.54h-5.47V95.2h4.38c-.81-1.6-1.53-3-2.19-4l2.41-1.1a28.64,28.64,0,0,1,1.75,2.85c.29.51.5.91.65,1.2L199,95.2H203v2.41a35.53,35.53,0,0,1-2.73,4.81v.22l1.09.87c.88-1.16,1.71-2.29,2.52-3.39l2,1.54c-.51.65-1.35,1.6-2.52,2.84a1.17,1.17,0,0,1-.22.33l2.41,2Zm6.34,6.68a15.43,15.43,0,0,0-.55-2.85c.73.08,2,.11,3.72.11,1.53.08,2.3-.69,2.3-2.29q.33-10.72.33-15.54h-5c0,.66,0,1.57-.11,2.74v2.08q0,11.37-6.78,16.51c-.66-.65-1.43-1.35-2.3-2.08q6.24-4.37,6.12-14.32c.08-.81.11-2.45.11-4.93h-3.82V92.25h14.87v1q-.33,14-.55,17.72,0,4.38-4.15,4.38C213.06,115.4,211.68,115.44,210.29,115.44Z"/><path d="M236,91.48h.77l2.73.66c-.07.44-.14,1.09-.21,2L239,96.19a9.85,9.85,0,0,1,5.68,1.86,9,9,0,0,1,2.74,6.34v.66A9.17,9.17,0,0,1,246,110.3a9.93,9.93,0,0,1-3.72,3.28,9.78,9.78,0,0,1-3.17,1.42c-.08,0-.3-.18-.66-.55a1.57,1.57,0,0,0-.22-.33,5.44,5.44,0,0,0-1.2-1,.33.33,0,0,0-.22-.11q7-1.64,7.44-7.77v-.32a6.17,6.17,0,0,0-2-4.6,6.51,6.51,0,0,0-3.94-1.53,25,25,0,0,1-3.61,8.2,14.73,14.73,0,0,0,2.08,1.75l-2.3,2.08h-.11l-1-1-.44-.44-.55.55a10.61,10.61,0,0,1-6.12,3.5h-.33q-3.06-.23-3.28-4.27v-.54a10.24,10.24,0,0,1,1.42-4.82,4.28,4.28,0,0,0,.33-.43,14.3,14.3,0,0,1,2.19-2.74c-.37-.73-.91-1.82-1.64-3.28-.37-.8-.66-1.38-.88-1.75l3.06-1.53v.76a18.09,18.09,0,0,0,1.54,4.27,16.17,16.17,0,0,1,7.43-2.84,10.39,10.39,0,0,0,.33-2.52v-.44A4.17,4.17,0,0,0,236,91.48Zm-10.71,17.07V109c0,.88.25,1.43.76,1.64s.91.15,1.64-.21a12.08,12.08,0,0,0,2.95-2.3l.33-.33a1.34,1.34,0,0,1,.22-.33,13.9,13.9,0,0,1-1.53-2.08,21.7,21.7,0,0,1-1.42-2A1.17,1.17,0,0,0,228,103l-1.64,2.08A8.43,8.43,0,0,0,225.28,108.55Zm10.28-9.63a13.12,13.12,0,0,0-5.58,2.3,4.92,4.92,0,0,0,.44.65,9.24,9.24,0,0,1,.54.88,1.17,1.17,0,0,1,.22.33,11.37,11.37,0,0,0,1.75,2.08c.44-.73.88-1.54,1.31-2.41q.12-.33.33-1A15,15,0,0,0,235.56,98.92Z"/><path d="M251.63,96.51H252l9.52-2c4.15-.88,7.29-1.5,9.4-1.86,1.1-.22,2.19-.4,3.29-.55l.21,3.17h-.65c-3.36,0-5.87.91-7.55,2.74a10.36,10.36,0,0,0-2.84,7.32v.44a5.78,5.78,0,0,0,1.53,4.27q1.53,1.64,4.81,1.53h1.86v3.28H269.9a10.22,10.22,0,0,1-6.89-2.41,8.57,8.57,0,0,1-2.3-6.34v-1.09q0-4.27,3.5-8.54c-.95.22-2.4.59-4.37,1.1-.95.22-1.68.4-2.19.55l-1,.32a12.7,12.7,0,0,0-3.29,1.21Z"/><path d="M304,102.75v.76a10,10,0,0,1-3,6.9,13.47,13.47,0,0,1-5.47,3.93c0,.15-.07.15-.22,0a10,10,0,0,0-2.51-1.64v-.22c5.25-2.47,7.91-5.65,8-9.51v-.55a7.11,7.11,0,0,0-2.4-5,8.79,8.79,0,0,0-4.6-2,60.88,60.88,0,0,1-2.4,8,50.76,50.76,0,0,1-3.39,7.1q-1.43,2.63-3.5,2.63-3.29-.11-5.47-3.72a7.69,7.69,0,0,1-1.1-3.72v-.54a10.09,10.09,0,0,1,.88-3.61,13,13,0,0,1,2-3.29,12.43,12.43,0,0,1,5.9-4.48,15.65,15.65,0,0,1,5-1.09H293a11,11,0,0,1,8,3A10.38,10.38,0,0,1,304,102.75ZM281,104.61v.55a6.05,6.05,0,0,0,1.09,3.39,2.51,2.51,0,0,0,2.08,1.31,2.79,2.79,0,0,0,1.86-1.31,21.49,21.49,0,0,0,1.09-2c.15-.37.26-.62.33-.77a36.69,36.69,0,0,0,3.72-10.39A17.94,17.94,0,0,0,287,96.51a14.9,14.9,0,0,0-4.48,4A8.56,8.56,0,0,0,281,104.61Z"/><path d="M309.93,99.25c-1.31-1-2.7-1.86-4.15-2.74l1.31-2c1.24.65,2.66,1.46,4.26,2.4Zm-1.75,11.37v-2.18h9.3v-1.53h2.95v1.53H330v2.18h-9.52v2.3h11.7v2.3H305.88v-2.3h11.6v-2.3Zm.66-3.39-2.41-1.31q1.86-3.06,3.5-6.23a15.49,15.49,0,0,0,1.53.76,4.71,4.71,0,0,0,.88.44C311.39,102.49,310.22,104.61,308.84,107.23ZM312,94.76c-.66-.43-1.6-1-2.84-1.75a12.47,12.47,0,0,1-1.43-.87l1.43-2.08q2.07,1.09,4.37,2.52Zm.55,12c-.37-.66-.77-1.32-1.21-2a32.86,32.86,0,0,0,5.69-3l1.42,1.64C316.28,104.83,314.31,105.92,312.56,106.8Zm4.26-9.41V96c-.29.14-.76.36-1.42.65a20.12,20.12,0,0,1-1.86.77c-.51-.8-1-1.57-1.42-2.3a22.71,22.71,0,0,0,9.19-5.36l2.95.33-.66.66a27.34,27.34,0,0,0,8.53,4.15,5.27,5.27,0,0,1-.32.55,16.13,16.13,0,0,0-1,1.86,1.17,1.17,0,0,0-.44-.22,21,21,0,0,1-2.95-1.31v1.64h-3.94v1.86h7.11v2.19h-7.11v2.29q.12,3.18-2.84,3.07c-.95.07-2,.11-3.06.11a12.31,12.31,0,0,0-.44-2.08c.88.07,1.68.11,2.41.11a1.16,1.16,0,0,0,1.31-1.32v-2.18h-7.55V99.25h7.55V97.39Zm5.25-5.14a19.78,19.78,0,0,1-4.48,3.17h9.29A24,24,0,0,1,322.07,92.25Zm8.31,14.55a28.13,28.13,0,0,0-3.28-1.75c-.94-.44-1.67-.81-2.18-1.1l1.2-1.75a1,1,0,0,0,.44.22,52.55,52.55,0,0,1,5.14,2.41Z"/><path d="M342.31,99.47V100a6.62,6.62,0,0,0,.43,2.63H343l1.1-1.75h.32l1.21,1.09c-.15.3-.33.7-.55,1.21a10.93,10.93,0,0,0-1.2,4.26v.44a15.56,15.56,0,0,1-2.63.22,9,9,0,0,1-1.09-2.85,17.73,17.73,0,0,1-.66-4.92v-.87a28.72,28.72,0,0,1,.44-4,22.44,22.44,0,0,0,.44-3.61c1.09.07,2.15.18,3.17.33a21.51,21.51,0,0,0-.55,2.3A26.78,26.78,0,0,0,342.31,99.47ZM350,91.81l3.61-.33.22.11a11.48,11.48,0,0,0,.22,3.72,4.45,4.45,0,0,0,.22,1.2,37.8,37.8,0,0,1,.33,4.16v1.75a15.88,15.88,0,0,1-1.21,6.67,16.31,16.31,0,0,1-4.59,6.67q-.11.22-.33,0l-2.51-1.2-.11-.22a17.45,17.45,0,0,0,3.93-4.7,16.18,16.18,0,0,0,1.75-7.55V100A19.87,19.87,0,0,0,350,91.81Z"/><path d="M373,103.73c-.44-.36-1.2-.94-2.3-1.75-.8-.65-1.38-1.13-1.75-1.42a9.57,9.57,0,0,1-3.71,3.5h19.57V116.2H382v-1.31H367.9v1.31h-2.84v-12c-.66.29-1.35.62-2.08,1a7.73,7.73,0,0,0-1.1-1.86,3,3,0,0,0-.32-.44c3.2-1.24,5.1-2.63,5.68-4.16H362V96.51h5.8V94.66h-5.14V92.58h5.14l.11-2.52h2.63l-.11,2.52h3.71v2.08h-3.82v1.85h4V98.7H370.2c1.31.81,2.77,1.79,4.37,3q3.82-1.43,4.49-3h-3.61V96.51h4.15V96a4.25,4.25,0,0,0,.11-.88v-.43h-4V92.58h4V90.06h2.63l-.11,2.52h5v2.08h-5l-.11,1.53v.32h5.69V98.7h-5.25c.87,1.68,2.77,2.92,5.68,3.72-.43.73-.87,1.53-1.31,2.41-3.06-1.24-5.07-2.77-6-4.6-.59,1.24-2.23,2.45-4.93,3.61a15.17,15.17,0,0,0-1.42-2.18Zm-5.14,2.52v2.3H382v-2.3Zm0,4.26v2.3H382v-2.3Z"/><path d="M394,99.36h.55a30.07,30.07,0,0,0,5.79-.55,11.7,11.7,0,0,0,3.72-.76c.37-.15.59-.29.66-.44H405l2.51,1.53c.15.07.19.22.11.44v.11a17.65,17.65,0,0,0-3.5,3.72l-1.31,1.64h.77a3.32,3.32,0,0,1,2.07.65,4.46,4.46,0,0,1,.77,2.19,7.15,7.15,0,0,1,.22,1,12.28,12.28,0,0,0,.44,2,1.64,1.64,0,0,0,1.53,1.42h1.31a16.61,16.61,0,0,0,3.94-.54v3a29.21,29.21,0,0,1-3.5.22H408a3.48,3.48,0,0,1-3.06-1.42,9.55,9.55,0,0,1-1.1-3.28,1.84,1.84,0,0,0-.1-.55,8,8,0,0,0-.22-1.09,1.63,1.63,0,0,0-1.43-1,3.06,3.06,0,0,0-2.29,1.31,59.66,59.66,0,0,0-4.71,6h-.21a21.5,21.5,0,0,0-2.74-1.75V113a87.5,87.5,0,0,0,7.66-8.42,19.83,19.83,0,0,0,2.62-3.72l-.11-.22a11.32,11.32,0,0,1-3.28.88,12.59,12.59,0,0,0-2.51.65,1.12,1.12,0,0,0-.55.22c-.22.22-.4.29-.55.22Zm7-8.75h.22a34.56,34.56,0,0,0,5.36,2.51,1,1,0,0,0,.33.22.81.81,0,0,1,.54.33l-.87,2.3-.33.11A34.05,34.05,0,0,1,399.84,93V92.8Z"/><path d="M426.09,91.26h.44l3.5.88v.22a2.34,2.34,0,0,0-.88,1.53c-.07.22-.18.55-.33,1-.29.81-.51,1.46-.65,2,1.45-.36,2.88-.69,4.26-1l.22.11-.33,2.84q-2.4.43-4.92.66a88.63,88.63,0,0,1-2.84,8.42,45,45,0,0,1-3.28,7.33l-.11.11-3.29-1.21a35.47,35.47,0,0,0,4.71-9.18c.36-.81.8-2,1.31-3.5.29-.81.51-1.39.66-1.75h-3.94a.65.65,0,0,1-.44-.11l-.44-2.74c.37,0,.92,0,1.64.11a15.88,15.88,0,0,0,1.65.11h2.29a17.59,17.59,0,0,0,.77-5.14Zm9.29,20.79h1.1a11.77,11.77,0,0,0,4.48-.66l-.22,3a23,23,0,0,1-3.82.33h-.77a22.53,22.53,0,0,1-6.56-1.2l.44-2.41a3.29,3.29,0,0,0,.76.22A21,21,0,0,0,435.38,112.05Zm.11-11.49h1a15,15,0,0,1,2.19.22,9.48,9.48,0,0,0,1.09.11l-.11,3a18.62,18.62,0,0,0-4.16-.65h-.87a17.17,17.17,0,0,0-2.3.22,4.71,4.71,0,0,1-.87.1l.22-2.62a12.52,12.52,0,0,0,1.31-.11A22,22,0,0,1,435.49,100.56ZM436.92,96v-.22l1.42-1.31c0-.15.07-.15.22,0a12.2,12.2,0,0,1,2.51,2l.55.54c-.07.08-.15.15-.22.22l-.11.11A3.27,3.27,0,0,1,440,98.37c0,.08-.07.08-.22,0C438.81,97.65,437.86,96.84,436.92,96Zm2.62-2.63,1.31-1.64a4.06,4.06,0,0,1,1.43.77,2.47,2.47,0,0,0,.54.44,17.08,17.08,0,0,0,1.31,1.2v.33l-1.53,1.31c0,.07-.07.07-.22,0a15.81,15.81,0,0,0-1.42-1.2,10.48,10.48,0,0,0-1.42-1.1Z"/><path d="M462.4,95.86H463a6.71,6.71,0,0,1,4.59,1.64,6.62,6.62,0,0,1,2,4.59v.55a6,6,0,0,1-1,3.28,10,10,0,0,1-3,2.84,13.32,13.32,0,0,1-6.56,2.3L457.26,109a16.1,16.1,0,0,0,6.56-2.07c2.19-1.32,3.28-2.88,3.28-4.71v-.44q-.44-3.17-4.48-3.71h-.44a10.74,10.74,0,0,0-3.39.54c-.87.29-1.75.62-2.62,1-.3.14-.7.33-1.21.54a34.19,34.19,0,0,0-3.17,1.75c-.07,0-.15.08-.22.22a.84.84,0,0,1-.76.22l-2.3-2.62c2-.51,4.05-1.1,6-1.75a2,2,0,0,0,.43-.11C458.1,96.44,460.58,95.79,462.4,95.86Z"/><path d="M483.73,90.94H484l3.28.87v.33a2.61,2.61,0,0,0-1.1,1.75,11.66,11.66,0,0,0-.65,1.86,3.58,3.58,0,0,1-.22.66l3.61-.66a3.29,3.29,0,0,0,.76-.22l.22.11v2.84c-1.75.3-3.5.51-5.25.66a2.69,2.69,0,0,1-.11.55l-.11.22a63.35,63.35,0,0,1-5.79,15l-3-.88-.1-.21a89.37,89.37,0,0,0,6.34-14.55,17.05,17.05,0,0,1-2.19.11c-.95.07-1.68.11-2.19.11l-.21-.11-.44-2.63.11-.22c.29,0,.76,0,1.42.11a10.1,10.1,0,0,0,1.31.11h.88a18.8,18.8,0,0,0,2.07-.11,2.68,2.68,0,0,0,.22-.65,17.08,17.08,0,0,0,.88-4.38Zm14.76,20.12-.32,3.06a28.34,28.34,0,0,1-3.61.22h-1.1a22.94,22.94,0,0,1-4.81-.54,2,2,0,0,1-.44-.11c-.51,0-.84-.11-1-.33l-.11-2.52a5.9,5.9,0,0,0,1,.22,28.65,28.65,0,0,0,4.82.55h.54A23.2,23.2,0,0,0,498.49,111.06Zm-6.34-10.72h1c1.17,0,2.41,0,3.72.11l.11,3-.11.1a24.79,24.79,0,0,0-4.7-.65h-1.09a9,9,0,0,0-2.41.33l.44-2.74h1.42C491.24,100.38,491.78,100.34,492.15,100.34Z"/><path d="M528,102.75v.76a10,10,0,0,1-3,6.9,13.47,13.47,0,0,1-5.47,3.93c0,.15-.07.15-.22,0a10,10,0,0,0-2.51-1.64v-.22c5.25-2.47,7.91-5.65,8-9.51v-.55a7.11,7.11,0,0,0-2.4-5,8.79,8.79,0,0,0-4.6-2,60.88,60.88,0,0,1-2.4,8,50.76,50.76,0,0,1-3.39,7.1q-1.42,2.63-3.5,2.63-3.29-.11-5.47-3.72a7.69,7.69,0,0,1-1.1-3.72v-.54a10.09,10.09,0,0,1,.88-3.61,13,13,0,0,1,2-3.29,12.43,12.43,0,0,1,5.9-4.48,15.65,15.65,0,0,1,5-1.09H517a11,11,0,0,1,8,3A10.38,10.38,0,0,1,528,102.75ZM505,104.61v.55a6.05,6.05,0,0,0,1.09,3.39,2.51,2.51,0,0,0,2.08,1.31,2.79,2.79,0,0,0,1.86-1.31,21.49,21.49,0,0,0,1.09-2c.15-.37.26-.62.33-.77a36.69,36.69,0,0,0,3.72-10.39A17.94,17.94,0,0,0,511,96.51a14.9,14.9,0,0,0-4.48,4A8.56,8.56,0,0,0,505,104.61Z"/><path d="M529.45,96.51h.65a15,15,0,0,0,3.28-.54l1.32-.33c1.38-.36,2.73-.69,4-1q3.62-.89,7.11-1.54a21.79,21.79,0,0,0,4.38-1,3.3,3.3,0,0,0,.33,1.2,3.75,3.75,0,0,1,.22,1.64l-1.54.33a7.6,7.6,0,0,0-3.71,1.2,8.68,8.68,0,0,0-3.18,4.71,15.72,15.72,0,0,0-.65,3.83v.65a5.77,5.77,0,0,0,1.64,4.27,6.38,6.38,0,0,0,4.26,1.64h.55a7,7,0,0,0,1.75-.22v3.28H549a12.8,12.8,0,0,1-6.9-1.86,8.64,8.64,0,0,1-3.28-6.89v-.55q0-4.26,3.39-9c-2.91.72-5.83,1.53-8.75,2.4a3.29,3.29,0,0,1-.76.22,3,3,0,0,0-1.53.88l-1.75-3.07Zm20.12,1.54,1.53-1.43c.22.22.51.55.88,1a17.62,17.62,0,0,1,1.75,2l-1.53,1.31A17.33,17.33,0,0,0,549.57,98.05Zm3-2.19,1.53-1.31a18.7,18.7,0,0,1,2.51,2.84l-1.64,1.31A22.66,22.66,0,0,0,552.53,95.86Z"/><path d="M569.15,113.25,567,115.44l-5.9-6.46,2.07-1.86Z"/><path d="M97,167.09,95.56,164,99,160.86V153H95.88v-2.73h6v10.5a7,7,0,0,0,6.34,3.06q4,.1,14-.11c-.29.8-.58,1.71-.87,2.74q-9.63,0-13.78-.11a9.29,9.29,0,0,1-7.22-3.07Q98.41,165.35,97,167.09Zm3.5-19.36a60.32,60.32,0,0,0-3.39-5.25l2.62-1.31q1.86,2.52,3.5,5Zm5.36,14.88q-.56-.44-1.86-1.53a3,3,0,0,0-.66-.55c2.12-2.19,3.06-5.65,2.85-10.39v-6.89a118.88,118.88,0,0,0,13.67-1.31l1.09,2.84q-7.87.76-11.81,1v4.16h12.69v2.74h-4.6v10h-2.95v-10H109A14.84,14.84,0,0,1,105.84,162.61Z"/><path d="M125.85,167.2a19.76,19.76,0,0,0-1.53-1.31,8.45,8.45,0,0,1-.76-.66q2.3-3.06,2.07-11V142.92a70.76,70.76,0,0,0,9.52-1.31l1,2.73a56.36,56.36,0,0,1-7.65,1v3.5h6.67v9.51h-6.78A20.24,20.24,0,0,1,125.85,167.2Zm6.57-16h-3.94v2.85a17.75,17.75,0,0,1-.11,1.86h4Zm3.61,16c-.15-.14-.41-.36-.77-.65q-1.09-1-1.53-1.32a12.57,12.57,0,0,0,2.84-5,27.65,27.65,0,0,0,.77-7.54v-9.52a93.15,93.15,0,0,0,11.48-1.42l1,2.84q-4.92.76-9.63,1.1v4.81h10.06v2.62h-3.39v13.78H144V153.09h-3.83Q140.41,162.72,136,167.2Z"/><path d="M178,153.75v.76a10,10,0,0,1-3,6.9,13.47,13.47,0,0,1-5.47,3.93c0,.15-.07.15-.22,0a10,10,0,0,0-2.51-1.64v-.22c5.25-2.47,7.91-5.65,8-9.51v-.55a7.11,7.11,0,0,0-2.4-5,8.79,8.79,0,0,0-4.6-2,60.88,60.88,0,0,1-2.4,8,50.76,50.76,0,0,1-3.39,7.1q-1.42,2.63-3.5,2.63-3.28-.1-5.47-3.72a7.69,7.69,0,0,1-1.1-3.72v-.54a10.09,10.09,0,0,1,.88-3.61,13,13,0,0,1,2-3.29,12.43,12.43,0,0,1,5.9-4.48,15.65,15.65,0,0,1,5-1.09H167a11,11,0,0,1,8,2.95A10.38,10.38,0,0,1,178,153.75ZM155,155.61v.55a6.05,6.05,0,0,0,1.09,3.39,2.51,2.51,0,0,0,2.08,1.31,2.79,2.79,0,0,0,1.86-1.31,21.49,21.49,0,0,0,1.09-2c.15-.37.26-.62.33-.77a36.69,36.69,0,0,0,3.72-10.39,17.94,17.94,0,0,0-4.16,1.09,14.9,14.9,0,0,0-4.48,4.05A8.56,8.56,0,0,0,155,155.61Z"/><path d="M180.21,148v-2.84h11.92c-.43-1.17-.91-2.41-1.42-3.72l3.39-.33q.66,1.53,1.53,4.05h10.18V148H190.06c0,1.31-.08,2.7-.22,4.16h12.79q-.1,2.63-.43,7.65c-.08.88-.11,1.5-.11,1.86-.15,3.29-2,4.89-5.47,4.82-.66,0-1.5,0-2.52.11h-2.29c-.08-.51-.26-1.32-.55-2.41a1,1,0,0,1-.11-.44h2.19c.94.08,1.71.11,2.29.11q3.28.23,3.4-3.06a49.91,49.91,0,0,0,.32-5.91h-9.73q-.44,7.66-7.55,12.47l-2.4-2.3q7-4.26,7-12c.14-2,.21-3.72.21-5Z"/><path d="M211.17,143.14l3.82,1.2a5.79,5.79,0,0,1-.54,1.42c-.15.37-.26.66-.33.88a22,22,0,0,0-1.75,8.64v.88a10.3,10.3,0,0,0,1.09,5h.11c.15-.29.33-.7.55-1.21a8.34,8.34,0,0,0,.55-1.09l1.2.22q-.1.54-.33,1.53a18.3,18.3,0,0,0-.55,3.5v.66l-2.62.54a10.07,10.07,0,0,1-2-4.26,23.3,23.3,0,0,1-.55-5.58v-1.2a28.39,28.39,0,0,1,.88-7,15.89,15.89,0,0,0,.44-3.61ZM225,160.64h1a22.81,22.81,0,0,0,6.13-.88l.11,3a15.26,15.26,0,0,1-5,.76h-1.2c-3.43,0-6-.8-7.76-2.4a2.88,2.88,0,0,1-.88-1.32l2-1.2A7.45,7.45,0,0,0,225,160.64Zm.11-15.09h1.2a42.55,42.55,0,0,1,4.27.21v2.85c-.52,0-1.21,0-2.08-.11s-1.53-.11-2-.11h-1.2a21.86,21.86,0,0,0-3.07.33,17.56,17.56,0,0,1-2.84.33l-.22-3a20,20,0,0,0,2.52-.22A28,28,0,0,1,225.06,145.55Z"/><path d="M262.46,158.12v.22l-2.18,3H260a9.38,9.38,0,0,1-2-1.1,5.16,5.16,0,0,0-.77-.54,89,89,0,0,1-9.62-7.55,3,3,0,0,0-1.64-.77,1.82,1.82,0,0,0-1.21.66,1.26,1.26,0,0,0-.32.22c-.22.22-.62.58-1.21,1.09a12.09,12.09,0,0,0-1.31,1.1c-.29.29-.73.69-1.31,1.2s-1.13,1-1.42,1.31l-.22.22c-.29.44-.59.62-.88.55l-2.51-2.63v-.22a47.41,47.41,0,0,0,5.25-3.5c.36-.36.91-.83,1.64-1.42a8.45,8.45,0,0,0,.76-.66,5.27,5.27,0,0,0,.55-.32,4.3,4.3,0,0,1,1.31-.77c.8-.22,1.9.11,3.28,1a.33.33,0,0,0,.22.1l1,.66c.22.15.72.55,1.53,1.2Q257.87,156.6,262.46,158.12ZM257.1,142.7a3.1,3.1,0,0,1,3.18,3.17,3.15,3.15,0,0,1-3.18,3.29,3.19,3.19,0,0,1-3.28-3.29A3.14,3.14,0,0,1,257.1,142.7Zm1.64,3.17a1.64,1.64,0,0,0-3.28,0,1.64,1.64,0,1,0,3.28,0Z"/><path d="M286.74,148.39l1.32,3v.11q-5.58,5.69-17.5,12.14l-.66.33c-.73.22-1.17.51-1.31.88h-.33a19.77,19.77,0,0,1-1.75-2.63,8.83,8.83,0,0,0-.55-1V161a11.47,11.47,0,0,0,3.61-1A47.69,47.69,0,0,0,286.74,148.39Zm-15.09,3.06h-.22a40.65,40.65,0,0,0-5.25-4.81l2.08-1.75h.33q2,1.53,5,4.37v.22Z"/><path d="M313,146.31h.33l.22,3.39q-3.93.23-7.76.55c.07.36.18.95.32,1.75s.15,1.42.22,1.86a1,1,0,0,0,.11.33v.22a93.13,93.13,0,0,0,9.85-1.43h.21l.33,3.39c-1.16.08-2.88.22-5.14.44l-3.39.33a1.92,1.92,0,0,1-.76.11,5,5,0,0,1-.77.11c.22,1.46.44,2.95.66,4.48a25.06,25.06,0,0,0,.65,3.28c.07.51.15.92.22,1.21-.44.07-1.09.14-2,.22a11.4,11.4,0,0,1-1.75.21q-.1-.87,0-.54-.44-5.58-.87-8.53-5.25.54-10.28,1.2l-.22-3.39q2.3-.1,6.78-.44c1.53-.07,2.66-.14,3.39-.22v-.65a1.9,1.9,0,0,1-.11-.55c0-.36,0-.88-.11-1.53a12.16,12.16,0,0,0-.22-1.53l-3.72.33c-1.68.21-2.91.36-3.72.43l-.43-3.06.11-.22q3.6-.1,7.32-.44a43.77,43.77,0,0,0-1.2-5.36l4.16-.21a9,9,0,0,0-.22,3.71,5.07,5.07,0,0,1,.11.88.77.77,0,0,0,.11.33v.44A65.2,65.2,0,0,0,313,146.31Z"/><path d="M322,167.09l-.76-.76a12.9,12.9,0,0,1-1.42-1.42,15.42,15.42,0,0,0,2-5.25,54,54,0,0,0,.44-8.21v-9.29h22.53v6.56H325v3.61a41.69,41.69,0,0,1-.66,8.53A20.29,20.29,0,0,1,322,167.09Zm4.38-14.54v-2.19h18.59v2.19h-9.84c-.37.29-.91.69-1.64,1.2-1.1.87-1.9,1.49-2.41,1.86.95-.07,2.37-.11,4.27-.11s3.28-.11,4.15-.11l-.87-.88c-.44-.36-.77-.61-1-.76l2-1.2,3.5,2.84c.95.8,1.64,1.39,2.08,1.75l-2,1.64-.76-.77c-.37-.29-.66-.5-.88-.65h-4.7v2.3h7.65v2.18h-7.65V164h9.29v2.08H324.59V164H334v-2.19h-7.65v-2.18H334v-2.19h-2.07c-.88.07-1.57.11-2.08.11a8.09,8.09,0,0,0-1.21.11,4.12,4.12,0,0,0-1.2.11l-.87-2.08a6.72,6.72,0,0,0,1.42-.66l.44-.22a21.49,21.49,0,0,0,2.95-2.29Zm-1.31-8.1v2.19h16.84v-2.19Z"/><path d="M367.46,146.31l.22.11.66,2.19v.44a28.86,28.86,0,0,1-3.72,1.09,29.64,29.64,0,0,0,5.36,7.22v.22l-2.52,2h-.33a9.74,9.74,0,0,0-3.82-1.86,11.88,11.88,0,0,0-3.61-.55h-.44a8,8,0,0,0-2.95.55,3.05,3.05,0,0,0-1.64,2.29,1.49,1.49,0,0,0,.43,1.1,4.71,4.71,0,0,0,2,1.31,9.56,9.56,0,0,0,3.94.66h3.28l-.33,2.84H362.1a15.05,15.05,0,0,1-6.56-1.42c-2.26-.88-3.43-2.37-3.5-4.49v-.43a4.48,4.48,0,0,1,2.19-3.83,8.16,8.16,0,0,1,3.94-.88h1.42a11.69,11.69,0,0,1,5.69,1.21l.1-.33a50.34,50.34,0,0,1-3.5-4.92,55.1,55.1,0,0,1-8.42,1.09l-1.09-2.52.11-.21a11.23,11.23,0,0,0,1.53.1h.44a25.61,25.61,0,0,0,6.23-.76,1.17,1.17,0,0,1-.22-.33,1.26,1.26,0,0,0-.22-.33q-1.1-2.29-2.4-4.48v-.22c1.16-.15,2.29-.33,3.39-.55a15.36,15.36,0,0,0,1.86,5.36A23.62,23.62,0,0,0,367.46,146.31Z"/><path d="M400.28,158l1.31,2.74q.21.23,0,.33l-.77.76q-4.05,4.6-7.33,4.49h-.43a3.75,3.75,0,0,1-3.07-1.86,7.76,7.76,0,0,1-.87-3.61c-.07-.51-.18-1.28-.33-2.3s-.15-1.68-.22-2.19-.29-.91-.65-1a4.06,4.06,0,0,0-2.08.77,7,7,0,0,0-2.08,1.75,18,18,0,0,0-3.61,6.12c-.07.15-.22.44-.44.88a4.46,4.46,0,0,1-.43,1l-2.85-.77a66.7,66.7,0,0,1,5-10.39q1.53-2.73,2.3-4.15l1.31-2.3c.37-.66.66-1.17.88-1.53.07-.15.14-.33.22-.55a12.65,12.65,0,0,0,1.53-3.94h.43l3.72,1.75v.33a25.46,25.46,0,0,0-3.61,4.27,35.48,35.48,0,0,0-2.29,3.94,12.93,12.93,0,0,0-1.32,2.07,1.57,1.57,0,0,1,.33-.21c.66-.37,1.13-.62,1.42-.77,2.26-.95,3.8-.73,4.6.66a5.24,5.24,0,0,1,.65,2.07v.22a12.47,12.47,0,0,0,.11,1.42c.08,1.32.15,2.3.22,3a2.88,2.88,0,0,0,1.1,2.19,1.89,1.89,0,0,0,2.29,0,16.18,16.18,0,0,0,4.27-4.38C399.91,158.42,400.13,158.16,400.28,158Z"/><path d="M413.73,141.39l3.5.87v.22l-.77.88c-.07.22-.22.58-.43,1.09a4.55,4.55,0,0,1-.44,1.21,19.27,19.27,0,0,0,4.37-1.1v2.95a30.6,30.6,0,0,1-5.36.88,18,18,0,0,1-1.64,3.17,8.38,8.38,0,0,1,3.07-.87h.43a4.46,4.46,0,0,1,1.1.22l.22.1a4.67,4.67,0,0,1,2.18,3.4c.66-.3,1.28-.55,1.86-.77l1-.33a18.13,18.13,0,0,0,2-.76,2.06,2.06,0,0,0,.43-.33q.44-.43.66-.33l2.3,2.62v.33a65.47,65.47,0,0,0-7.77,2.08,7.47,7.47,0,0,1,.22,1.86v.77a12.72,12.72,0,0,1-.22,1.86,6.84,6.84,0,0,0-.11,1h-2.73a8,8,0,0,1,.11-1.2V158a11,11,0,0,0-2.41,1.43c-1.39.94-1.86,2-1.42,3.06s1.53,1.53,3.72,1.53H418a25.05,25.05,0,0,0,5.47-.77l.33,3.18a29.31,29.31,0,0,1-4.37.32h-1.64a9.45,9.45,0,0,1-4.49-1,4.05,4.05,0,0,1-2.3-3.17v-.44a7,7,0,0,1,3.18-5,14,14,0,0,1,2.18-1.2c.51-.29.91-.51,1.21-.66a2.85,2.85,0,0,0-1.21-2.19,3.71,3.71,0,0,0-2.07.22c-1.61.8-3.36,2.74-5.25,5.8a4.92,4.92,0,0,0-.44.65l-2.74-1.2a50,50,0,0,0,5.91-9.95h-3.17l-.77-2.63v-.22a13.81,13.81,0,0,0,2.3.22h2.73a1.51,1.51,0,0,0,.11-.43,8.72,8.72,0,0,0,.77-3.5Z"/><path d="M440.2,158.67l-.33-1.09c-.51,0-1.35,0-2.52.11s-1.93.14-2.51.22a19.23,19.23,0,0,0-2,.32l-.88-2.29a8.21,8.21,0,0,0,1.86-1.75,26.82,26.82,0,0,0,2.63-3.5h-1.2a12.66,12.66,0,0,1-1.32.11,3.93,3.93,0,0,0-.76.11,2.57,2.57,0,0,0-.77.1l-.76-2.18a14.7,14.7,0,0,0,1.42-1.64A41.41,41.41,0,0,0,436.7,141l2.62.88q-2.07,3.39-4.59,6.78c1.31,0,2.37,0,3.17-.11a5.5,5.5,0,0,1,.55-.77q.54-.76,1.53-2.4l2.3,1.2c-3,4.23-5.29,7.29-6.9,9.19l3.72-.22a7.34,7.34,0,0,0-.65-1.64,4,4,0,0,0-.22-.77l2-.65q1,2.19,2.18,5.47Zm-6.35,7.77-2.18-.22c.43-2.12.83-4.3,1.2-6.56l2.08.21Q434.52,163.49,433.85,166.44Zm2.52-.55c0-.22,0-.62-.11-1.2-.07-2-.18-3.65-.33-4.82l2-.11q.44,3,.66,5.91Zm4.37-.66q-.54-2.4-1.53-5.57l1.75-.44a16.67,16.67,0,0,1,.55,1.75q.33.87,1.2,3.72Zm2.85-10.82a8.14,8.14,0,0,0-1.21-1.43c-.29-.36-.51-.62-.65-.76q4.69-2.62,4.59-7.33h-3.61v-2.63h14.44q0,3.28-.22,6.79c-.07,2.84-1.46,4.23-4.15,4.15a33.36,33.36,0,0,1-3.4.11c-.07-.29-.18-.76-.32-1.42s-.15-1-.22-1.31c.94.07,2,.11,3.17.11,1.46,0,2.19-.77,2.19-2.3,0-.44,0-1.06.11-1.86v-1.64h-5.25Q449.27,151,443.59,154.41Zm0,12.68V155.17h13.34v11.92h-2.84v-1.53h-7.77v1.53Zm2.73-9.29v5.36h7.77V157.8Z"/><path d="M484.49,154.3a31.89,31.89,0,0,1-11.37-9.52,41.21,41.21,0,0,1-11.7,9.84,21.59,21.59,0,0,1-1.43-2.18,5.27,5.27,0,0,1-.32-.55,31.3,31.3,0,0,0,12.25-10.83l3.5.22a6.94,6.94,0,0,1-.66,1.09,28,28,0,0,0,11.59,9.08C485.92,152,485.3,153,484.49,154.3Zm-20.56,13.12-1.09-1.09c-.59-.51-1-.92-1.31-1.21q5.13-2.73,4.81-9.51c.07-.66.11-1.79.11-3.39h3.06v1.31c-.07.95-.11,1.64-.11,2.08Q469.73,163.59,463.93,167.42Zm12.36-.44V152.11h3.06V167Z"/><path d="M493,142.26h.21l3.5.66a13.34,13.34,0,0,1-.32,1.42v15.1a5,5,0,0,0,.65,2.95,3,3,0,0,0,2.3,1.09H500a4.09,4.09,0,0,0,1.85-.43,11.23,11.23,0,0,0,2.52-1.21,12.06,12.06,0,0,0,3.06-2.73h.22l1.31,2.51c.15.15.15.22,0,.22a13.42,13.42,0,0,1-4.59,3.28,9.74,9.74,0,0,1-4.81,1.21h-.33a6.37,6.37,0,0,1-3.61-1.1,4.3,4.3,0,0,1-2.19-3.17c-.07-1-.11-2.08-.11-3.17V144.56a5.73,5.73,0,0,0-.22-1.31A6.75,6.75,0,0,1,493,142.26Z"/><path d="M517.63,147.51H518l9.52-2c4.15-.88,7.29-1.5,9.4-1.86,1.1-.22,2.19-.4,3.29-.55l.21,3.17h-.65c-3.36,0-5.87.91-7.55,2.74a10.36,10.36,0,0,0-2.84,7.32v.44a5.78,5.78,0,0,0,1.53,4.27q1.53,1.63,4.81,1.53h1.86v3.28H535.9a10.22,10.22,0,0,1-6.89-2.41,8.57,8.57,0,0,1-2.3-6.34v-1.09q0-4.28,3.5-8.54c-1,.22-2.4.59-4.37,1.1-1,.22-1.68.4-2.19.55l-1,.32a12.7,12.7,0,0,0-3.29,1.21Z"/><path d="M554.06,141.39h.43l3.18.87v.22a1.63,1.63,0,0,0-.55.88l-.33.65c-.29,1-.55,1.94-.76,3a1,1,0,0,1-.11.33c-.08.21-.15.4-.22.54h2.08a10.75,10.75,0,0,0,1.85-.22,3.26,3.26,0,0,1,.66-.11l-.55,2.74a.44.44,0,0,1-.32.11h-4.27c-.07.51-.15,1.2-.22,2.08s-.25,1.82-.33,2.4a18.31,18.31,0,0,0,5.25.11v.44l-.43,2.19a.49.49,0,0,1-.33.11h-2.3c-.8,0-1.64,0-2.51-.11v.76a2.91,2.91,0,0,0-.11.77v1.09a4.1,4.1,0,0,0,1.09,2.85,4,4,0,0,0,2.52,1h.65a4.69,4.69,0,0,0,3.17-1.09,4.51,4.51,0,0,0,1.1-3v-.43c0-1.24-.7-3-2.08-5.14a2.55,2.55,0,0,0-.33-.55l3.17-.22a9.47,9.47,0,0,1,2.41,6.12v.55a6.33,6.33,0,0,1-2.3,4.81,6.71,6.71,0,0,1-4.81,1.64h-.66a6.88,6.88,0,0,1-4.7-1.85q-1.75-1.42-1.75-4.93v-1.09a14.68,14.68,0,0,1,.11-1.75,17.5,17.5,0,0,0-1.75-.55,11,11,0,0,0-1.86-.54l.22-2.74a15.7,15.7,0,0,0,3.72,1.1v-.55a15.79,15.79,0,0,0,.44-2c.14-.8.25-1.42.32-1.86q-1.3-.33-2.4-.66c-.59-.07-.88-.18-.88-.32l.22-2.74a22,22,0,0,0,3.39,1c.07-.22.18-.62.33-1.21a6.93,6.93,0,0,1,.22-1.09,4,4,0,0,1,.11-.77,14,14,0,0,0,.22-2.07Z"/><path d="M576.48,147.19l3.06.65a43.89,43.89,0,0,0-1,8.21c2.69-2.19,5.32-3.29,7.87-3.29h.77a9.29,9.29,0,0,1,4.92,1.21,5.54,5.54,0,0,1,2.3,4.15v.55a6.54,6.54,0,0,1-2.3,4.81,15.9,15.9,0,0,1-5,2.41,5.4,5.4,0,0,1-2.63.66L583,164.14V164a39,39,0,0,0,4.38-1c2.47-1,3.71-2.34,3.71-3.94v-.44q-.21-3-4-3.28h-.44a12,12,0,0,0-4.37,1.09,7.39,7.39,0,0,0-3.5,3.5l-3.18-1.09c.08-.58.18-1.49.33-2.73q.55-5.15.55-7.77Zm2.3-3.83,1.85-2.08a4.71,4.71,0,0,1,.88.44,36.66,36.66,0,0,1,4.81,2.4v.22l-1.86,2A30.16,30.16,0,0,0,578.78,143.36Z"/><path d="M616.4,146.86H617a6.71,6.71,0,0,1,4.59,1.64,6.62,6.62,0,0,1,2,4.59v.55a6,6,0,0,1-1,3.28,10,10,0,0,1-3,2.84,13.32,13.32,0,0,1-6.56,2.3L611.26,160a16.1,16.1,0,0,0,6.56-2.07c2.19-1.32,3.28-2.88,3.28-4.71v-.44q-.44-3.16-4.48-3.71h-.44a10.74,10.74,0,0,0-3.39.54c-.87.29-1.75.62-2.62,1-.3.14-.7.33-1.21.54a34.19,34.19,0,0,0-3.17,1.75c-.07,0-.15.08-.22.22a.84.84,0,0,1-.76.22l-2.3-2.62c2-.51,4-1.1,6-1.75a2,2,0,0,0,.43-.11C612.1,147.44,614.58,146.79,616.4,146.86Z"/><path d="M629.63,147.51H630l9.52-2c4.15-.88,7.29-1.5,9.4-1.86,1.1-.22,2.19-.4,3.29-.55l.21,3.17h-.65c-3.36,0-5.87.91-7.55,2.74a10.36,10.36,0,0,0-2.84,7.32v.44a5.78,5.78,0,0,0,1.53,4.27q1.53,1.63,4.81,1.53h1.86v3.28H647.9a10.22,10.22,0,0,1-6.89-2.41,8.57,8.57,0,0,1-2.3-6.34v-1.09q0-4.28,3.5-8.54c-1,.22-2.4.59-4.37,1.1-1,.22-1.68.4-2.19.55l-1,.32a12.7,12.7,0,0,0-3.29,1.21Z"/><path d="M667.15,164.25,665,166.44l-5.9-6.46,2.07-1.86Z"/><path d="M114.7,196.44v-2.63h8.42v2.63h-2.74v6.34H123v2.63h-2.63v6.45c.44-.07,1.17-.22,2.19-.44a5.88,5.88,0,0,0,.88-.22v2.85c-.44.07-1.13.21-2.08.43-2.77.51-5,1-6.67,1.43l-.44-2.74,1.75-.33,1.64-.33v-7.1h-2.84v-2.63h2.84v-6.34Zm20.78,21.22q-3.28.1-3.17-3V210h-2.19l-.11.87q0,5.15-6.67,7.33a6.21,6.21,0,0,0-.44-.65,17.64,17.64,0,0,0-1.31-1.75q5.68-1.43,5.69-4.93V210H124.1V193.16H139V210H135v4.16q-.1,1,1.2.87H137c.73.07,1.13-.29,1.2-1.09a20.2,20.2,0,0,0,.22-2.08c.07-.58.11-1,.11-1.2l2.3.87a22.45,22.45,0,0,1-.55,3.5,2.81,2.81,0,0,1-3.06,2.63ZM127,195.45v2.63h9.18v-2.63Zm0,4.81v2.63h9.18v-2.63Zm0,4.82v2.62h9.18v-2.62Z"/><path d="M167.31,202.67c-1.32-.58-2.52-1.13-3.61-1.64v2.08h-6.57v2.95h9.3v2.63h-9.3v6.12h10.94v2.41H143.13v-2.41h10.94v-6.12h-9.29v-2.63h9.29v-2.95h-6.78v-1.86c-1,.51-2.15,1.06-3.39,1.64-.15-.22-.33-.51-.55-.88-.51-.8-.87-1.38-1.09-1.75q9.08-3.49,12.47-8.53l3.39.33-.66.88a22.69,22.69,0,0,0,11.38,6.89c-.15.29-.4.76-.77,1.42S167.45,202.38,167.31,202.67Zm-18.05,11.81c-.58-.72-1.68-2-3.28-3.93l2.19-1.43q1.2,1.32,3.06,3.5c-.15-.14,0,0,.33.44ZM155.82,195a28,28,0,0,1-7.11,5.58h14A26,26,0,0,1,155.82,195Zm5.8,19.47-2.19-1.42a1.17,1.17,0,0,0,.22-.33q2.19-2.4,3.17-3.61l2.41,1.32Q163.81,212.08,161.62,214.48Z"/><path d="M172.56,201.25l-2-2.08a31.27,31.27,0,0,0,8-7.44l3.39.33a11.63,11.63,0,0,1-1.53,1.86h10.28v2.19l-2.51,2.51h5.68v14.44H173.54V200.48Zm-.44,17.06-1.31-2.62a87.17,87.17,0,0,0,9.51-2.3l1.21,2.08Q177.36,216.88,172.12,218.31Zm15-22.09h-8.75a25.67,25.67,0,0,1-2.51,2.4h9Zm-10.72,4.7V203H191v-2.08Zm0,3.94v2.08H191v-2.08Zm0,3.83v2.07H191v-2.07ZM195,218.2q-4.71-1.53-9.3-2.84l1-2c3.71.8,6.85,1.53,9.4,2.19Z"/><path d="M198.59,199.5v-2.63h3.17v-4.7h3v4.7h2.74v2.63h-2.74v5c.88-.22,1.82-.44,2.85-.66v2.74l-2.85.76v7.33c.07,2-1,3-3.17,3.17a20,20,0,0,0-2.3.11,12.46,12.46,0,0,1-.21-1.31q-.22-1.09-.33-1.53h1.64c1,.07,1.49-.33,1.42-1.2v-5.69l-3.17.76-.22-3.06c.22-.07.51-.14.87-.22s1.28-.25,2.52-.54V199.5Zm8,17.5v-2.52h18.16V217Zm2.19-6.13V193.48H223.2v17.39Zm3-14.65v4.59h8.64v-4.59Zm0,7.22v4.81h8.64v-4.81Z"/><path d="M235,193.59q7.88.12,8,11.6t-8,11.48q-8-.1-8.09-11.48Q227.13,193.93,235,193.59Zm0,20.67q4.49.12,4.48-9,.12-9.3-4.48-9.08-4.48-.1-4.48,9.08T235,214.26Z"/><path d="M246.6,217.87v-24.5h23.63v20.35q.11,3.83-3.94,3.94c-1,.07-2.44.11-4.26.11a11.85,11.85,0,0,0-.66-2.74h3.83c1.46.07,2.11-.58,2-2v-5.8H249.56v10.61Zm3-21.76v8.31h7.32v-8.31Zm17.61,0h-7.33v8.31h7.33Z"/><path d="M272.85,198.51h.66a15.13,15.13,0,0,0,3.28-.54l1.31-.33c1.39-.36,2.74-.69,4-1q3.62-.89,7.11-1.54a21.49,21.49,0,0,0,4.37-1,3.3,3.3,0,0,0,.33,1.2,3.75,3.75,0,0,1,.22,1.64l-1.53.33a7.68,7.68,0,0,0-3.72,1.2,8.72,8.72,0,0,0-3.17,4.71,15.34,15.34,0,0,0-.66,3.83v.65a5.8,5.8,0,0,0,1.64,4.27,6.43,6.43,0,0,0,4.27,1.64h.55a7.05,7.05,0,0,0,1.75-.22v3.28h-.88a12.79,12.79,0,0,1-6.89-1.86,8.61,8.61,0,0,1-3.28-6.89v-.55q0-4.26,3.39-9c-2.92.72-5.83,1.53-8.75,2.4a3.41,3.41,0,0,1-.77.22,3,3,0,0,0-1.53.88l-1.75-3.07ZM293,200.05l1.53-1.43q.33.33.87,1a15.77,15.77,0,0,1,1.75,2l-1.53,1.31A17.36,17.36,0,0,0,293,200.05Zm2.95-2.19,1.53-1.31a18.24,18.24,0,0,1,2.52,2.84l-1.64,1.31A21.91,21.91,0,0,0,295.93,197.86Z"/><path d="M305.34,201.25q-2-1.42-4.16-2.74l1.31-2c1.24.65,2.67,1.46,4.27,2.4Zm-1.75,11.37v-2.18h9.29v-1.53h3v1.53h9.51v2.18h-9.51v2.3h11.7v2.3H301.29v-2.3h11.59v-2.3Zm.65-3.39-2.4-1.31c1.24-2,2.4-4.12,3.5-6.23a13.52,13.52,0,0,0,1.53.76,4.69,4.69,0,0,0,.87.44C306.8,204.49,305.63,206.61,304.24,209.23Zm3.18-12.47c-.66-.43-1.61-1-2.85-1.75a13.08,13.08,0,0,1-1.42-.87l1.42-2.08q2.08,1.09,4.38,2.52Zm.54,12c-.36-.66-.76-1.32-1.2-2a33.23,33.23,0,0,0,5.69-3l1.42,1.64C311.68,206.83,309.71,207.92,308,208.8Zm4.27-9.41V198l-1.42.65c-.81.37-1.43.62-1.86.77-.51-.8-1-1.57-1.42-2.3a22.6,22.6,0,0,0,9.18-5.36l3,.33-.66.66a27.24,27.24,0,0,0,8.53,4.15,4.16,4.16,0,0,1-.33.55,17.52,17.52,0,0,0-1,1.86,1.17,1.17,0,0,0-.44-.22,20.51,20.51,0,0,1-3-1.31v1.64H318.9v1.86H326v2.19H318.9v2.29c.07,2.12-.87,3.14-2.84,3.07-.95.07-2,.11-3.07.11a11.34,11.34,0,0,0-.43-2.08c.87.07,1.67.11,2.4.11a1.17,1.17,0,0,0,1.32-1.32v-2.18h-7.55v-2.19h7.55v-1.86Zm5.25-5.14a19.62,19.62,0,0,1-4.49,3.17h9.3A24,24,0,0,1,317.48,194.25Zm8.31,14.55a29,29,0,0,0-3.28-1.75c-.95-.44-1.68-.81-2.19-1.1l1.21-1.75a1,1,0,0,0,.43.22,51.45,51.45,0,0,1,5.14,2.41Z"/><path d="M337.71,201.47V202a6.6,6.6,0,0,0,.44,2.63h.22l1.09-1.75h.33L341,204c-.14.3-.32.7-.54,1.21a10.8,10.8,0,0,0-1.21,4.26v.44a15.44,15.44,0,0,1-2.62.22,8.78,8.78,0,0,1-1.09-2.85,17.73,17.73,0,0,1-.66-4.92v-.87a27.27,27.27,0,0,1,.44-4.05,22.16,22.16,0,0,0,.43-3.61c1.1.07,2.15.18,3.18.33a19.35,19.35,0,0,0-.55,2.3A26.13,26.13,0,0,0,337.71,201.47Zm7.66-7.66,3.61-.33.22.11a11.21,11.21,0,0,0,.22,3.72,4.79,4.79,0,0,0,.21,1.2,37.8,37.8,0,0,1,.33,4.16v1.75a16,16,0,0,1-1.2,6.67,16.42,16.42,0,0,1-4.59,6.68q-.12.21-.33,0l-2.52-1.21-.11-.22a17.5,17.5,0,0,0,3.94-4.7,16.18,16.18,0,0,0,1.75-7.55V202A19.87,19.87,0,0,0,345.37,193.81Z"/><path d="M368.45,205.73c-.44-.36-1.21-.94-2.3-1.75l-1.75-1.42a9.68,9.68,0,0,1-3.72,3.5h19.58V218.2h-2.84v-1.31H363.31v1.31h-2.85v-12c-.65.29-1.35.62-2.08,1a7.61,7.61,0,0,0-1.09-1.86,3.68,3.68,0,0,0-.33-.44q4.82-1.86,5.69-4.16H357.4v-2.19h5.8v-1.85h-5.14v-2.08h5.14l.11-2.52h2.62l-.11,2.52h3.72v2.08h-3.83v1.85h4.05v2.19H365.6c1.32.81,2.77,1.79,4.38,3,2.55-.95,4-1.94,4.48-3h-3.61v-2.19H375V198a5.07,5.07,0,0,0,.11-.88v-.43h-4.05v-2.08h4.05v-2.52h2.62l-.11,2.52h5v2.08h-5l-.1,1.53v.32h5.68v2.19H378c.88,1.68,2.77,2.92,5.69,3.72-.44.73-.87,1.53-1.31,2.41q-4.59-1.86-6-4.6c-.58,1.24-2.22,2.45-4.92,3.61a16.07,16.07,0,0,0-1.42-2.18Zm-5.14,2.52v2.3h14.11v-2.3Zm0,4.26v2.3h14.11v-2.3Z"/><path d="M389.45,201.36H390a30.24,30.24,0,0,0,5.8-.55,11.7,11.7,0,0,0,3.72-.76,1.32,1.32,0,0,0,.66-.44h.21l2.52,1.53c.15.07.18.22.11.44v.11a17.15,17.15,0,0,0-3.5,3.72l-1.31,1.64H399a3.35,3.35,0,0,1,2.08.65,4.46,4.46,0,0,1,.77,2.19,9.06,9.06,0,0,1,.22,1,13.76,13.76,0,0,0,.43,2,1.65,1.65,0,0,0,1.53,1.42h1.32a16.6,16.6,0,0,0,3.93-.54v2.95a29.09,29.09,0,0,1-3.5.22h-2.29a3.5,3.5,0,0,1-3.07-1.42,9.58,9.58,0,0,1-1.09-3.28,1.9,1.9,0,0,0-.11-.55,6.68,6.68,0,0,0-.22-1.09,1.61,1.61,0,0,0-1.42-1,3.07,3.07,0,0,0-2.3,1.31,59.54,59.54,0,0,0-4.7,6h-.22a21.4,21.4,0,0,0-2.73-1.75V215a89,89,0,0,0,7.65-8.42,20,20,0,0,0,2.63-3.72l-.11-.22a11.32,11.32,0,0,1-3.28.88,12.54,12.54,0,0,0-2.52.65,1.09,1.09,0,0,0-.54.22c-.22.22-.41.29-.55.22Zm7-8.75h.22a34.13,34.13,0,0,0,5.36,2.51,1,1,0,0,0,.32.22.84.84,0,0,1,.55.33L402,198l-.33.11a34.14,34.14,0,0,1-6.46-3.07v-.21Z"/><path d="M423.13,192.39l3.5.87v.22l-.76.88c-.07.22-.22.58-.44,1.09a4.22,4.22,0,0,1-.44,1.21,19.23,19.23,0,0,0,4.38-1.1v2.95a30.6,30.6,0,0,1-5.36.88,18.7,18.7,0,0,1-1.64,3.17,8.29,8.29,0,0,1,3.06-.87h.44a4.41,4.41,0,0,1,1.09.22l.22.1a3.82,3.82,0,0,1,1.31,1.21,4.06,4.06,0,0,1,.88,2.19c.66-.3,1.27-.55,1.86-.77l1-.33a17.33,17.33,0,0,0,2-.76,2.1,2.1,0,0,0,.44-.33q.44-.43.66-.33l2.29,2.62v.33a65.32,65.32,0,0,0-7.76,2.08,8,8,0,0,1,.22,1.86v.77a14.33,14.33,0,0,1-.22,1.86,5.63,5.63,0,0,0-.11,1H427a9.57,9.57,0,0,1,.11-1.2V209a10.92,10.92,0,0,0-2.4,1.43c-1.39.94-1.86,2-1.43,3.06S424.78,215,427,215h.44a25.05,25.05,0,0,0,5.47-.77l.33,3.18a29.36,29.36,0,0,1-4.38.33h-1.64a9.41,9.41,0,0,1-4.48-1,4,4,0,0,1-2.3-3.17v-.44a7,7,0,0,1,3.17-5,13.66,13.66,0,0,1,2.19-1.2l1.2-.66a2.87,2.87,0,0,0-1.2-2.19,3.75,3.75,0,0,0-2.08.22c-1.6.8-3.35,2.74-5.25,5.8a6.21,6.21,0,0,0-.44.65l-2.73-1.2a50.48,50.48,0,0,0,5.91-9.95H418l-.76-2.63v-.22a13.71,13.71,0,0,0,2.3.22h2.73a2,2,0,0,0,.11-.43,8.7,8.7,0,0,0,.76-3.5Z"/><path d="M446.43,193.26h.22l3.5.66a11.4,11.4,0,0,1-.33,1.42v15.1a5,5,0,0,0,.66,2.95,3,3,0,0,0,2.3,1.09h.65a4.1,4.1,0,0,0,1.86-.43,11.44,11.44,0,0,0,2.52-1.21,12.4,12.4,0,0,0,3.06-2.73h.22l1.31,2.51c.15.15.15.22,0,.22a13.42,13.42,0,0,1-4.59,3.28,9.77,9.77,0,0,1-4.82,1.21h-.32a6.35,6.35,0,0,1-3.61-1.1,4.3,4.3,0,0,1-2.19-3.17c-.07-1-.11-2.08-.11-3.17V195.56a5.73,5.73,0,0,0-.22-1.31A7.1,7.1,0,0,1,446.43,193.26Z"/><path d="M471,198.51h.33l9.51-2q6.24-1.32,9.41-1.86c1.09-.22,2.19-.4,3.28-.55l.22,3.17h-.66c-3.35,0-5.87.91-7.54,2.74a10.37,10.37,0,0,0-2.85,7.32v.44a5.75,5.75,0,0,0,1.54,4.27q1.53,1.63,4.81,1.53H491v3.28h-1.64a10.16,10.16,0,0,1-6.89-2.41,8.53,8.53,0,0,1-2.3-6.34v-1.09q0-4.28,3.5-8.54c-.95.22-2.41.59-4.38,1.1-.94.22-1.67.4-2.18.55l-1,.32a12.6,12.6,0,0,0-3.28,1.21Z"/><path d="M497.18,196.44V193.7h9.19v2.74h-2.84v17.61c.07,2.18-1,3.28-3.18,3.28-.73.07-1.6.11-2.62.11a15,15,0,0,0-.55-2.63h2.08c1,.07,1.49-.4,1.42-1.42V196.44Zm10.06,22c-.14-.22-.4-.58-.76-1.09s-.62-.88-.77-1.1a50.41,50.41,0,0,0,6.46-2.95l1.64,1.75Q511.29,216.46,507.24,218.42Zm.11-22.75v-2.51h16.19v2.51h-7.22l-.54,2.3h6.67v15H508V198h4.81l.55-2.3Zm3.39,4.49v2.18h9v-2.18Zm0,4.15v2.19h9v-2.19Zm0,4.16v2.19h9v-2.19Zm11.6,9.73q-3-1.63-6.35-3.17l1.54-1.75q4.15,1.75,6.34,2.74Z"/><path d="M542.79,194.69H543a7.45,7.45,0,0,1,1,2.29,11.79,11.79,0,0,1-2.62,1.1l-.88.33a11.2,11.2,0,0,1,.88,1.53,13.12,13.12,0,0,1,.76,1.53c.44-.15,1.1-.4,2-.77l2-.65h.33l1,2-.1.33-1.21.33a12.39,12.39,0,0,1-1.31.44,4.8,4.8,0,0,1-1.42.44,3.06,3.06,0,0,1,.33.65,45.29,45.29,0,0,0,3.06,4.27.31.31,0,0,0,.11.22,1.6,1.6,0,0,1,.44.87l-2.41,2.3a15.65,15.65,0,0,0-8.75-2.3h-.66a5.13,5.13,0,0,0-2.29.44,2,2,0,0,0-1,2.41c.07.29.48.69,1.2,1.2a5.52,5.52,0,0,0,2.52.87,16.59,16.59,0,0,0,3.28.33h.55a7.24,7.24,0,0,0,1.31-.11l-.22,3.07h-.76q-10.17-.56-10.61-5.91v-.55a4.3,4.3,0,0,1,2.18-3.17,10.08,10.08,0,0,1,4.38-1h1.09a18.75,18.75,0,0,1,5.47,1h.11c-.15-.22-.36-.58-.65-1.09s-.7-1.43-1.43-2.74a11.32,11.32,0,0,1-2.29.44,56.56,56.56,0,0,1-6,.55l-.22-.11-1.31-2.08.11-.22h.76a34.89,34.89,0,0,0,6.24-.55,4.75,4.75,0,0,0,1.53-.22L538,199.06a33.52,33.52,0,0,1-4.7,1,6.5,6.5,0,0,0-.66-1,4.92,4.92,0,0,1-.44-.65,1.71,1.71,0,0,1-.44-.77h.33c1.46-.22,3-.51,4.71-.88a8.39,8.39,0,0,0-.55-1.31l-.66-1.31a.62.62,0,0,0-.22-.44,3.19,3.19,0,0,1-.11-.65l3-.55c.43,1.24.87,2.41,1.31,3.5A32,32,0,0,0,542.79,194.69Z"/><path d="M565.76,193.05l3.39.32.11.11a4.77,4.77,0,0,0-.44.88,1.1,1.1,0,0,1-.22.44v.43c-.07.59-.14,1.24-.22,2,.81-.07,1.94-.22,3.4-.44a12.6,12.6,0,0,0,1.42-.21l-.22,2.51a28.29,28.29,0,0,1-4.6.55,9.23,9.23,0,0,1,.11,1.75,16.37,16.37,0,0,1,.11,1.75h.22a21.62,21.62,0,0,0,4.81-.77l-.43,2.52a18.14,18.14,0,0,1-4.38.76q.1,2.52.33,5.25a19.6,19.6,0,0,1,6.13,3.39l-1.32,2a17.76,17.76,0,0,0-4.7-2.51,3.5,3.5,0,0,1-2.19,3.17,7.13,7.13,0,0,1-3.39.66h-1a5.48,5.48,0,0,1-4.05-1.43,3,3,0,0,1-.87-3.61,4.42,4.42,0,0,1,2.07-1.75,11.3,11.3,0,0,1,3.72-.65h1.1a8.91,8.91,0,0,1,1.64.22c-.44-.15-.37-.15.22,0,0-.66-.08-1.64-.22-3a12.89,12.89,0,0,1-.11-1.53h-2.3a34.82,34.82,0,0,1-3.94-.22l-.22-.11-.54-2.4v-.22c.29.07.65.15,1.09.22a19.77,19.77,0,0,0,3.06.33h2.74c0-1.1,0-2.37-.11-3.83h-.66c-1.89,0-3.72-.07-5.47-.22l-.22-.11-.65-2.52a16.56,16.56,0,0,1,2.19.22,25.06,25.06,0,0,0,2.73.22H566V196A23.57,23.57,0,0,0,565.76,193.05Zm-2.41,19.14h-.65c-1.68.14-2.56.76-2.63,1.86.07.43.44.76,1.1,1a13.82,13.82,0,0,0,1.64.11h.65a4.7,4.7,0,0,0,2.41-.44,2.19,2.19,0,0,0,.76-1.75v-.44a9,9,0,0,1-1.09-.1A17,17,0,0,0,563.35,212.19Z"/><path d="M586.43,193.26h.22l3.5.66a11.4,11.4,0,0,1-.33,1.42v15.1a5,5,0,0,0,.66,2.95,3,3,0,0,0,2.3,1.09h.65a4.1,4.1,0,0,0,1.86-.43,11.44,11.44,0,0,0,2.52-1.21,12.4,12.4,0,0,0,3.06-2.73h.22l1.31,2.51c.15.15.15.22,0,.22a13.42,13.42,0,0,1-4.59,3.28,9.77,9.77,0,0,1-4.82,1.21h-.32a6.35,6.35,0,0,1-3.61-1.1,4.3,4.3,0,0,1-2.19-3.17c-.07-1-.11-2.08-.11-3.17V195.56a5.73,5.73,0,0,0-.22-1.31A7.1,7.1,0,0,1,586.43,193.26Z"/><path d="M619.13,192.94h.22l3.28.87v.33a2.61,2.61,0,0,0-1.09,1.75,10.63,10.63,0,0,0-.66,1.86,3.7,3.7,0,0,1-.21.66l3.61-.66a3.45,3.45,0,0,0,.76-.22l.22.11v2.84c-1.75.3-3.5.51-5.25.66a3.73,3.73,0,0,1-.11.55l-.11.22a63.75,63.75,0,0,1-5.8,15l-3-.87-.11-.22a89.42,89.42,0,0,0,6.35-14.55,17.28,17.28,0,0,1-2.19.11c-1,.07-1.68.11-2.19.11l-.22-.11-.44-2.63.11-.22c.29,0,.77,0,1.43.11a10.1,10.1,0,0,0,1.31.11H616a19,19,0,0,0,2.08-.11,3.19,3.19,0,0,0,.22-.65,17.4,17.4,0,0,0,.87-4.38Zm14.77,20.12-.33,3.06a28.23,28.23,0,0,1-3.61.22h-1.09a22.87,22.87,0,0,1-4.81-.54,1.9,1.9,0,0,1-.44-.11q-.76,0-1-.33l-.1-2.52a5.45,5.45,0,0,0,1,.22,28.66,28.66,0,0,0,4.81.55h.55A23.27,23.27,0,0,0,633.9,213.06Zm-6.34-10.72h1c1.17,0,2.41,0,3.72.11l.11,3-.11.1a24.79,24.79,0,0,0-4.7-.65h-1.1a9,9,0,0,0-2.4.33l.43-2.74h1.43C626.64,202.38,627.19,202.34,627.56,202.34Z"/><path d="M640.46,213.39a4.39,4.39,0,0,1,4.49-4.48c2.69.21,4.15,1.71,4.37,4.48-.29,2.48-1.75,3.86-4.37,4.16Q640.9,217.22,640.46,213.39Zm1.75,0c.15,1.46,1.06,2.26,2.74,2.41a2.53,2.53,0,0,0,2.62-2.41,2.65,2.65,0,0,0-2.62-2.73A2.7,2.7,0,0,0,642.21,213.39Z"/><path d="M118.2,260.67l-.33-1.09c-.51,0-1.35,0-2.52.11s-1.93.14-2.51.22a19.23,19.23,0,0,0-2,.32l-.88-2.29a8.21,8.21,0,0,0,1.86-1.75,26.82,26.82,0,0,0,2.63-3.5h-1.2a12.66,12.66,0,0,1-1.32.11,3.93,3.93,0,0,0-.76.11,2.27,2.27,0,0,0-.77.11l-.76-2.19a14.7,14.7,0,0,0,1.42-1.64A41.41,41.41,0,0,0,114.7,243l2.62.88q-2.07,3.39-4.59,6.78c1.31,0,2.37,0,3.17-.11a5.5,5.5,0,0,1,.55-.77q.54-.76,1.53-2.4l2.3,1.2c-3,4.23-5.29,7.29-6.9,9.19l3.72-.22a7.34,7.34,0,0,0-.65-1.64,4,4,0,0,0-.22-.77l2-.65q1,2.19,2.18,5.47Zm-6.35,7.77-2.18-.22c.43-2.12.83-4.3,1.2-6.56l2.08.21Q112.51,265.48,111.85,268.44Zm2.52-.55c0-.22,0-.62-.11-1.2-.07-2-.18-3.65-.33-4.82l2-.1q.43,2.94.66,5.9Zm4.37-.66q-.54-2.4-1.53-5.57l1.75-.44a16.67,16.67,0,0,1,.55,1.75q.33.87,1.2,3.72Zm2.85-10.82a8.14,8.14,0,0,0-1.21-1.43c-.29-.36-.51-.62-.65-.76q4.69-2.62,4.59-7.33h-3.61v-2.62h14.44q0,3.27-.22,6.78c-.07,2.84-1.46,4.23-4.15,4.15a33.36,33.36,0,0,1-3.4.11c-.07-.29-.18-.76-.32-1.42s-.15-1-.22-1.31c.94.07,2,.11,3.17.11,1.46,0,2.19-.77,2.19-2.3,0-.44,0-1.06.11-1.86v-1.64h-5.25Q127.27,253,121.59,256.41Zm0,12.68V257.17h13.34v11.92h-2.84v-1.53h-7.77v1.53Zm2.73-9.29v5.36h7.77V259.8Z"/><path d="M162.49,256.3a31.89,31.89,0,0,1-11.37-9.52,41.21,41.21,0,0,1-11.7,9.84,21.59,21.59,0,0,1-1.43-2.18,5.27,5.27,0,0,1-.32-.55,31.3,31.3,0,0,0,12.25-10.83l3.5.22a6.94,6.94,0,0,1-.66,1.09,28,28,0,0,0,11.59,9.08C163.92,254,163.3,255,162.49,256.3Zm-20.56,13.12-1.09-1.09c-.59-.51-1-.92-1.31-1.21q5.13-2.73,4.81-9.51c.07-.66.11-1.79.11-3.39h3.06v1.31c-.07,1-.11,1.64-.11,2.08Q147.73,265.59,141.93,269.42Zm12.36-.44V254.11h3.06V269Z"/><path d="M167.53,255.31l-2-.65a44.33,44.33,0,0,0,1.42-9.19l2.08.22c-.08.43-.15,1.05-.22,1.86a7.2,7.2,0,0,0-.22,1.53h1.75v-6h2.73v6h2.41v2.51H173.1v5.25l2.41-.65c0,1.09,0,2,.11,2.73l-2.52.77v9.51h-2.73v-8.86c-1.39.44-2.84.88-4.38,1.32l-.21-3.07a8,8,0,0,1,1-.22c.8-.14,2-.43,3.61-.87v-5.91h-2.08C168.07,252.91,167.82,254.15,167.53,255.31Zm9.51-6.45v-2.52h5.47v-3.28h2.84v3.28H191v2.52h-5.69V252h6.78v2.52H176V252h6.56v-3.17ZM176.17,260V257.5H186v-2.08h2.84v2.08H192V260h-3.18v5.46q.12,3.39-3.39,3.39c-1.31.08-2.59.11-3.83.11-.07-.43-.18-1.05-.32-1.86a9.06,9.06,0,0,0-.22-1c.65.07,1.67.11,3.06.11s1.93-.44,1.86-1.53V260Zm4,5.68a26.49,26.49,0,0,0-3.28-3.72l1.86-1.53a42.4,42.4,0,0,1,3.61,3.61Z"/><path d="M194.1,262.86v-2.52h2.19V246.23h6.24v-3.17h2.73v3.17h3.5v-3.17h2.73v3.17h6.24v14.11h2.19v2.52Zm1.32,6.34c-.08-.14-.19-.36-.33-.65a9.11,9.11,0,0,0-.77-1.86,67.87,67.87,0,0,0,9.08-3.28l1.31,2.4Q199.46,267.77,195.42,269.2ZM199,248.75v4.59h3.5v-4.59Zm0,7v4.59h3.5v-4.59Zm6.23-7v4.59h3.5v-4.59Zm0,7v4.59h3.5v-4.59ZM218.6,269.2a77.7,77.7,0,0,0-9.51-3.39l1.09-2.29c1.46.51,3.46,1.16,6,2,1.53.44,2.69.8,3.5,1.1ZM215,248.75h-3.5v4.59H215Zm-3.5,7v4.59H215v-4.59Z"/><path d="M248,255.75v.77a10,10,0,0,1-3,6.89,13.47,13.47,0,0,1-5.47,3.93c0,.15-.07.15-.22,0a10,10,0,0,0-2.51-1.64v-.22c5.25-2.47,7.91-5.65,8-9.51v-.55a7.11,7.11,0,0,0-2.4-5,8.79,8.79,0,0,0-4.6-2,60.42,60.42,0,0,1-2.4,8,51.54,51.54,0,0,1-3.39,7.11q-1.42,2.63-3.5,2.62-3.28-.11-5.47-3.72a7.69,7.69,0,0,1-1.1-3.72v-.54a10.09,10.09,0,0,1,.88-3.61,12.68,12.68,0,0,1,2-3.28,12.39,12.39,0,0,1,5.9-4.49,15.65,15.65,0,0,1,5-1.09H237a11,11,0,0,1,8,2.95A10.38,10.38,0,0,1,248,255.75ZM225,257.61v.55a6.05,6.05,0,0,0,1.09,3.39,2.51,2.51,0,0,0,2.08,1.31,2.79,2.79,0,0,0,1.86-1.31,21.49,21.49,0,0,0,1.09-2c.15-.37.26-.62.33-.77a36.69,36.69,0,0,0,3.72-10.39,17.45,17.45,0,0,0-4.16,1.1,14.74,14.74,0,0,0-4.48,4A8.56,8.56,0,0,0,225,257.61Z"/><path d="M250,267.23v-2.84h26v2.84Zm1.64-18.81v-3.06h22.65v3.06Zm1.32,9.19v-3.06h20.12v3.06Z"/><path d="M281.82,256.3c-.8-.81-2-1.86-3.61-3.18.15.15,0,0-.54-.43l1.86-2q1,.66,3.06,2.4l1.31,1ZM281.17,269l-3-.87q1.65-5.25,2.74-9.74c1.24.44,2.15.73,2.73.88q-.54,2.19-1.64,6.34Q281.38,268,281.17,269Zm1.31-20-2-1.64c-.95-.88-1.68-1.53-2.19-2l1.86-2c.29.22.77.58,1.42,1.09q1.75,1.32,2.85,2.19Zm10.28,19.69v-5.25h-4.38v5.68h-2.84V251.37h7.22v-2.29h-7.88v-2.41h7.88V243h2.84v3.72h3.94a4.92,4.92,0,0,0-.33-.55,11.38,11.38,0,0,0-1.53-2.07l2.52-.66a31.29,31.29,0,0,1,2,2.73l-1.54.55h3.61v2.41H295.6v2.29H303V266c0,1.82-.87,2.77-2.62,2.84h-3.07c-.07-.29-.18-.84-.32-1.64a4,4,0,0,0-.22-.65H299c.88,0,1.28-.33,1.21-1v-2.18h-4.6v5.25Zm-4.38-14.88v2.63h4.38v-2.63Zm0,4.81v2.63h4.38v-2.63Zm11.82-4.81h-4.6v2.63h4.6Zm-4.6,4.81v2.63h4.6v-2.63Z"/><path d="M306.32,253v-3h11.05q.11-2.4.11-6.89h3.28l-.22,6.89h11v3H320.65q1.43,9.41,11.48,13a14.1,14.1,0,0,0-2.07,2.74Q321,264.83,319,257.17q-1.75,7.44-11.05,11.92c-.22-.29-.62-.84-1.2-1.64-.44-.51-.73-.87-.88-1.09Q316.38,262,317,253Z"/><path d="M334.1,250.72V248.2h3.18v-5.14H340v5.14H343v2.52H340v2.95q2.3,1.76,3.83,3.17l-1.64,2.3-1.53-1.53L340,257V269.2h-2.73V256.52a26,26,0,0,1-3.07,6.23,9.06,9.06,0,0,1-.22-1c-.21-1.39-.4-2.37-.54-3a24.77,24.77,0,0,0,3.72-8.09Zm24.72,17.94q-7.87-3.29-9.84-10.94h-2v7.87c.44-.14,1.09-.4,2-.76,1.16-.44,2.08-.77,2.73-1,0,1,0,1.9.11,2.63q-2.29.76-4.92,1.75l-2,1-1.53-2.29a2.52,2.52,0,0,0,.88-2.19V244.16h14.1v13.56h-6.67a22.93,22.93,0,0,0,1.75,3.72c.22-.15.51-.33.88-.55q1.64-1.09,3.72-2.62l1.75,2.07q-2.19,1.43-4.82,2.85a15.59,15.59,0,0,0,5.36,2.84c-.22.36-.51.88-.87,1.53S359,268.44,358.82,268.66Zm-11.81-22v3.06h8.64v-3.06Zm0,8.53h8.64v-3.06H347Z"/><path d="M369.76,265.48q-1.2-1.74-2.84-3.93a20.76,20.76,0,0,1-3.39,7.43l-2-2q3.82-4.71,3.72-13.68.21-6.66.21-10.17H368v3.61c-.07,2.12-.11,3.68-.11,4.7a36.19,36.19,0,0,0,2.19-3.82l1.64,1.75q-.76,1.31-2.41,3.71-.54.88-.87,1.32l-.66-.55a28.87,28.87,0,0,1-.33,4.7q2.52,2.85,3.94,4.71Zm-6.78-10c-.29-2-.77-4.26-1.42-6.89l1.86-.44c.14.66.36,1.64.65,3,.37,1.75.66,3.06.88,3.93Zm7.65-.87v-2.41h3v-2.41h2.51v2.41h6.24v-2.41H385v2.41h3.28v2.41H385v3.5h2.85v2.29h-4.93v4.92c-.07.73.33,1.06,1.21,1h.44c.8.07,1.23-.26,1.31-1a13,13,0,0,0,.44-2.51v-.33l2.07.77a20,20,0,0,1-.43,2.95c-.3,1.6-1.35,2.41-3.18,2.41H383.1c-2,0-3-.88-3-2.63v-5.58h-2.62q.21,6.57-6.57,8.86a19.37,19.37,0,0,0-1.75-2.19q6-1.53,5.58-6.67H371v-2.29h2.63v-3.5Zm7.33-11.6h2.52v2.85h6.23v2.4h-6.23v2.41H378v-2.41h-6.12v-2.4H378Zm-1.86,11.6v3.5h6.24v-3.5Z"/><path d="M390,246.67v-2.19h13.89v2.19h-3.6V250h3.17v19.14H401v-1.64h-8v1.64h-2.3V250h3.17v-3.28Zm2.85,5.47v6.13a9.62,9.62,0,0,0,1.75-6.13Zm.11,6.23-.11-.1v.1Zm7,0c-1.32,0-2-.72-2-2.18v-4.05h-1.75a11.67,11.67,0,0,1-1.86,7.44,9.68,9.68,0,0,0-1.31-1.1v2.19h8v-2.3Zm-6.89,4.38v2.73h8v-2.73Zm3.17-16.08V250H398v-3.28Zm5,5.47h-1.64v3.28a1,1,0,0,0,1.09,1.1h.55Zm3.17-.87v-2.63h6.67v-5.58h2.74v5.58h2.4v2.63h-2.4v13.78q.11,3.82-3.72,3.82h-3.39l-.33-1.31c-.15-.65-.26-1.13-.33-1.42h1.31c.81.07,1.39.11,1.75.11,1.39.07,2.05-.55,2-1.86V251.27Zm3.17,9.51a36.51,36.51,0,0,0-2.07-3.94c-.52-.94-.88-1.64-1.1-2.07l2.19-1.21c1.16,2,2.3,4,3.39,5.8Z"/><path d="M430.35,244.05l3.39.32.11.11a4.82,4.82,0,0,0-.43.88,1.46,1.46,0,0,1-.22.44v.43c-.08.59-.15,1.24-.22,2,.8-.07,1.93-.22,3.39-.43a14.19,14.19,0,0,0,1.42-.22l-.22,2.51a28,28,0,0,1-4.59.55,10.17,10.17,0,0,1,.11,1.75c.07.73.11,1.31.11,1.75h.22a21.81,21.81,0,0,0,4.81-.77l-.44,2.52a18.14,18.14,0,0,1-4.37.76c.07,1.68.18,3.43.32,5.25a19.32,19.32,0,0,1,6.13,3.4l-1.31,2a17.86,17.86,0,0,0-4.71-2.51,3.51,3.51,0,0,1-2.18,3.17,7.18,7.18,0,0,1-3.39.66h-1a5.48,5.48,0,0,1-4.05-1.43,3,3,0,0,1-.87-3.6,4.34,4.34,0,0,1,2.08-1.75,11.06,11.06,0,0,1,3.72-.66h1.09a8.91,8.91,0,0,1,1.64.22c-.44-.15-.37-.15.22,0a28.36,28.36,0,0,0-.22-3c-.07-.65-.11-1.16-.11-1.53h-2.3a34.51,34.51,0,0,1-3.93-.22l-.22-.1-.55-2.41v-.22c.29.07.66.15,1.09.22a20,20,0,0,0,3.07.33h2.73c0-1.1,0-2.37-.11-3.83h-.65c-1.9,0-3.72-.07-5.47-.22l-.22-.11-.66-2.51a16.2,16.2,0,0,1,2.19.21,25.06,25.06,0,0,0,2.73.22h2.08V247A23.57,23.57,0,0,0,430.35,244.05ZM428,263.19h-.66c-1.68.14-2.55.76-2.62,1.86.07.43.43.76,1.09,1a13.82,13.82,0,0,0,1.64.11h.66a4.66,4.66,0,0,0,2.4-.44,2.18,2.18,0,0,0,.77-1.75v-.43a9.59,9.59,0,0,1-1.1-.11A17,17,0,0,0,428,263.19Z"/><path d="M445.45,249.52h.65a15.2,15.2,0,0,0,3.28-.55l1.32-.33c1.38-.36,2.73-.69,4-1q3.61-.89,7.11-1.54a21.79,21.79,0,0,0,4.38-1,3.3,3.3,0,0,0,.33,1.2,3.75,3.75,0,0,1,.22,1.64l-1.54.33a7.49,7.49,0,0,0-3.71,1.21,8.62,8.62,0,0,0-3.18,4.7,15.72,15.72,0,0,0-.65,3.83v.65a5.77,5.77,0,0,0,1.64,4.27,6.38,6.38,0,0,0,4.26,1.64h.55a7,7,0,0,0,1.75-.22v3.28H465a12.8,12.8,0,0,1-6.9-1.86,8.64,8.64,0,0,1-3.28-6.89v-.55q0-4.26,3.39-9c-2.91.72-5.83,1.53-8.75,2.4a3.29,3.29,0,0,1-.76.22,3,3,0,0,0-1.53.88l-1.75-3.07Zm20.12,1.53,1.53-1.43c.22.22.51.55.88,1a17.62,17.62,0,0,1,1.75,2l-1.53,1.31A17.33,17.33,0,0,0,465.57,251.05Zm3-2.19,1.53-1.31a18.7,18.7,0,0,1,2.51,2.84l-1.64,1.31A22.66,22.66,0,0,0,468.53,248.86Z"/><path d="M475,269.42q-.23-.54-.66-1.53a7.13,7.13,0,0,0-.33-.77,12.29,12.29,0,0,1,1.32-.21q6-.66,8.64-1.1l1,1.75c-1.31.29-3.43.69-6.34,1.21Zm-.88-22.31v-2h3.18V243.5h2.84v1.64H484v-2.08h2.84v2.08h5.91v-2.08h2.84v2.08h4.38v2h-4.38V250H484v-2.84h-3.83v4.16h18.59v1.85H477.28v-6Zm3.07,18.26V254.55h20v10.82Zm2.84-9.18v1.42h14.33v-1.42Zm0,3.06v1.42h14.33v-1.42Zm0,2.95v1.42h14.33V262.2Zm6.78-15.31v1.42h5.91v-1.42Zm12.47,22.31c-3.94-.73-7.33-1.27-10.17-1.64l1-1.75a12.07,12.07,0,0,0,1.42.22c3.94.36,6.82.73,8.64,1.09Z"/><path d="M518.4,248.86H519a6.71,6.71,0,0,1,4.59,1.64,6.62,6.62,0,0,1,2,4.59v.55a6,6,0,0,1-1,3.28,10.14,10.14,0,0,1-3,2.85,13.41,13.41,0,0,1-6.56,2.29L513.26,262a16.1,16.1,0,0,0,6.56-2.07c2.19-1.32,3.28-2.88,3.28-4.71v-.43q-.44-3.18-4.48-3.72h-.44a10.74,10.74,0,0,0-3.39.54c-.87.29-1.75.62-2.62,1-.3.14-.7.33-1.21.54a34.19,34.19,0,0,0-3.17,1.75c-.07,0-.15.08-.22.22a.84.84,0,0,1-.76.22l-2.3-2.62c2-.51,4.05-1.1,6-1.75a2,2,0,0,0,.43-.11C514.1,249.44,516.58,248.79,518.4,248.86Z"/><path d="M531.63,249.52H532l9.52-2c4.15-.88,7.29-1.5,9.4-1.86,1.1-.22,2.19-.4,3.29-.55l.21,3.17h-.65c-3.36,0-5.87.91-7.55,2.74a10.36,10.36,0,0,0-2.84,7.32v.44a5.78,5.78,0,0,0,1.53,4.27q1.53,1.64,4.81,1.53h1.86v3.28H549.9a10.17,10.17,0,0,1-6.89-2.41,8.57,8.57,0,0,1-2.3-6.34v-1.09q0-4.28,3.5-8.53c-1,.21-2.4.58-4.37,1.09-1,.22-1.68.4-2.19.55l-1,.32a12.7,12.7,0,0,0-3.29,1.21Z"/><path d="M563,244.27h.21l3.5.65a13.34,13.34,0,0,1-.32,1.42v15.1a5,5,0,0,0,.65,2.95,3,3,0,0,0,2.3,1.09H570a4.09,4.09,0,0,0,1.85-.43,11.23,11.23,0,0,0,2.52-1.21,12.06,12.06,0,0,0,3.06-2.73h.22l1.31,2.51c.15.15.15.22,0,.22a13.42,13.42,0,0,1-4.59,3.28,9.74,9.74,0,0,1-4.81,1.21h-.33a6.37,6.37,0,0,1-3.61-1.1,4.3,4.3,0,0,1-2.19-3.17c-.07-1-.11-2.08-.11-3.17V246.56a5.73,5.73,0,0,0-.22-1.31A6.77,6.77,0,0,1,563,244.27Z"/><path d="M598.35,244.05l3.39.32.11.11a4.82,4.82,0,0,0-.43.88,1.46,1.46,0,0,1-.22.44v.43c-.08.59-.15,1.24-.22,2,.8-.07,1.93-.22,3.39-.43a14.19,14.19,0,0,0,1.42-.22l-.22,2.51a28,28,0,0,1-4.59.55,10.17,10.17,0,0,1,.11,1.75c.07.73.11,1.31.11,1.75h.22a21.81,21.81,0,0,0,4.81-.77l-.44,2.52a18.14,18.14,0,0,1-4.37.76c.07,1.68.18,3.43.32,5.25a19.32,19.32,0,0,1,6.13,3.4l-1.31,2a17.86,17.86,0,0,0-4.71-2.51,3.51,3.51,0,0,1-2.18,3.17,7.18,7.18,0,0,1-3.39.66h-1a5.48,5.48,0,0,1-4-1.43,3,3,0,0,1-.87-3.6,4.34,4.34,0,0,1,2.08-1.75,11.06,11.06,0,0,1,3.72-.66h1.09a8.91,8.91,0,0,1,1.64.22c-.44-.15-.37-.15.22,0a28.36,28.36,0,0,0-.22-3c-.07-.65-.11-1.16-.11-1.53h-2.3a34.51,34.51,0,0,1-3.93-.22l-.22-.1-.55-2.41v-.22c.29.07.66.15,1.09.22a20,20,0,0,0,3.07.33h2.73c0-1.1,0-2.37-.11-3.83h-.65c-1.9,0-3.72-.07-5.47-.22l-.22-.11-.66-2.51a16.2,16.2,0,0,1,2.19.21,25.06,25.06,0,0,0,2.73.22h2.08V247A23.57,23.57,0,0,0,598.35,244.05ZM596,263.19h-.66c-1.68.14-2.55.76-2.62,1.86.07.43.43.76,1.09,1a13.82,13.82,0,0,0,1.64.11h.66a4.66,4.66,0,0,0,2.4-.44,2.18,2.18,0,0,0,.77-1.75v-.43a9.59,9.59,0,0,1-1.1-.11A17,17,0,0,0,596,263.19Z"/><path d="M614.87,247.77l.11-.11c1.31.21,2.55.47,3.72.76a2.74,2.74,0,0,1-.22.77,4.52,4.52,0,0,0-.22,1.2,7,7,0,0,0-.11,1.31v.77a20.5,20.5,0,0,0,.44,4.59,38.24,38.24,0,0,0,1.53,4.38c.51,1.16,1.13,1.75,1.86,1.75a2.6,2.6,0,0,0,1.64-.77,9,9,0,0,0,1.75-2.08h.22l1.31,2q.23.1,0,.33a4.79,4.79,0,0,1-1.53,2,5.19,5.19,0,0,1-3.61,1.53q-2.62,0-4.16-3.39a22.48,22.48,0,0,1-.76-2.19,6.73,6.73,0,0,0-.44-1.42,56.42,56.42,0,0,1-1-6.12,9.59,9.59,0,0,0-.11-1.1,8.53,8.53,0,0,0-.22-1c0-.37,0-.91-.11-1.64A8.43,8.43,0,0,0,614.87,247.77Zm16.3,2.84,2.51-.77h.22a38.63,38.63,0,0,1,4.27,7.11,7.2,7.2,0,0,1,1,2.41l-2.62,1.2h-.44a30.43,30.43,0,0,0-5-9.62Z"/><path d="M653.15,266.25,651,268.44l-5.9-6.46,2.07-1.86Z"/><path d="M236.32,304v-3h11.05q.1-2.4.11-6.89h3.28l-.22,6.89h11v3H250.65q1.42,9.41,11.48,13a14.1,14.1,0,0,0-2.07,2.74Q251,315.83,249,308.17q-1.75,7.44-11,11.92c-.22-.29-.62-.84-1.2-1.64-.44-.51-.73-.87-.88-1.09Q246.38,313,247,304Z"/><path d="M265.53,307.73a8.54,8.54,0,0,0-1.21-1.42,6.79,6.79,0,0,0-.54-.65A36.53,36.53,0,0,0,269,301l1.75,2Q269,304.67,265.53,307.73Zm-.33,12.58c-.22-.44-.7-1.31-1.42-2.62a51.32,51.32,0,0,0,10.28-2.08,25.56,25.56,0,0,1-3.72-3.83,29.17,29.17,0,0,1-3.94,3.28,84.89,84.89,0,0,1-1.86-2.19,25.11,25.11,0,0,0,7.33-7l3.06.33a4.74,4.74,0,0,1-.55.77c-.21.36-.4.65-.54.87h11.7v2.52a21.25,21.25,0,0,1-5.69,5.25,37,37,0,0,0,10.28,1.64c-.65,1.31-1.13,2.22-1.42,2.73a35.71,35.71,0,0,1-11.81-3A50.16,50.16,0,0,1,265.2,320.31Zm-.88-20.67v-2.52h11.6a26.88,26.88,0,0,0-1-2.84l3.28-.33,1,3.17h10.5v2.52h-8.1v6.67h-2.84v-6.67h-3.61v5.8h-2.73v-5.8ZM282,310.25h-9.73a21.29,21.29,0,0,0,4.7,4.05A22.16,22.16,0,0,0,282,310.25Zm6.13-2.41-2.52-2.51c-1.17-1.1-2-1.93-2.62-2.52l1.75-1.75q1.74,1.43,5,4.49l.32.32Z"/><path d="M295.6,307.19c-.43-.44-1.16-1.1-2.18-2-.81-.66-1.39-1.17-1.75-1.53l1.75-2c1.38,1.09,2.77,2.22,4.15,3.39Zm.55-7.33q-2.4-2.19-4-3.5l1.86-2c1.39,1.09,2.77,2.22,4.16,3.39ZM294.84,320l-2.74-.76a3.5,3.5,0,0,1,.11-.55c1-3.79,1.68-6.93,2.19-9.4l1.31.32A12.38,12.38,0,0,0,297,310Q296.37,313.32,294.84,320Zm8-4v-6.46h1.86v4.6h2v-5.8h-5.36V320h-2.51V306h7.76v-2.29h-8.09v-2.3h4.26v-2.52h-4.48v-2.29h4.48v-2.52h2.74v2.52h5v-2.52h2.73v2.52H318v2.29h-4.82v2.52h4.49v2.3h-8.42V306h7.87v10.94c.07,1.9-1,2.88-3.17,2.95h-3.61a4.52,4.52,0,0,0-.22-1.2c-.07-.51-.15-.91-.22-1.2.73.07,1.75.11,3.06.11,1.1,0,1.61-.44,1.54-1.31v-8h-5.36v5.8h2v-4.6H313v6.46Zm2.63-17.07v2.52h5v-2.52Z"/><path d="M323.06,305.33V295.27h20.45v10.06H335v4.15h9.73v2.63H335v4.59c2,.08,5.8.11,11.26.11a11.62,11.62,0,0,0-.87,2.52c-5.62,0-9.44,0-11.49-.11q-6.12-.12-8.53-3.94a21.44,21.44,0,0,1-3.61,5.14c-.73-.87-1.42-1.64-2.07-2.3q4.15-3.6,4.48-10.71l2.84.43q-.21,2.3-.54,4.05,1.86,4,5.47,4.59V305.33Zm3.06-7.55v4.92h14.33v-4.92Z"/><path d="M353,295.27h.21l3.5.65a13.34,13.34,0,0,1-.32,1.42v15.1a5,5,0,0,0,.65,2.95,3,3,0,0,0,2.3,1.09H360a4.09,4.09,0,0,0,1.85-.43,11.23,11.23,0,0,0,2.52-1.21,12.06,12.06,0,0,0,3.06-2.73h.22l1.31,2.51c.15.15.15.22,0,.22a13.42,13.42,0,0,1-4.59,3.28,9.74,9.74,0,0,1-4.81,1.21h-.33a6.37,6.37,0,0,1-3.61-1.1,4.3,4.3,0,0,1-2.19-3.17c-.07-1-.11-2.08-.11-3.17V297.56a5.73,5.73,0,0,0-.22-1.31A6.77,6.77,0,0,1,353,295.27Z"/><path d="M377.63,300.52H378l9.52-2c4.15-.88,7.29-1.5,9.4-1.86,1.1-.22,2.19-.4,3.29-.55l.21,3.17h-.65c-3.36,0-5.87.91-7.55,2.74a10.36,10.36,0,0,0-2.84,7.32v.44a5.78,5.78,0,0,0,1.53,4.27q1.53,1.64,4.81,1.53h1.86v3.28H395.9a10.17,10.17,0,0,1-6.89-2.41,8.57,8.57,0,0,1-2.3-6.34v-1.09q0-4.28,3.5-8.53c-.95.21-2.4.58-4.37,1.09-.95.22-1.68.4-2.19.55l-1,.32a12.7,12.7,0,0,0-3.29,1.21Z"/><path d="M410.88,295.81h.77c.36,0,.91,0,1.64.11a8.91,8.91,0,0,0,1.64.22l.11.22a17.2,17.2,0,0,0-.76,4.48,3.72,3.72,0,0,1,1.09-.32c1.09-.37,1.93-.66,2.51-.88l.11,2.73a38.46,38.46,0,0,1-3.93,1.1,16.15,16.15,0,0,0-.11,2v1.86a14.15,14.15,0,0,1,5.9-1.53h.44a8.13,8.13,0,0,1,4.38,1.09,5,5,0,0,1,2.18,3.94v.54a5.48,5.48,0,0,1-.65,2.63,7.06,7.06,0,0,1-2,2.19,11.63,11.63,0,0,1-5.8,2,27.67,27.67,0,0,0-1.75-2.51,12.13,12.13,0,0,0,3.61-.77,5.74,5.74,0,0,0,3.06-2.18,3,3,0,0,0,0-2.74,3.93,3.93,0,0,0-3.28-1.53h-.54a12.31,12.31,0,0,0-5.36,1.53,4.25,4.25,0,0,0,.11.88c0,.36,0,.94.1,1.75.15,1.53.22,2.69.22,3.5v.54a2.75,2.75,0,0,1-1.64,2.63,5.8,5.8,0,0,1-3.17-.55c-2.62-.95-3.94-2.19-3.94-3.72a5.26,5.26,0,0,1,1.53-3.39,16.72,16.72,0,0,1,3.83-2.95c-.07-1.6-.07-3.14,0-4.59a11.72,11.72,0,0,0-1.31.1,22.36,22.36,0,0,1-2.62.22h-.77l-.33-2.73.11-.22a13,13,0,0,0,2.41.22,12.22,12.22,0,0,0,2.62-.22A45.94,45.94,0,0,0,410.88,295.81Zm.55,15.75a.33.33,0,0,0-.22.11,4.78,4.78,0,0,0-2.29,2.3,1.67,1.67,0,0,0,.43,1.64c.88.73,1.57.87,2.08.44q.33-.23.33-1a8.39,8.39,0,0,0-.22-1.86v-.87A5,5,0,0,1,411.43,311.56Zm16.63-9.62.11.11-1.32,2.29h-.22a59.62,59.62,0,0,0-5.35-3.17V301l1.31-1.86.22-.11A51.92,51.92,0,0,1,428.06,301.94Z"/><path d="M440.31,303.47V304a6.6,6.6,0,0,0,.43,2.62H441l1.1-1.75h.32l1.21,1.09c-.15.3-.33.7-.55,1.21a10.93,10.93,0,0,0-1.2,4.26v.44a15.56,15.56,0,0,1-2.63.22,9,9,0,0,1-1.09-2.84,17.85,17.85,0,0,1-.66-4.93v-.87a28.72,28.72,0,0,1,.44-4.05,22.44,22.44,0,0,0,.44-3.61c1.09.07,2.15.18,3.17.33a21.51,21.51,0,0,0-.55,2.3A26.78,26.78,0,0,0,440.31,303.47Zm7.65-7.66,3.61-.33.22.11a11.48,11.48,0,0,0,.22,3.72,4.58,4.58,0,0,0,.22,1.21,37.48,37.48,0,0,1,.33,4.15v1.75a15.88,15.88,0,0,1-1.21,6.67,16.42,16.42,0,0,1-4.59,6.68q-.11.21-.33,0l-2.51-1.21-.11-.22a17.45,17.45,0,0,0,3.93-4.7,16.18,16.18,0,0,0,1.75-7.55V304A19.89,19.89,0,0,0,448,295.81Z"/><path d="M472.35,295.05l3.39.32.11.11a4.82,4.82,0,0,0-.43.88,1.46,1.46,0,0,1-.22.44v.43c-.08.59-.15,1.24-.22,2,.8-.07,1.93-.22,3.39-.43a14.19,14.19,0,0,0,1.42-.22l-.22,2.51a28,28,0,0,1-4.59.55,10.17,10.17,0,0,1,.11,1.75c.07.73.11,1.31.11,1.75h.22a21.81,21.81,0,0,0,4.81-.77l-.44,2.52a18.14,18.14,0,0,1-4.37.76c.07,1.68.18,3.43.32,5.25a19.32,19.32,0,0,1,6.13,3.4l-1.31,2a17.86,17.86,0,0,0-4.71-2.51,3.51,3.51,0,0,1-2.18,3.17,7.18,7.18,0,0,1-3.39.66h-1a5.48,5.48,0,0,1-4.05-1.43,3,3,0,0,1-.87-3.6,4.34,4.34,0,0,1,2.08-1.75,11.06,11.06,0,0,1,3.72-.66h1.09a8.91,8.91,0,0,1,1.64.22c-.44-.15-.37-.15.22,0a28.36,28.36,0,0,0-.22-3c-.07-.65-.11-1.16-.11-1.53h-2.3a34.51,34.51,0,0,1-3.93-.22l-.22-.1-.55-2.41v-.22c.29.07.66.15,1.09.22a20,20,0,0,0,3.07.33h2.73c0-1.1,0-2.37-.11-3.83h-.65c-1.9,0-3.72-.07-5.47-.22l-.22-.11-.66-2.51a16.2,16.2,0,0,1,2.19.21,25.06,25.06,0,0,0,2.73.22h2.08V298A23.57,23.57,0,0,0,472.35,295.05ZM470,314.19h-.66c-1.68.14-2.55.76-2.62,1.86.07.43.43.76,1.09,1a13.82,13.82,0,0,0,1.64.11h.66a4.66,4.66,0,0,0,2.4-.44,2.18,2.18,0,0,0,.77-1.75v-.43a9.59,9.59,0,0,1-1.1-.11A17,17,0,0,0,470,314.19Z"/><path d="M500.46,293.73l3.83.66a10.13,10.13,0,0,0-.55,3.39v1h9v3.17a43.94,43.94,0,0,0-8.2-.55h-.77v3.39l.11.11a6.1,6.1,0,0,1,1,3.72v1.86a13.59,13.59,0,0,1-1.1,4.59,17.31,17.31,0,0,1-2.4,3.61c-.66.66-1.35,1.31-2.08,2H499a13.79,13.79,0,0,0-3.17-1.53v-.22a10.9,10.9,0,0,0,5.8-5.58,4.43,4.43,0,0,1-4.27,0,5.16,5.16,0,0,1-2.19-4.37v-.55q.56-4.49,4.6-5h1.31v-2h-1.2a41.4,41.4,0,0,0-9.3,1.09l-.22-.11-1.09-3.17.11-.22c.21,0,.61,0,1.2.11a10.1,10.1,0,0,0,1.31.11h1.31c.29,0,.92,0,1.86-.11q3.39-.1,6-.22c-.15-1.67-.33-3.13-.55-4.37A5,5,0,0,1,500.46,293.73Zm.66,14.66V307c-.07-.73-.37-1.13-.88-1.2a1.49,1.49,0,0,0-1.09.43,2.81,2.81,0,0,0-1,2.19v.66c.07,1.46.54,2.22,1.42,2.29.51,0,.94-.4,1.31-1.2A3.43,3.43,0,0,0,501.12,308.39Z"/><path d="M519.06,315.39c.22-2.77,1.71-4.27,4.48-4.48,2.7.21,4.16,1.71,4.38,4.48-.3,2.48-1.75,3.86-4.38,4.16Q519.49,319.22,519.06,315.39Zm1.75,0c.14,1.46,1.05,2.26,2.73,2.41a2.54,2.54,0,0,0,2.63-2.41,2.66,2.66,0,0,0-2.63-2.73A2.69,2.69,0,0,0,520.81,315.39Z"/></g></g></svg>