<svg xmlns="http://www.w3.org/2000/svg" viewBox="0 0 759.89 428.94"><defs><style>.cls-1{fill:#fff;}</style></defs><g id="レイヤー_2" data-name="レイヤー 2"><g id="_4" data-name="4"><path class="cls-1" d="M121.11,422.23c4.9-1.9,12.1-10.7,16.6-14.1,4.3-3.2,9.3-6.3,12.8-10.4a62.77,62.77,0,0,0,8.8-14.1,47.08,47.08,0,0,0,4.6-16,35,35,0,0,0-3.5-16.3,39.23,39.23,0,0,0-10.1-13.1c-4-3.4-9.5-5.9-15-8.7-4.8-2.5-10.5-3.9-16.1-6.2-5.1-2.1-10.2-4.9-15.7-7.1-5.2-2.1-10.6-4.3-16-6.5s-10.9-3.8-16.1-6.4-9.8-6.1-14.8-9.1a150.6,150.6,0,0,1-14.2-9.9c-4.5-3.5-8.3-7.8-12.3-12.1-3.9-4.1-8.1-8-11.3-13-3-4.7-5-10.1-7.3-15.6a107.32,107.32,0,0,1-5.1-16.3c-1.3-5.3-3.3-10.8-3.9-16.8a155.72,155.72,0,0,1-1.1-17.3A164.18,164.18,0,0,1,3.11,176a158.89,158.89,0,0,1,3-17c1.3-5.6,3.5-10.9,5.4-16.3s2.3-11.5,4.8-16.7a150.39,150.39,0,0,1,8.6-15.1c3-4.8,6.8-9.2,10.4-13.8a170,170,0,0,1,11.1-13.3c4-4,8.9-7.1,13.4-10.9,4.3-3.6,8.2-8.1,13-11.5,4.6-3.2,10-5.5,15.1-8.4,4.8-2.8,10.2-4.9,15.5-7.5,5-2.5,10-5.3,15.4-7.6,5.2-2.2,10.1-5.3,15.7-7.3,5.3-1.9,11.2-2.4,16.8-4.2,5.4-1.6,11-2.8,16.7-4.3,5.5-1.4,10.6-4.6,16.3-5.8,5.5-1.2,11.3-1.4,17.1-2.5,5.5-1,11.3-1.1,17.1-1.9,5.6-.8,11.1-3.3,16.9-4,5.6-.7,11.4-.9,17.2-1.4,5.6-.5,11.4-.7,17.2-1,5.6-.4,11.4.2,17.3-.1,5.7-.2,11.4-.9,17.2-1s11.4-.5,17.2-.5,11.4-.3,17.3-.2c5.7.1,11.4.9,17,1.1s11.4-.1,17,0,11.4,1.4,17,1.5,11.4-.6,17.1-.4,11.3,1.3,17,1.5,11.4-.1,17,.2,11.4-.3,17.1.1,11.4.7,17,1.1,11.4.8,17,1.3,11.4,1.2,17,1.8,11.4,1.2,16.9,1.9c5.7.7,11.3,1.9,16.8,2.7,5.7.8,11.3,1.8,16.8,2.7,5.7,1,11.2,2.3,16.7,3.4s11,3.3,16.4,4.6c5.6,1.3,11.2,2.4,16.6,3.8,5.6,1.5,10.9,3.3,16.3,5s11,3.3,16.2,5.2c5.4,2,11,3.4,16.1,5.6q8,3.6,15.3,7.5c5.1,2.7,9.1,7,13.8,10s10.3,5.2,14.7,8.7a153.81,153.81,0,0,1,12.7,11.4,135,135,0,0,1,11.1,12.9c3.6,4.4,7.7,8.5,10.7,13.3s5.2,10.1,7.6,15.3a152.45,152.45,0,0,1,5.7,16.1c1.7,5.3,2.5,10.9,3.6,16.6a168.88,168.88,0,0,1,2.6,16.8c.6,5.5,2.5,11.1,2.6,16.9s-1.5,11.4-2,16.9c-.5,5.8-.5,11.5-1.6,16.9a119.54,119.54,0,0,1-4.5,16.4c-1.9,5.4-5.3,10-7.9,15s-4.7,10.3-7.9,14.9a125.85,125.85,0,0,1-23.2,24.4c-4.2,3.7-7.8,8.2-12.4,11.5s-9.8,5.5-14.7,8.4-9.7,5.6-14.8,8.1-10.1,4.9-15.4,7.1-10.1,4.9-15.5,6.8-11,2.7-16.4,4.3-10.6,3.9-16.1,5.3-11.2,1.8-16.7,2.9-11,2.7-16.5,3.7-11.1,2.1-16.7,2.9-11.2,1.6-16.8,2.2-11.4-.2-17,.3-11.2,2.5-16.8,2.9-11.4,0-17,.3-11.4,1.1-16.9,1.2c-5.7.1-11.4-1.5-17-1.5-5.8,0-11.4,1.1-16.9,1-5.8-.1-11.5,0-17-.2-5.9-.3-11.4-2.2-16.8-2.6-6.3-.4-12.3-.4-18-.7-6.3-.4-12.4-.6-18-.9-6.4-.3-12.4.1-18.1,0-6.5-.2-12.5.3-18,.3-6.6,0-12.6-.3-18-.1-6.8.3-12.6,1.2-17.9,1.9a98.63,98.63,0,0,0-17.5,3.7,59.06,59.06,0,0,0-15.9,7.9c-4.7,3.3-9.9,6.1-14.6,10.6a75.74,75.74,0,0,1-14,10.7,145.62,145.62,0,0,1-15.8,8c-5.3,2.3-10.6,5-16.4,7-5.6,1.9-11.5,3-17.2,4.5s-11.6,3.1-17.3,4.2c-6.1,1.2-12,1.9-17.6,2.6-6.5.8-12.4,1.8-17.6,1.8C111.91,423.73,108,427.33,121.11,422.23Z"/><path d="M122.71,426.23c5.6-2.7,9.6-7.9,14.2-12,5-4.5,11-7.6,15.5-12.8,9-10.3,15.5-25.4,12.8-39.2-2.5-12.6-9.9-24.5-21-31.3a119.26,119.26,0,0,0-21.5-9.8c-8.2-2.9-15.9-7-23.9-10.3-7.3-2.9-14.5-5.9-21.9-8.7-8.3-3.1-15.3-7.9-22.7-12.6a103.78,103.78,0,0,1-19.9-15.6c-7.4-7.6-15.1-15-19.3-24.9-7.3-17.1-12.6-36.3-11.6-55.1a181,181,0,0,1,2.7-22c1.7-9.7,5.2-18.4,7.9-27.8,2.1-7.5,3.6-14,7.5-20.9,4.5-8,9.9-15.1,15.6-22.3,5.1-6.4,9.9-12.7,16.4-17.8,7.1-5.6,13.5-12.4,20.9-17.6,13.1-9.2,29.2-15.9,43.7-22.6,7-3.2,13.9-7.3,21.5-9.4,8.3-2.2,16.8-4.1,25.1-6.2,7.6-1.9,14.7-5.7,22.4-7.2a245.72,245.72,0,0,1,25.6-3.4c8-.8,15.2-3.3,23.1-4.6,8.4-1.4,17.2-1.7,25.7-2.1,16.4-.9,32.8-1.2,49.3-1.7s32.7.4,49.1.6c8.9.1,17.5.3,26.4,1.2,7.4.7,14.8-.3,22.2,0,8.2.3,16.1,1.6,24.3,1.6s16.3-.1,24.3.1c33.1.8,66.3,5.4,98.9,10.9,32,5.4,63.1,15.2,93.9,25.3a133.18,133.18,0,0,1,22.3,9.7c6.9,3.7,12.4,9.2,19.1,13a100.08,100.08,0,0,1,20.3,14.5c6.7,6.3,12.1,13.5,18.1,20.4,12.4,14.2,17.9,32.5,21.4,50.7,1.5,7.5,2.2,15.2,3.6,22.7,1,5.4,2,10.1,1.4,15.5-.5,4.4-1.5,8.8-1.8,13.2-.7,8.5-1.4,16.4-3.7,24.7-2.5,8.8-7.1,16-11.1,24-3.3,6.6-6.5,12.7-11.3,18.5-6.2,7.5-13.3,13.4-20.3,20-5.5,5.2-10.2,9.9-16.8,13.6-7.8,4.3-15.4,8.8-23.4,12.8a234.39,234.39,0,0,1-45,17.5c-7,1.9-13.7,4.9-20.8,6.4-8.7,1.8-17.4,3.3-26.1,5.2-16.6,3.6-33.5,6.1-50.4,6.1-7.9,0-15.2,2.7-23,3.1-9.2.5-18.4.5-27.7,1.2-7.8.6-15.3-1.4-23-1.2-8.5.1-17,.9-25.5.9-8.2,0-15.7-2-23.8-2.7-8.7-.7-17.5-.7-26.2-1.2-17.2-.8-34.4,0-51.7-.2-15.3-.2-31.2.6-46,5-14.5,4.3-25.7,13.9-37.1,23.3-12.2,10-28.8,17.7-43.9,22.3a302.19,302.19,0,0,1-49.6,10.6c-11.9,1.5-23.9,1.7-35.8,3.4,1.1,2.6,2.1,5.3,3.2,7.9,1.1-1.3,5.8-2.1,7.4-2.7s-1.6-8.5-3.2-7.9c-1.8.7-6.3,1.3-7.6,2.7s1.3,8.2,3.2,7.9c12.7-1.9,25.5-2.1,38.2-3.7,17.3-2.2,35.7-5.8,52.1-12,14.9-5.6,30.3-12.7,42.2-23.4,11.4-10.3,24.8-18.9,40-22.1,16.4-3.5,32.4-3,49-3.4,17.7-.4,35.3,0,53,.8,17.4.8,34.3,3.9,51.7,3.4,4-.1,8.1-.8,12.1-.9,4.8-.1,9.4.7,14.2,1.2,7.4.7,14.7-.6,22.2-1,9.1-.4,17.6-.1,26.5-1.9s17.9-.8,27-1.8c17.6-2,34.6-6.4,52-9.3a129.75,129.75,0,0,0,22.3-5.5c8-2.8,16.5-4,24.4-7,15.8-6.2,30.8-14.2,45.5-22.3,28.3-15.6,50.4-41.4,63.4-71,6.5-14.8,7.2-32.1,8.8-48,.8-7.8-1.3-14.9-2.4-22.6-1.1-8-2.4-15.8-3.9-23.7-5.9-30.9-22.4-57.3-45.5-78.4a93.06,93.06,0,0,0-18.3-12.9c-6.5-3.6-11.7-8.8-18.1-12.5-14.8-8.5-31.4-13.2-47.6-18.4-63.1-20-129.7-28.9-195.8-28.7-8.2,0-16.2-1.5-24.3-1.6-9.3-.2-18.3.2-27.6-.8-7.4-.7-14.8-.2-22.3-.4-9-.2-17.9-1.2-26.9-1-16.8.3-33.7,1.8-50.5,1.6-7.8-.1-15.6.4-23.4.9-9,.7-18.2.9-26.9,3.2-16.6,4.4-34.8,2.9-50.9,9.2-7.8,3-15.5,4.9-23.6,7.1-7.9,2.2-16.2,3.3-23.7,6.8-15.7,7.1-31.2,14.8-46.4,22.9a91.56,91.56,0,0,0-19.9,14.2c-6.7,6.1-14.4,10.9-20.4,17.8-10.1,11.6-20.7,24.5-27,38.7-3.3,7.5-4.6,15.9-7.3,23.6a120,120,0,0,0-5.6,24.4c-4.1,30.1.6,62.5,16,89.2,3.6,6.2,8.6,11.1,13.5,16.3a123.35,123.35,0,0,0,18.6,16.8,216.51,216.51,0,0,0,20.8,13.4c7.6,4.1,16.1,6.6,24.1,9.9,7.3,3,14.4,6,21.6,9.3,8.3,3.8,17.1,6.3,25.2,10.6,11.2,5.8,21.4,14.8,20.8,28.6-.4,9-5.2,18.5-10.3,25.8-4.9,6.9-11.8,10.6-18,16.1-4.6,4.1-8.5,9.3-14.2,12C117.91,419,121.31,426.93,122.71,426.23Z"/><path d="M178.66,77.63V74.9h11.93V72.05l7.65-4.92H181.07V64.4h21.66v3.39l-9,5.69V74.9h11.37v2.73H193.76v7q.11,3.95-3.83,3.94c-1.46.07-3,.11-4.7.11a27.45,27.45,0,0,0-.55-3c.66.07,1.9.11,3.72.11q2.29.1,2.19-2.19v-6Z"/><path d="M207.21,78.62c-.07-.44-.18-1.1-.33-2s-.25-1.61-.33-2A39.91,39.91,0,0,0,211.91,63l3,.76a45.48,45.48,0,0,1-2.3,5.8V89.12h-2.84V75C208.92,76.17,208.09,77.38,207.21,78.62ZM216,89.12a17,17,0,0,0-2.3-2.08,37.08,37.08,0,0,0,6-5.69L222.09,83Q219.14,86.05,216,89.12Zm-1.2-18.05V68.44H218V63.09h2.84v5.35H226V63.09h2.85v5.35h3.28v2.63h-3.28V78H233v2.63H213.88V78H218V71.07Zm6.12,0V78H226V71.07ZM230.73,89c-1.9-2-3.9-3.94-6-5.91l2.19-1.75c.73.66,1.75,1.61,3.06,2.84L233,86.93Z"/><path d="M241.45,65.05l3.71.88c-.07.22-.18.51-.32.87a4.92,4.92,0,0,0-.33.55,6.34,6.34,0,0,0-.22,1.2,2,2,0,0,0-.11.55,11.94,11.94,0,0,0-.22,1.31,4.46,4.46,0,0,0-.22,1.1,3,3,0,0,1,.88-.11,7,7,0,0,1,.87-.11,3.16,3.16,0,0,0,.66-.11h1.09a5.11,5.11,0,0,1,2.08.44,2.68,2.68,0,0,1,1.09,2.18v1.32a28.72,28.72,0,0,1-1,6.89c-.51,2.48-1.5,3.9-3,4.26a8,8,0,0,1-3.39.77h-.77q-.33-.77-.87-1.86a7.94,7.94,0,0,1-.44-1l.11-.21a3.93,3.93,0,0,1,.76.11,8,8,0,0,0,1.53.21h.44a2.46,2.46,0,0,0,2.3-1.42,17.52,17.52,0,0,0,1-2.95,26.22,26.22,0,0,0,.66-5,1.26,1.26,0,0,0-1.53-1.31c-.37.07-.92.14-1.64.21l-1.64.33a35.74,35.74,0,0,1-6,12.14l-.22.11a10.63,10.63,0,0,0-1.75-.76,4.4,4.4,0,0,0-.87-.44V85a27.93,27.93,0,0,0,3.93-5.58,25.1,25.1,0,0,0,1.65-3.72,8.46,8.46,0,0,0,.43-1,30.72,30.72,0,0,0-3.28,1.09,1.59,1.59,0,0,1-1,.33L234.66,73l.22-.22a3.16,3.16,0,0,1,.66.11,1.8,1.8,0,0,0,.87,0c.51-.07,1.28-.22,2.3-.44s1.64-.36,2.08-.44a2.16,2.16,0,0,1,.11-.65,24.44,24.44,0,0,0,.55-5.14Zm16.73,10.61-.11.22-2.3,1.31a35.71,35.71,0,0,0-5.36-7.43v-.33l2.08-1.2A31.07,31.07,0,0,1,258.18,75.66Zm.77-7.32v.21l-1.43,1.21h-.22a8.39,8.39,0,0,0-2.62-2.85v-.22L256,65.6h.22A24.83,24.83,0,0,1,259,68.34Zm-1.54-3.72V64.4l1.32-1.1H259a1,1,0,0,0,.32.22c.51.44,1.1,1,1.75,1.64a1.81,1.81,0,0,1,.66,1.1l-1.31,1.2h-.22A11.19,11.19,0,0,0,257.41,64.62Z"/><path d="M265.62,83.21a24.06,24.06,0,0,0-3.07-1.2,68.16,68.16,0,0,0,5-13.13l3.17.88Q268.57,76.43,265.62,83.21Zm3.93,5.36a9.25,9.25,0,0,0-.65-2.95c.87.07,2,.11,3.5.11s2.33-.59,2.19-2.19V63.19h3.17V84.52q.21,4-4.05,4Zm16.52-5.69q-2.19-5.91-5.36-13l3-1q1.43,3.28,4.71,10.94a18.19,18.19,0,0,1,.87,2Z"/><path d="M291,82.23V79.49h12.14v-.76L307.62,76h-12V73.37H312V76l-5.69,3.5h10.61v2.74H306.2V85.4q.1,3.5-3.72,3.5h-4.27q-.33-1.53-.66-2.85h1.75c.81.08,1.43.11,1.86.11,1.46.15,2.12-.43,2-1.75V82.23Zm.66-7.88v-6h16.4l-.43-.22c1.46-2,2.62-3.65,3.5-5l3.17,1c-.29.37-.7.91-1.2,1.64-.88,1.17-1.54,2-2,2.63h5v6H313.3V71H294.49v3.39ZM296,68.12c-.29-.44-.73-1.13-1.31-2.08s-1.13-1.53-1.42-2l2.95-.88c1,1.32,2,2.59,2.85,3.83Zm7.11-.55c-.14-.22-.36-.62-.65-1.2a33,33,0,0,1-1.75-3l2.95-.54c.87,1.31,1.75,2.66,2.62,4Z"/><path d="M318.88,70.74V68.12h3.17V62.87h2.74v5.25h2.62v2.62h-2.62v2.52l.33.33c.8.65,1.78,1.49,2.95,2.51l-1.53,2.3-1.75-2V89.12h-2.74V76.54a37.5,37.5,0,0,1-2.84,6.23c-.07-.36-.22-1-.44-1.86a10.7,10.7,0,0,0-.43-2,32.4,32.4,0,0,0,3.61-8.2Zm24.61,17.94a36.32,36.32,0,0,1-7.33-3.83,31.16,31.16,0,0,1-7.87,4.27,18,18,0,0,0-1.64-2.63,22.13,22.13,0,0,0,7.55-3.61,21.75,21.75,0,0,1-3.61-6.23l2.4-1a22.31,22.31,0,0,0,3.17,5.25,15.6,15.6,0,0,0,3-5.47l2.62.88a18.57,18.57,0,0,1-3.61,6.56,19.65,19.65,0,0,0,7.11,3.17,11.69,11.69,0,0,1-.87,1.32C344,88,343.71,88.39,343.49,88.68ZM329.16,77.19a21.92,21.92,0,0,0-1.64-2.07,41.64,41.64,0,0,0,5.58-5.25l2,1.75A56.08,56.08,0,0,1,329.16,77.19Zm-.65-7.87V66.69h6.78c-.29-1.09-.66-2.22-1.09-3.39l2.84-.43,1.2,3.82h6.46v2.63Zm14.87,7.55c-2-1.9-3.93-3.65-5.9-5.25l1.75-1.75q2.07,1.63,5.47,4.59l.32.33Z"/><path d="M350.05,65.05l3.83,1.21a5.94,5.94,0,0,1-.54,1.42c-.15.36-.26.66-.33.87a22.06,22.06,0,0,0-1.75,8.64v.88a10.27,10.27,0,0,0,1.09,5h.11c.15-.29.33-.69.55-1.2a6.85,6.85,0,0,0,.54-1.1l1.21.22c-.08.37-.18.88-.33,1.53a17.73,17.73,0,0,0-.55,3.5v.66l-2.62.55a10.06,10.06,0,0,1-2-4.27,23.3,23.3,0,0,1-.55-5.58v-1.2a28.45,28.45,0,0,1,.88-7,15.8,15.8,0,0,0,.43-3.61Zm13.79,17.5h1a23.19,23.19,0,0,0,6.13-.87l.1,2.95a15.19,15.19,0,0,1-5,.77h-1.2q-5.15,0-7.77-2.41a2.87,2.87,0,0,1-.87-1.31l2-1.2A7.48,7.48,0,0,0,363.84,82.55ZM364,67.46h1.2a39.43,39.43,0,0,1,4.26.22v2.84c-.51,0-1.2,0-2.07-.11s-1.54-.11-2-.11h-1.21a21.91,21.91,0,0,0-3.06.33,17.68,17.68,0,0,1-2.84.33L358,68a19.71,19.71,0,0,0,2.51-.22A26.76,26.76,0,0,1,364,67.46Z"/><path d="M374.88,87.59V84.85H385V63.19h3.39v7.88h10.5v3h-10.5V84.85h12.57v2.74Z"/><path d="M409.45,65.05l3.71.88c-.07.22-.18.51-.32.87a4.92,4.92,0,0,0-.33.55,6.34,6.34,0,0,0-.22,1.2,2,2,0,0,0-.11.55,11.94,11.94,0,0,0-.22,1.31,4.46,4.46,0,0,0-.22,1.1,3,3,0,0,1,.88-.11,7,7,0,0,1,.87-.11,3.16,3.16,0,0,0,.66-.11h1.09a5.11,5.11,0,0,1,2.08.44,2.68,2.68,0,0,1,1.09,2.18v1.32a28.72,28.72,0,0,1-1,6.89c-.51,2.48-1.5,3.9-2.95,4.26a8,8,0,0,1-3.39.77h-.77q-.33-.77-.87-1.86a7.94,7.94,0,0,1-.44-1l.11-.21a3.93,3.93,0,0,1,.76.11,8,8,0,0,0,1.53.21h.44a2.46,2.46,0,0,0,2.3-1.42,17.52,17.52,0,0,0,1-2.95,26.22,26.22,0,0,0,.66-5,1.26,1.26,0,0,0-1.53-1.31c-.37.07-.92.14-1.64.21l-1.64.33a35.74,35.74,0,0,1-6,12.14l-.22.11a10.63,10.63,0,0,0-1.75-.76,4.4,4.4,0,0,0-.87-.44V85a27.93,27.93,0,0,0,3.93-5.58,25.1,25.1,0,0,0,1.65-3.72,8.46,8.46,0,0,0,.43-1,30.72,30.72,0,0,0-3.28,1.09,1.59,1.59,0,0,1-1,.33L402.66,73l.22-.22a3.16,3.16,0,0,1,.66.11,1.8,1.8,0,0,0,.87,0c.51-.07,1.28-.22,2.3-.44s1.64-.36,2.08-.44a2.16,2.16,0,0,1,.11-.65,24.44,24.44,0,0,0,.55-5.14Zm16.73,10.61-.11.22-2.3,1.31a35.71,35.71,0,0,0-5.36-7.43v-.33l2.08-1.2A31.07,31.07,0,0,1,426.18,75.66Zm.77-7.32v.21l-1.43,1.21h-.22a8.39,8.39,0,0,0-2.62-2.85v-.22L424,65.6h.22A24.83,24.83,0,0,1,427,68.34Zm-1.54-3.72V64.4l1.32-1.1H427a1,1,0,0,0,.32.22c.51.44,1.1,1,1.75,1.64a1.81,1.81,0,0,1,.66,1.1l-1.31,1.2h-.22A11.19,11.19,0,0,0,425.41,64.62Z"/><path d="M435.59,66.48h1.53a25.8,25.8,0,0,0,8.09-1.1.9.9,0,0,0,.44-.11,1.8,1.8,0,0,1,.65-.22h.11l2.85,2.3v.11a11.27,11.27,0,0,0-2.52,2.41L445,71.94c-.8.88-1.42,1.57-1.86,2.08a10.36,10.36,0,0,0,1.32-.11,9.42,9.42,0,0,1,1.2-.11h.55A7.82,7.82,0,0,1,451,75.55a6.07,6.07,0,0,1,2.08,4.71v.33a6.49,6.49,0,0,1-3.29,5.35,9.75,9.75,0,0,1-5.46,1.65h-.44c-3.36-.3-5.14-1.54-5.36-3.72v-.44c.22-1.9,1.46-3,3.72-3.17h.54c1.83,0,3.61,1.16,5.36,3.5a4.69,4.69,0,0,0,1.75-3.39v-.55c-.21-2-1.57-3.17-4-3.39h-.55A9.33,9.33,0,0,0,438,80.26a.35.35,0,0,1-.11.22,1.9,1.9,0,0,1-.54.54l-2.63-2v-.32A41.44,41.44,0,0,0,444,68.55a15.11,15.11,0,0,0-6,1.32c-.07,0-.15.07-.22.22a.83.83,0,0,1-.76.21l-1.42-3.61Zm7.32,18.7h.55a4.32,4.32,0,0,0,1.42-.22,1.49,1.49,0,0,0-.76-1.2,2.57,2.57,0,0,0-2.63-.88c-.65.37-.84.84-.54,1.42A2.27,2.27,0,0,0,442.91,85.18Z"/><path d="M471,82.77h2.3a35.33,35.33,0,0,0,8.09-1v3.5a45.19,45.19,0,0,1-8.42.65h-1.64a12.36,12.36,0,0,1-5.14-.87,13.3,13.3,0,0,1-3.83-2.84V81.9l1.86-1.64c.07-.15.11-.15.11,0a8.93,8.93,0,0,0,3.17,2.08A10.27,10.27,0,0,0,471,82.77Zm.55-15.31h.88a25,25,0,0,0,5.14-.77c-.08,0,0,0,.32-.1v3.17c-1.53.14-3,.22-4.48.22h-2.52c-1.53-.08-3-.22-4.48-.44l-.22-.11-.66-3.06.11-.11c.22.07.51.14.88.22A19.31,19.31,0,0,0,471.57,67.46Z"/><path d="M506.13,68.55l2.41,2.74v.22A39.67,39.67,0,0,0,497.93,76a13.36,13.36,0,0,0-3.39,3.28,3.8,3.8,0,0,0-.66,1.86v.44a3.37,3.37,0,0,0,2.08,3,8.49,8.49,0,0,0,3.72.66h.77a22.74,22.74,0,0,0,6.34-.88l.22,3.29c-1.9.14-3.72.21-5.47.21H499.9a9.86,9.86,0,0,1-5.8-1.2,5.43,5.43,0,0,1-2.84-4.92v-.55c.07-2.48,1.57-4.74,4.48-6.78a1.11,1.11,0,0,1,.55-.44,44.31,44.31,0,0,0-3.5-9.18l2.95-.55a62.4,62.4,0,0,1,3.28,8.2l3.94-2A12.46,12.46,0,0,0,506.13,68.55Z"/><path d="M525,63.3h.43l3.17.88v.22a1.65,1.65,0,0,0-.54.87l-.33.66c-.29.95-.55,1.93-.77,2.95a.73.73,0,0,1-.11.33,4.6,4.6,0,0,1-.21.55h2.07a10.74,10.74,0,0,0,1.86-.22,3.16,3.16,0,0,1,.66-.11l-.55,2.73a.41.41,0,0,1-.33.11H526c-.07.51-.15,1.21-.22,2.08-.15,1-.26,1.82-.33,2.41a18.31,18.31,0,0,0,5.25.11v.43l-.44,2.19a.44.44,0,0,1-.32.11h-2.3c-.8,0-1.64,0-2.52-.11v.77a3.31,3.31,0,0,0-.11.76v1.1a4.08,4.08,0,0,0,1.1,2.84,3.89,3.89,0,0,0,2.51,1h.66a4.64,4.64,0,0,0,3.17-1.09,4.48,4.48,0,0,0,1.1-2.95v-.44c0-1.24-.7-2.95-2.08-5.14a3.25,3.25,0,0,0-.33-.55l3.17-.22a9.55,9.55,0,0,1,2.41,6.13v.55a6.38,6.38,0,0,1-2.3,4.81,6.78,6.78,0,0,1-4.81,1.64H529a6.85,6.85,0,0,1-4.7-1.86q-1.75-1.42-1.75-4.92V80.8a14.82,14.82,0,0,1,.11-1.75c-.37-.14-.95-.32-1.75-.54A11.54,11.54,0,0,0,519,78l.22-2.73A15.55,15.55,0,0,0,523,76.32v-.55a13.76,13.76,0,0,0,.43-2q.23-1.2.33-1.86c-.87-.21-1.68-.43-2.4-.65s-.88-.18-.88-.33l.22-2.73a22.79,22.79,0,0,0,3.39,1q.1-.33.33-1.2a6.08,6.08,0,0,1,.22-1.1,3.93,3.93,0,0,1,.11-.76,14.28,14.28,0,0,0,.22-2.08Z"/><path d="M548,68.77h1.64c.37,0,1,0,1.75-.11h.88a1.9,1.9,0,0,1,.11-.54,28,28,0,0,0,.22-2.85,7.26,7.26,0,0,0-.11-1.09h.54c.37,0,.88,0,1.54.11a12.31,12.31,0,0,0,1.31.11,1.64,1.64,0,0,1-.22,1.09,1,1,0,0,0-.22.55,4.41,4.41,0,0,1-.22,1.09,7.26,7.26,0,0,1-.22,1.21,4,4,0,0,0,1.21-.22,29,29,0,0,0,4.92-1.1v2.74c-2,.43-4,.84-6,1.2h-.54c-.08.73-.15,1.6-.22,2.63a18.19,18.19,0,0,1,3.39-.66,1.55,1.55,0,0,1,.11-.44v-.65c-.08-.15,0-.3.22-.44l2.62.44.11.21-.11.11c-.07.15-.18.44-.33.88a7.18,7.18,0,0,1,4.38,1.64A8.15,8.15,0,0,1,567.27,80v.76q-.1,3.95-4.26,6.57a5.36,5.36,0,0,1-2.63,1.09h-.11a11.63,11.63,0,0,0-2.4-2.08,8.54,8.54,0,0,0,4.7-1.75,5.64,5.64,0,0,0,2.08-4v-.33a5.4,5.4,0,0,0-2.3-4.27,4.59,4.59,0,0,0-1.2-.44h-.22a4.1,4.1,0,0,0-1.2-.32,25.72,25.72,0,0,1-4.71,8,15.35,15.35,0,0,0,.77,2c-.22.07-.59.22-1.09.44a3.33,3.33,0,0,1-1.21.32c-.22,0-.4-.21-.54-.65a2.2,2.2,0,0,1-1.21.65,6.54,6.54,0,0,1-4,1.65h-.44q-2.52-.12-2.74-3.72v-.44q.11-3.18,3.18-6.45a14.13,14.13,0,0,1,4-2.52c0-.44,0-1.13.11-2.08a6.25,6.25,0,0,1,.11-1.09h-1.64c-.8.07-1.42.11-1.86.11h-1.64c-.22,0-.33,0-.33-.11a3,3,0,0,1-.65-1.53v-.11c-.22-.44-.26-.77-.11-1A22.89,22.89,0,0,0,548,68.77Zm4.16,14-.11-.33a45.46,45.46,0,0,1-.33-5.46,9.65,9.65,0,0,0-4,4.15,3.86,3.86,0,0,0-.66,2.19c.07,1.09.55,1.64,1.42,1.64a4.33,4.33,0,0,0,2.74-1.2A5.74,5.74,0,0,1,552.18,82.77Zm2.19-7V78.4a6.45,6.45,0,0,0,.11,2,19.06,19.06,0,0,0,2.84-5.25c-1.24.22-2.12.4-2.62.54A.44.44,0,0,1,554.37,75.77Z"/><path d="M579.2,72.38v.55a6.56,6.56,0,0,0,.43,2.62h.22L581,73.8h.32l1.21,1.1c-.15.29-.33.69-.55,1.2a10.93,10.93,0,0,0-1.2,4.27v.43a15.56,15.56,0,0,1-2.63.22A8.71,8.71,0,0,1,577,78.18a17.73,17.73,0,0,1-.66-4.92v-.88a28.76,28.76,0,0,1,.44-4,22.56,22.56,0,0,0,.44-3.61c1.09.07,2.15.18,3.17.32a22.11,22.11,0,0,0-.55,2.3A26.06,26.06,0,0,0,579.2,72.38Zm7.65-7.65,3.61-.33.22.11a11.5,11.5,0,0,0,.22,3.72,4.52,4.52,0,0,0,.22,1.2,37.62,37.62,0,0,1,.33,4.16v1.75A15.94,15.94,0,0,1,590.24,82a16.38,16.38,0,0,1-4.59,6.67q-.1.21-.33,0l-2.52-1.2-.1-.22a17.33,17.33,0,0,0,3.93-4.71A16.14,16.14,0,0,0,588.38,75V72.93A19.84,19.84,0,0,0,586.85,64.73Z"/><path d="M78.6,137.21h2.29a34.89,34.89,0,0,0,8.1-1v3.5a45.09,45.09,0,0,1-8.42.66H78.92a12.39,12.39,0,0,1-5.14-.87A13.15,13.15,0,0,1,70,136.66v-.33l1.86-1.64c.07-.14.1-.14.1,0a8.61,8.61,0,0,0,3.18,2.08A10.14,10.14,0,0,0,78.6,137.21Zm.54-15.31H80a25.7,25.7,0,0,0,5.14-.77c-.07,0,0,0,.33-.11v3.17c-1.53.15-3,.22-4.49.22H78.49A43.49,43.49,0,0,1,74,124l-.22-.11-.65-3.06.11-.11a6,6,0,0,0,.87.22A19.07,19.07,0,0,0,79.14,121.9Z"/><path d="M101.24,120.69v-.54a6.85,6.85,0,0,0-.22-1.54,29.08,29.08,0,0,0,3.72.22v.33a3.53,3.53,0,0,0-.66,1.2,1,1,0,0,0-.11.33,31.56,31.56,0,0,0-.65,3.28c.07,0,.1,0,.1-.11l2,1.54c.08.14,0,.32-.22.54a.31.31,0,0,0-.21.11,3.67,3.67,0,0,0-.55.88q-.43.54-.66.87c.37-.29.91-.76,1.64-1.42q3.51-3.5,6.13-3.39H112a4.17,4.17,0,0,1,1.86.44,2.66,2.66,0,0,1,1.2,2v.43a51.42,51.42,0,0,1-.55,6.24c-.22,1.38-.36,2.4-.44,3.06a4.41,4.41,0,0,0,.11,2.3c.29.65.88.84,1.75.54a6.13,6.13,0,0,0,2.52-1.64l.44-.43.11-.11c.36-.59.72-.88,1.09-.88l.87,3a21.74,21.74,0,0,1-2.84,2.52,6,6,0,0,1-3.06,1.09h-.44a4.23,4.23,0,0,1-2.51-1.2,6,6,0,0,1-.77-3.28v-.44a39,39,0,0,1,.55-5.36,10.24,10.24,0,0,1,.22-1.42,4.58,4.58,0,0,1,.1-.76,7.36,7.36,0,0,0,.22-1.54V127c-.14-.88-.87-1.24-2.18-1.1a9.64,9.64,0,0,0-2.74,1.75l-.22.22a32.43,32.43,0,0,0-3.61,3.28,4.7,4.7,0,0,0-.54.77l-.66.65v.88c0,1.17.11,2.95.33,5.36.14,1.68.22,3,.22,3.83H99.82v-4.16c0-1,0-1.86.1-2.73a39.15,39.15,0,0,0-3.28,4.59h-.22L94,139v-.22q5.69-6.12,6.67-10.83l-1.53.66a11.35,11.35,0,0,0-3.39,1.64l-1.53-3.28.11-.22a16.86,16.86,0,0,0,6.45-1.31c.07-.37.15-.92.22-1.64s.11-1.17.11-1.54a3.93,3.93,0,0,1,.11-.76Z"/><path d="M134.82,125.61h1.64a2.38,2.38,0,0,1,2.18.88,3.36,3.36,0,0,1,.66,2.08V129a24.21,24.21,0,0,1-1,6.45q-.88,3.82-3.07,4.92a7.42,7.42,0,0,1-3.72.77H131c-.22,0-.33,0-.33-.11-.15-.3-.33-.7-.55-1.21a15.49,15.49,0,0,0-.76-1.53v-.11a9.57,9.57,0,0,1,1.2.11,7.61,7.61,0,0,0,1.09.11h.44a2.33,2.33,0,0,0,2.08-1,7,7,0,0,0,1.09-2,.33.33,0,0,0,.11-.22,14.23,14.23,0,0,0,1-5.25v-.66c-.08-.8-.44-1.24-1.1-1.31a19.42,19.42,0,0,0-2.4.22,9.7,9.7,0,0,1-1.21.11,41.89,41.89,0,0,1-4.15,9,18.84,18.84,0,0,1-2.3,3.06,2.85,2.85,0,0,1-1.31-.55,5.27,5.27,0,0,0-.55-.32.33.33,0,0,1-.22-.11c-.44-.08-.69-.22-.76-.44a18.31,18.31,0,0,0,4.26-5.91q1.1-2.19,2.08-4.26a8.22,8.22,0,0,0-3.17.87l-.11.11a1.34,1.34,0,0,1-.77.22l-1.53-3.17.11-.22a10.14,10.14,0,0,0,3.06,0,9.59,9.59,0,0,1,1.1-.11,7.19,7.19,0,0,1,2.08-.33c.14-.44.25-.8.32-1.09a13.7,13.7,0,0,0,.66-4.38v-.76a1,1,0,0,1-.11-.44c.29.07.69.15,1.2.22,1,.15,1.83.29,2.41.44a1.65,1.65,0,0,1-.44,1,.33.33,0,0,0-.11.22,5,5,0,0,0-.32,1.53,1.61,1.61,0,0,0-.11.55,6.46,6.46,0,0,1-.22,1.2c-.08.51-.15.91-.22,1.2A13.43,13.43,0,0,1,134.82,125.61Zm5.35-1.42v-.33a7.25,7.25,0,0,1,1-.76c.44-.37.76-.62,1-.77s.55.08,1,.66a16.09,16.09,0,0,1,2.08,2.3,50.21,50.21,0,0,1,3.39,4.48v.33L146,131.74A44.53,44.53,0,0,0,140.17,124.19Z"/><path d="M154.94,123.54l3.06.65a43.89,43.89,0,0,0-1,8.21q4-3.28,7.87-3.29h.77a9.29,9.29,0,0,1,4.92,1.21,5.54,5.54,0,0,1,2.3,4.15V135a6.54,6.54,0,0,1-2.3,4.81,15.9,15.9,0,0,1-5,2.41,5.38,5.38,0,0,1-2.63.66l-1.42-2.41v-.11a38.51,38.51,0,0,0,4.38-1c2.48-1,3.72-2.34,3.72-3.94V135q-.22-3-4-3.28h-.44a11.88,11.88,0,0,0-4.37,1.09,7.39,7.39,0,0,0-3.5,3.5l-3.17-1.09c.07-.58.18-1.49.32-2.73q.56-5.14.55-7.77Zm2.3-3.83,1.86-2.08a4.4,4.4,0,0,1,.87.44,36.66,36.66,0,0,1,4.81,2.4v.22l-1.86,2A30.16,30.16,0,0,0,157.24,119.71Z"/><path d="M204.49,130.1v.76a10,10,0,0,1-3,6.9,13.51,13.51,0,0,1-5.46,3.93c0,.15-.08.15-.22,0a10.23,10.23,0,0,0-2.52-1.64v-.22q7.88-3.72,8-9.51v-.55a7.12,7.12,0,0,0-2.41-5,8.73,8.73,0,0,0-4.59-2,60.88,60.88,0,0,1-2.41,8,50.76,50.76,0,0,1-3.39,7.1q-1.43,2.63-3.5,2.63-3.28-.11-5.47-3.72a7.67,7.67,0,0,1-1.09-3.72v-.54a10.26,10.26,0,0,1,.87-3.61,13,13,0,0,1,2-3.29,12.41,12.41,0,0,1,5.91-4.48,15.6,15.6,0,0,1,5-1.09h1.2a11,11,0,0,1,8,2.95A10.38,10.38,0,0,1,204.49,130.1ZM181.41,132v.55a6.05,6.05,0,0,0,1.09,3.39,2.52,2.52,0,0,0,2.08,1.31,2.77,2.77,0,0,0,1.86-1.31,19.31,19.31,0,0,0,1.09-2c.15-.37.26-.62.33-.77a36.69,36.69,0,0,0,3.72-10.39,17.94,17.94,0,0,0-4.16,1.09,14.9,14.9,0,0,0-4.48,4A8.56,8.56,0,0,0,181.41,132Z"/><path d="M208.75,129.77v-9.84h3v7h6.12v-9.41H221v9.41h6.13v-7h3.06v9.84H221v9.84h7.11v-7.1h3v10.71h-3v-1.09H207.77v-9.62h2.95v7.1h7.11v-9.84Z"/><path d="M235.33,131.63a8.4,8.4,0,0,0-1-2c4.15-.51,6.67-1.31,7.54-2.4h-6.12l.87-4.82h6.24V121h-7v-1.86h7v-1.75h2.73v1.75h4v-1.75h2.73v1.75H259v4.92h-6.57v1.53h7.55a9.54,9.54,0,0,1-.11,1.21,3.92,3.92,0,0,1-.11,1.09,1.91,1.91,0,0,1-2.19,2v9.84h-20V131.3Zm.11,12c-.07-.22-.22-.58-.44-1.09l-.54-1.1,2-.32c2.19-.37,4.89-.73,8.1-1.1l1,1.64Q239.38,143,235.44,143.66Zm3.61-19.58-.33,1.53h3.94a4.24,4.24,0,0,0,.22-1.31v-.22Zm1.31,7.11v1.32h14.33v-1.32Zm0,2.74v1.31h14.33v-1.31Zm0,2.73v1.42h14.33v-1.42Zm9.3-7.65v-1.75h-4.59a4.45,4.45,0,0,1-2.3,2.29h11.81a1.62,1.62,0,0,0-.22-.65,3.3,3.3,0,0,0-.22-.55h2.08q.87,0,1-.66v-.43h-4.82V129Zm-4-4.6a3.16,3.16,0,0,1-.11.66v.54h4.16v-1.53h-4Zm0-3.39v1.42h4V121Zm14,22.53c-3.86-.8-7.22-1.42-10.06-1.86l.77-1.64c3.28.29,6.63.77,10.06,1.42ZM256.33,121h-3.94v1.42h3.94Z"/><path d="M272.19,117.74l3.5.87v.22l-.77.88c-.07.22-.21.58-.43,1.09a4.22,4.22,0,0,1-.44,1.21,19.27,19.27,0,0,0,4.37-1.1v3a30.49,30.49,0,0,1-5.35.88,18.76,18.76,0,0,1-1.65,3.17,8.38,8.38,0,0,1,3.07-.87h.43a4.46,4.46,0,0,1,1.1.22l.22.1a4.67,4.67,0,0,1,2.18,3.4c.66-.3,1.28-.55,1.86-.77l1-.33a18.13,18.13,0,0,0,2-.76,2.06,2.06,0,0,0,.43-.33c.3-.29.51-.4.66-.33l2.3,2.62v.33a65.47,65.47,0,0,0-7.77,2.08,7.41,7.41,0,0,1,.22,1.86v.77a12.72,12.72,0,0,1-.22,1.86,6.84,6.84,0,0,0-.11,1H276a8,8,0,0,1,.11-1.2v-3.18a11.2,11.2,0,0,0-2.41,1.43c-1.38.94-1.86,2-1.42,3.06q.43,1.53,3.72,1.53h.44a25,25,0,0,0,5.46-.77l.33,3.18a29.21,29.21,0,0,1-4.37.32h-1.64a9.45,9.45,0,0,1-4.49-1,4,4,0,0,1-2.29-3.17v-.44a6.93,6.93,0,0,1,3.17-5,13.66,13.66,0,0,1,2.19-1.2c.5-.29.91-.51,1.2-.66a2.87,2.87,0,0,0-1.2-2.19,3.73,3.73,0,0,0-2.08.22c-1.61.8-3.36,2.74-5.25,5.8a4.92,4.92,0,0,0-.44.65l-2.73-1.2a49.92,49.92,0,0,0,5.9-10h-3.17l-.77-2.63v-.22a13.81,13.81,0,0,0,2.3.22h2.74a1.76,1.76,0,0,0,.1-.43,8.72,8.72,0,0,0,.77-3.5Z"/><path d="M300.52,143c-.15-.81-.33-1.68-.55-2.63h6.24c1.67.07,2.55-.44,2.62-1.53a11.43,11.43,0,0,0,.22-2.3h-12.8l.66-3.28q-2.73,1.42-5.69,2.74a29.44,29.44,0,0,0-1.2-2.74,78.59,78.59,0,0,0,11.59-5.47h-11v-2.4h9.07v-2.85h-7v-2.4h7v-2.74h2.85v2.74h6v2.4h-6v2.85h2.84a82.94,82.94,0,0,0,7.44-6.57l2.3,1.75c-1.83,1.68-3.69,3.28-5.58,4.82h7v2.4H306.1c-1,.66-2,1.31-3.07,2h11.71v2.41H300l-.44,2.08h12.8c-.07.51-.15,1.27-.22,2.29-.14,1.31-.25,2.23-.33,2.74q-.21,3.72-4.59,3.61C306.32,143,304.09,143,300.52,143Z"/><path d="M322.5,126.71h.55a30.24,30.24,0,0,0,5.8-.55,11.81,11.81,0,0,0,3.72-.76c.36-.15.58-.29.65-.44h.22l2.52,1.53c.14.07.18.22.11.44V127a17.15,17.15,0,0,0-3.5,3.72c-.59.72-1,1.27-1.32,1.64H332a3.37,3.37,0,0,1,2.08.65,4.47,4.47,0,0,1,.76,2.19,7.15,7.15,0,0,1,.22,1,13.5,13.5,0,0,0,.44,2,1.65,1.65,0,0,0,1.53,1.42h1.31a16.61,16.61,0,0,0,3.94-.54v3a29.21,29.21,0,0,1-3.5.22h-2.3a3.47,3.47,0,0,1-3.06-1.42,9.37,9.37,0,0,1-1.09-3.28,1.9,1.9,0,0,0-.11-.55,8,8,0,0,0-.22-1.09,1.62,1.62,0,0,0-1.42-1,3.06,3.06,0,0,0-2.3,1.31,58.13,58.13,0,0,0-4.7,6h-.22a21.5,21.5,0,0,0-2.74-1.75v-.11A88.73,88.73,0,0,0,328.3,132a19.83,19.83,0,0,0,2.62-3.72l-.1-.22a11.41,11.41,0,0,1-3.29.88,12.59,12.59,0,0,0-2.51.65,1.12,1.12,0,0,0-.55.22c-.22.22-.4.29-.55.22Zm7-8.75h.22a34.56,34.56,0,0,0,5.36,2.51,1,1,0,0,0,.33.22.87.87,0,0,1,.55.33l-.88,2.3-.33.11a34.05,34.05,0,0,1-6.45-3.07v-.21C328.66,119.49,329.07,118.76,329.5,118Z"/><path d="M351.16,120.91h1.53a25.78,25.78,0,0,0,8.09-1.09,1,1,0,0,0,.44-.11,1.6,1.6,0,0,1,.66-.22H362l2.84,2.3v.11a11,11,0,0,0-2.51,2.4l-1.75,2.08c-.81.88-1.43,1.57-1.86,2.08a12.52,12.52,0,0,0,1.31-.11,9.57,9.57,0,0,1,1.2-.11h.55a7.76,7.76,0,0,1,4.81,1.75,6,6,0,0,1,2.08,4.7V135a6.48,6.48,0,0,1-3.28,5.36,9.85,9.85,0,0,1-5.47,1.64h-.44q-5-.44-5.36-3.72v-.44q.33-2.84,3.72-3.17h.55q2.73,0,5.36,3.5a4.74,4.74,0,0,0,1.75-3.39v-.54q-.33-3.07-4.05-3.4h-.55a9.34,9.34,0,0,0-7.32,3.83.31.31,0,0,1-.11.22,2,2,0,0,1-.55.55l-2.63-2v-.33a41,41,0,0,0,9.3-10.17,15.08,15.08,0,0,0-6,1.31c-.08,0-.15.08-.22.22a.86.86,0,0,1-.77.22l-1.42-3.61Zm7.33,18.7H359a4.71,4.71,0,0,0,1.43-.21,1.54,1.54,0,0,0-.77-1.21,2.57,2.57,0,0,0-2.62-.87c-.66.36-.84.84-.55,1.42A2.29,2.29,0,0,0,358.49,139.61Z"/><path d="M393.71,123l2.4,2.73v.22a40.13,40.13,0,0,0-10.61,4.49,13.2,13.2,0,0,0-3.39,3.28,3.88,3.88,0,0,0-.65,1.86V136a3.37,3.37,0,0,0,2.07,3,8.5,8.5,0,0,0,3.72.65H388a23.05,23.05,0,0,0,6.34-.87l.22,3.28c-1.9.15-3.72.22-5.47.22h-1.64a10,10,0,0,1-5.79-1.2,5.43,5.43,0,0,1-2.85-4.93v-.54q.1-3.72,4.49-6.78a1,1,0,0,1,.54-.44,43.79,43.79,0,0,0-3.5-9.19l3-.55a65.53,65.53,0,0,1,3.28,8.21l3.93-2A13.13,13.13,0,0,0,393.71,123Z"/><path d="M413.61,140.6l-2.18,2.19-5.91-6.46,2.08-1.86Z"/><path d="M434.39,126.6q-2-1.42-4.15-2.74l1.31-2c1.24.65,2.66,1.46,4.27,2.4ZM432.64,138v-2.18h9.3v-1.53h2.95v1.53h9.52V138h-9.52v2.3H456.6v2.3H430.35v-2.3h11.59V138Zm.66-3.39-2.41-1.31q1.86-3.06,3.5-6.23a14.76,14.76,0,0,0,1.54.76,4.4,4.4,0,0,0,.87.44C435.85,129.84,434.68,132,433.3,134.58Zm3.17-12.47c-.65-.43-1.6-1-2.84-1.75a12.14,12.14,0,0,1-1.42-.87l1.42-2.08q2.07,1.09,4.37,2.52Zm.55,12c-.37-.66-.77-1.32-1.2-2a33.09,33.09,0,0,0,5.68-3l1.43,1.64C440.74,132.18,438.77,133.27,437,134.15Zm4.26-9.41v-1.42c-.29.14-.76.36-1.42.65a20.12,20.12,0,0,1-1.86.77c-.51-.8-1-1.57-1.42-2.3a22.71,22.71,0,0,0,9.19-5.36l3,.33-.65.66a27.13,27.13,0,0,0,8.53,4.15c-.08.15-.19.33-.33.55a16.13,16.13,0,0,0-1,1.86,1.1,1.1,0,0,0-.43-.22,20.63,20.63,0,0,1-3-1.31v1.64H448v1.86h7.11v2.19H448v2.29q.1,3.18-2.85,3.07c-.95.07-2,.11-3.06.11a11.4,11.4,0,0,0-.44-2.08c.88.07,1.68.11,2.41.11a1.16,1.16,0,0,0,1.31-1.32v-2.18h-7.55V126.6h7.55v-1.86Zm5.25-5.14a19.56,19.56,0,0,1-4.48,3.17h9.3A24.08,24.08,0,0,1,446.53,119.6Zm8.32,14.55a29,29,0,0,0-3.28-1.75c-.95-.44-1.68-.81-2.19-1.1l1.2-1.75a1,1,0,0,0,.44.22,52.55,52.55,0,0,1,5.14,2.41Z"/><path d="M466.77,126.82v.54a6.43,6.43,0,0,0,.44,2.63h.22l1.09-1.75h.33l1.2,1.09c-.15.3-.33.7-.55,1.21a10.93,10.93,0,0,0-1.2,4.26v.44a15.44,15.44,0,0,1-2.62.22,8.86,8.86,0,0,1-1.1-2.85,17.73,17.73,0,0,1-.65-4.92v-.87a28.35,28.35,0,0,1,.43-4,22.44,22.44,0,0,0,.44-3.61c1.09.07,2.15.18,3.17.33a19.36,19.36,0,0,0-.54,2.3A26.13,26.13,0,0,0,466.77,126.82Zm7.66-7.66,3.6-.33.22.11a11.78,11.78,0,0,0,.22,3.72,4.45,4.45,0,0,0,.22,1.2A37.8,37.8,0,0,1,479,128v1.75a16.06,16.06,0,0,1-1.2,6.67,16.42,16.42,0,0,1-4.6,6.67q-.11.22-.33,0l-2.51-1.2-.11-.22a17.68,17.68,0,0,0,3.94-4.7,16.3,16.3,0,0,0,1.75-7.55v-2.08A19.87,19.87,0,0,0,474.43,119.16Z"/><path d="M497.5,131.08c-.43-.36-1.2-.94-2.29-1.75l-1.75-1.42a9.68,9.68,0,0,1-3.72,3.5h19.58v12.14h-2.85v-1.31H492.36v1.31h-2.84v-12c-.66.29-1.35.62-2.08,1a8,8,0,0,0-1.09-1.86,3.68,3.68,0,0,0-.33-.44c3.21-1.24,5.1-2.63,5.69-4.16h-5.25v-2.19h5.79V122h-5.14v-2.08h5.14l.11-2.52H495l-.11,2.52h3.72V122h-3.83v1.85h4.05v2.19h-4.16c1.31.81,2.77,1.79,4.37,3,2.56-.95,4.05-1.94,4.49-3h-3.61v-2.19h4.16v-.54a5.07,5.07,0,0,0,.11-.88V122h-4.05v-2.08h4.05v-2.52h2.62l-.11,2.52h5V122h-5l-.11,1.53v.32h5.69v2.19H507q1.31,2.52,5.69,3.72c-.44.73-.88,1.53-1.32,2.41-3.06-1.24-5.07-2.77-6-4.6-.59,1.24-2.23,2.45-4.92,3.61A16.11,16.11,0,0,0,499,129Zm-5.14,2.52v2.3h14.11v-2.3Zm0,4.26v2.3h14.11v-2.3Z"/><path d="M518.5,126.71h.55a30.24,30.24,0,0,0,5.8-.55,11.81,11.81,0,0,0,3.72-.76c.36-.15.58-.29.65-.44h.22l2.52,1.53c.14.07.18.22.11.44V127a17.15,17.15,0,0,0-3.5,3.72c-.59.72-1,1.27-1.32,1.64H528a3.37,3.37,0,0,1,2.08.65,4.47,4.47,0,0,1,.76,2.19,7.15,7.15,0,0,1,.22,1,13.5,13.5,0,0,0,.44,2,1.65,1.65,0,0,0,1.53,1.42h1.31a16.61,16.61,0,0,0,3.94-.54v3a29.21,29.21,0,0,1-3.5.22h-2.3a3.47,3.47,0,0,1-3.06-1.42,9.37,9.37,0,0,1-1.09-3.28,1.9,1.9,0,0,0-.11-.55,8,8,0,0,0-.22-1.09,1.62,1.62,0,0,0-1.42-1,3.06,3.06,0,0,0-2.3,1.31,58.13,58.13,0,0,0-4.7,6h-.22a21.5,21.5,0,0,0-2.74-1.75v-.11A88.73,88.73,0,0,0,524.3,132a20.45,20.45,0,0,0,2.63-3.72l-.11-.22a11.41,11.41,0,0,1-3.29.88,12.59,12.59,0,0,0-2.51.65,1.12,1.12,0,0,0-.55.22c-.22.22-.4.29-.54.22Zm7-8.75h.22a34.56,34.56,0,0,0,5.36,2.51,1,1,0,0,0,.33.22.87.87,0,0,1,.55.33l-.88,2.3-.33.11a34.05,34.05,0,0,1-6.45-3.07v-.21C524.66,119.49,525.07,118.76,525.5,118Z"/><path d="M559.3,123.54l2.08,2.29v.22c-1.53.44-3,.91-4.38,1.42a42.91,42.91,0,0,0-6.78,3.39,8.63,8.63,0,0,0-2.73,2.63,4.74,4.74,0,0,0-.77,2.3v.32A3.34,3.34,0,0,0,549,139a8.77,8.77,0,0,0,3.5.65H553a38,38,0,0,0,5.25-.54,11.94,11.94,0,0,0,1.31-.22l.22,3.17a43.13,43.13,0,0,1-4.6.22h-2.29a14.18,14.18,0,0,1-4.49-.77,7.4,7.4,0,0,1-3.72-2.62,5.87,5.87,0,0,1-.54-2.63v-.43a7.85,7.85,0,0,1,2.4-5.25,15.43,15.43,0,0,1,2.85-2.41,32.09,32.09,0,0,0-3.61-9l3-.44a49.36,49.36,0,0,1,3.17,8,.45.45,0,0,0,.33-.11,14.76,14.76,0,0,1,3.39-1.31,6.83,6.83,0,0,1,1.1-.55,10.88,10.88,0,0,0,1.75-.77.27.27,0,0,0,.21-.11A1,1,0,0,1,559.3,123.54Zm.44-2.3,1.75-1c.14.21.36.51.65.87a21.09,21.09,0,0,1,2,2.52l-1.75,1.09A27.46,27.46,0,0,0,559.74,121.24Zm3-2,1.53-.87a10.68,10.68,0,0,1,2.63,3.39l-1.53,1c-.3-.44-.73-1-1.32-1.75S563,119.64,562.69,119.27Z"/><path d="M582.6,137.21h2.29a34.89,34.89,0,0,0,8.1-1v3.5a45.09,45.09,0,0,1-8.42.66h-1.64a12.41,12.41,0,0,1-5.15-.87,13.15,13.15,0,0,1-3.82-2.85v-.33l1.86-1.64c.07-.14.11-.14.11,0a8.51,8.51,0,0,0,3.17,2.08A10.18,10.18,0,0,0,582.6,137.21Zm.54-15.31H584a25.6,25.6,0,0,0,5.14-.77c-.07,0,0,0,.33-.11v3.17c-1.53.15-3,.22-4.49.22h-2.51A43.49,43.49,0,0,1,578,124l-.22-.11-.65-3.06.11-.11a6,6,0,0,0,.87.22A19.07,19.07,0,0,0,583.14,121.9Z"/><path d="M604.25,120.91h.66a19.59,19.59,0,0,0,3.5-.44q-1.53.33.33,0a12.67,12.67,0,0,0,4.92-1.2,1.1,1.1,0,0,0,.44-.22,1.13,1.13,0,0,1,.54-.22H615l2.41,1.86V121a8.21,8.21,0,0,0-2.3,2.41,4,4,0,0,1-.55.76q-2,2.41-4.15,4.92l1.2-.32a12.28,12.28,0,0,1,3.17-.55h.44a10.19,10.19,0,0,1,4.92,1.31,6.07,6.07,0,0,1,2.74,4.92v.44a7.16,7.16,0,0,1-3.61,6.24,12.69,12.69,0,0,1-6.56,2l-1.21-2.62h.44a10.92,10.92,0,0,0,4.7-.88,5,5,0,0,0,3.07-4.37v-.44a4,4,0,0,0-1.32-2.84,4.28,4.28,0,0,0-3.17-1.1h-.55a11.87,11.87,0,0,0-6.78,2.19,34.44,34.44,0,0,0-5.14,5.14l-2.62-2.29a69.41,69.41,0,0,0,5.14-4.93l1.2-1.2a29.51,29.51,0,0,0,5.69-7.44c-.51.15-1.24.33-2.19.55-1.38.37-2.41.66-3.06.88a1.18,1.18,0,0,0-.44.21l-.44.22-1.86-3.06Z"/><path d="M625.91,123.86h.66a15.22,15.22,0,0,0,3.28-.54l1.31-.33c1.38-.36,2.73-.69,4.05-1q3.6-.89,7.11-1.54a21.83,21.83,0,0,0,4.37-1,3.3,3.3,0,0,0,.33,1.2,3.75,3.75,0,0,1,.22,1.64l-1.53.33a7.68,7.68,0,0,0-3.72,1.2,8.66,8.66,0,0,0-3.17,4.71,15.34,15.34,0,0,0-.66,3.83v.65a5.8,5.8,0,0,0,1.64,4.27,6.41,6.41,0,0,0,4.27,1.64h.54a6.94,6.94,0,0,0,1.75-.22V142h-.87a12.76,12.76,0,0,1-6.89-1.86,8.58,8.58,0,0,1-3.28-6.89v-.55q0-4.26,3.39-9c-2.92.72-5.84,1.53-8.75,2.4a3.41,3.41,0,0,1-.77.22,3,3,0,0,0-1.53.88l-1.75-3.07ZM646,125.4l1.54-1.43c.21.22.51.55.87,1a16.64,16.64,0,0,1,1.75,2l-1.53,1.31A17.33,17.33,0,0,0,646,125.4Zm3-2.19,1.53-1.31a17.68,17.68,0,0,1,2.51,2.84l-1.64,1.31A22.66,22.66,0,0,0,649,123.21Z"/><path d="M658,118.61h.32l3,1.1a6.78,6.78,0,0,1-.66,1.75c-.14.29-.25.51-.33.65a36.5,36.5,0,0,0-1.42,4.71,23.8,23.8,0,0,0-.65,4.59v1a20,20,0,0,0,.76,5.14h.22c.15-.29.36-.7.66-1.21a7.24,7.24,0,0,1,.54-1.09h.22l.88.87v.22q-.66,2.85-1.1,5.36l-2.4.55a18.46,18.46,0,0,1-2.3-9.63V131a24.46,24.46,0,0,1,.87-5.57c.08-.37.22-.92.44-1.64a16.76,16.76,0,0,0,1-4.71Zm11.7.55,3.83.55c-.15,1.68-.22,3.5-.22,5.47v-.11q2.29-.22,4.59-.66V127a43.13,43.13,0,0,1-4.48.65q.11,8.2.11,7.88l2.51,1c.15.15.26.22.33.22a14.73,14.73,0,0,1,2.95,2l-1.75,2.08h-.32c-.59-.44-1.21-.88-1.86-1.31-.29-.15-.7-.37-1.21-.66s-.62-.37-.76-.44a4.43,4.43,0,0,1-1.2,2.19,5.3,5.3,0,0,1-4,1.64h-.55a6.43,6.43,0,0,1-3.28-.88,3.42,3.42,0,0,1-1.64-2.84v-.44a3.49,3.49,0,0,1,1.64-2.62,5.83,5.83,0,0,1,3.28-.88h.55a17.15,17.15,0,0,1,2.73.22c0-.44,0-1.13-.11-2.08-.14-1.82-.22-3.2-.22-4.15v-.66h-2.29c-1.53-.07-3.1-.22-4.71-.44l-.32-2.73a7.37,7.37,0,0,1,1.53.22,40.69,40.69,0,0,0,4.37.33h1.32c-.08-1.9-.15-3.21-.22-3.94v-.22A3.06,3.06,0,0,0,669.66,119.16ZM667.91,137h-.55c-1.09,0-1.78.18-2.08.55-.51.65-.29,1.31.66,2a4.09,4.09,0,0,0,4-.44,2.22,2.22,0,0,0,.76-1.53A7.19,7.19,0,0,0,667.91,137Z"/><path d="M20.59,180.71a3.59,3.59,0,0,1-.55-1l-.87-1.31A19.84,19.84,0,0,0,25.08,172l3,.43a1.45,1.45,0,0,1-.33.44A14.29,14.29,0,0,1,26.17,175H44.76v2.51H41.7v4.27h2.84v2.41H41.7v4.48h3.83v2.41h-26v-2.41h4.26v-4.48H20.37V181.8h3.39v-3.94A38.46,38.46,0,0,1,20.59,180.71Zm2,17.39-2.84-.66q1.86-3.28,2.73-5.25l2.74.55a9.9,9.9,0,0,1-.44,1Q23.33,196.78,22.56,198.1Zm3.72-20.57v4.27H28.9v-4.27Zm0,6.68v4.48H28.9v-4.48Zm2.3,13.34q-.66-2.19-1.43-4.7l2.74-.33q.87,2.4,1.53,4.59Zm2.84-20v4.27H34v-4.27Zm0,6.68v4.48H34v-4.48Zm3.83,13.12a30.67,30.67,0,0,0-1.31-3.17c-.22-.58-.41-1.06-.55-1.42l2.73-.44,2,4.48Zm1.31-19.8v4.27h2.73v-4.27Zm0,6.68v4.48h2.73v-4.48Zm6,13.34c-.37-.73-.92-1.68-1.64-2.84-.52-.88-.92-1.57-1.21-2.08l2.74-.55a2.38,2.38,0,0,0,.43.55,41.51,41.51,0,0,1,2.52,4.15Z"/><path d="M59.86,180.16H61.5a2.41,2.41,0,0,1,2.19.87,3.43,3.43,0,0,1,.65,2.08v.44a24.15,24.15,0,0,1-1,6.45q-.88,3.84-3.07,4.93a7.52,7.52,0,0,1-3.71.76H56c-.22,0-.33,0-.33-.11-.15-.29-.33-.69-.55-1.2a13.52,13.52,0,0,0-.76-1.53v-.11a8,8,0,0,1,1.2.11,9.59,9.59,0,0,0,1.1.11h.43a2.32,2.32,0,0,0,2.08-1,7,7,0,0,0,1.09-2,.28.28,0,0,0,.11-.22,14.16,14.16,0,0,0,1-5.25v-.65c-.07-.8-.44-1.24-1.1-1.31a21,21,0,0,0-2.4.21,8,8,0,0,1-1.2.11,42,42,0,0,1-4.16,9,18.49,18.49,0,0,1-2.3,3.07,3,3,0,0,1-1.31-.55,4.16,4.16,0,0,0-.55-.33.35.35,0,0,1-.22-.11c-.43-.07-.69-.22-.76-.44a18.15,18.15,0,0,0,4.26-5.9c.73-1.46,1.43-2.88,2.08-4.27a8.23,8.23,0,0,0-3.17.88l-.11.11a1.38,1.38,0,0,1-.76.21l-1.54-3.17.11-.22a10.2,10.2,0,0,0,3.07,0,9.48,9.48,0,0,1,1.09-.11,7.52,7.52,0,0,1,2.08-.32c.14-.44.25-.81.33-1.1a14,14,0,0,0,.65-4.37v-.77a1,1,0,0,1-.11-.44,10.08,10.08,0,0,0,1.21.22c1,.15,1.82.3,2.4.44a1.64,1.64,0,0,1-.44,1,.29.29,0,0,0-.1.21,4.76,4.76,0,0,0-.33,1.54A1.56,1.56,0,0,0,58,178a6.66,6.66,0,0,1-.22,1.21c-.07.51-.15.91-.22,1.2A12.49,12.49,0,0,1,59.86,180.16Zm5.36-1.42v-.33a7,7,0,0,1,1-.77,12.38,12.38,0,0,1,1-.76c.21-.15.54.07,1,.65a16.65,16.65,0,0,1,2.08,2.3,47.19,47.19,0,0,1,3.39,4.49v.32L71,186.28A44.94,44.94,0,0,0,65.22,178.74Z"/><path d="M91.9,177.75h.55A6.17,6.17,0,0,1,99,184v.54a5.94,5.94,0,0,1-1,3.29,10.33,10.33,0,0,1-3,2.84,13.49,13.49,0,0,1-6.57,2.3l-1.75-2.08a16.35,16.35,0,0,0,6.57-2.08c2.18-1.31,3.28-2.88,3.28-4.7v-.44q-.44-3.16-4.49-3.72h-.43a10.57,10.57,0,0,0-3.4.55c-.87.29-1.75.62-2.62,1-.29.15-.69.33-1.2.55a32.38,32.38,0,0,0-3.18,1.75c-.07,0-.14.07-.21.22a.86.86,0,0,1-.77.22L78,181.58q3.06-.77,6-1.75a1.55,1.55,0,0,0,.44-.11Q89.17,177.65,91.9,177.75Z"/><path d="M113.23,172.83h.22l3.28.88V174a2.66,2.66,0,0,0-1.09,1.75,10.63,10.63,0,0,0-.66,1.86,2.78,2.78,0,0,1-.22.66l3.61-.66a3.53,3.53,0,0,0,.77-.21l.22.1v2.85c-1.75.29-3.5.51-5.25.65a3.5,3.5,0,0,1-.11.55c.07-.14,0-.07-.11.22a63.58,63.58,0,0,1-5.8,15l-3-.87-.11-.22a89,89,0,0,0,6.34-14.55,15.32,15.32,0,0,1-2.18.11c-1,.08-1.68.11-2.19.11l-.22-.11-.44-2.62.11-.22c.29,0,.77,0,1.42.11a12.46,12.46,0,0,0,1.32.11h.87c.66,0,1.35,0,2.08-.11a4.55,4.55,0,0,0,.22-.66,17.35,17.35,0,0,0,.87-4.37ZM128,193l-.33,3.06a30.3,30.3,0,0,1-3.61.22H123a22.42,22.42,0,0,1-4.82-.55,2,2,0,0,1-.43-.11q-.77,0-1-.33l-.11-2.51a8.81,8.81,0,0,0,1,.22,29.42,29.42,0,0,0,4.81.54H123A24,24,0,0,0,128,193Zm-6.35-10.72h1c1.16,0,2.4,0,3.72.11l.11,3-.11.11a24.15,24.15,0,0,0-4.71-.66h-1.09a9.14,9.14,0,0,0-2.41.33l.44-2.73H120A15.89,15.89,0,0,1,121.65,182.24Z"/><path d="M157.53,184.64v.77a10,10,0,0,1-2.95,6.89,13.65,13.65,0,0,1-5.47,3.94c0,.14-.08.14-.22,0a9.69,9.69,0,0,0-2.52-1.64v-.22q7.88-3.72,8-9.52v-.54a7.16,7.16,0,0,0-2.41-5,8.64,8.64,0,0,0-4.59-2,60.72,60.72,0,0,1-2.41,8,51.54,51.54,0,0,1-3.39,7.11q-1.42,2.63-3.5,2.62-3.28-.1-5.47-3.71a7.73,7.73,0,0,1-1.09-3.72v-.55a10.26,10.26,0,0,1,.87-3.61,13.15,13.15,0,0,1,2-3.28,12.35,12.35,0,0,1,5.91-4.48,15.71,15.71,0,0,1,5-1.1h1.2a11.08,11.08,0,0,1,8,2.95A10.37,10.37,0,0,1,157.53,184.64Zm-23.08,1.86v.55a6.08,6.08,0,0,0,1.09,3.39,2.5,2.5,0,0,0,2.08,1.31,2.77,2.77,0,0,0,1.86-1.31,19.86,19.86,0,0,0,1.1-2c.14-.36.25-.62.32-.76a36.8,36.8,0,0,0,3.72-10.39,16.91,16.91,0,0,0-4.15,1.09,14.81,14.81,0,0,0-4.49,4.05A8.5,8.5,0,0,0,134.45,186.5Z"/><path d="M159,178.41h.66a14.68,14.68,0,0,0,3.28-.55l1.31-.33c1.39-.36,2.74-.69,4.05-1q3.6-.87,7.11-1.53a21.53,21.53,0,0,0,4.37-1,3.29,3.29,0,0,0,.33,1.21,3.74,3.74,0,0,1,.22,1.64l-1.53.33a7.68,7.68,0,0,0-3.72,1.2,8.64,8.64,0,0,0-3.17,4.7,15.42,15.42,0,0,0-.66,3.83v.66a5.77,5.77,0,0,0,1.64,4.26,6.43,6.43,0,0,0,4.27,1.64h.54a6.94,6.94,0,0,0,1.75-.22v3.29h-.87a13,13,0,0,1-6.89-1.86,8.6,8.6,0,0,1-3.28-6.89v-.55q0-4.26,3.39-9-4.38,1.09-8.75,2.41a4,4,0,0,1-.77.22,3,3,0,0,0-1.53.87L159,178.74Zm20.13,1.53,1.53-1.42c.22.22.51.55.87,1a17.48,17.48,0,0,1,1.75,2l-1.53,1.31A17.81,17.81,0,0,0,179.08,179.94Zm2.95-2.19,1.53-1.31a18.71,18.71,0,0,1,2.52,2.84l-1.64,1.32A23.57,23.57,0,0,0,182,177.75Z"/><path d="M200,171.63l3.82.65a10.23,10.23,0,0,0-.54,3.4v1h9v3.17a44,44,0,0,0-8.21-.55h-.76v3.4l.11.1a6.17,6.17,0,0,1,1,3.72v1.86a13.58,13.58,0,0,1-1.09,4.6,17.62,17.62,0,0,1-2.41,3.61c-.65.65-1.35,1.31-2.08,2h-.22a14.45,14.45,0,0,0-3.17-1.53v-.22a10.85,10.85,0,0,0,5.8-5.57,4.43,4.43,0,0,1-4.27,0,5.2,5.2,0,0,1-2.18-4.38v-.55q.54-4.47,4.59-5h1.31v-2h-1.2a41,41,0,0,0-9.3,1.1l-.22-.11-1.09-3.17.11-.22c.22,0,.62,0,1.2.11a12.46,12.46,0,0,0,1.32.11h1.31c.29,0,.91,0,1.86-.11,2.26-.07,4.26-.15,6-.22-.14-1.68-.33-3.14-.54-4.38A3.93,3.93,0,0,1,200,171.63Zm.65,14.65v-1.42q-.1-1.1-.87-1.2a1.5,1.5,0,0,0-1.1.44,2.81,2.81,0,0,0-1,2.18v.66c.07,1.46.55,2.23,1.42,2.3.51,0,.95-.4,1.31-1.21A3.43,3.43,0,0,0,200.62,186.28Z"/><path d="M222.06,174l3.72.88q-.1.33-.33.87a4.92,4.92,0,0,0-.33.55,8.59,8.59,0,0,0-.22,1.2,2,2,0,0,0-.11.55,12.46,12.46,0,0,0-.21,1.31,4.46,4.46,0,0,0-.22,1.1,2.93,2.93,0,0,1,.87-.11,7.34,7.34,0,0,1,.88-.11,3.19,3.19,0,0,0,.65-.11h1.1a5.11,5.11,0,0,1,2.08.44,2.7,2.7,0,0,1,1.09,2.18v1.32a28.79,28.79,0,0,1-1,6.89q-.76,3.72-2.95,4.26a7.92,7.92,0,0,1-3.39.77h-.76c-.22-.51-.52-1.13-.88-1.86a8.71,8.71,0,0,1-.44-1l.11-.22a4,4,0,0,1,.77.11,7.76,7.76,0,0,0,1.53.21h.44a2.45,2.45,0,0,0,2.29-1.42,16.61,16.61,0,0,0,1-3,26,26,0,0,0,.65-5,1.25,1.25,0,0,0-1.53-1.31c-.36.07-.91.14-1.64.21l-1.64.33a35.64,35.64,0,0,1-6,12.14l-.22.11a11,11,0,0,0-1.75-.76,4.71,4.71,0,0,0-.88-.44v-.22a27.72,27.72,0,0,0,3.94-5.58,25.33,25.33,0,0,0,1.64-3.72,9,9,0,0,0,.44-1,29.3,29.3,0,0,0-3.28,1.09,1.62,1.62,0,0,1-1,.33l-1.2-3.06.22-.22a3.19,3.19,0,0,1,.65.11,1.84,1.84,0,0,0,.88,0c.51-.07,1.27-.22,2.3-.44s1.64-.36,2.07-.44a2.16,2.16,0,0,1,.11-.65,23.8,23.8,0,0,0,.55-5.14Zm16.73,10.61-.1.22-2.3,1.32a35.87,35.87,0,0,0-5.36-7.44v-.33l2.08-1.2A31,31,0,0,1,238.79,184.64Zm.77-7.32v.21l-1.42,1.21h-.22a8.4,8.4,0,0,0-2.63-2.85v-.21l1.32-1.1h.22A24.9,24.9,0,0,1,239.56,177.32ZM238,173.6v-.22l1.31-1.1h.22a1,1,0,0,0,.33.22c.51.44,1.09,1,1.75,1.64a1.78,1.78,0,0,1,.65,1.1l-1.31,1.2h-.22A11.32,11.32,0,0,0,238,173.6Z"/><path d="M254.65,195.14l-2.18,2.19-5.91-6.45,2.08-1.86Z"/><path d="M271.61,176.33v-2.62H280v2.62h-2.74v6.35h2.63v2.62h-2.63v6.45c.44-.07,1.17-.22,2.19-.43.37-.08.66-.15.88-.22v2.84c-.44.07-1.13.22-2.08.44-2.77.51-5,1-6.67,1.42l-.44-2.73c.36-.08.95-.19,1.75-.33l1.64-.33V185.3h-2.84v-2.62h2.84v-6.35Zm20.78,21.22q-3.28.1-3.17-3v-4.71H287l-.11.88q0,5.14-6.67,7.33a5.23,5.23,0,0,0-.44-.66,18.92,18.92,0,0,0-1.31-1.75q5.69-1.42,5.69-4.92v-.88H281V173.05h14.88v16.84H292v4.16c-.07.66.33.95,1.2.88h.77c.73.07,1.13-.3,1.2-1.1a19.86,19.86,0,0,0,.22-2.08c.07-.58.11-1,.11-1.2l2.3.88a22.65,22.65,0,0,1-.55,3.5,2.8,2.8,0,0,1-3.06,2.62Zm-8.53-22.2V178H293v-2.62Zm0,4.81v2.62H293v-2.62Zm0,4.81v2.63H293V185Z"/><path d="M324.22,182.57c-1.32-.59-2.52-1.13-3.61-1.64V183H314v3h9.3v2.62H314v6.13H325v2.4H300v-2.4H311v-6.13h-9.29V186H311v-3H304.2v-1.86c-1,.51-2.15,1.06-3.39,1.64-.15-.21-.33-.51-.55-.87-.51-.8-.87-1.39-1.09-1.75q9.07-3.49,12.47-8.53L315,172l-.66.87a22.62,22.62,0,0,0,11.38,6.89c-.15.29-.4.77-.77,1.42S324.36,182.27,324.22,182.57Zm-18.05,11.81c-.58-.73-1.68-2-3.28-3.94l2.19-1.42q1.2,1.3,3.06,3.5c-.15-.15,0,0,.33.44Zm6.56-19.47a28.4,28.4,0,0,1-7.11,5.58h14A26,26,0,0,1,312.73,174.91Zm5.8,19.47L316.34,193a1.57,1.57,0,0,0,.22-.33q2.19-2.41,3.17-3.61l2.41,1.31C321.19,191.43,320,192.77,318.53,194.38Z"/><path d="M329.47,181.14l-2-2.07a31.45,31.45,0,0,0,8-7.44l3.39.33a12.58,12.58,0,0,1-1.53,1.86h10.28V176l-2.51,2.52h5.68V193H330.45V180.38ZM329,198.21l-1.31-2.63a84.92,84.92,0,0,0,9.51-2.3l1.21,2.08Q334.27,196.79,329,198.21Zm15-22.1h-8.75a25.79,25.79,0,0,1-2.51,2.41h9Zm-10.72,4.71v2.07H348v-2.07Zm0,3.93v2.08H348v-2.08Zm0,3.83v2.08H348v-2.08Zm18.6,9.52q-4.71-1.53-9.3-2.85l1-2c3.71.81,6.85,1.54,9.4,2.19Z"/><path d="M355.5,179.39v-2.62h3.17v-4.7h2.95v4.7h2.74v2.62h-2.74v5c.88-.22,1.82-.44,2.85-.66v2.73l-2.85.77v7.33c.07,2-1,3-3.17,3.17a20,20,0,0,0-2.3.11,12.46,12.46,0,0,1-.21-1.31c-.15-.73-.26-1.24-.33-1.54h1.64c1,.08,1.49-.32,1.42-1.2v-5.69l-3.17.77-.22-3.06a6,6,0,0,1,.87-.22c.44-.07,1.28-.26,2.52-.55v-5.69Zm8,17.5v-2.51h18.16v2.51Zm2.19-6.12V173.38h14.44v17.39Zm2.95-14.66v4.6h8.64v-4.6Zm0,7.22v4.81h8.64v-4.81Z"/><path d="M396.51,173.49q7.88.1,8,11.59t-8,11.49q-7.87-.12-8-11.49Q388.74,173.82,396.51,173.49Zm0,20.67q4.49.1,4.49-9,.11-9.3-4.49-9.08-4.49,0-4.48,9.08T396.51,194.16Z"/><path d="M412.7,197.77v-24.5h23.63v20.34c.07,2.55-1.25,3.87-3.94,3.94-1,.07-2.45.11-4.27.11a11.34,11.34,0,0,0-.65-2.73h3.82c1.46.07,2.12-.59,2-2v-5.8H415.65v10.61ZM415.65,176v8.32H423V176Zm17.61,0h-7.32v8.32h7.32Z"/><path d="M439,178.41h.66a14.77,14.77,0,0,0,3.28-.55l1.31-.33c1.38-.36,2.74-.69,4.05-1q3.6-.87,7.11-1.53a21.53,21.53,0,0,0,4.37-1,3.29,3.29,0,0,0,.33,1.21,3.74,3.74,0,0,1,.22,1.64l-1.53.33a7.68,7.68,0,0,0-3.72,1.2,8.64,8.64,0,0,0-3.17,4.7,15.42,15.42,0,0,0-.66,3.83v.66a5.77,5.77,0,0,0,1.64,4.26,6.43,6.43,0,0,0,4.27,1.64h.54a6.94,6.94,0,0,0,1.75-.22v3.29h-.87a13,13,0,0,1-6.89-1.86,8.6,8.6,0,0,1-3.28-6.89v-.55q0-4.26,3.39-9-4.38,1.09-8.75,2.41a4,4,0,0,1-.77.22,3,3,0,0,0-1.53.87L439,178.74Zm20.13,1.53,1.53-1.42c.22.22.51.55.87,1a17.48,17.48,0,0,1,1.75,2l-1.53,1.31A17.81,17.81,0,0,0,459.08,179.94Zm2.95-2.19,1.53-1.31a18.71,18.71,0,0,1,2.52,2.84l-1.64,1.32A23.57,23.57,0,0,0,462,177.75Z"/><path d="M467,178.41h.66a14.77,14.77,0,0,0,3.28-.55l1.31-.33c1.38-.36,2.74-.69,4.05-1q3.6-.87,7.11-1.53a21.53,21.53,0,0,0,4.37-1,3.29,3.29,0,0,0,.33,1.21,3.74,3.74,0,0,1,.22,1.64l-1.53.33a7.68,7.68,0,0,0-3.72,1.2,8.64,8.64,0,0,0-3.17,4.7,15.42,15.42,0,0,0-.66,3.83v.66a5.77,5.77,0,0,0,1.64,4.26,6.43,6.43,0,0,0,4.27,1.64h.54a6.94,6.94,0,0,0,1.75-.22v3.29h-.87a13,13,0,0,1-6.89-1.86,8.6,8.6,0,0,1-3.28-6.89v-.55q0-4.26,3.39-9-4.38,1.09-8.75,2.41a4,4,0,0,1-.77.22,3,3,0,0,0-1.53.87L467,178.74Zm20.13,1.53,1.53-1.42c.22.22.51.55.87,1a17.48,17.48,0,0,1,1.75,2l-1.53,1.31A17.81,17.81,0,0,0,487.08,179.94Zm2.95-2.19,1.53-1.31a18.71,18.71,0,0,1,2.52,2.84l-1.64,1.32A23.57,23.57,0,0,0,490,177.75Z"/><path d="M512.89,174.58h.22a7.48,7.48,0,0,1,1,2.3,11.85,11.85,0,0,1-2.62,1.09c-.37.15-.66.26-.88.33a11.2,11.2,0,0,1,.88,1.53,14.92,14.92,0,0,1,.76,1.53c.44-.14,1.1-.4,2-.76l2-.66h.33l1,2-.11.33-1.2.33c-.58.21-1,.36-1.31.43a4.52,4.52,0,0,1-1.42.44,2.86,2.86,0,0,1,.32.66,48.74,48.74,0,0,0,3.07,4.26.28.28,0,0,0,.11.22,1.62,1.62,0,0,1,.43.88l-2.4,2.29a15.65,15.65,0,0,0-8.75-2.29h-.66a5.21,5.21,0,0,0-2.3.43,2,2,0,0,0-1,2.41q.11.44,1.2,1.2a5.46,5.46,0,0,0,2.52.88,16.59,16.59,0,0,0,3.28.33h.55a8.37,8.37,0,0,0,1.31-.11l-.22,3.06h-.77c-6.78-.37-10.31-2.33-10.61-5.91v-.54a4.34,4.34,0,0,1,2.19-3.18,10.22,10.22,0,0,1,4.38-1h1.09a19.15,19.15,0,0,1,5.47,1h.11c-.15-.21-.37-.58-.66-1.09s-.69-1.42-1.42-2.73a11.28,11.28,0,0,1-2.3.43,51.41,51.41,0,0,1-6,.55l-.22-.11L500.86,183l.11-.22h.76a35.92,35.92,0,0,0,6.24-.54,4.75,4.75,0,0,0,1.53-.22L508.08,179a35.13,35.13,0,0,1-4.71,1,5.31,5.31,0,0,0-.65-1,4.3,4.3,0,0,1-.44-.66,1.57,1.57,0,0,1-.44-.77h.33c1.46-.21,3-.51,4.7-.87a7,7,0,0,0-.54-1.31c-.3-.59-.52-1-.66-1.32a.6.6,0,0,0-.22-.43,3.16,3.16,0,0,1-.11-.66l3-.55c.44,1.24.88,2.41,1.32,3.5A30.69,30.69,0,0,0,512.89,174.58Z"/><path d="M528.2,175.46h1.53a25.86,25.86,0,0,0,8.1-1.1.86.86,0,0,0,.43-.11,1.77,1.77,0,0,1,.66-.22H539l2.84,2.3v.11a11.23,11.23,0,0,0-2.51,2.41l-1.75,2.08c-.81.87-1.42,1.56-1.86,2.07a10.1,10.1,0,0,0,1.31-.11,9.57,9.57,0,0,1,1.2-.11h.55a7.8,7.8,0,0,1,4.81,1.75,6,6,0,0,1,2.08,4.71v.33a6.51,6.51,0,0,1-3.28,5.36,9.85,9.85,0,0,1-5.47,1.64h-.44q-5-.45-5.36-3.72v-.44c.22-1.9,1.46-2.95,3.72-3.17h.55c1.82,0,3.61,1.16,5.36,3.5a4.73,4.73,0,0,0,1.75-3.39v-.55q-.33-3.06-4-3.39h-.54a9.33,9.33,0,0,0-7.33,3.83.35.35,0,0,1-.11.22,1.78,1.78,0,0,1-.55.54l-2.62-2v-.32a41.4,41.4,0,0,0,9.29-10.18,15.06,15.06,0,0,0-6,1.32c-.08,0-.15.07-.22.22a.85.85,0,0,1-.77.21l-1.42-3.6Zm7.33,18.7h.55a4.36,4.36,0,0,0,1.42-.22,1.51,1.51,0,0,0-.77-1.2,2.56,2.56,0,0,0-2.62-.88c-.66.37-.84.84-.55,1.42A2.27,2.27,0,0,0,535.53,194.16Z"/><path d="M570.75,177.53l2.4,2.74v.22A40.15,40.15,0,0,0,562.54,185a13.36,13.36,0,0,0-3.39,3.28,3.88,3.88,0,0,0-.65,1.86v.44a3.36,3.36,0,0,0,2.08,2.95,8.41,8.41,0,0,0,3.71.66h.77a22.68,22.68,0,0,0,6.34-.88l.22,3.29c-1.89.14-3.72.21-5.47.21h-1.64a9.85,9.85,0,0,1-5.79-1.2,5.44,5.44,0,0,1-2.85-4.92v-.55c.08-2.48,1.57-4.74,4.49-6.78a1.09,1.09,0,0,1,.54-.44,43.74,43.74,0,0,0-3.5-9.18l3-.55a65.32,65.32,0,0,1,3.28,8.2l3.94-2A12.46,12.46,0,0,0,570.75,177.53Z"/><path d="M579.5,177.64v-2.51h11.81c-.29-.88-.66-1.82-1.09-2.85l3.39-.43c.36,1.09.73,2.18,1.09,3.28h10.83v2.51Zm2.62,20.46v-9.85h20.67v9.85H600v-1.53H585v1.53Zm.11-16.19v-2.19H602.9v2.19Zm0,4.37V184H602.9v2.29Zm2.74,4.38v3.61h15v-3.61Z"/><path d="M613,181.91h.76a10.41,10.41,0,0,0,3.06-.66c1-.22,1.9-.47,2.85-.76a10.83,10.83,0,0,1,3.5-.55h.33a4.09,4.09,0,0,1,3.61,2,6.25,6.25,0,0,1,1,3.61v1q-.1,6.78-6,11.82a.7.7,0,0,0-.32.11.87.87,0,0,1-.33.1h-.11l-.11-.1a20,20,0,0,0-2.19-1.65v-.21A12.73,12.73,0,0,0,625.11,186v-.55c-.08-1.9-.88-2.88-2.41-2.95h-.44a7.52,7.52,0,0,0-2.84.87,1,1,0,0,1-.33.11,10.59,10.59,0,0,0-3,1.53l-.22.22c-.29.22-.51.29-.66.22L613,182.24Zm4.59-7,1.09-2.63h.11a35.1,35.1,0,0,0,7.66,2.3l.11.11a7,7,0,0,0-.22,1c-.22.8-.36,1.42-.44,1.85l-.11.11a8,8,0,0,1-2.07-.43.31.31,0,0,0-.22-.11q-1.53-.43-4.38-1.32c-.58-.21-1.06-.4-1.42-.54Z"/><path d="M635.39,176v-2H647v-2.18h3V174h11.7v2h-11.7v1.53h8.75v5.25h-8.75v1.54h9.29v3.5h2.52v2h-2.52v5H656.5v-1.43h-6.56v.55q.21,3.72-3.61,3.72c-.81.07-2.23.11-4.27.11a15.27,15.27,0,0,0-.55-2.41h3.61c1.39.15,2-.43,1.86-1.75v-.22H636.92v-1.75H647v-1.86H635.39v-2H647v-1.75H637v-1.75h10v-1.54h-8.75v-5.25H647V176Zm5.69,3.28V181H647v-1.75Zm14.87,0h-6V181h6Zm.55,6.79h-6.56v1.75h6.56Zm-6.56,3.71v1.86h6.56v-1.86Z"/><path d="M673.56,172.28H674l3.17.88v.22a1.65,1.65,0,0,0-.55.87c-.14.3-.25.51-.33.66-.29,1-.54,1.93-.76,3a.84.84,0,0,1-.11.33,4.47,4.47,0,0,1-.22.55h2.08a10.74,10.74,0,0,0,1.86-.22,3.19,3.19,0,0,1,.65-.11l-.54,2.73a.43.43,0,0,1-.33.11h-4.27c-.07.51-.14,1.21-.21,2.08s-.26,1.82-.33,2.41a18.3,18.3,0,0,0,5.25.11v.43l-.44,2.19a.41.41,0,0,1-.33.11h-2.3c-.8,0-1.64,0-2.51-.11v.77a3.31,3.31,0,0,0-.11.76v1.1a4.07,4.07,0,0,0,1.09,2.84,3.93,3.93,0,0,0,2.52,1h.66a4.73,4.73,0,0,0,3.17-1.1,4.47,4.47,0,0,0,1.09-3v-.44q0-1.86-2.08-5.14a2.29,2.29,0,0,0-.33-.55l3.18-.22a9.49,9.49,0,0,1,2.4,6.13v.55a6.36,6.36,0,0,1-2.29,4.81,6.8,6.8,0,0,1-4.82,1.64h-.65a6.89,6.89,0,0,1-4.71-1.86c-1.16-1-1.75-2.59-1.75-4.92v-1.1a14.82,14.82,0,0,1,.11-1.75c-.36-.14-.94-.32-1.75-.54a11.25,11.25,0,0,0-1.86-.55l.22-2.73a15.83,15.83,0,0,0,3.72,1.09v-.55a13.5,13.5,0,0,0,.44-2c.14-.8.25-1.42.33-1.85-.88-.22-1.68-.44-2.41-.66s-.87-.18-.87-.33l.21-2.73a22.9,22.9,0,0,0,3.4,1c.07-.22.18-.62.32-1.2a8.59,8.59,0,0,1,.22-1.1,5,5,0,0,1,.11-.76,13,13,0,0,0,.22-2.08Z"/><path d="M696.64,177.75h1.64c.36,0,1,0,1.75-.11h.87a1.9,1.9,0,0,1,.11-.54,25.36,25.36,0,0,0,.22-2.85,6.14,6.14,0,0,0-.11-1.09h.55c.36,0,.87,0,1.53.11a12.31,12.31,0,0,0,1.31.11,1.58,1.58,0,0,1-.22,1.09,1.09,1.09,0,0,0-.21.55,5,5,0,0,1-.22,1.09,8.51,8.51,0,0,1-.22,1.21,4,4,0,0,0,1.2-.22,29,29,0,0,0,4.92-1.1v2.74q-3,.66-6,1.2h-.55c-.07.73-.15,1.61-.22,2.63a18.35,18.35,0,0,1,3.39-.66,2,2,0,0,1,.11-.44v-.65c-.07-.15,0-.3.22-.44l2.63.44.11.21-.11.11a6.11,6.11,0,0,0-.33.88,7.17,7.17,0,0,1,4.37,1.64,8.12,8.12,0,0,1,2.52,5.36v.76c-.07,2.63-1.5,4.82-4.27,6.57a5.24,5.24,0,0,1-2.62,1.09h-.11a11.65,11.65,0,0,0-2.41-2.08,8.61,8.61,0,0,0,4.71-1.75,5.63,5.63,0,0,0,2.07-4v-.33A5.42,5.42,0,0,0,711,185a4.55,4.55,0,0,0-1.21-.44h-.22a4.1,4.1,0,0,0-1.2-.32,25.68,25.68,0,0,1-4.7,8,17.33,17.33,0,0,0,.76,2c-.21.07-.58.22-1.09.44a3.3,3.3,0,0,1-1.2.33c-.22,0-.4-.22-.55-.66a2.18,2.18,0,0,1-1.2.66,6.63,6.63,0,0,1-4.05,1.64h-.44c-1.67-.08-2.59-1.32-2.73-3.72v-.44c.07-2.11,1.13-4.27,3.17-6.45a14.2,14.2,0,0,1,4.05-2.52c0-.44,0-1.13.11-2.08a6.25,6.25,0,0,1,.11-1.09h-1.64c-.81.07-1.43.11-1.86.11h-1.64c-.22,0-.33,0-.33-.11a3,3,0,0,1-.66-1.53v-.11c-.22-.44-.25-.77-.11-1C695.14,177.72,695.91,177.75,696.64,177.75Zm4.15,14-.1-.32a45.75,45.75,0,0,1-.33-5.47,9.67,9.67,0,0,0-4.05,4.15,3.86,3.86,0,0,0-.66,2.19c.08,1.09.55,1.64,1.43,1.64a4.33,4.33,0,0,0,2.73-1.2A6.55,6.55,0,0,1,700.79,191.75Zm2.19-7v2.63a6.89,6.89,0,0,0,.11,2,19.12,19.12,0,0,0,2.85-5.25c-1.24.22-2.12.4-2.63.54A.41.41,0,0,1,703,184.75Z"/><path d="M727.81,181.36v.55a6.55,6.55,0,0,0,.44,2.62h.22l1.09-1.75h.33l1.2,1.1c-.14.29-.33.69-.55,1.2a10.93,10.93,0,0,0-1.2,4.27v.43a15.44,15.44,0,0,1-2.62.22,8.7,8.7,0,0,1-1.1-2.84,18.11,18.11,0,0,1-.65-4.92v-.88a28.38,28.38,0,0,1,.43-4,21.44,21.44,0,0,0,.44-3.61c1.1.07,2.15.18,3.17.32a19.83,19.83,0,0,0-.54,2.3A26.22,26.22,0,0,0,727.81,181.36Zm7.66-7.65,3.61-.33.21.11a11.8,11.8,0,0,0,.22,3.72,5,5,0,0,0,.22,1.2,37.62,37.62,0,0,1,.33,4.16v1.75a16.09,16.09,0,0,1-1.2,6.67,16.3,16.3,0,0,1-4.6,6.67c-.07.15-.18.15-.32,0l-2.52-1.2-.11-.22a17.56,17.56,0,0,0,3.94-4.71A16.26,16.26,0,0,0,737,184v-2.08A19.84,19.84,0,0,0,735.47,173.71Z"/><path d="M16.42,234.49v-2.63h3.5v-5.14h2.73v5.14h3.28v2.63H22.65v3.93l.77-.76a44,44,0,0,1,3.39,3.28l-1.75,2a1.3,1.3,0,0,0-.44-.44c-.8-.95-1.46-1.68-2-2.19v12.58H19.92V240.17a29.21,29.21,0,0,1-3.17,6.35c-.08-.59-.26-1.5-.55-2.74a6.93,6.93,0,0,0-.22-1.09,27.38,27.38,0,0,0,3.83-8.2Zm10.72,18.37V228.25H41.35v24.61H38.62v-1.75H29.87v1.75Zm2.73-22v4.26h8.75v-4.26Zm0,6.78v4.26h8.75v-4.26Zm0,6.78v4.26h8.75v-4.26Z"/><path d="M44.09,232.3v-2.52h4.16l-1.1-2.73,2.63-.44c.22.59.62,1.57,1.2,2.95a.35.35,0,0,1,.11.22H54v2.52Zm.76,4.15v-2.29h8.54v2.29Zm0,4.27v-2.3h8.54v2.3ZM45,252.64V242.58h8.32v9.95H50.87v-1.42H47.48v1.53ZM47.48,245v3.93h3.39V245Zm7.77,7.87c-.08-.15-.22-.4-.44-.76a17.61,17.61,0,0,0-1.21-1.75q6.46-2.62,7-6.9c.15-1.09.3-2.73.44-4.92h2.63a29.32,29.32,0,0,1-.22,3.72A10.67,10.67,0,0,0,70.67,250c-.73,1.16-1.24,2-1.53,2.62Q63.89,250,62.35,246,61.38,250,55.25,252.86Zm13.56-13.34c-2.56-1.82-4.74-3.28-6.56-4.38q-1.32,2.3-6.46,4.71a22,22,0,0,0-1.53-2.41q6.24-2.52,6.56-5.91a26.11,26.11,0,0,0,.33-4.81h2.74a28.74,28.74,0,0,1-.44,5l-.22,1.1c.51.29,1.24.73,2.19,1.31,2.26,1.31,3.93,2.33,5,3.06Zm-11.49,6.12a43.74,43.74,0,0,0-2.73-3.94l2.08-1.2a1.7,1.7,0,0,1,.22.33,34.19,34.19,0,0,1,2.62,3.39Zm.33-12.14c-.36-.51-1-1.38-2-2.62-.43-.59-.76-1-1-1.32l2-1.31a4.81,4.81,0,0,1,.33.44,42,42,0,0,1,2.73,3.39Zm9,0L64.54,232a34.45,34.45,0,0,0,3.28-3.72l2.08,1.42c-.65.88-1.64,2.05-3,3.5Zm0,12.14-2-1.53a1.17,1.17,0,0,0,.22-.33,35.71,35.71,0,0,0,2.95-3.39l2.08,1.53c-.51.66-1.31,1.57-2.4,2.74A8.07,8.07,0,0,0,66.62,245.64Z"/><path d="M77.34,227.92h.22l3.5.66a13.52,13.52,0,0,1-.33,1.42v15.1a5,5,0,0,0,.66,3,3,3,0,0,0,2.29,1.09h.66a4,4,0,0,0,1.86-.44,11.32,11.32,0,0,0,2.51-1.2,12.27,12.27,0,0,0,3.07-2.73H92l1.31,2.51c.14.15.14.22,0,.22a13.36,13.36,0,0,1-4.6,3.28A9.84,9.84,0,0,1,83.9,252h-.33a6.39,6.39,0,0,1-3.61-1.1,4.29,4.29,0,0,1-2.18-3.17c-.08-1-.11-2.08-.11-3.17V230.22a6.35,6.35,0,0,0-.22-1.31A7.1,7.1,0,0,1,77.34,227.92Z"/><path d="M102,233.17h.33l9.51-2c4.16-.87,7.29-1.49,9.41-1.85,1.09-.22,2.19-.4,3.28-.55l.22,3.17H124c-3.35,0-5.87.91-7.54,2.73a10.41,10.41,0,0,0-2.85,7.33v.44a5.78,5.78,0,0,0,1.53,4.27q1.53,1.63,4.82,1.53h1.85v3.28h-1.64a10.24,10.24,0,0,1-6.89-2.41A8.56,8.56,0,0,1,111,242.8v-1.1q0-4.26,3.5-8.53c-1,.22-2.41.59-4.38,1.1q-1.43.33-2.19.54l-1,.33a12.6,12.6,0,0,0-3.28,1.21Z"/><path d="M128.31,246.3v-.44a8.47,8.47,0,0,1,1.09-3.5,9.38,9.38,0,0,1,2-2.3,9.7,9.7,0,0,1,6.23-2.29h.22a4.12,4.12,0,0,0,.77-1.32c.87-1.53,1.79-3.06,2.73-4.59l-.22-.22a10.77,10.77,0,0,0-5.25,1.86l-.54-1.09c-.22-.44-.66-1.21-1.31-2.3l.1-.11h1.32a16.08,16.08,0,0,0,3.06-.44,4.88,4.88,0,0,1,.77-.11,17.51,17.51,0,0,0,3.39-1h.21l2.85,2.73c.07.3-.11.55-.55.77l-.11.11a13.25,13.25,0,0,0-1.86,1.53c-.22.29-.51.73-.87,1.31a4.85,4.85,0,0,0-.44.66,4.3,4.3,0,0,1-.44.66,16.48,16.48,0,0,1-1,1.86q1.2.21,2.4.54a22.36,22.36,0,0,1,3,1.21l1.42.65a24.17,24.17,0,0,0,.66-4.7v-.88h.21l3,.88V236a19.51,19.51,0,0,0-1.31,4.48.31.31,0,0,1-.11.22,2.45,2.45,0,0,1-.33,1,29.17,29.17,0,0,1,5,3.5L153,247.72h-.22q-1.86-1.64-3.83-3.17a1.33,1.33,0,0,0-.55-.33A29.27,29.27,0,0,1,147,247a15.31,15.31,0,0,1-5.36,5h-.22a11,11,0,0,0-2.29-1.75v-.11a15.55,15.55,0,0,0,5.14-3.72,9.48,9.48,0,0,0,2.07-3.39c0-.07,0-.11-.1-.11a22,22,0,0,0-7-2.63c-.37.73-.92,1.75-1.65,3.07-.51.87-.87,1.53-1.09,2q-2.62,4.6-5.58,4.05A3.22,3.22,0,0,1,128.31,246.3Zm3.39-3.17a5,5,0,0,1-.33.54,3.15,3.15,0,0,0-.66,1.1c-.29,1.31,0,2,1,2.08a2.2,2.2,0,0,0,1.31-.66.33.33,0,0,1,.11-.22,6.64,6.64,0,0,0,1.09-1.42,31.44,31.44,0,0,0,2.3-4.38A7.9,7.9,0,0,0,131.7,243.13Z"/><path d="M168.67,227.7l3.39.33.11.11a4.77,4.77,0,0,0-.44.88,1.1,1.1,0,0,1-.22.43v.44c-.07.59-.15,1.24-.22,2,.8-.07,1.93-.22,3.39-.44a10,10,0,0,0,1.42-.22l-.21,2.52a28.29,28.29,0,0,1-4.6.55,10.17,10.17,0,0,1,.11,1.75c.07.73.11,1.31.11,1.75h.22a21.72,21.72,0,0,0,4.81-.77l-.44,2.52a18.47,18.47,0,0,1-4.37.76q.11,2.52.33,5.25a19.55,19.55,0,0,1,6.12,3.39l-1.31,2a17.93,17.93,0,0,0-4.7-2.51,3.54,3.54,0,0,1-2.19,3.17,7.14,7.14,0,0,1-3.39.65h-1a5.44,5.44,0,0,1-4-1.42,3,3,0,0,1-.88-3.61,4.5,4.5,0,0,1,2.08-1.75,11.3,11.3,0,0,1,3.72-.65h1.09a8.81,8.81,0,0,1,1.64.22c-.43-.15-.36-.15.22,0a28.36,28.36,0,0,0-.22-3c-.07-.65-.11-1.16-.11-1.53h-2.29a34.69,34.69,0,0,1-3.94-.22l-.22-.11-.55-2.4v-.22c.3.07.66.15,1.1.22a19.77,19.77,0,0,0,3.06.33H169c0-1.1,0-2.37-.11-3.83h-.66c-1.9,0-3.72-.07-5.47-.22l-.22-.11-.65-2.52a16.29,16.29,0,0,1,2.18.22,25,25,0,0,0,2.74.22h2.08v-1.2A26,26,0,0,0,168.67,227.7Zm-2.41,19.15h-.66c-1.67.14-2.55.76-2.62,1.85.07.44.44.77,1.09,1a14,14,0,0,0,1.64.11h.66a4.72,4.72,0,0,0,2.41-.44,2.19,2.19,0,0,0,.76-1.75v-.44a7.61,7.61,0,0,1-1.09-.11A18.45,18.45,0,0,0,166.26,246.85Z"/><path d="M189.34,227.92h.22l3.5.66a13.52,13.52,0,0,1-.33,1.42v15.1a5,5,0,0,0,.66,3,3,3,0,0,0,2.29,1.09h.66a4,4,0,0,0,1.86-.44,11.32,11.32,0,0,0,2.51-1.2,12.27,12.27,0,0,0,3.07-2.73H204l1.31,2.51c.14.15.14.22,0,.22a13.36,13.36,0,0,1-4.6,3.28A9.84,9.84,0,0,1,195.9,252h-.33a6.39,6.39,0,0,1-3.61-1.1,4.29,4.29,0,0,1-2.18-3.17c-.08-1-.11-2.08-.11-3.17V230.22a6.35,6.35,0,0,0-.22-1.31A7.1,7.1,0,0,1,189.34,227.92Z"/><path d="M222,227.6h.22l3.28.87v.33a2.61,2.61,0,0,0-1.09,1.75,10.63,10.63,0,0,0-.66,1.86,2.68,2.68,0,0,1-.22.65l3.61-.65a3.41,3.41,0,0,0,.77-.22l.22.11v2.84q-2.62.44-5.25.66a4,4,0,0,1-.11.55c.07-.15,0-.08-.11.21a63.67,63.67,0,0,1-5.8,15l-3-.88-.11-.22a88.89,88.89,0,0,0,6.34-14.54A17,17,0,0,1,218,236c-.95.07-1.68.11-2.19.11l-.22-.11-.44-2.63.11-.22c.29,0,.77,0,1.42.11a10.23,10.23,0,0,0,1.32.11h.87a19,19,0,0,0,2.08-.11,4,4,0,0,0,.22-.65,17.4,17.4,0,0,0,.87-4.38Zm14.77,20.12-.33,3.06a28.34,28.34,0,0,1-3.61.22h-1.09a22.42,22.42,0,0,1-4.82-.55,1.76,1.76,0,0,1-.43-.1q-.76,0-1-.33l-.11-2.52a5.83,5.83,0,0,0,1,.22,28.55,28.55,0,0,0,4.81.55h.55A23.34,23.34,0,0,0,236.81,247.72ZM230.46,237h1c1.16,0,2.4,0,3.72.11l.11,2.95-.11.11a24.77,24.77,0,0,0-4.71-.65h-1.09a9.14,9.14,0,0,0-2.41.33l.44-2.74h1.42C229.55,237,230.1,237,230.46,237Z"/><path d="M243.37,248.05a4.39,4.39,0,0,1,4.48-4.49q4.05.33,4.38,4.49-.43,3.72-4.38,4.15C245.16,252,243.66,250.6,243.37,248.05Zm1.75,0q.23,2.19,2.73,2.4a2.52,2.52,0,0,0,2.63-2.4,2.67,2.67,0,0,0-2.63-2.74A2.72,2.72,0,0,0,245.12,248.05Z"/><path d="M286.14,227.92l3.39,1.64v.22a4.92,4.92,0,0,0-1.53,1.53.31.31,0,0,0-.11.22c-.08.15-.19.33-.33.55-.95,1.39-1.72,2.44-2.3,3.17a3.64,3.64,0,0,1-.87,1,6.61,6.61,0,0,1-.55.65l2.3-.33c1-.07,1.78-.14,2.29-.21a9.59,9.59,0,0,0,1.1-.11,14.76,14.76,0,0,1,2.18-.22h.55V239h-1a13.53,13.53,0,0,0-4.93,1.31,9.74,9.74,0,0,0-3.28,2.63c-1,1.31-1.35,2.44-1,3.39a4.68,4.68,0,0,0,3.28,2.62,19,19,0,0,0,3.72.55c-.07.22-.18.58-.33,1.09a15,15,0,0,1-.55,1.86h-.43a10.56,10.56,0,0,1-2.52-.43,2.6,2.6,0,0,0-.66-.11l-.65-.33c-.44-.22-1.13-.59-2.08-1.1a5.5,5.5,0,0,1-2.73-4.59v-.55a5.75,5.75,0,0,1,2-4,10.37,10.37,0,0,1,2.41-2,35.46,35.46,0,0,0-9.08,2.62,1,1,0,0,1-.43.22,3.76,3.76,0,0,1-1.75.66c-.22,0-.52-.29-.88-.88a.31.31,0,0,1-.11-.22,1.1,1.1,0,0,1-.22-.43,10.11,10.11,0,0,1-.65-2,7.5,7.5,0,0,0,3.93-.22,2,2,0,0,1,.44-.11c.37-.07.95-.22,1.75-.44l2.3-.65H279a.7.7,0,0,1,.32-.11,16.77,16.77,0,0,0,2.3-2.3,21.14,21.14,0,0,0,4.16-7.55Zm-6.46,5.91-.11.22-2.51,1.2-.22-.11a4.27,4.27,0,0,1-.22-.54,34.26,34.26,0,0,0-2.41-4.38c.15-.07.4-.22.77-.44a6.66,6.66,0,0,1,1.86-.76A32,32,0,0,1,279.68,233.83Z"/><path d="M303.09,230v-.55a6.31,6.31,0,0,0-.22-1.53,29.31,29.31,0,0,0,3.72.22v.33a3.53,3.53,0,0,0-.66,1.2,1,1,0,0,0-.11.33,31.56,31.56,0,0,0-.65,3.28.1.1,0,0,0,.11-.11l2,1.53c.07.15,0,.33-.22.55a.31.31,0,0,0-.22.11,3.67,3.67,0,0,0-.55.88q-.43.54-.66.87c.37-.29.92-.76,1.65-1.42q3.5-3.49,6.12-3.39h.44a4.17,4.17,0,0,1,1.86.44,2.64,2.64,0,0,1,1.2,2v.44a51.42,51.42,0,0,1-.55,6.24c-.22,1.38-.36,2.4-.43,3.06a4.31,4.31,0,0,0,.11,2.3c.29.65.87.84,1.75.54a6.17,6.17,0,0,0,2.51-1.64l.44-.44.11-.1c.36-.59.73-.88,1.09-.88l.88,2.95a21.66,21.66,0,0,1-2.85,2.52,6,6,0,0,1-3.06,1.09h-.44a4.23,4.23,0,0,1-2.51-1.2,6.08,6.08,0,0,1-.77-3.28v-.44a39,39,0,0,1,.55-5.36,10.24,10.24,0,0,1,.22-1.42,4,4,0,0,1,.11-.77,7.92,7.92,0,0,0,.22-1.53v-.43c-.15-.88-.88-1.24-2.19-1.1a9.92,9.92,0,0,0-2.74,1.75,2.28,2.28,0,0,1-.22.22,31.46,31.46,0,0,0-3.6,3.28,4.1,4.1,0,0,0-.55.77l-.66.65v.88c0,1.17.11,2.95.33,5.36.15,1.67.22,3,.22,3.83h-3.17v-4.16c0-1,0-1.86.11-2.73a36.92,36.92,0,0,0-3.28,4.59h-.22l-2.41-1.42v-.22q5.69-6.12,6.67-10.83l-1.53.66a11.12,11.12,0,0,0-3.39,1.64l-1.53-3.28.11-.22a16.62,16.62,0,0,0,6.45-1.32c.07-.36.15-.91.22-1.64s.11-1.16.11-1.53a5,5,0,0,1,.11-.76Z"/><path d="M327.48,228.8l3.83,1.2a6.35,6.35,0,0,1-.55,1.42c-.15.37-.26.66-.33.88a22.16,22.16,0,0,0-1.75,8.64v.87a10.31,10.31,0,0,0,1.1,5h.11c.14-.3.32-.7.54-1.21a7.2,7.2,0,0,0,.55-1.09l1.2.22q-.1.54-.33,1.53a18.08,18.08,0,0,0-.54,3.5v.65l-2.63.55a10.13,10.13,0,0,1-2-4.26,23.89,23.89,0,0,1-.54-5.58V240a29,29,0,0,1,.87-7,15.74,15.74,0,0,0,.44-3.6Zm13.78,17.5h1a22.79,22.79,0,0,0,6.12-.88l.11,3a15.24,15.24,0,0,1-5,.76h-1.2q-5.14,0-7.77-2.4a3,3,0,0,1-.88-1.32l2-1.2A7.46,7.46,0,0,0,341.26,246.3Zm.11-15.1h1.2a42.51,42.51,0,0,1,4.27.22v2.85c-.51,0-1.2,0-2.08-.11s-1.53-.11-2-.11h-1.2a21.61,21.61,0,0,0-3.06.33,17.4,17.4,0,0,1-2.85.32l-.22-2.95a19.69,19.69,0,0,0,2.52-.22A26.48,26.48,0,0,1,341.37,231.2Z"/><path d="M353.73,252.86c-.88-1-1.57-1.79-2.08-2.3q4.16-4.8,4.16-15.86v-.54h-3.28v-2.74h3.39v-4.7h2.84v4.7h6q0,10.72-.33,16.85,0,3.82-3.5,3.83c-.66.07-1.75.1-3.28.1-.15-1-.33-2-.55-2.84h2.52a1.73,1.73,0,0,0,2.07-2q.23-6.34.22-13.23h-3.28v.65Q358.54,247.72,353.73,252.86Zm13.45-.66V229.56h10.28V252.2h-2.84v-2.51h-4.7v2.51Zm2.74-19.9v14.76h4.7V232.3Z"/><path d="M384.36,236h.54a30.24,30.24,0,0,0,5.8-.55,11.54,11.54,0,0,0,3.72-.77,1.23,1.23,0,0,0,.65-.43h.22l2.52,1.53c.14.07.18.22.11.44v.11a17.29,17.29,0,0,0-3.5,3.71l-1.31,1.64h.76a3.38,3.38,0,0,1,2.08.66,4.47,4.47,0,0,1,.76,2.19,5.9,5.9,0,0,1,.22,1,13.82,13.82,0,0,0,.44,2,1.65,1.65,0,0,0,1.53,1.42h1.31a16.61,16.61,0,0,0,3.94-.54v3a29.09,29.09,0,0,1-3.5.22h-2.29a3.5,3.5,0,0,1-3.07-1.42,9.58,9.58,0,0,1-1.09-3.28,1.9,1.9,0,0,0-.11-.55,7.12,7.12,0,0,0-.22-1.1,1.63,1.63,0,0,0-1.42-1,3.07,3.07,0,0,0-2.3,1.31,58.13,58.13,0,0,0-4.7,6h-.22a21.4,21.4,0,0,0-2.73-1.75v-.11a90.22,90.22,0,0,0,7.65-8.42,20,20,0,0,0,2.63-3.72l-.11-.22a11.14,11.14,0,0,1-3.28.87,13.1,13.1,0,0,0-2.52.66,1,1,0,0,0-.55.22c-.21.22-.4.29-.54.22Zm7-8.75h.21a34.56,34.56,0,0,0,5.36,2.51,1,1,0,0,0,.33.22c.29.08.48.18.55.33l-.88,2.3-.32.11a35.1,35.1,0,0,1-6.46-3.07v-.22C390.52,228.8,390.92,228.07,391.36,227.27Z"/><path d="M408.09,242.25v-2.4h3.72l1-6.24H431.5l-.33,6.24h3.39v2.4h-3.5l-.22,3.94h2.84v2.41h-3.06q-.11,3.93-4.59,3.93a18.78,18.78,0,0,1-3.07,0h-1.75l-.54-2.29h4.48c1.53,0,2.37-.55,2.52-1.64H410.39l1-6.35Zm1.86-5.9a23,23,0,0,0-1.53-2.52,19.76,19.76,0,0,0,5.79-7.33l3.18.22a16.19,16.19,0,0,1-1.21,2.19H433.9v2.51H414.65A48.17,48.17,0,0,1,410,236.35Zm4.26,5.9-.54,3.94h5.58l.43-3.94Zm1.1-6.23-.66,3.83H420l.44-3.83Zm12.58,10.17.22-3.94h-5.58l-.44,3.94Zm.65-10.17h-5.25l-.43,3.83h5.46a11.23,11.23,0,0,0,.11-1.86C428.5,237.11,428.54,236.45,428.54,236Z"/><path d="M439.26,253l-1.2-1.2c-.59-.51-1-.91-1.31-1.21a10.57,10.57,0,0,0,2.95-5,31.92,31.92,0,0,0,.76-8.2v-9.41h18.82v19.91c.07,2.84-1.35,4.34-4.27,4.48-.95.08-2.48.11-4.59.11-.08-.43-.22-1.16-.44-2.18a3.41,3.41,0,0,0-.22-.77c1.1.07,2.48.11,4.16.11s2.37-.66,2.29-2.19v-2.84H443.09A17.19,17.19,0,0,1,439.26,253Zm4.16-15.42c0,1.6,0,3.06-.11,4.37h12.9v-4.37Zm0-6.89v4.26h12.79v-4.26Z"/><path d="M490.34,239.41v.76a9.92,9.92,0,0,1-2.95,6.89,13.49,13.49,0,0,1-5.47,3.94c0,.15-.08.15-.22,0a10.23,10.23,0,0,0-2.52-1.64v-.22q7.88-3.72,8-9.51v-.55a7.12,7.12,0,0,0-2.41-5,8.65,8.65,0,0,0-4.59-2,60.26,60.26,0,0,1-2.41,8,50.42,50.42,0,0,1-3.39,7.11q-1.42,2.63-3.5,2.63-3.28-.11-5.47-3.72a7.67,7.67,0,0,1-1.09-3.72v-.55a10.31,10.31,0,0,1,.87-3.61,13.34,13.34,0,0,1,2-3.28,12.35,12.35,0,0,1,5.91-4.48,15.66,15.66,0,0,1,5-1.09h1.2a11,11,0,0,1,8,3A10.33,10.33,0,0,1,490.34,239.41Zm-23.08,1.86v.54a6,6,0,0,0,1.1,3.39,2.48,2.48,0,0,0,2.07,1.32,2.76,2.76,0,0,0,1.86-1.32,19.47,19.47,0,0,0,1.1-2c.14-.37.25-.62.32-.77a36.69,36.69,0,0,0,3.72-10.39,17.37,17.37,0,0,0-4.15,1.09,14.94,14.94,0,0,0-4.49,4.05A8.56,8.56,0,0,0,467.26,241.27Z"/><path d="M516.92,252.53q-8.1-1.64-11.49-3.5A58.71,58.71,0,0,1,493.62,253c-.37-.8-.84-1.75-1.42-2.84a37,37,0,0,0,10.5-3,20.41,20.41,0,0,1-6-8H494.5v-2.63h9.4v-3.71H492.53v-2.63H503.9v-3.61H507v3.61H518v2.63H507v3.71h7.66v2.74a22.09,22.09,0,0,1-6.56,7.87,30.88,30.88,0,0,0,10.39,2.63,7.07,7.07,0,0,0-.55,1.09A7.86,7.86,0,0,0,516.92,252.53Zm-5.58-13.34H499.75a17.1,17.1,0,0,0,5.68,6.45A17.51,17.51,0,0,0,511.34,239.19Z"/><path d="M520.42,234.38v-2.63h3.72v-5h3v5h3.61v2.63h-3.61v4.81l3.28-.77v3l-3.28.76V249c.07,2-1,3.14-3.28,3.28a24.51,24.51,0,0,1-2.74.11q-.21-1.3-.54-2.73h2.08q1.64,0,1.53-1.53V242.8l-3.83.87-.33-3.06,4.16-.87v-5.36Zm10,16.51L529,248.6a8.65,8.65,0,0,0,2-3.07,164.94,164.94,0,0,0,5.79-18.59l3.18.55A192,192,0,0,1,533,247.83c.94-.07,2.4-.15,4.37-.22l4.59-.33q-1.63-4.69-3.39-9l2.85-.87q3.5,9,5.14,14l-2.85.87-.87-2.51q-5.15.1-9.84.65A9.91,9.91,0,0,0,530.37,250.89Z"/><path d="M549.18,231.42l.11-.11c1.31.22,2.55.48,3.72.77a2.43,2.43,0,0,1-.22.77,5,5,0,0,0-.22,1.2,7,7,0,0,0-.11,1.31v.77a20.5,20.5,0,0,0,.44,4.59,40.26,40.26,0,0,0,1.53,4.38c.51,1.16,1.13,1.75,1.86,1.75a2.58,2.58,0,0,0,1.64-.77,9.26,9.26,0,0,0,1.75-2.08h.22l1.31,2q.22.1,0,.33a4.86,4.86,0,0,1-1.53,2,5.17,5.17,0,0,1-3.61,1.53q-2.62,0-4.15-3.39a22,22,0,0,1-.77-2.19,6.53,6.53,0,0,0-.44-1.42,61.52,61.52,0,0,1-1-6.13,9.48,9.48,0,0,0-.11-1.09,6.5,6.5,0,0,0-.22-1c0-.37,0-.92-.11-1.65A8.59,8.59,0,0,0,549.18,231.42Zm16.3,2.85,2.51-.77h.22a37.55,37.55,0,0,1,4.27,7.11,7.12,7.12,0,0,1,1,2.41l-2.62,1.2h-.44a30.23,30.23,0,0,0-5-9.62Z"/><path d="M586.37,227.05h.44l3.17.87v.22a1.69,1.69,0,0,0-.55.88c-.14.29-.25.51-.33.65-.29,1-.54,1.94-.76,3a.85.85,0,0,1-.11.32,3.91,3.91,0,0,1-.22.55h2.08a10.74,10.74,0,0,0,1.86-.22,3.19,3.19,0,0,1,.65-.11l-.54,2.74a.49.49,0,0,1-.33.11h-4.27c-.07.51-.14,1.2-.22,2.08s-.25,1.82-.32,2.4a18.3,18.3,0,0,0,5.25.11v.44l-.44,2.19a.45.45,0,0,1-.33.11h-2.3c-.8,0-1.64,0-2.51-.11V244a3.39,3.39,0,0,0-.11.77v1.09a4.07,4.07,0,0,0,1.09,2.84,3.91,3.91,0,0,0,2.52,1h.65a4.74,4.74,0,0,0,3.18-1.09,4.5,4.5,0,0,0,1.09-3v-.44c0-1.23-.69-2.95-2.08-5.14a2,2,0,0,0-.33-.54l3.18-.22a9.46,9.46,0,0,1,2.4,6.12V246a6.36,6.36,0,0,1-2.29,4.81,6.76,6.76,0,0,1-4.82,1.64h-.65a6.89,6.89,0,0,1-4.71-1.86c-1.16-.94-1.75-2.58-1.75-4.92v-1.09a14.68,14.68,0,0,1,.11-1.75,16.67,16.67,0,0,0-1.75-.55,12.34,12.34,0,0,0-1.86-.55l.22-2.73a15.37,15.37,0,0,0,3.72,1.09v-.54a14.16,14.16,0,0,0,.44-2q.21-1.2.33-1.86c-.88-.22-1.68-.44-2.41-.66q-.87-.1-.87-.33l.21-2.73a20.9,20.9,0,0,0,3.39,1,11.4,11.4,0,0,0,.33-1.2,8.35,8.35,0,0,1,.22-1.09,5,5,0,0,1,.11-.77,12.78,12.78,0,0,0,.22-2.08Z"/><path d="M607.48,239.63c-1.17-1.32-2.3-2.55-3.39-3.72l2.08-1.64,1.31,1.31c1,.95,1.79,1.71,2.3,2.3Zm-.66,12.9-2.62-.87q1-3,2.51-9.08c.08-.36.15-.66.22-.88.29.08.73.22,1.31.44a7.26,7.26,0,0,1,1.21.44c-.22.87-.59,2.26-1.1,4.16Q607.38,250.46,606.82,252.53Zm1.64-19.79-2.4-2.74-1.21-1.2,2.19-1.64L608.9,229c.8.87,1.42,1.53,1.86,2Zm11.93,20c-.3-.29-.84-.76-1.65-1.42.59.44.48.33-.32-.33a27.7,27.7,0,0,0,2.51-2.4h-6v-8.75h6.23v8.53a29.86,29.86,0,0,0,2.08-2.85,72.52,72.52,0,0,1-1.09-11v-1.21h-8.32v5.14a38.83,38.83,0,0,1-.65,8.1,19.79,19.79,0,0,1-2.63,6.23,22.36,22.36,0,0,1-2.19-1.75,18.31,18.31,0,0,0,2.3-5.58,34.91,34.91,0,0,0,.55-7.11v-7.43H622v-4.16h2.62v4.16h3.06c-.36-.51-1.13-1.43-2.29-2.74l1.64-1a26.9,26.9,0,0,1,2.4,2.51l-1.64,1.21h2.63v2.4h-5.69v1q.11,2.29.33,5.79c.07.88.11,1.54.11,2a47.61,47.61,0,0,0,2.51-6.45l2.3,1a45.34,45.34,0,0,1-4.16,9.41c.22.73.44,1.5.66,2.3s.73,1.31,1.09,1.31.59-.18.66-.77a9.69,9.69,0,0,1,.11-1.09c.15-1.31.25-2.26.33-2.84a14.52,14.52,0,0,0,2,.76c-.15,1.46-.33,2.88-.55,4.27-.37,1.75-1.17,2.62-2.41,2.62-1.67,0-2.88-1.24-3.61-3.72a.1.1,0,0,1-.11-.11A41.49,41.49,0,0,1,620.39,252.75Zm-5.69-15.09v-2.3h6.67v2.3ZM617,242v4.38h2.19V242Z"/><path d="M648.71,232.52h.55a6.17,6.17,0,0,1,6.56,6.23v.55a6,6,0,0,1-1,3.28,10.07,10.07,0,0,1-3,2.84,13.39,13.39,0,0,1-6.57,2.3l-1.75-2.08a16,16,0,0,0,6.57-2.08c2.18-1.31,3.28-2.88,3.28-4.7v-.44c-.3-2.11-1.79-3.35-4.49-3.72h-.44a10.84,10.84,0,0,0-3.39.55c-.87.29-1.75.62-2.62,1l-1.2.54a34.67,34.67,0,0,0-3.18,1.75c-.07,0-.14.08-.21.22a.86.86,0,0,1-.77.22l-2.3-2.62c2-.51,4-1.1,6-1.75a2,2,0,0,0,.44-.11C644.41,233.1,646.89,232.45,648.71,232.52Z"/><path d="M670,227.6h.22l3.28.87v.33a2.61,2.61,0,0,0-1.09,1.75,10.63,10.63,0,0,0-.66,1.86,2.68,2.68,0,0,1-.22.65l3.61-.65a3.41,3.41,0,0,0,.77-.22l.22.11v2.84q-2.62.44-5.25.66a4,4,0,0,1-.11.55c.07-.15,0-.08-.11.21a63.67,63.67,0,0,1-5.8,15l-2.95-.88-.11-.22a88.89,88.89,0,0,0,6.34-14.54A17.05,17.05,0,0,1,666,236c-.94.07-1.67.11-2.18.11l-.22-.11-.44-2.63.11-.22c.29,0,.77,0,1.42.11a10.24,10.24,0,0,0,1.31.11h.88a19,19,0,0,0,2.08-.11,4,4,0,0,0,.22-.65,17.4,17.4,0,0,0,.87-4.38Zm14.77,20.12-.33,3.06a28.34,28.34,0,0,1-3.61.22h-1.09a22.35,22.35,0,0,1-4.82-.55,1.67,1.67,0,0,1-.43-.1q-.76,0-1-.33l-.11-2.52a5.83,5.83,0,0,0,1,.22,28.55,28.55,0,0,0,4.81.55h.55A23.34,23.34,0,0,0,684.81,247.72ZM678.46,237h1c1.16,0,2.4,0,3.72.11l.11,2.95-.11.11a24.88,24.88,0,0,0-4.71-.65h-1.09a9.14,9.14,0,0,0-2.41.33l.44-2.74h1.42C677.55,237,678.1,237,678.46,237Z"/><path d="M714.34,239.41v.76a10,10,0,0,1-3,6.89,13.56,13.56,0,0,1-5.47,3.94c0,.15-.08.15-.22,0a10.23,10.23,0,0,0-2.52-1.64v-.22q7.88-3.72,8-9.51v-.55a7.12,7.12,0,0,0-2.41-5,8.65,8.65,0,0,0-4.59-2,60.26,60.26,0,0,1-2.41,8,50.42,50.42,0,0,1-3.39,7.11q-1.43,2.63-3.5,2.63-3.29-.11-5.47-3.72a7.67,7.67,0,0,1-1.09-3.72v-.55a10.31,10.31,0,0,1,.87-3.61,13,13,0,0,1,2-3.28,12.35,12.35,0,0,1,5.91-4.48,15.66,15.66,0,0,1,5-1.09h1.2a11,11,0,0,1,8,3A10.37,10.37,0,0,1,714.34,239.41Zm-23.08,1.86v.54a6,6,0,0,0,1.09,3.39,2.51,2.51,0,0,0,2.08,1.32,2.76,2.76,0,0,0,1.86-1.32,19.47,19.47,0,0,0,1.1-2c.14-.37.25-.62.32-.77a36.69,36.69,0,0,0,3.72-10.39,17.37,17.37,0,0,0-4.15,1.09,14.94,14.94,0,0,0-4.49,4.05A8.56,8.56,0,0,0,691.26,241.27Z"/><path d="M715.76,233.17h.66a15.13,15.13,0,0,0,3.28-.54l1.31-.33c1.39-.37,2.73-.69,4-1q3.6-.87,7.11-1.53a22.38,22.38,0,0,0,4.37-1,3.3,3.3,0,0,0,.33,1.2,3.75,3.75,0,0,1,.22,1.64l-1.53.33a7.68,7.68,0,0,0-3.72,1.2,8.63,8.63,0,0,0-3.17,4.71,15.35,15.35,0,0,0-.66,3.82v.66a5.8,5.8,0,0,0,1.64,4.27,6.41,6.41,0,0,0,4.27,1.64h.54a6.94,6.94,0,0,0,1.75-.22v3.28h-.87a12.76,12.76,0,0,1-6.89-1.86,8.58,8.58,0,0,1-3.28-6.89V242q0-4.26,3.39-9c-2.92.73-5.84,1.54-8.75,2.41a3.41,3.41,0,0,1-.77.22,3.06,3.06,0,0,0-1.53.87l-1.75-3.06Zm20.13,1.53,1.53-1.42q.33.33.87,1a16.64,16.64,0,0,1,1.75,2l-1.53,1.31A18.42,18.42,0,0,0,735.89,234.7Zm3-2.18,1.53-1.32a18.78,18.78,0,0,1,2.52,2.85l-1.65,1.31A21.84,21.84,0,0,0,738.84,232.52Z"/><path d="M264.53,286.41l2.41,2.73v.22a40,40,0,0,0-10.61,4.48,13.36,13.36,0,0,0-3.39,3.28,3.8,3.8,0,0,0-.66,1.86v.44a3.39,3.39,0,0,0,2.08,2.95,8.49,8.49,0,0,0,3.72.66h.77a23.11,23.11,0,0,0,6.34-.87l.22,3.28c-1.9.14-3.72.22-5.47.22H258.3a10,10,0,0,1-5.8-1.21,5.43,5.43,0,0,1-2.84-4.92V299c.07-2.47,1.57-4.74,4.48-6.78a1,1,0,0,1,.55-.43,43.59,43.59,0,0,0-3.5-9.19l2.95-.55a63.72,63.72,0,0,1,3.29,8.2l3.93-2A12.89,12.89,0,0,0,264.53,286.41Z"/><path d="M274.93,287.28h.32l9.52-2c4.16-.87,7.29-1.49,9.41-1.86,1.09-.22,2.18-.4,3.28-.54l.22,3.17H297c-3.36,0-5.87.91-7.55,2.73a10.43,10.43,0,0,0-2.84,7.33v.44a5.76,5.76,0,0,0,1.53,4.26q1.53,1.65,4.81,1.53h1.86v3.29h-1.64a10.27,10.27,0,0,1-6.89-2.41,8.58,8.58,0,0,1-2.3-6.34v-1.1q0-4.26,3.5-8.53c-.94.22-2.4.59-4.37,1.09-.95.22-1.68.41-2.19.55l-1,.33a12.88,12.88,0,0,0-3.28,1.2Z"/><path d="M311.35,281.16h.43L315,282v.22a1.7,1.7,0,0,0-.55.87l-.33.66c-.29,1-.55,1.93-.76,3a.84.84,0,0,1-.11.33c-.08.22-.15.4-.22.55h2.08a11,11,0,0,0,1.86-.22,3.09,3.09,0,0,1,.65-.11L317,290a.44.44,0,0,1-.32.1h-4.27c-.07.52-.15,1.21-.22,2.08l-.33,2.41a18.31,18.31,0,0,0,5.25.11v.44l-.43,2.18a.44.44,0,0,1-.33.11h-2.3c-.8,0-1.64,0-2.51-.11v.77a2.89,2.89,0,0,0-.11.76V300a4.07,4.07,0,0,0,1.09,2.84,3.91,3.91,0,0,0,2.52,1h.65a4.69,4.69,0,0,0,3.17-1.1,4.48,4.48,0,0,0,1.1-2.95v-.44c0-1.24-.7-2.95-2.08-5.14a3.25,3.25,0,0,0-.33-.55l3.17-.21a9.47,9.47,0,0,1,2.41,6.12v.55a6.33,6.33,0,0,1-2.3,4.81,6.76,6.76,0,0,1-4.81,1.64h-.66a6.86,6.86,0,0,1-4.7-1.86q-1.76-1.43-1.75-4.92v-1.09a14.55,14.55,0,0,1,.11-1.75,17.5,17.5,0,0,0-1.75-.55,12.34,12.34,0,0,0-1.86-.55l.22-2.73a15.83,15.83,0,0,0,3.72,1.09v-.55a15.14,15.14,0,0,0,.44-2c.14-.81.25-1.43.32-1.86q-1.31-.33-2.4-.66c-.59-.07-.88-.18-.88-.33l.22-2.73a22,22,0,0,0,3.39,1q.11-.33.33-1.2a6.68,6.68,0,0,1,.22-1.09,5,5,0,0,1,.11-.77,14.28,14.28,0,0,0,.22-2.08Z"/><path d="M329.28,305l-.32-2.73h.87a5.83,5.83,0,0,1,1-.11V282.25h10.06v18.92l1.42-.22v1.32q2.4-3.39,2.63-12.15a3,3,0,0,1,.1-.65v-.55h-2.84v-2.73H345l.11-5.25H348c-.08,1.24-.11,3-.11,5.25h6.45q-.22,12.46-.44,16.51-.11,3.51-3.5,3.61c-.58.07-1.82.11-3.71.11-.15-.87-.33-1.79-.55-2.73,1.16.07,2.19.11,3.06.11a1.75,1.75,0,0,0,2-1.86v-.88q.33-8,.33-12.14h-3.72v.66a3.19,3.19,0,0,0-.11.65q.1,11.92-5.47,16.74c-.15-.15-.36-.4-.66-.77-.51-.58-.94-1.09-1.31-1.53l1-.87Q336.5,304,329.28,305Zm4.16-20.34v4.15h4.7v-4.15Zm0,6.45v4.05h4.7v-4.05Zm0,10.72h.33c1.38-.07,2.84-.22,4.37-.44v-3.94h-4.7Z"/><path d="M369.64,289h1.64a2.37,2.37,0,0,1,2.19.88,3.33,3.33,0,0,1,.66,2.07v.44a23.79,23.79,0,0,1-1,6.45q-.87,3.84-3.06,4.93a7.43,7.43,0,0,1-3.72.76h-.54c-.22,0-.33,0-.33-.11-.15-.29-.33-.69-.55-1.2a15.47,15.47,0,0,0-.76-1.53v-.11a9.57,9.57,0,0,1,1.2.11,9.48,9.48,0,0,0,1.09.11h.44a2.32,2.32,0,0,0,2.08-1,7.06,7.06,0,0,0,1.09-2,.31.31,0,0,0,.11-.21,14.23,14.23,0,0,0,1-5.25v-.66c-.08-.8-.44-1.24-1.1-1.31a19.42,19.42,0,0,0-2.4.22,9.86,9.86,0,0,1-1.21.11,41.59,41.59,0,0,1-4.15,9,19.06,19.06,0,0,1-2.3,3.07,2.85,2.85,0,0,1-1.31-.55,4.16,4.16,0,0,0-.55-.33.29.29,0,0,1-.22-.11c-.44-.07-.69-.22-.76-.44a18.15,18.15,0,0,0,4.26-5.9q1.1-2.19,2.08-4.27a8.41,8.41,0,0,0-3.17.88l-.11.11a1.42,1.42,0,0,1-.77.22l-1.53-3.18.11-.21a10.86,10.86,0,0,0,3.06,0,7.71,7.71,0,0,1,1.1-.11,7.13,7.13,0,0,1,2.07-.33c.15-.44.26-.8.33-1.1a13.68,13.68,0,0,0,.66-4.37v-.77a1,1,0,0,1-.11-.43q.43.1,1.2.21c1,.15,1.82.3,2.41.44a1.7,1.7,0,0,1-.44,1,.31.31,0,0,0-.11.22,5.21,5.21,0,0,0-.33,1.53,1.9,1.9,0,0,0-.11.54,6.37,6.37,0,0,1-.21,1.21c-.08.51-.15.91-.22,1.2A12.39,12.39,0,0,1,369.64,289Zm5.36-1.42v-.33a6.52,6.52,0,0,1,1-.76c.44-.37.76-.62,1-.77s.55.07,1,.66A16,16,0,0,1,380,288.7a50.46,50.46,0,0,1,3.4,4.49v.33l-2.63,1.64A44.13,44.13,0,0,0,375,287.61Z"/><path d="M393.6,290.23v.55a6.65,6.65,0,0,0,.43,2.63h.22l1.1-1.75h.33l1.2,1.09c-.15.29-.33.69-.55,1.2a10.93,10.93,0,0,0-1.2,4.27v.44a16.65,16.65,0,0,1-2.63.21,8.94,8.94,0,0,1-1.09-2.84,17.73,17.73,0,0,1-.66-4.92v-.88a28.76,28.76,0,0,1,.44-4,22.56,22.56,0,0,0,.44-3.61c1.09.07,2.15.18,3.17.33a21.91,21.91,0,0,0-.55,2.29A26.88,26.88,0,0,0,393.6,290.23Zm7.65-7.65,3.61-.33.22.11a11.5,11.5,0,0,0,.22,3.72,4.52,4.52,0,0,0,.22,1.2,37.62,37.62,0,0,1,.33,4.16v1.75a15.94,15.94,0,0,1-1.21,6.67,16.38,16.38,0,0,1-4.59,6.67q-.1.23-.33,0l-2.51-1.2-.11-.22a17.45,17.45,0,0,0,3.93-4.7,16.18,16.18,0,0,0,1.75-7.55v-2.08A19.84,19.84,0,0,0,401.25,282.58Z"/><path d="M425.64,281.81l3.39.33.11.11a5,5,0,0,0-.43.87,1.34,1.34,0,0,1-.22.44V284c-.08.58-.15,1.24-.22,2,.8-.07,1.93-.22,3.39-.44a10,10,0,0,0,1.42-.22l-.22,2.52a28.07,28.07,0,0,1-4.59.54,10.25,10.25,0,0,1,.11,1.75c.07.73.11,1.32.11,1.75h.22a21.79,21.79,0,0,0,4.81-.76l-.44,2.51a18.16,18.16,0,0,1-4.37.77c.07,1.68.18,3.43.32,5.25a19.1,19.1,0,0,1,6.13,3.39l-1.31,2a18.12,18.12,0,0,0-4.71-2.52,3.52,3.52,0,0,1-2.18,3.18,7.32,7.32,0,0,1-3.39.65h-1a5.48,5.48,0,0,1-4.05-1.42,3.06,3.06,0,0,1-.87-3.61,4.45,4.45,0,0,1,2.08-1.75,11.06,11.06,0,0,1,3.72-.66h1.09a9.9,9.9,0,0,1,1.64.22c-.44-.14-.36-.14.22,0a28.21,28.21,0,0,0-.22-2.95c-.07-.66-.11-1.17-.11-1.53h-2.3a34.51,34.51,0,0,1-3.93-.22l-.22-.11-.55-2.41v-.21c.29.07.66.14,1.09.21a20,20,0,0,0,3.07.33H426c0-1.09,0-2.37-.11-3.83h-.65c-1.9,0-3.72-.07-5.47-.21l-.22-.11-.66-2.52a15,15,0,0,1,2.19.22,25.06,25.06,0,0,0,2.73.22h2.08v-1.2A23.71,23.71,0,0,0,425.64,281.81ZM423.24,301h-.66c-1.68.15-2.55.77-2.62,1.86.07.44.43.77,1.09,1a13.82,13.82,0,0,0,1.64.11h.66a4.77,4.77,0,0,0,2.4-.44,2.2,2.2,0,0,0,.77-1.75v-.44a9.59,9.59,0,0,1-1.1-.11A19.16,19.16,0,0,0,423.24,301Z"/><path d="M446.32,282h.21l3.5.66a13.91,13.91,0,0,1-.32,1.42V299.2a5.06,5.06,0,0,0,.65,3,3,3,0,0,0,2.3,1.09h.66a4.1,4.1,0,0,0,1.85-.44,11.19,11.19,0,0,0,2.52-1.2,11.91,11.91,0,0,0,3.06-2.74H461l1.31,2.52c.15.15.15.22,0,.22a13.46,13.46,0,0,1-4.59,3.28,9.84,9.84,0,0,1-4.81,1.2h-.33a6.36,6.36,0,0,1-3.61-1.09,4.32,4.32,0,0,1-2.19-3.17c-.07-1-.11-2.08-.11-3.17V284.33a5.73,5.73,0,0,0-.22-1.31A6.75,6.75,0,0,1,446.32,282Z"/><path d="M479,281.7h.22l3.28.88v.33a2.61,2.61,0,0,0-1.1,1.75,11,11,0,0,0-.65,1.86,3.19,3.19,0,0,1-.22.65l3.61-.65a3.89,3.89,0,0,0,.76-.22l.22.11v2.84q-2.62.44-5.25.66a2.65,2.65,0,0,1-.11.54c.08-.14,0-.07-.11.22a63.27,63.27,0,0,1-5.79,15l-3-.88-.1-.22A88.89,88.89,0,0,0,477.16,290a17.42,17.42,0,0,1-2.19.1c-1,.08-1.68.11-2.19.11l-.21-.11-.44-2.62.11-.22c.29,0,.76,0,1.42.11a12.31,12.31,0,0,0,1.31.11h.88c.65,0,1.35,0,2.07-.11a2.78,2.78,0,0,0,.22-.66,17,17,0,0,0,.88-4.37Zm14.76,20.13-.32,3.06a28.34,28.34,0,0,1-3.61.22h-1.1a22.33,22.33,0,0,1-4.81-.55,1.55,1.55,0,0,1-.44-.11c-.51,0-.84-.11-1-.33l-.11-2.51a7.15,7.15,0,0,0,1,.22,29.52,29.52,0,0,0,4.82.54h.54A23.83,23.83,0,0,0,493.78,301.83Zm-6.34-10.72h1c1.17,0,2.41,0,3.72.11l.11,2.95-.11.11a24.17,24.17,0,0,0-4.7-.66h-1.09a9,9,0,0,0-2.41.33l.44-2.73h1.42C486.53,291.15,487.08,291.11,487.44,291.11Z"/><path d="M505.27,283.34l-.66,16.08h-2.73l-.55-16.08Zm-.22,22.43h-3.5v-3.5h3.5Z"/></g></g></svg>